<svg xmlns="http://www.w3.org/2000/svg" fill="none" viewBox="0 0 14 14" xmlns:xlink="http://www.w3.org/1999/xlink"><g fill-rule="evenodd" clip-path="url(#a)" clip-rule="evenodd"><path fill="#007bff" d="M7 .25a4.37 4.37 0 0 0-4.372 4.372c0 .825-.145 1.453-.348 1.929-.056.133-.17.248-.39.39q-.135.084-.275.162l-.093.054a5 5 0 0 0-.426.273c-.518.383-.708.973-.682 1.505.025.517.257 1.057.69 1.383q.042.032.087.06.11.07.226.125c.196.094.493.208.928.318.87.22 2.31.429 4.655.429 2.344 0 3.785-.209 4.655-.429.435-.11.732-.224.928-.318q.153-.072.293-.17l.02-.015c.433-.326.665-.866.69-1.383.026-.532-.164-1.122-.682-1.505a5 5 0 0 0-.426-.273l-.093-.054a7 7 0 0 1-.274-.163c-.22-.14-.335-.256-.392-.389a4 4 0 0 1-.117-.316c-.142-.55-.23-1.07-.23-1.613A4.37 4.37 0 0 0 7 .25"/><path fill="#2859c5" d="M5.296 12.135a.5.5 0 0 1 .542-.15c.254.086.628.152 1.162.152s.908-.066 1.162-.152a.5.5 0 0 1 .6.71 2 2 0 0 1-3.525 0 .5.5 0 0 1 .059-.56"/></g><defs><clipPath id="a"><path fill="#fff" d="M0 0h14v14H0z"/></clipPath></defs></svg>