<svg width="20" height="20" viewBox="0 0 20 20" fill="none" xmlns="http://www.w3.org/2000/svg">
<g clip-path="url(#clip0_52_7802)">
<mask id="mask0_52_7802" style="mask-type:luminance" maskUnits="userSpaceOnUse" x="0" y="0" width="21" height="21">
<path d="M20.0078 0.00683594H0.0078125V20.0068H20.0078V0.00683594Z" fill="white"/>
</mask>
<g mask="url(#mask0_52_7802)">
<path d="M19.5184 8.82823L18.1543 7.46413C17.8308 7.14064 17.5662 6.50044 17.5662 6.04121V4.11157C17.5662 3.19313 16.8174 2.44435 15.8989 2.44435H13.9693C13.5101 2.44435 12.8699 2.17967 12.5464 1.85618L11.1823 0.492074C10.5353 -0.15491 9.47429 -0.15491 8.82505 0.492074L7.46095 1.85618C7.13745 2.17967 6.49499 2.44435 6.03803 2.44435H4.10839C3.1922 2.44435 2.44115 3.19313 2.44115 4.11157V6.04121C2.44115 6.49817 2.17648 7.14064 1.85298 7.46413L0.488889 8.82823C-0.160359 9.47521 -0.160359 10.5362 0.488889 11.1855L1.85298 12.5496C2.17648 12.8731 2.44115 13.5155 2.44115 13.9725V15.902C2.44115 16.8182 3.1922 17.5693 4.10839 17.5693H6.03803C6.49725 17.5693 7.13745 17.8339 7.46095 18.1574L8.82505 19.5215C9.47203 20.1685 10.533 20.1685 11.1823 19.5215L12.5464 18.1574C12.8699 17.8339 13.5101 17.5693 13.9693 17.5693H15.8989C16.8151 17.5693 17.5662 16.8182 17.5662 15.902V13.9725C17.5662 13.5133 17.8308 12.8731 18.1543 12.5496L19.5184 11.1855C20.1654 10.5385 20.1654 9.47748 19.5184 8.82823Z" fill="#FFBF2A"/>
<path d="M8.8919 13.7239L5.26562 10.0976L6.85367 8.50956L8.8919 10.5478L13.1516 6.28809L14.7397 7.87615L8.8919 13.7239Z" fill="white"/>
</g>
</g>
<defs>
<clipPath id="clip0_52_7802">
<rect width="20" height="20" fill="white"/>
</clipPath>
</defs>
</svg>
