<svg width="389" height="366" viewBox="0 0 389 366" fill="none" xmlns="http://www.w3.org/2000/svg">
<g opacity="0.19">
<path opacity="0.19" d="M6.52161 248.494C-19.9888 153.067 36.7201 75.7085 133.184 75.7085C229.648 75.7085 329.34 153.067 355.85 248.494C368.615 294.442 362.079 336.197 341.108 367.148H87.1902C49.0217 336.197 19.2865 294.442 6.52161 248.494Z" fill="#057BF4"/>
</g>
<g opacity="0.35">
<rect width="4.65447" height="12.1837" transform="matrix(-1 0 0 1 327.6 121.029)" fill="url(#paint0_linear_106_43938)"/>
<rect width="4.65447" height="12.1837" transform="matrix(0.707107 0.707107 0.707107 -0.707107 290.558 217.021)" fill="url(#paint1_linear_106_43938)"/>
<rect width="5.24855" height="13.7389" transform="matrix(-0.340983 0.940069 0.940069 0.340983 273.493 157.13)" fill="url(#paint2_linear_106_43938)"/>
<rect width="5.70872" height="14.9434" transform="matrix(0.850759 -0.525556 -0.525556 -0.850759 350.83 226.64)" fill="url(#paint3_linear_106_43938)"/>
<rect width="2.53722" height="6.64155" transform="matrix(0.44206 0.896985 0.896985 -0.44206 277.558 195.853)" fill="url(#paint4_linear_106_43938)"/>
<rect width="2.53722" height="6.64155" transform="matrix(-0.79158 0.611066 0.611066 0.79158 292.541 137.789)" fill="url(#paint5_linear_106_43938)"/>
<rect width="2.53722" height="6.64155" transform="matrix(-0.806899 -0.590689 -0.590689 0.806899 356.225 137.779)" fill="url(#paint6_linear_106_43938)"/>
<path d="M356.682 135.008C356.29 134.722 355.802 134.603 355.323 134.677C354.844 134.751 354.414 135.013 354.128 135.404L353.988 135.594C353.392 136.408 353.569 137.551 354.384 138.148C355.198 138.744 356.341 138.567 356.937 137.752L357.077 137.562C357.363 137.171 357.482 136.683 357.408 136.204C357.334 135.725 357.073 135.295 356.682 135.008Z" fill="url(#paint7_linear_106_43938)"/>
<rect width="2.53722" height="6.64155" transform="matrix(0.60063 -0.799527 -0.799527 -0.60063 368.153 203.778)" fill="url(#paint8_linear_106_43938)"/>
<rect width="5.24856" height="13.7389" transform="matrix(-0.1459 -0.989299 -0.989299 0.1459 379.998 168.797)" fill="url(#paint9_linear_106_43938)"/>
<path d="M387.155 165.435L387.055 164.757C386.538 161.253 383.279 158.831 379.775 159.348C376.27 159.865 373.849 163.124 374.366 166.628L374.465 167.306C374.982 170.81 378.242 173.232 381.746 172.715C385.25 172.198 387.672 168.939 387.155 165.435L387.155 165.435Z" fill="url(#paint10_linear_106_43938)"/>
<ellipse cx="44.8037" cy="44.8037" rx="44.8037" ry="44.8037" transform="matrix(-1 0 0 1 370.075 132.022)" fill="url(#paint11_linear_106_43938)"/>
<mask id="mask0_106_43938" style="mask-type:luminance" maskUnits="userSpaceOnUse" x="280" y="132" width="91" height="90">
<ellipse cx="44.8037" cy="44.8037" rx="44.8037" ry="44.8037" transform="matrix(-1 0 0 1 370.077 132.023)" fill="white"/>
</mask>
<g mask="url(#mask0_106_43938)">
<path d="M318.214 127.601C258.286 193.569 291.782 220.63 332.327 221.631C372.872 222.631 298.142 251.692 298.142 251.692L274.062 176.132L280.705 127.973" fill="url(#paint12_linear_106_43938)"/>
</g>
<ellipse cx="9.99766" cy="9.99766" rx="9.99766" ry="9.99766" transform="matrix(-1 0 0 1 356.568 156.04)" fill="url(#paint13_linear_106_43938)"/>
<ellipse cx="9.99766" cy="9.99766" rx="9.99766" ry="9.99766" transform="matrix(-1 0 0 1 319.265 143.931)" fill="url(#paint14_linear_106_43938)"/>
<ellipse cx="9.99766" cy="9.99766" rx="9.99766" ry="9.99766" transform="matrix(-1 0 0 1 322.944 189.465)" fill="url(#paint15_linear_106_43938)"/>
<circle cx="3.42234" cy="3.42234" r="3.42234" transform="matrix(-1 0 0 1 359.446 132.486)" fill="url(#paint16_linear_106_43938)"/>
<circle cx="3.42234" cy="3.42234" r="3.42234" transform="matrix(-1 0 0 1 294.618 134.698)" fill="url(#paint17_linear_106_43938)"/>
<circle cx="3.42234" cy="3.42234" r="3.42234" transform="matrix(-1 0 0 1 372.698 199.611)" fill="url(#paint18_linear_106_43938)"/>
<circle cx="3.42234" cy="3.42234" r="3.42234" transform="matrix(-1 0 0 1 280.576 193.714)" fill="url(#paint19_linear_106_43938)"/>
<circle cx="7.05629" cy="7.05629" r="7.05629" transform="matrix(-1 0 0 1 332.329 113.488)" fill="url(#paint20_linear_106_43938)"/>
<circle cx="7.05629" cy="7.05629" r="7.05629" transform="matrix(-1 0 0 1 278.074 151.542)" fill="url(#paint21_linear_106_43938)"/>
<circle cx="8.33654" cy="8.33654" r="8.33654" transform="matrix(-1 0 0 1 297.974 213.293)" fill="url(#paint22_linear_106_43938)"/>
<circle cx="8.33654" cy="8.33654" r="8.33654" transform="matrix(-1 0 0 1 361.864 217.239)" fill="url(#paint23_linear_106_43938)"/>
</g>
<path d="M181.959 209.08L187.992 208.117C222.899 202.543 246.293 181.643 246.529 181.432L247.166 180.855C247.166 180.852 247.173 180.855 247.173 180.855C252.101 176.983 259.081 177.138 263.832 181.226L264.183 181.553C264.706 182.031 287.915 202.992 322.433 208.095L328.684 209.019C328.684 209.022 328.677 209.041 328.684 209.041C331.564 209.787 333.576 212.385 333.576 215.361V258.11C333.576 293.82 312.406 323.802 262.8 358.34C258.341 361.483 252.396 361.518 247.899 358.428L247.836 358.384C198.186 323.821 177.002 293.839 177.002 258.11V215.361C177.014 212.376 179.06 209.785 181.959 209.08V209.08Z" fill="url(#paint24_linear_106_43938)"/>
<path d="M181.959 216.093L187.992 215.13C222.899 209.556 246.293 188.656 246.529 188.445L247.166 187.869C247.166 187.865 247.173 187.869 247.173 187.869C252.101 183.996 259.081 184.152 263.832 188.239L264.183 188.566C264.706 189.045 287.915 210.005 322.433 215.109L328.684 216.032C328.684 216.035 328.677 216.055 328.684 216.055C331.564 216.8 333.576 219.399 333.576 222.374V265.123C333.576 300.833 312.406 330.815 262.8 365.353C258.341 368.496 252.396 368.532 247.899 365.442L247.836 365.397C198.186 330.834 177.002 300.853 177.002 265.123V222.374C177.014 219.39 179.06 216.798 181.959 216.093V216.093Z" fill="url(#paint25_linear_106_43938)"/>
<mask id="mask1_106_43938" style="mask-type:luminance" maskUnits="userSpaceOnUse" x="177" y="185" width="157" height="183">
<path fill-rule="evenodd" clip-rule="evenodd" d="M181.959 216.093L187.991 215.13C222.898 209.556 246.292 188.656 246.528 188.445L247.165 187.869C247.165 187.865 247.172 187.869 247.172 187.869C252.101 183.996 259.08 184.152 263.832 188.239L264.183 188.566C264.705 189.045 287.915 210.005 322.432 215.109L328.683 216.032C328.683 216.035 328.676 216.055 328.683 216.055C331.563 216.8 333.575 219.399 333.575 222.374V265.123C333.575 300.833 312.405 330.815 262.799 365.353C258.34 368.496 252.395 368.532 247.898 365.442L247.835 365.397C198.185 330.834 177.001 300.853 177.001 265.123V222.374C177.014 219.39 179.059 216.798 181.959 216.093V216.093Z" fill="white"/>
</mask>
<g mask="url(#mask1_106_43938)">
<path d="M255.289 178.052C326.732 258.445 260.707 354.43 212.992 363.862C165.276 373.295 263.538 385.501 263.538 385.501L348.37 364.417C348.37 364.417 378.886 218.836 375.557 214.783C372.228 210.729 311.196 169.672 311.196 169.672L296.771 171.891" fill="url(#paint26_linear_106_43938)"/>
<path opacity="0.12" d="M177.002 250.945C172.859 296.913 237.219 360.164 258.858 372.925C280.496 385.686 209.478 360.721 209.478 360.721L180.072 332.422L161.208 269.386L166.201 264.152" fill="white"/>
</g>
<path d="M199.595 230.596L204.177 229.865C230.689 225.631 248.458 209.758 248.637 209.598L249.12 209.16C249.12 209.157 249.126 209.16 249.126 209.16C252.869 206.219 258.17 206.336 261.779 209.441L262.045 209.69C262.442 210.053 280.07 225.973 306.287 229.849L311.034 230.55C311.034 230.553 311.029 230.567 311.034 230.567C313.222 231.133 314.75 233.107 314.75 235.367V267.835C314.75 294.958 298.671 317.729 260.995 343.961C257.608 346.348 253.093 346.375 249.677 344.028L249.629 343.995C211.92 317.744 195.83 294.972 195.83 267.835V235.367C195.84 233.1 197.393 231.132 199.595 230.596L199.595 230.596Z" fill="url(#paint27_radial_106_43938)"/>
<mask id="mask2_106_43938" style="mask-type:luminance" maskUnits="userSpaceOnUse" x="195" y="207" width="120" height="139">
<path fill-rule="evenodd" clip-rule="evenodd" d="M199.596 230.596L204.178 229.865C230.69 225.631 248.458 209.758 248.638 209.598L249.121 209.16C249.121 209.157 249.127 209.16 249.127 209.16C252.87 206.219 258.171 206.336 261.78 209.441L262.046 209.69C262.443 210.053 280.071 225.973 306.287 229.849L311.035 230.55C311.035 230.553 311.029 230.567 311.035 230.567C313.222 231.133 314.751 233.107 314.751 235.367V267.835C314.751 294.958 298.672 317.729 260.996 343.961C257.609 346.348 253.093 346.375 249.678 344.028L249.63 343.995C211.92 317.744 195.831 294.972 195.831 267.835V235.367C195.84 233.1 197.394 231.132 199.596 230.596L199.596 230.596Z" fill="white"/>
</mask>
<g mask="url(#mask2_106_43938)">
<path d="M259.785 291.007L261.455 299.529L218.357 348.512L177.004 304.495L226.526 264.6L255.291 276.4" fill="url(#paint28_linear_106_43938)"/>
</g>
<path d="M229.949 261.176H245.701V245.423C245.701 243.532 247.235 241.999 249.126 241.999H261.454C263.345 241.999 264.879 243.532 264.879 245.423V261.176H280.631C282.522 261.176 284.056 262.709 284.056 264.601V276.928C284.056 278.819 282.522 280.353 280.631 280.353H264.879V296.105C264.879 297.996 263.345 299.53 261.454 299.53H249.126C247.235 299.53 245.701 297.996 245.701 296.105V280.353H229.949C228.058 280.353 226.524 278.819 226.524 276.928V264.601C226.524 262.709 228.058 261.176 229.949 261.176Z" fill="white"/>
<mask id="mask3_106_43938" style="mask-type:luminance" maskUnits="userSpaceOnUse" x="226" y="241" width="59" height="59">
<path fill-rule="evenodd" clip-rule="evenodd" d="M229.949 261.176H245.701V245.423C245.701 243.532 247.235 241.999 249.126 241.999H261.454C263.345 241.999 264.879 243.532 264.879 245.423V261.176H280.631C282.522 261.176 284.056 262.709 284.056 264.601V276.928C284.056 278.819 282.522 280.353 280.631 280.353H264.879V296.105C264.879 297.996 263.345 299.53 261.454 299.53H249.126C247.235 299.53 245.701 297.996 245.701 296.105V280.353H229.949C228.058 280.353 226.524 278.819 226.524 276.928V264.601C226.524 262.709 228.058 261.176 229.949 261.176Z" fill="white"/>
</mask>
<g mask="url(#mask3_106_43938)">
<path opacity="0.5" d="M245.7 245.424C229.948 280.353 269.769 285.605 271.618 301.154C273.468 316.703 246.096 324.84 246.096 324.84L223.163 282.991L216.505 253.247L245.7 245.424" fill="url(#paint29_linear_106_43938)"/>
</g>
<path opacity="0.71" d="M39.1482 318.214L85.885 234.563L87.7377 230.593V147.804H128.741V230.592L130.594 234.563L177.331 318.214C188.862 338.853 173.943 364.279 150.301 364.279H66.1779C42.5362 364.279 27.6169 338.853 39.1482 318.214Z" fill="url(#paint30_linear_106_43938)"/>
<mask id="mask4_106_43938" style="mask-type:luminance" maskUnits="userSpaceOnUse" x="35" y="147" width="147" height="218">
<path fill-rule="evenodd" clip-rule="evenodd" d="M39.1482 318.214L85.885 234.563L87.7377 230.593V147.804H128.741V230.592L130.594 234.563L177.331 318.214C188.862 338.853 173.943 364.279 150.301 364.279H66.1779C42.5362 364.279 27.6169 338.853 39.1482 318.214Z" fill="white"/>
</mask>
<g mask="url(#mask4_106_43938)">
<path opacity="0.47" d="M128.739 179.865C127.573 155.263 124.78 156.698 103.213 152.884C81.6458 149.07 125.644 149.07 125.644 149.07L140.839 150.922" fill="url(#paint31_linear_106_43938)"/>
</g>
<path d="M98.197 290.292C118.541 273.981 134.633 274.162 153.383 282.038L172.159 315.643C182.827 334.737 169.024 358.261 147.151 358.261H69.3227C47.4498 358.261 33.6467 334.737 44.3152 315.643L59.744 288.028C71.5061 296.18 83.5302 302.051 98.197 290.292Z" fill="url(#paint32_radial_106_43938)"/>
<mask id="mask5_106_43938" style="mask-type:luminance" maskUnits="userSpaceOnUse" x="40" y="276" width="136" height="83">
<path fill-rule="evenodd" clip-rule="evenodd" d="M98.1965 290.292C118.54 273.981 134.632 274.162 153.383 282.038L172.158 315.643C182.827 334.737 169.024 358.261 147.151 358.261H69.3222C47.4493 358.261 33.6462 334.737 44.3147 315.643L59.7435 288.028C71.5056 296.18 83.5297 302.051 98.1965 290.292Z" fill="white"/>
</mask>
<g mask="url(#mask5_106_43938)">
<path opacity="0.41" d="M144.937 276.014C174.34 352.822 100.027 348.217 54.2248 354.006C8.42213 359.795 100.96 370.889 108.236 370.407C115.512 369.925 184.975 356.418 187.869 355.936C190.764 355.453 201.859 310.109 191.728 298.532C181.598 286.954 172.433 271.518 172.433 271.518" fill="url(#paint33_linear_106_43938)"/>
</g>
<rect width="53.1846" height="7.62807" rx="3.81403" transform="matrix(-1 0 0 1 134.832 145.255)" fill="url(#paint34_linear_106_43938)"/>
<circle opacity="0.2" cx="2.03057" cy="2.03057" r="2.03057" transform="matrix(-1 0 0 1 133.449 310.976)" fill="white"/>
<circle opacity="0.2" cx="2.80609" cy="2.80609" r="2.80609" transform="matrix(-1 0 0 1 111.083 308.761)" fill="white"/>
<circle opacity="0.2" cx="1.73551" cy="1.73551" r="1.73551" transform="matrix(-1 0 0 1 128.156 322.866)" fill="white"/>
<circle opacity="0.2" cx="6.68095" cy="6.68095" r="6.68095" transform="matrix(-1 0 0 1 68.0459 321.637)" fill="white"/>
<path d="M278.737 61.5706H282.09L263.963 114.952C263.142 117.368 261.344 119.327 259.007 120.35C256.67 121.373 254.01 121.365 251.679 120.329C249.32 119.28 247.519 117.277 246.726 114.819C245.934 112.362 246.225 109.684 247.528 107.455L271.945 65.6526L278.737 61.5706Z" fill="url(#paint35_linear_106_43938)"/>
<mask id="mask6_106_43938" style="mask-type:luminance" maskUnits="userSpaceOnUse" x="246" y="61" width="37" height="61">
<path fill-rule="evenodd" clip-rule="evenodd" d="M278.738 61.5706H282.091L263.963 114.952C263.143 117.368 261.344 119.327 259.007 120.35C256.67 121.373 254.011 121.365 251.68 120.329C249.32 119.28 247.519 117.277 246.727 114.819C245.935 112.362 246.226 109.684 247.528 107.455L271.946 65.6526L278.738 61.5706Z" fill="white"/>
</mask>
<g mask="url(#mask6_106_43938)">
<path opacity="0.34" d="M272.813 113.693C251.678 120.329 248.294 117.668 247.527 107.455C246.761 97.2415 242.419 119.707 242.419 119.707L251.669 128.769L266.772 121.115" fill="url(#paint36_linear_106_43938)"/>
<path opacity="0.34" d="M279.183 77.8121C277.019 81.225 270.609 69.4048 266.197 71.0696C261.786 72.7345 272.357 84.0551 272.357 84.0551L278.101 85.5534L282.091 81.4747" fill="url(#paint37_linear_106_43938)"/>
</g>
<path d="M281.689 59.1693C279.51 55.4785 272.251 46.8241 271.377 46.8465C269.521 46.8939 270.753 52.0282 274.424 55.5674C270.51 51.8321 269.354 55.3007 272.645 59.1248C269.176 56.6347 268.554 59.9253 270.722 63.3048C272.342 65.8281 273.134 72.2428 272.867 72.9098C272.6 73.5768 275.356 71.309 275.356 71.309L277.803 66.9067C277.803 66.9067 283.868 62.8601 281.689 59.1693Z" fill="url(#paint38_linear_106_43938)"/>
<path d="M235.089 271.131C216.507 277.163 179.312 264.765 179.312 264.765L190.413 233.602L211.441 189.264" fill="url(#paint39_linear_106_43938)"/>
<ellipse cx="18.3018" cy="13.3491" rx="18.3018" ry="13.3491" transform="matrix(-0.622822 -0.782364 -0.782364 0.622822 247.124 55.8618)" fill="url(#paint40_linear_106_43938)"/>
<path d="M279.964 92.2853C275.174 77.4916 267.004 69.378 267.004 69.378L249.161 94.7077C268.223 99.6183 243.859 70.2058 238.539 61.1584C238.539 61.1584 234.058 63.169 228.119 100.756C227.94 101.888 234.668 137.815 251.246 135.997C260.544 134.977 279.964 92.2853 279.964 92.2853Z" fill="url(#paint41_linear_106_43938)"/>
<mask id="mask7_106_43938" style="mask-type:luminance" maskUnits="userSpaceOnUse" x="228" y="61" width="52" height="76">
<path fill-rule="evenodd" clip-rule="evenodd" d="M279.964 92.2855C275.174 77.4919 267.004 69.3782 267.004 69.3782L249.161 94.708C268.223 99.6186 243.859 70.206 238.539 61.1587C238.539 61.1587 234.058 63.1692 228.119 100.756C227.94 101.888 234.668 137.815 251.246 135.997C260.544 134.977 279.964 92.2855 279.964 92.2855Z" fill="white"/>
</mask>
<g mask="url(#mask7_106_43938)">
<path d="M237.865 89.5371C243.922 157.556 261.336 118.876 264.188 122.087C270.229 128.889 253.033 141.831 253.033 141.831L237.865 141.74L235.091 110.122L237.395 96.2453" fill="url(#paint42_linear_106_43938)"/>
</g>
<path d="M263.536 363.063C263.536 363.063 261.316 354.935 249.659 354.935C238.002 354.935 231.063 344.531 231.063 344.531V228.136L226.622 113.692L201.642 127.347C201.642 148.155 219.196 345.394 219.196 345.394C219.196 345.394 216.908 363.063 217.185 363.063L263.536 363.063Z" fill="url(#paint43_linear_106_43938)"/>
<mask id="mask8_106_43938" style="mask-type:luminance" maskUnits="userSpaceOnUse" x="201" y="113" width="63" height="251">
<path fill-rule="evenodd" clip-rule="evenodd" d="M263.536 363.063C263.536 363.063 261.315 354.935 249.658 354.935C238.001 354.935 231.062 344.531 231.062 344.531V228.136L226.621 113.692L201.642 127.347C201.642 148.155 219.196 345.394 219.196 345.394C219.196 345.394 216.907 363.063 217.185 363.063L263.536 363.063Z" fill="white"/>
</mask>
<g mask="url(#mask8_106_43938)">
<path opacity="0.34" d="M235.091 277.231C239.404 282.558 217.096 287.553 213.1 292.547C209.105 297.542 210.561 271.934 210.561 271.934L232.59 265.734" fill="url(#paint44_linear_106_43938)"/>
</g>
<path d="M218.441 350.717L216.954 361.091C216.82 362.057 217.112 363.034 217.755 363.768C218.398 364.501 219.327 364.92 220.302 364.914H267.271C267.271 364.914 263.94 354.294 250.34 355.161C243.587 363.289 218.441 350.717 218.441 350.717Z" fill="url(#paint45_linear_106_43938)"/>
<path d="M211.079 146.638L191.65 221.2L165.191 348.216C165.191 348.216 163.169 363.388 162.428 364.689H119.256C128.658 348.216 144.097 360.354 150.018 347.132L181.844 134.933L211.079 146.638Z" fill="url(#paint46_linear_106_43938)"/>
<mask id="mask9_106_43938" style="mask-type:luminance" maskUnits="userSpaceOnUse" x="119" y="134" width="93" height="231">
<path fill-rule="evenodd" clip-rule="evenodd" d="M211.08 146.639L191.651 221.201L165.191 348.216C165.191 348.216 163.169 363.389 162.429 364.689H119.257C128.659 348.216 144.097 360.354 150.018 347.133L181.844 134.934L211.08 146.639Z" fill="white"/>
</mask>
<g mask="url(#mask9_106_43938)">
<path opacity="0.34" d="M185.298 291.548C171.564 285.305 156.268 275.25 161.169 272.786C166.07 270.322 184.299 275.317 184.299 275.317" fill="url(#paint47_linear_106_43938)"/>
</g>
<path d="M165.317 348.216V360.24C165.305 362.85 163.211 364.973 160.601 365.02L117.175 365.99C117.175 365.99 113.878 357.816 131.729 354.97C146.725 364.67 165.317 348.216 165.317 348.216Z" fill="url(#paint48_linear_106_43938)"/>
<path d="M239.109 214.868C207.283 222.671 174.441 223.801 167.04 218.599L185.658 116.008L228.443 122.985L239.109 214.868Z" fill="url(#paint49_linear_106_43938)"/>
<mask id="mask10_106_43938" style="mask-type:luminance" maskUnits="userSpaceOnUse" x="167" y="116" width="73" height="106">
<path fill-rule="evenodd" clip-rule="evenodd" d="M239.109 214.868C207.283 222.671 174.44 223.801 167.039 218.599L185.657 116.008L228.442 122.985L239.109 214.868Z" fill="white"/>
</mask>
<g mask="url(#mask10_106_43938)">
<path d="M222.346 175.186C214.003 175.68 223.081 130.905 209.518 130.462C195.955 130.019 206.891 121.521 206.891 121.521L230.148 124.319L231.75 126.678" fill="url(#paint50_linear_106_43938)"/>
</g>
<ellipse cx="18.3018" cy="13.3491" rx="18.3018" ry="13.3491" transform="matrix(-0.622822 -0.782364 -0.782364 0.622822 225.698 43.1912)" fill="url(#paint51_linear_106_43938)"/>
<ellipse cx="10.583" cy="9.40163" rx="10.583" ry="9.40163" transform="matrix(-0.719953 -0.694023 -0.694023 0.719953 236.237 43.8032)" fill="url(#paint52_linear_106_43938)"/>
<path d="M226.575 56.6344C226.575 56.6344 204.164 44.6282 177.216 56.6344C171.347 71.8423 188.591 107.784 183.086 120.401C183.086 120.401 214.673 134.172 230.148 123.766C234.95 118.964 224.058 105.467 232.178 92.3863C241.131 77.9649 226.575 56.6344 226.575 56.6344Z" fill="url(#paint53_linear_106_43938)"/>
<mask id="mask11_106_43938" style="mask-type:luminance" maskUnits="userSpaceOnUse" x="175" y="51" width="61" height="77">
<path fill-rule="evenodd" clip-rule="evenodd" d="M226.575 56.6352C226.575 56.6352 204.164 44.6289 177.216 56.6352C171.347 71.8431 188.591 107.785 183.086 120.402C183.086 120.402 214.673 134.173 230.148 123.767C234.95 118.965 224.058 105.468 232.178 92.3871C241.131 77.9656 226.575 56.6352 226.575 56.6352Z" fill="white"/>
</mask>
<g mask="url(#mask11_106_43938)">
<path d="M221.013 53.2519C226.575 75.1196 201.488 63.7639 191.428 51.299C181.367 38.8341 192.259 41.3974 192.259 41.3974L221.929 49.8487" fill="url(#paint54_linear_106_43938)"/>
<path d="M183.457 86.4143C183.323 105.091 184.924 126.746 218.719 126.279C252.515 125.813 234.355 135.127 234.355 135.127L183.501 133.639L181.189 132.394L167.04 101.622L170.017 83.7046L181.045 80.8608C179.479 103.129 196.298 96.1013 196.298 96.1013" fill="url(#paint55_linear_106_43938)"/>
</g>
<path d="M214.287 35.9336C213.833 37.0937 220.173 59.3992 220.173 59.3992L199.27 55.2924L200.164 27.8674L214.287 35.9336Z" fill="url(#paint56_linear_106_43938)"/>
<mask id="mask12_106_43938" style="mask-type:luminance" maskUnits="userSpaceOnUse" x="199" y="27" width="22" height="33">
<path fill-rule="evenodd" clip-rule="evenodd" d="M214.286 35.9336C213.832 37.0937 220.172 59.3992 220.172 59.3992L199.269 55.2924L200.163 27.8674L214.286 35.9336Z" fill="white"/>
</mask>
<g mask="url(#mask12_106_43938)">
<path opacity="0.34" d="M225.561 53.1127C212.212 49.8572 210.98 39.971 206.301 35.933C201.622 31.895 221.322 36.8959 221.322 36.8959L225.683 42.1195L225.134 49.5011" fill="url(#paint57_linear_106_43938)"/>
</g>
<ellipse cx="9.82063" cy="8.72439" rx="9.82063" ry="8.72439" transform="matrix(-0.719953 -0.694023 -0.694023 0.719953 233.957 13.6316)" fill="url(#paint58_linear_106_43938)"/>
<path d="M191.178 19.4666C192.254 28.5611 202.373 33.6249 211.444 33.6249C220.514 33.6249 225.1 28.5611 224.025 19.4666C222.949 10.3722 214.725 2.99976 205.654 2.99976C196.584 2.99976 190.103 10.3722 191.178 19.4666Z" fill="url(#paint59_linear_106_43938)"/>
<path d="M220.782 11.6157C238.237 60.7097 199.392 37.8556 197.701 23.466C196.726 15.1639 203.36 9.92285 203.36 9.92285L220.782 11.6157Z" fill="url(#paint60_linear_106_43938)"/>
<path d="M226.052 19.0648C216.806 19.4034 213.595 10.9177 213.595 10.9177C213.595 10.9177 211.999 27.3 197.968 25.7217L194.906 18.3876L197.213 10.7696C197.213 10.7696 205.095 6.02948 205.621 6.19876C206.148 6.36805 214.4 6.19434 214.4 6.19434L221.057 8.23025L222.995 10.7696L226.052 19.0648Z" fill="url(#paint61_linear_106_43938)"/>
<path d="M201.509 286.714C180.87 292.704 157.116 270.48 157.116 270.48C157.116 270.48 174.499 91.3425 175.146 56.6344C180.934 53.4067 187.69 51.0973 198.821 51.2983L205.627 79.4619C205.627 79.4619 215.922 232.467 201.509 286.714Z" fill="url(#paint62_linear_106_43938)"/>
<mask id="mask13_106_43938" style="mask-type:luminance" maskUnits="userSpaceOnUse" x="157" y="51" width="53" height="237">
<path fill-rule="evenodd" clip-rule="evenodd" d="M201.509 286.714C180.87 292.704 157.116 270.48 157.116 270.48C157.116 270.48 174.499 91.3425 175.146 56.6344C180.934 53.4067 187.69 51.0973 198.821 51.2983L205.627 79.4619C205.627 79.4619 215.922 232.467 201.509 286.714Z" fill="white"/>
</mask>
<g mask="url(#mask13_106_43938)">
<path d="M203.596 120.264C212.039 126.233 164.393 140.865 164.058 147.359C163.723 153.853 161.552 110.122 161.552 110.122L172.443 83.6926L182.787 83.992C182.787 83.992 175.276 100.515 199.075 95.7898C222.873 91.0645 197.607 117.461 197.607 117.461" fill="url(#paint63_linear_106_43938)"/>
</g>
<path d="M244.998 276.651C225.381 283.457 209.925 286.055 209.925 286.055C209.925 286.055 224.436 59.3063 218.431 53.407C218.431 53.407 232.065 54.4033 238.539 61.1586C237.863 142.24 247.801 184.972 244.998 276.651Z" fill="url(#paint64_linear_106_43938)"/>
<mask id="mask14_106_43938" style="mask-type:luminance" maskUnits="userSpaceOnUse" x="209" y="53" width="37" height="234">
<path fill-rule="evenodd" clip-rule="evenodd" d="M244.998 276.651C225.381 283.457 209.925 286.055 209.925 286.055C209.925 286.055 224.436 59.3063 218.431 53.407C218.431 53.407 232.065 54.4033 238.539 61.1586C237.863 142.24 247.801 184.972 244.998 276.651Z" fill="white"/>
</mask>
<g mask="url(#mask14_106_43938)">
<path d="M256.857 147.759L256.172 173.152L234.053 174.415L231.938 147.612L256.857 147.759Z" fill="url(#paint65_linear_106_43938)"/>
<path d="M258.436 146.573C258.591 147.494 259.063 154.56 259.063 154.56L231.181 154.68L230.938 146.615L258.436 146.573Z" fill="white"/>
</g>
<path d="M207.738 108.372C207.738 108.372 208.653 62.313 199.445 49.9583L191.694 52.4399L199.077 72.5731L196.22 81.1806L207.738 108.372Z" fill="white"/>
<path d="M218.506 106.6L226.706 81.112L222.348 72.85L226.774 54.9408C226.774 54.9408 223.154 51.2859 217.922 51.2927C217.922 51.2928 220.575 95.1875 218.506 106.6Z" fill="white"/>
<path d="M198.004 96.7564C197.708 96.704 197.417 96.6263 197.135 96.5242C192.216 94.7593 188.82 85.7801 186.572 79.8379L186.086 78.5558L187.114 78.1626L187.602 79.4484C189.646 84.8514 193.066 93.8945 197.507 95.4876C198.711 95.9217 199.906 95.7812 201.161 95.0617L201.708 96.0168C200.472 96.7254 199.229 96.9725 198.004 96.7564Z" fill="url(#paint66_linear_106_43938)"/>
<mask id="mask15_106_43938" style="mask-type:luminance" maskUnits="userSpaceOnUse" x="186" y="78" width="16" height="19">
<path fill-rule="evenodd" clip-rule="evenodd" d="M198.003 96.7564C197.707 96.704 197.417 96.6263 197.134 96.5242C192.215 94.7593 188.819 85.7801 186.571 79.8379L186.085 78.5558L187.114 78.1626L187.602 79.4484C189.646 84.8514 193.065 93.8945 197.506 95.4876C198.71 95.9217 199.905 95.7812 201.16 95.0617L201.708 96.0168C200.471 96.7254 199.229 96.9725 198.003 96.7564Z" fill="white"/>
</mask>
<g mask="url(#mask15_106_43938)">
<path d="M187.809 78.8876C186.571 79.8379 186.757 80.0109 186.71 80.8168C186.662 81.6228 185.143 80.157 185.155 80.0684C185.167 79.9797 186.084 77.9345 186.154 78.0348C186.224 78.1352 187.882 78.1152 187.882 78.1152" fill="url(#paint67_linear_106_43938)"/>
</g>
<rect width="4.11488" height="2.74325" rx="0.968841" transform="matrix(0.92488 -0.380259 -0.380259 -0.92488 201.163 97.1279)" fill="url(#paint68_linear_106_43938)"/>
<path d="M230.056 69.9368C230.054 69.752 230.065 51.8043 217.921 51.2933L217.325 49.2527C231.019 49.8332 231.748 69.7171 231.75 69.9186L230.056 69.9368Z" fill="url(#paint69_linear_106_43938)"/>
<mask id="mask16_106_43938" style="mask-type:luminance" maskUnits="userSpaceOnUse" x="217" y="49" width="15" height="21">
<path fill-rule="evenodd" clip-rule="evenodd" d="M230.056 69.937C230.054 69.7523 230.065 51.8046 217.921 51.2935L217.325 49.2529C231.019 49.8334 231.748 69.7174 231.75 69.9188L230.056 69.937Z" fill="white"/>
</mask>
<g mask="url(#mask16_106_43938)">
<path d="M227.031 58.9907C228.431 66.0958 231.959 64.709 233.436 69.5359C234.913 74.3629 229.374 73.0197 229.374 73.0197L225.251 66.0333" fill="url(#paint70_linear_106_43938)"/>
</g>
<path d="M192.212 64.3327L191.939 63.364C190.817 59.4069 189.658 55.3155 191.695 52.4399C193.107 50.4445 195.197 49.2764 199.483 48.9807L199.417 50.6838C195.675 50.9451 194.174 51.8686 193.077 53.4193C191.509 55.6328 192.509 59.164 193.568 62.9016L193.843 63.8771L192.212 64.3327Z" fill="url(#paint71_linear_106_43938)"/>
<path d="M191.444 96.4558C191.734 96.3789 192.017 96.2773 192.29 96.152C197.045 93.9834 199.681 84.7524 201.426 78.6436L201.804 77.3254L200.746 77.0193L200.367 78.3413C198.78 83.8958 196.126 93.1924 191.833 95.1499C190.67 95.6828 189.467 95.6425 188.156 95.03L187.691 96.0274C188.982 96.6306 190.24 96.7733 191.444 96.4558Z" fill="url(#paint72_linear_106_43938)"/>
<rect width="4.11488" height="2.74325" rx="0.968841" transform="matrix(-0.953349 -0.301871 -0.301871 0.953349 189.151 94.4746)" fill="url(#paint73_linear_106_43938)"/>
<path d="M185.959 79.3261C182.587 70.3093 186.315 66.0707 188.075 64.6673C191.115 62.2849 195.334 62.0974 198.574 64.2006C200.384 65.3915 204.343 69.077 202.027 77.5685L200.392 77.1221C201.817 71.8974 200.816 67.7034 197.643 65.6166C195.017 63.9108 191.597 64.0614 189.131 65.9915C186.023 68.4715 185.445 73.1154 187.545 78.7327L185.959 79.3261Z" fill="url(#paint74_linear_106_43938)"/>
<ellipse cx="5.23202" cy="5.65882" rx="5.23202" ry="5.65882" transform="matrix(-0.999685 -0.0251144 -0.0251144 0.999685 235.054 68.7058)" fill="url(#paint75_linear_106_43938)"/>
<ellipse cx="3.08208" cy="2.24758" rx="3.08208" ry="2.24758" transform="matrix(-0.1147 -0.9934 -0.9934 0.1147 234.718 75.6541)" fill="url(#paint76_linear_106_43938)"/>
<path d="M213.567 96.2177C213.567 96.2177 219.289 90.9932 224.514 89.2516C229.738 87.5101 227.748 88.837 227.748 88.837L225.924 94.4762L213.567 96.2177Z" fill="url(#paint77_linear_106_43938)"/>
<path d="M213.364 113.307H242.019C244.764 113.307 248.064 111.416 249.391 109.085L269.572 73.5999C270.898 71.268 269.748 69.3777 267.003 69.3777H238.348C235.603 69.3777 232.303 71.268 230.977 73.5999L210.795 109.085C209.469 111.416 210.619 113.307 213.364 113.307Z" fill="url(#paint78_linear_106_43938)"/>
<mask id="mask17_106_43938" style="mask-type:luminance" maskUnits="userSpaceOnUse" x="210" y="69" width="61" height="45">
<path fill-rule="evenodd" clip-rule="evenodd" d="M213.365 113.308H242.02C244.765 113.308 248.065 111.417 249.391 109.085L269.573 73.6006C270.899 71.2688 269.749 69.3784 267.004 69.3784H238.349C235.604 69.3784 232.304 71.2688 230.977 73.6006L210.796 109.085C209.47 111.417 210.62 113.308 213.365 113.308Z" fill="white"/>
</mask>
<g mask="url(#mask17_106_43938)">
<path d="M229.681 102.285C233.316 104.282 216.993 105.448 216.83 110.775C216.667 116.102 225.281 117.767 225.281 117.767L201.643 118.359L209.519 102.618L220.843 101.214" fill="url(#paint79_linear_106_43938)"/>
</g>
<ellipse cx="4.64711" cy="7.99331" rx="4.64711" ry="7.99331" transform="matrix(-0.48529 -0.874353 -0.874353 0.48529 250.851 90.2405)" fill="url(#paint80_linear_106_43938)"/>
<path d="M220.865 93.9781C220.865 93.9781 228.384 94.0886 228.936 93.9781C229.489 93.8676 235.681 90.6609 236.345 93.4252C236.345 93.4252 238.888 93.9781 237.395 96.2448L234.686 98.4562C234.686 98.4562 236.566 98.0692 236.4 99.5067C236.234 100.944 229.016 104.025 228.408 104.247C227.8 104.468 219.87 104.151 215.336 105.256C210.803 106.362 200.519 110.122 200.519 110.122L197.534 98.5115L220.865 93.9781Z" fill="url(#paint81_linear_106_43938)"/>
<mask id="mask18_106_43938" style="mask-type:luminance" maskUnits="userSpaceOnUse" x="197" y="92" width="41" height="19">
<path fill-rule="evenodd" clip-rule="evenodd" d="M220.864 93.9788C220.864 93.9788 228.383 94.0893 228.936 93.9788C229.489 93.8683 235.681 90.6616 236.344 93.4259C236.344 93.4259 238.887 93.9788 237.394 96.2455L234.685 98.457C234.685 98.457 236.565 98.07 236.399 99.5074C236.233 100.945 229.015 104.026 228.407 104.247C227.799 104.468 219.869 104.151 215.335 105.257C210.802 106.363 200.519 110.122 200.519 110.122L197.533 98.5123L220.864 93.9788Z" fill="white"/>
</mask>
<g mask="url(#mask18_106_43938)">
<path opacity="0.34" d="M212.911 95.0767C217.437 95.2292 216.626 103.47 219.06 105.093C221.495 106.716 215.625 108.673 215.625 108.673L213.005 107.778L211.257 99.2871" fill="url(#paint82_linear_106_43938)"/>
</g>
<path d="M208.137 96.4854C208.137 96.4854 212.148 103.447 209.849 106.888L164.005 122.591C157.692 123.963 151.628 119.486 151.32 113.225C151.062 107.989 154.987 103.434 160.351 102.742L208.137 96.4854Z" fill="url(#paint83_linear_106_43938)"/>
<mask id="mask19_106_43938" style="mask-type:luminance" maskUnits="userSpaceOnUse" x="151" y="96" width="60" height="27">
<path fill-rule="evenodd" clip-rule="evenodd" d="M208.137 96.4861C208.137 96.4861 212.148 103.448 209.849 106.889L164.005 122.592C157.692 123.964 151.628 119.487 151.32 113.226C151.062 107.99 154.987 103.435 160.351 102.743L208.137 96.4861Z" fill="white"/>
</mask>
<g mask="url(#mask19_106_43938)">
<path opacity="0.34" d="M175.981 98.3739C154.216 102.579 150.626 113.666 151.308 119.896C151.99 126.125 143.494 103.471 143.494 103.471L151.308 96.2175H167.041" fill="url(#paint84_linear_106_43938)"/>
</g>
<path d="M212.329 94.3072C219.164 102.617 213.642 118.406 213.642 118.406C213.642 118.406 165.167 139.118 151.307 130.919C137.786 122.92 165.071 59.9017 175.145 56.6343C180.873 54.7766 187.119 79.5798 182.788 83.9922L175.981 98.3737L212.329 94.3072Z" fill="url(#paint85_linear_106_43938)"/>
<mask id="mask20_106_43938" style="mask-type:luminance" maskUnits="userSpaceOnUse" x="147" y="56" width="69" height="77">
<path fill-rule="evenodd" clip-rule="evenodd" d="M212.33 94.3072C219.165 102.617 213.643 118.406 213.643 118.406C213.643 118.406 165.168 139.118 151.308 130.919C137.787 122.92 165.072 59.9017 175.146 56.6343C180.874 54.7766 187.12 79.5798 182.788 83.9922L175.981 98.3737L212.33 94.3072Z" fill="white"/>
</mask>
<g mask="url(#mask20_106_43938)">
<path d="M181.959 97.0129L175.981 98.3741C175.981 98.3741 169.321 101.086 167.501 101.214C165.681 101.341 177.386 96.432 178.475 95.0051C179.564 93.5782 180.402 96.4859 180.402 96.4859" fill="url(#paint86_linear_106_43938)"/>
</g>
<circle cx="2.58769" cy="2.58769" r="2.58769" transform="matrix(-1 0 0 1 208.252 124.415)" fill="white"/>
<circle cx="2.58769" cy="2.58769" r="2.58769" transform="matrix(-1 0 0 1 208.252 156.883)" fill="white"/>
<path d="M195.156 151.396L194.471 176.789L172.352 178.052L170.237 151.248L195.156 151.396Z" fill="url(#paint87_linear_106_43938)"/>
<path d="M196.736 150.209C196.891 151.131 197.363 158.197 197.363 158.197L169.481 158.316L169.238 150.251L196.736 150.209Z" fill="white"/>
<path d="M225.282 25.8289C224.087 28.1888 220.516 26.4036 220.516 26.4036C220.516 26.4036 216.946 29.9739 207.739 27.8679C206.235 28.1887 209.296 36.2158 206.956 36.7017C222.302 49.6107 230.118 37.4947 225.282 25.8289Z" fill="white"/>
<path d="M209.805 29.9735L208.02 28.1883L200.403 25.4211L200.88 26.4031L208.02 29.9735" fill="white"/>
<path d="M209.52 36.0748L200.403 33.1218L208.782 37.5827L209.52 36.7658" fill="white"/>
<path d="M201.244 25.7212C186.58 20.2192 194.677 36.755 203.855 32.8613L201.244 25.7212Z" fill="url(#paint88_linear_106_43938)"/>
<g opacity="0.39">
<rect width="0.956432" height="2.5036" transform="matrix(1 0 0 -1 118.845 89.7498)" fill="url(#paint89_linear_106_43938)"/>
<rect width="0.956432" height="2.5036" transform="matrix(-0.707107 -0.707107 -0.707107 0.707107 126.457 70.0247)" fill="url(#paint90_linear_106_43938)"/>
<rect width="1.07851" height="2.82317" transform="matrix(0.340983 -0.940069 -0.940069 -0.340983 129.963 82.3311)" fill="url(#paint91_linear_106_43938)"/>
<rect width="1.17308" height="3.07069" transform="matrix(-0.850759 0.525556 0.525556 0.850759 114.071 68.0476)" fill="url(#paint92_linear_106_43938)"/>
<rect width="0.521373" height="1.36476" transform="matrix(-0.44206 -0.896985 -0.896985 0.44206 129.127 74.3745)" fill="url(#paint93_linear_106_43938)"/>
<rect width="0.518866" height="1.36169" transform="matrix(0.79158 -0.611066 -0.611066 -0.79158 126.048 86.3054)" fill="url(#paint94_linear_106_43938)"/>
<rect width="0.518697" height="1.36195" transform="matrix(0.806899 0.590689 0.590689 -0.806899 112.962 86.3081)" fill="url(#paint95_linear_106_43938)"/>
<path d="M112.867 86.8771C113.035 86.9996 113.27 86.9632 113.392 86.7959L113.421 86.7568C113.543 86.5895 113.507 86.3545 113.34 86.232C113.172 86.1095 112.937 86.1459 112.815 86.3132L112.786 86.3523C112.727 86.4326 112.703 86.5331 112.718 86.6315C112.733 86.7299 112.787 86.8182 112.867 86.8771L112.867 86.8771Z" fill="url(#paint96_linear_106_43938)"/>
<rect width="0.521373" height="1.36476" transform="matrix(-0.60063 0.799527 0.799527 0.60063 110.51 72.7458)" fill="url(#paint97_linear_106_43938)"/>
<rect width="1.07851" height="2.82317" transform="matrix(0.145928 0.989295 0.989295 -0.145928 108.078 79.9333)" fill="url(#paint98_linear_106_43938)"/>
<path d="M106.606 80.6238L106.627 80.7631C106.733 81.4831 107.403 81.9807 108.123 81.8745C108.843 81.7683 109.34 81.0985 109.234 80.3785L109.214 80.2392C109.107 79.5192 108.438 79.0215 107.718 79.1278C106.998 79.234 106.5 79.9038 106.606 80.6238L106.606 80.6238Z" fill="url(#paint99_linear_106_43938)"/>
<circle cx="9.2066" cy="9.2066" r="9.2066" transform="matrix(-1 0 0 1 128.53 69.0771)" fill="url(#paint100_linear_106_43938)"/>
<mask id="mask21_106_43938" style="mask-type:luminance" maskUnits="userSpaceOnUse" x="110" y="69" width="19" height="19">
<circle cx="9.2066" cy="9.2066" r="9.2066" transform="matrix(-1 0 0 1 128.53 69.0771)" fill="white"/>
</mask>
<g mask="url(#mask21_106_43938)">
<path d="M121.855 88.6619C137.151 71.4709 117 67.3639 117 67.3639L125.622 63.5962L139.649 78.2836L129.56 88.6619" fill="url(#paint101_linear_106_43938)"/>
</g>
<circle cx="2.0544" cy="2.0544" r="2.0544" transform="matrix(-1 0 0 1 116.999 78.4468)" fill="url(#paint102_linear_106_43938)"/>
<circle cx="2.0544" cy="2.0544" r="2.0544" transform="matrix(-1 0 0 1 124.665 80.9351)" fill="url(#paint103_linear_106_43938)"/>
<circle cx="2.0544" cy="2.0544" r="2.0544" transform="matrix(-1 0 0 1 123.911 71.5784)" fill="url(#paint104_linear_106_43938)"/>
<circle cx="0.703254" cy="0.703254" r="0.703254" transform="matrix(-1 0 0 1 113.707 85.989)" fill="url(#paint105_linear_106_43938)"/>
<circle cx="0.703254" cy="0.703254" r="0.703254" transform="matrix(-1 0 0 1 127.028 85.5342)" fill="url(#paint106_linear_106_43938)"/>
<circle cx="0.703254" cy="0.703254" r="0.703254" transform="matrix(-1 0 0 1 110.984 72.196)" fill="url(#paint107_linear_106_43938)"/>
<circle cx="0.703254" cy="0.703254" r="0.703254" transform="matrix(-1 0 0 1 129.913 73.407)" fill="url(#paint108_linear_106_43938)"/>
<circle cx="1.44998" cy="1.44998" r="1.44998" transform="matrix(-1 0 0 1 120.773 88.3989)" fill="url(#paint109_linear_106_43938)"/>
<circle cx="1.44998" cy="1.44998" r="1.44998" transform="matrix(-1 0 0 1 131.921 80.5803)" fill="url(#paint110_linear_106_43938)"/>
<circle cx="1.71306" cy="1.71306" r="1.71306" transform="matrix(-1 0 0 1 128.359 67.365)" fill="url(#paint111_linear_106_43938)"/>
<circle cx="1.71306" cy="1.71306" r="1.71306" transform="matrix(-1 0 0 1 115.228 66.5537)" fill="url(#paint112_linear_106_43938)"/>
</g>
<defs>
<linearGradient id="paint0_linear_106_43938" x1="0" y1="12.1838" x2="4.65447" y2="12.1838" gradientUnits="userSpaceOnUse">
<stop stop-color="#FF7C95"/>
<stop offset="1" stop-color="#FF2B45"/>
</linearGradient>
<linearGradient id="paint1_linear_106_43938" x1="8.14495" y1="-0.717694" x2="-1.30165" y2="-2.09634" gradientUnits="userSpaceOnUse">
<stop stop-color="#FF7C95"/>
<stop offset="1" stop-color="#FF2B45"/>
</linearGradient>
<linearGradient id="paint2_linear_106_43938" x1="2.75771" y1="20.3441" x2="11.8604" y2="16.6817" gradientUnits="userSpaceOnUse">
<stop stop-color="#FF7C95"/>
<stop offset="1" stop-color="#FF2B45"/>
</linearGradient>
<linearGradient id="paint3_linear_106_43938" x1="7.13299" y1="-8.60042" x2="-3.56822" y2="-7.87007" gradientUnits="userSpaceOnUse">
<stop stop-color="#FF7C95"/>
<stop offset="1" stop-color="#FF2B45"/>
</linearGradient>
<linearGradient id="paint4_linear_106_43938" x1="4.04613" y1="2.39988" x2="-0.559656" y2="1.03598" gradientUnits="userSpaceOnUse">
<stop stop-color="#FF7C95"/>
<stop offset="1" stop-color="#FF2B45"/>
</linearGradient>
<linearGradient id="paint5_linear_106_43938" x1="-0.424466" y1="11.4598" x2="4.73016" y2="10.8791" gradientUnits="userSpaceOnUse">
<stop stop-color="#FF7C95"/>
<stop offset="1" stop-color="#FF2B45"/>
</linearGradient>
<linearGradient id="paint6_linear_106_43938" x1="-1.81574" y1="7.86444" x2="3.31992" y2="8.41312" gradientUnits="userSpaceOnUse">
<stop stop-color="#FF7C95"/>
<stop offset="1" stop-color="#FF2B45"/>
</linearGradient>
<linearGradient id="paint7_linear_106_43938" x1="358.784" y1="137.843" x2="353.975" y2="139.719" gradientUnits="userSpaceOnUse">
<stop stop-color="#FF7C95"/>
<stop offset="1" stop-color="#FF2B45"/>
</linearGradient>
<linearGradient id="paint8_linear_106_43938" x1="2.27731" y1="-4.78374" x2="-2.70101" y2="-3.81661" gradientUnits="userSpaceOnUse">
<stop stop-color="#FF7C95"/>
<stop offset="1" stop-color="#FF2B45"/>
</linearGradient>
<linearGradient id="paint9_linear_106_43938" x1="-1.13655" y1="2.50954" x2="7.02382" y2="10.5833" gradientUnits="userSpaceOnUse">
<stop stop-color="#FF7C95"/>
<stop offset="1" stop-color="#FF2B45"/>
</linearGradient>
<linearGradient id="paint10_linear_106_43938" x1="388.054" y1="172.553" x2="374.674" y2="173.695" gradientUnits="userSpaceOnUse">
<stop stop-color="#FF7C95"/>
<stop offset="1" stop-color="#FF2B45"/>
</linearGradient>
<linearGradient id="paint11_linear_106_43938" x1="0" y1="89.6075" x2="89.6074" y2="89.6075" gradientUnits="userSpaceOnUse">
<stop stop-color="#FF7C95"/>
<stop offset="1" stop-color="#FF2B45"/>
</linearGradient>
<linearGradient id="paint12_linear_106_43938" x1="388.258" y1="274.087" x2="383.778" y2="272.648" gradientUnits="userSpaceOnUse">
<stop stop-color="#FF7C95"/>
<stop offset="1" stop-color="#FF2B45"/>
</linearGradient>
<linearGradient id="paint13_linear_106_43938" x1="-43.6601" y1="30.5208" x2="-36.5986" y2="28.3294" gradientUnits="userSpaceOnUse">
<stop stop-color="#FF7C95"/>
<stop offset="1" stop-color="#FF2B45"/>
</linearGradient>
<linearGradient id="paint14_linear_106_43938" x1="-81.1137" y1="42.1444" x2="-74.0523" y2="39.9529" gradientUnits="userSpaceOnUse">
<stop stop-color="#FF7C95"/>
<stop offset="1" stop-color="#FF2B45"/>
</linearGradient>
<linearGradient id="paint15_linear_106_43938" x1="-64.8669" y1="37.1023" x2="-57.8055" y2="34.9108" gradientUnits="userSpaceOnUse">
<stop stop-color="#FF7C95"/>
<stop offset="1" stop-color="#FF2B45"/>
</linearGradient>
<linearGradient id="paint16_linear_106_43938" x1="0" y1="6.84468" x2="6.84468" y2="6.84468" gradientUnits="userSpaceOnUse">
<stop stop-color="#FF7C95"/>
<stop offset="1" stop-color="#FF2B45"/>
</linearGradient>
<linearGradient id="paint17_linear_106_43938" x1="0" y1="6.84468" x2="6.84468" y2="6.84468" gradientUnits="userSpaceOnUse">
<stop stop-color="#FF7C95"/>
<stop offset="1" stop-color="#FF2B45"/>
</linearGradient>
<linearGradient id="paint18_linear_106_43938" x1="0" y1="6.84469" x2="6.84469" y2="6.84469" gradientUnits="userSpaceOnUse">
<stop stop-color="#FF7C95"/>
<stop offset="1" stop-color="#FF2B45"/>
</linearGradient>
<linearGradient id="paint19_linear_106_43938" x1="-1.47368e-05" y1="6.84469" x2="6.84468" y2="6.84469" gradientUnits="userSpaceOnUse">
<stop stop-color="#FF7C95"/>
<stop offset="1" stop-color="#FF2B45"/>
</linearGradient>
<linearGradient id="paint20_linear_106_43938" x1="-1.47368e-05" y1="14.1126" x2="14.1126" y2="14.1126" gradientUnits="userSpaceOnUse">
<stop stop-color="#FF7C95"/>
<stop offset="1" stop-color="#FF2B45"/>
</linearGradient>
<linearGradient id="paint21_linear_106_43938" x1="0" y1="14.1126" x2="14.1126" y2="14.1126" gradientUnits="userSpaceOnUse">
<stop stop-color="#FF7C95"/>
<stop offset="1" stop-color="#FF2B45"/>
</linearGradient>
<linearGradient id="paint22_linear_106_43938" x1="0" y1="16.6731" x2="16.6731" y2="16.6731" gradientUnits="userSpaceOnUse">
<stop stop-color="#FF7C95"/>
<stop offset="1" stop-color="#FF2B45"/>
</linearGradient>
<linearGradient id="paint23_linear_106_43938" x1="0" y1="16.6731" x2="16.6731" y2="16.6731" gradientUnits="userSpaceOnUse">
<stop stop-color="#FF7C95"/>
<stop offset="1" stop-color="#FF2B45"/>
</linearGradient>
<linearGradient id="paint24_linear_106_43938" x1="250.578" y1="83.6445" x2="357.286" y2="214.528" gradientUnits="userSpaceOnUse">
<stop offset="0.1011" stop-color="#FFDF94"/>
<stop offset="1" stop-color="#FFA200"/>
</linearGradient>
<linearGradient id="paint25_linear_106_43938" x1="270.61" y1="165.733" x2="290.593" y2="235.88" gradientUnits="userSpaceOnUse">
<stop offset="0.1011" stop-color="#FFCC02"/>
<stop offset="1" stop-color="#FFE484"/>
</linearGradient>
<linearGradient id="paint26_linear_106_43938" x1="375.811" y1="385.501" x2="199.919" y2="385.501" gradientUnits="userSpaceOnUse">
<stop offset="0.1011" stop-color="#FFCC02"/>
<stop offset="1" stop-color="#FFE484"/>
</linearGradient>
<radialGradient id="paint27_radial_106_43938" cx="0" cy="0" r="1" gradientUnits="userSpaceOnUse" gradientTransform="translate(255.29 276.4) rotate(180) scale(64.605 75.3724)">
<stop stop-color="#FC7023"/>
<stop offset="1" stop-color="#E00321"/>
</radialGradient>
<linearGradient id="paint28_linear_106_43938" x1="177.881" y1="339.514" x2="185.229" y2="331.699" gradientUnits="userSpaceOnUse">
<stop stop-color="#FC7023"/>
<stop offset="1" stop-color="#E00321"/>
</linearGradient>
<linearGradient id="paint29_linear_106_43938" x1="271.708" y1="324.84" x2="216.505" y2="324.84" gradientUnits="userSpaceOnUse">
<stop offset="0.1023" stop-color="#DCDFF8"/>
<stop offset="0.8855" stop-color="#F5F7FE"/>
</linearGradient>
<linearGradient id="paint30_linear_106_43938" x1="181.308" y1="364.279" x2="35.1705" y2="364.279" gradientUnits="userSpaceOnUse">
<stop offset="0.1023" stop-color="#DCDFF8"/>
<stop offset="0.8855" stop-color="#F5F7FE"/>
</linearGradient>
<linearGradient id="paint31_linear_106_43938" x1="140.839" y1="179.865" x2="97.2626" y2="179.865" gradientUnits="userSpaceOnUse">
<stop offset="0.1023" stop-color="#DCDFF8"/>
<stop offset="0.8855" stop-color="#F5F7FE"/>
</linearGradient>
<radialGradient id="paint32_radial_106_43938" cx="0" cy="0" r="1" gradientUnits="userSpaceOnUse" gradientTransform="translate(68.2388 300.461) rotate(180) scale(108.872 65.566)">
<stop stop-color="#00DED8"/>
<stop offset="0.9965" stop-color="#4AAAFD"/>
</radialGradient>
<linearGradient id="paint33_linear_106_43938" x1="110.359" y1="271.63" x2="113.647" y2="291.653" gradientUnits="userSpaceOnUse">
<stop stop-color="#00DED8"/>
<stop offset="0.9965" stop-color="#4AAAFD"/>
</linearGradient>
<linearGradient id="paint34_linear_106_43938" x1="0" y1="7.62806" x2="53.1846" y2="7.62806" gradientUnits="userSpaceOnUse">
<stop offset="0.1023" stop-color="#DCDFF8"/>
<stop offset="0.8855" stop-color="#F5F7FE"/>
</linearGradient>
<linearGradient id="paint35_linear_106_43938" x1="218.856" y1="90.7802" x2="292.78" y2="40.6288" gradientUnits="userSpaceOnUse">
<stop offset="0.1023" stop-color="#FCADAD"/>
<stop offset="0.8855" stop-color="#FBDCD9"/>
</linearGradient>
<linearGradient id="paint36_linear_106_43938" x1="228.033" y1="124.779" x2="239.039" y2="91.591" gradientUnits="userSpaceOnUse">
<stop offset="0.1011" stop-color="#FF8338"/>
<stop offset="0.8855" stop-color="#FF4729"/>
</linearGradient>
<linearGradient id="paint37_linear_106_43938" x1="262.088" y1="81.4914" x2="267.432" y2="68.0276" gradientUnits="userSpaceOnUse">
<stop offset="0.1011" stop-color="#FF8338"/>
<stop offset="0.8855" stop-color="#FF4729"/>
</linearGradient>
<linearGradient id="paint38_linear_106_43938" x1="215.243" y1="77.5203" x2="289.815" y2="44.61" gradientUnits="userSpaceOnUse">
<stop offset="0.1023" stop-color="#FCADAD"/>
<stop offset="0.8855" stop-color="#FBDCD9"/>
</linearGradient>
<linearGradient id="paint39_linear_106_43938" x1="193.203" y1="275.526" x2="197.311" y2="272.472" gradientUnits="userSpaceOnUse">
<stop offset="0.1023" stop-color="white"/>
<stop offset="0.8855" stop-color="#E3EBFD"/>
</linearGradient>
<linearGradient id="paint40_linear_106_43938" x1="10.091" y1="-48.5635" x2="-6.42684" y2="8.08535" gradientUnits="userSpaceOnUse">
<stop offset="0.1023" stop-color="#915A57"/>
<stop offset="0.8855" stop-color="#2C0B09"/>
</linearGradient>
<linearGradient id="paint41_linear_106_43938" x1="119.926" y1="142.421" x2="210.676" y2="99.5606" gradientUnits="userSpaceOnUse">
<stop offset="0.1023" stop-color="white"/>
<stop offset="0.8855" stop-color="#E3EBFD"/>
</linearGradient>
<linearGradient id="paint42_linear_106_43938" x1="168.396" y1="141.064" x2="221.617" y2="123.354" gradientUnits="userSpaceOnUse">
<stop offset="0.1023" stop-color="white"/>
<stop offset="0.8855" stop-color="#CDDEFD"/>
</linearGradient>
<linearGradient id="paint43_linear_106_43938" x1="263.536" y1="363.063" x2="201.642" y2="363.063" gradientUnits="userSpaceOnUse">
<stop offset="0.1023" stop-color="#FCADAD"/>
<stop offset="0.8855" stop-color="#FBDCD9"/>
</linearGradient>
<linearGradient id="paint44_linear_106_43938" x1="235.642" y1="293.193" x2="210.302" y2="293.193" gradientUnits="userSpaceOnUse">
<stop offset="0.1011" stop-color="#FF8338"/>
<stop offset="0.8855" stop-color="#FF4729"/>
</linearGradient>
<linearGradient id="paint45_linear_106_43938" x1="267.271" y1="364.915" x2="216.92" y2="364.915" gradientUnits="userSpaceOnUse">
<stop offset="0.1023" stop-color="#915A57"/>
<stop offset="0.8855" stop-color="#2C0B09"/>
</linearGradient>
<linearGradient id="paint46_linear_106_43938" x1="211.079" y1="364.689" x2="119.256" y2="364.689" gradientUnits="userSpaceOnUse">
<stop offset="0.1023" stop-color="#FCADAD"/>
<stop offset="0.8855" stop-color="#FBDCD9"/>
</linearGradient>
<linearGradient id="paint47_linear_106_43938" x1="185.298" y1="291.548" x2="160.234" y2="291.548" gradientUnits="userSpaceOnUse">
<stop offset="0.1011" stop-color="#FF8338"/>
<stop offset="0.8855" stop-color="#FF4729"/>
</linearGradient>
<linearGradient id="paint48_linear_106_43938" x1="165.317" y1="365.99" x2="116.935" y2="365.99" gradientUnits="userSpaceOnUse">
<stop offset="0.1023" stop-color="#915A57"/>
<stop offset="0.8855" stop-color="#2C0B09"/>
</linearGradient>
<linearGradient id="paint49_linear_106_43938" x1="145.843" y1="190.687" x2="226.331" y2="110.044" gradientUnits="userSpaceOnUse">
<stop offset="0.0083" stop-color="#009EFE"/>
<stop offset="1" stop-color="#005DFA"/>
</linearGradient>
<linearGradient id="paint50_linear_106_43938" x1="238.616" y1="172.619" x2="232.838" y2="170.432" gradientUnits="userSpaceOnUse">
<stop offset="0.0083" stop-color="#009EFE"/>
<stop offset="1" stop-color="#005DFA"/>
</linearGradient>
<linearGradient id="paint51_linear_106_43938" x1="10.0903" y1="-48.5636" x2="-6.42754" y2="8.08528" gradientUnits="userSpaceOnUse">
<stop offset="0.1023" stop-color="#915A57"/>
<stop offset="0.8855" stop-color="#2C0B09"/>
</linearGradient>
<linearGradient id="paint52_linear_106_43938" x1="-5.18216" y1="-30.8343" x2="-17.9462" y2="17.6797" gradientUnits="userSpaceOnUse">
<stop offset="0.1023" stop-color="#915A57"/>
<stop offset="0.8855" stop-color="#2C0B09"/>
</linearGradient>
<linearGradient id="paint53_linear_106_43938" x1="206.607" y1="5.75735" x2="248.254" y2="67.3344" gradientUnits="userSpaceOnUse">
<stop offset="0.0048" stop-color="#FF88C3"/>
<stop offset="0.9986" stop-color="#FF168E"/>
</linearGradient>
<linearGradient id="paint54_linear_106_43938" x1="222.151" y1="23.8086" x2="227.228" y2="57.6591" gradientUnits="userSpaceOnUse">
<stop offset="0.1023" stop-color="#FCADAD"/>
<stop offset="0.8855" stop-color="#FBDCD9"/>
</linearGradient>
<linearGradient id="paint55_linear_106_43938" x1="194.857" y1="150.684" x2="195.07" y2="140.108" gradientUnits="userSpaceOnUse">
<stop offset="0.0048" stop-color="#EE72BC"/>
<stop offset="0.9986" stop-color="#EE0796"/>
</linearGradient>
<linearGradient id="paint56_linear_106_43938" x1="234.472" y1="34.4483" x2="210.801" y2="48.8558" gradientUnits="userSpaceOnUse">
<stop offset="0.1023" stop-color="#FCADAD"/>
<stop offset="0.8855" stop-color="#FBDCD9"/>
</linearGradient>
<linearGradient id="paint57_linear_106_43938" x1="233.171" y1="32.9054" x2="225.093" y2="45.7562" gradientUnits="userSpaceOnUse">
<stop offset="0.1011" stop-color="#FF8338"/>
<stop offset="0.8855" stop-color="#FF4729"/>
</linearGradient>
<linearGradient id="paint58_linear_106_43938" x1="-13.5095" y1="-8.8224" x2="-26.2735" y2="39.6916" gradientUnits="userSpaceOnUse">
<stop offset="0.1023" stop-color="#915A57"/>
<stop offset="0.8855" stop-color="#2C0B09"/>
</linearGradient>
<linearGradient id="paint59_linear_106_43938" x1="241.357" y1="8.1079" x2="223.1" y2="52.8531" gradientUnits="userSpaceOnUse">
<stop offset="0.1023" stop-color="#915A57"/>
<stop offset="0.8855" stop-color="#2C0B09"/>
</linearGradient>
<linearGradient id="paint60_linear_106_43938" x1="156.429" y1="25.843" x2="133.126" y2="47.0632" gradientUnits="userSpaceOnUse">
<stop offset="0.1023" stop-color="#FCADAD"/>
<stop offset="0.8855" stop-color="#FBDCD9"/>
</linearGradient>
<linearGradient id="paint61_linear_106_43938" x1="255" y1="6.27813" x2="245.944" y2="54.0371" gradientUnits="userSpaceOnUse">
<stop offset="0.1023" stop-color="#915A57"/>
<stop offset="0.8855" stop-color="#2C0B09"/>
</linearGradient>
<linearGradient id="paint62_linear_106_43938" x1="141.006" y1="26.8377" x2="225.152" y2="22.815" gradientUnits="userSpaceOnUse">
<stop offset="0.1023" stop-color="white"/>
<stop offset="0.8855" stop-color="#E3EBFD"/>
</linearGradient>
<linearGradient id="paint63_linear_106_43938" x1="178.301" y1="168.685" x2="179.142" y2="155.728" gradientUnits="userSpaceOnUse">
<stop offset="0.1023" stop-color="white"/>
<stop offset="0.8855" stop-color="#CDDEFD"/>
</linearGradient>
<linearGradient id="paint64_linear_106_43938" x1="147.3" y1="-51.3404" x2="238.864" y2="-53.4505" gradientUnits="userSpaceOnUse">
<stop offset="0.1023" stop-color="white"/>
<stop offset="0.8855" stop-color="#E3EBFD"/>
</linearGradient>
<linearGradient id="paint65_linear_106_43938" x1="214.681" y1="192.101" x2="226.422" y2="147.547" gradientUnits="userSpaceOnUse">
<stop offset="0.1023" stop-color="white"/>
<stop offset="0.8855" stop-color="#E3EBFD"/>
</linearGradient>
<linearGradient id="paint66_linear_106_43938" x1="186.094" y1="75.2462" x2="204.348" y2="77.5008" gradientUnits="userSpaceOnUse">
<stop offset="0.1023" stop-color="#CBCBE5"/>
<stop offset="0.8855" stop-color="#EBE4E0"/>
</linearGradient>
<linearGradient id="paint67_linear_106_43938" x1="186.509" y1="83.7329" x2="183.657" y2="79.7648" gradientUnits="userSpaceOnUse">
<stop offset="0.1023" stop-color="#DCDCF8"/>
<stop offset="0.8855" stop-color="#F5F6FE"/>
</linearGradient>
<linearGradient id="paint68_linear_106_43938" x1="1.97223" y1="3.67977" x2="4.2039" y2="0.499292" gradientUnits="userSpaceOnUse">
<stop offset="0.1023" stop-color="#915A57"/>
<stop offset="0.8855" stop-color="#2C0B09"/>
</linearGradient>
<linearGradient id="paint69_linear_106_43938" x1="227.859" y1="58.6044" x2="224.292" y2="65.603" gradientUnits="userSpaceOnUse">
<stop offset="0.0083" stop-color="#009EFE"/>
<stop offset="1" stop-color="#005DFA"/>
</linearGradient>
<linearGradient id="paint70_linear_106_43938" x1="218.489" y1="77.089" x2="218.994" y2="76.9072" gradientUnits="userSpaceOnUse">
<stop offset="0.0083" stop-color="#009EFE"/>
<stop offset="1" stop-color="#005DFA"/>
</linearGradient>
<linearGradient id="paint71_linear_106_43938" x1="195.989" y1="42.2279" x2="208.903" y2="49.5114" gradientUnits="userSpaceOnUse">
<stop offset="0.0083" stop-color="#009EFE"/>
<stop offset="1" stop-color="#005DFA"/>
</linearGradient>
<linearGradient id="paint72_linear_106_43938" x1="205.77" y1="81.9586" x2="193.948" y2="99.7424" gradientUnits="userSpaceOnUse">
<stop offset="0.1023" stop-color="#CBCBE5"/>
<stop offset="0.8855" stop-color="#EBE4E0"/>
</linearGradient>
<linearGradient id="paint73_linear_106_43938" x1="-1.40868" y1="1.43013" x2="0.82288" y2="4.61063" gradientUnits="userSpaceOnUse">
<stop offset="0.1023" stop-color="#915A57"/>
<stop offset="0.8855" stop-color="#2C0B09"/>
</linearGradient>
<linearGradient id="paint74_linear_106_43938" x1="190.826" y1="51.252" x2="198.345" y2="66.3291" gradientUnits="userSpaceOnUse">
<stop offset="0.0083" stop-color="#009EFE"/>
<stop offset="1" stop-color="#005DFA"/>
</linearGradient>
<linearGradient id="paint75_linear_106_43938" x1="13.6426" y1="6.8759" x2="5.82342" y2="-4.28493" gradientUnits="userSpaceOnUse">
<stop offset="0.1023" stop-color="#CBCBE5"/>
<stop offset="0.8855" stop-color="#EBE4E0"/>
</linearGradient>
<linearGradient id="paint76_linear_106_43938" x1="6.71126" y1="4.06893" x2="6.1013" y2="-0.474049" gradientUnits="userSpaceOnUse">
<stop offset="0.1023" stop-color="#915A57"/>
<stop offset="0.8855" stop-color="#2C0B09"/>
</linearGradient>
<linearGradient id="paint77_linear_106_43938" x1="187.643" y1="99.0147" x2="197.578" y2="73.7045" gradientUnits="userSpaceOnUse">
<stop offset="0.1023" stop-color="#FCADAD"/>
<stop offset="0.8855" stop-color="#FBDCD9"/>
</linearGradient>
<linearGradient id="paint78_linear_106_43938" x1="270.123" y1="113.307" x2="210.244" y2="113.307" gradientUnits="userSpaceOnUse">
<stop offset="0.0048" stop-color="#FFED7A"/>
<stop offset="0.9986" stop-color="#FF9D00"/>
</linearGradient>
<linearGradient id="paint79_linear_106_43938" x1="245.454" y1="123.618" x2="244.726" y2="122.751" gradientUnits="userSpaceOnUse">
<stop offset="0.0048" stop-color="#FFED7A"/>
<stop offset="0.9986" stop-color="#FF9D00"/>
</linearGradient>
<linearGradient id="paint80_linear_106_43938" x1="18.2226" y1="-48.1457" x2="14.0002" y2="-43.1582" gradientUnits="userSpaceOnUse">
<stop offset="0.0048" stop-color="#FFED7A"/>
<stop offset="0.9986" stop-color="#FF9D00"/>
</linearGradient>
<linearGradient id="paint81_linear_106_43938" x1="285.452" y1="86.2542" x2="280.904" y2="141.638" gradientUnits="userSpaceOnUse">
<stop offset="0.1023" stop-color="#FCADAD"/>
<stop offset="0.8855" stop-color="#FBDCD9"/>
</linearGradient>
<linearGradient id="paint82_linear_106_43938" x1="225.389" y1="102.005" x2="209.751" y2="116.173" gradientUnits="userSpaceOnUse">
<stop offset="0.1011" stop-color="#FF8338"/>
<stop offset="0.8855" stop-color="#FF4729"/>
</linearGradient>
<linearGradient id="paint83_linear_106_43938" x1="257.655" y1="74.7656" x2="253.043" y2="130.164" gradientUnits="userSpaceOnUse">
<stop offset="0.1023" stop-color="#FCADAD"/>
<stop offset="0.8855" stop-color="#FBDCD9"/>
</linearGradient>
<linearGradient id="paint84_linear_106_43938" x1="193.645" y1="85.79" x2="183.961" y2="125.405" gradientUnits="userSpaceOnUse">
<stop offset="0.1011" stop-color="#FF8338"/>
<stop offset="0.8855" stop-color="#FF4729"/>
</linearGradient>
<linearGradient id="paint85_linear_106_43938" x1="84.5542" y1="120.021" x2="167.759" y2="54.64" gradientUnits="userSpaceOnUse">
<stop offset="0.1023" stop-color="white"/>
<stop offset="0.8855" stop-color="#E3EBFD"/>
</linearGradient>
<linearGradient id="paint86_linear_106_43938" x1="148.011" y1="106.616" x2="151.395" y2="90.2072" gradientUnits="userSpaceOnUse">
<stop offset="0.1023" stop-color="white"/>
<stop offset="0.8855" stop-color="#D8E0FD"/>
</linearGradient>
<linearGradient id="paint87_linear_106_43938" x1="149.432" y1="181.157" x2="170.476" y2="133.96" gradientUnits="userSpaceOnUse">
<stop offset="0.1023" stop-color="white"/>
<stop offset="0.8855" stop-color="#E3EBFD"/>
</linearGradient>
<linearGradient id="paint88_linear_106_43938" x1="153.975" y1="17.2541" x2="138.207" y2="44.316" gradientUnits="userSpaceOnUse">
<stop offset="0.1023" stop-color="#FCADAD"/>
<stop offset="0.8855" stop-color="#FBDCD9"/>
</linearGradient>
<linearGradient id="paint89_linear_106_43938" x1="382.758" y1="-462.36" x2="382.767" y2="-462.36" gradientUnits="userSpaceOnUse">
<stop offset="0.0083" stop-color="#00CAFE"/>
<stop offset="1" stop-color="#0088FA"/>
</linearGradient>
<linearGradient id="paint90_linear_106_43938" x1="-606.237" y1="75.7721" x2="-606.255" y2="75.7694" gradientUnits="userSpaceOnUse">
<stop offset="0.0083" stop-color="#00CAFE"/>
<stop offset="1" stop-color="#0088FA"/>
</linearGradient>
<linearGradient id="paint91_linear_106_43938" x1="-315.007" y1="-509.472" x2="-314.989" y2="-509.479" gradientUnits="userSpaceOnUse">
<stop offset="0.0083" stop-color="#00CAFE"/>
<stop offset="1" stop-color="#0088FA"/>
</linearGradient>
<linearGradient id="paint92_linear_106_43938" x1="-75.6603" y1="615.071" x2="-75.684" y2="615.073" gradientUnits="userSpaceOnUse">
<stop offset="0.0083" stop-color="#00CAFE"/>
<stop offset="1" stop-color="#0088FA"/>
</linearGradient>
<linearGradient id="paint93_linear_106_43938" x1="-593.268" y1="-122.778" x2="-593.277" y2="-122.781" gradientUnits="userSpaceOnUse">
<stop offset="0.0083" stop-color="#00CAFE"/>
<stop offset="1" stop-color="#0088FA"/>
</linearGradient>
<linearGradient id="paint94_linear_106_43938" x1="12.5099" y1="-596.841" x2="12.5201" y2="-596.842" gradientUnits="userSpaceOnUse">
<stop offset="0.0083" stop-color="#00CAFE"/>
<stop offset="1" stop-color="#0088FA"/>
</linearGradient>
<linearGradient id="paint95_linear_106_43938" x1="585.78" y1="-145.974" x2="585.79" y2="-145.973" gradientUnits="userSpaceOnUse">
<stop offset="0.0083" stop-color="#00CAFE"/>
<stop offset="1" stop-color="#0088FA"/>
</linearGradient>
<linearGradient id="paint96_linear_106_43938" x1="499.057" y1="550.25" x2="499.062" y2="550.248" gradientUnits="userSpaceOnUse">
<stop offset="0.0083" stop-color="#00CAFE"/>
<stop offset="1" stop-color="#0088FA"/>
</linearGradient>
<linearGradient id="paint97_linear_106_43938" x1="148.441" y1="600.756" x2="148.431" y2="600.758" gradientUnits="userSpaceOnUse">
<stop offset="0.0083" stop-color="#00CAFE"/>
<stop offset="1" stop-color="#0088FA"/>
</linearGradient>
<linearGradient id="paint98_linear_106_43938" x1="524.64" y1="320.484" x2="524.656" y2="320.5" gradientUnits="userSpaceOnUse">
<stop offset="0.0083" stop-color="#00CAFE"/>
<stop offset="1" stop-color="#0088FA"/>
</linearGradient>
<linearGradient id="paint99_linear_106_43938" x1="109.548" y1="83.1256" x2="112.301" y2="82.8838" gradientUnits="userSpaceOnUse">
<stop offset="0.0083" stop-color="#00CAFE"/>
<stop offset="1" stop-color="#0088FA"/>
</linearGradient>
<linearGradient id="paint100_linear_106_43938" x1="-372.988" y1="483.054" x2="-373.167" y2="483.054" gradientUnits="userSpaceOnUse">
<stop offset="0.0083" stop-color="#00CAFE"/>
<stop offset="1" stop-color="#0088FA"/>
</linearGradient>
<linearGradient id="paint101_linear_106_43938" x1="826.797" y1="551.972" x2="807.846" y2="560.289" gradientUnits="userSpaceOnUse">
<stop offset="0.0083" stop-color="#00CAFE"/>
<stop offset="1" stop-color="#0088FA"/>
</linearGradient>
<linearGradient id="paint102_linear_106_43938" x1="257.821" y1="-427.953" x2="259.272" y2="-428.404" gradientUnits="userSpaceOnUse">
<stop offset="0.0083" stop-color="#00CAFE"/>
<stop offset="1" stop-color="#0088FA"/>
</linearGradient>
<linearGradient id="paint103_linear_106_43938" x1="251.209" y1="-423.405" x2="252.66" y2="-423.856" gradientUnits="userSpaceOnUse">
<stop offset="0.0083" stop-color="#00CAFE"/>
<stop offset="1" stop-color="#0088FA"/>
</linearGradient>
<linearGradient id="paint104_linear_106_43938" x1="251.74" y1="-424.245" x2="253.19" y2="-424.695" gradientUnits="userSpaceOnUse">
<stop offset="0.0083" stop-color="#00CAFE"/>
<stop offset="1" stop-color="#0088FA"/>
</linearGradient>
<linearGradient id="paint105_linear_106_43938" x1="0" y1="1.4065" x2="1.40649" y2="1.4065" gradientUnits="userSpaceOnUse">
<stop offset="0.0083" stop-color="#00CAFE"/>
<stop offset="1" stop-color="#0088FA"/>
</linearGradient>
<linearGradient id="paint106_linear_106_43938" x1="1.47368e-05" y1="1.4065" x2="1.40651" y2="1.4065" gradientUnits="userSpaceOnUse">
<stop offset="0.0083" stop-color="#00CAFE"/>
<stop offset="1" stop-color="#0088FA"/>
</linearGradient>
<linearGradient id="paint107_linear_106_43938" x1="0" y1="1.4065" x2="1.40649" y2="1.4065" gradientUnits="userSpaceOnUse">
<stop offset="0.0083" stop-color="#00CAFE"/>
<stop offset="1" stop-color="#0088FA"/>
</linearGradient>
<linearGradient id="paint108_linear_106_43938" x1="1.47368e-05" y1="1.4065" x2="1.40651" y2="1.4065" gradientUnits="userSpaceOnUse">
<stop offset="0.0083" stop-color="#00CAFE"/>
<stop offset="1" stop-color="#0088FA"/>
</linearGradient>
<linearGradient id="paint109_linear_106_43938" x1="0" y1="2.89996" x2="2.89995" y2="2.89996" gradientUnits="userSpaceOnUse">
<stop offset="0.0083" stop-color="#00CAFE"/>
<stop offset="1" stop-color="#0088FA"/>
</linearGradient>
<linearGradient id="paint110_linear_106_43938" x1="1.47368e-05" y1="2.89996" x2="2.89996" y2="2.89996" gradientUnits="userSpaceOnUse">
<stop offset="0.0083" stop-color="#00CAFE"/>
<stop offset="1" stop-color="#0088FA"/>
</linearGradient>
<linearGradient id="paint111_linear_106_43938" x1="0" y1="3.42613" x2="3.42613" y2="3.42613" gradientUnits="userSpaceOnUse">
<stop offset="0.0083" stop-color="#00CAFE"/>
<stop offset="1" stop-color="#0088FA"/>
</linearGradient>
<linearGradient id="paint112_linear_106_43938" x1="0" y1="3.42612" x2="3.42611" y2="3.42612" gradientUnits="userSpaceOnUse">
<stop offset="0.0083" stop-color="#00CAFE"/>
<stop offset="1" stop-color="#0088FA"/>
</linearGradient>
</defs>
</svg>
