<svg xmlns="http://www.w3.org/2000/svg" xmlns:xlink="http://www.w3.org/1999/xlink" fill="none" viewBox="0 0 389 366"><path fill="#057bf4" d="M6.522 248.494C-19.988 153.067 36.72 75.709 133.184 75.709S329.34 153.067 355.85 248.493c12.765 45.948 6.229 87.703-14.742 118.654H87.19c-38.168-30.951-67.903-72.706-80.668-118.654" opacity=".19"/><g opacity=".35"><path fill="url(#a)" d="M0 0h4.654v12.184H0z" transform="matrix(-1 0 0 1 327.6 121.029)"/><path fill="url(#b)" d="M0 0h4.654v12.184H0z" transform="rotate(225 190.226 48.334)scale(-1 1)"/><path fill="url(#c)" d="M0 0h5.249v13.739H0z" transform="rotate(109.937 81.67 174.428)scale(1 -1)"/><path fill="url(#d)" d="M0 0h5.709v14.943H0z" transform="rotate(148.294 143.236 163.132)scale(-1 1)"/><path fill="url(#e)" d="M0 0h2.537v6.642H0z" transform="rotate(243.765 199.69 11.604)scale(-1 1)"/><path fill="url(#f)" d="M0 0h2.537v6.642H0z" transform="rotate(142.333 122.772 118.784)scale(1 -1)"/><path fill="url(#g)" d="M0 0h2.537v6.642H0z" transform="rotate(36.206 -32.618 613.73)scale(-1 1)"/><path fill="url(#h)" d="M356.682 135.008a1.83 1.83 0 0 0-2.554.396l-.14.19a1.827 1.827 0 0 0 2.949 2.158l.14-.19a1.827 1.827 0 0 0-.395-2.554"/><path fill="url(#i)" d="M0 0h2.537v6.642H0z" transform="rotate(126.915 133.182 193.837)scale(-1 1)"/><path fill="url(#j)" d="M0 0h5.249v13.739H0z" transform="rotate(81.61 92.24 304.473)scale(-1 1)"/><path fill="url(#k)" d="m387.155 165.435-.1-.678a6.413 6.413 0 1 0-12.689 1.871l.099.678a6.414 6.414 0 0 0 12.69-1.871"/><circle cx="44.804" cy="44.804" r="44.804" fill="url(#l)" transform="matrix(-1 0 0 1 370.075 132.022)"/><mask id="m" width="91" height="90" x="280" y="132" maskUnits="userSpaceOnUse" style="mask-type:luminance"><circle cx="44.804" cy="44.804" r="44.804" fill="#fff" transform="matrix(-1 0 0 1 370.077 132.023)"/></mask><g mask="url(#m)"><path fill="url(#n)" d="M318.214 127.601c-59.928 65.968-26.432 93.029 14.113 94.03 40.545 1-34.185 30.061-34.185 30.061l-24.08-75.56 6.643-48.159"/></g><circle cx="9.998" cy="9.998" r="9.998" fill="url(#o)" transform="matrix(-1 0 0 1 356.568 156.04)"/><circle cx="9.998" cy="9.998" r="9.998" fill="url(#p)" transform="matrix(-1 0 0 1 319.265 143.931)"/><circle cx="9.998" cy="9.998" r="9.998" fill="url(#q)" transform="matrix(-1 0 0 1 322.944 189.465)"/><circle cx="3.422" cy="3.422" r="3.422" fill="url(#r)" transform="matrix(-1 0 0 1 359.446 132.486)"/><circle cx="3.422" cy="3.422" r="3.422" fill="url(#s)" transform="matrix(-1 0 0 1 294.618 134.698)"/><circle cx="3.422" cy="3.422" r="3.422" fill="url(#t)" transform="matrix(-1 0 0 1 372.698 199.611)"/><circle cx="3.422" cy="3.422" r="3.422" fill="url(#u)" transform="matrix(-1 0 0 1 280.576 193.714)"/><circle cx="7.056" cy="7.056" r="7.056" fill="url(#v)" transform="matrix(-1 0 0 1 332.329 113.488)"/><circle cx="7.056" cy="7.056" r="7.056" fill="url(#w)" transform="matrix(-1 0 0 1 278.074 151.542)"/><circle cx="8.337" cy="8.337" r="8.337" fill="url(#x)" transform="matrix(-1 0 0 1 297.974 213.293)"/><circle cx="8.337" cy="8.337" r="8.337" fill="url(#y)" transform="matrix(-1 0 0 1 361.864 217.239)"/></g><path fill="url(#z)" d="m181.959 209.08 6.033-.963c34.907-5.574 58.301-26.474 58.537-26.685l.637-.577c0-.003.007 0 .007 0a13.12 13.12 0 0 1 16.659.371l.351.327c.523.478 23.732 21.439 58.25 26.542l6.251.924c0 .003-.007.022 0 .022a6.53 6.53 0 0 1 4.892 6.32v42.749c0 35.71-21.17 65.692-70.776 100.23a13.04 13.04 0 0 1-14.901.088l-.063-.044c-49.65-34.563-70.834-64.545-70.834-100.274v-42.749a6.49 6.49 0 0 1 4.957-6.281"/><path fill="url(#A)" d="m181.959 216.093 6.033-.963c34.907-5.574 58.301-26.474 58.537-26.685l.637-.576c0-.004.007 0 .007 0a13.12 13.12 0 0 1 16.659.37l.351.327c.523.479 23.732 21.439 58.25 26.543l6.251.923c0 .003-.007.023 0 .023a6.53 6.53 0 0 1 4.892 6.319v42.749c0 35.71-21.17 65.692-70.776 100.23a13.04 13.04 0 0 1-14.901.089l-.063-.045c-49.65-34.563-70.834-64.544-70.834-100.274v-42.749a6.49 6.49 0 0 1 4.957-6.281"/><mask id="B" width="157" height="183" x="177" y="185" maskUnits="userSpaceOnUse" style="mask-type:luminance"><path fill="#fff" fill-rule="evenodd" d="m181.959 216.093 6.032-.963c34.907-5.574 58.301-26.474 58.537-26.685l.637-.576c0-.004.007 0 .007 0a13.12 13.12 0 0 1 16.66.37l.351.327c.522.479 23.732 21.439 58.249 26.543l6.251.923c0 .003-.007.023 0 .023a6.53 6.53 0 0 1 4.892 6.319v42.749c0 35.71-21.17 65.692-70.776 100.23a13.04 13.04 0 0 1-14.901.089l-.063-.045c-49.65-34.563-70.834-64.544-70.834-100.274v-42.749a6.49 6.49 0 0 1 4.958-6.281" clip-rule="evenodd"/></mask><g mask="url(#B)"><path fill="url(#C)" d="M255.289 178.052c71.443 80.393 5.418 176.378-42.297 185.81-47.716 9.433 50.546 21.639 50.546 21.639l84.832-21.084s30.516-145.581 27.187-149.634c-3.329-4.054-64.361-45.111-64.361-45.111l-14.425 2.219"/><path fill="#fff" d="M177.002 250.945c-4.143 45.968 60.217 109.219 81.856 121.98s-49.38-12.204-49.38-12.204l-29.406-28.299-18.864-63.036 4.993-5.234" opacity=".12"/></g><path fill="url(#D)" d="m199.595 230.596 4.582-.731c26.512-4.234 44.281-20.107 44.46-20.267l.483-.438c0-.003.006 0 .006 0a9.96 9.96 0 0 1 12.653.281l.266.249c.397.363 18.025 16.283 44.242 20.159l4.747.701c0 .003-.005.017 0 .017a4.96 4.96 0 0 1 3.716 4.8v32.468c0 27.123-16.079 49.894-53.755 76.126a9.91 9.91 0 0 1-11.318.067l-.048-.033c-37.709-26.251-53.799-49.023-53.799-76.16v-32.468a4.93 4.93 0 0 1 3.765-4.771"/><mask id="E" width="120" height="139" x="195" y="207" maskUnits="userSpaceOnUse" style="mask-type:luminance"><path fill="#fff" fill-rule="evenodd" d="m199.596 230.596 4.582-.731c26.512-4.234 44.28-20.107 44.46-20.267l.483-.438c0-.003.006 0 .006 0a9.96 9.96 0 0 1 12.653.281l.266.249c.397.363 18.025 16.283 44.241 20.159l4.748.701c0 .003-.006.017 0 .017a4.96 4.96 0 0 1 3.716 4.8v32.468c0 27.123-16.079 49.894-53.755 76.126a9.91 9.91 0 0 1-11.318.067l-.048-.033c-37.71-26.251-53.799-49.023-53.799-76.16v-32.468a4.93 4.93 0 0 1 3.765-4.771" clip-rule="evenodd"/></mask><g mask="url(#E)"><path fill="url(#F)" d="m259.785 291.007 1.67 8.522-43.098 48.983-41.353-44.017 49.522-39.895 28.765 11.8"/></g><use xlink:href="#G"/><mask id="H" width="59" height="59" x="226" y="241" maskUnits="userSpaceOnUse" style="mask-type:luminance"><use xlink:href="#G" fill-rule="evenodd" clip-rule="evenodd"/></mask><g mask="url(#H)"><path fill="url(#I)" d="M245.7 245.424c-15.752 34.929 24.069 40.181 25.918 55.73s-25.522 23.686-25.522 23.686l-22.933-41.849-6.658-29.744z" opacity=".5"/></g><path fill="url(#J)" d="m39.148 318.214 46.737-83.651 1.853-3.97v-82.789h41.003v82.788l1.853 3.971 46.737 83.651c11.531 20.639-3.388 46.065-27.03 46.065H66.178c-23.642 0-38.561-25.426-27.03-46.065" opacity=".71"/><mask id="K" width="147" height="218" x="35" y="147" maskUnits="userSpaceOnUse" style="mask-type:luminance"><path fill="#fff" fill-rule="evenodd" d="m39.148 318.214 46.737-83.651 1.853-3.97v-82.789h41.003v82.788l1.853 3.971 46.737 83.651c11.531 20.639-3.388 46.065-27.03 46.065H66.178c-23.642 0-38.561-25.426-27.03-46.065" clip-rule="evenodd"/></mask><g mask="url(#K)"><path fill="url(#L)" d="M128.739 179.865c-1.166-24.602-3.959-23.167-25.526-26.981s22.431-3.814 22.431-3.814l15.195 1.852" opacity=".47"/></g><path fill="url(#M)" d="M98.197 290.292c20.344-16.311 36.436-16.13 55.186-8.254l18.776 33.605c10.668 19.094-3.135 42.618-25.008 42.618H69.323c-21.873 0-35.676-23.524-25.008-42.618l15.429-27.615c11.762 8.152 23.786 14.023 38.453 2.264"/><mask id="N" width="136" height="83" x="40" y="276" maskUnits="userSpaceOnUse" style="mask-type:luminance"><path fill="#fff" fill-rule="evenodd" d="M98.197 290.292c20.343-16.311 36.435-16.13 55.186-8.254l18.775 33.605c10.669 19.094-3.134 42.618-25.007 42.618H69.322c-21.873 0-35.676-23.524-25.007-42.618l15.429-27.615c11.762 8.152 23.786 14.023 38.453 2.264" clip-rule="evenodd"/></mask><g mask="url(#N)"><path fill="url(#O)" d="M144.937 276.014c29.403 76.808-44.91 72.203-90.712 77.992s46.735 16.883 54.011 16.401 76.739-13.989 79.633-14.471c2.895-.483 13.99-45.827 3.859-57.404s-19.295-27.014-19.295-27.014" opacity=".41"/></g><rect width="53.185" height="7.628" fill="url(#P)" rx="3.814" transform="matrix(-1 0 0 1 134.832 145.255)"/><circle cx="2.031" cy="2.031" r="2.031" fill="#fff" opacity=".2" transform="matrix(-1 0 0 1 133.449 310.976)"/><circle cx="2.806" cy="2.806" r="2.806" fill="#fff" opacity=".2" transform="matrix(-1 0 0 1 111.083 308.761)"/><circle cx="1.736" cy="1.736" r="1.736" fill="#fff" opacity=".2" transform="matrix(-1 0 0 1 128.156 322.866)"/><circle cx="6.681" cy="6.681" r="6.681" fill="#fff" opacity=".2" transform="matrix(-1 0 0 1 68.046 321.637)"/><path fill="url(#Q)" d="M278.737 61.57h3.353l-18.127 53.382a9.08 9.08 0 0 1-12.284 5.377 9.074 9.074 0 0 1-4.151-12.874l24.417-41.802z"/><mask id="R" width="37" height="61" x="246" y="61" maskUnits="userSpaceOnUse" style="mask-type:luminance"><path fill="#fff" fill-rule="evenodd" d="M278.738 61.57h3.353l-18.128 53.382a9.077 9.077 0 1 1-16.435-7.497l24.418-41.802z" clip-rule="evenodd"/></mask><g mask="url(#R)"><path fill="url(#S)" d="M272.813 113.693c-21.135 6.636-24.519 3.975-25.286-6.238-.766-10.213-5.108 12.252-5.108 12.252l9.25 9.062 15.103-7.654" opacity=".34"/><path fill="url(#T)" d="M279.183 77.812c-2.164 3.413-8.574-8.407-12.986-6.742-4.411 1.665 6.16 12.985 6.16 12.985l5.744 1.498 3.99-4.078" opacity=".34"/></g><path fill="url(#U)" d="M281.689 59.17c-2.179-3.692-9.438-12.346-10.312-12.324-1.856.048-.624 5.182 3.047 8.721-3.914-3.735-5.07-.266-1.779 3.558-3.469-2.49-4.091.8-1.923 4.18 1.62 2.523 2.412 8.938 2.145 9.605s2.489-1.601 2.489-1.601l2.447-4.402s6.065-4.047 3.886-7.738"/><path fill="url(#V)" d="M235.089 271.131c-18.582 6.032-55.777-6.366-55.777-6.366l11.101-31.163 21.028-44.338"/><ellipse cx="18.302" cy="13.349" fill="url(#W)" rx="18.302" ry="13.349" transform="rotate(51.478 65.626 284.23)scale(-1 1)"/><path fill="url(#X)" d="M279.964 92.285c-4.79-14.793-12.96-22.907-12.96-22.907l-17.843 25.33c19.062 4.91-5.302-24.502-10.622-33.55 0 0-4.481 2.011-10.42 39.598-.179 1.132 6.549 37.059 23.127 35.241 9.298-1.02 28.718-43.712 28.718-43.712"/><mask id="Y" width="52" height="76" x="228" y="61" maskUnits="userSpaceOnUse" style="mask-type:luminance"><path fill="#fff" fill-rule="evenodd" d="M279.964 92.286c-4.79-14.794-12.96-22.908-12.96-22.908l-17.843 25.33c19.062 4.91-5.302-24.502-10.622-33.55 0 0-4.481 2.011-10.42 39.598-.179 1.132 6.549 37.059 23.127 35.241 9.298-1.02 28.718-43.712 28.718-43.712" clip-rule="evenodd"/></mask><g mask="url(#Y)"><path fill="url(#Z)" d="M237.865 89.537c6.057 68.019 23.471 29.339 26.323 32.55 6.041 6.802-11.155 19.744-11.155 19.744l-15.168-.091-2.774-31.618 2.304-13.877"/></g><path fill="url(#aa)" d="M263.536 363.063s-2.22-8.128-13.877-8.128-18.596-10.404-18.596-10.404V228.136l-4.441-114.444-24.98 13.655c0 20.808 17.554 218.047 17.554 218.047s-2.288 17.669-2.011 17.669z"/><mask id="ab" width="63" height="251" x="201" y="113" maskUnits="userSpaceOnUse" style="mask-type:luminance"><path fill="#fff" fill-rule="evenodd" d="M263.536 363.063s-2.221-8.128-13.878-8.128-18.596-10.404-18.596-10.404V228.136l-4.441-114.444-24.979 13.655c0 20.808 17.554 218.047 17.554 218.047s-2.289 17.669-2.011 17.669z" clip-rule="evenodd"/></mask><g mask="url(#ab)"><path fill="url(#ac)" d="M235.091 277.231c4.313 5.327-17.995 10.322-21.991 15.316s-2.539-20.613-2.539-20.613l22.029-6.2" opacity=".34"/></g><path fill="url(#ad)" d="m218.441 350.717-1.487 10.374a3.362 3.362 0 0 0 3.348 3.823h46.969s-3.331-10.62-16.931-9.753c-6.753 8.128-31.899-4.444-31.899-4.444"/><path fill="url(#ae)" d="M211.079 146.638 191.65 221.2l-26.459 127.016s-2.022 15.172-2.763 16.473h-43.172c9.402-16.473 24.841-4.335 30.762-17.557l31.826-212.199z"/><mask id="af" width="93" height="231" x="119" y="134" maskUnits="userSpaceOnUse" style="mask-type:luminance"><path fill="#fff" fill-rule="evenodd" d="m211.08 146.639-19.429 74.562-26.46 127.015s-2.022 15.173-2.762 16.473h-43.172c9.402-16.473 24.84-4.335 30.761-17.556l31.826-212.199z" clip-rule="evenodd"/></mask><g mask="url(#af)"><path fill="url(#ag)" d="M185.298 291.548c-13.734-6.243-29.03-16.298-24.129-18.762s23.13 2.531 23.13 2.531" opacity=".34"/></g><path fill="url(#ah)" d="M165.317 348.216v12.024a4.803 4.803 0 0 1-4.716 4.78l-43.426.97s-3.297-8.174 14.554-11.02c14.996 9.7 33.588-6.754 33.588-6.754"/><path fill="url(#ai)" d="M239.109 214.868c-31.826 7.803-64.668 8.933-72.069 3.731l18.618-102.591 42.785 6.977z"/><mask id="aj" width="73" height="106" x="167" y="116" maskUnits="userSpaceOnUse" style="mask-type:luminance"><path fill="#fff" fill-rule="evenodd" d="M239.109 214.868c-31.826 7.803-64.669 8.933-72.07 3.731l18.618-102.591 42.785 6.977z" clip-rule="evenodd"/></mask><g mask="url(#aj)"><path fill="url(#ak)" d="M222.346 175.186c-8.343.494.735-44.281-12.828-44.724s-2.627-8.941-2.627-8.941l23.257 2.798 1.602 2.359"/></g><ellipse cx="18.302" cy="13.349" fill="url(#al)" rx="18.302" ry="13.349" transform="rotate(51.478 68.054 255.673)scale(-1 1)"/><ellipse cx="10.583" cy="9.402" fill="url(#am)" rx="10.583" ry="9.402" transform="rotate(43.95 63.841 314.627)scale(-1 1)"/><path fill="url(#an)" d="M226.575 56.634s-22.411-12.006-49.359 0c-5.869 15.208 11.375 51.15 5.87 63.767 0 0 31.587 13.771 47.062 3.365 4.802-4.802-6.09-18.299 2.03-31.38 8.953-14.421-5.603-35.752-5.603-35.752"/><mask id="ao" width="61" height="77" x="175" y="51" maskUnits="userSpaceOnUse" style="mask-type:luminance"><path fill="#fff" fill-rule="evenodd" d="M226.575 56.635s-22.411-12.006-49.359 0c-5.869 15.208 11.375 51.15 5.87 63.767 0 0 31.587 13.771 47.062 3.365 4.802-4.802-6.09-18.299 2.03-31.38 8.953-14.421-5.603-35.752-5.603-35.752" clip-rule="evenodd"/></mask><g mask="url(#ao)"><path fill="url(#ap)" d="M221.013 53.252c5.562 21.868-19.525 10.512-29.585-1.953s.831-9.902.831-9.902l29.67 8.452"/><path fill="url(#aq)" d="M183.457 86.414c-.134 18.677 1.467 40.332 35.262 39.865s15.636 8.848 15.636 8.848l-50.854-1.488-2.312-1.245-14.149-30.772 2.977-17.917 11.028-2.844c-1.566 22.268 15.253 15.24 15.253 15.24"/></g><path fill="url(#ar)" d="M214.287 35.934c-.454 1.16 5.886 23.465 5.886 23.465l-20.903-4.107.894-27.425z"/><mask id="as" width="22" height="33" x="199" y="27" maskUnits="userSpaceOnUse" style="mask-type:luminance"><path fill="#fff" fill-rule="evenodd" d="M214.286 35.934c-.454 1.16 5.886 23.465 5.886 23.465l-20.903-4.107.894-27.425z" clip-rule="evenodd"/></mask><g mask="url(#as)"><path fill="url(#at)" d="M225.561 53.113c-13.349-3.256-14.581-13.142-19.26-17.18s15.021.963 15.021.963l4.361 5.224-.549 7.381" opacity=".34"/></g><ellipse cx="9.821" cy="8.724" fill="url(#au)" rx="9.821" ry="8.724" transform="rotate(43.95 100.087 296.716)scale(-1 1)"/><path fill="url(#av)" d="M191.178 19.467c1.076 9.094 11.195 14.158 20.266 14.158s13.656-5.064 12.581-14.158C222.949 10.372 214.725 3 205.654 3s-15.551 7.372-14.476 16.467"/><path fill="url(#aw)" d="M220.782 11.616c17.455 49.094-21.39 26.24-23.081 11.85-.975-8.302 5.659-13.543 5.659-13.543z"/><path fill="url(#ax)" d="M226.052 19.065c-9.246.338-12.457-8.147-12.457-8.147s-1.596 16.382-15.627 14.804l-3.062-7.334 2.307-7.618s7.882-4.74 8.408-4.571c.527.17 8.779-.005 8.779-.005l6.657 2.036 1.938 2.54z"/><path fill="url(#ay)" d="M201.509 286.714c-20.639 5.99-44.393-16.234-44.393-16.234s17.383-179.138 18.03-213.846c5.788-3.227 12.544-5.537 23.675-5.336l6.806 28.164s10.295 153.005-4.118 207.252"/><mask id="az" width="53" height="237" x="157" y="51" maskUnits="userSpaceOnUse" style="mask-type:luminance"><path fill="#fff" fill-rule="evenodd" d="M201.509 286.714c-20.639 5.99-44.393-16.234-44.393-16.234s17.383-179.138 18.03-213.846c5.788-3.227 12.544-5.537 23.675-5.336l6.806 28.164s10.295 153.005-4.118 207.252" clip-rule="evenodd"/></mask><g mask="url(#az)"><path fill="url(#aA)" d="M203.596 120.264c8.443 5.969-39.203 20.601-39.538 27.095s-2.506-37.237-2.506-37.237l10.891-26.43 10.344.3s-7.511 16.523 16.288 11.798c23.798-4.726-1.468 21.671-1.468 21.671"/></g><path fill="url(#aB)" d="M244.998 276.651c-19.617 6.806-35.073 9.404-35.073 9.404s14.511-226.749 8.506-232.648c0 0 13.634.996 20.108 7.752-.676 81.081 9.262 123.813 6.459 215.492"/><mask id="aC" width="37" height="234" x="209" y="53" maskUnits="userSpaceOnUse" style="mask-type:luminance"><path fill="#fff" fill-rule="evenodd" d="M244.998 276.651c-19.617 6.806-35.073 9.404-35.073 9.404s14.511-226.749 8.506-232.648c0 0 13.634.996 20.108 7.752-.676 81.081 9.262 123.813 6.459 215.492" clip-rule="evenodd"/></mask><g mask="url(#aC)"><path fill="url(#aD)" d="m256.857 147.759-.685 25.393-22.119 1.263-2.115-26.803z"/><path fill="#fff" d="M258.436 146.573c.155.921.627 7.987.627 7.987l-27.882.12-.243-8.065z"/></g><path fill="#fff" d="M207.738 108.372s.915-46.059-8.293-58.414l-7.751 2.482 7.383 20.133-2.857 8.608zm10.768-1.772 8.2-25.488-4.358-8.262 4.426-17.91s-3.62-3.654-8.852-3.647c0 0 2.653 43.895.584 55.307"/><path fill="url(#aE)" d="M198.004 96.756a5 5 0 0 1-.869-.232c-4.919-1.765-8.315-10.744-10.563-16.686l-.486-1.282 1.028-.393.488 1.285c2.044 5.403 5.464 14.447 9.905 16.04 1.204.434 2.399.293 3.654-.426l.547.955c-1.236.708-2.479.956-3.704.74"/><mask id="aF" width="16" height="19" x="186" y="78" maskUnits="userSpaceOnUse" style="mask-type:luminance"><path fill="#fff" fill-rule="evenodd" d="M198.003 96.756a5.3 5.3 0 0 1-.869-.232c-4.919-1.765-8.315-10.744-10.563-16.686l-.486-1.282 1.029-.393.488 1.285c2.044 5.403 5.463 14.447 9.904 16.04 1.204.434 2.399.293 3.654-.426l.548.955c-1.237.708-2.479.956-3.705.74" clip-rule="evenodd"/></mask><g mask="url(#aF)"><path fill="url(#aG)" d="M187.809 78.888c-1.238.95-1.052 1.123-1.099 1.929-.048.806-1.567-.66-1.555-.749s.929-2.133.999-2.033 1.728.08 1.728.08"/></g><rect width="4.115" height="2.743" fill="url(#aH)" rx=".969" transform="rotate(157.65 90.988 68.434)scale(-1 1)"/><path fill="url(#aI)" d="M230.056 69.937c-.002-.185.009-18.133-12.135-18.644l-.596-2.04c13.694.58 14.423 20.464 14.425 20.666z"/><mask id="aJ" width="15" height="21" x="217" y="49" maskUnits="userSpaceOnUse" style="mask-type:luminance"><path fill="#fff" fill-rule="evenodd" d="M230.056 69.937c-.002-.185.009-18.132-12.135-18.643l-.596-2.041c13.694.58 14.423 20.464 14.425 20.666z" clip-rule="evenodd"/></mask><g mask="url(#aJ)"><path fill="url(#aK)" d="M227.031 58.99c1.4 7.106 4.928 5.719 6.405 10.546s-4.062 3.484-4.062 3.484l-4.123-6.987"/></g><path fill="url(#aL)" d="m192.212 64.333-.273-.969c-1.122-3.957-2.281-8.048-.244-10.924 1.412-1.995 3.502-3.164 7.788-3.46l-.066 1.704c-3.742.261-5.243 1.185-6.34 2.735-1.568 2.214-.568 5.745.491 9.483l.275.975z"/><path fill="url(#aM)" d="M191.444 96.456a5.3 5.3 0 0 0 .846-.304c4.755-2.169 7.391-11.4 9.136-17.508l.378-1.319-1.058-.306-.379 1.322c-1.587 5.555-4.241 14.851-8.534 16.809-1.163.533-2.366.492-3.677-.12l-.465.997c1.291.604 2.549.746 3.753.429"/><rect width="4.115" height="2.743" fill="url(#aN)" rx=".969" transform="rotate(17.57 -211.09 659.22)scale(-1 1)"/><path fill="url(#aO)" d="M185.959 79.326c-3.372-9.017.356-13.255 2.116-14.659a9.04 9.04 0 0 1 10.499-.466c1.81 1.19 5.769 4.876 3.453 13.368l-1.635-.447c1.425-5.225.424-9.419-2.749-11.505a7.33 7.33 0 0 0-8.512.374c-3.108 2.48-3.686 7.124-1.586 12.742z"/><ellipse cx="5.232" cy="5.659" fill="url(#aP)" rx="5.232" ry="5.659" transform="rotate(-178.56 117.958 32.877)scale(1 -1)"/><ellipse cx="3.082" cy="2.248" fill="url(#aQ)" rx="3.082" ry="2.248" transform="rotate(83.414 74.913 169.516)scale(-1 1)"/><path fill="url(#aR)" d="M213.567 96.218s5.722-5.225 10.947-6.966 3.234-.415 3.234-.415l-1.824 5.64z"/><path fill="url(#aS)" d="M213.364 113.307h28.655c2.745 0 6.045-1.891 7.372-4.222L269.572 73.6c1.326-2.332.176-4.222-2.569-4.222h-28.655c-2.745 0-6.045 1.89-7.371 4.222l-20.182 35.485c-1.326 2.331-.176 4.222 2.569 4.222"/><mask id="aT" width="61" height="45" x="210" y="69" maskUnits="userSpaceOnUse" style="mask-type:luminance"><path fill="#fff" fill-rule="evenodd" d="M213.365 113.308h28.655c2.745 0 6.045-1.891 7.371-4.223l20.182-35.484c1.326-2.332.176-4.223-2.569-4.223h-28.655c-2.745 0-6.045 1.89-7.372 4.223l-20.181 35.484c-1.326 2.332-.176 4.223 2.569 4.223" clip-rule="evenodd"/></mask><g mask="url(#aT)"><path fill="url(#aU)" d="M229.681 102.285c3.635 1.997-12.688 3.163-12.851 8.49s8.451 6.992 8.451 6.992l-23.638.592 7.876-15.741 11.324-1.404"/></g><ellipse cx="4.647" cy="7.993" fill="url(#aV)" rx="4.647" ry="7.993" transform="rotate(60.969 48.778 258.184)scale(-1 1)"/><path fill="url(#aW)" d="M220.865 93.978s7.519.11 8.071 0c.553-.11 6.745-3.317 7.409-.553 0 0 2.543.553 1.05 2.82l-2.709 2.211s1.88-.387 1.714 1.05-7.384 4.519-7.992 4.741-8.538-.096-13.072 1.009c-4.533 1.106-14.817 4.866-14.817 4.866l-2.985-11.61z"/><mask id="aX" width="41" height="19" x="197" y="92" maskUnits="userSpaceOnUse" style="mask-type:luminance"><path fill="#fff" fill-rule="evenodd" d="M220.864 93.979s7.519.11 8.072 0 6.745-3.317 7.408-.553c0 0 2.543.553 1.05 2.82l-2.709 2.211s1.88-.387 1.714 1.05-7.384 4.519-7.992 4.74-8.538-.096-13.072 1.01-14.816 4.865-14.816 4.865l-2.986-11.61z" clip-rule="evenodd"/></mask><g mask="url(#aX)"><path fill="url(#aY)" d="M212.911 95.077c4.526.152 3.715 8.393 6.149 10.016s-3.435 3.58-3.435 3.58l-2.62-.895-1.748-8.49" opacity=".34"/></g><path fill="url(#aZ)" d="M208.137 96.485s4.011 6.962 1.712 10.403l-45.844 15.703c-6.313 1.372-12.377-3.105-12.685-9.366-.258-5.236 3.667-9.791 9.031-10.483z"/><mask id="ba" width="60" height="27" x="151" y="96" maskUnits="userSpaceOnUse" style="mask-type:luminance"><path fill="#fff" fill-rule="evenodd" d="M208.137 96.486s4.011 6.962 1.712 10.403l-45.844 15.703c-6.313 1.372-12.377-3.105-12.685-9.366-.258-5.236 3.667-9.791 9.031-10.483z" clip-rule="evenodd"/></mask><g mask="url(#ba)"><path fill="url(#bb)" d="M175.981 98.374c-21.765 4.205-25.355 15.292-24.673 21.522s-7.814-16.425-7.814-16.425l7.814-7.254h15.733" opacity=".34"/></g><path fill="url(#bc)" d="M212.329 94.307c6.835 8.31 1.313 24.099 1.313 24.099s-48.475 20.712-62.335 12.513c-13.521-7.999 13.764-71.017 23.838-74.285 5.728-1.857 11.974 22.946 7.643 27.358l-6.807 14.382z"/><mask id="bd" width="69" height="77" x="147" y="56" maskUnits="userSpaceOnUse" style="mask-type:luminance"><path fill="#fff" fill-rule="evenodd" d="M212.33 94.307c6.835 8.31 1.313 24.099 1.313 24.099s-48.475 20.712-62.335 12.513c-13.521-7.999 13.764-71.017 23.838-74.285 5.728-1.857 11.974 22.946 7.642 27.358l-6.807 14.382z" clip-rule="evenodd"/></mask><g mask="url(#bd)"><path fill="url(#be)" d="m181.959 97.013-5.978 1.361s-6.66 2.712-8.48 2.84 9.885-4.782 10.974-6.209 1.927 1.48 1.927 1.48"/></g><circle cx="2.588" cy="2.588" r="2.588" fill="#fff" transform="matrix(-1 0 0 1 208.252 124.415)"/><circle cx="2.588" cy="2.588" r="2.588" fill="#fff" transform="matrix(-1 0 0 1 208.252 156.883)"/><path fill="url(#bf)" d="m195.156 151.396-.685 25.393-22.119 1.263-2.115-26.804z"/><path fill="#fff" d="M196.736 150.209c.155.922.627 7.988.627 7.988l-27.882.119-.243-8.065zm28.546-124.38c-1.195 2.36-4.766.575-4.766.575s-3.57 3.57-12.777 1.464c-1.504.32 1.557 8.348-.783 8.834 15.346 12.909 23.162.793 18.326-10.873"/><path fill="#fff" d="m209.805 29.974-1.785-1.786-7.617-2.767.477.982 7.14 3.57m1.5 6.102-9.117-2.953 8.379 4.46.738-.816"/><path fill="url(#bg)" d="M201.244 25.721c-14.664-5.502-6.567 11.034 2.611 7.14z"/><g opacity=".39"><path fill="url(#bh)" d="M0 0h.956v2.504H0z" transform="matrix(1 0 0 -1 118.845 89.75)"/><path fill="url(#bi)" d="M0 0h.956v2.504H0z" transform="rotate(-135 77.731 8.822)scale(1 -1)"/><path fill="url(#bj)" d="M0 0h1.079v2.823H0z" transform="rotate(109.937 36.123 86.72)scale(-1 1)"/><path fill="url(#bk)" d="M0 0h1.173v3.071H0z" transform="rotate(148.294 47.374 50.22)scale(1 -1)"/><path fill="url(#bl)" d="M0 0h.521v1.365H0z" transform="rotate(63.765 4.779 140.984)scale(-1 1)"/><path fill="url(#bm)" d="M0 0h.519v1.362H0z" transform="rotate(142.333 48.306 64.649)scale(-1 1)"/><path fill="url(#bn)" d="M0 0h.519v1.362H0z" transform="rotate(216.206 70.588 24.69)scale(-1 1)"/><path fill="url(#bo)" d="M112.867 86.877a.376.376 0 0 0 .525-.081l.029-.04a.376.376 0 0 0-.606-.443l-.029.04a.376.376 0 0 0 .081.524"/><path fill="url(#bp)" d="M0 0h.521v1.365H0z" transform="rotate(126.915 37.086 63.973)scale(1 -1)"/><path fill="url(#bq)" d="M0 0h1.079v2.823H0z" transform="rotate(81.609 7.745 102.562)scale(1 -1)"/><path fill="url(#br)" d="m106.606 80.624.021.14a1.318 1.318 0 1 0 2.607-.385l-.02-.14a1.318 1.318 0 0 0-2.608.385"/><circle cx="9.207" cy="9.207" r="9.207" fill="url(#bs)" transform="matrix(-1 0 0 1 128.53 69.077)"/><mask id="bt" width="19" height="19" x="110" y="69" maskUnits="userSpaceOnUse" style="mask-type:luminance"><circle cx="9.207" cy="9.207" r="9.207" fill="#fff" transform="matrix(-1 0 0 1 128.53 69.077)"/></mask><g mask="url(#bt)"><path fill="url(#bu)" d="M121.855 88.662C137.151 71.47 117 67.364 117 67.364l8.622-3.768 14.027 14.688-10.089 10.378"/></g><circle cx="2.054" cy="2.054" r="2.054" fill="url(#bv)" transform="matrix(-1 0 0 1 116.999 78.447)"/><circle cx="2.054" cy="2.054" r="2.054" fill="url(#bw)" transform="matrix(-1 0 0 1 124.665 80.935)"/><circle cx="2.054" cy="2.054" r="2.054" fill="url(#bx)" transform="matrix(-1 0 0 1 123.911 71.578)"/><circle cx=".703" cy=".703" r=".703" fill="url(#by)" transform="matrix(-1 0 0 1 113.707 85.989)"/><circle cx=".703" cy=".703" r=".703" fill="url(#bz)" transform="matrix(-1 0 0 1 127.028 85.534)"/><circle cx=".703" cy=".703" r=".703" fill="url(#bA)" transform="matrix(-1 0 0 1 110.984 72.196)"/><circle cx=".703" cy=".703" r=".703" fill="url(#bB)" transform="matrix(-1 0 0 1 129.913 73.407)"/><circle cx="1.45" cy="1.45" r="1.45" fill="url(#bC)" transform="matrix(-1 0 0 1 120.773 88.399)"/><circle cx="1.45" cy="1.45" r="1.45" fill="url(#bD)" transform="matrix(-1 0 0 1 131.921 80.58)"/><circle cx="1.713" cy="1.713" r="1.713" fill="url(#bE)" transform="matrix(-1 0 0 1 128.359 67.365)"/><circle cx="1.713" cy="1.713" r="1.713" fill="url(#bF)" transform="matrix(-1 0 0 1 115.228 66.554)"/></g><defs><linearGradient id="a" x1="0" x2="4.654" y1="12.184" y2="12.184" gradientUnits="userSpaceOnUse"><stop stop-color="#ff7c95"/><stop offset="1" stop-color="#ff2b45"/></linearGradient><linearGradient id="b" x1="8.145" x2="-1.302" y1="-.718" y2="-2.096" gradientUnits="userSpaceOnUse"><stop stop-color="#ff7c95"/><stop offset="1" stop-color="#ff2b45"/></linearGradient><linearGradient id="c" x1="2.758" x2="11.86" y1="20.344" y2="16.682" gradientUnits="userSpaceOnUse"><stop stop-color="#ff7c95"/><stop offset="1" stop-color="#ff2b45"/></linearGradient><linearGradient id="d" x1="7.133" x2="-3.568" y1="-8.6" y2="-7.87" gradientUnits="userSpaceOnUse"><stop stop-color="#ff7c95"/><stop offset="1" stop-color="#ff2b45"/></linearGradient><linearGradient id="e" x1="4.046" x2="-.56" y1="2.4" y2="1.036" gradientUnits="userSpaceOnUse"><stop stop-color="#ff7c95"/><stop offset="1" stop-color="#ff2b45"/></linearGradient><linearGradient id="f" x1="-.424" x2="4.73" y1="11.46" y2="10.879" gradientUnits="userSpaceOnUse"><stop stop-color="#ff7c95"/><stop offset="1" stop-color="#ff2b45"/></linearGradient><linearGradient id="g" x1="-1.816" x2="3.32" y1="7.864" y2="8.413" gradientUnits="userSpaceOnUse"><stop stop-color="#ff7c95"/><stop offset="1" stop-color="#ff2b45"/></linearGradient><linearGradient id="h" x1="358.784" x2="353.975" y1="137.843" y2="139.719" gradientUnits="userSpaceOnUse"><stop stop-color="#ff7c95"/><stop offset="1" stop-color="#ff2b45"/></linearGradient><linearGradient id="i" x1="2.277" x2="-2.701" y1="-4.784" y2="-3.817" gradientUnits="userSpaceOnUse"><stop stop-color="#ff7c95"/><stop offset="1" stop-color="#ff2b45"/></linearGradient><linearGradient id="j" x1="-1.137" x2="7.024" y1="2.51" y2="10.583" gradientUnits="userSpaceOnUse"><stop stop-color="#ff7c95"/><stop offset="1" stop-color="#ff2b45"/></linearGradient><linearGradient id="k" x1="388.054" x2="374.674" y1="172.553" y2="173.695" gradientUnits="userSpaceOnUse"><stop stop-color="#ff7c95"/><stop offset="1" stop-color="#ff2b45"/></linearGradient><linearGradient id="l" x1="0" x2="89.607" y1="89.608" y2="89.608" gradientUnits="userSpaceOnUse"><stop stop-color="#ff7c95"/><stop offset="1" stop-color="#ff2b45"/></linearGradient><linearGradient id="n" x1="388.258" x2="383.778" y1="274.087" y2="272.648" gradientUnits="userSpaceOnUse"><stop stop-color="#ff7c95"/><stop offset="1" stop-color="#ff2b45"/></linearGradient><linearGradient id="o" x1="-43.66" x2="-36.599" y1="30.521" y2="28.329" gradientUnits="userSpaceOnUse"><stop stop-color="#ff7c95"/><stop offset="1" stop-color="#ff2b45"/></linearGradient><linearGradient id="p" x1="-81.114" x2="-74.052" y1="42.144" y2="39.953" gradientUnits="userSpaceOnUse"><stop stop-color="#ff7c95"/><stop offset="1" stop-color="#ff2b45"/></linearGradient><linearGradient id="q" x1="-64.867" x2="-57.806" y1="37.102" y2="34.911" gradientUnits="userSpaceOnUse"><stop stop-color="#ff7c95"/><stop offset="1" stop-color="#ff2b45"/></linearGradient><linearGradient id="r" x1="0" x2="6.845" y1="6.845" y2="6.845" gradientUnits="userSpaceOnUse"><stop stop-color="#ff7c95"/><stop offset="1" stop-color="#ff2b45"/></linearGradient><linearGradient id="s" x1="0" x2="6.845" y1="6.845" y2="6.845" gradientUnits="userSpaceOnUse"><stop stop-color="#ff7c95"/><stop offset="1" stop-color="#ff2b45"/></linearGradient><linearGradient id="t" x1="0" x2="6.845" y1="6.845" y2="6.845" gradientUnits="userSpaceOnUse"><stop stop-color="#ff7c95"/><stop offset="1" stop-color="#ff2b45"/></linearGradient><linearGradient id="u" x1="0" x2="6.845" y1="6.845" y2="6.845" gradientUnits="userSpaceOnUse"><stop stop-color="#ff7c95"/><stop offset="1" stop-color="#ff2b45"/></linearGradient><linearGradient id="v" x1="0" x2="14.113" y1="14.113" y2="14.113" gradientUnits="userSpaceOnUse"><stop stop-color="#ff7c95"/><stop offset="1" stop-color="#ff2b45"/></linearGradient><linearGradient id="w" x1="0" x2="14.113" y1="14.113" y2="14.113" gradientUnits="userSpaceOnUse"><stop stop-color="#ff7c95"/><stop offset="1" stop-color="#ff2b45"/></linearGradient><linearGradient id="x" x1="0" x2="16.673" y1="16.673" y2="16.673" gradientUnits="userSpaceOnUse"><stop stop-color="#ff7c95"/><stop offset="1" stop-color="#ff2b45"/></linearGradient><linearGradient id="y" x1="0" x2="16.673" y1="16.673" y2="16.673" gradientUnits="userSpaceOnUse"><stop stop-color="#ff7c95"/><stop offset="1" stop-color="#ff2b45"/></linearGradient><linearGradient id="z" x1="250.578" x2="357.286" y1="83.644" y2="214.528" gradientUnits="userSpaceOnUse"><stop offset=".101" stop-color="#ffdf94"/><stop offset="1" stop-color="#ffa200"/></linearGradient><linearGradient id="A" x1="270.61" x2="290.593" y1="165.733" y2="235.88" gradientUnits="userSpaceOnUse"><stop offset=".101" stop-color="#ffcc02"/><stop offset="1" stop-color="#ffe484"/></linearGradient><linearGradient id="C" x1="375.811" x2="199.919" y1="385.501" y2="385.501" gradientUnits="userSpaceOnUse"><stop offset=".101" stop-color="#ffcc02"/><stop offset="1" stop-color="#ffe484"/></linearGradient><linearGradient id="F" x1="177.881" x2="185.229" y1="339.514" y2="331.699" gradientUnits="userSpaceOnUse"><stop stop-color="#fc7023"/><stop offset="1" stop-color="#e00321"/></linearGradient><linearGradient id="I" x1="271.708" x2="216.505" y1="324.84" y2="324.84" gradientUnits="userSpaceOnUse"><stop offset=".102" stop-color="#dcdff8"/><stop offset=".885" stop-color="#f5f7fe"/></linearGradient><linearGradient id="J" x1="181.308" x2="35.17" y1="364.279" y2="364.279" gradientUnits="userSpaceOnUse"><stop offset=".102" stop-color="#dcdff8"/><stop offset=".885" stop-color="#f5f7fe"/></linearGradient><linearGradient id="L" x1="140.839" x2="97.263" y1="179.865" y2="179.865" gradientUnits="userSpaceOnUse"><stop offset=".102" stop-color="#dcdff8"/><stop offset=".885" stop-color="#f5f7fe"/></linearGradient><linearGradient id="O" x1="110.359" x2="113.647" y1="271.63" y2="291.653" gradientUnits="userSpaceOnUse"><stop stop-color="#00ded8"/><stop offset=".997" stop-color="#4aaafd"/></linearGradient><linearGradient id="P" x1="0" x2="53.185" y1="7.628" y2="7.628" gradientUnits="userSpaceOnUse"><stop offset=".102" stop-color="#dcdff8"/><stop offset=".885" stop-color="#f5f7fe"/></linearGradient><linearGradient id="Q" x1="218.856" x2="292.78" y1="90.78" y2="40.629" gradientUnits="userSpaceOnUse"><stop offset=".102" stop-color="#fcadad"/><stop offset=".885" stop-color="#fbdcd9"/></linearGradient><linearGradient id="S" x1="228.033" x2="239.039" y1="124.779" y2="91.591" gradientUnits="userSpaceOnUse"><stop offset=".101" stop-color="#ff8338"/><stop offset=".885" stop-color="#ff4729"/></linearGradient><linearGradient id="T" x1="262.088" x2="267.432" y1="81.491" y2="68.028" gradientUnits="userSpaceOnUse"><stop offset=".101" stop-color="#ff8338"/><stop offset=".885" stop-color="#ff4729"/></linearGradient><linearGradient id="U" x1="215.243" x2="289.815" y1="77.52" y2="44.61" gradientUnits="userSpaceOnUse"><stop offset=".102" stop-color="#fcadad"/><stop offset=".885" stop-color="#fbdcd9"/></linearGradient><linearGradient id="V" x1="193.203" x2="197.311" y1="275.526" y2="272.472" gradientUnits="userSpaceOnUse"><stop offset=".102" stop-color="#fff"/><stop offset=".885" stop-color="#e3ebfd"/></linearGradient><linearGradient id="W" x1="10.091" x2="-6.427" y1="-48.563" y2="8.085" gradientUnits="userSpaceOnUse"><stop offset=".102" stop-color="#915a57"/><stop offset=".885" stop-color="#2c0b09"/></linearGradient><linearGradient id="X" x1="119.926" x2="210.676" y1="142.421" y2="99.561" gradientUnits="userSpaceOnUse"><stop offset=".102" stop-color="#fff"/><stop offset=".885" stop-color="#e3ebfd"/></linearGradient><linearGradient id="Z" x1="168.396" x2="221.617" y1="141.064" y2="123.354" gradientUnits="userSpaceOnUse"><stop offset=".102" stop-color="#fff"/><stop offset=".885" stop-color="#cddefd"/></linearGradient><linearGradient id="aa" x1="263.536" x2="201.642" y1="363.063" y2="363.063" gradientUnits="userSpaceOnUse"><stop offset=".102" stop-color="#fcadad"/><stop offset=".885" stop-color="#fbdcd9"/></linearGradient><linearGradient id="ac" x1="235.642" x2="210.302" y1="293.193" y2="293.193" gradientUnits="userSpaceOnUse"><stop offset=".101" stop-color="#ff8338"/><stop offset=".885" stop-color="#ff4729"/></linearGradient><linearGradient id="ad" x1="267.271" x2="216.92" y1="364.915" y2="364.915" gradientUnits="userSpaceOnUse"><stop offset=".102" stop-color="#915a57"/><stop offset=".885" stop-color="#2c0b09"/></linearGradient><linearGradient id="ae" x1="211.079" x2="119.256" y1="364.689" y2="364.689" gradientUnits="userSpaceOnUse"><stop offset=".102" stop-color="#fcadad"/><stop offset=".885" stop-color="#fbdcd9"/></linearGradient><linearGradient id="ag" x1="185.298" x2="160.234" y1="291.548" y2="291.548" gradientUnits="userSpaceOnUse"><stop offset=".101" stop-color="#ff8338"/><stop offset=".885" stop-color="#ff4729"/></linearGradient><linearGradient id="ah" x1="165.317" x2="116.935" y1="365.99" y2="365.99" gradientUnits="userSpaceOnUse"><stop offset=".102" stop-color="#915a57"/><stop offset=".885" stop-color="#2c0b09"/></linearGradient><linearGradient id="ai" x1="145.843" x2="226.331" y1="190.687" y2="110.044" gradientUnits="userSpaceOnUse"><stop offset=".008" stop-color="#009efe"/><stop offset="1" stop-color="#005dfa"/></linearGradient><linearGradient id="ak" x1="238.616" x2="232.838" y1="172.619" y2="170.432" gradientUnits="userSpaceOnUse"><stop offset=".008" stop-color="#009efe"/><stop offset="1" stop-color="#005dfa"/></linearGradient><linearGradient id="al" x1="10.09" x2="-6.428" y1="-48.564" y2="8.085" gradientUnits="userSpaceOnUse"><stop offset=".102" stop-color="#915a57"/><stop offset=".885" stop-color="#2c0b09"/></linearGradient><linearGradient id="am" x1="-5.182" x2="-17.946" y1="-30.834" y2="17.68" gradientUnits="userSpaceOnUse"><stop offset=".102" stop-color="#915a57"/><stop offset=".885" stop-color="#2c0b09"/></linearGradient><linearGradient id="an" x1="206.607" x2="248.254" y1="5.757" y2="67.334" gradientUnits="userSpaceOnUse"><stop offset=".005" stop-color="#ff88c3"/><stop offset=".999" stop-color="#ff168e"/></linearGradient><linearGradient id="ap" x1="222.151" x2="227.228" y1="23.809" y2="57.659" gradientUnits="userSpaceOnUse"><stop offset=".102" stop-color="#fcadad"/><stop offset=".885" stop-color="#fbdcd9"/></linearGradient><linearGradient id="aq" x1="194.857" x2="195.07" y1="150.684" y2="140.108" gradientUnits="userSpaceOnUse"><stop offset=".005" stop-color="#ee72bc"/><stop offset=".999" stop-color="#ee0796"/></linearGradient><linearGradient id="ar" x1="234.472" x2="210.801" y1="34.448" y2="48.856" gradientUnits="userSpaceOnUse"><stop offset=".102" stop-color="#fcadad"/><stop offset=".885" stop-color="#fbdcd9"/></linearGradient><linearGradient id="at" x1="233.171" x2="225.093" y1="32.905" y2="45.756" gradientUnits="userSpaceOnUse"><stop offset=".101" stop-color="#ff8338"/><stop offset=".885" stop-color="#ff4729"/></linearGradient><linearGradient id="au" x1="-13.509" x2="-26.273" y1="-8.822" y2="39.692" gradientUnits="userSpaceOnUse"><stop offset=".102" stop-color="#915a57"/><stop offset=".885" stop-color="#2c0b09"/></linearGradient><linearGradient id="av" x1="241.357" x2="223.1" y1="8.108" y2="52.853" gradientUnits="userSpaceOnUse"><stop offset=".102" stop-color="#915a57"/><stop offset=".885" stop-color="#2c0b09"/></linearGradient><linearGradient id="aw" x1="156.429" x2="133.126" y1="25.843" y2="47.063" gradientUnits="userSpaceOnUse"><stop offset=".102" stop-color="#fcadad"/><stop offset=".885" stop-color="#fbdcd9"/></linearGradient><linearGradient id="ax" x1="255" x2="245.944" y1="6.278" y2="54.037" gradientUnits="userSpaceOnUse"><stop offset=".102" stop-color="#915a57"/><stop offset=".885" stop-color="#2c0b09"/></linearGradient><linearGradient id="ay" x1="141.006" x2="225.152" y1="26.838" y2="22.815" gradientUnits="userSpaceOnUse"><stop offset=".102" stop-color="#fff"/><stop offset=".885" stop-color="#e3ebfd"/></linearGradient><linearGradient id="aA" x1="178.301" x2="179.142" y1="168.685" y2="155.728" gradientUnits="userSpaceOnUse"><stop offset=".102" stop-color="#fff"/><stop offset=".885" stop-color="#cddefd"/></linearGradient><linearGradient id="aB" x1="147.3" x2="238.864" y1="-51.34" y2="-53.45" gradientUnits="userSpaceOnUse"><stop offset=".102" stop-color="#fff"/><stop offset=".885" stop-color="#e3ebfd"/></linearGradient><linearGradient id="aD" x1="214.681" x2="226.422" y1="192.101" y2="147.547" gradientUnits="userSpaceOnUse"><stop offset=".102" stop-color="#fff"/><stop offset=".885" stop-color="#e3ebfd"/></linearGradient><linearGradient id="aE" x1="186.094" x2="204.348" y1="75.246" y2="77.501" gradientUnits="userSpaceOnUse"><stop offset=".102" stop-color="#cbcbe5"/><stop offset=".885" stop-color="#ebe4e0"/></linearGradient><linearGradient id="aG" x1="186.509" x2="183.657" y1="83.733" y2="79.765" gradientUnits="userSpaceOnUse"><stop offset=".102" stop-color="#dcdcf8"/><stop offset=".885" stop-color="#f5f6fe"/></linearGradient><linearGradient id="aH" x1="1.972" x2="4.204" y1="3.68" y2=".499" gradientUnits="userSpaceOnUse"><stop offset=".102" stop-color="#915a57"/><stop offset=".885" stop-color="#2c0b09"/></linearGradient><linearGradient id="aI" x1="227.859" x2="224.292" y1="58.604" y2="65.603" gradientUnits="userSpaceOnUse"><stop offset=".008" stop-color="#009efe"/><stop offset="1" stop-color="#005dfa"/></linearGradient><linearGradient id="aK" x1="218.489" x2="218.994" y1="77.089" y2="76.907" gradientUnits="userSpaceOnUse"><stop offset=".008" stop-color="#009efe"/><stop offset="1" stop-color="#005dfa"/></linearGradient><linearGradient id="aL" x1="195.989" x2="208.903" y1="42.228" y2="49.511" gradientUnits="userSpaceOnUse"><stop offset=".008" stop-color="#009efe"/><stop offset="1" stop-color="#005dfa"/></linearGradient><linearGradient id="aM" x1="205.77" x2="193.948" y1="81.959" y2="99.742" gradientUnits="userSpaceOnUse"><stop offset=".102" stop-color="#cbcbe5"/><stop offset=".885" stop-color="#ebe4e0"/></linearGradient><linearGradient id="aN" x1="-1.409" x2=".823" y1="1.43" y2="4.611" gradientUnits="userSpaceOnUse"><stop offset=".102" stop-color="#915a57"/><stop offset=".885" stop-color="#2c0b09"/></linearGradient><linearGradient id="aO" x1="190.826" x2="198.345" y1="51.252" y2="66.329" gradientUnits="userSpaceOnUse"><stop offset=".008" stop-color="#009efe"/><stop offset="1" stop-color="#005dfa"/></linearGradient><linearGradient id="aP" x1="13.643" x2="5.823" y1="6.876" y2="-4.285" gradientUnits="userSpaceOnUse"><stop offset=".102" stop-color="#cbcbe5"/><stop offset=".885" stop-color="#ebe4e0"/></linearGradient><linearGradient id="aQ" x1="6.711" x2="6.101" y1="4.069" y2="-.474" gradientUnits="userSpaceOnUse"><stop offset=".102" stop-color="#915a57"/><stop offset=".885" stop-color="#2c0b09"/></linearGradient><linearGradient id="aR" x1="187.643" x2="197.578" y1="99.015" y2="73.704" gradientUnits="userSpaceOnUse"><stop offset=".102" stop-color="#fcadad"/><stop offset=".885" stop-color="#fbdcd9"/></linearGradient><linearGradient id="aS" x1="270.123" x2="210.244" y1="113.307" y2="113.307" gradientUnits="userSpaceOnUse"><stop offset=".005" stop-color="#ffed7a"/><stop offset=".999" stop-color="#ff9d00"/></linearGradient><linearGradient id="aU" x1="245.454" x2="244.726" y1="123.618" y2="122.751" gradientUnits="userSpaceOnUse"><stop offset=".005" stop-color="#ffed7a"/><stop offset=".999" stop-color="#ff9d00"/></linearGradient><linearGradient id="aV" x1="18.223" x2="14" y1="-48.146" y2="-43.158" gradientUnits="userSpaceOnUse"><stop offset=".005" stop-color="#ffed7a"/><stop offset=".999" stop-color="#ff9d00"/></linearGradient><linearGradient id="aW" x1="285.452" x2="280.904" y1="86.254" y2="141.638" gradientUnits="userSpaceOnUse"><stop offset=".102" stop-color="#fcadad"/><stop offset=".885" stop-color="#fbdcd9"/></linearGradient><linearGradient id="aY" x1="225.389" x2="209.751" y1="102.005" y2="116.173" gradientUnits="userSpaceOnUse"><stop offset=".101" stop-color="#ff8338"/><stop offset=".885" stop-color="#ff4729"/></linearGradient><linearGradient id="aZ" x1="257.655" x2="253.043" y1="74.766" y2="130.164" gradientUnits="userSpaceOnUse"><stop offset=".102" stop-color="#fcadad"/><stop offset=".885" stop-color="#fbdcd9"/></linearGradient><linearGradient id="bb" x1="193.645" x2="183.961" y1="85.79" y2="125.405" gradientUnits="userSpaceOnUse"><stop offset=".101" stop-color="#ff8338"/><stop offset=".885" stop-color="#ff4729"/></linearGradient><linearGradient id="bc" x1="84.554" x2="167.759" y1="120.021" y2="54.64" gradientUnits="userSpaceOnUse"><stop offset=".102" stop-color="#fff"/><stop offset=".885" stop-color="#e3ebfd"/></linearGradient><linearGradient id="be" x1="148.011" x2="151.395" y1="106.616" y2="90.207" gradientUnits="userSpaceOnUse"><stop offset=".102" stop-color="#fff"/><stop offset=".885" stop-color="#d8e0fd"/></linearGradient><linearGradient id="bf" x1="149.432" x2="170.476" y1="181.157" y2="133.96" gradientUnits="userSpaceOnUse"><stop offset=".102" stop-color="#fff"/><stop offset=".885" stop-color="#e3ebfd"/></linearGradient><linearGradient id="bg" x1="153.975" x2="138.207" y1="17.254" y2="44.316" gradientUnits="userSpaceOnUse"><stop offset=".102" stop-color="#fcadad"/><stop offset=".885" stop-color="#fbdcd9"/></linearGradient><linearGradient id="bh" x1="382.758" x2="382.767" y1="-462.36" y2="-462.36" gradientUnits="userSpaceOnUse"><stop offset=".008" stop-color="#00cafe"/><stop offset="1" stop-color="#0088fa"/></linearGradient><linearGradient id="bi" x1="-606.237" x2="-606.255" y1="75.772" y2="75.769" gradientUnits="userSpaceOnUse"><stop offset=".008" stop-color="#00cafe"/><stop offset="1" stop-color="#0088fa"/></linearGradient><linearGradient id="bj" x1="-315.007" x2="-314.989" y1="-509.472" y2="-509.479" gradientUnits="userSpaceOnUse"><stop offset=".008" stop-color="#00cafe"/><stop offset="1" stop-color="#0088fa"/></linearGradient><linearGradient id="bk" x1="-75.66" x2="-75.684" y1="615.071" y2="615.073" gradientUnits="userSpaceOnUse"><stop offset=".008" stop-color="#00cafe"/><stop offset="1" stop-color="#0088fa"/></linearGradient><linearGradient id="bl" x1="-593.268" x2="-593.277" y1="-122.778" y2="-122.781" gradientUnits="userSpaceOnUse"><stop offset=".008" stop-color="#00cafe"/><stop offset="1" stop-color="#0088fa"/></linearGradient><linearGradient id="bm" x1="12.51" x2="12.52" y1="-596.841" y2="-596.842" gradientUnits="userSpaceOnUse"><stop offset=".008" stop-color="#00cafe"/><stop offset="1" stop-color="#0088fa"/></linearGradient><linearGradient id="bn" x1="585.78" x2="585.79" y1="-145.974" y2="-145.973" gradientUnits="userSpaceOnUse"><stop offset=".008" stop-color="#00cafe"/><stop offset="1" stop-color="#0088fa"/></linearGradient><linearGradient id="bo" x1="499.057" x2="499.062" y1="550.25" y2="550.248" gradientUnits="userSpaceOnUse"><stop offset=".008" stop-color="#00cafe"/><stop offset="1" stop-color="#0088fa"/></linearGradient><linearGradient id="bp" x1="148.441" x2="148.431" y1="600.756" y2="600.758" gradientUnits="userSpaceOnUse"><stop offset=".008" stop-color="#00cafe"/><stop offset="1" stop-color="#0088fa"/></linearGradient><linearGradient id="bq" x1="524.64" x2="524.656" y1="320.484" y2="320.5" gradientUnits="userSpaceOnUse"><stop offset=".008" stop-color="#00cafe"/><stop offset="1" stop-color="#0088fa"/></linearGradient><linearGradient id="br" x1="109.548" x2="112.301" y1="83.126" y2="82.884" gradientUnits="userSpaceOnUse"><stop offset=".008" stop-color="#00cafe"/><stop offset="1" stop-color="#0088fa"/></linearGradient><linearGradient id="bs" x1="-372.988" x2="-373.167" y1="483.054" y2="483.054" gradientUnits="userSpaceOnUse"><stop offset=".008" stop-color="#00cafe"/><stop offset="1" stop-color="#0088fa"/></linearGradient><linearGradient id="bu" x1="826.797" x2="807.846" y1="551.972" y2="560.289" gradientUnits="userSpaceOnUse"><stop offset=".008" stop-color="#00cafe"/><stop offset="1" stop-color="#0088fa"/></linearGradient><linearGradient id="bv" x1="257.821" x2="259.272" y1="-427.953" y2="-428.404" gradientUnits="userSpaceOnUse"><stop offset=".008" stop-color="#00cafe"/><stop offset="1" stop-color="#0088fa"/></linearGradient><linearGradient id="bw" x1="251.209" x2="252.66" y1="-423.405" y2="-423.856" gradientUnits="userSpaceOnUse"><stop offset=".008" stop-color="#00cafe"/><stop offset="1" stop-color="#0088fa"/></linearGradient><linearGradient id="bx" x1="251.74" x2="253.19" y1="-424.245" y2="-424.695" gradientUnits="userSpaceOnUse"><stop offset=".008" stop-color="#00cafe"/><stop offset="1" stop-color="#0088fa"/></linearGradient><linearGradient id="by" x1="0" x2="1.406" y1="1.407" y2="1.407" gradientUnits="userSpaceOnUse"><stop offset=".008" stop-color="#00cafe"/><stop offset="1" stop-color="#0088fa"/></linearGradient><linearGradient id="bz" x1="0" x2="1.407" y1="1.407" y2="1.407" gradientUnits="userSpaceOnUse"><stop offset=".008" stop-color="#00cafe"/><stop offset="1" stop-color="#0088fa"/></linearGradient><linearGradient id="bA" x1="0" x2="1.406" y1="1.407" y2="1.407" gradientUnits="userSpaceOnUse"><stop offset=".008" stop-color="#00cafe"/><stop offset="1" stop-color="#0088fa"/></linearGradient><linearGradient id="bB" x1="0" x2="1.407" y1="1.407" y2="1.407" gradientUnits="userSpaceOnUse"><stop offset=".008" stop-color="#00cafe"/><stop offset="1" stop-color="#0088fa"/></linearGradient><linearGradient id="bC" x1="0" x2="2.9" y1="2.9" y2="2.9" gradientUnits="userSpaceOnUse"><stop offset=".008" stop-color="#00cafe"/><stop offset="1" stop-color="#0088fa"/></linearGradient><linearGradient id="bD" x1="0" x2="2.9" y1="2.9" y2="2.9" gradientUnits="userSpaceOnUse"><stop offset=".008" stop-color="#00cafe"/><stop offset="1" stop-color="#0088fa"/></linearGradient><linearGradient id="bE" x1="0" x2="3.426" y1="3.426" y2="3.426" gradientUnits="userSpaceOnUse"><stop offset=".008" stop-color="#00cafe"/><stop offset="1" stop-color="#0088fa"/></linearGradient><linearGradient id="bF" x1="0" x2="3.426" y1="3.426" y2="3.426" gradientUnits="userSpaceOnUse"><stop offset=".008" stop-color="#00cafe"/><stop offset="1" stop-color="#0088fa"/></linearGradient><radialGradient id="D" cx="0" cy="0" r="1" gradientTransform="matrix(-64.605 0 0 -75.3724 255.29 276.4)" gradientUnits="userSpaceOnUse"><stop stop-color="#fc7023"/><stop offset="1" stop-color="#e00321"/></radialGradient><radialGradient id="M" cx="0" cy="0" r="1" gradientTransform="matrix(-108.872 0 0 -65.566 68.239 300.461)" gradientUnits="userSpaceOnUse"><stop stop-color="#00ded8"/><stop offset=".997" stop-color="#4aaafd"/></radialGradient><path id="G" fill="#fff" d="M229.949 261.176h15.752v-15.753a3.425 3.425 0 0 1 3.425-3.424h12.328a3.425 3.425 0 0 1 3.425 3.424v15.753h15.752a3.425 3.425 0 0 1 3.425 3.425v12.327a3.426 3.426 0 0 1-3.425 3.425h-15.752v15.752a3.426 3.426 0 0 1-3.425 3.425h-12.328a3.426 3.426 0 0 1-3.425-3.425v-15.752h-15.752a3.426 3.426 0 0 1-3.425-3.425v-12.327a3.425 3.425 0 0 1 3.425-3.425"/></defs></svg>