<svg width="80" height="63" viewBox="0 0 111 82" fill="none" xmlns="http://www.w3.org/2000/svg">
<path opacity="0.2" d="M6.97408 82C-3.91132 33.9574 6.80811 -6 32.8433 -6C58.8785 -6 106.577 32.0205 110.856 82H6.97408Z" fill="url(#paint0_linear_52_7228)"/>
<path d="M98.1868 63.8975H70.3174C69.6395 63.8975 68.9913 63.6194 68.5242 63.1281C68.0571 62.6368 67.812 61.9754 67.8462 61.2984L69.8982 20.6523C69.9646 19.336 71.0513 18.3027 72.3694 18.3027H96.1348C97.4529 18.3027 98.5396 19.336 98.606 20.6523L100.658 61.2984C100.692 61.9754 100.447 62.6368 99.98 63.1281C99.5129 63.6194 98.8647 63.8975 98.1868 63.8975Z" fill="url(#paint1_linear_52_7228)"/>
<mask id="mask0_52_7228" style="mask-type:luminance" maskUnits="userSpaceOnUse" x="67" y="18" width="34" height="46">
<path fill-rule="evenodd" clip-rule="evenodd" d="M98.1868 63.8975H70.3174C69.6395 63.8975 68.9913 63.6194 68.5242 63.1281C68.0571 62.6368 67.812 61.9754 67.8462 61.2984L69.8982 20.6523C69.9646 19.336 71.0513 18.3027 72.3694 18.3027H96.1348C97.4529 18.3027 98.5396 19.336 98.606 20.6523L100.658 61.2984C100.692 61.9754 100.447 62.6368 99.98 63.1281C99.5129 63.6194 98.8647 63.8975 98.1868 63.8975Z" fill="white"/>
</mask>
<g mask="url(#mask0_52_7228)">
<path d="M77.4636 17.8069L78.9156 19.7648H89.5921L91.4189 17.7012L77.4636 17.8069Z" fill="url(#paint2_linear_52_7228)"/>
<path d="M60.9251 62.8203C65.7025 57.2179 73.7361 62.5032 88.4291 62.8203C103.122 63.1374 99.8774 46.0264 99.8774 46.0264L103.122 60.835C103.122 60.835 102.805 65.2515 102.488 66.0971C102.171 66.9428 73.6981 70.1139 73.6981 70.1139L63.4827 66.2029" fill="url(#paint3_linear_52_7228)"/>
</g>
<path fill-rule="evenodd" clip-rule="evenodd" d="M89.2924 16.6521C89.1089 16.4685 88.8599 16.3654 88.6004 16.3654H87.4336V14.744C87.4336 14.3795 87.1382 14.0841 86.7737 14.0841H81.708C81.533 14.0841 81.3652 14.1536 81.2414 14.2774C81.1176 14.4011 81.0481 14.569 81.0481 14.744V16.3654H79.8814C79.6218 16.3654 79.3728 16.4685 79.1893 16.6521C79.0057 16.8356 78.9026 17.0846 78.9026 17.3442V19.5592H89.5791V17.3442C89.5791 17.0846 89.476 16.8356 89.2924 16.6521ZM84.6868 15.6045C85.0726 15.7946 85.2944 16.2093 85.2385 16.6357H85.2385C85.1792 17.0866 84.8244 17.4414 84.3735 17.5007C83.9471 17.5566 83.5325 17.3347 83.3424 16.949C83.1523 16.5632 83.2289 16.0993 83.533 15.7952C83.8371 15.4911 84.3011 15.4144 84.6868 15.6045Z" fill="#77AFF6"/>
<path d="M94.7926 55.0178C91.6795 57.6994 89.6477 60.8315 89.6477 60.8315H69.9145L71.928 20.9473H96.8327L98.1689 51.6284C98.1689 51.6284 97.3416 52.8221 94.7926 55.0178Z" fill="url(#paint4_linear_52_7228)"/>
<path d="M90.222 51.584C91.9328 57.5938 90.7065 58.6873 89.6477 60.8361C89.6477 60.8361 93.5065 57.1952 98.1689 51.6331C98.1689 51.6331 94.8092 52.7372 90.222 51.584Z" fill="url(#paint5_linear_52_7228)"/>
<path d="M77.4563 28.6744C77.4182 29.3874 76.7448 29.9713 75.9524 29.9713C75.1601 29.9713 74.562 29.3874 74.6159 28.6744C74.6693 27.9693 75.3416 27.4033 76.1182 27.4033C76.8947 27.4033 77.494 27.9693 77.4563 28.6744Z" fill="white"/>
<path d="M93.47 28.4428H79.1769C78.9254 28.4428 78.7294 28.259 78.7393 28.0331C78.7491 27.8079 78.9597 27.626 79.2096 27.626H93.411C93.661 27.626 93.8774 27.8079 93.8944 28.0331C93.9116 28.2591 93.7215 28.4428 93.47 28.4428Z" fill="white"/>
<path d="M89.0458 29.7299H79.1279C78.8738 29.7299 78.676 29.5424 78.686 29.3118C78.696 29.0821 78.9088 28.8965 79.1613 28.8965H89.0149C89.2674 28.8965 89.4796 29.0821 89.4889 29.3118C89.4983 29.5424 89.2999 29.7299 89.0458 29.7299Z" fill="white"/>
<path d="M77.1514 34.4028C77.1098 35.1815 76.4043 35.8194 75.576 35.8194C74.7477 35.8194 74.1246 35.1815 74.1835 34.4028C74.2417 33.6331 74.9459 33.0156 75.757 33.0156C76.568 33.0156 77.1925 33.6331 77.1514 34.4028Z" fill="white"/>
<path d="M93.878 34.1551H78.9445C78.6817 34.1551 78.4773 33.9545 78.4881 33.7079C78.4988 33.4622 78.7191 33.2637 78.9802 33.2637H93.8137C94.0748 33.2637 94.3015 33.4622 94.3201 33.7079C94.3388 33.9545 94.1409 34.1551 93.878 34.1551Z" fill="white"/>
<path d="M89.2491 35.5568H78.8821C78.6165 35.5568 78.4101 35.3519 78.4211 35.1001C78.432 34.8492 78.6547 34.6465 78.9186 34.6465H89.2154C89.4792 34.6465 89.7014 34.8492 89.7116 35.1001C89.7218 35.3519 89.5148 35.5568 89.2491 35.5568Z" fill="white"/>
<path d="M76.8035 40.6693C76.7579 41.5231 76.0171 42.223 75.1495 42.223C74.2818 42.223 73.6314 41.5231 73.696 40.6693C73.7599 39.8258 74.4991 39.1494 75.3478 39.1494C76.1966 39.1494 76.8485 39.8258 76.8035 40.6693Z" fill="white"/>
<path d="M94.3234 40.4035H78.6893C78.5599 40.4057 78.4353 40.3543 78.345 40.2615C78.2547 40.1687 78.2067 40.0428 78.2124 39.9134C78.2286 39.6402 78.4548 39.4269 78.7284 39.4268H94.2529C94.5286 39.4288 94.7581 39.6389 94.7845 39.9134C94.7954 40.0413 94.7513 40.1679 94.6633 40.2614C94.5753 40.3549 94.4517 40.4066 94.3234 40.4035Z" fill="white"/>
<path d="M89.4897 41.9369H78.631C78.4994 41.9384 78.373 41.8854 78.2817 41.7906C78.1905 41.6957 78.1425 41.5674 78.1491 41.4359C78.164 41.1581 78.3928 40.9401 78.6709 40.9385H89.4527C89.7307 40.9399 89.9591 41.1583 89.9731 41.4359C89.9792 41.5675 89.9309 41.6958 89.8394 41.7906C89.7479 41.8854 89.6214 41.9383 89.4897 41.9369Z" fill="white"/>
<path d="M76.8035 46.7875C76.7579 47.6413 76.0171 48.3412 75.1495 48.3412C74.2818 48.3412 73.6314 47.6413 73.696 46.7875C73.7599 45.9439 74.4991 45.2676 75.3478 45.2676C76.1966 45.2676 76.8485 45.9439 76.8035 46.7875Z" fill="white"/>
<path d="M94.3234 46.5109H78.6893C78.5599 46.5131 78.4353 46.4617 78.345 46.3689C78.2547 46.2762 78.2067 46.1502 78.2124 46.0208C78.2286 45.7477 78.4548 45.5343 78.7284 45.5342H94.2529C94.5286 45.5362 94.7581 45.7464 94.7845 46.0208C94.7954 46.1488 94.7513 46.2753 94.6633 46.3688C94.5753 46.4623 94.4517 46.514 94.3234 46.5109Z" fill="white"/>
<path d="M89.4897 48.0541H78.631C78.4994 48.0555 78.373 48.0026 78.2817 47.9077C78.1905 47.8129 78.1425 47.6845 78.1491 47.5531C78.164 47.2753 78.3928 47.0573 78.6709 47.0557H89.4527C89.7307 47.0571 89.9591 47.2755 89.9731 47.5531C89.9792 47.6847 89.9309 47.813 89.8394 47.9078C89.7479 48.0025 89.6214 48.0555 89.4897 48.0541Z" fill="white"/>
<path d="M31.4149 34.601C31.3885 39.2427 27.6043 42.9843 22.9625 42.9579C22.0712 42.9521 21.1865 42.8042 20.3417 42.5198L15.0393 44.1233C14.4482 44.302 13.9236 43.6978 14.1837 43.1376L16.0094 39.2047C15.0825 37.8137 14.5935 36.177 14.6055 34.5055C14.6319 29.8637 18.4162 26.1222 23.0579 26.1486C27.6997 26.1749 31.4413 29.9592 31.4149 34.601Z" fill="url(#paint6_linear_52_7228)"/>
<path d="M28.228 20.7189C32.4167 20.7427 35.7932 24.1576 35.7694 28.3464C35.7641 29.1507 35.6307 29.9491 35.374 30.7114L36.821 35.4963C36.8946 35.7398 36.8184 36.0037 36.6263 36.1704C36.4343 36.3372 36.1622 36.3756 35.9315 36.2685L32.3824 34.6209C31.1272 35.4574 29.6502 35.8986 28.1418 35.8878C23.953 35.864 20.5766 32.449 20.6004 28.2603C20.6242 24.0715 24.0392 20.6951 28.228 20.7189Z" fill="url(#paint7_linear_52_7228)"/>
<path d="M84.7861 75.0479L83.5099 54.4035L80.4801 49.4983C80.4801 49.4983 73.3434 47.8317 53.9144 47.8115C50.8624 47.8124 48.1562 49.7736 47.2052 52.6736L37.9854 80.7533L83.1997 81.6059L84.7861 75.0479Z" fill="url(#paint8_linear_52_7228)"/>
<mask id="mask1_52_7228" style="mask-type:luminance" maskUnits="userSpaceOnUse" x="37" y="47" width="48" height="35">
<path fill-rule="evenodd" clip-rule="evenodd" d="M84.7861 75.0479L83.5099 54.4035L80.4801 49.4983C80.4801 49.4983 73.3434 47.8317 53.9144 47.8115C50.8624 47.8124 48.1562 49.7736 47.2052 52.6736L37.9854 80.7533L83.1997 81.6059L84.7861 75.0479Z" fill="white"/>
</mask>
<g mask="url(#mask1_52_7228)">
<path d="M76.2842 58.7705C84.4545 77.7287 53.915 67.8927 58.9135 78.284C63.7175 88.2708 99.6846 80.4211 99.6846 80.4211L87.3101 59.7224" fill="url(#paint9_linear_52_7228)"/>
<path d="M49.4343 62.9175C41.6077 79.4633 54.8252 77.0891 54.8252 77.0891L46.5487 85.8969L30.5254 81.6105L31.6359 66.7894L49.4343 58.4511" fill="url(#paint10_linear_52_7228)"/>
</g>
<path d="M54.8252 54.7849L48.7534 50.0547L19.422 81.6071L32.907 80.1643L50.7821 62.3041L54.8252 54.7849Z" fill="url(#paint11_linear_52_7228)"/>
<path d="M66.925 73.7578H66.2111C63.5031 73.7578 54.3125 74.6151 53.9159 74.6914C49.7911 75.4846 44.4765 80.0432 43.8419 80.3024L67.8174 80.1312" fill="url(#paint12_linear_52_7228)"/>
<mask id="mask2_52_7228" style="mask-type:luminance" maskUnits="userSpaceOnUse" x="43" y="73" width="25" height="8">
<path fill-rule="evenodd" clip-rule="evenodd" d="M66.925 73.7578H66.2111C63.5031 73.7578 54.3125 74.6151 53.9159 74.6914C49.7911 75.4846 44.4765 80.0432 43.8419 80.3024L67.8174 80.1312" fill="white"/>
</mask>
<g mask="url(#mask2_52_7228)">
<path opacity="0.34" d="M61.5615 72.7178C63.4989 79.195 62.2376 77.9986 58.0251 79.195C42.3023 83.66 65.7269 82.895 66.7831 82.4792L70.0674 78.1002L64.907 73.651" fill="url(#paint13_linear_52_7228)"/>
</g>
<path d="M61.5383 71.8871C61.2439 73.8987 64.4166 81.6135 64.4166 81.6135H93.7481C97.4736 81.6135 100.738 79.1185 101.715 75.5235C102.573 72.3688 101.489 69.0051 98.9499 66.9453C98.9499 66.9453 83.0729 49.4826 80.4703 49.5059C77.8676 49.5291 76.2868 58.7714 76.2868 58.7714L83.0082 72.3881L61.5383 71.8871Z" fill="url(#paint14_linear_52_7228)"/>
<path d="M72.456 79.2236H44.4791V81.6067H72.5596V79.3272C72.5596 79.2998 72.5487 79.2734 72.5292 79.254C72.5098 79.2345 72.4835 79.2236 72.456 79.2236Z" fill="url(#paint15_linear_52_7228)"/>
<path d="M11.934 81.6096H50.458L39.5267 56.2376C39.272 55.6466 38.6901 55.2637 38.0466 55.2637H1.89495C1.60449 55.2637 1.3335 55.4098 1.17384 55.6524C1.01417 55.895 0.98724 56.2017 1.10217 56.4685L11.934 81.6096Z" fill="url(#paint16_linear_52_7228)"/>
<path d="M10.9028 81.6096H49.4268L38.4954 56.2376C38.2408 55.6466 37.6589 55.2637 37.0153 55.2637H0.863705C0.573242 55.2637 0.30225 55.4098 0.142586 55.6524C-0.0170784 55.895 -0.0440102 56.2017 0.070919 56.4685L10.9028 81.6096Z" fill="url(#paint17_linear_52_7228)"/>
<mask id="mask3_52_7228" style="mask-type:luminance" maskUnits="userSpaceOnUse" x="0" y="55" width="50" height="27">
<path fill-rule="evenodd" clip-rule="evenodd" d="M10.9028 81.6096H49.4268L38.4954 56.2376C38.2408 55.6466 37.6589 55.2637 37.0153 55.2637H0.863705C0.573242 55.2637 0.30225 55.4098 0.142586 55.6524C-0.0170784 55.895 -0.0440102 56.2017 0.070919 56.4685L10.9028 81.6096Z" fill="white"/>
</mask>
<g mask="url(#mask3_52_7228)">
<path d="M-1.10244 52.919C12.0346 91.2353 57.4189 84.4629 57.4189 84.4629L-0.00769043 94.5195L-12.05 71.5297L-8.76572 52.9189" fill="url(#paint18_linear_52_7228)"/>
</g>
<ellipse cx="3.56233" cy="2.33821" rx="3.56233" ry="2.33821" transform="matrix(-0.862617 -0.505857 -0.505858 0.862616 28.7549 68.2227)" fill="url(#paint19_linear_52_7228)"/>
<path d="M70.1768 49.1789L62.0159 28.8213H52.1467L51.0602 41.2258L58.032 42.1312L58.914 53.8525L70.1768 49.1789Z" fill="url(#paint20_linear_52_7228)"/>
<mask id="mask4_52_7228" style="mask-type:luminance" maskUnits="userSpaceOnUse" x="51" y="28" width="20" height="26">
<path fill-rule="evenodd" clip-rule="evenodd" d="M70.1768 49.1789L62.0159 28.8213H52.1467L51.0602 41.2258L58.032 42.1312L58.914 53.8525L70.1768 49.1789Z" fill="white"/>
</mask>
<g mask="url(#mask4_52_7228)">
<path opacity="0.34" d="M60.7373 38.3353C58.8746 41.0581 64.577 45.4762 57.4362 46.7605C50.2953 48.0448 56.0491 37.8987 56.0491 37.8987L58.9243 36.6914" fill="url(#paint21_linear_52_7228)"/>
</g>
<path d="M58.4316 33.5221C66.0373 50.4839 47.8025 46.1034 51.3967 37.4586C58.5524 39.7998 56.8019 33.5221 56.8019 33.5221C56.8019 33.5221 53.4819 32.2545 54.6892 29.7193C54.6892 29.7193 52.1697 28.6341 52.0266 30.2673C49.1358 27.1237 51.3089 23.6227 58.1298 25.4939C64.9508 27.3651 67.0635 38.4718 67.0635 38.4718C67.0635 38.4718 63.3814 44.508 58.4316 33.5221Z" fill="url(#paint22_linear_52_7228)"/>
<path d="M58.9165 34.6794C62.8333 30.994 64.4408 36.2568 60.3006 40.5977L58.9165 34.6794Z" fill="url(#paint23_linear_52_7228)"/>
<path d="M60.1646 50.5442L56.4489 50.0547L57.0501 61.14L62.4026 62.1316L68.5203 53.5987L68.54 50.622L64.6653 50.9552L62.6087 50.7848L60.9445 50.7846" fill="url(#paint24_linear_52_7228)"/>
<path d="M61.1652 52.5117L56.7976 61.0177L56.866 68.6979L59.0736 67.8447L62.2047 60.8206L63.0049 51.9639L61.1652 52.5117Z" fill="url(#paint25_linear_52_7228)"/>
<path d="M60.1734 50.6494L60.674 52.5215C60.7969 52.9809 61.209 53.2779 61.7605 53.3043L62.206 53.3257C62.7507 53.3518 63.3535 53.1101 63.7996 52.6866L65.415 51.153L63.2599 50.8315L60.1734 50.6494Z" fill="url(#paint26_linear_52_7228)"/>
<path d="M70.4609 48.9632C70.4609 48.9632 69.6956 47.0437 69.2201 47.0156C69.2201 47.0156 66.3075 49.868 63.126 50.8318L65.1671 53.8084C65.1671 53.8084 70.6523 50.8612 70.4609 48.9632Z" fill="url(#paint27_linear_52_7228)"/>
<path d="M69.9624 47.8311L56.9464 69.8137L68.8657 60.1769L67.2344 57.3364L70.5491 56.1004L71.1695 49.8747C71.1695 49.8747 71.5963 48.4788 69.9624 47.8311Z" fill="white"/>
<path d="M57.6093 48.1678C57.6093 48.1678 57.9166 46.9505 58.3925 46.9277C58.3925 46.9277 59.6135 49.7816 61.4424 50.7284L59.9688 53.3023C59.9688 53.3023 56.2296 50.1193 57.6093 48.1678Z" fill="url(#paint28_linear_52_7228)"/>
<rect width="6.31068" height="4.37085" rx="0.027755" transform="matrix(-0.978822 -0.204714 -0.204715 0.978822 56.6299 62.8262)" fill="url(#paint29_radial_52_7228)"/>
<mask id="mask5_52_7228" style="mask-type:luminance" maskUnits="userSpaceOnUse" x="49" y="61" width="8" height="7">
<rect width="6.31068" height="4.37085" rx="0.027755" transform="matrix(-0.978822 -0.204714 -0.204715 0.978822 56.6299 62.827)" fill="white"/>
</mask>
<g mask="url(#mask5_52_7228)">
<path d="M56.085 66.9433C50.0772 65.9264 49.8343 66.03 50.0091 63.6794C50.1838 61.3288 48.5224 65.6012 48.5224 65.6012L49.8538 66.9719L56.2002 67.7038" fill="url(#paint30_linear_52_7228)"/>
</g>
<g opacity="0.46">
<ellipse cx="0.907038" cy="0.978889" rx="0.907038" ry="0.978889" transform="matrix(-0.978822 -0.204714 -0.204715 0.978822 55.7393 63.7139)" fill="white"/>
<rect width="2.47853" height="0.23903" transform="matrix(-0.978822 -0.204714 -0.204715 0.978822 53.333 63.2666)" fill="white"/>
<rect width="2.47853" height="0.23903" transform="matrix(-0.978822 -0.204714 -0.204715 0.978822 53.1768 64.0635)" fill="white"/>
<rect width="1.81097" height="0.23903" transform="matrix(-0.978822 -0.204714 -0.204715 0.978822 53.0049 64.8643)" fill="white"/>
</g>
<path d="M54.58 60.7996L53.1519 60.501C53.1309 60.4965 53.1102 60.5101 53.1058 60.5311L52.7938 62.0231L54.2982 62.3377L54.6102 60.8458C54.6146 60.8247 54.6011 60.804 54.58 60.7996Z" fill="url(#paint31_linear_52_7228)"/>
<mask id="mask6_52_7228" style="mask-type:luminance" maskUnits="userSpaceOnUse" x="52" y="60" width="3" height="3">
<path fill-rule="evenodd" clip-rule="evenodd" d="M54.58 60.7996L53.1519 60.501C53.1309 60.4965 53.1102 60.5101 53.1058 60.5311L52.7938 62.0231L54.2982 62.3377L54.6102 60.8458C54.6146 60.8247 54.6011 60.804 54.58 60.7996Z" fill="white"/>
</mask>
<g mask="url(#mask6_52_7228)">
<path d="M52.8175 61.2891C52.8903 61.8592 54.3951 61.974 54.4997 62.1624C54.6043 62.3509 54.0433 62.5089 54.0433 62.5089L52.5522 62.197L52.7169 61.4752" fill="url(#paint32_linear_52_7228)"/>
</g>
<rect width="3.6387" height="0.865065" transform="matrix(-0.978822 -0.204714 -0.204715 0.978822 55.376 62.3369)" fill="url(#paint33_linear_52_7228)"/>
<path d="M57.8411 47.5039C57.8411 47.5039 57.5216 65.8234 58.2275 67.7732L56.9411 69.8092L53.3432 58.6908L55.3702 56.6445L52.5571 55.8795L56.4293 48.651C56.4293 48.651 56.5343 47.6173 57.8411 47.5039Z" fill="white"/>
<ellipse cx="1.03897" cy="1.03897" rx="1.03897" ry="1.03897" transform="matrix(-1 0 0 1 57.2627 71.1621)" fill="white"/>
<path d="M100.375 57.0156C100.375 57.0156 101.161 57.9585 101.161 58.3906C101.161 58.8246 100.809 59.1763 100.375 59.1763C99.9415 59.1763 99.5897 58.8246 99.5897 58.3906C99.5897 57.9585 100.375 57.0156 100.375 57.0156V57.0156Z" fill="url(#paint34_linear_52_7228)"/>
<rect width="0.764834" height="4.49217" transform="matrix(-1 0 0 1 105.22 55.1523)" fill="url(#paint35_linear_52_7228)"/>
<mask id="mask7_52_7228" style="mask-type:luminance" maskUnits="userSpaceOnUse" x="104" y="55" width="2" height="5">
<rect width="0.764834" height="4.49217" transform="matrix(-1 0 0 1 105.22 55.1523)" fill="white"/>
</mask>
<g mask="url(#mask7_52_7228)">
<path d="M106.677 56.1331C104.957 56.6667 104.713 55.9312 104.009 55.8172C103.304 55.7032 105.076 54.7636 105.076 54.7636L106.025 55.3623" fill="url(#paint36_linear_52_7228)"/>
</g>
<path d="M100.848 62.7854H103.159V58.067C103.159 57.8998 103.226 57.7394 103.344 57.6212C103.462 57.503 103.622 57.4365 103.79 57.4365H105.88C106.048 57.4365 106.208 57.503 106.326 57.6212C106.445 57.7394 106.511 57.8998 106.511 58.067V62.7854H108.822C109.298 62.7854 109.755 62.9747 110.092 63.3115C110.429 63.6484 110.618 64.1053 110.618 64.5817V79.9536C110.618 80.43 110.429 80.8868 110.092 81.2237C109.755 81.5606 109.298 81.7498 108.822 81.7498H100.848C100.372 81.7498 99.9149 81.5606 99.5781 81.2237C99.2412 80.8868 99.052 80.43 99.052 79.9536V64.5817C99.052 63.5896 99.8562 62.7854 100.848 62.7854Z" fill="url(#paint37_linear_52_7228)"/>
<mask id="mask8_52_7228" style="mask-type:luminance" maskUnits="userSpaceOnUse" x="99" y="57" width="12" height="25">
<path fill-rule="evenodd" clip-rule="evenodd" d="M100.848 62.7854H103.159V58.067C103.159 57.8998 103.226 57.7394 103.344 57.6212C103.462 57.503 103.622 57.4365 103.79 57.4365H105.88C106.048 57.4365 106.208 57.503 106.326 57.6212C106.445 57.7394 106.511 57.8998 106.511 58.067V62.7854H108.822C109.298 62.7854 109.755 62.9747 110.092 63.3115C110.429 63.6484 110.618 64.1053 110.618 64.5817V79.9536C110.618 80.43 110.429 80.8868 110.092 81.2237C109.755 81.5606 109.298 81.7498 108.822 81.7498H100.848C100.372 81.7498 99.9149 81.5606 99.5781 81.2237C99.2412 80.8868 99.052 80.43 99.052 79.9536V64.5817C99.052 63.5896 99.8562 62.7854 100.848 62.7854Z" fill="white"/>
</mask>
<g mask="url(#mask8_52_7228)">
<path opacity="0.15" d="M111.478 70.8085C108.217 82.6708 98.6703 81.7494 98.6703 81.7494L112.782 83.9752L111.893 73.5396L111.656 71.3457" fill="white"/>
<path opacity="0.15" d="M96.3124 69.5897C99.4332 62.0342 108.845 62.5031 108.845 62.5031L94.9253 61.2627L95.8823 67.8642L96.133 69.2514" fill="white"/>
</g>
<path d="M100.374 53.709V53.7232C100.374 54.2972 100.715 54.7625 101.135 54.7625H102.616C102.996 54.7625 103.304 55.1832 103.304 55.7021C103.304 55.7651 103.341 55.8161 103.387 55.8161H106.339C106.385 55.8161 106.423 55.7651 106.423 55.7021V54.3652C106.423 54.0028 106.208 53.709 105.942 53.709L100.374 53.709Z" fill="url(#paint38_linear_52_7228)"/>
<rect opacity="0.39" width="0.736653" height="17.5453" transform="matrix(-1 0 0 1 105.204 59.6465)" fill="white"/>
<rect width="4.0611" height="4.3301" rx="0.34347" transform="matrix(-1 0 0 1 106.872 58.2373)" fill="url(#paint39_linear_52_7228)"/>
<mask id="mask9_52_7228" style="mask-type:luminance" maskUnits="userSpaceOnUse" x="102" y="58" width="5" height="5">
<rect width="4.0611" height="4.3301" rx="0.34347" transform="matrix(-1 0 0 1 106.872 58.2373)" fill="white"/>
</mask>
<g mask="url(#mask9_52_7228)">
<rect opacity="0.33" width="0.243133" height="5.07105" transform="matrix(-1 0 0 1 106.317 57.8076)" fill="url(#paint40_linear_52_7228)"/>
<path opacity="0.33" d="M105.371 62.8787H105.614V57.8076H105.371" fill="url(#paint41_linear_52_7228)"/>
<rect opacity="0.33" width="0.243133" height="5.07105" transform="matrix(-1 0 0 1 105.06 57.8076)" fill="url(#paint42_linear_52_7228)"/>
<rect opacity="0.33" width="0.243133" height="5.07105" transform="matrix(-1 0 0 1 103.521 57.8076)" fill="url(#paint43_linear_52_7228)"/>
</g>
<path opacity="0.82" d="M110.028 69.3496H99.6114V79.0559C99.6114 79.6462 99.846 80.2124 100.263 80.6298C100.681 81.0472 101.247 81.2817 101.837 81.2817H107.802C109.032 81.2817 110.028 80.2852 110.028 79.0559V69.3496V69.3496Z" fill="url(#paint44_linear_52_7228)"/>
<rect width="6.48355" height="6.48354" rx="0.500481" transform="matrix(-1 0 0 1 108.075 70.8086)" fill="white"/>
<path d="M102.751 73.5754H104.364V71.9619H105.305V73.5754H106.919V74.5164H105.305V76.1299H104.364V74.5164H102.751V73.5754Z" fill="url(#paint45_linear_52_7228)"/>
<defs>
<linearGradient id="paint0_linear_52_7228" x1="164.198" y1="-12.2734" x2="149.919" y2="145.116" gradientUnits="userSpaceOnUse">
<stop stop-color="#A7F6FF"/>
<stop offset="1" stop-color="#34A595"/>
</linearGradient>
<linearGradient id="paint1_linear_52_7228" x1="69.9298" y1="60.9844" x2="73.0015" y2="21.3769" gradientUnits="userSpaceOnUse">
<stop stop-color="#FFADA9"/>
<stop offset="1" stop-color="#FF6559"/>
</linearGradient>
<linearGradient id="paint2_linear_52_7228" x1="63.7169" y1="21.8855" x2="63.7249" y2="15.8303" gradientUnits="userSpaceOnUse">
<stop offset="0.1011" stop-color="#FF5D37"/>
<stop offset="0.8855" stop-color="#FF9346"/>
</linearGradient>
<linearGradient id="paint3_linear_52_7228" x1="40.5187" y1="45.7587" x2="38.9278" y2="81.4215" gradientUnits="userSpaceOnUse">
<stop stop-color="#FFADA9"/>
<stop offset="1" stop-color="#FF6559"/>
</linearGradient>
<linearGradient id="paint4_linear_52_7228" x1="49.7738" y1="52.062" x2="88.4341" y2="13.2589" gradientUnits="userSpaceOnUse">
<stop offset="0.1023" stop-color="#DCDFF8"/>
<stop offset="0.8855" stop-color="#F5F7FE"/>
</linearGradient>
<linearGradient id="paint5_linear_52_7228" x1="-9.85782" y1="57.4014" x2="-5.3997" y2="51.7291" gradientUnits="userSpaceOnUse">
<stop offset="0.1023" stop-color="#DCDFF8"/>
<stop offset="0.8855" stop-color="#F5F7FE"/>
</linearGradient>
<linearGradient id="paint6_linear_52_7228" x1="0.216843" y1="36.6913" x2="18.7163" y2="24.9934" gradientUnits="userSpaceOnUse">
<stop offset="0.4867" stop-color="#77C1BC"/>
<stop offset="1" stop-color="#34A595"/>
</linearGradient>
<linearGradient id="paint7_linear_52_7228" x1="36.8498" y1="40.3696" x2="12.1904" y2="40.3696" gradientUnits="userSpaceOnUse">
<stop stop-color="#FFCC92"/>
<stop offset="1" stop-color="#F79748"/>
</linearGradient>
<linearGradient id="paint8_linear_52_7228" x1="103.712" y1="13.346" x2="116.854" y2="96.9424" gradientUnits="userSpaceOnUse">
<stop offset="0.1023" stop-color="white"/>
<stop offset="0.8855" stop-color="#E3EBFD"/>
</linearGradient>
<linearGradient id="paint9_linear_52_7228" x1="89.9843" y1="90.1433" x2="88.9667" y2="87.0874" gradientUnits="userSpaceOnUse">
<stop offset="0.1023" stop-color="white"/>
<stop offset="0.8855" stop-color="#CDDEFD"/>
</linearGradient>
<linearGradient id="paint10_linear_52_7228" x1="69.053" y1="62.4741" x2="67.3472" y2="63.1427" gradientUnits="userSpaceOnUse">
<stop offset="0.1023" stop-color="white"/>
<stop offset="0.8855" stop-color="#CDDEFD"/>
</linearGradient>
<linearGradient id="paint11_linear_52_7228" x1="71.1382" y1="17.8419" x2="90.9999" y2="100.777" gradientUnits="userSpaceOnUse">
<stop offset="0.1023" stop-color="white"/>
<stop offset="0.8855" stop-color="#E3EBFD"/>
</linearGradient>
<linearGradient id="paint12_linear_52_7228" x1="67.8174" y1="80.3985" x2="43.5598" y2="80.3985" gradientUnits="userSpaceOnUse">
<stop offset="0.1023" stop-color="#FCADBA"/>
<stop offset="0.8855" stop-color="#FBDAD9"/>
</linearGradient>
<linearGradient id="paint13_linear_52_7228" x1="70.0674" y1="82.8052" x2="52.6119" y2="82.8052" gradientUnits="userSpaceOnUse">
<stop offset="0.1011" stop-color="#FF7638"/>
<stop offset="0.8855" stop-color="#FF3929"/>
</linearGradient>
<linearGradient id="paint14_linear_52_7228" x1="118.81" y1="1.35597" x2="135.809" y2="90.9993" gradientUnits="userSpaceOnUse">
<stop offset="0.1023" stop-color="white"/>
<stop offset="0.8855" stop-color="#E3EBFD"/>
</linearGradient>
<linearGradient id="paint15_linear_52_7228" x1="72.5596" y1="81.6067" x2="44.4791" y2="81.6067" gradientUnits="userSpaceOnUse">
<stop stop-color="#98C5FF"/>
<stop offset="1" stop-color="#3580E4"/>
</linearGradient>
<linearGradient id="paint16_linear_52_7228" x1="50.458" y1="81.6099" x2="1.03079" y2="81.6099" gradientUnits="userSpaceOnUse">
<stop stop-color="#98C5FF"/>
<stop offset="1" stop-color="#3580E4"/>
</linearGradient>
<linearGradient id="paint17_linear_52_7228" x1="49.4268" y1="81.6099" x2="-0.000465572" y2="81.6099" gradientUnits="userSpaceOnUse">
<stop stop-color="#98C5FF"/>
<stop offset="1" stop-color="#3580E4"/>
</linearGradient>
<linearGradient id="paint18_linear_52_7228" x1="57.4189" y1="94.5196" x2="-12.05" y2="94.5196" gradientUnits="userSpaceOnUse">
<stop stop-color="#98C5FF"/>
<stop offset="1" stop-color="#3580E4"/>
</linearGradient>
<linearGradient id="paint19_linear_52_7228" x1="-1.81721" y1="2.53698" x2="1.76451" y2="7.41231" gradientUnits="userSpaceOnUse">
<stop stop-color="#98C5FF"/>
<stop offset="1" stop-color="#3580E4"/>
</linearGradient>
<linearGradient id="paint20_linear_52_7228" x1="70.1768" y1="53.8525" x2="51.0602" y2="53.8525" gradientUnits="userSpaceOnUse">
<stop offset="0.1023" stop-color="#FCADBA"/>
<stop offset="0.8855" stop-color="#FBDAD9"/>
</linearGradient>
<linearGradient id="paint21_linear_52_7228" x1="61.1494" y1="46.8729" x2="53.8581" y2="46.8729" gradientUnits="userSpaceOnUse">
<stop offset="0.1011" stop-color="#FF7638"/>
<stop offset="0.8855" stop-color="#FF3929"/>
</linearGradient>
<linearGradient id="paint22_linear_52_7228" x1="67.0635" y1="45.0935" x2="50.7791" y2="45.0935" gradientUnits="userSpaceOnUse">
<stop offset="0.1023" stop-color="#915758"/>
<stop offset="0.8855" stop-color="#2C090B"/>
</linearGradient>
<linearGradient id="paint23_linear_52_7228" x1="62.7314" y1="40.5977" x2="58.9165" y2="40.5977" gradientUnits="userSpaceOnUse">
<stop offset="0.1023" stop-color="#FCADBA"/>
<stop offset="0.8855" stop-color="#FBDAD9"/>
</linearGradient>
<linearGradient id="paint24_linear_52_7228" x1="55.4334" y1="68.0741" x2="56.4564" y2="64.9396" gradientUnits="userSpaceOnUse">
<stop stop-color="#FFCC92"/>
<stop offset="1" stop-color="#F79748"/>
</linearGradient>
<linearGradient id="paint25_linear_52_7228" x1="57.2497" y1="53.0123" x2="62.4014" y2="53.1086" gradientUnits="userSpaceOnUse">
<stop stop-color="#98C5FF"/>
<stop offset="1" stop-color="#3580E4"/>
</linearGradient>
<linearGradient id="paint26_linear_52_7228" x1="60.8895" y1="50.1844" x2="64.495" y2="53.0388" gradientUnits="userSpaceOnUse">
<stop offset="0.0083" stop-color="#009EFE"/>
<stop offset="1" stop-color="#005DFA"/>
</linearGradient>
<linearGradient id="paint27_linear_52_7228" x1="71.5399" y1="48.709" x2="70.6826" y2="57.1231" gradientUnits="userSpaceOnUse">
<stop stop-color="#FFE5CF"/>
<stop offset="1" stop-color="#FFAE6C"/>
</linearGradient>
<linearGradient id="paint28_linear_52_7228" x1="61.9351" y1="47.8989" x2="61.7179" y2="55.712" gradientUnits="userSpaceOnUse">
<stop stop-color="#FFE5CF"/>
<stop offset="1" stop-color="#FFAE6C"/>
</linearGradient>
<radialGradient id="paint29_radial_52_7228" cx="0" cy="0" r="1" gradientUnits="userSpaceOnUse" gradientTransform="translate(5.6377 -1.10297) scale(8.78593 6.08524)">
<stop stop-color="#00BEDE"/>
<stop offset="0.9965" stop-color="#4A8BFD"/>
</radialGradient>
<linearGradient id="paint30_linear_52_7228" x1="57.426" y1="63.7524" x2="56.6052" y2="68.1412" gradientUnits="userSpaceOnUse">
<stop stop-color="#00BEDE"/>
<stop offset="0.9965" stop-color="#4A8BFD"/>
</linearGradient>
<linearGradient id="paint31_linear_52_7228" x1="54.8059" y1="60.8837" x2="54.1565" y2="62.3698" gradientUnits="userSpaceOnUse">
<stop offset="0.1011" stop-color="#FFE494"/>
<stop offset="1" stop-color="#FFAE00"/>
</linearGradient>
<linearGradient id="paint32_linear_52_7228" x1="54.5398" y1="60.9854" x2="54.454" y2="61.2598" gradientUnits="userSpaceOnUse">
<stop offset="0.1011" stop-color="#FFE494"/>
<stop offset="1" stop-color="#FFAE00"/>
</linearGradient>
<linearGradient id="paint33_linear_52_7228" x1="-6.27857" y1="-2.40427" x2="-6.24552" y2="1.22904" gradientUnits="userSpaceOnUse">
<stop offset="0.1011" stop-color="#FFE494"/>
<stop offset="1" stop-color="#FFAE00"/>
</linearGradient>
<linearGradient id="paint34_linear_52_7228" x1="100.557" y1="57.391" x2="101.106" y2="58.4007" gradientUnits="userSpaceOnUse">
<stop stop-color="#A7F6FF"/>
<stop offset="1" stop-color="#34A595"/>
</linearGradient>
<linearGradient id="paint35_linear_52_7228" x1="-2.00944" y1="9.24065" x2="1.45596" y2="9.37495" gradientUnits="userSpaceOnUse">
<stop offset="0.0083" stop-color="#00CAFE"/>
<stop offset="1" stop-color="#0088FA"/>
</linearGradient>
<linearGradient id="paint36_linear_52_7228" x1="107.698" y1="55.1207" x2="107.255" y2="57.0716" gradientUnits="userSpaceOnUse">
<stop offset="0.0083" stop-color="#00CAFE"/>
<stop offset="1" stop-color="#0088FA"/>
</linearGradient>
<linearGradient id="paint37_linear_52_7228" x1="103.25" y1="25.2409" x2="138.059" y2="40.7991" gradientUnits="userSpaceOnUse">
<stop stop-color="#A7F6FF"/>
<stop offset="1" stop-color="#34A595"/>
</linearGradient>
<linearGradient id="paint38_linear_52_7228" x1="110.758" y1="51.3685" x2="111.08" y2="57.3273" gradientUnits="userSpaceOnUse">
<stop offset="0.1023" stop-color="#915758"/>
<stop offset="0.8855" stop-color="#2C090B"/>
</linearGradient>
<linearGradient id="paint39_linear_52_7228" x1="0" y1="4.3301" x2="4.0611" y2="4.3301" gradientUnits="userSpaceOnUse">
<stop stop-color="#98C5FF"/>
<stop offset="1" stop-color="#3580E4"/>
</linearGradient>
<linearGradient id="paint40_linear_52_7228" x1="-0.772123" y1="9.84346" x2="-0.585573" y2="9.84089" gradientUnits="userSpaceOnUse">
<stop stop-color="#98C5FF"/>
<stop offset="1" stop-color="#3580E4"/>
</linearGradient>
<linearGradient id="paint41_linear_52_7228" x1="106.405" y1="67.7655" x2="106.219" y2="67.7629" gradientUnits="userSpaceOnUse">
<stop stop-color="#98C5FF"/>
<stop offset="1" stop-color="#3580E4"/>
</linearGradient>
<linearGradient id="paint42_linear_52_7228" x1="-0.805912" y1="10.0462" x2="-0.619365" y2="10.0436" gradientUnits="userSpaceOnUse">
<stop stop-color="#98C5FF"/>
<stop offset="1" stop-color="#3580E4"/>
</linearGradient>
<linearGradient id="paint43_linear_52_7228" x1="-0.847976" y1="10.2986" x2="-0.66143" y2="10.296" gradientUnits="userSpaceOnUse">
<stop stop-color="#98C5FF"/>
<stop offset="1" stop-color="#3580E4"/>
</linearGradient>
<linearGradient id="paint44_linear_52_7228" x1="110.028" y1="81.2817" x2="99.6114" y2="81.2817" gradientUnits="userSpaceOnUse">
<stop stop-color="#98C5FF"/>
<stop offset="1" stop-color="#3580E4"/>
</linearGradient>
<linearGradient id="paint45_linear_52_7228" x1="106.919" y1="76.1299" x2="102.751" y2="76.1299" gradientUnits="userSpaceOnUse">
<stop stop-color="#FFADA9"/>
<stop offset="1" stop-color="#FF6559"/>
</linearGradient>
</defs>
</svg>
