<svg xmlns="http://www.w3.org/2000/svg" fill="none" viewBox="0 0 111 82" xmlns:xlink="http://www.w3.org/1999/xlink"><path fill="url(#a)" d="M6.974 82C-3.91 33.957 6.808-6 32.844-6c26.035 0 73.733 38.02 78.012 88z" opacity=".2"/><path fill="url(#b)" d="M98.187 63.898h-27.87a2.474 2.474 0 0 1-2.47-2.6l2.051-40.646a2.474 2.474 0 0 1 2.471-2.35h23.766a2.474 2.474 0 0 1 2.471 2.35l2.052 40.646a2.476 2.476 0 0 1-2.471 2.6"/><mask id="c" width="34" height="46" x="67" y="18" maskUnits="userSpaceOnUse" style="mask-type:luminance"><path fill="#fff" fill-rule="evenodd" d="M98.187 63.898h-27.87a2.474 2.474 0 0 1-2.47-2.6l2.051-40.646a2.474 2.474 0 0 1 2.471-2.35h23.766a2.474 2.474 0 0 1 2.471 2.35l2.052 40.646a2.476 2.476 0 0 1-2.471 2.6" clip-rule="evenodd"/></mask><g mask="url(#c)"><path fill="url(#d)" d="m77.464 17.807 1.452 1.958h10.676L91.42 17.7z"/><path fill="url(#e)" d="M60.925 62.82c4.778-5.602 12.811-.317 27.504 0s11.448-16.794 11.448-16.794l3.245 14.809s-.317 4.416-.634 5.262-28.79 4.017-28.79 4.017l-10.215-3.911"/></g><path fill="#77aff6" fill-rule="evenodd" d="M89.292 16.652a.98.98 0 0 0-.692-.287h-1.166v-1.621a.66.66 0 0 0-.66-.66h-5.066a.66.66 0 0 0-.66.66v1.621h-1.167a.98.98 0 0 0-.978.98v2.214h10.676v-2.215a.98.98 0 0 0-.287-.692m-4.605-1.048a1.005 1.005 0 1 1-.889 1.8 1.005 1.005 0 0 1 .889-1.8" clip-rule="evenodd"/><path fill="url(#f)" d="M94.793 55.018c-3.114 2.681-5.145 5.813-5.145 5.813H69.915l2.013-39.884h24.905l1.336 30.681s-.827 1.194-3.376 3.39"/><path fill="url(#g)" d="M90.222 51.584c1.71 6.01.485 7.103-.574 9.252 0 0 3.859-3.64 8.52-9.203 0 0-3.359 1.104-7.946-.049"/><path fill="#fff" d="M77.456 28.674c-.038.713-.711 1.297-1.504 1.297-.792 0-1.39-.584-1.336-1.297.053-.705.726-1.27 1.502-1.27.777 0 1.376.565 1.338 1.27m16.014-.231H79.177c-.252 0-.448-.184-.438-.41s.22-.407.47-.407h14.202c.25 0 .466.182.483.407.018.226-.172.41-.424.41m-4.424 1.287h-9.918c-.254 0-.452-.188-.442-.418s.223-.416.475-.416h9.854c.252 0 .465.186.474.416.01.23-.19.418-.443.418m-11.895 4.673c-.041.779-.747 1.416-1.575 1.416s-1.451-.638-1.392-1.416c.058-.77.762-1.387 1.573-1.387s1.435.617 1.394 1.387m16.727-.248H78.945c-.263 0-.468-.2-.457-.447.01-.246.231-.444.492-.444h14.834c.26 0 .488.198.506.444.019.247-.18.447-.442.447m-4.628 1.402H78.881c-.266 0-.472-.205-.46-.457a.49.49 0 0 1 .497-.453h10.296a.49.49 0 0 1 .497.453.45.45 0 0 1-.463.457M76.804 40.67c-.046.853-.787 1.553-1.654 1.553-.868 0-1.519-.7-1.454-1.554.064-.843.803-1.52 1.652-1.52s1.5.677 1.456 1.52m17.519-.265H78.69a.47.47 0 0 1-.477-.49.517.517 0 0 1 .516-.487h15.525a.54.54 0 0 1 .531.486.45.45 0 0 1-.46.49m-4.835 1.534H78.63a.48.48 0 0 1-.482-.501.526.526 0 0 1 .522-.498h10.782c.278.002.506.22.52.498a.48.48 0 0 1-.483.5m-12.685 4.852c-.046.853-.787 1.553-1.654 1.553-.868 0-1.519-.7-1.454-1.553.064-.844.803-1.52 1.652-1.52s1.5.676 1.456 1.52m17.519-.278H78.69a.47.47 0 0 1-.477-.49.517.517 0 0 1 .516-.486h15.525a.54.54 0 0 1 .531.487.45.45 0 0 1-.46.49m-4.835 1.543H78.63a.48.48 0 0 1-.482-.5.526.526 0 0 1 .522-.498h10.782c.278.001.506.22.52.497a.48.48 0 0 1-.483.501"/><path fill="url(#h)" d="M31.415 34.601a8.405 8.405 0 0 1-8.452 8.357 8.4 8.4 0 0 1-2.621-.438l-5.303 1.603a.715.715 0 0 1-.855-.985l1.825-3.933A8.405 8.405 0 1 1 31.415 34.6"/><path fill="url(#i)" d="M28.228 20.719a7.585 7.585 0 0 1 7.541 7.627 7.6 7.6 0 0 1-.395 2.365l1.447 4.785a.645.645 0 0 1-.89.773l-3.549-1.648a7.585 7.585 0 1 1-4.154-13.902"/><path fill="url(#j)" d="M84.786 75.048 83.51 54.404l-3.03-4.906s-7.137-1.666-26.566-1.686a7.06 7.06 0 0 0-6.709 4.862l-9.22 28.08 45.215.852z"/><mask id="k" width="48" height="35" x="37" y="47" maskUnits="userSpaceOnUse" style="mask-type:luminance"><path fill="#fff" fill-rule="evenodd" d="M84.786 75.048 83.51 54.404l-3.03-4.906s-7.137-1.666-26.566-1.686a7.06 7.06 0 0 0-6.709 4.862l-9.22 28.08 45.215.852z" clip-rule="evenodd"/></mask><g mask="url(#k)"><path fill="url(#l)" d="M76.284 58.77c8.17 18.959-22.369 9.123-17.37 19.514 4.804 9.987 40.77 2.137 40.77 2.137L87.31 59.722"/><path fill="url(#m)" d="M49.434 62.918c-7.826 16.545 5.391 14.171 5.391 14.171l-8.276 8.808-16.024-4.287 1.11-14.82 17.8-8.339"/></g><path fill="url(#n)" d="m54.825 54.785-6.072-4.73-29.331 31.552 13.485-1.443 17.875-17.86z"/><path fill="url(#o)" d="M66.925 73.758h-.714c-2.708 0-11.898.857-12.295.933-4.125.794-9.44 5.352-10.074 5.611l23.975-.17"/><mask id="p" width="25" height="8" x="43" y="73" maskUnits="userSpaceOnUse" style="mask-type:luminance"><path fill="#fff" fill-rule="evenodd" d="M66.925 73.758h-.714c-2.708 0-11.898.857-12.295.933-4.125.794-9.44 5.352-10.074 5.611l23.975-.17" clip-rule="evenodd"/></mask><g mask="url(#p)"><path fill="url(#q)" d="M61.562 72.718c1.937 6.477.676 5.28-3.537 6.477-15.723 4.465 7.702 3.7 8.758 3.284l3.284-4.379-5.16-4.449" opacity=".34"/></g><path fill="url(#r)" d="M61.538 71.887c-.294 2.012 2.879 9.727 2.879 9.727h29.331a8.256 8.256 0 0 0 5.202-14.669s-15.877-17.462-18.48-17.44c-2.602.024-4.183 9.266-4.183 9.266l6.721 13.617z"/><path fill="url(#s)" d="M72.456 79.224H44.479v2.383h28.08v-2.28a.103.103 0 0 0-.103-.103"/><path fill="url(#t)" d="M11.934 81.61h38.524L39.527 56.238a1.61 1.61 0 0 0-1.48-.974H1.895a.863.863 0 0 0-.793 1.204z"/><path fill="url(#u)" d="M10.903 81.61h38.524L38.495 56.238a1.61 1.61 0 0 0-1.48-.974H.864a.863.863 0 0 0-.793 1.204z"/><mask id="v" width="50" height="27" x="0" y="55" maskUnits="userSpaceOnUse" style="mask-type:luminance"><path fill="#fff" fill-rule="evenodd" d="M10.903 81.61h38.524L38.495 56.238a1.61 1.61 0 0 0-1.48-.974H.864a.863.863 0 0 0-.793 1.204z" clip-rule="evenodd"/></mask><g mask="url(#v)"><path fill="url(#w)" d="M-1.102 52.919c13.137 38.316 58.52 31.544 58.52 31.544L-.007 94.52-12.05 71.53l3.284-18.611"/></g><ellipse cx="3.562" cy="2.338" fill="url(#x)" rx="3.562" ry="2.338" transform="rotate(30.388 -111.224 87.05)scale(-1 1)"/><path fill="url(#y)" d="M70.177 49.179 62.016 28.82h-9.87L51.06 41.226l6.972.905.882 11.721z"/><mask id="z" width="20" height="26" x="51" y="28" maskUnits="userSpaceOnUse" style="mask-type:luminance"><path fill="#fff" fill-rule="evenodd" d="M70.177 49.179 62.016 28.82h-9.87L51.06 41.226l6.972.905.882 11.721z" clip-rule="evenodd"/></mask><g mask="url(#z)"><path fill="url(#A)" d="M60.737 38.335c-1.862 2.723 3.84 7.141-3.3 8.426-7.142 1.284-1.388-8.862-1.388-8.862l2.875-1.208" opacity=".34"/></g><path fill="url(#B)" d="M58.432 33.522c7.605 16.962-10.63 12.581-7.035 3.937 7.155 2.34 5.405-3.937 5.405-3.937s-3.32-1.267-2.113-3.803c0 0-2.52-1.085-2.662.548-2.891-3.143-.718-6.644 6.103-4.773s8.934 12.978 8.934 12.978-3.683 6.036-8.632-4.95"/><path fill="url(#C)" d="M58.917 34.68c3.916-3.686 5.524 1.577 1.384 5.918z"/><path fill="url(#D)" d="m60.165 50.544-3.716-.49.601 11.086 5.353.992 6.117-8.533.02-2.977-3.875.333-2.056-.17h-1.665"/><path fill="url(#E)" d="m61.165 52.512-4.367 8.506.068 7.68 2.208-.853 3.13-7.024.8-8.857z"/><path fill="url(#F)" d="m60.173 50.65.501 1.872c.123.459.535.756 1.087.782l.445.022c.545.026 1.147-.216 1.594-.64l1.615-1.533-2.155-.322z"/><path fill="url(#G)" d="M70.46 48.963s-.764-1.92-1.24-1.947c0 0-2.912 2.852-6.094 3.816l2.041 2.976s5.485-2.947 5.294-4.845"/><path fill="#fff" d="M69.962 47.831 56.946 69.814l11.92-9.637-1.632-2.84L70.55 56.1l.62-6.225s.427-1.396-1.207-2.044"/><path fill="url(#H)" d="M57.61 48.168s.307-1.218.782-1.24c0 0 1.221 2.854 3.05 3.8l-1.473 2.574s-3.74-3.183-2.36-5.134"/><rect width="6.311" height="4.371" fill="url(#I)" rx=".028" transform="rotate(-168.187 31.565 28.484)scale(1 -1)"/><mask id="J" width="8" height="7" x="49" y="61" maskUnits="userSpaceOnUse" style="mask-type:luminance"><rect width="6.311" height="4.371" fill="#fff" rx=".028" transform="rotate(-168.187 31.565 28.484)scale(1 -1)"/></mask><g mask="url(#J)"><path fill="url(#K)" d="M56.085 66.943c-6.008-1.017-6.25-.913-6.076-3.264s-1.487 1.922-1.487 1.922l1.332 1.37 6.346.733"/></g><g fill="#fff" opacity=".46"><ellipse cx=".907" cy=".979" rx=".907" ry=".979" transform="rotate(-168.187 31.165 28.974)scale(1 -1)"/><path d="m53.333 63.267-2.426-.508-.05.234 2.427.508zm-.156.797-2.427-.508-.049.234 2.427.507zm-.172.8-1.773-.37-.049.234 1.773.37z"/></g><path fill="url(#L)" d="m54.58 60.8-1.428-.299a.04.04 0 0 0-.046.03l-.312 1.492 1.504.315.312-1.492a.04.04 0 0 0-.03-.046"/><mask id="M" width="3" height="3" x="52" y="60" maskUnits="userSpaceOnUse" style="mask-type:luminance"><path fill="#fff" fill-rule="evenodd" d="m54.58 60.8-1.428-.299a.04.04 0 0 0-.046.03l-.312 1.492 1.504.315.312-1.492a.04.04 0 0 0-.03-.046" clip-rule="evenodd"/></mask><g mask="url(#M)"><path fill="url(#N)" d="M52.818 61.29c.072.57 1.577.684 1.682.872.104.189-.457.347-.457.347l-1.49-.312.164-.722"/></g><path fill="url(#O)" d="M0 0h3.639v.865H0z" transform="rotate(-168.187 30.912 28.304)scale(1 -1)"/><path fill="#fff" d="M57.841 47.504s-.32 18.32.386 20.27l-1.286 2.035-3.598-11.118 2.027-2.047-2.813-.764 3.872-7.229s.105-1.034 1.412-1.147"/><circle cx="1.039" cy="1.039" r="1.039" fill="#fff" transform="matrix(-1 0 0 1 57.263 71.162)"/><path fill="url(#P)" d="M100.375 57.016s.786.943.786 1.375a.786.786 0 0 1-1.571 0c0-.432.785-1.375.785-1.375"/><path fill="url(#Q)" d="M0 0h.765v4.492H0z" transform="matrix(-1 0 0 1 105.22 55.152)"/><mask id="R" width="2" height="5" x="104" y="55" maskUnits="userSpaceOnUse" style="mask-type:luminance"><path fill="#fff" d="M105.22 55.152h-.765v4.492h.765z"/></mask><g mask="url(#R)"><path fill="url(#S)" d="M106.677 56.133c-1.72.534-1.964-.202-2.668-.316s1.067-1.053 1.067-1.053l.949.598"/></g><path fill="url(#T)" d="M100.848 62.785h2.311v-4.718a.63.63 0 0 1 .631-.63h2.09a.63.63 0 0 1 .631.63v4.718h2.311a1.797 1.797 0 0 1 1.796 1.797v15.372a1.796 1.796 0 0 1-1.796 1.796h-7.974a1.796 1.796 0 0 1-1.796-1.796V64.582c0-.992.804-1.797 1.796-1.797"/><mask id="U" width="12" height="25" x="99" y="57" maskUnits="userSpaceOnUse" style="mask-type:luminance"><path fill="#fff" fill-rule="evenodd" d="M100.848 62.785h2.311v-4.718a.63.63 0 0 1 .631-.63h2.09a.63.63 0 0 1 .631.63v4.718h2.311a1.797 1.797 0 0 1 1.796 1.797v15.372a1.796 1.796 0 0 1-1.796 1.796h-7.974a1.796 1.796 0 0 1-1.796-1.796V64.582c0-.992.804-1.797 1.796-1.797" clip-rule="evenodd"/></mask><g fill="#fff" mask="url(#U)"><path d="M111.478 70.809c-3.261 11.862-12.808 10.94-12.808 10.94l14.112 2.226-.889-10.435-.237-2.194M96.312 69.59c3.121-7.556 12.533-7.087 12.533-7.087l-13.92-1.24.957 6.601.251 1.387" opacity=".15"/></g><path fill="url(#V)" d="M100.374 53.709v.014c0 .574.341 1.04.761 1.04h1.481c.38 0 .688.42.688.94 0 .062.037.113.083.113h2.952c.046 0 .084-.05.084-.114v-1.337c0-.362-.215-.656-.481-.656z"/><path fill="#fff" d="M105.204 59.647h-.737v17.545h.737z" opacity=".39"/><rect width="4.061" height="4.33" fill="url(#W)" rx=".343" transform="matrix(-1 0 0 1 106.872 58.237)"/><mask id="X" width="5" height="5" x="102" y="58" maskUnits="userSpaceOnUse" style="mask-type:luminance"><rect width="4.061" height="4.33" fill="#fff" rx=".343" transform="matrix(-1 0 0 1 106.872 58.237)"/></mask><g mask="url(#X)"><path fill="url(#Y)" d="M0 0h.243v5.071H0z" opacity=".33" transform="matrix(-1 0 0 1 106.317 57.808)"/><path fill="url(#Z)" d="M105.371 62.879h.243v-5.071h-.243" opacity=".33"/><path fill="url(#aa)" d="M0 0h.243v5.071H0z" opacity=".33" transform="matrix(-1 0 0 1 105.06 57.808)"/><path fill="url(#ab)" d="M0 0h.243v5.071H0z" opacity=".33" transform="matrix(-1 0 0 1 103.521 57.808)"/></g><path fill="url(#ac)" d="M110.028 69.35H99.611v9.706a2.227 2.227 0 0 0 2.226 2.226h5.965c1.23 0 2.226-.997 2.226-2.226z" opacity=".82"/><rect width="6.484" height="6.484" fill="#fff" rx=".5" transform="matrix(-1 0 0 1 108.075 70.809)"/><path fill="url(#ad)" d="M102.751 73.575h1.613v-1.613h.941v1.613h1.614v.941h-1.614v1.614h-.941v-1.614h-1.613z"/><defs><linearGradient id="a" x1="164.198" x2="149.919" y1="-12.273" y2="145.116" gradientUnits="userSpaceOnUse"><stop stop-color="#a7f6ff"/><stop offset="1" stop-color="#34a595"/></linearGradient><linearGradient id="b" x1="69.93" x2="73.001" y1="60.984" y2="21.377" gradientUnits="userSpaceOnUse"><stop stop-color="#ffada9"/><stop offset="1" stop-color="#ff6559"/></linearGradient><linearGradient id="d" x1="63.717" x2="63.725" y1="21.886" y2="15.83" gradientUnits="userSpaceOnUse"><stop offset=".101" stop-color="#ff5d37"/><stop offset=".885" stop-color="#ff9346"/></linearGradient><linearGradient id="e" x1="40.519" x2="38.928" y1="45.759" y2="81.421" gradientUnits="userSpaceOnUse"><stop stop-color="#ffada9"/><stop offset="1" stop-color="#ff6559"/></linearGradient><linearGradient id="f" x1="49.774" x2="88.434" y1="52.062" y2="13.259" gradientUnits="userSpaceOnUse"><stop offset=".102" stop-color="#dcdff8"/><stop offset=".885" stop-color="#f5f7fe"/></linearGradient><linearGradient id="g" x1="-9.858" x2="-5.4" y1="57.401" y2="51.729" gradientUnits="userSpaceOnUse"><stop offset=".102" stop-color="#dcdff8"/><stop offset=".885" stop-color="#f5f7fe"/></linearGradient><linearGradient id="h" x1=".217" x2="18.716" y1="36.691" y2="24.993" gradientUnits="userSpaceOnUse"><stop offset=".487" stop-color="#77c1bc"/><stop offset="1" stop-color="#34a595"/></linearGradient><linearGradient id="i" x1="36.85" x2="12.19" y1="40.37" y2="40.37" gradientUnits="userSpaceOnUse"><stop stop-color="#ffcc92"/><stop offset="1" stop-color="#f79748"/></linearGradient><linearGradient id="j" x1="103.712" x2="116.854" y1="13.346" y2="96.942" gradientUnits="userSpaceOnUse"><stop offset=".102" stop-color="#fff"/><stop offset=".885" stop-color="#e3ebfd"/></linearGradient><linearGradient id="l" x1="89.984" x2="88.967" y1="90.143" y2="87.087" gradientUnits="userSpaceOnUse"><stop offset=".102" stop-color="#fff"/><stop offset=".885" stop-color="#cddefd"/></linearGradient><linearGradient id="m" x1="69.053" x2="67.347" y1="62.474" y2="63.143" gradientUnits="userSpaceOnUse"><stop offset=".102" stop-color="#fff"/><stop offset=".885" stop-color="#cddefd"/></linearGradient><linearGradient id="n" x1="71.138" x2="91" y1="17.842" y2="100.777" gradientUnits="userSpaceOnUse"><stop offset=".102" stop-color="#fff"/><stop offset=".885" stop-color="#e3ebfd"/></linearGradient><linearGradient id="o" x1="67.817" x2="43.56" y1="80.398" y2="80.398" gradientUnits="userSpaceOnUse"><stop offset=".102" stop-color="#fcadba"/><stop offset=".885" stop-color="#fbdad9"/></linearGradient><linearGradient id="q" x1="70.067" x2="52.612" y1="82.805" y2="82.805" gradientUnits="userSpaceOnUse"><stop offset=".101" stop-color="#ff7638"/><stop offset=".885" stop-color="#ff3929"/></linearGradient><linearGradient id="r" x1="118.81" x2="135.809" y1="1.356" y2="90.999" gradientUnits="userSpaceOnUse"><stop offset=".102" stop-color="#fff"/><stop offset=".885" stop-color="#e3ebfd"/></linearGradient><linearGradient id="s" x1="72.56" x2="44.479" y1="81.607" y2="81.607" gradientUnits="userSpaceOnUse"><stop stop-color="#98c5ff"/><stop offset="1" stop-color="#3580e4"/></linearGradient><linearGradient id="t" x1="50.458" x2="1.031" y1="81.61" y2="81.61" gradientUnits="userSpaceOnUse"><stop stop-color="#98c5ff"/><stop offset="1" stop-color="#3580e4"/></linearGradient><linearGradient id="u" x1="49.427" x2="0" y1="81.61" y2="81.61" gradientUnits="userSpaceOnUse"><stop stop-color="#98c5ff"/><stop offset="1" stop-color="#3580e4"/></linearGradient><linearGradient id="w" x1="57.419" x2="-12.05" y1="94.52" y2="94.52" gradientUnits="userSpaceOnUse"><stop stop-color="#98c5ff"/><stop offset="1" stop-color="#3580e4"/></linearGradient><linearGradient id="x" x1="-1.817" x2="1.765" y1="2.537" y2="7.412" gradientUnits="userSpaceOnUse"><stop stop-color="#98c5ff"/><stop offset="1" stop-color="#3580e4"/></linearGradient><linearGradient id="y" x1="70.177" x2="51.06" y1="53.852" y2="53.852" gradientUnits="userSpaceOnUse"><stop offset=".102" stop-color="#fcadba"/><stop offset=".885" stop-color="#fbdad9"/></linearGradient><linearGradient id="A" x1="61.149" x2="53.858" y1="46.873" y2="46.873" gradientUnits="userSpaceOnUse"><stop offset=".101" stop-color="#ff7638"/><stop offset=".885" stop-color="#ff3929"/></linearGradient><linearGradient id="B" x1="67.064" x2="50.779" y1="45.093" y2="45.093" gradientUnits="userSpaceOnUse"><stop offset=".102" stop-color="#915758"/><stop offset=".885" stop-color="#2c090b"/></linearGradient><linearGradient id="C" x1="62.731" x2="58.916" y1="40.598" y2="40.598" gradientUnits="userSpaceOnUse"><stop offset=".102" stop-color="#fcadba"/><stop offset=".885" stop-color="#fbdad9"/></linearGradient><linearGradient id="D" x1="55.433" x2="56.456" y1="68.074" y2="64.94" gradientUnits="userSpaceOnUse"><stop stop-color="#ffcc92"/><stop offset="1" stop-color="#f79748"/></linearGradient><linearGradient id="E" x1="57.25" x2="62.401" y1="53.012" y2="53.109" gradientUnits="userSpaceOnUse"><stop stop-color="#98c5ff"/><stop offset="1" stop-color="#3580e4"/></linearGradient><linearGradient id="F" x1="60.889" x2="64.495" y1="50.184" y2="53.039" gradientUnits="userSpaceOnUse"><stop offset=".008" stop-color="#009efe"/><stop offset="1" stop-color="#005dfa"/></linearGradient><linearGradient id="G" x1="71.54" x2="70.683" y1="48.709" y2="57.123" gradientUnits="userSpaceOnUse"><stop stop-color="#ffe5cf"/><stop offset="1" stop-color="#ffae6c"/></linearGradient><linearGradient id="H" x1="61.935" x2="61.718" y1="47.899" y2="55.712" gradientUnits="userSpaceOnUse"><stop stop-color="#ffe5cf"/><stop offset="1" stop-color="#ffae6c"/></linearGradient><linearGradient id="K" x1="57.426" x2="56.605" y1="63.752" y2="68.141" gradientUnits="userSpaceOnUse"><stop stop-color="#00bede"/><stop offset=".997" stop-color="#4a8bfd"/></linearGradient><linearGradient id="L" x1="54.806" x2="54.157" y1="60.884" y2="62.37" gradientUnits="userSpaceOnUse"><stop offset=".101" stop-color="#ffe494"/><stop offset="1" stop-color="#ffae00"/></linearGradient><linearGradient id="N" x1="54.54" x2="54.454" y1="60.985" y2="61.26" gradientUnits="userSpaceOnUse"><stop offset=".101" stop-color="#ffe494"/><stop offset="1" stop-color="#ffae00"/></linearGradient><linearGradient id="O" x1="-6.279" x2="-6.246" y1="-2.404" y2="1.229" gradientUnits="userSpaceOnUse"><stop offset=".101" stop-color="#ffe494"/><stop offset="1" stop-color="#ffae00"/></linearGradient><linearGradient id="P" x1="100.557" x2="101.106" y1="57.391" y2="58.401" gradientUnits="userSpaceOnUse"><stop stop-color="#a7f6ff"/><stop offset="1" stop-color="#34a595"/></linearGradient><linearGradient id="Q" x1="-2.009" x2="1.456" y1="9.241" y2="9.375" gradientUnits="userSpaceOnUse"><stop offset=".008" stop-color="#00cafe"/><stop offset="1" stop-color="#0088fa"/></linearGradient><linearGradient id="S" x1="107.698" x2="107.255" y1="55.121" y2="57.072" gradientUnits="userSpaceOnUse"><stop offset=".008" stop-color="#00cafe"/><stop offset="1" stop-color="#0088fa"/></linearGradient><linearGradient id="T" x1="103.25" x2="138.059" y1="25.241" y2="40.799" gradientUnits="userSpaceOnUse"><stop stop-color="#a7f6ff"/><stop offset="1" stop-color="#34a595"/></linearGradient><linearGradient id="V" x1="110.758" x2="111.08" y1="51.368" y2="57.327" gradientUnits="userSpaceOnUse"><stop offset=".102" stop-color="#915758"/><stop offset=".885" stop-color="#2c090b"/></linearGradient><linearGradient id="W" x1="0" x2="4.061" y1="4.33" y2="4.33" gradientUnits="userSpaceOnUse"><stop stop-color="#98c5ff"/><stop offset="1" stop-color="#3580e4"/></linearGradient><linearGradient id="Y" x1="-.772" x2="-.586" y1="9.843" y2="9.841" gradientUnits="userSpaceOnUse"><stop stop-color="#98c5ff"/><stop offset="1" stop-color="#3580e4"/></linearGradient><linearGradient id="Z" x1="106.405" x2="106.219" y1="67.766" y2="67.763" gradientUnits="userSpaceOnUse"><stop stop-color="#98c5ff"/><stop offset="1" stop-color="#3580e4"/></linearGradient><linearGradient id="aa" x1="-.806" x2="-.619" y1="10.046" y2="10.044" gradientUnits="userSpaceOnUse"><stop stop-color="#98c5ff"/><stop offset="1" stop-color="#3580e4"/></linearGradient><linearGradient id="ab" x1="-.848" x2="-.661" y1="10.299" y2="10.296" gradientUnits="userSpaceOnUse"><stop stop-color="#98c5ff"/><stop offset="1" stop-color="#3580e4"/></linearGradient><linearGradient id="ac" x1="110.028" x2="99.611" y1="81.282" y2="81.282" gradientUnits="userSpaceOnUse"><stop stop-color="#98c5ff"/><stop offset="1" stop-color="#3580e4"/></linearGradient><linearGradient id="ad" x1="106.919" x2="102.751" y1="76.13" y2="76.13" gradientUnits="userSpaceOnUse"><stop stop-color="#ffada9"/><stop offset="1" stop-color="#ff6559"/></linearGradient><radialGradient id="I" cx="0" cy="0" r="1" gradientTransform="matrix(8.78593 0 0 6.08524 5.638 -1.103)" gradientUnits="userSpaceOnUse"><stop stop-color="#00bede"/><stop offset=".997" stop-color="#4a8bfd"/></radialGradient></defs></svg>