<svg xmlns="http://www.w3.org/2000/svg" fill="none" viewBox="0 0 208 138" xmlns:xlink="http://www.w3.org/1999/xlink"><g clip-path="url(#a)"><rect width="200" height="130" x="4" y="4" fill="#fff" rx="8"/><path fill="#057bf4" d="M40.535 94.964C31.471 62.336 50.86 35.886 83.843 35.886s67.069 26.45 76.133 59.078c4.365 15.711 2.13 29.987-5.04 40.57H68.117c-13.05-10.583-23.217-24.859-27.582-40.57" opacity=".19"/><g opacity=".35"><path fill="url(#b)" d="M0 0h1.591v4.166H0z" transform="matrix(-1 0 0 1 150.317 51.382)"/><path fill="url(#c)" d="M0 0h1.591v4.166H0z" transform="rotate(225 86.265 13.593)scale(-1 1)"/><path fill="url(#d)" d="M0 0h1.795v4.698H0z" transform="rotate(109.937 43.572 78.067)scale(1 -1)"/><path fill="url(#e)" d="M0 0h1.952v5.109H0z" transform="rotate(148.294 66.708 66.216)scale(-1 1)"/><path fill="url(#f)" d="M0 0h.868v2.271H0z" transform="rotate(63.765 4.736 145.56)scale(1 -1)"/><path fill="url(#g)" d="M0 0h.868v2.271H0z" transform="rotate(142.333 59.425 52.147)scale(1 -1)"/><path fill="url(#h)" d="M0 0h.868v2.271H0z" transform="rotate(-143.794 89.387 2.385)scale(1 -1)"/><path fill="url(#i)" d="M160.261 56.162a.626.626 0 0 0-.873.135l-.048.065a.625.625 0 0 0 1.008.738l.048-.065a.625.625 0 0 0-.135-.873"/><path fill="url(#j)" d="M0 0h.868v2.271H0z" transform="rotate(126.915 62.192 80.843)scale(-1 1)"/><path fill="url(#k)" d="M0 0h1.795v4.698H0z" transform="rotate(81.61 44.9 131.289)scale(-1 1)"/><path fill="url(#l)" d="m170.68 66.565-.034-.232a2.193 2.193 0 0 0-4.339.64l.034.232a2.194 2.194 0 0 0 4.339-.64"/><circle cx="15.319" cy="15.319" r="15.319" fill="url(#m)" transform="matrix(-1 0 0 1 164.84 55.14)"/><mask id="n" width="31" height="31" x="134" y="55" maskUnits="userSpaceOnUse" style="mask-type:luminance"><circle cx="15.319" cy="15.319" r="15.319" fill="#fff" transform="matrix(-1 0 0 1 164.841 55.14)"/></mask><g mask="url(#n)"><path fill="url(#o)" d="M147.108 53.629c-20.49 22.556-9.037 31.808 4.826 32.15s-11.689 10.279-11.689 10.279l-8.233-25.836 2.271-16.466"/></g><circle cx="3.418" cy="3.418" r="3.418" fill="url(#p)" transform="matrix(-1 0 0 1 160.222 63.353)"/><circle cx="3.418" cy="3.418" r="3.418" fill="url(#q)" transform="matrix(-1 0 0 1 147.467 59.212)"/><circle cx="3.418" cy="3.418" r="3.418" fill="url(#r)" transform="matrix(-1 0 0 1 148.725 74.781)"/><circle cx="1.17" cy="1.17" r="1.17" fill="url(#s)" transform="matrix(-1 0 0 1 161.206 55.3)"/><circle cx="1.17" cy="1.17" r="1.17" fill="url(#t)" transform="matrix(-1 0 0 1 139.04 56.056)"/><circle cx="1.17" cy="1.17" r="1.17" fill="url(#u)" transform="matrix(-1 0 0 1 165.737 78.25)"/><circle cx="1.17" cy="1.17" r="1.17" fill="url(#v)" transform="matrix(-1 0 0 1 134.239 76.234)"/><circle cx="2.413" cy="2.413" r="2.413" fill="url(#w)" transform="matrix(-1 0 0 1 151.934 48.803)"/><circle cx="2.413" cy="2.413" r="2.413" fill="url(#x)" transform="matrix(-1 0 0 1 133.384 61.815)"/><circle cx="2.85" cy="2.85" r="2.85" fill="url(#y)" transform="matrix(-1 0 0 1 140.188 82.929)"/><circle cx="2.85" cy="2.85" r="2.85" fill="url(#z)" transform="matrix(-1 0 0 1 162.033 84.278)"/></g><path fill="url(#A)" d="m100.52 81.488 2.063-.33c11.935-1.905 19.934-9.051 20.015-9.123l.217-.198h.003a4.485 4.485 0 0 1 5.696.127l.12.112c.179.164 8.114 7.33 19.917 9.075l2.137.316c0 .001-.003.008 0 .008a2.23 2.23 0 0 1 1.673 2.16v14.617c0 12.21-7.239 22.461-24.2 34.27a4.46 4.46 0 0 1-5.095.031l-.022-.016c-16.976-11.817-24.219-22.068-24.219-34.285V83.635a2.22 2.22 0 0 1 1.695-2.147"/><path fill="url(#B)" d="m100.52 83.886 2.063-.33c11.935-1.905 19.934-9.051 20.015-9.123l.217-.198h.003a4.485 4.485 0 0 1 5.696.127l.12.112c.179.164 8.114 7.33 19.917 9.075l2.137.316c0 .001-.003.008 0 .008a2.23 2.23 0 0 1 1.673 2.16v14.617c0 12.21-7.239 22.461-24.2 34.27a4.46 4.46 0 0 1-5.095.031l-.022-.015c-16.976-11.818-24.219-22.069-24.219-34.286V86.033a2.22 2.22 0 0 1 1.695-2.147"/><mask id="C" width="55" height="63" x="98" y="73" maskUnits="userSpaceOnUse" style="mask-type:luminance"><path fill="#fff" fill-rule="evenodd" d="m100.52 83.886 2.063-.33c11.935-1.906 19.934-9.051 20.014-9.123l.218-.198h.003a4.485 4.485 0 0 1 5.696.127l.12.112c.178.163 8.114 7.33 19.916 9.075l2.138.316c0 .001-.003.008 0 .008a2.23 2.23 0 0 1 1.672 2.16v14.617c0 12.21-7.238 22.461-24.199 34.27a4.46 4.46 0 0 1-5.095.031l-.022-.016c-16.976-11.817-24.219-22.069-24.219-34.285V86.033a2.22 2.22 0 0 1 1.695-2.147" clip-rule="evenodd"/></mask><g mask="url(#C)"><path fill="url(#D)" d="M125.593 70.879c24.427 27.487 1.852 60.307-14.462 63.532-16.315 3.225 17.282 7.398 17.282 7.398l29.006-7.209s10.434-49.776 9.295-51.162-22.005-15.425-22.005-15.425l-4.933.76"/><path fill="#fff" d="M98.825 95.802c-1.416 15.718 20.59 37.344 27.988 41.707 7.399 4.363-16.884-4.172-16.884-4.172l-10.054-9.676-6.45-21.553 1.707-1.79" opacity=".12"/></g><path fill="url(#E)" d="m106.55 88.845 1.567-.25c9.065-1.448 15.14-6.875 15.201-6.93l.166-.15h.002a3.41 3.41 0 0 1 4.326.096l.091.085c.136.125 6.163 5.568 15.127 6.893l1.623.24s-.002.006 0 .006a1.696 1.696 0 0 1 1.271 1.64v11.103c0 9.273-5.498 17.059-18.38 26.028a3.39 3.39 0 0 1-3.87.023l-.016-.011c-12.894-8.976-18.395-16.762-18.395-26.04V90.476a1.685 1.685 0 0 1 1.287-1.631"/><mask id="F" width="41" height="49" x="105" y="80" maskUnits="userSpaceOnUse" style="mask-type:luminance"><path fill="#fff" fill-rule="evenodd" d="m106.551 88.845 1.566-.25c9.065-1.448 15.14-6.875 15.202-6.93l.165-.15h.002a3.406 3.406 0 0 1 4.326.096l.091.085c.136.124 6.163 5.568 15.127 6.893l1.623.24s-.002.006 0 .006a1.696 1.696 0 0 1 1.271 1.64v11.102c0 9.274-5.498 17.06-18.38 26.029a3.39 3.39 0 0 1-3.87.023l-.016-.012c-12.894-8.975-18.395-16.761-18.395-26.04V90.476a1.685 1.685 0 0 1 1.288-1.631" clip-rule="evenodd"/></mask><g mask="url(#F)"><path fill="url(#G)" d="m127.13 109.5.571 2.914-14.736 16.748-14.139-15.05 16.932-13.641 9.836 4.035"/></g><path fill="#fff" d="M116.929 99.3h5.386v-5.386a1.17 1.17 0 0 1 1.171-1.17h4.215c.646 0 1.171.524 1.171 1.17V99.3h5.386c.646 0 1.171.525 1.171 1.171v4.215c0 .647-.525 1.171-1.171 1.171h-5.386v5.386c0 .647-.525 1.171-1.171 1.171h-4.215a1.17 1.17 0 0 1-1.171-1.171v-5.386h-5.386a1.17 1.17 0 0 1-1.171-1.171v-4.215c0-.646.524-1.17 1.171-1.17"/><mask id="H" width="21" height="21" x="115" y="92" maskUnits="userSpaceOnUse" style="mask-type:luminance"><path fill="#fff" fill-rule="evenodd" d="M116.929 99.3h5.386v-5.385a1.17 1.17 0 0 1 1.171-1.172h4.215c.646 0 1.171.525 1.171 1.172V99.3h5.386c.646 0 1.171.525 1.171 1.171v4.215c0 .647-.525 1.171-1.171 1.171h-5.386v5.386c0 .647-.525 1.171-1.171 1.171h-4.215a1.17 1.17 0 0 1-1.171-1.171v-5.386h-5.386a1.17 1.17 0 0 1-1.171-1.171v-4.215c0-.646.524-1.17 1.171-1.17" clip-rule="evenodd"/></mask><g mask="url(#H)"><path fill="url(#I)" d="M122.314 93.914c-5.386 11.943 8.23 13.739 8.862 19.055.632 5.317-8.726 8.099-8.726 8.099l-7.842-14.309-2.276-10.17z" opacity=".5"/></g><path fill="url(#J)" d="m51.69 118.803 15.98-28.602.634-1.357V60.537h14.02v28.306l.633 1.358 15.98 28.602c3.943 7.056-1.158 15.75-9.241 15.75H60.933c-8.084 0-13.185-8.694-9.242-15.75" opacity=".71"/><mask id="K" width="51" height="75" x="50" y="60" maskUnits="userSpaceOnUse" style="mask-type:luminance"><path fill="#fff" fill-rule="evenodd" d="m51.69 118.803 15.98-28.602.634-1.358V60.536h14.02v28.307l.633 1.358 15.98 28.602c3.943 7.056-1.158 15.75-9.241 15.75H60.933c-8.084 0-13.185-8.694-9.242-15.75" clip-rule="evenodd"/></mask><g mask="url(#K)"><path fill="url(#L)" d="M82.323 71.499c-.398-8.412-1.353-7.921-8.727-9.226-7.375-1.304 7.669-1.304 7.669-1.304l5.195.633" opacity=".47"/></g><path fill="url(#M)" d="M71.88 109.256c6.956-5.577 12.459-5.516 18.87-2.823l6.42 11.49c3.647 6.529-1.073 14.572-8.551 14.572H62.008c-7.479 0-12.198-8.043-8.55-14.572l5.275-9.441c4.021 2.787 8.133 4.794 13.148.774"/><mask id="N" width="47" height="29" x="52" y="104" maskUnits="userSpaceOnUse" style="mask-type:luminance"><path fill="#fff" fill-rule="evenodd" d="M71.88 109.256c6.956-5.577 12.458-5.516 18.87-2.823l6.419 11.49c3.648 6.529-1.072 14.572-8.55 14.572H62.007c-7.48 0-12.199-8.043-8.55-14.572l5.275-9.441c4.021 2.787 8.132 4.794 13.147.774" clip-rule="evenodd"/></mask><g mask="url(#N)"><path fill="url(#O)" d="M87.862 104.374c10.053 26.262-15.356 24.687-31.016 26.667-15.661 1.979 15.98 5.772 18.467 5.607 2.488-.165 26.238-4.783 27.228-4.948s4.783-15.669 1.319-19.627c-3.463-3.958-6.597-9.236-6.597-9.236" opacity=".41"/></g><rect width="18.185" height="2.608" fill="url(#P)" rx="1.304" transform="matrix(-1 0 0 1 84.406 59.665)"/><circle cx=".694" cy=".694" r=".694" fill="#fff" opacity=".2" transform="matrix(-1 0 0 1 83.934 116.328)"/><circle cx=".959" cy=".959" r=".959" fill="#fff" opacity=".2" transform="matrix(-1 0 0 1 76.286 115.57)"/><circle cx=".593" cy=".593" r=".593" fill="#fff" opacity=".2" transform="matrix(-1 0 0 1 82.124 120.393)"/><circle cx="2.284" cy="2.284" r="2.284" fill="#fff" opacity=".2" transform="matrix(-1 0 0 1 61.571 119.973)"/><path fill="url(#Q)" d="M133.61 31.052h1.147l-6.198 18.252a3.106 3.106 0 0 1-4.2 1.838 3.104 3.104 0 0 1-1.42-4.402l8.349-14.292z"/><mask id="R" width="13" height="21" x="122" y="31" maskUnits="userSpaceOnUse" style="mask-type:luminance"><path fill="#fff" fill-rule="evenodd" d="M133.611 31.052h1.146l-6.198 18.252a3.106 3.106 0 0 1-4.2 1.838 3.104 3.104 0 0 1-1.42-4.402l8.349-14.292z" clip-rule="evenodd"/></mask><g mask="url(#R)"><path fill="url(#S)" d="M131.585 48.873c-7.227 2.27-8.384 1.36-8.646-2.133-.262-3.492-1.747 4.19-1.747 4.19l3.163 3.098 5.164-2.617" opacity=".34"/><path fill="url(#T)" d="M133.763 36.605c-.74 1.167-2.932-2.875-4.44-2.305s2.106 4.44 2.106 4.44l1.964.512 1.364-1.395" opacity=".34"/></g><path fill="url(#U)" d="M134.619 30.23c-.745-1.261-3.226-4.22-3.525-4.213-.635.017-.214 1.772 1.041 2.982-1.338-1.277-1.733-.09-.608 1.217-1.186-.852-1.399.273-.657 1.429.553.863.824 3.056.733 3.284s.851-.547.851-.547l.837-1.506s2.073-1.383 1.328-2.645"/><path fill="url(#V)" d="M118.686 102.704c-6.353 2.063-19.07-2.177-19.07-2.177l3.795-10.655 7.19-15.16"/><ellipse cx="6.258" cy="4.564" fill="url(#W)" rx="6.258" ry="4.564" transform="rotate(51.478 31.22 141.91)scale(-1 1)"/><path fill="url(#X)" d="M134.03 41.554c-1.638-5.058-4.432-7.833-4.432-7.833l-6.1 8.661c6.517 1.68-1.813-8.378-3.632-11.471 0 0-1.533.687-3.563 13.539-.061.387 2.239 12.671 7.908 12.05 3.179-.35 9.819-14.946 9.819-14.946"/><mask id="Y" width="19" height="27" x="116" y="30" maskUnits="userSpaceOnUse" style="mask-type:luminance"><path fill="#fff" fill-rule="evenodd" d="M134.03 41.554c-1.638-5.058-4.432-7.833-4.432-7.833l-6.1 8.661c6.517 1.68-1.813-8.378-3.632-11.471 0 0-1.533.687-3.563 13.539-.061.387 2.239 12.671 7.908 12.05 3.179-.35 9.819-14.946 9.819-14.946" clip-rule="evenodd"/></mask><g mask="url(#Y)"><path fill="url(#Z)" d="M119.635 40.614c2.071 23.257 8.025 10.032 9.001 11.13 2.065 2.325-3.814 6.75-3.814 6.75l-5.187-.03-.948-10.811.788-4.745"/></g><path fill="url(#aa)" d="M128.413 134.137s-.759-2.779-4.745-2.779-6.358-3.557-6.358-3.557V88.004l-1.519-39.13-8.541 4.668c0 7.115 6.002 74.554 6.002 74.554s-.782 6.041-.687 6.041z"/><mask id="ab" width="22" height="87" x="107" y="48" maskUnits="userSpaceOnUse" style="mask-type:luminance"><path fill="#fff" fill-rule="evenodd" d="M128.413 134.138s-.76-2.78-4.745-2.78-6.359-3.557-6.359-3.557V88.004l-1.518-39.13-8.541 4.668c0 7.115 6.002 74.554 6.002 74.554s-.783 6.042-.688 6.042z" clip-rule="evenodd"/></mask><g mask="url(#ab)"><path fill="url(#ac)" d="M118.687 104.79c1.475 1.821-6.153 3.529-7.519 5.237-1.366 1.707-.869-7.048-.869-7.048l7.533-2.12" opacity=".34"/></g><path fill="url(#ad)" d="m112.994 129.916-.509 3.547a1.15 1.15 0 0 0 1.145 1.307h16.06s-1.139-3.631-5.789-3.335c-2.309 2.78-10.907-1.519-10.907-1.519"/><path fill="url(#ae)" d="m110.477 60.138-6.643 25.494-9.047 43.429s-.692 5.188-.945 5.632H79.081c3.215-5.632 8.493-1.482 10.518-6.003l10.882-72.554z"/><mask id="af" width="32" height="79" x="79" y="56" maskUnits="userSpaceOnUse" style="mask-type:luminance"><path fill="#fff" fill-rule="evenodd" d="m110.477 60.138-6.643 25.494-9.047 43.429s-.691 5.188-.944 5.632H79.08c3.215-5.632 8.494-1.482 10.518-6.003l10.882-72.554z" clip-rule="evenodd"/></mask><g mask="url(#af)"><path fill="url(#ag)" d="M101.662 109.685c-4.696-2.134-9.926-5.572-8.25-6.415 1.675-.842 7.908.865 7.908.865" opacity=".34"/></g><path fill="url(#ah)" d="M94.83 129.061v4.111a1.64 1.64 0 0 1-1.613 1.634l-14.847.332s-1.128-2.795 4.976-3.768c5.127 3.317 11.484-2.309 11.484-2.309"/><path fill="url(#ai)" d="M120.061 83.467c-10.882 2.668-22.111 3.054-24.642 1.276l6.366-35.078 14.629 2.386z"/><mask id="aj" width="26" height="37" x="95" y="49" maskUnits="userSpaceOnUse" style="mask-type:luminance"><path fill="#fff" fill-rule="evenodd" d="M120.061 83.467c-10.882 2.668-22.112 3.054-24.642 1.276l6.366-35.078 14.628 2.386z" clip-rule="evenodd"/></mask><g mask="url(#aj)"><path fill="url(#ak)" d="M114.329 69.9c-2.853.168.251-15.141-4.386-15.293s-.898-3.057-.898-3.057l7.952.957.547.807"/></g><ellipse cx="6.258" cy="4.564" fill="url(#al)" rx="6.258" ry="4.564" transform="rotate(51.478 32.05 132.146)scale(-1 1)"/><ellipse cx="3.618" cy="3.215" fill="url(#am)" rx="3.618" ry="3.215" transform="rotate(43.95 28.59 160.042)scale(-1 1)"/><path fill="url(#an)" d="M115.775 29.364s-7.663-4.105-16.877 0c-2.006 5.2 3.89 17.49 2.007 21.803 0 0 10.801 4.709 16.092 1.15 1.642-1.641-2.083-6.256.694-10.729 3.061-4.93-1.916-12.224-1.916-12.224"/><mask id="ao" width="21" height="27" x="98" y="27" maskUnits="userSpaceOnUse" style="mask-type:luminance"><path fill="#fff" fill-rule="evenodd" d="M115.775 29.364s-7.663-4.105-16.877 0c-2.006 5.2 3.89 17.49 2.007 21.803 0 0 10.801 4.709 16.092 1.15 1.642-1.641-2.083-6.256.694-10.728 3.061-4.931-1.916-12.225-1.916-12.225" clip-rule="evenodd"/></mask><g mask="url(#ao)"><path fill="url(#ap)" d="M113.873 28.207c1.902 7.477-6.675 3.595-10.115-.667s.284-3.386.284-3.386l10.145 2.89"/><path fill="url(#aq)" d="M101.032 39.546c-.045 6.386.502 13.79 12.057 13.63s5.346 3.026 5.346 3.026l-17.388-.509-.79-.426-4.838-10.52 1.018-6.127 3.771-.972c-.536 7.613 5.215 5.21 5.215 5.21"/></g><path fill="url(#ar)" d="M111.574 22.286c-.156.397 2.012 8.024 2.012 8.024l-7.147-1.405.306-9.377z"/><mask id="as" width="8" height="12" x="106" y="19" maskUnits="userSpaceOnUse" style="mask-type:luminance"><path fill="#fff" fill-rule="evenodd" d="M111.573 22.286c-.155.397 2.013 8.024 2.013 8.024l-7.147-1.405.305-9.377z" clip-rule="evenodd"/></mask><g mask="url(#as)"><path fill="url(#at)" d="M115.429 28.16c-4.565-1.113-4.986-4.493-6.586-5.874s5.136.33 5.136.33l1.491 1.785-.187 2.524" opacity=".34"/></g><ellipse cx="3.358" cy="2.983" fill="url(#au)" rx="3.358" ry="2.983" transform="rotate(43.95 40.983 153.917)scale(-1 1)"/><path fill="url(#av)" d="M103.672 16.656c.368 3.11 3.828 4.84 6.929 4.84s4.67-1.73 4.302-4.84-3.18-5.63-6.281-5.63-5.317 2.52-4.95 5.63"/><path fill="url(#aw)" d="M113.794 13.972c5.969 16.786-7.313 8.971-7.891 4.051-.334-2.838 1.935-4.63 1.935-4.63z"/><path fill="url(#ax)" d="M115.596 16.518c-3.161.116-4.259-2.785-4.259-2.785s-.546 5.601-5.343 5.061l-1.047-2.507.789-2.605s2.695-1.62 2.875-1.563 3.001-.001 3.001-.001l2.276.696.663.868z"/><path fill="url(#ay)" d="M107.205 108.032c-7.057 2.048-15.179-5.55-15.179-5.55s5.943-61.25 6.165-73.118c1.979-1.103 4.289-1.893 8.095-1.824l2.327 9.63s3.52 52.314-1.408 70.862"/><mask id="az" width="18" height="82" x="92" y="27" maskUnits="userSpaceOnUse" style="mask-type:luminance"><path fill="#fff" fill-rule="evenodd" d="M107.205 108.032c-7.057 2.048-15.179-5.55-15.179-5.55s5.943-61.25 6.165-73.118c1.979-1.103 4.289-1.893 8.095-1.824l2.327 9.63s3.52 52.314-1.408 70.862" clip-rule="evenodd"/></mask><g mask="url(#az)"><path fill="url(#aA)" d="M107.918 51.12c2.887 2.041-13.404 7.044-13.519 9.265-.114 2.22-.856-12.732-.856-12.732l3.723-9.037 3.537.102s-2.568 5.65 5.569 4.034c8.137-1.615-.502 7.41-.502 7.41"/></g><path fill="url(#aB)" d="M122.074 104.592c-6.707 2.327-11.992 3.215-11.992 3.215s4.962-77.53 2.908-79.546c0 0 4.662.34 6.876 2.65-.231 27.723 3.167 42.334 2.208 73.681"/><mask id="aC" width="13" height="80" x="110" y="28" maskUnits="userSpaceOnUse" style="mask-type:luminance"><path fill="#fff" fill-rule="evenodd" d="M122.074 104.592c-6.707 2.327-11.992 3.215-11.992 3.215s4.962-77.53 2.908-79.546c0 0 4.662.34 6.876 2.65-.231 27.723 3.167 42.334 2.208 73.681" clip-rule="evenodd"/></mask><g mask="url(#aC)"><path fill="url(#aD)" d="m126.129 60.521-.234 8.683-7.563.431-.723-9.164z"/><path fill="#fff" d="M126.669 60.116c.053.315.214 2.73.214 2.73l-9.533.042-.083-2.758z"/></g><path fill="#fff" d="M109.334 47.054s.313-15.748-2.835-19.973l-2.65.849 2.524 6.884-.977 2.943zm3.682-.606 2.804-8.715-1.49-2.824 1.513-6.124s-1.238-1.25-3.027-1.247c0 0 .908 15.008.2 18.91"/><path fill="url(#aE)" d="M106.006 43.083a2 2 0 0 1-.297-.08c-1.682-.603-2.843-3.673-3.612-5.705l-.166-.439.352-.134.167.44c.699 1.847 1.868 4.939 3.386 5.484.412.148.82.1 1.25-.146l.187.327q-.637.363-1.267.253"/><mask id="aF" width="7" height="8" x="101" y="36" maskUnits="userSpaceOnUse" style="mask-type:luminance"><path fill="#fff" fill-rule="evenodd" d="M106.006 43.083a2 2 0 0 1-.297-.08c-1.682-.603-2.843-3.673-3.612-5.705l-.166-.439.352-.134.166.44c.699 1.847 1.869 4.939 3.387 5.484.412.148.82.1 1.249-.146l.187.327c-.422.242-.847.326-1.266.253" clip-rule="evenodd"/></mask><g mask="url(#aF)"><path fill="url(#aG)" d="M102.52 36.973c-.423.325-.359.384-.376.66-.016.275-.535-.226-.531-.256s.318-.73.342-.696.59.028.59.028"/></g><rect width="1.407" height=".938" fill="url(#aH)" rx=".331" transform="rotate(157.65 49.275 32.182)scale(-1 1)"/><path fill="url(#aI)" d="M116.965 33.913c0-.064.003-6.2-4.149-6.375l-.204-.698c4.683.199 4.932 6.997 4.933 7.066z"/><mask id="aJ" width="6" height="8" x="112" y="26" maskUnits="userSpaceOnUse" style="mask-type:luminance"><path fill="#fff" fill-rule="evenodd" d="M116.965 33.912c0-.063.003-6.2-4.149-6.374l-.204-.698c4.683.199 4.932 6.997 4.933 7.066z" clip-rule="evenodd"/></mask><g mask="url(#aJ)"><path fill="url(#aK)" d="M115.931 30.17c.479 2.43 1.685 1.955 2.19 3.605s-1.389 1.192-1.389 1.192l-1.41-2.39"/></g><path fill="url(#aL)" d="m104.026 31.996-.094-.33c-.383-1.354-.779-2.753-.083-3.736.483-.682 1.197-1.082 2.663-1.183l-.023.582c-1.279.09-1.792.406-2.168.936-.536.757-.194 1.964.169 3.242l.094.333z"/><path fill="url(#aM)" d="M103.763 42.98q.149-.04.289-.104c1.626-.742 2.528-3.898 3.124-5.986l.129-.451-.361-.105-.13.452c-.542 1.9-1.45 5.078-2.918 5.747-.398.182-.809.169-1.257-.04l-.159.34c.441.206.872.255 1.283.147"/><rect width="1.407" height=".938" fill="url(#aN)" rx=".331" transform="rotate(17.57 -85.376 354.33)scale(-1 1)"/><path fill="url(#aO)" d="M101.888 37.123c-1.153-3.083.122-4.532.723-5.012a3.09 3.09 0 0 1 3.59-.16c.619.407 1.973 1.667 1.181 4.57l-.559-.152c.487-1.786.145-3.22-.94-3.934a2.51 2.51 0 0 0-2.911.128c-1.062.848-1.26 2.436-.542 4.357z"/><ellipse cx="1.789" cy="1.935" fill="url(#aP)" rx="1.789" ry="1.935" transform="rotate(-178.56 59.547 16)scale(1 -1)"/><ellipse cx="1.054" cy=".768" fill="url(#aQ)" rx="1.054" ry=".768" transform="rotate(83.414 39.156 84.452)scale(-1 1)"/><path fill="url(#aR)" d="M111.328 42.898s1.956-1.786 3.742-2.382c1.787-.595 1.106-.141 1.106-.141l-.624 1.928z"/><path fill="url(#aS)" d="M111.258 48.742h9.798c.938 0 2.067-.647 2.52-1.444l6.9-12.133c.454-.797.061-1.444-.878-1.444H119.8c-.938 0-2.066.647-2.52 1.444l-6.9 12.133c-.454.797-.06 1.444.878 1.444"/><mask id="aT" width="21" height="16" x="110" y="33" maskUnits="userSpaceOnUse" style="mask-type:luminance"><path fill="#fff" fill-rule="evenodd" d="M111.258 48.742h9.798c.938 0 2.067-.647 2.52-1.444l6.901-12.133c.453-.797.06-1.443-.879-1.443h-9.797c-.939 0-2.067.646-2.521 1.443l-6.9 12.133c-.453.797-.06 1.444.878 1.444" clip-rule="evenodd"/></mask><g mask="url(#aT)"><path fill="url(#aU)" d="M116.837 44.973c1.243.683-4.338 1.081-4.394 2.903-.055 1.821 2.89 2.39 2.89 2.39l-8.083.203 2.693-5.382 3.872-.48"/></g><ellipse cx="1.589" cy="2.733" fill="url(#aV)" rx="1.589" ry="2.733" transform="rotate(60.969 27.337 125.812)scale(-1 1)"/><path fill="url(#aW)" d="M113.823 42.133s2.57.037 2.759 0c.19-.038 2.307-1.135 2.534-.19 0 0 .869.19.359.965l-.927.756s.643-.133.586.359c-.056.491-2.524 1.545-2.732 1.62s-2.92-.032-4.47.346-5.066 1.663-5.066 1.663l-1.021-3.97z"/><mask id="aX" width="15" height="7" x="105" y="41" maskUnits="userSpaceOnUse" style="mask-type:luminance"><path fill="#fff" fill-rule="evenodd" d="M113.822 42.133s2.571.038 2.76 0 2.306-1.134 2.533-.19c0 0 .87.19.359.965l-.926.756s.643-.132.586.36c-.057.49-2.525 1.544-2.733 1.62-.207.075-2.919-.033-4.469.345s-5.066 1.664-5.066 1.664l-1.021-3.97z" clip-rule="evenodd"/></mask><g mask="url(#aX)"><path fill="url(#aY)" d="M111.103 42.508c1.548.053 1.27 2.87 2.103 3.425.832.555-1.175 1.224-1.175 1.224l-.896-.306-.598-2.903" opacity=".34"/></g><path fill="url(#aZ)" d="M109.471 42.99s1.371 2.38.585 3.557l-15.674 5.369c-2.16.47-4.233-1.062-4.338-3.202-.088-1.79 1.254-3.348 3.088-3.585z"/><mask id="ba" width="21" height="11" x="90" y="42" maskUnits="userSpaceOnUse" style="mask-type:luminance"><path fill="#fff" fill-rule="evenodd" d="M109.471 42.99s1.371 2.38.585 3.557l-15.674 5.369c-2.16.47-4.233-1.062-4.338-3.202-.088-1.79 1.254-3.348 3.088-3.585z" clip-rule="evenodd"/></mask><g mask="url(#ba)"><path fill="url(#bb)" d="M98.476 43.636c-7.442 1.437-8.669 5.228-8.436 7.358s-2.672-5.615-2.672-5.615l2.672-2.48h5.38" opacity=".34"/></g><path fill="url(#bc)" d="M110.904 42.245c2.337 2.842.449 8.24.449 8.24s-16.574 7.082-21.313 4.278c-4.623-2.735 4.706-24.282 8.15-25.399 1.959-.635 4.095 7.846 2.613 9.354l-2.327 4.918z"/><mask id="bd" width="25" height="27" x="88" y="29" maskUnits="userSpaceOnUse" style="mask-type:luminance"><path fill="#fff" fill-rule="evenodd" d="M110.904 42.245c2.337 2.842.449 8.24.449 8.24s-16.574 7.082-21.313 4.278c-4.623-2.735 4.706-24.282 8.15-25.399 1.959-.635 4.095 7.846 2.614 9.354l-2.328 4.918z" clip-rule="evenodd"/></mask><g mask="url(#bd)"><path fill="url(#be)" d="m100.52 43.17-2.044.466s-2.277.927-2.9.97c-.621.044 3.38-1.634 3.753-2.122.372-.488.659.506.659.506"/></g><circle cx=".885" cy=".885" r=".885" fill="#fff" transform="matrix(-1 0 0 1 109.51 52.54)"/><circle cx=".885" cy=".885" r=".885" fill="#fff" transform="matrix(-1 0 0 1 109.51 63.64)"/><path fill="url(#bf)" d="m105.032 61.765-.234 8.682-7.563.432-.723-9.165z"/><path fill="#fff" d="M105.573 61.36c.053.314.214 2.73.214 2.73l-9.534.041-.082-2.758zm9.76-42.529c-.409.807-1.629.197-1.629.197s-1.221 1.22-4.369.5c-.514.11.532 2.855-.268 3.02 5.247 4.415 7.92.272 6.266-3.717"/><path fill="#fff" d="m110.041 20.248-.61-.61-2.605-.946.163.336 2.442 1.22m.513 2.087-3.118-1.01 2.865 1.525.253-.28"/><path fill="url(#bg)" d="M107.114 18.794c-5.014-1.88-2.245 3.773.893 2.442z"/><g opacity=".39"><path fill="url(#bh)" d="M0 0h.327v.856H0z" transform="matrix(1 0 0 -1 78.94 40.687)"/><path fill="url(#bi)" d="M0 0h.327v.856H0z" transform="rotate(45 -.2 115.402)scale(-1 1)"/><path fill="url(#bj)" d="M0 0h.369v.965H0z" transform="rotate(-70.063 68.581 -39.94)scale(1 -1)"/><path fill="url(#bk)" d="M0 0h.401v1.05H0z" transform="rotate(148.294 33.93 27.61)scale(1 -1)"/><path fill="url(#bl)" d="M0 0h.178v.467H0z" transform="rotate(63.765 12.748 83.996)scale(-1 1)"/><path fill="url(#bm)" d="M0 0h.177v.466H0z" transform="rotate(-37.667 98.62 -99.578)scale(1 -1)"/><path fill="url(#bn)" d="M0 0h.177v.466H0z" transform="rotate(216.206 44.922 7.18)scale(-1 1)"/><path fill="url(#bo)" d="M76.897 39.705c.057.042.137.03.179-.028l.01-.013a.128.128 0 0 0-.207-.152l-.01.013a.13.13 0 0 0 .028.18"/><path fill="url(#bp)" d="M0 0h.178v.467H0z" transform="rotate(126.915 29.336 36.44)scale(1 -1)"/><path fill="url(#bq)" d="M0 0h.369v.965H0z" transform="rotate(81.609 16.009 62.252)scale(1 -1)"/><path fill="url(#br)" d="m74.756 37.567.007.047a.45.45 0 0 0 .891-.131l-.007-.048a.45.45 0 1 0-.891.132"/><circle cx="3.148" cy="3.148" r="3.148" fill="url(#bs)" transform="matrix(-1 0 0 1 82.252 33.619)"/><mask id="bt" width="8" height="7" x="75" y="33" maskUnits="userSpaceOnUse" style="mask-type:luminance"><circle cx="3.148" cy="3.148" r="3.148" fill="#fff" transform="matrix(-1 0 0 1 82.252 33.619)"/></mask><g mask="url(#bt)"><path fill="url(#bu)" d="M79.97 40.315c5.23-5.878-1.66-7.282-1.66-7.282l2.947-1.288 4.796 5.022-3.449 3.548"/></g><circle cx=".702" cy=".702" r=".702" fill="url(#bv)" transform="matrix(-1 0 0 1 78.31 36.822)"/><circle cx=".702" cy=".702" r=".702" fill="url(#bw)" transform="matrix(-1 0 0 1 80.93 37.673)"/><circle cx=".702" cy=".702" r=".702" fill="url(#bx)" transform="matrix(-1 0 0 1 80.672 34.474)"/><circle cx=".24" cy=".24" r=".24" fill="url(#by)" transform="matrix(-1 0 0 1 77.184 39.401)"/><circle cx=".24" cy=".24" r=".24" fill="url(#bz)" transform="matrix(-1 0 0 1 81.738 39.246)"/><circle cx=".24" cy=".24" r=".24" fill="url(#bA)" transform="matrix(-1 0 0 1 76.252 34.685)"/><circle cx=".24" cy=".24" r=".24" fill="url(#bB)" transform="matrix(-1 0 0 1 82.725 35.1)"/><circle cx=".496" cy=".496" r=".496" fill="url(#bC)" transform="matrix(-1 0 0 1 79.6 40.225)"/><circle cx=".496" cy=".496" r=".496" fill="url(#bD)" transform="matrix(-1 0 0 1 83.411 37.552)"/><circle cx=".586" cy=".586" r=".586" fill="url(#bE)" transform="matrix(-1 0 0 1 82.193 33.033)"/><circle cx=".586" cy=".586" r=".586" fill="url(#bF)" transform="matrix(-1 0 0 1 77.704 32.756)"/></g></g><rect width="204" height="134" x="2" y="2" stroke="#51c1ff" stroke-opacity=".07" stroke-width="4" rx="10"/><defs><linearGradient id="b" x1="0" x2="1.591" y1="4.166" y2="4.166" gradientUnits="userSpaceOnUse"><stop stop-color="#ff7c95"/><stop offset="1" stop-color="#ff2b45"/></linearGradient><linearGradient id="c" x1="2.785" x2="-.445" y1="-.245" y2="-.717" gradientUnits="userSpaceOnUse"><stop stop-color="#ff7c95"/><stop offset="1" stop-color="#ff2b45"/></linearGradient><linearGradient id="d" x1=".943" x2="4.055" y1="6.956" y2="5.704" gradientUnits="userSpaceOnUse"><stop stop-color="#ff7c95"/><stop offset="1" stop-color="#ff2b45"/></linearGradient><linearGradient id="e" x1="2.439" x2="-1.22" y1="-2.941" y2="-2.691" gradientUnits="userSpaceOnUse"><stop stop-color="#ff7c95"/><stop offset="1" stop-color="#ff2b45"/></linearGradient><linearGradient id="f" x1="1.383" x2="-.191" y1=".821" y2=".354" gradientUnits="userSpaceOnUse"><stop stop-color="#ff7c95"/><stop offset="1" stop-color="#ff2b45"/></linearGradient><linearGradient id="g" x1="-.145" x2="1.617" y1="3.918" y2="3.72" gradientUnits="userSpaceOnUse"><stop stop-color="#ff7c95"/><stop offset="1" stop-color="#ff2b45"/></linearGradient><linearGradient id="h" x1="-.621" x2="1.135" y1="2.689" y2="2.877" gradientUnits="userSpaceOnUse"><stop stop-color="#ff7c95"/><stop offset="1" stop-color="#ff2b45"/></linearGradient><linearGradient id="i" x1="160.98" x2="159.335" y1="57.131" y2="57.772" gradientUnits="userSpaceOnUse"><stop stop-color="#ff7c95"/><stop offset="1" stop-color="#ff2b45"/></linearGradient><linearGradient id="j" x1=".779" x2="-.924" y1="-1.636" y2="-1.305" gradientUnits="userSpaceOnUse"><stop stop-color="#ff7c95"/><stop offset="1" stop-color="#ff2b45"/></linearGradient><linearGradient id="k" x1="-.389" x2="2.402" y1=".858" y2="3.619" gradientUnits="userSpaceOnUse"><stop stop-color="#ff7c95"/><stop offset="1" stop-color="#ff2b45"/></linearGradient><linearGradient id="l" x1="170.988" x2="166.413" y1="68.999" y2="69.389" gradientUnits="userSpaceOnUse"><stop stop-color="#ff7c95"/><stop offset="1" stop-color="#ff2b45"/></linearGradient><linearGradient id="m" x1="0" x2="30.638" y1="30.638" y2="30.638" gradientUnits="userSpaceOnUse"><stop stop-color="#ff7c95"/><stop offset="1" stop-color="#ff2b45"/></linearGradient><linearGradient id="o" x1="171.057" x2="169.526" y1="103.715" y2="103.223" gradientUnits="userSpaceOnUse"><stop stop-color="#ff7c95"/><stop offset="1" stop-color="#ff2b45"/></linearGradient><linearGradient id="p" x1="-14.928" x2="-12.514" y1="10.436" y2="9.686" gradientUnits="userSpaceOnUse"><stop stop-color="#ff7c95"/><stop offset="1" stop-color="#ff2b45"/></linearGradient><linearGradient id="q" x1="-27.734" x2="-25.32" y1="14.41" y2="13.661" gradientUnits="userSpaceOnUse"><stop stop-color="#ff7c95"/><stop offset="1" stop-color="#ff2b45"/></linearGradient><linearGradient id="r" x1="-22.179" x2="-19.765" y1="12.686" y2="11.937" gradientUnits="userSpaceOnUse"><stop stop-color="#ff7c95"/><stop offset="1" stop-color="#ff2b45"/></linearGradient><linearGradient id="s" x1="0" x2="2.34" y1="2.34" y2="2.34" gradientUnits="userSpaceOnUse"><stop stop-color="#ff7c95"/><stop offset="1" stop-color="#ff2b45"/></linearGradient><linearGradient id="t" x1="0" x2="2.34" y1="2.34" y2="2.34" gradientUnits="userSpaceOnUse"><stop stop-color="#ff7c95"/><stop offset="1" stop-color="#ff2b45"/></linearGradient><linearGradient id="u" x1="0" x2="2.34" y1="2.34" y2="2.34" gradientUnits="userSpaceOnUse"><stop stop-color="#ff7c95"/><stop offset="1" stop-color="#ff2b45"/></linearGradient><linearGradient id="v" x1="0" x2="2.34" y1="2.34" y2="2.34" gradientUnits="userSpaceOnUse"><stop stop-color="#ff7c95"/><stop offset="1" stop-color="#ff2b45"/></linearGradient><linearGradient id="w" x1="0" x2="4.825" y1="4.825" y2="4.825" gradientUnits="userSpaceOnUse"><stop stop-color="#ff7c95"/><stop offset="1" stop-color="#ff2b45"/></linearGradient><linearGradient id="x" x1="0" x2="4.825" y1="4.825" y2="4.825" gradientUnits="userSpaceOnUse"><stop stop-color="#ff7c95"/><stop offset="1" stop-color="#ff2b45"/></linearGradient><linearGradient id="y" x1="0" x2="5.701" y1="5.701" y2="5.701" gradientUnits="userSpaceOnUse"><stop stop-color="#ff7c95"/><stop offset="1" stop-color="#ff2b45"/></linearGradient><linearGradient id="z" x1="0" x2="5.701" y1="5.701" y2="5.701" gradientUnits="userSpaceOnUse"><stop stop-color="#ff7c95"/><stop offset="1" stop-color="#ff2b45"/></linearGradient><linearGradient id="A" x1="123.982" x2="160.467" y1="38.599" y2="83.351" gradientUnits="userSpaceOnUse"><stop offset=".101" stop-color="#ffdf94"/><stop offset="1" stop-color="#ffa200"/></linearGradient><linearGradient id="B" x1="130.831" x2="137.664" y1="66.667" y2="90.651" gradientUnits="userSpaceOnUse"><stop offset=".101" stop-color="#ffcc02"/><stop offset="1" stop-color="#ffe484"/></linearGradient><linearGradient id="D" x1="166.801" x2="106.661" y1="141.809" y2="141.809" gradientUnits="userSpaceOnUse"><stop offset=".101" stop-color="#ffcc02"/><stop offset="1" stop-color="#ffe484"/></linearGradient><linearGradient id="G" x1="99.126" x2="101.638" y1="126.086" y2="123.414" gradientUnits="userSpaceOnUse"><stop stop-color="#fc7023"/><stop offset="1" stop-color="#e00321"/></linearGradient><linearGradient id="I" x1="131.207" x2="112.332" y1="121.068" y2="121.068" gradientUnits="userSpaceOnUse"><stop offset=".102" stop-color="#dcdff8"/><stop offset=".885" stop-color="#f5f7fe"/></linearGradient><linearGradient id="J" x1="100.298" x2="50.331" y1="134.553" y2="134.553" gradientUnits="userSpaceOnUse"><stop offset=".102" stop-color="#dcdff8"/><stop offset=".885" stop-color="#f5f7fe"/></linearGradient><linearGradient id="L" x1="86.46" x2="71.561" y1="71.499" y2="71.499" gradientUnits="userSpaceOnUse"><stop offset=".102" stop-color="#dcdff8"/><stop offset=".885" stop-color="#f5f7fe"/></linearGradient><linearGradient id="O" x1="76.039" x2="77.163" y1="102.875" y2="109.721" gradientUnits="userSpaceOnUse"><stop stop-color="#00ded8"/><stop offset=".997" stop-color="#4aaafd"/></linearGradient><linearGradient id="P" x1="0" x2="18.185" y1="2.608" y2="2.608" gradientUnits="userSpaceOnUse"><stop offset=".102" stop-color="#dcdff8"/><stop offset=".885" stop-color="#f5f7fe"/></linearGradient><linearGradient id="Q" x1="113.136" x2="138.412" y1="41.039" y2="23.892" gradientUnits="userSpaceOnUse"><stop offset=".102" stop-color="#fcadad"/><stop offset=".885" stop-color="#fbdcd9"/></linearGradient><linearGradient id="S" x1="116.274" x2="120.037" y1="52.664" y2="41.316" gradientUnits="userSpaceOnUse"><stop offset=".101" stop-color="#ff8338"/><stop offset=".885" stop-color="#ff4729"/></linearGradient><linearGradient id="T" x1="127.918" x2="129.745" y1="37.863" y2="33.26" gradientUnits="userSpaceOnUse"><stop offset=".101" stop-color="#ff8338"/><stop offset=".885" stop-color="#ff4729"/></linearGradient><linearGradient id="U" x1="111.901" x2="137.398" y1="36.505" y2="25.253" gradientUnits="userSpaceOnUse"><stop offset=".102" stop-color="#fcadad"/><stop offset=".885" stop-color="#fbdcd9"/></linearGradient><linearGradient id="V" x1="104.365" x2="105.769" y1="104.207" y2="103.163" gradientUnits="userSpaceOnUse"><stop offset=".102" stop-color="#fff"/><stop offset=".885" stop-color="#e3ebfd"/></linearGradient><linearGradient id="W" x1="3.45" x2="-2.197" y1="-16.605" y2="2.765" gradientUnits="userSpaceOnUse"><stop offset=".102" stop-color="#915a57"/><stop offset=".885" stop-color="#2c0b09"/></linearGradient><linearGradient id="X" x1="79.31" x2="110.339" y1="58.696" y2="44.041" gradientUnits="userSpaceOnUse"><stop offset=".102" stop-color="#fff"/><stop offset=".885" stop-color="#e3ebfd"/></linearGradient><linearGradient id="Z" x1="95.883" x2="114.08" y1="58.232" y2="52.177" gradientUnits="userSpaceOnUse"><stop offset=".102" stop-color="#fff"/><stop offset=".885" stop-color="#cddefd"/></linearGradient><linearGradient id="aa" x1="128.413" x2="107.25" y1="134.137" y2="134.137" gradientUnits="userSpaceOnUse"><stop offset=".102" stop-color="#fcadad"/><stop offset=".885" stop-color="#fbdcd9"/></linearGradient><linearGradient id="ac" x1="118.875" x2="110.211" y1="110.248" y2="110.248" gradientUnits="userSpaceOnUse"><stop offset=".101" stop-color="#ff8338"/><stop offset=".885" stop-color="#ff4729"/></linearGradient><linearGradient id="ad" x1="129.69" x2="112.474" y1="134.771" y2="134.771" gradientUnits="userSpaceOnUse"><stop offset=".102" stop-color="#915a57"/><stop offset=".885" stop-color="#2c0b09"/></linearGradient><linearGradient id="ae" x1="110.477" x2="79.081" y1="134.693" y2="134.693" gradientUnits="userSpaceOnUse"><stop offset=".102" stop-color="#fcadad"/><stop offset=".885" stop-color="#fbdcd9"/></linearGradient><linearGradient id="ag" x1="101.662" x2="93.092" y1="109.685" y2="109.685" gradientUnits="userSpaceOnUse"><stop offset=".101" stop-color="#ff8338"/><stop offset=".885" stop-color="#ff4729"/></linearGradient><linearGradient id="ah" x1="94.83" x2="78.287" y1="135.138" y2="135.138" gradientUnits="userSpaceOnUse"><stop offset=".102" stop-color="#915a57"/><stop offset=".885" stop-color="#2c0b09"/></linearGradient><linearGradient id="ai" x1="88.171" x2="115.691" y1="75.199" y2="47.626" gradientUnits="userSpaceOnUse"><stop offset=".008" stop-color="#009efe"/><stop offset="1" stop-color="#005dfa"/></linearGradient><linearGradient id="ak" x1="119.892" x2="117.917" y1="69.021" y2="68.274" gradientUnits="userSpaceOnUse"><stop offset=".008" stop-color="#009efe"/><stop offset="1" stop-color="#005dfa"/></linearGradient><linearGradient id="al" x1="3.45" x2="-2.198" y1="-16.605" y2="2.764" gradientUnits="userSpaceOnUse"><stop offset=".102" stop-color="#915a57"/><stop offset=".885" stop-color="#2c0b09"/></linearGradient><linearGradient id="am" x1="-1.772" x2="-6.136" y1="-10.543" y2="6.045" gradientUnits="userSpaceOnUse"><stop offset=".102" stop-color="#915a57"/><stop offset=".885" stop-color="#2c0b09"/></linearGradient><linearGradient id="an" x1="108.948" x2="123.188" y1="11.968" y2="33.023" gradientUnits="userSpaceOnUse"><stop offset=".005" stop-color="#ff88c3"/><stop offset=".999" stop-color="#ff168e"/></linearGradient><linearGradient id="ap" x1="114.263" x2="115.998" y1="18.14" y2="29.714" gradientUnits="userSpaceOnUse"><stop offset=".102" stop-color="#fcadad"/><stop offset=".885" stop-color="#fbdcd9"/></linearGradient><linearGradient id="aq" x1="104.93" x2="105.003" y1="61.521" y2="57.905" gradientUnits="userSpaceOnUse"><stop offset=".005" stop-color="#ee72bc"/><stop offset=".999" stop-color="#ee0796"/></linearGradient><linearGradient id="ar" x1="118.475" x2="110.382" y1="21.778" y2="26.705" gradientUnits="userSpaceOnUse"><stop offset=".102" stop-color="#fcadad"/><stop offset=".885" stop-color="#fbdcd9"/></linearGradient><linearGradient id="at" x1="118.03" x2="115.268" y1="21.251" y2="25.645" gradientUnits="userSpaceOnUse"><stop offset=".101" stop-color="#ff8338"/><stop offset=".885" stop-color="#ff4729"/></linearGradient><linearGradient id="au" x1="-4.619" x2="-8.983" y1="-3.017" y2="13.571" gradientUnits="userSpaceOnUse"><stop offset=".102" stop-color="#915a57"/><stop offset=".885" stop-color="#2c0b09"/></linearGradient><linearGradient id="av" x1="120.829" x2="114.587" y1="12.772" y2="28.071" gradientUnits="userSpaceOnUse"><stop offset=".102" stop-color="#915a57"/><stop offset=".885" stop-color="#2c0b09"/></linearGradient><linearGradient id="aw" x1="91.791" x2="83.823" y1="18.836" y2="26.092" gradientUnits="userSpaceOnUse"><stop offset=".102" stop-color="#fcadad"/><stop offset=".885" stop-color="#fbdcd9"/></linearGradient><linearGradient id="ax" x1="125.494" x2="122.398" y1="12.146" y2="28.476" gradientUnits="userSpaceOnUse"><stop offset=".102" stop-color="#915a57"/><stop offset=".885" stop-color="#2c0b09"/></linearGradient><linearGradient id="ay" x1="86.518" x2="115.289" y1="19.176" y2="17.801" gradientUnits="userSpaceOnUse"><stop offset=".102" stop-color="#fff"/><stop offset=".885" stop-color="#e3ebfd"/></linearGradient><linearGradient id="aA" x1="99.269" x2="99.557" y1="67.676" y2="63.246" gradientUnits="userSpaceOnUse"><stop offset=".102" stop-color="#fff"/><stop offset=".885" stop-color="#cddefd"/></linearGradient><linearGradient id="aB" x1="88.67" x2="119.977" y1="-7.554" y2="-8.276" gradientUnits="userSpaceOnUse"><stop offset=".102" stop-color="#fff"/><stop offset=".885" stop-color="#e3ebfd"/></linearGradient><linearGradient id="aD" x1="111.708" x2="115.723" y1="75.683" y2="60.449" gradientUnits="userSpaceOnUse"><stop offset=".102" stop-color="#fff"/><stop offset=".885" stop-color="#e3ebfd"/></linearGradient><linearGradient id="aE" x1="101.934" x2="108.175" y1="35.728" y2="36.499" gradientUnits="userSpaceOnUse"><stop offset=".102" stop-color="#cbcbe5"/><stop offset=".885" stop-color="#ebe4e0"/></linearGradient><linearGradient id="aG" x1="102.076" x2="101.101" y1="38.63" y2="37.273" gradientUnits="userSpaceOnUse"><stop offset=".102" stop-color="#dcdcf8"/><stop offset=".885" stop-color="#f5f6fe"/></linearGradient><linearGradient id="aH" x1=".674" x2="1.437" y1="1.258" y2=".171" gradientUnits="userSpaceOnUse"><stop offset=".102" stop-color="#915a57"/><stop offset=".885" stop-color="#2c0b09"/></linearGradient><linearGradient id="aI" x1="116.214" x2="114.994" y1="30.038" y2="32.431" gradientUnits="userSpaceOnUse"><stop offset=".008" stop-color="#009efe"/><stop offset="1" stop-color="#005dfa"/></linearGradient><linearGradient id="aK" x1="113.01" x2="113.183" y1="36.358" y2="36.296" gradientUnits="userSpaceOnUse"><stop offset=".008" stop-color="#009efe"/><stop offset="1" stop-color="#005dfa"/></linearGradient><linearGradient id="aL" x1="105.317" x2="109.733" y1="24.438" y2="26.929" gradientUnits="userSpaceOnUse"><stop offset=".008" stop-color="#009efe"/><stop offset="1" stop-color="#005dfa"/></linearGradient><linearGradient id="aM" x1="108.661" x2="104.619" y1="38.023" y2="44.103" gradientUnits="userSpaceOnUse"><stop offset=".102" stop-color="#cbcbe5"/><stop offset=".885" stop-color="#ebe4e0"/></linearGradient><linearGradient id="aN" x1="-.482" x2=".281" y1=".489" y2="1.576" gradientUnits="userSpaceOnUse"><stop offset=".102" stop-color="#915a57"/><stop offset=".885" stop-color="#2c0b09"/></linearGradient><linearGradient id="aO" x1="103.552" x2="106.123" y1="27.524" y2="32.679" gradientUnits="userSpaceOnUse"><stop offset=".008" stop-color="#009efe"/><stop offset="1" stop-color="#005dfa"/></linearGradient><linearGradient id="aP" x1="4.665" x2="1.991" y1="2.351" y2="-1.465" gradientUnits="userSpaceOnUse"><stop offset=".102" stop-color="#cbcbe5"/><stop offset=".885" stop-color="#ebe4e0"/></linearGradient><linearGradient id="aQ" x1="2.295" x2="2.086" y1="1.391" y2="-.162" gradientUnits="userSpaceOnUse"><stop offset=".102" stop-color="#915a57"/><stop offset=".885" stop-color="#2c0b09"/></linearGradient><linearGradient id="aR" x1="102.463" x2="105.86" y1="43.855" y2="35.201" gradientUnits="userSpaceOnUse"><stop offset=".102" stop-color="#fcadad"/><stop offset=".885" stop-color="#fbdcd9"/></linearGradient><linearGradient id="aS" x1="130.665" x2="110.191" y1="48.742" y2="48.742" gradientUnits="userSpaceOnUse"><stop offset=".005" stop-color="#ffed7a"/><stop offset=".999" stop-color="#ff9d00"/></linearGradient><linearGradient id="aU" x1="122.23" x2="121.981" y1="52.267" y2="51.971" gradientUnits="userSpaceOnUse"><stop offset=".005" stop-color="#ffed7a"/><stop offset=".999" stop-color="#ff9d00"/></linearGradient><linearGradient id="aV" x1="6.231" x2="4.787" y1="-16.462" y2="-14.757" gradientUnits="userSpaceOnUse"><stop offset=".005" stop-color="#ffed7a"/><stop offset=".999" stop-color="#ff9d00"/></linearGradient><linearGradient id="aW" x1="135.906" x2="134.351" y1="39.492" y2="58.428" gradientUnits="userSpaceOnUse"><stop offset=".102" stop-color="#fcadad"/><stop offset=".885" stop-color="#fbdcd9"/></linearGradient><linearGradient id="aY" x1="115.37" x2="110.023" y1="44.877" y2="49.722" gradientUnits="userSpaceOnUse"><stop offset=".101" stop-color="#ff8338"/><stop offset=".885" stop-color="#ff4729"/></linearGradient><linearGradient id="aZ" x1="126.402" x2="124.825" y1="35.564" y2="54.505" gradientUnits="userSpaceOnUse"><stop offset=".102" stop-color="#fcadad"/><stop offset=".885" stop-color="#fbdcd9"/></linearGradient><linearGradient id="bb" x1="104.516" x2="101.205" y1="39.333" y2="52.878" gradientUnits="userSpaceOnUse"><stop offset=".101" stop-color="#ff8338"/><stop offset=".885" stop-color="#ff4729"/></linearGradient><linearGradient id="bc" x1="67.216" x2="95.665" y1="51.037" y2="28.682" gradientUnits="userSpaceOnUse"><stop offset=".102" stop-color="#fff"/><stop offset=".885" stop-color="#e3ebfd"/></linearGradient><linearGradient id="be" x1="88.913" x2="90.07" y1="46.454" y2="40.843" gradientUnits="userSpaceOnUse"><stop offset=".102" stop-color="#fff"/><stop offset=".885" stop-color="#d8e0fd"/></linearGradient><linearGradient id="bf" x1="89.398" x2="96.594" y1="71.941" y2="55.803" gradientUnits="userSpaceOnUse"><stop offset=".102" stop-color="#fff"/><stop offset=".885" stop-color="#e3ebfd"/></linearGradient><linearGradient id="bg" x1="90.952" x2="85.561" y1="15.899" y2="25.152" gradientUnits="userSpaceOnUse"><stop offset=".102" stop-color="#fcadad"/><stop offset=".885" stop-color="#fbdcd9"/></linearGradient><linearGradient id="bh" x1="130.871" x2="130.875" y1="-158.089" y2="-158.089" gradientUnits="userSpaceOnUse"><stop offset=".008" stop-color="#00cafe"/><stop offset="1" stop-color="#0088fa"/></linearGradient><linearGradient id="bi" x1="-207.283" x2="-207.289" y1="25.908" y2="25.907" gradientUnits="userSpaceOnUse"><stop offset=".008" stop-color="#00cafe"/><stop offset="1" stop-color="#0088fa"/></linearGradient><linearGradient id="bj" x1="-107.706" x2="-107.7" y1="-174.197" y2="-174.2" gradientUnits="userSpaceOnUse"><stop offset=".008" stop-color="#00cafe"/><stop offset="1" stop-color="#0088fa"/></linearGradient><linearGradient id="bk" x1="-25.87" x2="-25.878" y1="210.303" y2="210.304" gradientUnits="userSpaceOnUse"><stop offset=".008" stop-color="#00cafe"/><stop offset="1" stop-color="#0088fa"/></linearGradient><linearGradient id="bl" x1="-202.849" x2="-202.852" y1="-41.98" y2="-41.981" gradientUnits="userSpaceOnUse"><stop offset=".008" stop-color="#00cafe"/><stop offset="1" stop-color="#0088fa"/></linearGradient><linearGradient id="bm" x1="4.277" x2="4.281" y1="-204.07" y2="-204.071" gradientUnits="userSpaceOnUse"><stop offset=".008" stop-color="#00cafe"/><stop offset="1" stop-color="#0088fa"/></linearGradient><linearGradient id="bn" x1="200.288" x2="200.292" y1="-49.911" y2="-49.91" gradientUnits="userSpaceOnUse"><stop offset=".008" stop-color="#00cafe"/><stop offset="1" stop-color="#0088fa"/></linearGradient><linearGradient id="bo" x1="208.941" x2="208.943" y1="198.14" y2="198.139" gradientUnits="userSpaceOnUse"><stop offset=".008" stop-color="#00cafe"/><stop offset="1" stop-color="#0088fa"/></linearGradient><linearGradient id="bp" x1="50.754" x2="50.751" y1="205.409" y2="205.409" gradientUnits="userSpaceOnUse"><stop offset=".008" stop-color="#00cafe"/><stop offset="1" stop-color="#0088fa"/></linearGradient><linearGradient id="bq" x1="179.383" x2="179.389" y1="109.579" y2="109.584" gradientUnits="userSpaceOnUse"><stop offset=".008" stop-color="#00cafe"/><stop offset="1" stop-color="#0088fa"/></linearGradient><linearGradient id="br" x1="75.762" x2="76.703" y1="38.422" y2="38.339" gradientUnits="userSpaceOnUse"><stop offset=".008" stop-color="#00cafe"/><stop offset="1" stop-color="#0088fa"/></linearGradient><linearGradient id="bs" x1="-127.531" x2="-127.592" y1="165.164" y2="165.164" gradientUnits="userSpaceOnUse"><stop offset=".008" stop-color="#00cafe"/><stop offset="1" stop-color="#0088fa"/></linearGradient><linearGradient id="bu" x1="321.001" x2="314.521" y1="198.729" y2="201.572" gradientUnits="userSpaceOnUse"><stop offset=".008" stop-color="#00cafe"/><stop offset="1" stop-color="#0088fa"/></linearGradient><linearGradient id="bv" x1="88.153" x2="88.65" y1="-146.325" y2="-146.479" gradientUnits="userSpaceOnUse"><stop offset=".008" stop-color="#00cafe"/><stop offset="1" stop-color="#0088fa"/></linearGradient><linearGradient id="bw" x1="85.893" x2="86.389" y1="-144.77" y2="-144.923" gradientUnits="userSpaceOnUse"><stop offset=".008" stop-color="#00cafe"/><stop offset="1" stop-color="#0088fa"/></linearGradient><linearGradient id="bx" x1="86.074" x2="86.57" y1="-145.057" y2="-145.211" gradientUnits="userSpaceOnUse"><stop offset=".008" stop-color="#00cafe"/><stop offset="1" stop-color="#0088fa"/></linearGradient><linearGradient id="by" x1="0" x2=".481" y1=".481" y2=".481" gradientUnits="userSpaceOnUse"><stop offset=".008" stop-color="#00cafe"/><stop offset="1" stop-color="#0088fa"/></linearGradient><linearGradient id="bz" x1="0" x2=".481" y1=".481" y2=".481" gradientUnits="userSpaceOnUse"><stop offset=".008" stop-color="#00cafe"/><stop offset="1" stop-color="#0088fa"/></linearGradient><linearGradient id="bA" x1="0" x2=".481" y1=".481" y2=".481" gradientUnits="userSpaceOnUse"><stop offset=".008" stop-color="#00cafe"/><stop offset="1" stop-color="#0088fa"/></linearGradient><linearGradient id="bB" x1="0" x2=".481" y1=".481" y2=".481" gradientUnits="userSpaceOnUse"><stop offset=".008" stop-color="#00cafe"/><stop offset="1" stop-color="#0088fa"/></linearGradient><linearGradient id="bC" x1="0" x2=".992" y1=".992" y2=".992" gradientUnits="userSpaceOnUse"><stop offset=".008" stop-color="#00cafe"/><stop offset="1" stop-color="#0088fa"/></linearGradient><linearGradient id="bD" x1="0" x2=".992" y1=".992" y2=".992" gradientUnits="userSpaceOnUse"><stop offset=".008" stop-color="#00cafe"/><stop offset="1" stop-color="#0088fa"/></linearGradient><linearGradient id="bE" x1="0" x2="1.171" y1="1.171" y2="1.171" gradientUnits="userSpaceOnUse"><stop offset=".008" stop-color="#00cafe"/><stop offset="1" stop-color="#0088fa"/></linearGradient><linearGradient id="bF" x1="0" x2="1.171" y1="1.171" y2="1.171" gradientUnits="userSpaceOnUse"><stop offset=".008" stop-color="#00cafe"/><stop offset="1" stop-color="#0088fa"/></linearGradient><radialGradient id="E" cx="0" cy="0" r="1" gradientTransform="matrix(-22.0896 0 0 -25.7711 125.593 104.506)" gradientUnits="userSpaceOnUse"><stop stop-color="#fc7023"/><stop offset="1" stop-color="#e00321"/></radialGradient><radialGradient id="M" cx="0" cy="0" r="1" gradientTransform="matrix(-37.2251 0 0 -22.4181 61.637 112.733)" gradientUnits="userSpaceOnUse"><stop stop-color="#00ded8"/><stop offset=".997" stop-color="#4aaafd"/></radialGradient><clipPath id="a"><rect width="200" height="130" x="4" y="4" fill="#fff" rx="8"/></clipPath></defs></svg>