<svg width="305" height="217" viewBox="0 0 305 217" fill="none" xmlns="http://www.w3.org/2000/svg">
<g clip-path="url(#clip0_106_39527)">
<path opacity="0.71" d="M140.378 180.46L105.609 118.229L104.23 115.275V53.6843H73.7264V115.274L72.3476 118.229L37.578 180.46C28.9994 195.814 40.0985 214.73 57.6866 214.73H120.27C137.858 214.73 148.957 195.814 140.378 180.46Z" fill="url(#paint0_linear_106_39527)"/>
<mask id="mask0_106_39527" style="mask-type:luminance" maskUnits="userSpaceOnUse" x="34" y="53" width="110" height="162">
<path fill-rule="evenodd" clip-rule="evenodd" d="M140.377 180.46L105.608 118.229L104.229 115.275V53.6846H73.7257V115.275L72.3468 118.229L37.5773 180.46C28.9987 195.814 40.0978 214.73 57.6859 214.73H120.269C137.857 214.73 148.956 195.814 140.377 180.46Z" fill="white"/>
</mask>
<g mask="url(#mask0_106_39527)">
<path opacity="0.47" d="M73.7262 77.5358C74.5935 59.2336 76.6716 60.3011 92.7163 57.4637C108.761 54.6262 76.029 54.6262 76.029 54.6262L64.7246 56.0038" fill="url(#paint1_linear_106_39527)"/>
</g>
<path d="M96.4473 159.688C81.3125 147.554 69.3411 147.688 55.3916 153.548L41.424 178.547C33.4872 192.753 43.756 210.253 60.0282 210.253H117.928C134.2 210.253 144.469 192.753 136.532 178.547L125.054 158.004C116.304 164.068 107.359 168.436 96.4473 159.688Z" fill="url(#paint2_radial_106_39527)"/>
<mask id="mask1_106_39527" style="mask-type:luminance" maskUnits="userSpaceOnUse" x="38" y="149" width="102" height="62">
<path fill-rule="evenodd" clip-rule="evenodd" d="M96.4485 159.688C81.3138 147.554 69.3423 147.688 55.3928 153.548L41.4252 178.547C33.4885 192.753 43.7572 210.253 60.0294 210.253H117.929C134.202 210.253 144.47 192.753 136.534 178.547L125.055 158.004C116.305 164.068 107.36 168.436 96.4485 159.688Z" fill="white"/>
</mask>
<g mask="url(#mask1_106_39527)">
<path opacity="0.41" d="M61.6759 149.066C39.8017 206.207 95.0862 202.781 129.161 207.088C163.235 211.394 94.3922 219.648 88.9795 219.289C83.5669 218.93 31.8899 208.882 29.7367 208.523C27.5835 208.164 19.3295 174.431 26.8658 165.818C34.402 157.205 41.2205 145.721 41.2205 145.721" fill="url(#paint3_linear_106_39527)"/>
</g>
<rect x="69.1956" y="51.7889" width="39.5663" height="5.67485" rx="2.83742" fill="url(#paint4_linear_106_39527)"/>
<circle opacity="0.2" cx="71.733" cy="176.587" r="1.51063" fill="white"/>
<circle opacity="0.2" cx="88.9496" cy="175.515" r="2.08758" fill="white"/>
<circle opacity="0.2" cx="75.452" cy="185.212" r="1.29112" fill="white"/>
<circle opacity="0.2" cx="123.849" cy="187.976" r="4.97026" fill="white"/>
<path d="M195.209 209.299H224.126L211.758 129.215L195.476 105.908L184.35 135.071L195.209 209.299Z" fill="url(#paint5_linear_106_39527)"/>
<path d="M181.333 176.237C205.85 178.182 221.251 165.295 221.251 165.295C221.251 165.295 219.921 115.338 210.158 106.959C205.07 102.593 182.58 105.89 182.58 105.89L181.333 176.237Z" fill="url(#paint6_linear_106_39527)"/>
<mask id="mask2_106_39527" style="mask-type:luminance" maskUnits="userSpaceOnUse" x="181" y="104" width="41" height="73">
<path fill-rule="evenodd" clip-rule="evenodd" d="M181.333 176.237C205.85 178.182 221.251 165.295 221.251 165.295C221.251 165.295 219.921 115.338 210.158 106.959C205.07 102.593 182.58 105.89 182.58 105.89L181.333 176.237Z" fill="white"/>
</mask>
<g mask="url(#mask2_106_39527)">
<path d="M183.252 183.807C196.267 184.38 212.807 157.948 205.827 141.063C198.847 124.178 181.334 146.531 181.334 146.531L172.186 159.994L170.635 176.437" fill="url(#paint7_linear_106_39527)"/>
</g>
<circle cx="158.27" cy="102.593" r="20.8725" fill="url(#paint8_linear_106_39527)"/>
<circle cx="177.874" cy="87.4725" r="20.8725" fill="url(#paint9_linear_106_39527)"/>
<path d="M93.6172 208.041L179.562 211.866L192.975 180.261C192.975 180.261 208.97 169.636 205.827 141.063L199.705 105.889L126.664 107.394L93.6172 208.041Z" fill="url(#paint10_linear_106_39527)"/>
<mask id="mask3_106_39527" style="mask-type:luminance" maskUnits="userSpaceOnUse" x="93" y="105" width="114" height="107">
<path fill-rule="evenodd" clip-rule="evenodd" d="M93.6162 208.041L179.561 211.866L192.974 180.261C192.974 180.261 208.969 169.636 205.826 141.063L199.704 105.889L126.663 107.394L93.6162 208.041Z" fill="white"/>
</mask>
<g mask="url(#mask3_106_39527)">
<path d="M148.934 141.221C131.714 182.991 128.884 194.659 152.615 194.816C176.345 194.973 160.095 198.454 160.095 198.454C160.095 198.454 148.297 206.857 165.116 208.041C181.934 209.224 109.692 218.78 109.692 218.78L89.8154 211.136L112.749 157.603L148.934 141.221" fill="url(#paint11_linear_106_39527)"/>
</g>
<path d="M107.447 198.612L144.222 138.264L118.134 126.005L71.4175 195.689L107.447 198.612Z" fill="url(#paint12_linear_106_39527)"/>
<mask id="mask4_106_39527" style="mask-type:luminance" maskUnits="userSpaceOnUse" x="71" y="126" width="74" height="73">
<path fill-rule="evenodd" clip-rule="evenodd" d="M107.447 198.612L144.221 138.264L118.133 126.005L71.417 195.689L107.447 198.612Z" fill="white"/>
</mask>
<g mask="url(#mask4_106_39527)">
<path opacity="0.34" d="M75.0002 166.688C111.718 184.831 126.083 176.366 124.317 172.664C122.551 168.961 96.9497 157.604 96.9497 157.604H87.9594" fill="url(#paint13_linear_106_39527)"/>
</g>
<path d="M87.0158 198.093L85.7929 200.253C84.597 207.731 88.1552 212.78 95.7282 212.78L143.592 213.934C150.507 213.934 160.094 198.454 160.094 198.454C160.094 198.454 165.987 199.24 167.637 194.683C167.637 194.683 172.744 194.984 174.001 191.212C174.001 191.212 176.801 193.852 178.301 195.13C179.591 196.229 184.522 192.392 176.39 185.192L169.078 179.353C169.078 179.353 172.352 177.739 174.238 178.211C176.124 178.682 179.448 182.946 182.881 180.883C185.16 179.513 176.281 172.239 173.452 171.453C170.623 170.667 157.579 173.496 156.322 174.282C155.065 175.068 143.906 194.525 143.906 194.525L83.2407 189.362C76.8179 188.816 88.0337 191.728 87.0158 198.093Z" fill="url(#paint14_linear_106_39527)"/>
<circle cx="184.198" cy="57.8725" r="20.8725" fill="url(#paint15_linear_106_39527)"/>
<path d="M188.592 90.5244L176.746 114.627L159.36 107.98L174.175 84.6345L188.592 90.5244Z" fill="url(#paint16_linear_106_39527)"/>
<mask id="mask5_106_39527" style="mask-type:luminance" maskUnits="userSpaceOnUse" x="159" y="84" width="30" height="31">
<path fill-rule="evenodd" clip-rule="evenodd" d="M188.592 90.5245L176.745 114.627L159.359 107.98L174.174 84.6346L188.592 90.5245Z" fill="white"/>
</mask>
<g mask="url(#mask5_106_39527)">
<path opacity="0.34" d="M174.746 87.4722C188.411 94.2515 177.692 102.693 180.073 110.277C182.455 117.861 193.362 93.5413 193.362 93.5413L189.914 87.8374L174.746 87.4722Z" fill="url(#paint17_linear_106_39527)"/>
</g>
<path d="M171.104 86.4212C202.131 112.935 213.225 64.6085 185.96 53.8829C155.073 41.7332 171.104 86.4212 171.104 86.4212Z" fill="url(#paint18_linear_106_39527)"/>
<circle cx="163.325" cy="69.652" r="20.8725" fill="url(#paint19_linear_106_39527)"/>
<ellipse cx="181.538" cy="51.7891" rx="10.9033" ry="7.52422" fill="url(#paint20_linear_106_39527)"/>
<path d="M127.93 207.547H182.745V214.645H120.831C120.831 212.762 121.579 210.957 122.91 209.626C124.241 208.295 126.047 207.547 127.93 207.547V207.547Z" fill="url(#paint21_linear_106_39527)"/>
<path d="M255.248 214.644H170.274L201.593 162.417C203.11 159.888 207.215 157.838 210.762 157.838H285.07C288.617 157.838 290.263 159.888 288.746 162.417L258.549 212.775C257.853 213.935 256.6 214.644 255.248 214.644Z" fill="url(#paint22_linear_106_39527)"/>
<mask id="mask6_106_39527" style="mask-type:luminance" maskUnits="userSpaceOnUse" x="170" y="157" width="120" height="58">
<path fill-rule="evenodd" clip-rule="evenodd" d="M255.248 214.644H170.274L201.593 162.417C203.11 159.888 207.215 157.838 210.762 157.838H285.07C288.617 157.838 290.263 159.888 288.746 162.417L258.549 212.775C257.853 213.935 256.6 214.644 255.248 214.644Z" fill="white"/>
</mask>
<g mask="url(#mask6_106_39527)">
<path d="M247.14 149.256C306.32 168.632 256.952 221.744 192.44 214.645C127.929 207.547 267.875 245.523 267.875 245.523L302 217.013L314.312 149.841" fill="url(#paint23_linear_106_39527)"/>
</g>
<path d="M237.212 185.293C235.038 185.293 234.029 184.035 234.959 182.485C235.444 181.676 236.365 180.952 237.439 180.44C236.515 180.174 235.556 180.044 234.593 180.054C229.529 180.054 223.669 182.982 221.503 186.593C219.338 190.204 221.688 193.131 226.752 193.131C231.815 193.131 237.675 190.204 239.841 186.593C240.303 185.821 240.548 185.085 240.616 184.398C239.569 184.945 238.346 185.293 237.212 185.293Z" fill="url(#paint24_linear_106_39527)"/>
<path d="M142.207 189.354C151.366 204.131 144.221 217 144.221 217L89.2604 214.644C70.2371 214.644 69.7425 205.566 70.2591 194.717C70.3917 191.893 71.1539 189.134 72.4899 186.643C80.9396 170.885 111.629 110.996 122.912 107.863C135.927 104.249 153.049 122.11 152.613 138.237L118.034 186.241L142.207 189.354Z" fill="url(#paint25_linear_106_39527)"/>
<g opacity="0.44">
<rect x="186.114" y="144.011" width="17.8274" height="11.4412" rx="1.48775" transform="rotate(-5.2069 186.114 144.011)" fill="url(#paint26_linear_106_39527)"/>
<mask id="mask7_106_39527" style="mask-type:luminance" maskUnits="userSpaceOnUse" x="186" y="142" width="19" height="14">
<rect x="186.115" y="144.011" width="17.8274" height="11.4412" rx="1.48775" transform="rotate(-5.2069 186.115 144.011)" fill="white"/>
</mask>
<g mask="url(#mask7_106_39527)">
<path d="M186.241 154.872C203.426 153.923 204.071 154.261 204.389 148.091C204.706 141.92 207.895 153.515 207.895 153.515L203.693 156.708L185.657 156.82" fill="url(#paint27_linear_106_39527)"/>
</g>
<circle cx="191.098" cy="148.889" r="2.56235" fill="white"/>
<rect x="195.207" y="146.088" width="7.00176" height="0.62569" transform="rotate(-5.2069 195.207 146.088)" fill="white"/>
<rect x="195.401" y="148.214" width="7.00176" height="0.62569" transform="rotate(-5.2069 195.401 148.214)" fill="white"/>
<rect x="195.595" y="150.34" width="5.1159" height="0.62569" transform="rotate(-5.2069 195.595 150.34)" fill="white"/>
<path d="M194.62 139.127C195.814 139.019 196.87 139.898 196.979 141.092L197.153 143.005L192.829 143.399L192.655 141.486C192.546 140.292 193.426 139.236 194.62 139.127V139.127Z" fill="url(#paint28_linear_106_39527)"/>
<mask id="mask8_106_39527" style="mask-type:luminance" maskUnits="userSpaceOnUse" x="192" y="139" width="6" height="5">
<path fill-rule="evenodd" clip-rule="evenodd" d="M194.62 139.127C195.814 139.018 196.87 139.898 196.979 141.092L197.153 143.005L192.829 143.399L192.655 141.486C192.546 140.292 193.426 139.236 194.62 139.127V139.127Z" fill="white"/>
</mask>
<g mask="url(#mask8_106_39527)">
<path d="M197.335 141.068C196.936 142.532 192.679 142.405 192.321 142.867C191.964 143.328 193.481 143.898 193.481 143.898L197.767 143.507L197.553 141.581" fill="url(#paint29_linear_106_39527)"/>
</g>
<rect x="189.835" y="143.088" width="10.2795" height="2.26447" transform="rotate(-5.20947 189.835 143.088)" fill="url(#paint30_linear_106_39527)"/>
</g>
<path d="M183.993 113.685L188.889 121.999L186.345 149.484L170.096 152.454L157.669 123.381L159.504 113.381L170.599 114.761L176.708 114.328L181.564 114.439" fill="url(#paint31_linear_106_39527)"/>
<path d="M177.28 119.818L186.493 147.648L181.499 173.929L176.804 170.928L170.602 147.869L172.081 118.28L177.28 119.818Z" fill="url(#paint32_linear_106_39527)"/>
<path d="M180.179 113.853L177.528 120.107C176.878 121.642 175.486 122.612 173.86 122.664L172.547 122.705C170.941 122.756 169.335 121.904 168.303 120.451L164.564 115.192L172.777 114.181L180.179 113.853Z" fill="url(#paint33_linear_106_39527)"/>
<path d="M185.464 107.059C185.464 107.059 184.371 101.912 182.965 101.974C182.965 101.974 178.547 110.483 175.625 113.853L181.811 123.887C181.811 123.887 188.933 113.19 185.464 107.059Z" fill="url(#paint34_linear_106_39527)"/>
<path d="M157.438 107.667C157.438 107.667 158.982 102.24 163.486 101.478C163.486 101.478 169.448 110.402 178.119 113.854L169.805 124.298C169.805 124.298 155.673 114.029 157.438 107.667Z" fill="url(#paint35_linear_106_39527)"/>
<path d="M184.913 105.026C184.913 105.026 181.27 164.906 178.547 171.637L181.334 176.236L194.734 141.051L189.373 134.791L197.972 131.413L188.889 107.392C188.889 107.392 188.756 105.026 184.913 105.026Z" fill="white"/>
<path d="M159.591 103.892L181.333 176.236L154.942 145.434L161.509 136.003L152.622 131.628L154.769 110.675C154.769 110.675 154.411 105.957 159.591 103.892Z" fill="white"/>
<circle cx="171.401" cy="198.211" r="2.26785" fill="white"/>
<path d="M202.035 74.0178C200.619 70.8831 194.523 80.7936 182.686 77.0056C180.679 77.2587 182.266 90.7765 179.143 91.1527C197.355 110.015 207.075 89.8523 202.035 74.0178Z" fill="url(#paint36_linear_106_39527)"/>
<path d="M186.466 79.5281L183.777 77.5768L173.306 75.5538L174.129 76.7314L184.146 79.8967" fill="white"/>
<path d="M181.3 89.9225L169.676 85.0342L180.164 91.8172L181.223 90.8286" fill="white"/>
<path d="M181.898 79.1863C164.696 65.0833 159.972 89.7314 179.143 88.8078L181.898 79.1863Z" fill="url(#paint37_linear_106_39527)"/>
<rect x="211.324" y="52.6208" width="52.2524" height="52.2524" rx="4.75807" fill="url(#paint38_linear_106_39527)"/>
<rect x="211.324" y="54.9198" width="52.2524" height="52.2524" rx="4.75807" fill="url(#paint39_linear_106_39527)"/>
<path fill-rule="evenodd" clip-rule="evenodd" d="M236.186 79.7807H215.947V59.5415H236.186V79.7807ZM231.126 64.6016H221.007V74.7212H231.126V64.6016ZM238.716 59.5415V79.7807H258.955V59.5415L238.716 59.5415ZM243.776 74.7212H253.895V64.6016H243.776V74.7212ZM223.537 72.1914H228.597V67.1315H223.537V72.1914ZM236.186 102.55H215.947V82.3114H236.186V102.55ZM221.007 87.3706H231.126V97.4902H221.007V87.3706ZM251.365 67.1316H251.366L251.365 67.1315V67.1316ZM246.306 67.1316H251.365V72.1914H246.306V67.1316ZM238.716 102.55H243.776V97.4901H238.716V102.55ZM243.776 97.4902V87.3706L248.836 87.3706V97.4902H243.776ZM253.895 97.4905H248.836V102.55H258.955V92.4307H253.895V97.4905ZM258.955 87.3705H253.895V82.311H258.955V87.3705ZM238.716 82.311V87.3705H243.776V82.311H238.716ZM228.597 94.9601H223.537V89.9003H228.597V94.9601Z" fill="#51B1A6"/>
<path d="M35.9895 98.7987L40.898 99.4245C39.7609 99.2799 38.637 99.0454 37.5369 98.7232L32.6284 98.0974C33.7285 98.4196 34.8524 98.6541 35.9895 98.7987Z" fill="url(#paint40_linear_106_39527)"/>
<mask id="mask9_106_39527" style="mask-type:luminance" maskUnits="userSpaceOnUse" x="32" y="98" width="9" height="2">
<path fill-rule="evenodd" clip-rule="evenodd" d="M35.9895 98.7987L40.898 99.4245C39.7609 99.2799 38.637 99.0454 37.5369 98.7232L32.6284 98.0974C33.7285 98.4196 34.8524 98.6541 35.9895 98.7987Z" fill="white"/>
</mask>
<g mask="url(#mask9_106_39527)">
<path d="M35.9896 98.7988L40.8981 99.4245C40.836 99.4166 40.7737 99.4084 40.7115 99.3999L35.803 98.7742C35.8652 98.7827 35.9275 98.7909 35.9896 98.7988Z" fill="url(#paint41_linear_106_39527)"/>
</g>
<path d="M61.7185 95.1514C61.6494 94.9641 61.5776 94.7829 61.5013 94.6118C61.4919 94.5907 61.4818 94.5713 61.4723 94.5505C61.4063 94.4057 61.3367 94.2689 61.2654 94.1361C61.2355 94.0804 61.2053 94.0253 61.1745 93.9718C61.1099 93.8597 61.0429 93.7531 60.9742 93.6503C60.947 93.6095 60.9207 93.5664 60.8928 93.5271C60.803 93.4001 60.7069 93.2776 60.6047 93.1603C60.5827 93.1352 60.5598 93.1123 60.5375 93.088C60.4494 92.992 60.3587 92.9022 60.2654 92.8186C60.2438 92.7994 60.2229 92.779 60.2011 92.7605C60.0855 92.6612 59.9631 92.57 59.835 92.4875C59.7509 92.4341 59.666 92.3868 59.5807 92.3436C59.5529 92.3295 59.5248 92.3181 59.4969 92.3051C59.441 92.279 59.385 92.2541 59.3287 92.2322C59.2693 92.2092 59.2095 92.1907 59.1498 92.1724C59.1121 92.1608 59.0745 92.1474 59.0366 92.1376C58.9694 92.1204 58.9019 92.1084 58.8342 92.0968C58.7994 92.0909 58.7649 92.0818 58.73 92.0774L63.6385 92.7032C63.6463 92.7041 63.654 92.7052 63.6618 92.7062C63.6888 92.71 63.7157 92.7179 63.7427 92.7226C63.8103 92.7341 63.8779 92.7461 63.9451 92.7634C63.9831 92.7731 64.0207 92.7865 64.0586 92.7981C64.1182 92.8165 64.1778 92.835 64.237 92.8579C64.249 92.8626 64.2611 92.8652 64.2731 92.87C64.3175 92.888 64.3614 92.9103 64.4056 92.9309C64.4334 92.944 64.4615 92.9554 64.4893 92.9694C64.5746 93.0127 64.6594 93.0599 64.7435 93.1133C64.7694 93.1298 64.7951 93.1467 64.8207 93.164C64.921 93.2328 65.0174 93.3069 65.1096 93.3862C65.1314 93.4048 65.1525 93.4253 65.1741 93.4446C65.2203 93.4858 65.2674 93.5252 65.3123 93.5695C65.3582 93.6149 65.4019 93.6655 65.4464 93.7141C65.4685 93.7382 65.4912 93.7609 65.513 93.7859C65.6022 93.8878 65.6894 93.9946 65.7728 94.1098C65.7827 94.1234 65.7916 94.1391 65.8013 94.1528C65.8292 94.1923 65.8556 94.2354 65.883 94.2764C65.9515 94.3791 66.0185 94.4855 66.083 94.5975C66.1138 94.6511 66.1439 94.706 66.1738 94.7617C66.1985 94.8078 66.225 94.8502 66.2491 94.8977C66.2947 94.9876 66.3381 95.0824 66.3814 95.1774C66.3907 95.1977 66.4005 95.2166 66.4097 95.2372C66.4861 95.4084 66.558 95.5899 66.6271 95.7774C66.6431 95.8208 66.6588 95.865 66.6745 95.9094C66.7424 96.102 66.8081 96.2997 66.8689 96.5085L66.8695 96.5111C66.9384 96.7479 67.0025 96.9949 67.062 97.2522C67.0635 97.2586 67.0661 97.2708 67.0693 97.2857C67.0709 97.2929 67.0734 97.3043 67.0754 97.3135C67.078 97.3249 67.0804 97.3361 67.0836 97.3504C67.0857 97.3597 67.0884 97.3718 67.0907 97.3822C67.0951 97.4016 67.0996 97.422 67.1049 97.4454C67.1078 97.4581 67.1112 97.4729 67.1144 97.4869C67.1198 97.5109 67.1257 97.5364 67.132 97.5639C67.1363 97.5823 67.1409 97.6022 67.1455 97.622C67.1516 97.6484 67.1581 97.6763 67.1649 97.7052C67.1712 97.7324 67.1778 97.7607 67.1848 97.7901C67.1912 97.8172 67.198 97.8456 67.205 97.8746C67.2122 97.905 67.2196 97.9362 67.2274 97.9687C67.2359 98.0041 67.2451 98.0417 67.2542 98.0795C67.2619 98.1111 67.2695 98.1425 67.2777 98.1758C67.2884 98.2193 67.2998 98.2657 67.3113 98.3121C67.3193 98.3444 67.327 98.3757 67.3354 98.4094C67.348 98.4599 67.3616 98.5137 67.3751 98.5672C67.3834 98.6003 67.3913 98.632 67.4 98.6663C67.4218 98.752 67.4446 98.8412 67.4685 98.934C67.4757 98.9616 67.4834 98.9911 67.4908 99.0193C67.5097 99.0922 67.5288 99.1656 67.5491 99.2425C67.5591 99.2806 67.5699 99.3211 67.5803 99.3601C67.5984 99.4282 67.6164 99.4965 67.6355 99.5675C67.6475 99.6123 67.6602 99.659 67.6726 99.7049C67.6907 99.7719 67.7089 99.8392 67.7279 99.9086C67.7417 99.9589 67.7559 100.011 67.7701 100.062C67.7897 100.133 67.8095 100.205 67.83 100.278C67.8441 100.329 67.8586 100.381 67.8731 100.433C67.8944 100.508 67.9162 100.585 67.9384 100.664C67.9541 100.719 67.9701 100.775 67.9862 100.831C68.0081 100.907 68.0304 100.985 68.0531 101.063C68.0686 101.117 68.0842 101.171 68.1001 101.225C68.1542 101.411 68.2105 101.601 68.269 101.797C68.2788 101.83 68.2891 101.863 68.2991 101.896C68.3549 102.082 68.4128 102.272 68.4727 102.466C68.4811 102.494 68.4892 102.52 68.4977 102.548C68.5623 102.757 68.6297 102.971 68.6989 103.189C68.7136 103.235 68.7286 103.282 68.7435 103.328C68.8146 103.551 68.8876 103.777 68.9636 104.008C68.9698 104.027 68.9762 104.046 68.9825 104.065C69.0541 104.282 69.1283 104.504 69.2043 104.728C69.2206 104.776 69.2368 104.824 69.2534 104.873C69.3333 105.108 69.4156 105.346 69.5002 105.588C69.5172 105.636 69.5346 105.685 69.5518 105.734C69.6336 105.966 69.7174 106.201 69.8033 106.439C69.8123 106.464 69.821 106.488 69.83 106.513C69.922 106.766 70.017 107.023 70.114 107.282C70.1354 107.34 70.157 107.397 70.1787 107.455C70.2766 107.715 70.3767 107.977 70.4792 108.242C70.4918 108.274 70.5048 108.307 70.5174 108.339C70.6132 108.585 70.7113 108.833 70.8117 109.083C70.8324 109.135 70.8529 109.187 70.8739 109.239C70.9821 109.507 71.0929 109.777 71.2063 110.05C71.2291 110.104 71.2523 110.16 71.2753 110.214C71.3879 110.483 71.5029 110.754 71.6201 111.026C71.6272 111.042 71.6341 111.058 71.6412 111.075C71.763 111.356 71.8878 111.639 72.0156 111.923C72.0427 111.984 72.0699 112.044 72.0971 112.105C72.2241 112.387 72.3537 112.669 72.4858 112.953C72.5048 112.993 72.5243 113.034 72.5434 113.075C72.6668 113.338 72.7926 113.602 72.9207 113.866C72.9438 113.914 72.9666 113.962 72.9899 114.01C73.1282 114.293 73.2692 114.577 73.413 114.862C73.4445 114.924 73.4762 114.987 73.508 115.049C73.6367 115.302 73.7674 115.555 73.9002 115.808C73.9147 115.835 73.9288 115.863 73.9434 115.89C74.0876 116.164 74.2346 116.437 74.3844 116.71C74.4196 116.774 74.455 116.839 74.4906 116.903C74.6389 117.172 74.7894 117.44 74.9421 117.707C74.947 117.716 74.9517 117.725 74.9567 117.733C75.113 118.006 75.2722 118.278 75.4344 118.549C75.4734 118.614 75.5124 118.68 75.5517 118.745C75.7148 119.016 75.8803 119.286 76.0481 119.555C76.0574 119.57 76.067 119.585 76.0763 119.6C76.2369 119.856 76.4001 120.11 76.5659 120.364C76.6074 120.427 76.649 120.491 76.6907 120.554C76.8645 120.818 77.0408 121.08 77.2195 121.341C77.2404 121.372 77.2618 121.402 77.2827 121.432C77.4461 121.668 77.6118 121.903 77.7799 122.136C77.8188 122.19 77.8579 122.244 77.897 122.299C78.1552 122.654 78.4188 123.006 78.6877 123.353C78.7166 123.39 78.7452 123.428 78.7742 123.465C79.0497 123.818 79.3308 124.166 79.6175 124.509C79.6415 124.537 79.6651 124.567 79.6892 124.595C79.9857 124.948 80.2882 125.294 80.5968 125.634C80.612 125.651 80.6269 125.668 80.6421 125.685C80.9659 126.04 81.2963 126.388 81.6331 126.728L83.5217 128.65L78.6132 128.025L76.7246 126.102C76.3875 125.762 76.0572 125.415 75.7336 125.059C75.7184 125.042 75.7035 125.025 75.6883 125.008C75.3799 124.669 75.0775 124.322 74.7809 123.97C74.7566 123.941 74.7328 123.912 74.7086 123.883C74.4223 123.54 74.1414 123.192 73.8661 122.839C73.8368 122.802 73.8079 122.764 73.7788 122.726C73.5102 122.379 73.2467 122.028 72.9884 121.673C72.975 121.654 72.9606 121.636 72.9472 121.618C72.9215 121.582 72.897 121.546 72.8713 121.51C72.7036 121.277 72.538 121.043 72.3745 120.807C72.3534 120.776 72.3319 120.746 72.3108 120.715C72.1316 120.455 71.9552 120.192 71.7816 119.928C71.7402 119.865 71.699 119.802 71.658 119.739C71.4919 119.484 71.328 119.229 71.1664 118.972C71.1576 118.958 71.1486 118.944 71.1399 118.93C70.9716 118.661 70.8062 118.391 70.6438 118.12C70.6041 118.054 70.5646 117.988 70.5253 117.922C70.3638 117.651 70.2047 117.379 70.0478 117.107C70.0434 117.099 70.0392 117.092 70.0348 117.084C69.8815 116.816 69.731 116.548 69.5832 116.279C69.5469 116.213 69.5106 116.147 69.4746 116.082C69.3256 115.809 69.179 115.537 69.0348 115.265C69.0202 115.237 69.0061 115.209 68.9916 115.182C68.8586 114.929 68.7279 114.676 68.5994 114.423C68.5813 114.387 68.5622 114.352 68.5443 114.316C68.5307 114.29 68.5179 114.263 68.5044 114.236C68.3608 113.952 68.2198 113.668 68.0814 113.384C68.0578 113.336 68.0347 113.287 68.0112 113.239C67.8838 112.976 67.7586 112.713 67.6356 112.451C67.6162 112.409 67.5964 112.368 67.5771 112.327C67.4448 112.043 67.3154 111.761 67.1888 111.48C67.1612 111.418 67.1337 111.357 67.1064 111.296C66.9795 111.013 66.8551 110.731 66.733 110.45C66.7252 110.432 66.7178 110.414 66.71 110.396C66.5931 110.126 66.4789 109.857 66.3673 109.59C66.344 109.535 66.3205 109.479 66.2975 109.423C66.1842 109.151 66.0735 108.881 65.9653 108.613C65.9443 108.561 65.9239 108.509 65.9031 108.458C65.8028 108.208 65.7047 107.959 65.6086 107.713C65.5961 107.681 65.5832 107.648 65.5707 107.616C65.4678 107.351 65.3676 107.089 65.27 106.829C65.2482 106.771 65.2266 106.713 65.205 106.656C65.1082 106.397 65.0137 106.141 64.9214 105.887C64.9124 105.862 64.9037 105.838 64.8947 105.813C64.8084 105.575 64.7244 105.339 64.6427 105.107C64.6257 105.059 64.6086 105.011 64.5919 104.963C64.5071 104.721 64.4248 104.482 64.3448 104.247C64.3282 104.199 64.312 104.151 64.2956 104.102C64.2197 103.878 64.1457 103.657 64.0738 103.439C64.0676 103.42 64.0611 103.401 64.055 103.382C63.9789 103.151 63.906 102.925 63.8348 102.703C63.8199 102.656 63.805 102.609 63.7903 102.563C63.7213 102.346 63.6542 102.133 63.5899 101.925C63.5805 101.895 63.5717 101.865 63.5624 101.835C63.503 101.643 63.4457 101.455 63.3904 101.271C63.3804 101.238 63.3702 101.204 63.3604 101.171C63.3018 100.975 63.2455 100.785 63.1915 100.6C63.1869 100.584 63.1815 100.566 63.1768 100.55C63.1657 100.512 63.1554 100.475 63.1444 100.437C63.1219 100.36 63.0998 100.283 63.0781 100.207C63.0612 100.149 63.0447 100.09 63.0283 100.033C63.0071 99.9582 62.9864 99.8849 62.9661 99.8123C62.9508 99.7581 62.9357 99.7043 62.9209 99.6512C62.9006 99.5783 62.8809 99.5072 62.8615 99.4365C62.8473 99.3849 62.833 99.3333 62.8193 99.283C62.8003 99.2135 62.7821 99.1464 62.764 99.0793C62.7516 99.0333 62.7388 98.9867 62.7269 98.9418C62.7078 98.8708 62.6897 98.8026 62.6717 98.7345C62.6612 98.6954 62.6505 98.655 62.6404 98.6168C62.6202 98.54 62.6011 98.4666 62.5821 98.3936C62.5743 98.3633 62.566 98.3319 62.5584 98.3022C62.5355 98.2134 62.5134 98.1275 62.4925 98.0451C62.4819 98.0034 62.4723 97.9648 62.4622 97.9248C62.4502 97.8771 62.438 97.829 62.4268 97.7837C62.4184 97.75 62.4107 97.7189 62.4028 97.6865C62.3912 97.64 62.3798 97.5937 62.3691 97.5501C62.3609 97.5167 62.3534 97.4856 62.3456 97.4539C62.3365 97.4159 62.3274 97.3786 62.3188 97.3431C62.3109 97.3103 62.3037 97.2796 62.2964 97.249C62.2894 97.2198 62.2827 97.1916 62.2762 97.1645C62.2693 97.135 62.2626 97.1068 62.2563 97.0796C62.2494 97.0503 62.243 97.0231 62.2369 96.9964C62.2322 96.9763 62.2277 96.9568 62.2234 96.9383C62.217 96.9105 62.2113 96.8855 62.2058 96.8612C62.2025 96.847 62.1993 96.8327 62.1964 96.8197C62.191 96.7961 62.1865 96.776 62.1821 96.7566C62.1797 96.7457 62.1771 96.7344 62.175 96.7248C62.1718 96.7103 62.1694 96.6994 62.1669 96.6879C62.1647 96.6782 62.1624 96.6676 62.1607 96.66C62.1573 96.6444 62.1549 96.6332 62.1534 96.6265C62.094 96.3692 62.0298 96.1222 61.961 95.8855C61.9 95.6758 61.8342 95.4771 61.7659 95.2837C61.7503 95.2392 61.7346 95.195 61.7185 95.1514Z" fill="url(#paint42_linear_106_39527)"/>
<path d="M31.5079 211.811C32.1257 211.47 32.7328 211.126 33.3349 210.781C33.4673 210.705 33.5994 210.629 33.7313 210.553C34.3182 210.214 34.8981 209.872 35.471 209.528C35.5581 209.476 35.6436 209.423 35.7303 209.37C36.2484 209.057 36.7602 208.741 37.2658 208.423C37.3733 208.356 37.4818 208.289 37.5888 208.221C38.1399 207.872 38.6838 207.52 39.2204 207.166C39.3344 207.091 39.4472 207.016 39.5605 206.94C40.0608 206.607 40.5552 206.272 41.0437 205.935C41.1007 205.895 41.1588 205.856 41.2156 205.817C41.74 205.452 42.2566 205.085 42.7657 204.714C42.8817 204.63 42.9973 204.545 43.1125 204.461C43.6216 204.088 44.1244 203.712 44.6207 203.333C44.6606 203.303 44.6995 203.271 44.7393 203.241C45.2056 202.882 45.6653 202.521 46.1183 202.156C46.2211 202.074 46.3243 201.991 46.4264 201.909C46.8983 201.526 47.3636 201.141 47.8225 200.753C47.9061 200.682 47.9884 200.61 48.0716 200.539C48.4858 200.185 48.8946 199.828 49.2981 199.468C49.3728 199.402 49.4487 199.336 49.5231 199.269C49.9652 198.871 50.4005 198.471 50.829 198.066C50.9247 197.976 51.0196 197.885 51.1146 197.795C51.5364 197.393 51.9526 196.989 52.363 196.581C52.379 196.565 52.3955 196.549 52.4114 196.533C52.8321 196.113 53.2441 195.687 53.6517 195.259C53.7427 195.163 53.8336 195.067 53.9241 194.971C54.3237 194.546 54.7174 194.118 55.1052 193.687C55.1568 193.629 55.2072 193.57 55.2586 193.513C55.6116 193.116 55.9592 192.715 56.3015 192.312C56.3767 192.223 56.4525 192.135 56.5272 192.046C56.8962 191.607 57.2593 191.164 57.6163 190.716C57.6891 190.625 57.7607 190.533 57.833 190.442C58.1614 190.026 58.485 189.607 58.8037 189.184C58.8479 189.125 58.893 189.067 58.9369 189.009C59.2818 188.547 59.6204 188.081 59.9526 187.611C60.028 187.504 60.1031 187.397 60.1778 187.29C60.5118 186.813 60.8405 186.332 61.164 185.847C61.1795 185.824 61.1944 185.8 61.21 185.776C61.5202 185.307 61.8246 184.832 62.1231 184.353C62.1908 184.245 62.2588 184.137 62.3259 184.029C62.5091 183.732 62.6867 183.432 62.8658 183.132C63.0424 182.836 63.2199 182.542 63.3927 182.243C63.5551 181.962 63.7131 181.677 63.872 181.393C64.0406 181.092 64.2099 180.791 64.3747 180.487C64.5304 180.199 64.6819 179.908 64.8342 179.617C64.9953 179.309 65.1568 179.002 65.3142 178.691C65.4628 178.397 65.6076 178.1 65.7528 177.802C65.9067 177.488 66.0609 177.174 66.211 176.856C66.4009 176.454 66.5876 176.049 66.7713 175.64C66.8395 175.489 66.9094 175.34 66.9768 175.188C67.2316 174.613 67.481 174.033 67.7248 173.447C67.7757 173.325 67.8242 173.2 67.8746 173.077C68.0665 172.609 68.2552 172.138 68.4407 171.662C68.5203 171.457 68.5981 171.25 68.6765 171.044C68.8336 170.631 68.9883 170.215 69.1405 169.796C69.2126 169.598 69.2842 169.398 69.3554 169.199C69.5226 168.727 69.6865 168.252 69.8472 167.773C69.8951 167.631 69.9444 167.49 69.9917 167.347C70.196 166.73 70.3953 166.106 70.5896 165.476C70.6366 165.324 70.6817 165.169 70.728 165.016C70.8805 164.513 71.0301 164.007 71.1767 163.497C71.2226 163.337 71.2681 163.176 71.3134 163.016C71.492 162.38 71.6677 161.741 71.8371 161.093L79.1375 133.172C79.1666 133.061 79.1925 132.949 79.2168 132.837C79.2528 132.672 79.283 132.506 79.3089 132.34C79.3142 132.306 79.3188 132.271 79.3238 132.236C79.352 132.04 79.3745 131.843 79.3887 131.649C79.3907 131.621 79.3915 131.593 79.3932 131.566C79.4009 131.444 79.4058 131.322 79.408 131.202C79.4089 131.158 79.4093 131.114 79.4094 131.07C79.4096 130.953 79.4073 130.838 79.4026 130.724C79.4012 130.692 79.4009 130.659 79.3992 130.628C79.3938 130.529 79.3857 130.431 79.3767 130.335C79.3743 130.31 79.3731 130.285 79.3705 130.26C79.3579 130.139 79.3423 130.021 79.3238 129.905C79.3188 129.873 79.3122 129.843 79.3068 129.812C79.2923 129.728 79.2772 129.645 79.2597 129.564C79.2507 129.523 79.2401 129.483 79.2303 129.442C79.2139 129.374 79.1973 129.306 79.1788 129.24C79.1687 129.204 79.1574 129.169 79.1467 129.134C79.1197 129.046 79.0908 128.96 79.0599 128.876C79.048 128.844 79.0364 128.811 79.0239 128.78C78.9808 128.671 78.9353 128.566 78.8854 128.467C78.8464 128.39 78.8052 128.316 78.7619 128.246C78.7484 128.224 78.7337 128.203 78.7198 128.182C78.6849 128.128 78.6502 128.074 78.6129 128.025L83.5214 128.651C83.5311 128.664 83.5409 128.677 83.5505 128.69C83.5777 128.727 83.6029 128.768 83.6287 128.808C83.6424 128.83 83.6569 128.849 83.6703 128.871C83.7132 128.942 83.7545 129.015 83.7934 129.092L83.794 129.093C83.8438 129.192 83.8892 129.297 83.9323 129.405C83.9448 129.437 83.9565 129.47 83.9685 129.502C83.9994 129.586 84.0283 129.671 84.0551 129.76C84.0617 129.781 84.0698 129.8 84.0761 129.822C84.0802 129.836 84.0832 129.851 84.0873 129.866C84.1057 129.931 84.1223 129.999 84.1386 130.067C84.1485 130.108 84.1592 130.149 84.1683 130.191C84.1856 130.271 84.2006 130.353 84.215 130.437C84.2206 130.468 84.2271 130.499 84.2323 130.531C84.2507 130.647 84.2662 130.765 84.279 130.885C84.2817 130.912 84.283 130.939 84.2855 130.965C84.2944 131.06 84.3024 131.156 84.3076 131.253C84.3081 131.262 84.3092 131.271 84.3097 131.28C84.3109 131.303 84.3101 131.328 84.3111 131.351C84.3158 131.464 84.3181 131.579 84.3179 131.695C84.3178 131.739 84.3174 131.784 84.3166 131.828C84.3143 131.948 84.3094 132.069 84.3017 132.191C84.3003 132.214 84.3005 132.236 84.2989 132.259C84.2985 132.264 84.2976 132.269 84.2972 132.275C84.283 132.469 84.2604 132.665 84.2323 132.862C84.2295 132.882 84.2287 132.901 84.2258 132.92C84.2235 132.936 84.2197 132.951 84.2173 132.966C84.1915 133.132 84.1613 133.298 84.1252 133.463C84.1234 133.472 84.1225 133.48 84.1207 133.488C84.0978 133.591 84.0729 133.695 84.046 133.798L76.7456 161.719C76.5761 162.367 76.4004 163.006 76.2218 163.642C76.1766 163.802 76.1311 163.962 76.0853 164.122C76.0388 164.285 75.9937 164.449 75.9466 164.611C75.8454 164.958 75.7403 165.3 75.6362 165.643C75.59 165.795 75.5451 165.95 75.4982 166.102C75.3038 166.732 75.1045 167.356 74.9001 167.974C74.8529 168.116 74.8038 168.256 74.7561 168.398C74.5949 168.877 74.4308 169.353 74.2637 169.825C74.1929 170.025 74.1214 170.223 74.0492 170.421C73.9822 170.606 73.9173 170.794 73.8493 170.977C73.763 171.21 73.6728 171.439 73.5849 171.67C73.5065 171.877 73.4288 172.083 73.3491 172.288C73.1641 172.764 72.9754 173.236 72.783 173.703C72.7327 173.826 72.6842 173.951 72.6333 174.073C72.3898 174.659 72.1405 175.239 71.8856 175.813C71.8177 175.966 71.7471 176.117 71.6784 176.269C71.5368 176.583 71.3967 176.898 71.2517 177.208C71.2088 177.3 71.1631 177.389 71.1198 177.481C70.9694 177.799 70.8151 178.114 70.661 178.429C70.5158 178.726 70.3712 179.023 70.2227 179.317C70.0651 179.628 69.9032 179.936 69.7417 180.244C69.59 180.534 69.4388 180.825 69.2837 181.112C69.1185 181.417 68.9487 181.719 68.7796 182.021C68.621 182.304 68.4633 182.588 68.3012 182.868C68.1284 183.167 67.9509 183.462 67.7742 183.758C67.6493 183.967 67.5285 184.179 67.4016 184.387C67.3466 184.477 67.2898 184.565 67.2343 184.654C67.1672 184.763 67.0992 184.871 67.0315 184.979C66.7325 185.457 66.4286 185.93 66.1197 186.4C66.1036 186.424 66.0881 186.449 66.072 186.473C65.7502 186.959 65.4219 187.44 65.087 187.915C65.0117 188.023 64.9362 188.13 64.8605 188.237C64.5275 188.707 64.1892 189.173 63.8454 189.634C63.8013 189.693 63.7561 189.751 63.7119 189.81C63.3938 190.233 63.0704 190.652 62.7418 191.067C62.6694 191.159 62.5975 191.251 62.5246 191.342C62.1678 191.789 61.805 192.232 61.4362 192.671C61.361 192.761 61.2846 192.849 61.209 192.938C60.8671 193.341 60.5202 193.741 60.1683 194.137C60.1163 194.195 60.0654 194.255 60.0132 194.313C59.6263 194.745 59.2328 195.173 58.8326 195.597C58.7421 195.693 58.6513 195.789 58.56 195.884C58.1527 196.312 57.7411 196.738 57.3207 197.158C57.3034 197.176 57.2854 197.193 57.268 197.21C56.8597 197.617 56.4446 198.021 56.0228 198.421C55.928 198.511 55.8333 198.601 55.7379 198.691C55.3086 199.096 54.8731 199.497 54.4315 199.894C54.357 199.961 54.2811 200.028 54.2063 200.094C53.8033 200.453 53.3949 200.81 52.9811 201.164C52.8973 201.235 52.8145 201.307 52.7302 201.379C52.2722 201.767 51.8073 202.152 51.3356 202.534C51.2328 202.617 51.129 202.7 51.0256 202.783C50.5728 203.146 50.1142 203.507 49.6499 203.865C49.6091 203.896 49.5693 203.928 49.5285 203.959C49.0338 204.338 48.5314 204.714 48.0213 205.086C47.9057 205.171 47.7897 205.256 47.6734 205.34C47.1631 205.711 46.6464 206.078 46.1232 206.443C46.0675 206.482 46.0105 206.52 45.9545 206.559C45.4654 206.897 44.9696 207.233 44.4673 207.567C44.3549 207.642 44.2429 207.717 44.1298 207.792C43.5929 208.146 43.0489 208.497 42.498 208.846C42.3904 208.914 42.2812 208.982 42.1731 209.05C41.6676 209.367 41.1561 209.682 40.6388 209.996C40.552 210.048 40.4665 210.101 40.3794 210.154C39.8073 210.498 39.2275 210.84 38.6398 211.179C38.5082 211.255 38.376 211.331 38.2433 211.407C37.6412 211.752 37.0341 212.096 36.4164 212.436C36.0735 212.635 35.6966 212.767 35.305 212.826C35.1572 212.847 35.0079 212.855 34.8587 212.85C34.7845 212.847 34.7104 212.841 34.6365 212.832L29.728 212.206C30.3193 212.281 30.9221 212.139 31.5079 211.811Z" fill="url(#paint43_linear_106_39527)"/>
<mask id="mask10_106_39527" style="mask-type:luminance" maskUnits="userSpaceOnUse" x="29" y="128" width="56" height="85">
<path fill-rule="evenodd" clip-rule="evenodd" d="M31.5077 211.811C32.1254 211.47 32.7325 211.126 33.3347 210.781C33.467 210.705 33.5992 210.629 33.7311 210.553C34.3179 210.214 34.8978 209.872 35.4707 209.528C35.5578 209.476 35.6433 209.423 35.7301 209.37C36.2481 209.057 36.7599 208.741 37.2656 208.423C37.3731 208.356 37.4816 208.288 37.5885 208.221C38.1397 207.872 38.6836 207.52 39.2202 207.166C39.3342 207.091 39.447 207.015 39.5603 206.94C40.0606 206.607 40.555 206.272 41.0435 205.935C41.1004 205.895 41.1586 205.856 41.2153 205.817C41.7397 205.452 42.2564 205.085 42.7654 204.714C42.8814 204.63 42.9971 204.545 43.1123 204.461C43.6214 204.088 44.1241 203.712 44.6205 203.333C44.6604 203.302 44.6993 203.271 44.7391 203.241C45.2054 202.882 45.6651 202.521 46.1181 202.156C46.2208 202.074 46.324 201.991 46.4262 201.909C46.898 201.526 47.3634 201.141 47.8223 200.752C47.9059 200.681 47.9881 200.61 48.0713 200.539C48.4856 200.185 48.8944 199.828 49.2978 199.468C49.3726 199.402 49.4484 199.335 49.5228 199.269C49.9649 198.871 50.4002 198.47 50.8288 198.066C50.9245 197.976 51.0194 197.885 51.1144 197.795C51.5362 197.393 51.9523 196.989 52.3628 196.581C52.3788 196.565 52.3953 196.549 52.4112 196.533C52.8319 196.112 53.2438 195.687 53.6514 195.258C53.7425 195.163 53.8333 195.067 53.9239 194.971C54.3234 194.546 54.7171 194.118 55.105 193.687C55.1566 193.629 55.2069 193.57 55.2584 193.513C55.6113 193.116 55.9589 192.715 56.3013 192.311C56.3765 192.223 56.4523 192.135 56.527 192.046C56.896 191.607 57.259 191.163 57.6161 190.716C57.6888 190.625 57.7605 190.533 57.8328 190.441C58.1612 190.026 58.4848 189.606 58.8035 189.184C58.8476 189.125 58.8927 189.067 58.9367 189.008C59.2816 188.547 59.6201 188.081 59.9523 187.61C60.0278 187.504 60.1028 187.397 60.1775 187.29C60.5115 186.813 60.8403 186.332 61.1637 185.847C61.1793 185.823 61.1942 185.8 61.2097 185.776C61.52 185.307 61.8243 184.832 62.1228 184.353C62.1906 184.245 62.2585 184.137 62.3257 184.028C62.5088 183.732 62.6864 183.431 62.8655 183.132C63.0422 182.836 63.2197 182.541 63.3925 182.243C63.5548 181.962 63.7128 181.677 63.8717 181.393C64.0404 181.092 64.2097 180.791 64.3745 180.487C64.5301 180.199 64.6816 179.908 64.8339 179.617C64.995 179.309 65.1566 179.002 65.3139 178.691C65.4625 178.397 65.6073 178.099 65.7526 177.802C65.9064 177.488 66.0606 177.174 66.2108 176.856C66.4006 176.454 66.5874 176.048 66.771 175.64C66.8392 175.489 66.9091 175.34 66.9766 175.188C67.2314 174.613 67.4807 174.033 67.7246 173.447C67.7754 173.325 67.824 173.2 67.8743 173.077C68.0663 172.609 68.255 172.137 68.4404 171.662C68.5201 171.457 68.5979 171.25 68.6763 171.044C68.8334 170.631 68.988 170.215 69.1403 169.796C69.2123 169.597 69.284 169.398 69.3552 169.199C69.5223 168.727 69.6863 168.252 69.8469 167.773C69.8948 167.631 69.9441 167.49 69.9914 167.347C70.1958 166.73 70.3951 166.106 70.5894 165.476C70.6364 165.324 70.6814 165.169 70.7278 165.016C70.8802 164.513 71.0298 164.007 71.1765 163.497C71.2223 163.337 71.2679 163.176 71.3131 163.015C71.4918 162.38 71.6675 161.741 71.8368 161.093L79.1372 133.172C79.1664 133.061 79.1922 132.949 79.2165 132.837C79.2526 132.672 79.2828 132.506 79.3086 132.34C79.314 132.305 79.3185 132.271 79.3235 132.236C79.3517 132.039 79.3743 131.843 79.3884 131.649C79.3904 131.621 79.3912 131.593 79.393 131.566C79.4006 131.443 79.4056 131.322 79.4078 131.202C79.4087 131.157 79.409 131.113 79.4091 131.069C79.4094 130.953 79.4071 130.838 79.4023 130.724C79.401 130.692 79.4007 130.659 79.3989 130.628C79.3935 130.529 79.3855 130.431 79.3764 130.335C79.374 130.31 79.3729 130.285 79.3703 130.26C79.3576 130.139 79.3421 130.021 79.3235 129.905C79.3185 129.873 79.312 129.843 79.3065 129.812C79.292 129.728 79.277 129.645 79.2594 129.564C79.2504 129.523 79.2399 129.483 79.2301 129.442C79.2137 129.374 79.1971 129.306 79.1785 129.24C79.1684 129.204 79.1571 129.169 79.1464 129.134C79.1194 129.045 79.0905 128.96 79.0597 128.876C79.0477 128.844 79.0362 128.811 79.0236 128.78C78.9805 128.671 78.9351 128.566 78.8852 128.467C78.8462 128.39 78.805 128.316 78.7617 128.246C78.7482 128.223 78.7335 128.203 78.7196 128.182C78.6847 128.128 78.6499 128.074 78.6126 128.025L83.5211 128.65C83.5309 128.663 83.5406 128.677 83.5503 128.69C83.5774 128.727 83.6026 128.768 83.6284 128.808C83.6422 128.829 83.6567 128.849 83.6701 128.871C83.713 128.942 83.7542 129.015 83.7931 129.092L83.7938 129.093C83.8436 129.192 83.889 129.297 83.932 129.405C83.9446 129.437 83.9562 129.47 83.9683 129.502C83.9991 129.586 84.028 129.671 84.0549 129.76C84.0614 129.781 84.0696 129.8 84.0758 129.822C84.08 129.836 84.083 129.851 84.087 129.866C84.1055 129.931 84.122 129.999 84.1384 130.067C84.1482 130.108 84.1589 130.148 84.168 130.19C84.1854 130.271 84.2004 130.353 84.2148 130.436C84.2203 130.468 84.2269 130.499 84.2321 130.531C84.2504 130.647 84.266 130.765 84.2787 130.885C84.2814 130.911 84.2827 130.938 84.2852 130.965C84.2941 131.06 84.3021 131.156 84.3074 131.253C84.3079 131.262 84.309 131.271 84.3094 131.28C84.3106 131.303 84.3098 131.327 84.3109 131.351C84.3156 131.464 84.3178 131.579 84.3176 131.695C84.3175 131.739 84.3171 131.783 84.3163 131.828C84.3141 131.948 84.3092 132.069 84.3015 132.191C84.3001 132.214 84.3003 132.236 84.2987 132.258C84.2983 132.264 84.2973 132.269 84.2969 132.275C84.2828 132.469 84.2602 132.665 84.232 132.862C84.2292 132.882 84.2285 132.901 84.2256 132.92C84.2233 132.935 84.2195 132.951 84.2171 132.966C84.1913 133.132 84.1611 133.298 84.1249 133.463C84.1232 133.471 84.1222 133.48 84.1204 133.488C84.0976 133.591 84.0727 133.695 84.0457 133.798L76.7453 161.719C76.5759 162.367 76.4002 163.006 76.2216 163.641C76.1764 163.802 76.1309 163.962 76.0851 164.122C76.0385 164.285 75.9935 164.449 75.9464 164.611C75.8452 164.958 75.7401 165.299 75.6359 165.643C75.5897 165.795 75.5448 165.95 75.498 166.101C75.3036 166.732 75.1042 167.356 74.8998 167.973C74.8527 168.116 74.8035 168.256 74.7558 168.398C74.5947 168.877 74.4306 169.353 74.2635 169.825C74.1927 170.025 74.1212 170.223 74.049 170.421C73.9819 170.606 73.917 170.794 73.849 170.977C73.7627 171.21 73.6725 171.439 73.5846 171.67C73.5062 171.876 73.4285 172.083 73.3489 172.288C73.1639 172.764 72.9752 173.235 72.7828 173.703C72.7324 173.826 72.6839 173.951 72.6331 174.073C72.3895 174.659 72.1403 175.239 71.8854 175.813C71.8174 175.966 71.7469 176.117 71.6782 176.269C71.5366 176.583 71.3964 176.898 71.2514 177.208C71.2085 177.3 71.1628 177.389 71.1196 177.481C70.9692 177.799 70.8148 178.114 70.6607 178.429C70.5156 178.726 70.371 179.023 70.2225 179.317C70.0648 179.628 69.9029 179.936 69.7415 180.244C69.5898 180.534 69.4386 180.825 69.2835 181.112C69.1182 181.417 68.9485 181.718 68.7794 182.02C68.6208 182.304 68.463 182.588 68.301 182.868C68.1282 183.167 67.9507 183.462 67.774 183.758C67.649 183.967 67.5283 184.179 67.4014 184.387C67.3464 184.476 67.2895 184.565 67.2341 184.654C67.1669 184.763 67.0989 184.871 67.0312 184.979C66.7322 185.457 66.4283 185.93 66.1195 186.4C66.1034 186.424 66.0878 186.449 66.0718 186.473C65.75 186.959 65.4216 187.44 65.0868 187.915C65.0115 188.023 64.936 188.13 64.8602 188.237C64.5273 188.707 64.1889 189.173 63.8451 189.634C63.8011 189.693 63.7559 189.751 63.7116 189.81C63.3935 190.233 63.0702 190.652 62.7416 191.067C62.6692 191.158 62.5973 191.251 62.5244 191.342C62.1675 191.789 61.8047 192.232 61.4359 192.671C61.3608 192.761 61.2844 192.849 61.2087 192.938C60.8668 193.341 60.5199 193.741 60.1681 194.137C60.1161 194.195 60.0651 194.254 60.0129 194.313C59.626 194.745 59.2325 195.173 58.8323 195.597C58.7419 195.693 58.651 195.789 58.5598 195.884C58.1525 196.312 57.7409 196.738 57.3205 197.158C57.3031 197.175 57.2852 197.192 57.2678 197.21C56.8595 197.617 56.4444 198.021 56.0226 198.421C55.9277 198.511 55.8331 198.601 55.7377 198.691C55.3084 199.096 54.8729 199.497 54.4312 199.894C54.3568 199.961 54.2809 200.027 54.2061 200.094C53.8031 200.453 53.3947 200.81 52.9809 201.164C52.8971 201.235 52.8142 201.307 52.73 201.379C52.272 201.767 51.8071 202.152 51.3354 202.534C51.2326 202.617 51.1287 202.7 51.0253 202.783C50.5725 203.146 50.114 203.507 49.6496 203.865C49.6089 203.896 49.5691 203.928 49.5282 203.959C49.0335 204.338 48.5311 204.714 48.021 205.086C47.9054 205.171 47.7894 205.256 47.6731 205.34C47.1629 205.71 46.6462 206.078 46.123 206.443C46.0672 206.482 46.0102 206.52 45.9543 206.559C45.4651 206.897 44.9694 207.233 44.4671 207.567C44.3546 207.642 44.2427 207.717 44.1295 207.791C43.5926 208.145 43.0487 208.497 42.4977 208.846C42.3902 208.914 42.281 208.982 42.1729 209.049C41.6673 209.367 41.1559 209.682 40.6385 209.996C40.5518 210.048 40.4663 210.101 40.3791 210.154C39.8071 210.498 39.2272 210.84 38.6395 211.179C38.5079 211.255 38.3758 211.331 38.2431 211.407C37.641 211.752 37.0338 212.096 36.4161 212.436C36.0733 212.634 35.6963 212.767 35.3048 212.826C35.157 212.847 35.0076 212.855 34.8585 212.85C34.7842 212.847 34.7102 212.841 34.6363 212.832L29.7278 212.206C30.3191 212.281 30.9219 212.139 31.5077 211.811Z" fill="white"/>
</mask>
<g mask="url(#mask10_106_39527)">
<path d="M88.0165 136.636C59.7138 225.28 5.15918 212.225 5.15918 212.225L53.561 227.331L91.7082 185.082" fill="url(#paint44_linear_106_39527)"/>
</g>
<path d="M59.8346 92.4869C58.8293 91.8481 57.7257 91.9432 56.6947 92.624L56.3845 92.8668C56.2711 92.9553 45.0291 101.73 32.6296 98.0963L30.4861 97.4695C29.4359 97.3417 28.3091 98.5429 27.7871 100.539L20.4867 128.461C14.3852 151.797 16.2125 175.798 26.5934 208.719C27.0507 210.14 27.7383 211.229 28.6385 211.801C29.558 212.385 30.5554 212.344 31.5079 211.81C53.6756 199.589 65.7384 184.418 71.8371 161.093L79.1375 133.171C79.6566 131.186 79.4127 129.085 78.6129 128.024L76.7243 126.101C66.2751 115.575 62.2432 97.0459 62.1531 96.6257C61.6786 94.574 60.909 93.1696 59.8346 92.4869Z" fill="url(#paint45_linear_106_39527)"/>
<mask id="mask11_106_39527" style="mask-type:luminance" maskUnits="userSpaceOnUse" x="17" y="92" width="63" height="121">
<path fill-rule="evenodd" clip-rule="evenodd" d="M59.8346 92.4869C58.8293 91.8481 57.7257 91.9432 56.6947 92.624L56.3845 92.8668C56.2711 92.9553 45.0291 101.73 32.6296 98.0963L30.4861 97.4695C29.4359 97.3417 28.3091 98.5429 27.7871 100.539L20.4867 128.461C14.3852 151.797 16.2125 175.798 26.5934 208.719C27.0507 210.14 27.7383 211.229 28.6385 211.801C29.558 212.385 30.5554 212.344 31.5079 211.81C53.6756 199.589 65.7384 184.418 71.8371 161.093L79.1375 133.171C79.6566 131.186 79.4127 129.085 78.6129 128.024L76.7243 126.101C66.2751 115.575 62.2432 97.0459 62.1531 96.6257C61.6786 94.574 60.909 93.1696 59.8346 92.4869Z" fill="white"/>
</mask>
<g mask="url(#mask11_106_39527)">
<path d="M79.4112 119.049C84.7095 186.639 17 215.846 17 215.846L77.4573 219.948L103.604 139.876L84.3179 105.916" fill="url(#paint46_linear_106_39527)"/>
</g>
<path d="M55.8785 104.121C55.0907 103.62 54.2259 103.694 53.4179 104.228L53.1748 104.418C53.0859 104.488 44.2762 111.364 34.5594 108.516L32.8796 108.025C32.0566 107.925 31.1736 108.866 30.7646 110.431L25.0436 132.311C20.2622 150.599 21.6941 169.407 29.8291 195.205C30.1875 196.319 30.7263 197.172 31.4317 197.62C32.1523 198.078 32.9339 198.047 33.6804 197.627C51.052 188.051 60.505 176.162 65.2842 157.883L71.0052 136.003C71.412 134.447 71.2208 132.8 70.594 131.969L69.1141 130.462C60.9256 122.214 57.766 107.693 57.6954 107.364C57.3235 105.756 56.7204 104.656 55.8785 104.121Z" fill="url(#paint47_linear_106_39527)"/>
<mask id="mask12_106_39527" style="mask-type:luminance" maskUnits="userSpaceOnUse" x="22" y="103" width="50" height="95">
<path fill-rule="evenodd" clip-rule="evenodd" d="M55.8777 104.121C55.09 103.62 54.2251 103.695 53.4172 104.228L53.1741 104.419C53.0852 104.488 44.2755 111.365 34.5587 108.517L32.8788 108.026C32.0559 107.925 31.1729 108.867 30.7638 110.431L25.0429 132.312C20.2615 150.599 21.6934 169.407 29.8284 195.206C30.1867 196.319 30.7256 197.173 31.431 197.621C32.1516 198.079 32.9332 198.047 33.6796 197.628C51.0513 188.051 60.5043 176.162 65.2835 157.884L71.0044 136.003C71.4113 134.447 71.2201 132.801 70.5933 131.97L69.1134 130.463C60.9249 122.214 57.7653 107.694 57.6947 107.364C57.3228 105.757 56.7197 104.656 55.8777 104.121Z" fill="white"/>
</mask>
<g mask="url(#mask12_106_39527)">
<path d="M54.5397 108.405C53.6594 107.904 52.6931 107.979 51.7903 108.512L51.5187 108.703C51.4194 108.772 41.5756 115.649 30.7182 112.801L28.8412 112.31C27.9217 112.209 26.9351 113.151 26.478 114.715L20.0855 136.596C14.7429 154.883 16.3429 173.691 25.4328 199.49C25.8332 200.603 26.4353 201.457 27.2235 201.905C28.0286 202.363 28.902 202.331 29.736 201.912C49.1467 192.335 59.7093 180.446 65.0495 162.168L71.4419 140.287C71.8965 138.731 71.6829 137.085 70.9825 136.253L69.3289 134.747C60.1793 126.498 56.6488 111.978 56.5699 111.648C56.1543 110.04 55.4804 108.94 54.5397 108.405Z" fill="url(#paint48_linear_106_39527)"/>
<mask id="mask13_106_39527" style="mask-type:luminance" maskUnits="userSpaceOnUse" x="17" y="108" width="55" height="95">
<path fill-rule="evenodd" clip-rule="evenodd" d="M54.5397 108.405C53.6594 107.904 52.6931 107.979 51.7903 108.512L51.5187 108.703C51.4194 108.772 41.5756 115.649 30.7182 112.801L28.8412 112.31C27.9217 112.209 26.9351 113.151 26.478 114.715L20.0855 136.596C14.7429 154.883 16.3429 173.691 25.4328 199.49C25.8332 200.603 26.4353 201.457 27.2235 201.905C28.0286 202.363 28.902 202.331 29.736 201.912C49.1467 192.335 59.7093 180.446 65.0495 162.168L71.4419 140.287C71.8965 138.731 71.6829 137.085 70.9825 136.253L69.3289 134.747C60.1793 126.498 56.6488 111.978 56.5699 111.648C56.1543 110.04 55.4804 108.94 54.5397 108.405Z" fill="white"/>
</mask>
<g mask="url(#mask13_106_39527)">
<path d="M96.3563 103.784L54.54 108.405C54.54 108.405 35.3178 168.347 31.4315 197.621C27.5452 226.895 84.3179 198.938 84.3179 198.938L101.68 107.121" fill="url(#paint49_linear_106_39527)"/>
</g>
</g>
</g>
<defs>
<linearGradient id="paint0_linear_106_39527" x1="34.6189" y1="214.73" x2="143.337" y2="214.73" gradientUnits="userSpaceOnUse">
<stop offset="0.1023" stop-color="#DCDFF8"/>
<stop offset="0.8855" stop-color="#F5F7FE"/>
</linearGradient>
<linearGradient id="paint1_linear_106_39527" x1="64.7246" y1="77.5358" x2="97.143" y2="77.5358" gradientUnits="userSpaceOnUse">
<stop offset="0.1023" stop-color="#DCDFF8"/>
<stop offset="0.8855" stop-color="#F5F7FE"/>
</linearGradient>
<radialGradient id="paint2_radial_106_39527" cx="0" cy="0" r="1" gradientUnits="userSpaceOnUse" gradientTransform="translate(118.734 167.253) scale(80.9945 48.7775)">
<stop stop-color="#00DED8"/>
<stop offset="0.9965" stop-color="#4AAAFD"/>
</radialGradient>
<linearGradient id="paint3_linear_106_39527" x1="87.4" y1="145.804" x2="84.9537" y2="160.7" gradientUnits="userSpaceOnUse">
<stop stop-color="#00DED8"/>
<stop offset="0.9965" stop-color="#4AAAFD"/>
</linearGradient>
<linearGradient id="paint4_linear_106_39527" x1="69.1956" y1="57.4638" x2="108.762" y2="57.4638" gradientUnits="userSpaceOnUse">
<stop offset="0.1023" stop-color="#DCDFF8"/>
<stop offset="0.8855" stop-color="#F5F7FE"/>
</linearGradient>
<linearGradient id="paint5_linear_106_39527" x1="184.35" y1="209.298" x2="224.126" y2="209.298" gradientUnits="userSpaceOnUse">
<stop offset="0.1023" stop-color="white"/>
<stop offset="0.8855" stop-color="#E3EBFD"/>
</linearGradient>
<linearGradient id="paint6_linear_106_39527" x1="195.803" y1="10.5184" x2="122.25" y2="91.8482" gradientUnits="userSpaceOnUse">
<stop offset="0.1023" stop-color="white"/>
<stop offset="0.8855" stop-color="#E3EBFD"/>
</linearGradient>
<linearGradient id="paint7_linear_106_39527" x1="166.194" y1="210.12" x2="168.658" y2="207.34" gradientUnits="userSpaceOnUse">
<stop offset="0.1023" stop-color="white"/>
<stop offset="0.8855" stop-color="#CDDEFD"/>
</linearGradient>
<linearGradient id="paint8_linear_106_39527" x1="197.541" y1="28.2115" x2="158.93" y2="65.0675" gradientUnits="userSpaceOnUse">
<stop offset="0.1023" stop-color="#915758"/>
<stop offset="0.8855" stop-color="#2C090B"/>
</linearGradient>
<linearGradient id="paint9_linear_106_39527" x1="199.471" y1="29.9619" x2="160.86" y2="66.8179" gradientUnits="userSpaceOnUse">
<stop offset="0.1023" stop-color="#915758"/>
<stop offset="0.8855" stop-color="#2C090B"/>
</linearGradient>
<linearGradient id="paint10_linear_106_39527" x1="130.312" y1="18.1572" x2="101.537" y2="134.212" gradientUnits="userSpaceOnUse">
<stop offset="0.1023" stop-color="white"/>
<stop offset="0.8855" stop-color="#E3EBFD"/>
</linearGradient>
<linearGradient id="paint11_linear_106_39527" x1="113.207" y1="242.89" x2="115.487" y2="238.297" gradientUnits="userSpaceOnUse">
<stop offset="0.1023" stop-color="white"/>
<stop offset="0.8855" stop-color="#CDDEFD"/>
</linearGradient>
<linearGradient id="paint12_linear_106_39527" x1="71.4175" y1="198.612" x2="144.222" y2="198.612" gradientUnits="userSpaceOnUse">
<stop offset="0.1023" stop-color="#FCADBA"/>
<stop offset="0.8855" stop-color="#FBDAD9"/>
</linearGradient>
<linearGradient id="paint13_linear_106_39527" x1="75.0002" y1="177.894" x2="124.461" y2="177.894" gradientUnits="userSpaceOnUse">
<stop offset="0.1011" stop-color="#FF7638"/>
<stop offset="0.8855" stop-color="#FF3929"/>
</linearGradient>
<linearGradient id="paint14_linear_106_39527" x1="81.2439" y1="213.934" x2="183.251" y2="213.934" gradientUnits="userSpaceOnUse">
<stop offset="0.1023" stop-color="#FCADBA"/>
<stop offset="0.8855" stop-color="#FBDAD9"/>
</linearGradient>
<linearGradient id="paint15_linear_106_39527" x1="188.366" y1="16.9986" x2="149.755" y2="53.8545" gradientUnits="userSpaceOnUse">
<stop offset="0.1023" stop-color="#915758"/>
<stop offset="0.8855" stop-color="#2C090B"/>
</linearGradient>
<linearGradient id="paint16_linear_106_39527" x1="190.215" y1="42.216" x2="147.948" y2="83.4093" gradientUnits="userSpaceOnUse">
<stop offset="0.1023" stop-color="#FCADBA"/>
<stop offset="0.8855" stop-color="#FBDAD9"/>
</linearGradient>
<linearGradient id="paint17_linear_106_39527" x1="195.77" y1="51.0919" x2="161.101" y2="72.0173" gradientUnits="userSpaceOnUse">
<stop offset="0.1011" stop-color="#FF7638"/>
<stop offset="0.8855" stop-color="#FF3929"/>
</linearGradient>
<linearGradient id="paint18_linear_106_39527" x1="185.382" y1="19.9266" x2="129.155" y2="57.9921" gradientUnits="userSpaceOnUse">
<stop offset="0.1023" stop-color="#FCADBA"/>
<stop offset="0.8855" stop-color="#FBDAD9"/>
</linearGradient>
<linearGradient id="paint19_linear_106_39527" x1="184.298" y1="12.7372" x2="145.687" y2="49.5931" gradientUnits="userSpaceOnUse">
<stop offset="0.1023" stop-color="#915758"/>
<stop offset="0.8855" stop-color="#2C090B"/>
</linearGradient>
<linearGradient id="paint20_linear_106_39527" x1="175.783" y1="18.4699" x2="153.365" y2="63.4046" gradientUnits="userSpaceOnUse">
<stop offset="0.1023" stop-color="#915758"/>
<stop offset="0.8855" stop-color="#2C090B"/>
</linearGradient>
<linearGradient id="paint21_linear_106_39527" x1="-218.827" y1="188.007" x2="-218.434" y2="271.084" gradientUnits="userSpaceOnUse">
<stop stop-color="#00A6F0"/>
<stop offset="1" stop-color="#006FF1"/>
</linearGradient>
<linearGradient id="paint22_linear_106_39527" x1="100.633" y1="123.872" x2="93.4846" y2="260.762" gradientUnits="userSpaceOnUse">
<stop stop-color="#00A6F0"/>
<stop offset="1" stop-color="#006FF1"/>
</linearGradient>
<linearGradient id="paint23_linear_106_39527" x1="132.645" y1="105.986" x2="142.665" y2="244.989" gradientUnits="userSpaceOnUse">
<stop stop-color="#00A6F0"/>
<stop offset="1" stop-color="#006FF1"/>
</linearGradient>
<linearGradient id="paint24_linear_106_39527" x1="231.973" y1="262.369" x2="231.973" y2="260.641" gradientUnits="userSpaceOnUse">
<stop stop-color="#00A6F0"/>
<stop offset="1" stop-color="#006FF1"/>
</linearGradient>
<linearGradient id="paint25_linear_106_39527" x1="114.79" y1="2.55159" x2="62.6792" y2="107.924" gradientUnits="userSpaceOnUse">
<stop offset="0.1023" stop-color="white"/>
<stop offset="0.8855" stop-color="#E3EBFD"/>
</linearGradient>
<linearGradient id="paint26_linear_106_39527" x1="186.113" y1="155.451" x2="203.941" y2="155.451" gradientUnits="userSpaceOnUse">
<stop stop-color="#FC7023"/>
<stop offset="1" stop-color="#E00321"/>
</linearGradient>
<linearGradient id="paint27_linear_106_39527" x1="181.225" y1="146.502" x2="182.218" y2="158.193" gradientUnits="userSpaceOnUse">
<stop stop-color="#FC7023"/>
<stop offset="1" stop-color="#E00321"/>
</linearGradient>
<linearGradient id="paint28_linear_106_39527" x1="192.008" y1="139.858" x2="193.098" y2="143.621" gradientUnits="userSpaceOnUse">
<stop offset="0.1011" stop-color="#FFE494"/>
<stop offset="1" stop-color="#FFAE00"/>
</linearGradient>
<linearGradient id="paint29_linear_106_39527" x1="192.522" y1="139.791" x2="192.655" y2="140.532" gradientUnits="userSpaceOnUse">
<stop offset="0.1011" stop-color="#FFE494"/>
<stop offset="1" stop-color="#FFAE00"/>
</linearGradient>
<linearGradient id="paint30_linear_106_39527" x1="172.096" y1="136.801" x2="172.176" y2="146.313" gradientUnits="userSpaceOnUse">
<stop offset="0.1011" stop-color="#FFE494"/>
<stop offset="1" stop-color="#FFAE00"/>
</linearGradient>
<linearGradient id="paint31_linear_106_39527" x1="186.018" y1="171.896" x2="183.366" y2="162.167" gradientUnits="userSpaceOnUse">
<stop offset="0.0048" stop-color="#FFED7A"/>
<stop offset="0.9986" stop-color="#FF9D00"/>
</linearGradient>
<linearGradient id="paint32_linear_106_39527" x1="185.533" y1="117.756" x2="170.073" y2="117.941" gradientUnits="userSpaceOnUse">
<stop offset="0.0083" stop-color="#009EFE"/>
<stop offset="1" stop-color="#005DFA"/>
</linearGradient>
<linearGradient id="paint33_linear_106_39527" x1="102.972" y1="122.479" x2="120.869" y2="122.479" gradientUnits="userSpaceOnUse">
<stop offset="0.0083" stop-color="#009EFE"/>
<stop offset="1" stop-color="#005DFA"/>
</linearGradient>
<linearGradient id="paint34_linear_106_39527" x1="163.824" y1="101.423" x2="171.979" y2="128.392" gradientUnits="userSpaceOnUse">
<stop offset="0.0048" stop-color="#FFED7A"/>
<stop offset="0.9986" stop-color="#FF9D00"/>
</linearGradient>
<linearGradient id="paint35_linear_106_39527" x1="144.278" y1="101.324" x2="146.843" y2="130.478" gradientUnits="userSpaceOnUse">
<stop offset="0.0048" stop-color="#FFED7A"/>
<stop offset="0.9986" stop-color="#FF9D00"/>
</linearGradient>
<linearGradient id="paint36_linear_106_39527" x1="189.697" y1="103.993" x2="219.295" y2="96.4765" gradientUnits="userSpaceOnUse">
<stop offset="0.1023" stop-color="white"/>
<stop offset="0.8855" stop-color="#E3EBFD"/>
</linearGradient>
<linearGradient id="paint37_linear_106_39527" x1="180.349" y1="20.365" x2="131.224" y2="79.3432" gradientUnits="userSpaceOnUse">
<stop offset="0.1023" stop-color="#FCADBA"/>
<stop offset="0.8855" stop-color="#FBDAD9"/>
</linearGradient>
<linearGradient id="paint38_linear_106_39527" x1="254.833" y1="76.1068" x2="255.559" y2="41.468" gradientUnits="userSpaceOnUse">
<stop offset="0.1023" stop-color="#DCDFF8"/>
<stop offset="0.8855" stop-color="#F5F7FE"/>
</linearGradient>
<linearGradient id="paint39_linear_106_39527" x1="252.814" y1="135.61" x2="273.161" y2="75.053" gradientUnits="userSpaceOnUse">
<stop offset="0.1023" stop-color="#DCDFF8"/>
<stop offset="0.8855" stop-color="#F5F7FE"/>
</linearGradient>
<linearGradient id="paint40_linear_106_39527" x1="-130.037" y1="99.4245" x2="-121.767" y2="99.4245" gradientUnits="userSpaceOnUse">
<stop offset="0.1011" stop-color="#FFDF94"/>
<stop offset="1" stop-color="#FFA200"/>
</linearGradient>
<linearGradient id="paint41_linear_106_39527" x1="-130.037" y1="99.4245" x2="-124.942" y2="99.4245" gradientUnits="userSpaceOnUse">
<stop offset="0.1011" stop-color="#FFDF94"/>
<stop offset="1" stop-color="#FFA200"/>
</linearGradient>
<linearGradient id="paint42_linear_106_39527" x1="-172.657" y1="128.65" x2="-147.866" y2="128.65" gradientUnits="userSpaceOnUse">
<stop offset="0.1011" stop-color="#FFDF94"/>
<stop offset="1" stop-color="#FFA200"/>
</linearGradient>
<linearGradient id="paint43_linear_106_39527" x1="86.6489" y1="96.6909" x2="50.5504" y2="119.235" gradientUnits="userSpaceOnUse">
<stop offset="0.1011" stop-color="#FFDF94"/>
<stop offset="1" stop-color="#FFA200"/>
</linearGradient>
<linearGradient id="paint44_linear_106_39527" x1="-231.823" y1="179.87" x2="-163.996" y2="226.887" gradientUnits="userSpaceOnUse">
<stop offset="0.1011" stop-color="#FFDF94"/>
<stop offset="1" stop-color="#FFA200"/>
</linearGradient>
<linearGradient id="paint45_linear_106_39527" x1="-169.582" y1="17.551" x2="-314.195" y2="138.792" gradientUnits="userSpaceOnUse">
<stop offset="0.1011" stop-color="#FFDF94"/>
<stop offset="1" stop-color="#FFA200"/>
</linearGradient>
<linearGradient id="paint46_linear_106_39527" x1="-167.078" y1="122.508" x2="-201.106" y2="193.09" gradientUnits="userSpaceOnUse">
<stop offset="0.1011" stop-color="#FFDF94"/>
<stop offset="1" stop-color="#FFA200"/>
</linearGradient>
<linearGradient id="paint47_linear_106_39527" x1="37.3799" y1="226.963" x2="59.4114" y2="202.077" gradientUnits="userSpaceOnUse">
<stop offset="0.1011" stop-color="#FECE63"/>
<stop offset="1" stop-color="#FE860A"/>
</linearGradient>
<linearGradient id="paint48_linear_106_39527" x1="-135.514" y1="57.4759" x2="-207.865" y2="117.829" gradientUnits="userSpaceOnUse">
<stop offset="0.1011" stop-color="#FFDF94"/>
<stop offset="1" stop-color="#FFA200"/>
</linearGradient>
<linearGradient id="paint49_linear_106_39527" x1="-165.115" y1="51.7728" x2="-242.877" y2="134.938" gradientUnits="userSpaceOnUse">
<stop offset="0.1011" stop-color="#FFDF94"/>
<stop offset="1" stop-color="#FFA200"/>
</linearGradient>
<clipPath id="clip0_106_39527">
<rect width="305" height="217" fill="white"/>
</clipPath>
</defs>
</svg>
