<svg width="208" height="138" viewBox="0 0 208 138" fill="none" xmlns="http://www.w3.org/2000/svg">
<g clip-path="url(#clip0_106_39750)">
<rect x="4" y="4" width="200" height="130" rx="8" fill="white"/>
<g opacity="0.19">
<path opacity="0.19" d="M163.27 92.7816C172.23 60.5292 153.063 34.3835 120.46 34.3835C87.8574 34.3835 54.1637 60.5292 45.2037 92.7816C40.8894 108.311 43.0986 122.423 50.1863 132.884H136.005C148.906 122.423 158.956 108.311 163.27 92.7816Z" fill="#057BF4"/>
</g>
<rect x="109" y="92.7318" width="49.7252" height="40.1526" rx="3.22715" fill="url(#paint0_linear_106_39750)"/>
<path opacity="0.71" d="M119.95 56.3717H126.5V84.9955C126.5 86.8042 125.034 88.2705 123.225 88.2705C121.416 88.2705 119.95 86.8042 119.95 84.9955V56.3717H119.95Z" fill="url(#paint1_linear_106_39750)"/>
<mask id="mask0_106_39750" style="mask-type:luminance" maskUnits="userSpaceOnUse" x="119" y="56" width="8" height="33">
<path fill-rule="evenodd" clip-rule="evenodd" d="M119.95 56.3716H126.5V84.9953C126.5 86.8041 125.034 88.2704 123.225 88.2704C121.416 88.2704 119.95 86.8041 119.95 84.9953V56.3716H119.95Z" fill="white"/>
</mask>
<g mask="url(#mask0_106_39750)">
<path opacity="0.47" d="M119.163 62.6458C119.641 56.8382 123.54 57.4019 125.156 57.4019C126.772 57.4019 120.81 56.8868 120.81 56.8868L118.313 57.4019L118.526 59.4937" fill="url(#paint2_linear_106_39750)"/>
<path d="M127.287 75.8872C126.5 84.9955 125.675 88.2797 123.225 88.9171C120.774 89.5544 128.422 89.0587 128.422 89.0587L127.785 78.8614L127.287 75.8872Z" fill="url(#paint3_linear_106_39750)"/>
</g>
<rect x="119.163" y="56.3717" width="8.12412" height="1.03016" rx="0.51508" fill="url(#paint4_linear_106_39750)"/>
<path d="M123.167 87.7605H123.282C124.058 87.7605 124.801 87.4524 125.35 86.904C125.898 86.3556 126.206 85.6118 126.206 84.8363V67.6797C123.318 68.5431 122.527 65.4617 120.243 66.0256V84.8363C120.243 85.6118 120.551 86.3556 121.1 86.904C121.648 87.4524 122.392 87.7605 123.167 87.7605Z" fill="url(#paint5_linear_106_39750)"/>
<circle opacity="0.2" cx="121.922" cy="73.0551" r="0.253072" fill="white"/>
<circle opacity="0.2" cx="124.806" cy="72.8755" r="0.34973" fill="white"/>
<circle opacity="0.2" cx="123.225" cy="83.2561" r="0.927757" fill="white"/>
<circle opacity="0.2" cx="122.545" cy="74.5" r="0.216299" fill="white"/>
<path opacity="0.71" d="M129.87 56.3717H136.42V84.9955C136.42 86.8042 134.953 88.2705 133.145 88.2705C131.336 88.2705 129.87 86.8042 129.87 84.9955V56.3717H129.87Z" fill="url(#paint6_linear_106_39750)"/>
<mask id="mask1_106_39750" style="mask-type:luminance" maskUnits="userSpaceOnUse" x="129" y="56" width="8" height="33">
<path fill-rule="evenodd" clip-rule="evenodd" d="M129.87 56.3715H136.42V84.9952C136.42 86.804 134.954 88.2703 133.145 88.2703C131.336 88.2703 129.87 86.804 129.87 84.9952V56.3715H129.87Z" fill="white"/>
</mask>
<g mask="url(#mask1_106_39750)">
<path opacity="0.47" d="M129.082 62.6457C129.561 56.838 133.459 57.4018 135.075 57.4018C136.691 57.4018 130.729 56.8867 130.729 56.8867L128.233 57.4018L128.446 59.4936" fill="url(#paint7_linear_106_39750)"/>
<path d="M137.207 75.8871C136.42 84.9954 135.595 88.2796 133.145 88.9169C130.694 89.5543 138.342 89.0586 138.342 89.0586L137.705 78.8613L137.207 75.8871Z" fill="url(#paint8_linear_106_39750)"/>
</g>
<rect x="129.083" y="56.3717" width="8.12412" height="1.03016" rx="0.51508" fill="url(#paint9_linear_106_39750)"/>
<path d="M133.087 87.7603H133.202C133.977 87.7603 134.721 87.4523 135.27 86.9039C135.818 86.3555 136.126 85.6117 136.126 84.8362V72.1673C133.238 73.0307 132.447 69.9494 130.163 70.5133V84.8362C130.163 85.6117 130.471 86.3555 131.02 86.9039C131.568 87.4523 132.312 87.7604 133.087 87.7603Z" fill="url(#paint10_linear_106_39750)"/>
<circle opacity="0.2" cx="131.842" cy="73.0551" r="0.253072" fill="white"/>
<circle opacity="0.2" cx="134.726" cy="72.8755" r="0.34973" fill="white"/>
<circle opacity="0.2" cx="133.145" cy="83.2561" r="0.927757" fill="white"/>
<circle opacity="0.2" cx="132.465" cy="74.5" r="0.216299" fill="white"/>
<path opacity="0.71" d="M139.194 56.3717H145.744V84.9955C145.744 86.8042 144.277 88.2705 142.469 88.2705C140.66 88.2705 139.194 86.8042 139.194 84.9955V56.3717H139.194Z" fill="url(#paint11_linear_106_39750)"/>
<mask id="mask2_106_39750" style="mask-type:luminance" maskUnits="userSpaceOnUse" x="139" y="56" width="7" height="33">
<path fill-rule="evenodd" clip-rule="evenodd" d="M139.194 56.3716H145.744V84.9953C145.744 86.8041 144.277 88.2704 142.469 88.2704C140.66 88.2704 139.194 86.8041 139.194 84.9953V56.3716H139.194Z" fill="white"/>
</mask>
<g mask="url(#mask2_106_39750)">
<path opacity="0.47" d="M138.406 62.6458C138.885 56.8382 142.783 57.4019 144.399 57.4019C146.015 57.4019 140.053 56.8868 140.053 56.8868L137.557 57.4019L137.77 59.4937" fill="url(#paint12_linear_106_39750)"/>
<path d="M146.531 75.8872C145.744 84.9955 144.919 88.2797 142.469 88.9171C140.018 89.5544 147.666 89.0587 147.666 89.0587L147.029 78.8614L146.531 75.8872Z" fill="url(#paint13_linear_106_39750)"/>
</g>
<rect x="138.407" y="56.3717" width="8.12412" height="1.03016" rx="0.51508" fill="url(#paint14_linear_106_39750)"/>
<path d="M142.412 87.7603H142.526C143.302 87.7603 144.045 87.4522 144.594 86.9038C145.142 86.3554 145.45 85.6117 145.45 84.8361V70.3465C142.562 71.2099 141.771 68.1286 139.487 68.6925V84.8361C139.487 85.6117 139.795 86.3555 140.344 86.9039C140.892 87.4522 141.636 87.7603 142.412 87.7603Z" fill="url(#paint15_linear_106_39750)"/>
<circle opacity="0.2" cx="141.166" cy="73.0551" r="0.253072" fill="white"/>
<circle opacity="0.2" cx="144.05" cy="72.8755" r="0.34973" fill="white"/>
<circle opacity="0.2" cx="142.469" cy="83.2561" r="0.927757" fill="white"/>
<circle opacity="0.2" cx="141.789" cy="74.5" r="0.216299" fill="white"/>
<rect x="110.704" y="65.343" width="44.2864" height="1.55164" rx="0.775818" fill="url(#paint16_linear_106_39750)"/>
<rect x="114.033" y="63.274" width="1.48699" height="27.9295" rx="0.743494" fill="url(#paint17_linear_106_39750)"/>
<mask id="mask3_106_39750" style="mask-type:luminance" maskUnits="userSpaceOnUse" x="114" y="63" width="2" height="29">
<rect x="114.033" y="63.2742" width="1.48699" height="27.9295" rx="0.743494" fill="white"/>
</mask>
<g mask="url(#mask3_106_39750)">
<path d="M111.817 82.3285C113.164 88.6513 121.139 87.849 121.921 91.4139C122.703 94.9788 116.418 95.7977 115.969 96.0966C115.52 96.3955 113.178 92.3808 112.602 91.4139C112.026 90.4471 110.345 85.4526 110.345 85.4526" fill="url(#paint18_linear_106_39750)"/>
</g>
<rect x="150.173" y="63.274" width="1.48699" height="27.9295" rx="0.743494" fill="url(#paint19_linear_106_39750)"/>
<mask id="mask4_106_39750" style="mask-type:luminance" maskUnits="userSpaceOnUse" x="150" y="63" width="2" height="29">
<rect x="150.173" y="63.2742" width="1.48699" height="27.9295" rx="0.743494" fill="white"/>
</mask>
<g mask="url(#mask4_106_39750)">
<path d="M153.905 69.9081C146.531 75.8872 144.702 74.7159 149.191 79.1022C153.681 83.4885 156.599 84.8353 152.334 86.2944C148.069 87.7534 157.721 87.7604 157.721 87.7604L156.038 72.802L154.99 70.9182" fill="url(#paint20_linear_106_39750)"/>
</g>
<path d="M113.322 90.1045H152.372C153.818 90.1045 154.99 91.2768 154.99 92.7229H110.704C110.704 91.2768 111.876 90.1045 113.322 90.1045L113.322 90.1045Z" fill="url(#paint21_linear_106_39750)"/>
<mask id="mask5_106_39750" style="mask-type:luminance" maskUnits="userSpaceOnUse" x="110" y="90" width="45" height="3">
<path fill-rule="evenodd" clip-rule="evenodd" d="M113.322 90.105H152.371C153.817 90.105 154.99 91.2773 154.99 92.7234H110.703C110.703 91.2773 111.875 90.105 113.322 90.105L113.322 90.105Z" fill="white"/>
</mask>
<g mask="url(#mask5_106_39750)">
<path d="M108.843 92.7232C119.701 92.7232 155.055 90.84 156.655 91.7659C158.254 92.6919 152.867 94.8249 152.53 94.9789C152.193 95.133 108.843 92.7232 108.843 92.7232Z" fill="url(#paint22_linear_106_39750)"/>
</g>
<rect x="45.2385" y="58.0935" width="4.49501" height="6.14318" rx="1.83704" fill="url(#paint23_linear_106_39750)"/>
<rect x="45.2385" y="65.1505" width="4.49501" height="6.14318" rx="1.83704" fill="url(#paint24_linear_106_39750)"/>
<rect x="46.4075" y="41.2418" width="49.2292" height="92.4178" rx="6.32742" fill="url(#paint25_linear_106_39750)"/>
<path d="M87.3276 43.5027H84.1055C83.0677 43.5027 82.2264 44.3595 82.2264 45.4165C82.2264 46.4734 81.3851 47.3302 80.3473 47.3302H61.6963C60.6585 47.3302 59.8172 46.4734 59.8172 45.4165C59.8172 44.3595 58.9759 43.5027 57.9381 43.5027H54.716C51.5299 43.5027 48.947 46.1332 48.947 49.3781V124.157C48.947 127.402 51.5299 130.032 54.716 130.032H87.3276C90.5137 130.032 93.0966 127.402 93.0966 124.157V49.3781C93.0966 46.1332 90.5137 43.5027 87.3276 43.5027Z" fill="#0158B5"/>
<rect x="52.1992" y="53.2617" width="37.6452" height="43.3426" rx="3.67822" fill="white"/>
<rect opacity="0.1" x="52.1992" y="101.279" width="37.6452" height="7.96718" rx="3.98359" fill="white"/>
<rect opacity="0.1" x="52.1992" y="112.306" width="37.6452" height="7.96718" rx="3.98359" fill="white"/>
<path fill-rule="evenodd" clip-rule="evenodd" d="M56.0278 76.171C56.0278 67.9036 62.7542 61.1772 71.0218 61.1772C79.2895 61.1772 86.0159 67.9036 86.0159 76.171C86.0159 84.4389 79.2895 91.1653 71.0218 91.1653C62.7542 91.1653 56.0278 84.4389 56.0278 76.171ZM83.1687 76.171C83.1604 69.4822 77.7112 64.0332 71.022 64.0242C64.3327 64.0332 58.8835 69.4822 58.8753 76.171C58.8835 82.8604 64.3328 88.3094 71.0222 88.3177C77.7111 88.3094 83.1604 82.8604 83.1687 76.171Z" fill="#0158B5"/>
<path d="M69.5291 85.7503H72.5154V72.0736L78.4126 77.9713L78.4194 73.7561L71.0206 66.3586L63.6267 73.7523V77.9729L69.5291 72.0703V85.7503Z" fill="#0158B5"/>
<path d="M84.9365 130.734L91.8027 130.571L94.9179 114.722L86.7365 114.916L84.9365 130.734Z" fill="url(#paint26_linear_106_39750)"/>
<mask id="mask6_106_39750" style="mask-type:luminance" maskUnits="userSpaceOnUse" x="84" y="114" width="11" height="17">
<path fill-rule="evenodd" clip-rule="evenodd" d="M84.9365 130.733L91.8027 130.571L94.9179 114.722L86.7365 114.916L84.9365 130.733Z" fill="white"/>
</mask>
<g mask="url(#mask6_106_39750)">
<path opacity="0.34" d="M86.5944 116.166C84.0922 117.623 93.618 120.097 93.9481 121.76C94.2782 123.423 94.9181 118.236 94.9181 118.236L87.5819 115.123" fill="url(#paint27_linear_106_39750)"/>
</g>
<path d="M93.421 124.406L91.6166 133.775L68.8069 134.315C68.8069 134.315 68.7465 131.217 76.2576 131.134C83.7686 131.05 85.4498 121.318 85.4498 121.318L93.421 124.406Z" fill="url(#paint28_linear_106_39750)"/>
<path d="M114.786 24.8215L130.683 27.1933C131.494 27.2983 132.23 27.7213 132.73 28.3693C133.229 29.0173 133.45 29.8371 133.345 30.6483L131.792 42.5991L124.6 43.3659L125.19 33.7103L112.914 33.3238L114.786 24.8215Z" fill="url(#paint29_linear_106_39750)"/>
<mask id="mask7_106_39750" style="mask-type:luminance" maskUnits="userSpaceOnUse" x="112" y="24" width="22" height="20">
<path fill-rule="evenodd" clip-rule="evenodd" d="M114.786 24.8214L130.683 27.1932C131.494 27.2982 132.23 27.7212 132.73 28.3692C133.229 29.0172 133.45 29.837 133.345 30.6481L131.792 42.5989L124.6 43.3658L125.19 33.7102L112.914 33.3237L114.786 24.8214Z" fill="white"/>
</mask>
<g mask="url(#mask7_106_39750)">
<path d="M115.236 31.759C116.638 29.2909 119.047 33.7511 123.858 33.6704C126.234 33.6305 112.914 36.1056 112.914 36.1056V28.2809" fill="url(#paint30_linear_106_39750)"/>
</g>
<path d="M84.9282 115.471C86.2341 119.331 95.7218 120.043 95.7218 120.043L109.394 52.7368L96.4104 52.1964L84.9282 115.471Z" fill="url(#paint31_linear_106_39750)"/>
<mask id="mask8_106_39750" style="mask-type:luminance" maskUnits="userSpaceOnUse" x="84" y="52" width="26" height="69">
<path fill-rule="evenodd" clip-rule="evenodd" d="M84.9282 115.471C86.2341 119.331 95.7218 120.043 95.7218 120.043L109.394 52.737L96.4104 52.1967L84.9282 115.471Z" fill="white"/>
</mask>
<g mask="url(#mask8_106_39750)">
<path d="M91.2905 62.5113C99.6953 63.0461 97.2219 58.7506 105.408 57.3844C113.595 56.0182 97.1617 52.7311 97.1617 52.7311C95.1109 54.2592 90.832 59.1493 90.832 59.1493" fill="url(#paint32_linear_106_39750)"/>
<path d="M86.3748 100.096C87.473 97.4385 101.659 100.899 100.593 98.979C99.5269 97.0588 84.9368 90.0353 84.9368 90.0353L82.3477 91.6488" fill="url(#paint33_linear_106_39750)"/>
</g>
<path d="M128.784 130.737L121.909 130.582L117.92 115.471L126.112 115.655L128.784 130.737Z" fill="url(#paint34_linear_106_39750)"/>
<mask id="mask9_106_39750" style="mask-type:luminance" maskUnits="userSpaceOnUse" x="117" y="115" width="12" height="16">
<path fill-rule="evenodd" clip-rule="evenodd" d="M128.784 130.737L121.909 130.583L117.92 115.471L126.112 115.656L128.784 130.737Z" fill="white"/>
</mask>
<g mask="url(#mask9_106_39750)">
<path opacity="0.34" d="M127.514 115.975C123.044 120.091 119.775 120.773 119.46 123.104C119.146 125.435 115.236 120.043 115.236 120.043L119.649 115.124" fill="url(#paint35_linear_106_39750)"/>
</g>
<path d="M119.951 124.704L122.272 133.637L145.112 134.152C145.112 134.152 145.001 131.199 137.485 131.119C129.97 131.039 127.752 121.76 127.752 121.76L119.951 124.704Z" fill="url(#paint36_linear_106_39750)"/>
<path d="M127.514 115.975C120.631 122.109 117.587 120.043 117.587 120.043L102.957 52.7368L115.941 52.1964L127.514 115.975Z" fill="url(#paint37_linear_106_39750)"/>
<mask id="mask10_106_39750" style="mask-type:luminance" maskUnits="userSpaceOnUse" x="102" y="52" width="26" height="69">
<path fill-rule="evenodd" clip-rule="evenodd" d="M127.514 115.975C120.631 122.11 117.587 120.043 117.587 120.043L102.957 52.737L115.941 52.1967L127.514 115.975Z" fill="white"/>
</mask>
<g mask="url(#mask10_106_39750)">
<path d="M112.72 103.039C112.696 99.73 124.062 99.4713 124.086 97.0789C124.109 94.6864 114.618 95.8254 114.618 95.8254L111.143 96.944" fill="url(#paint38_linear_106_39750)"/>
</g>
<path d="M94.0859 55.2414C101.217 59.1127 116.709 60.1165 118.747 56.9583L114.731 25.8003C114.731 25.8003 106.456 22.6715 96.5623 25.6619L94.0859 55.2414Z" fill="url(#paint39_linear_106_39750)"/>
<mask id="mask11_106_39750" style="mask-type:luminance" maskUnits="userSpaceOnUse" x="94" y="24" width="25" height="35">
<path fill-rule="evenodd" clip-rule="evenodd" d="M94.0859 55.2414C101.217 59.1127 116.709 60.1165 118.747 56.9583L114.731 25.8003C114.731 25.8003 106.456 22.6715 96.5623 25.6619L94.0859 55.2414Z" fill="white"/>
</mask>
<g mask="url(#mask11_106_39750)">
<path opacity="0.55" d="M97.8609 32.2542C94.2188 37.5518 96.9274 43.2889 115.235 39.86C115.235 39.86 90.0761 58.7524 104.945 58.6901C119.814 58.6278 90.8569 55.6463 90.8569 55.6463L90.5513 37.5518L96.4601 31.8467" fill="url(#paint40_linear_106_39750)"/>
</g>
<path d="M100.414 19.2736L102.956 28.5632L108.944 24.9926L105.25 16.901L100.414 19.2736Z" fill="url(#paint41_linear_106_39750)"/>
<mask id="mask12_106_39750" style="mask-type:luminance" maskUnits="userSpaceOnUse" x="100" y="16" width="9" height="13">
<path fill-rule="evenodd" clip-rule="evenodd" d="M100.414 19.2735L102.956 28.563L108.944 24.9925L105.25 16.9009L100.414 19.2735Z" fill="white"/>
</mask>
<g mask="url(#mask12_106_39750)">
<path opacity="0.34" d="M100.894 28.6343C103.621 25.7031 102.552 22.6357 103.88 20.4642C105.208 18.2928 104.576 17.755 104.576 17.755L99.9729 20.2413" fill="url(#paint42_linear_106_39750)"/>
</g>
<path d="M101.066 8.14478C97.842 12.1637 90.957 22.5914 103.387 20.5376L104.816 17.6945L104.53 13.2975L101.066 8.14478Z" fill="url(#paint43_linear_106_39750)"/>
<path d="M105.367 18.0233C103.333 17.7896 102.093 13.671 103.555 12.8919C103.555 12.8919 100.103 13.0465 98.5901 10.5347C98.7881 8.83345 101.362 8.69976 106.141 8.56607C109.762 9.07763 107.06 7.40384 106.187 9.38063C113.54 8.34521 110.509 18.6141 105.367 18.0233Z" fill="url(#paint44_linear_106_39750)"/>
<path d="M86.3745 95.2241C94.3297 101.768 107.912 97.7702 107.912 97.7702L105.502 34.5801L101.724 24.131L96.5622 25.662C90.7946 48.3688 88.6117 89.7824 86.3745 95.2241Z" fill="url(#paint45_linear_106_39750)"/>
<mask id="mask13_106_39750" style="mask-type:luminance" maskUnits="userSpaceOnUse" x="86" y="24" width="22" height="75">
<path fill-rule="evenodd" clip-rule="evenodd" d="M86.374 95.2242C94.3293 101.768 107.912 97.7704 107.912 97.7704L105.501 34.5802L101.724 24.1311L96.5617 25.6621C90.7942 48.3689 88.6112 89.7826 86.374 95.2242Z" fill="white"/>
</mask>
<g mask="url(#mask13_106_39750)">
<path d="M97.1606 34.4071C100.414 35.4139 94.5214 39.8024 93.4886 44.7454C92.4558 49.6883 92.1172 36.6033 92.1172 36.6033L95.0337 33.1976" fill="url(#paint46_linear_106_39750)"/>
<rect x="88.0149" y="59.5352" width="10.8109" height="9.56685" fill="url(#paint47_linear_106_39750)"/>
<path d="M99.7645 60.6014H87.0759L87.7961 57.3848H99.0444L99.7645 60.6014Z" fill="white"/>
<path d="M104.741 81.43C101.646 80.4176 105.844 99.0693 97.8604 100.563C89.8764 102.058 112.082 105.222 112.082 105.222L109.586 83.2363" fill="url(#paint48_linear_106_39750)"/>
</g>
<path d="M105.502 34.58L108.607 24.0735C109.291 24.0392 114.785 24.8214 114.785 24.8214C114.785 24.8214 121.617 63.6138 125.628 96.2048C125.628 96.2048 122.754 99.1537 104.742 100.563L102.793 44.7454" fill="url(#paint49_linear_106_39750)"/>
<mask id="mask14_106_39750" style="mask-type:luminance" maskUnits="userSpaceOnUse" x="102" y="24" width="24" height="77">
<path fill-rule="evenodd" clip-rule="evenodd" d="M105.502 34.5802L108.607 24.0737C109.291 24.0395 114.785 24.8216 114.785 24.8216C114.785 24.8216 121.617 63.614 125.628 96.205C125.628 96.205 122.754 99.154 104.742 100.564L102.793 44.7456" fill="white"/>
</mask>
<g mask="url(#mask14_106_39750)">
<path d="M121.305 68.9393H110.494L109.813 59.3787H120.624L121.305 68.9393Z" fill="url(#paint50_linear_106_39750)"/>
<path d="M121.639 60.4441H108.95L108.833 57.463L120.69 57.2296L121.639 60.4441Z" fill="white"/>
</g>
<path d="M101.352 26.64L100.149 29.1655L101.106 36.7787L105.421 36.9744L108.393 28.328L107.805 25.5938L104.894 26.4166L103.279 26.5347L102 26.7565" fill="url(#paint51_linear_106_39750)"/>
<path d="M103.186 28.0979L101.049 36.2693L102.25 43.3659L103.846 42.4222L105.24 35.7077L104.54 27.4623L103.186 28.0979Z" fill="url(#paint52_linear_106_39750)"/>
<path d="M102.359 26.5377L103.124 28.1888C103.311 28.594 103.688 28.8115 104.117 28.7621L104.464 28.7223C104.888 28.6736 105.302 28.3713 105.559 27.9232L106.49 26.3004L104.314 26.3391L102.359 26.5377Z" fill="url(#paint53_linear_106_39750)"/>
<path d="M100.896 24.8385C100.896 24.8385 101.118 23.2709 101.489 23.2332C101.489 23.2332 102.01 25.5455 103.56 26.359L102.034 29.4175C102.034 29.4175 100.045 26.695 100.896 24.8385Z" fill="url(#paint54_linear_106_39750)"/>
<path d="M108.947 23.8111C108.947 23.8111 107.97 22.1518 107.599 22.1895C107.599 22.1895 105.81 25.0498 103.56 26.3588L105.861 28.9636C105.861 28.9636 109.479 25.5272 108.947 23.8111Z" fill="url(#paint55_linear_106_39750)"/>
<path d="M101.049 24.0687C101.049 24.0687 102.884 41.1396 103.673 42.9217L102.793 44.7453L98.8073 34.7411L100.155 32.7741L97.853 32.1635L100.03 25.3299C100.03 25.3299 100.035 24.2196 101.049 24.0687Z" fill="white"/>
<path d="M108.34 22.8365L102.793 44.7455L110 34.312L108.17 31.923L110.467 30.3465L109.682 24.5509C109.682 24.5509 109.727 23.2129 108.34 22.8365Z" fill="white"/>
<path d="M137.974 44.2655L137.843 43.2628L151.699 41.6581L150.574 42.2621L137.974 44.2655Z" fill="url(#paint56_linear_106_39750)"/>
<path d="M135.927 46.941L135.767 45.7157L137.523 45.4861C137.682 45.4653 137.827 45.3821 137.925 45.2547C138.022 45.1273 138.066 44.9662 138.045 44.8068L137.772 42.7217C137.751 42.5623 137.668 42.4177 137.541 42.3197C137.413 42.2216 137.252 42.1783 137.093 42.199L135.337 42.4287L135.177 41.2039C135.046 40.2062 134.525 39.3012 133.727 38.688C132.929 38.0748 131.921 37.8036 130.923 37.934L85.5813 43.8639L87.3155 57.1242L132.657 51.1943C134.735 50.9226 136.199 49.0184 135.927 46.941Z" fill="url(#paint57_linear_106_39750)"/>
<mask id="mask15_106_39750" style="mask-type:luminance" maskUnits="userSpaceOnUse" x="85" y="37" width="54" height="21">
<path fill-rule="evenodd" clip-rule="evenodd" d="M135.927 46.9411L135.767 45.7158L137.522 45.4862C137.682 45.4654 137.826 45.3822 137.924 45.2548C138.022 45.1274 138.065 44.9663 138.045 44.807L137.772 42.7218C137.751 42.5624 137.668 42.4178 137.54 42.3198C137.413 42.2218 137.252 42.1784 137.093 42.1992L135.337 42.4288L135.177 41.2041C135.046 40.2064 134.525 39.3014 133.727 38.6881C132.929 38.0749 131.921 37.8037 130.923 37.9341L85.5811 43.8641L87.3153 57.1243L132.657 51.1944C134.735 50.9227 136.198 49.0185 135.927 46.9411Z" fill="white"/>
</mask>
<g mask="url(#mask15_106_39750)">
<path opacity="0.29" d="M114.043 37.9819C86.6901 47.5124 85.8395 43.7529 87.2302 59.2954C88.6208 74.8378 79.541 41.1378 79.541 41.1378L97.8881 33.7544L110.959 32.668" fill="white"/>
</g>
<path d="M132.324 41.6473L133.057 47.2456C133.174 48.1456 132.54 48.9705 131.64 49.0882L117.121 50.987L115.963 42.1297L130.482 40.2309C130.914 40.1744 131.351 40.2919 131.696 40.5575C132.042 40.8231 132.268 41.2151 132.324 41.6473V41.6473Z" fill="url(#paint58_linear_106_39750)"/>
<mask id="mask16_106_39750" style="mask-type:luminance" maskUnits="userSpaceOnUse" x="115" y="40" width="19" height="11">
<path fill-rule="evenodd" clip-rule="evenodd" d="M132.325 41.6475L133.057 47.2459C133.175 48.1458 132.54 48.9708 131.64 49.0885L117.122 50.9873L115.963 42.13L130.482 40.2312C130.914 40.1747 131.351 40.2921 131.697 40.5577C132.042 40.8234 132.268 41.2154 132.325 41.6475V41.6475Z" fill="white"/>
</mask>
<g mask="url(#mask16_106_39750)">
<path d="M132.325 41.6476C133.312 49.7584 124.514 50.9232 117.122 50.9873C109.729 51.0515 134.916 50.8992 134.916 50.8992L135.79 48.5458L135.337 42.4289" fill="url(#paint59_linear_106_39750)"/>
</g>
<rect opacity="0.62" x="114.627" y="43.8585" width="5.85067" height="44.7658" transform="rotate(82.549 114.627 43.8585)" fill="white"/>
<rect opacity="0.29" x="86.6904" y="47.5121" width="5.85067" height="16.5909" transform="rotate(82.549 86.6904 47.5121)" fill="url(#paint60_linear_106_39750)"/>
<path d="M70.9284 47.8394L72.1331 57.0507C72.2416 57.8803 71.657 58.6408 70.8274 58.7492C69.9978 58.8577 69.2373 58.2732 69.1288 57.4436L67.9242 48.2323C67.8721 47.8339 67.9803 47.4311 68.2252 47.1126C68.4701 46.7941 68.8314 46.5858 69.2298 46.5337C70.0594 46.4252 70.8199 47.0098 70.9284 47.8394L70.9284 47.8394Z" fill="url(#paint61_linear_106_39750)"/>
<g opacity="0.76">
<rect x="127.438" y="39.233" width="2.76862" height="0.365668" transform="rotate(82.549 127.438 39.233)" fill="url(#paint62_linear_106_39750)"/>
<rect x="125.27" y="39.5165" width="2.76862" height="0.365668" transform="rotate(82.549 125.27 39.5165)" fill="url(#paint63_linear_106_39750)"/>
<rect x="123.102" y="39.8" width="2.76862" height="0.365668" transform="rotate(82.549 123.102 39.8)" fill="url(#paint64_linear_106_39750)"/>
<rect x="120.934" y="40.0836" width="2.76862" height="0.365668" transform="rotate(82.549 120.934 40.0836)" fill="url(#paint65_linear_106_39750)"/>
<rect x="118.766" y="40.3671" width="2.76862" height="0.365668" transform="rotate(82.549 118.766 40.3671)" fill="url(#paint66_linear_106_39750)"/>
<rect x="116.598" y="40.6566" width="2.76875" height="0.365685" transform="rotate(82.5481 116.598 40.6566)" fill="url(#paint67_linear_106_39750)"/>
<rect x="114.43" y="40.9343" width="2.76862" height="0.365668" transform="rotate(82.549 114.43 40.9343)" fill="url(#paint68_linear_106_39750)"/>
<rect x="112.261" y="41.2178" width="2.76862" height="0.365668" transform="rotate(82.549 112.261 41.2178)" fill="url(#paint69_linear_106_39750)"/>
</g>
<rect opacity="0.62" x="115.785" y="40.7656" width="11.684" height="1.54849" transform="rotate(82.549 115.785 40.7656)" fill="white"/>
<path d="M86.4524 42.9496L88.3924 57.7836C88.489 58.5218 87.9688 59.1986 87.2305 59.2951C86.4923 59.3917 85.8155 58.8715 85.719 58.1332L83.7789 43.2993C83.6824 42.561 84.2026 41.8843 84.9409 41.7877C85.6791 41.6912 86.3559 42.2114 86.4524 42.9496L86.4524 42.9496Z" fill="url(#paint70_linear_106_39750)"/>
<path d="M121.768 38.6958C121.768 38.6958 121.681 41.9578 124.203 40.5443C124.203 40.5443 124.89 41.3133 125.807 40.487C125.807 40.487 126.658 41.2427 127.168 40.7334C127.677 40.224 127.295 37.728 127.295 37.728C127.295 37.728 126.251 37.2186 125.487 37.728C125.487 37.728 124.213 37.5242 123.602 38.1355C123.602 38.1355 122.405 37.5497 121.768 38.6958Z" fill="url(#paint71_linear_106_39750)"/>
<path d="M93.3585 45.9099L90.7934 41.2892C89.5692 42.3094 87.9707 41.9241 86.3745 43.0784L89.7365 48.6307C89.7365 48.6307 90.2204 54.5268 91.8631 53.2661C91.8631 53.2661 93.4677 53.438 93.8497 52.6739C93.8497 52.6739 94.9248 53.4461 95.5361 52.3523L94.581 49.119C94.581 49.119 97.5374 50.8293 97.8611 48.9109C97.8611 48.9109 93.5877 46.9414 93.3585 45.9099Z" fill="url(#paint72_linear_106_39750)"/>
<mask id="mask17_106_39750" style="mask-type:luminance" maskUnits="userSpaceOnUse" x="86" y="41" width="12" height="13">
<path fill-rule="evenodd" clip-rule="evenodd" d="M93.358 45.91L90.7929 41.2893C89.5687 42.3095 87.9702 41.9242 86.374 43.0785L89.736 48.6308C89.736 48.6308 90.2199 54.5269 91.8626 53.2662C91.8626 53.2662 93.4672 53.4381 93.8492 52.6741C93.8492 52.6741 94.9243 53.4462 95.5356 52.3524L94.5805 49.1192C94.5805 49.1192 97.5369 50.8295 97.8607 48.911C97.8607 48.911 93.5872 46.9415 93.358 45.91Z" fill="white"/>
</mask>
<g mask="url(#mask17_106_39750)">
<path opacity="0.34" d="M87.3927 48.3798C90.8509 46.0848 91.3125 42.2252 91.3125 42.2252L87.4556 44.1356L87.0469 46.7386" fill="url(#paint73_linear_106_39750)"/>
</g>
<path d="M88.8914 35.7767L97.861 34.802L97.2079 25.4727L79.4604 29.2381C76.9797 29.6636 75.8285 32.5635 77.342 34.5745L84.9281 47.0576C86.8227 47.3743 91.8563 43.0661 91.2404 41.8999L88.8914 35.7767Z" fill="url(#paint74_linear_106_39750)"/>
<path d="M109.245 16.3368C107.313 16.3057 99.9229 11.2238 99.5408 9.82324C99.5408 9.82324 102.487 5.72796 103.295 6.01421C103.295 6.01421 109.829 7.98143 111.122 11.1683C111.802 12.8471 109.245 16.3368 109.245 16.3368Z" fill="url(#paint75_linear_106_39750)"/>
<mask id="mask18_106_39750" style="mask-type:luminance" maskUnits="userSpaceOnUse" x="99" y="5" width="13" height="12">
<path fill-rule="evenodd" clip-rule="evenodd" d="M109.246 16.3367C107.313 16.3056 99.9232 11.2236 99.541 9.82312C99.541 9.82312 102.487 5.72784 103.295 6.01409C103.295 6.01409 109.83 7.9813 111.122 11.1682C111.803 12.8469 109.246 16.3367 109.246 16.3367Z" fill="white"/>
</mask>
<g mask="url(#mask18_106_39750)">
<path d="M111.37 14.497C111.218 12.3474 106.892 15.2339 103.185 13.1587C99.4778 11.0836 107.669 18.2104 107.669 18.2104L111.079 17.4798L112.505 16.1101" fill="url(#paint76_linear_106_39750)"/>
</g>
<path d="M97.1366 13.5613C97.7064 12.7841 99.2256 16.7557 102.354 16.517C102.819 16.7265 101.278 20.1819 102.003 20.5029C94.9915 24.4413 94.768 17.6336 97.1366 13.5613Z" fill="#E3EBFD"/>
<path d="M101.518 17.1574L102.219 16.5965L104.878 16.0161L104.656 16.3547L102.096 17.2638" fill="#CDDEFD"/>
<path d="M101.59 20.1267L103.982 20.4741L101.503 20.7431L101.455 20.3516" fill="#CDDEFD"/>
<path d="M103.098 20.5834C109.601 20.1262 108.983 13.0064 102.78 17.1712L103.098 20.5834Z" fill="url(#paint77_linear_106_39750)"/>
<circle cx="103.672" cy="53.2063" r="1.06951" fill="white"/>
<circle cx="104.271" cy="66.9762" r="1.06951" fill="white"/>
<g opacity="0.72">
<rect x="109.797" y="36.1813" width="4.35904" height="2.79752" rx="0.363773" transform="rotate(-4.6156 109.797 36.1813)" fill="url(#paint78_radial_106_39750)"/>
<mask id="mask19_106_39750" style="mask-type:luminance" maskUnits="userSpaceOnUse" x="109" y="35" width="6" height="4">
<rect x="109.797" y="36.1815" width="4.35904" height="2.79752" rx="0.363773" transform="rotate(-4.6156 109.797 36.1815)" fill="white"/>
</mask>
<g mask="url(#mask19_106_39750)">
<path d="M109.801 38.8372C114.005 38.6484 114.162 38.7328 114.255 37.2249C114.348 35.717 115.098 38.5601 115.098 38.5601L114.063 39.3302L109.653 39.312" fill="url(#paint79_linear_106_39750)"/>
</g>
<circle cx="111.004" cy="37.3865" r="0.626529" fill="white"/>
<rect x="112.015" y="36.712" width="1.71202" height="0.152992" transform="rotate(-4.6156 112.015 36.712)" fill="white"/>
<rect x="112.057" y="37.2323" width="1.71202" height="0.152992" transform="rotate(-4.6156 112.057 37.2323)" fill="white"/>
<rect x="112.099" y="37.7527" width="1.25091" height="0.152992" transform="rotate(-4.6156 112.099 37.7527)" fill="white"/>
<path d="M111.889 35.0087C112.182 34.9851 112.438 35.2028 112.461 35.495L112.499 35.9632L111.441 36.0486L111.403 35.5805C111.379 35.2883 111.597 35.0323 111.889 35.0087Z" fill="url(#paint80_linear_106_39750)"/>
<mask id="mask20_106_39750" style="mask-type:luminance" maskUnits="userSpaceOnUse" x="111" y="35" width="2" height="2">
<path fill-rule="evenodd" clip-rule="evenodd" d="M111.889 35.0084C112.182 34.9848 112.438 35.2026 112.461 35.4948L112.499 35.963L111.441 36.0484L111.403 35.5802C111.379 35.288 111.597 35.032 111.889 35.0084Z" fill="white"/>
</mask>
<g mask="url(#mask20_106_39750)">
<path d="M112.549 35.4899C112.447 35.8468 111.407 35.8052 111.318 35.917C111.23 36.0289 111.599 36.1721 111.599 36.1721L112.648 36.0874L112.601 35.6159" fill="url(#paint81_linear_106_39750)"/>
</g>
<rect x="110.712" y="35.9652" width="2.51351" height="0.553699" transform="rotate(-4.6171 110.712 35.9652)" fill="url(#paint82_linear_106_39750)"/>
</g>
</g>
<rect x="2" y="2" width="204" height="134" rx="10" stroke="#51C1FF" stroke-opacity="0.07" stroke-width="4"/>
<defs>
<linearGradient id="paint0_linear_106_39750" x1="132.948" y1="42.3463" x2="132.948" y2="43.824" gradientUnits="userSpaceOnUse">
<stop offset="0.1023" stop-color="#DCDFF8"/>
<stop offset="0.8855" stop-color="#F5F7FE"/>
</linearGradient>
<linearGradient id="paint1_linear_106_39750" x1="119.95" y1="88.2705" x2="126.5" y2="88.2705" gradientUnits="userSpaceOnUse">
<stop offset="0.1023" stop-color="#DCDFF8"/>
<stop offset="0.8855" stop-color="#F5F7FE"/>
</linearGradient>
<linearGradient id="paint2_linear_106_39750" x1="118.448" y1="58.3783" x2="119.868" y2="62.8855" gradientUnits="userSpaceOnUse">
<stop offset="0.1023" stop-color="#DCDFF8"/>
<stop offset="0.8855" stop-color="#F5F7FE"/>
</linearGradient>
<linearGradient id="paint3_linear_106_39750" x1="122.74" y1="89.2424" x2="128.422" y2="89.2424" gradientUnits="userSpaceOnUse">
<stop offset="0.1023" stop-color="#DCDFF8"/>
<stop offset="0.8855" stop-color="#F5F7FE"/>
</linearGradient>
<linearGradient id="paint4_linear_106_39750" x1="119.163" y1="57.4019" x2="127.287" y2="57.4019" gradientUnits="userSpaceOnUse">
<stop offset="0.1023" stop-color="#DCDFF8"/>
<stop offset="0.8855" stop-color="#F5F7FE"/>
</linearGradient>
<linearGradient id="paint5_linear_106_39750" x1="125.611" y1="52.8355" x2="117.054" y2="54.592" gradientUnits="userSpaceOnUse">
<stop stop-color="#00DED8"/>
<stop offset="0.9965" stop-color="#4AAAFD"/>
</linearGradient>
<linearGradient id="paint6_linear_106_39750" x1="129.87" y1="88.2705" x2="136.42" y2="88.2705" gradientUnits="userSpaceOnUse">
<stop offset="0.1023" stop-color="#DCDFF8"/>
<stop offset="0.8855" stop-color="#F5F7FE"/>
</linearGradient>
<linearGradient id="paint7_linear_106_39750" x1="128.368" y1="58.3782" x2="129.788" y2="62.8854" gradientUnits="userSpaceOnUse">
<stop offset="0.1023" stop-color="#DCDFF8"/>
<stop offset="0.8855" stop-color="#F5F7FE"/>
</linearGradient>
<linearGradient id="paint8_linear_106_39750" x1="132.66" y1="89.2422" x2="138.342" y2="89.2422" gradientUnits="userSpaceOnUse">
<stop offset="0.1023" stop-color="#DCDFF8"/>
<stop offset="0.8855" stop-color="#F5F7FE"/>
</linearGradient>
<linearGradient id="paint9_linear_106_39750" x1="129.083" y1="57.4019" x2="137.207" y2="57.4019" gradientUnits="userSpaceOnUse">
<stop offset="0.1023" stop-color="#DCDFF8"/>
<stop offset="0.8855" stop-color="#F5F7FE"/>
</linearGradient>
<linearGradient id="paint10_linear_106_39750" x1="134.272" y1="57.2672" x2="121.516" y2="59.5715" gradientUnits="userSpaceOnUse">
<stop stop-color="#FC7023"/>
<stop offset="1" stop-color="#E00321"/>
</linearGradient>
<linearGradient id="paint11_linear_106_39750" x1="139.194" y1="88.2705" x2="145.744" y2="88.2705" gradientUnits="userSpaceOnUse">
<stop offset="0.1023" stop-color="#DCDFF8"/>
<stop offset="0.8855" stop-color="#F5F7FE"/>
</linearGradient>
<linearGradient id="paint12_linear_106_39750" x1="137.692" y1="58.3783" x2="139.112" y2="62.8855" gradientUnits="userSpaceOnUse">
<stop offset="0.1023" stop-color="#DCDFF8"/>
<stop offset="0.8855" stop-color="#F5F7FE"/>
</linearGradient>
<linearGradient id="paint13_linear_106_39750" x1="141.984" y1="89.2424" x2="147.666" y2="89.2424" gradientUnits="userSpaceOnUse">
<stop offset="0.1023" stop-color="#DCDFF8"/>
<stop offset="0.8855" stop-color="#F5F7FE"/>
</linearGradient>
<linearGradient id="paint14_linear_106_39750" x1="138.407" y1="57.4019" x2="146.531" y2="57.4019" gradientUnits="userSpaceOnUse">
<stop offset="0.1023" stop-color="#DCDFF8"/>
<stop offset="0.8855" stop-color="#F5F7FE"/>
</linearGradient>
<linearGradient id="paint15_linear_106_39750" x1="144.047" y1="52.4493" x2="130.419" y2="54.4649" gradientUnits="userSpaceOnUse">
<stop offset="0.1011" stop-color="#FFDF94"/>
<stop offset="1" stop-color="#FFA200"/>
</linearGradient>
<linearGradient id="paint16_linear_106_39750" x1="89.6308" y1="65.5864" x2="89.6306" y2="68.6168" gradientUnits="userSpaceOnUse">
<stop offset="0.0324" stop-color="#FFC50C"/>
<stop offset="1" stop-color="#FF9E0C"/>
</linearGradient>
<linearGradient id="paint17_linear_106_39750" x1="112.995" y1="53.8456" x2="113.979" y2="53.8967" gradientUnits="userSpaceOnUse">
<stop offset="0.0324" stop-color="#FFC50C"/>
<stop offset="1" stop-color="#FF9E0C"/>
</linearGradient>
<linearGradient id="paint18_linear_106_39750" x1="114.44" y1="89.2795" x2="115.814" y2="93.3083" gradientUnits="userSpaceOnUse">
<stop offset="0.0324" stop-color="#FFC50C"/>
<stop offset="1" stop-color="#FF9E0C"/>
</linearGradient>
<linearGradient id="paint19_linear_106_39750" x1="149.028" y1="51.8801" x2="150.012" y2="51.9312" gradientUnits="userSpaceOnUse">
<stop offset="0.0324" stop-color="#FFC50C"/>
<stop offset="1" stop-color="#FF9E0C"/>
</linearGradient>
<linearGradient id="paint20_linear_106_39750" x1="137.231" y1="87.1993" x2="161.734" y2="95.2528" gradientUnits="userSpaceOnUse">
<stop offset="0.0324" stop-color="#FFC50C"/>
<stop offset="1" stop-color="#FF9E0C"/>
</linearGradient>
<linearGradient id="paint21_linear_106_39750" x1="26.9127" y1="86.4281" x2="26.9233" y2="98.7765" gradientUnits="userSpaceOnUse">
<stop offset="0.1011" stop-color="#FECE63"/>
<stop offset="1" stop-color="#F55850"/>
</linearGradient>
<linearGradient id="paint22_linear_106_39750" x1="123.006" y1="85.031" x2="123.007" y2="86.2658" gradientUnits="userSpaceOnUse">
<stop offset="0.1011" stop-color="#FECE63"/>
<stop offset="1" stop-color="#F55850"/>
</linearGradient>
<linearGradient id="paint23_linear_106_39750" x1="39.0131" y1="65.358" x2="49.2141" y2="67.3137" gradientUnits="userSpaceOnUse">
<stop offset="0.1023" stop-color="#DCDFF8"/>
<stop offset="0.8855" stop-color="#F5F7FE"/>
</linearGradient>
<linearGradient id="paint24_linear_106_39750" x1="39.0131" y1="72.415" x2="49.2141" y2="74.3707" gradientUnits="userSpaceOnUse">
<stop offset="0.1023" stop-color="#DCDFF8"/>
<stop offset="0.8855" stop-color="#F5F7FE"/>
</linearGradient>
<linearGradient id="paint25_linear_106_39750" x1="87.658" y1="123.422" x2="142.645" y2="84.5095" gradientUnits="userSpaceOnUse">
<stop offset="0.1023" stop-color="#DCDFF8"/>
<stop offset="0.8855" stop-color="#F5F7FE"/>
</linearGradient>
<linearGradient id="paint26_linear_106_39750" x1="94.5297" y1="112.009" x2="83.1242" y2="113.251" gradientUnits="userSpaceOnUse">
<stop offset="0.1023" stop-color="#FFAFBC"/>
<stop offset="0.8855" stop-color="#FFDDDC"/>
</linearGradient>
<linearGradient id="paint27_linear_106_39750" x1="86.176" y1="122.089" x2="94.9181" y2="122.089" gradientUnits="userSpaceOnUse">
<stop offset="0.1011" stop-color="#FF7638"/>
<stop offset="0.8855" stop-color="#FF3929"/>
</linearGradient>
<linearGradient id="paint28_linear_106_39750" x1="86.9755" y1="119.556" x2="71.1052" y2="135.508" gradientUnits="userSpaceOnUse">
<stop offset="0.1023" stop-color="#915758"/>
<stop offset="0.8855" stop-color="#2C090B"/>
</linearGradient>
<linearGradient id="paint29_linear_106_39750" x1="114.062" y1="12.5045" x2="112.675" y2="31.9183" gradientUnits="userSpaceOnUse">
<stop offset="0.1023" stop-color="white"/>
<stop offset="0.8855" stop-color="#E3EBFD"/>
</linearGradient>
<linearGradient id="paint30_linear_106_39750" x1="115.222" y1="67.3154" x2="115.326" y2="65.6014" gradientUnits="userSpaceOnUse">
<stop offset="0.1023" stop-color="white"/>
<stop offset="0.8855" stop-color="#CDDEFD"/>
</linearGradient>
<linearGradient id="paint31_linear_106_39750" x1="108.223" y1="119.192" x2="88.2843" y2="82.282" gradientUnits="userSpaceOnUse">
<stop offset="0.0048" stop-color="#FFE77A"/>
<stop offset="0.9986" stop-color="#FF9103"/>
</linearGradient>
<linearGradient id="paint32_linear_106_39750" x1="91.8376" y1="48.703" x2="91.3508" y2="58.8305" gradientUnits="userSpaceOnUse">
<stop offset="0.0048" stop-color="#FFE77A"/>
<stop offset="0.9986" stop-color="#FF9103"/>
</linearGradient>
<linearGradient id="paint33_linear_106_39750" x1="105.036" y1="108.356" x2="104.692" y2="94.6688" gradientUnits="userSpaceOnUse">
<stop offset="0.0048" stop-color="#FFE77A"/>
<stop offset="0.9986" stop-color="#FF9103"/>
</linearGradient>
<linearGradient id="paint34_linear_106_39750" x1="116.607" y1="129.438" x2="128.172" y2="130.979" gradientUnits="userSpaceOnUse">
<stop offset="0.1023" stop-color="#FFAFBC"/>
<stop offset="0.8855" stop-color="#FFDDDC"/>
</linearGradient>
<linearGradient id="paint35_linear_106_39750" x1="115.236" y1="123.689" x2="127.514" y2="123.689" gradientUnits="userSpaceOnUse">
<stop offset="0.1011" stop-color="#FF7638"/>
<stop offset="0.8855" stop-color="#FF3929"/>
</linearGradient>
<linearGradient id="paint36_linear_106_39750" x1="113.129" y1="132.57" x2="128.055" y2="148.762" gradientUnits="userSpaceOnUse">
<stop offset="0.1023" stop-color="#915758"/>
<stop offset="0.8855" stop-color="#2C090B"/>
</linearGradient>
<linearGradient id="paint37_linear_106_39750" x1="126.181" y1="117.924" x2="106.215" y2="81.051" gradientUnits="userSpaceOnUse">
<stop offset="0.0048" stop-color="#FFE77A"/>
<stop offset="0.9986" stop-color="#FF9103"/>
</linearGradient>
<linearGradient id="paint38_linear_106_39750" x1="123.086" y1="105.531" x2="123.308" y2="98.3036" gradientUnits="userSpaceOnUse">
<stop offset="0.0048" stop-color="#FFE77A"/>
<stop offset="0.9986" stop-color="#FF9103"/>
</linearGradient>
<linearGradient id="paint39_linear_106_39750" x1="106.368" y1="11.6556" x2="90.697" y2="34.012" gradientUnits="userSpaceOnUse">
<stop offset="0.0048" stop-color="#AD8CFB"/>
<stop offset="0.9986" stop-color="#795BF4"/>
</linearGradient>
<linearGradient id="paint40_linear_106_39750" x1="103.96" y1="68.9334" x2="104.234" y2="67.0778" gradientUnits="userSpaceOnUse">
<stop offset="0.0048" stop-color="#937AFB"/>
<stop offset="0.9986" stop-color="#5A49F4"/>
</linearGradient>
<linearGradient id="paint41_linear_106_39750" x1="95.3162" y1="8.02825" x2="100.437" y2="26.485" gradientUnits="userSpaceOnUse">
<stop offset="0.1023" stop-color="#FCADBA"/>
<stop offset="0.8855" stop-color="#FBDAD9"/>
</linearGradient>
<linearGradient id="paint42_linear_106_39750" x1="97.9241" y1="7.6266" x2="100.735" y2="25.8895" gradientUnits="userSpaceOnUse">
<stop offset="0.1011" stop-color="#FF7638"/>
<stop offset="0.8855" stop-color="#FF3929"/>
</linearGradient>
<linearGradient id="paint43_linear_106_39750" x1="98.427" y1="3.13028" x2="87.9235" y2="16.1849" gradientUnits="userSpaceOnUse">
<stop offset="0.1023" stop-color="#FCADBA"/>
<stop offset="0.8855" stop-color="#FBDAD9"/>
</linearGradient>
<linearGradient id="paint44_linear_106_39750" x1="108.33" y1="-1.48671" x2="100.11" y2="10.5707" gradientUnits="userSpaceOnUse">
<stop offset="0.1023" stop-color="#915758"/>
<stop offset="0.8855" stop-color="#2C090B"/>
</linearGradient>
<linearGradient id="paint45_linear_106_39750" x1="84.4337" y1="25.4834" x2="101.715" y2="35.3345" gradientUnits="userSpaceOnUse">
<stop offset="0.1023" stop-color="white"/>
<stop offset="0.8855" stop-color="#CDDEFD"/>
</linearGradient>
<linearGradient id="paint46_linear_106_39750" x1="102.706" y1="42.5167" x2="97.4575" y2="41.2049" gradientUnits="userSpaceOnUse">
<stop offset="0.1023" stop-color="white"/>
<stop offset="0.8855" stop-color="#CDDEFD"/>
</linearGradient>
<linearGradient id="paint47_linear_106_39750" x1="101.464" y1="71.0323" x2="101.39" y2="56.8761" gradientUnits="userSpaceOnUse">
<stop offset="0.1023" stop-color="white"/>
<stop offset="0.8855" stop-color="#E3EBFD"/>
</linearGradient>
<linearGradient id="paint48_linear_106_39750" x1="118.213" y1="99.6898" x2="105.463" y2="92.1836" gradientUnits="userSpaceOnUse">
<stop offset="0.1023" stop-color="white"/>
<stop offset="0.8855" stop-color="#CDDEFD"/>
</linearGradient>
<linearGradient id="paint49_linear_106_39750" x1="116.329" y1="9.95526" x2="105.799" y2="20.7468" gradientUnits="userSpaceOnUse">
<stop offset="0.1023" stop-color="white"/>
<stop offset="0.8855" stop-color="#E3EBFD"/>
</linearGradient>
<linearGradient id="paint50_linear_106_39750" x1="124.585" y1="70.4484" x2="123.821" y2="56.284" gradientUnits="userSpaceOnUse">
<stop offset="0.1023" stop-color="white"/>
<stop offset="0.8855" stop-color="#E3EBFD"/>
</linearGradient>
<linearGradient id="paint51_linear_106_39750" x1="103.569" y1="43.4566" x2="104.213" y2="40.6527" gradientUnits="userSpaceOnUse">
<stop offset="0.0048" stop-color="#FF7860"/>
<stop offset="0.9986" stop-color="#972417"/>
</linearGradient>
<linearGradient id="paint52_linear_106_39750" x1="101.191" y1="43.161" x2="105.285" y2="43.1631" gradientUnits="userSpaceOnUse">
<stop offset="0.0083" stop-color="#009EFE"/>
<stop offset="1" stop-color="#005DFA"/>
</linearGradient>
<linearGradient id="paint53_linear_106_39750" x1="118.231" y1="29.127" x2="123.004" y2="29.127" gradientUnits="userSpaceOnUse">
<stop offset="0.0083" stop-color="#009EFE"/>
<stop offset="1" stop-color="#005DFA"/>
</linearGradient>
<linearGradient id="paint54_linear_106_39750" x1="77.1562" y1="26.4094" x2="79.5294" y2="33.4092" gradientUnits="userSpaceOnUse">
<stop offset="0.0048" stop-color="#FF7860"/>
<stop offset="0.9986" stop-color="#972417"/>
</linearGradient>
<linearGradient id="paint55_linear_106_39750" x1="71.6107" y1="26.3969" x2="72.4857" y2="34.0908" gradientUnits="userSpaceOnUse">
<stop offset="0.0048" stop-color="#FF7860"/>
<stop offset="0.9986" stop-color="#972417"/>
</linearGradient>
<linearGradient id="paint56_linear_106_39750" x1="155.99" y1="42.6878" x2="155.729" y2="38.3324" gradientUnits="userSpaceOnUse">
<stop offset="0.1023" stop-color="#DCDFF8"/>
<stop offset="0.8855" stop-color="#F5F7FE"/>
</linearGradient>
<linearGradient id="paint57_linear_106_39750" x1="93.731" y1="14.2432" x2="76.9453" y2="72.8837" gradientUnits="userSpaceOnUse">
<stop stop-color="#00A6F0"/>
<stop offset="1" stop-color="#006FF1"/>
</linearGradient>
<linearGradient id="paint58_linear_106_39750" x1="115.963" y1="42.1297" x2="117.121" y2="50.987" gradientUnits="userSpaceOnUse">
<stop offset="0.1011" stop-color="#FF7638"/>
<stop offset="0.8855" stop-color="#FF3929"/>
</linearGradient>
<linearGradient id="paint59_linear_106_39750" x1="115.976" y1="39.3086" x2="116.586" y2="43.2479" gradientUnits="userSpaceOnUse">
<stop offset="0.1011" stop-color="#FF7638"/>
<stop offset="0.8855" stop-color="#FF3929"/>
</linearGradient>
<linearGradient id="paint60_linear_106_39750" x1="95.3469" y1="56.2369" x2="84.996" y2="52.3886" gradientUnits="userSpaceOnUse">
<stop stop-color="#00A6F0"/>
<stop offset="1" stop-color="#006FF1"/>
</linearGradient>
<linearGradient id="paint61_linear_106_39750" x1="69.0716" y1="65.3524" x2="74.7135" y2="64.4982" gradientUnits="userSpaceOnUse">
<stop stop-color="#00A6F0"/>
<stop offset="1" stop-color="#006FF1"/>
</linearGradient>
<linearGradient id="paint62_linear_106_39750" x1="122.814" y1="40.417" x2="122.775" y2="41.0194" gradientUnits="userSpaceOnUse">
<stop offset="0.1057" stop-color="white"/>
<stop offset="0.8878" stop-color="white" stop-opacity="0.5"/>
</linearGradient>
<linearGradient id="paint63_linear_106_39750" x1="121.195" y1="40.5527" x2="121.156" y2="41.155" gradientUnits="userSpaceOnUse">
<stop offset="0.1057" stop-color="white"/>
<stop offset="0.8878" stop-color="white" stop-opacity="0.5"/>
</linearGradient>
<linearGradient id="paint64_linear_106_39750" x1="119.576" y1="40.6885" x2="119.537" y2="41.2908" gradientUnits="userSpaceOnUse">
<stop offset="0.1057" stop-color="white"/>
<stop offset="0.8878" stop-color="white" stop-opacity="0.5"/>
</linearGradient>
<linearGradient id="paint65_linear_106_39750" x1="117.956" y1="40.8243" x2="117.917" y2="41.4266" gradientUnits="userSpaceOnUse">
<stop offset="0.1057" stop-color="white"/>
<stop offset="0.8878" stop-color="white" stop-opacity="0.5"/>
</linearGradient>
<linearGradient id="paint66_linear_106_39750" x1="116.337" y1="40.9599" x2="116.298" y2="41.5623" gradientUnits="userSpaceOnUse">
<stop offset="0.1057" stop-color="white"/>
<stop offset="0.8878" stop-color="white" stop-opacity="0.5"/>
</linearGradient>
<linearGradient id="paint67_linear_106_39750" x1="114.718" y1="41.1017" x2="114.679" y2="41.7041" gradientUnits="userSpaceOnUse">
<stop offset="0.1057" stop-color="white"/>
<stop offset="0.8878" stop-color="white" stop-opacity="0.5"/>
</linearGradient>
<linearGradient id="paint68_linear_106_39750" x1="113.099" y1="41.2316" x2="113.06" y2="41.834" gradientUnits="userSpaceOnUse">
<stop offset="0.1057" stop-color="white"/>
<stop offset="0.8878" stop-color="white" stop-opacity="0.5"/>
</linearGradient>
<linearGradient id="paint69_linear_106_39750" x1="111.48" y1="41.3673" x2="111.441" y2="41.9697" gradientUnits="userSpaceOnUse">
<stop offset="0.1057" stop-color="white"/>
<stop offset="0.8878" stop-color="white" stop-opacity="0.5"/>
</linearGradient>
<linearGradient id="paint70_linear_106_39750" x1="88.4635" y1="17.3847" x2="78.7754" y2="18.6713" gradientUnits="userSpaceOnUse">
<stop stop-color="#00A6F0"/>
<stop offset="1" stop-color="#006FF1"/>
</linearGradient>
<linearGradient id="paint71_linear_106_39750" x1="121.768" y1="40.9098" x2="127.433" y2="40.9098" gradientUnits="userSpaceOnUse">
<stop offset="0.1023" stop-color="#FFAFBC"/>
<stop offset="0.8855" stop-color="#FFDDDC"/>
</linearGradient>
<linearGradient id="paint72_linear_106_39750" x1="89.4765" y1="28.9651" x2="77.2592" y2="47.6943" gradientUnits="userSpaceOnUse">
<stop offset="0.1023" stop-color="#FFAFBC"/>
<stop offset="0.8855" stop-color="#FFDDDC"/>
</linearGradient>
<linearGradient id="paint73_linear_106_39750" x1="89.1623" y1="30.207" x2="77.643" y2="39.7036" gradientUnits="userSpaceOnUse">
<stop offset="0.1011" stop-color="#FF7638"/>
<stop offset="0.8855" stop-color="#FF3929"/>
</linearGradient>
<linearGradient id="paint74_linear_106_39750" x1="69.658" y1="20.3344" x2="74.4666" y2="52.2151" gradientUnits="userSpaceOnUse">
<stop offset="0.1023" stop-color="white"/>
<stop offset="0.8855" stop-color="#CDDEFD"/>
</linearGradient>
<linearGradient id="paint75_linear_106_39750" x1="102.498" y1="5.09834" x2="101.517" y2="11.9587" gradientUnits="userSpaceOnUse">
<stop offset="0.1023" stop-color="white"/>
<stop offset="0.8855" stop-color="#E3EBFD"/>
</linearGradient>
<linearGradient id="paint76_linear_106_39750" x1="108.13" y1="7.56436" x2="107.951" y2="9.34719" gradientUnits="userSpaceOnUse">
<stop offset="0.1023" stop-color="white"/>
<stop offset="0.8855" stop-color="#DDE4FD"/>
</linearGradient>
<linearGradient id="paint77_linear_106_39750" x1="99.4676" y1="6.99557" x2="93.8901" y2="23.5152" gradientUnits="userSpaceOnUse">
<stop offset="0.1023" stop-color="#FCADBA"/>
<stop offset="0.8855" stop-color="#FBDAD9"/>
</linearGradient>
<radialGradient id="paint78_radial_106_39750" cx="0" cy="0" r="1" gradientUnits="userSpaceOnUse" gradientTransform="translate(113.692 35.4773) scale(6.06879 3.89479)">
<stop stop-color="#00BEDE"/>
<stop offset="0.9965" stop-color="#4A8BFD"/>
</radialGradient>
<linearGradient id="paint79_linear_106_39750" x1="108.543" y1="36.8001" x2="108.773" y2="39.6644" gradientUnits="userSpaceOnUse">
<stop stop-color="#00BEDE"/>
<stop offset="0.9965" stop-color="#4A8BFD"/>
</linearGradient>
<linearGradient id="paint80_linear_106_39750" x1="111.249" y1="35.1809" x2="111.506" y2="36.1038" gradientUnits="userSpaceOnUse">
<stop offset="0.1011" stop-color="#FFE494"/>
<stop offset="1" stop-color="#FFAE00"/>
</linearGradient>
<linearGradient id="paint81_linear_106_39750" x1="111.369" y1="35.1683" x2="111.4" y2="35.3497" gradientUnits="userSpaceOnUse">
<stop offset="0.1011" stop-color="#FFE494"/>
<stop offset="1" stop-color="#FFAE00"/>
</linearGradient>
<linearGradient id="paint82_linear_106_39750" x1="106.374" y1="34.4282" x2="106.394" y2="36.7539" gradientUnits="userSpaceOnUse">
<stop offset="0.1011" stop-color="#FFE494"/>
<stop offset="1" stop-color="#FFAE00"/>
</linearGradient>
<clipPath id="clip0_106_39750">
<rect x="4" y="4" width="200" height="130" rx="8" fill="white"/>
</clipPath>
</defs>
</svg>
