<svg xmlns="http://www.w3.org/2000/svg" fill="none" viewBox="0 0 208 138" xmlns:xlink="http://www.w3.org/1999/xlink"><g clip-path="url(#a)"><rect width="200" height="130" x="4" y="4" fill="#fff" rx="8"/><rect width="5.021" height="7.029" fill="url(#b)" rx="1.911" transform="matrix(-1 0 0 1 113.732 49.648)"/><rect width="5.021" height="7.029" fill="url(#c)" rx="1.911" transform="matrix(-1 0 0 1 113.732 57.18)"/><rect width="54.729" height="102.428" fill="url(#d)" rx="6.582" transform="matrix(-1 0 0 1 112.729 31.07)"/><path fill="#fff" d="M67.376 33.58h3.555c1.145 0 2.073.95 2.073 2.122s.928 2.12 2.073 2.12h20.575c1.144 0 2.073-.949 2.073-2.12s.928-2.121 2.072-2.121h3.555c3.515 0 6.364 2.915 6.364 6.511v82.877c0 3.597-2.849 6.512-6.364 6.512H67.376c-3.514 0-6.364-2.915-6.364-6.512V40.092c0-3.596 2.85-6.511 6.364-6.511" opacity=".5" style="mix-blend-mode:lighten"/><rect width="41.674" height="41.674" fill="#fff" rx="3.566" transform="matrix(-1 0 0 1 106.201 46.133)"/><path fill="#51b1a6" fill-rule="evenodd" d="M86.619 65.715h16.067V49.648H86.619zm4.017-12.05h8.033v8.033h-8.033zm-6.025-4.017v16.067H68.543V49.648zm-4.017 12.05h-8.033v-8.034h8.033zm16.067-2.008h-4.017v-4.017h4.017zM86.62 83.79h16.067V67.723H86.619zm12.05-12.05h-8.033v8.034h8.033zM78.585 55.673H74.57v4.017h4.016zm6.026 28.117h-4.017v-4.017h4.017zm-4.017-4.017V71.74h-4.017v8.034zm0-8.033h4.017v-4.017h-4.017zm-8.033 8.034h4.016v4.016h-8.033v-8.033h4.017zm-4.018-8.034h4.017v-4.017h-4.017zm24.101 6.025h4.017v-4.017h-4.017z" clip-rule="evenodd"/><rect width="41.674" height="9.038" fill="#fff" opacity=".1" rx="4.144" transform="matrix(-1 0 0 1 106.201 91.824)"/><rect width="41.674" height="9.038" fill="#fff" opacity=".1" rx="4.144" transform="matrix(-1 0 0 1 106.201 104.376)"/><path fill="url(#e)" d="M135.825 55.02s-.617-13.866-4.435-16.418l-3.791 8.782-.812 1.495s4.814 12.157 8.245 11.807"/><mask id="f" width="10" height="23" x="126" y="38" maskUnits="userSpaceOnUse" style="mask-type:luminance"><path fill="#fff" fill-rule="evenodd" d="M135.813 55.02s-.617-13.846-4.432-16.394l-3.79 8.77-.811 1.494s4.811 12.14 8.241 11.79" clip-rule="evenodd"/></mask><g mask="url(#f)"><path fill="url(#g)" d="M129.809 47.83c1.937-1.585 1.336 11.89 3.109 10.003 1.772-1.886 4.013 4.996 4.013 4.996l-1.715 1.52-8.078-3.661 1.533-9.07"/></g><path fill="url(#h)" d="M134.234 37.532s-.502-3.242-.899-5.01 5.275-2.456 5.275-2.456l.228 9.038z"/><mask id="i" width="6" height="10" x="133" y="29" maskUnits="userSpaceOnUse" style="mask-type:luminance"><path fill="#fff" fill-rule="evenodd" d="M134.006 37.087s-.525-3.252-.94-5.026 5.512-2.463 5.512-2.463l.238 9.066z" clip-rule="evenodd"/></mask><g mask="url(#i)"><path fill="url(#j)" d="M140.407 38.078c-3.757-1.471-6.435-2.021-6.67-1.733s.226 2.093.226 2.093l4.042.854" opacity=".34"/></g><path fill="url(#k)" d="M137.542 35.589h2.019c.532 0 .919-.536.737-1.022l-3.192-8.518h-2.788l2.541 9.032a.7.7 0 0 0 .683.508"/><path fill="url(#l)" d="M139.936 33.93s-3.435 2.325-3.314.383c0 0-.846-.256-.396-1.227 0 0-.645-.664-.3-1.406 0 0 2.577-3.22 3.37-3.118s.717 1.687.386 2.121c0 0 1.047 1.253.323 1.84 0 0 .805.882-.069 1.406"/><path fill="url(#m)" d="M134.112 32.296c2.01.12.255-1.346 2.974-3.34 0 0 .492-.856.083-1.335s-3.042 1.801-3.584 2.36-.119 1.9-.012 2.395c.107.494.539-.08.539-.08"/><path fill="url(#n)" d="M143.899 16.007s-2.782 4.284-9.366 4.715c-1.146.075-2.103 1.03-2.189 2.202-.056.772-.054 1.648.101 2.454.222 1.15 1.266 1.915 2.417 1.74 2.144-.327 7.314-.455 11.005 1.442z"/><ellipse cx="6.689" cy="2.433" fill="url(#o)" rx="6.689" ry="2.433" transform="rotate(82.654 58.284 98.693)scale(-1 1)"/><ellipse cx="5.914" cy="2.152" fill="url(#p)" rx="5.914" ry="2.152" transform="rotate(82.654 58.511 98.112)scale(-1 1)"/><mask id="q" width="6" height="14" x="143" y="15" maskUnits="userSpaceOnUse" style="mask-type:luminance"><ellipse cx="6.522" cy="2.315" fill="#fff" rx="6.522" ry="2.315" transform="rotate(82.977 58.614 98.159)scale(-1 1)"/></mask><g mask="url(#q)"><ellipse cx="2.061" cy="1.996" fill="#fff" opacity=".27" rx="2.061" ry="1.996" transform="rotate(83.356 59.66 94.182)scale(-1 1)"/></g><path fill="url(#r)" d="M133.714 36.593s5.162.996 6.442 3.039c0 0 3.118 20.587-3.907 21.53-8.199 1.1-2.535-24.569-2.535-24.569"/><path fill="url(#s)" d="m103.691 113.116-5.7 17.871-4.844-1.946 4.684-19.644z"/><mask id="t" width="11" height="23" x="93" y="109" maskUnits="userSpaceOnUse" style="mask-type:luminance"><path fill="#fff" fill-rule="evenodd" d="m103.661 113.202-5.73 18.163-4.87-1.978 4.71-19.964z" clip-rule="evenodd"/></mask><g mask="url(#t)"><path fill="url(#u)" d="M104.015 123.86c-4.821 1.543-9.32-3.839-9.32-3.839l6.959-.458 2.39 2.507" opacity=".34"/></g><path fill="url(#v)" d="M119.253 119.147c.069.295-1.14 10.836-1.14 10.836l-6.389-.64 1.601-14.925z"/><mask id="w" width="9" height="17" x="111" y="114" maskUnits="userSpaceOnUse" style="mask-type:luminance"><path fill="#fff" fill-rule="evenodd" d="M119.221 119.204c.068.298-1.128 10.906-1.128 10.906l-6.314-.644 1.582-15.021z" clip-rule="evenodd"/></mask><g mask="url(#w)"><path fill="url(#x)" d="M118.707 121.59c4.697 1.347-4.961 3.345-7.266 2.834s-1.883-3.578-1.883-3.578l6.433-.093" opacity=".34"/></g><path fill="url(#y)" d="m126.285 58.354-7.066 64.068s-2.896 1.724-9.503-1.033l2.775-47.91.613-21.32z"/><mask id="z" width="18" height="72" x="109" y="52" maskUnits="userSpaceOnUse" style="mask-type:luminance"><path fill="#fff" fill-rule="evenodd" d="m126.247 58.412-7.146 64.306s-2.929 1.731-9.611-1.036l2.807-48.09.62-21.4z" clip-rule="evenodd"/></mask><g mask="url(#z)"><path fill="url(#A)" d="M123.156 108.657c-4.715.777-13.868-.014-13.233-1.327.635-1.314 14.16-3.178 14.16-3.178l2.164 1.864"/></g><path fill="url(#B)" d="M102.465 121.619s-1.185 1.611-8.817-2.277l16.039-65.175 12.581 1.954z"/><mask id="C" width="30" height="69" x="93" y="54" maskUnits="userSpaceOnUse" style="mask-type:luminance"><path fill="#fff" fill-rule="evenodd" d="M102.671 121.704s-1.169 1.613-8.7-2.279L109.8 54.181l12.416 1.956z" clip-rule="evenodd"/></mask><g mask="url(#C)"><path fill="url(#D)" d="M119.501 62.363c-5.903 3.478-9.79-.382-15.324 16.74-1.046 3.24 3.969-21.045 3.969-21.045z"/><path fill="url(#E)" d="M108.15 109.513c-6.144.36-11.419-1.466-11.171-2.487s8.303-2.017 8.303-2.017l1.765.845"/></g><path fill="url(#F)" d="M114.752 41.112c-5.351 12.575-4.276 15.913 1.69 15.578.419-.064.39-.022 0 0-2.11.323-6.85-.34-8.69 1.282s-4.563-6.63-4.563-6.63l1.499-2.906"/><path fill="url(#G)" d="M112.008 132.996h18.71s1.364-2.675-6.802-2.558c-6.065.087-5.196-4.974-5.196-4.974s-2.384 2.027-7.186 1.905l-.788 4.059c-.16.826.437 1.568 1.262 1.568"/><path fill="url(#H)" d="M99.172 128.436s-4.515-1.438-5.364-2.972c0 0-1.258 7.43-7.506 6.401C79.5 130.745 79.59 134 79.59 134h16.906c.864 0 1.629-.602 1.8-1.416z"/><path fill="url(#I)" d="M123.463 28.509c-.013.273.311 7.582.311 7.582l-7.029-.79 1.78-9.252z"/><mask id="J" width="8" height="11" x="117" y="26" maskUnits="userSpaceOnUse" style="mask-type:luminance"><path fill="#fff" fill-rule="evenodd" d="M123.942 28.98c-.013.268.318 7.424.318 7.424l-7.168-.773 1.815-9.058z" clip-rule="evenodd"/></mask><g mask="url(#J)"><path fill="url(#K)" d="M126.05 36.191c-3.641-1.987-1.948-4.167-4.031-5.549-2.084-1.38-2.294-3.368-2.294-3.368l5.6.917 1.082 5.911-.06 1.223" opacity=".34"/></g><path fill="url(#L)" d="M126.215 20.024c3.518 12.706-2.274 12.209-7.691 7.453-3.692-4.226 1.8-6.79 1.8-6.79z"/><mask id="M" width="11" height="11" x="117" y="20" maskUnits="userSpaceOnUse" style="mask-type:luminance"><path fill="#fff" fill-rule="evenodd" d="M126.183 20.564c3.546 12.428-2.293 11.941-7.753 7.29-3.722-4.134 1.814-6.642 1.814-6.642z" clip-rule="evenodd"/></mask><g mask="url(#M)"><path fill="url(#N)" d="M128.738 22.198c-2.167 1.25-5.71-.186-5.71-.186s.429 2.677-2.629 1.523c-3.059-1.154 4.276-3.464 4.276-3.464l3.818-.094.847 2.22" opacity=".34"/></g><path fill="url(#O)" d="M119.042 26.565c1.442.504-1.213-2.866.804-1.82 2.018 1.048 3.284-2.833 3.284-2.833 9.847 2.365 6.525-10.586-.376-4.615 1.006-2.404-2.041-3.864-3.303.543-1.263 4.408-5.811 1.137-1.158 10.72z"/><path fill="url(#P)" d="M126.481 104.62c-4.812 4.671-19.778 2.019-19.778 2.019s10.855-68.106 17.222-73.058c1.998.66 7.38 4.897 7.38 4.897.117.119-6.542 41.735-4.824 66.142"/><mask id="Q" width="26" height="75" x="106" y="33" maskUnits="userSpaceOnUse" style="mask-type:luminance"><path fill="#fff" fill-rule="evenodd" d="M126.454 104.739c-4.795 4.676-19.708 2.021-19.708 2.021s10.817-68.183 17.161-73.14c1.991.66 7.353 4.903 7.353 4.903.117.118-6.519 41.781-4.806 66.216" clip-rule="evenodd"/></mask><g mask="url(#Q)"><path fill="url(#R)" d="M122.458 79.754h9.998l-.089-9.616h-9.998z"/><path fill="#fff" d="M121.51 71.21h11.735l-.696-3.234-10.976.161z"/><path fill="url(#S)" d="M115.606 80.787c3.398-3.472-3.111 27.446-.801 30.215 2.31 2.77-10.073-4.242-10.073-4.242l8.213-26.036" opacity=".33"/></g><path fill="url(#T)" d="M112.007 107.132c-12.84 3.826-19.362-2.274-19.362-2.274 3.294-25.954 17.748-62.57 17.427-69.469 0 0 4.382-1.448 7.565-2.31 0 0 .641 5.583-.268 15.863-.051.588 1.941 3.511 1.886 4.117-1.428 15.708-4.154 38.009-7.248 54.073"/><mask id="U" width="27" height="76" x="92" y="33" maskUnits="userSpaceOnUse" style="mask-type:luminance"><path fill="#fff" fill-rule="evenodd" d="M111.528 106.996c-12.779 3.817-19.271-2.268-19.271-2.268 3.279-25.893 17.664-62.424 17.346-69.307 0 0 4.36-1.444 7.529-2.305 0 0 .638 5.57-.266 15.827-.052.586 1.931 3.502 1.876 4.107-1.421 15.67-4.135 37.92-7.214 53.946" clip-rule="evenodd"/></mask><g mask="url(#U)"><path fill="url(#V)" d="M110.71 46.805c2.578.138-5.5 13.796-11.129 30.69 0 0-3.019-9.636-5.546-1.486-2.85 9.188 7.936-24.291 7.936-24.291l4.967-1.387"/></g><path fill="url(#W)" d="M97.164 65.737s-1.603 5.507-4.095 5.118-6.702.885-6.702.885-1.169-.44.576-1.644l-2.138.463s-1.034-.382.373-1.065c0 0-1.84.448-4.081-.61 0 0 .06-1.054.62-.885.558.169 8.213-.493 8.835-1.19.622-.698 2.29-3.103 2.29-3.103z"/><mask id="X" width="17" height="9" x="81" y="63" maskUnits="userSpaceOnUse" style="mask-type:luminance"><path fill="#fff" fill-rule="evenodd" d="M97.16 65.757s-1.587 5.511-4.058 5.122-6.643.886-6.643.886-1.158-.44.571-1.645l-2.119.462s-1.026-.382.37-1.065c0 0-1.825.449-4.046-.61 0 0 .06-1.056.614-.887s8.142-.493 8.758-1.19c.617-.698 2.27-3.105 2.27-3.105z" clip-rule="evenodd"/></mask><g mask="url(#X)"><path fill="url(#Y)" d="M99.044 67.745c-8.461.884-9.106-2.578-9.106-2.578l4.599-1.442 5.733 2.847" opacity=".34"/></g><path fill="url(#Z)" d="M98.64 69.732c-1.965-.127-7.153-2.126-8.004-4.779l15.693-27.24c2.213-3.132 5.441-3.634 7.289-2.72l-.456-.327c1.956.967-1.655 12.906-2.801 14.869z"/><path fill="url(#aa)" d="m124.351 35.497.93 2.44-2.596 7.432-5.115.262-1.829-8.373 1.219-2.673 3.266.753 1.878.088 1.462.195"/><path fill="url(#ab)" d="m121.388 36.692.88 7.982-2.607 6.982-1.588-.9-.324-6.564 2.261-8.1z"/><path fill="url(#ac)" d="m122.77 35.26-1.143 1.722c-.277.42-.732.652-1.201.61l-.376-.034c-.459-.043-.863-.35-1.065-.808l-.734-1.663 2.396.002z"/><path fill="url(#ad)" d="M125.198 34.33s-.954-2.226-1.368-2.256c0 0-.576 2.3-3.068 3.156l2.013 2.87s3.042-2.03 2.423-3.77"/><path fill="url(#ae)" d="M115.894 32.793s1.5-1.754 1.914-1.722c0 0 .646 2.624 2.954 3.889l-2.242 2.637s-3.548-3.088-2.626-4.804"/><path fill="#fff" d="M124.656 33.079s-5.164 16.555-6.404 18.313l.666 1.77 7.93-9.552-2.181-2.077 3.125-.661-1.381-5.503s-1.036-1.9-1.755-2.29"/><path fill="#fff" d="m116.606 32.074 2.148 21.088L112.66 43.1l2.462-2.362-2.895-.766 2.394-5.991s.632-1.11 1.985-1.907"/><ellipse cx=".864" cy=".881" fill="#fff" rx=".864" ry=".881" transform="rotate(31.89 -38.378 236.79)scale(-1 1)"/><ellipse cx=".864" cy=".881" fill="#fff" rx=".864" ry=".881" transform="rotate(-148.11 68.51 17.13)scale(1 -1)"/><path fill="#e3ebfd" d="M127.367 24.543c-.409.938-1.572.228-1.572.228s-1.199 1.42-4.215.582c-.497.128.457 3.318-.316 3.511 4.965 5.13 7.617.315 6.103-4.321"/><path fill="#cddefd" d="m122.268 26.551-.566-.787-2.447-1.221.148.433 2.288 1.575m.577 2.002-3.013-.998 2.757 1.507.252-.276"/><path fill="url(#af)" d="M120.762 25.73c-3.46-4.674-5.563 1.776-.482 2.328z"/><path fill="url(#ag)" d="m114.737 50.037.853.113.148-1.411a.63.63 0 0 0-.088-.396.41.41 0 0 0-.287-.199c-.238-.029-.45.186-.478.482z"/><path fill="url(#ah)" d="m113.733 49.539.818.109.181-1.777c.035-.374-.119-.702-.345-.732s-.438.25-.474.623z"/><path fill="#fff" d="m111.724 50.433 4.427.219.092-1.287-4.427-.22zm.614 7.671q.16.113.296.25c1.585 1.592 1.085 5.623.754 8.291l-.071.576-.488-.045.071-.577c.301-2.426.804-6.486-.626-7.923-.387-.39-.889-.562-1.534-.526l-.02-.463q.954-.052 1.618.416"/><mask id="ai" width="4" height="11" x="110" y="57" maskUnits="userSpaceOnUse" style="mask-type:luminance"><path fill="#fff" fill-rule="evenodd" d="M111.973 58.125q.144.115.267.254c1.428 1.608.977 5.682.679 8.378l-.064.581-.439-.045.063-.584c.271-2.45.725-6.553-.564-8.005-.349-.394-.801-.568-1.382-.531l-.018-.469c.572-.036 1.061.106 1.458.421" clip-rule="evenodd"/></mask><g mask="url(#ai)"><path fill="url(#aj)" d="M112.302 66.885c.617-.128.583-.23.749-.528.166-.3.437.55.416.58-.02.032-.726.639-.733.587-.006-.051-.601-.358-.601-.358"/></g><path fill="url(#ak)" d="m109.755 57.682 1.042.054a.54.54 0 0 1 .317.116c.08.068.118.155.106.243l-.034.279c-.022.184-.247.323-.505.31l-1.042-.053a.54.54 0 0 1-.317-.116c-.08-.068-.118-.155-.106-.243l.034-.279c.022-.185.247-.323.505-.311"/><path fill="url(#al)" d="m108.209 71.873-.09.411c-.369 1.683-.75 3.422-2.145 4.116-.968.482-2.034.53-3.79-.155l.376-.622c1.533.596 2.316.53 3.068.156 1.074-.534 1.403-2.035 1.751-3.624l.092-.415z"/><path fill="#fff" d="M114.401 59.734a2.3 2.3 0 0 0-.381-.043c-2.231-.073-5.049 2.857-6.914 4.796l-.403.418.342.308.404-.42c1.696-1.762 4.533-4.713 6.547-4.647.547.017.995.253 1.372.72l.373-.282c-.371-.461-.821-.746-1.34-.85"/><path fill="url(#am)" d="m116.64 60.859-.573-.566a.36.36 0 0 0-.51.01l-.212.216a.363.363 0 0 0 0 .512l.573.565a.36.36 0 0 0 .51-.008l.212-.217a.363.363 0 0 0 0-.512"/><path fill="url(#an)" d="M113.231 67.555c-.484 4.016-2.677 4.911-3.597 5.11a3.7 3.7 0 0 1-3.973-1.787c-.442-.785-1.199-2.909 1.288-5.665l.519.473c-1.53 1.696-1.965 3.458-1.191 4.834a3 3 0 0 0 3.221 1.45c1.625-.35 2.731-1.987 3.032-4.489z"/><path fill="url(#ao)" d="M101.683 78.77h10.037l1.511-9.038h-10.038z"/><path fill="#fff" d="M102.184 70.736h11.291l.257-3.013h-10.379z"/><path fill="url(#ap)" d="m140.808 78.993-2.339.298q.814-.103 1.601-.334l2.339-.298q-.787.23-1.601.334"/><mask id="aq" width="5" height="2" x="138" y="78" maskUnits="userSpaceOnUse" style="mask-type:luminance"><path fill="#fff" fill-rule="evenodd" d="m140.808 78.993-2.339.298q.814-.103 1.601-.334l2.339-.298q-.787.23-1.601.334" clip-rule="evenodd"/></mask><g mask="url(#aq)"><path fill="url(#ar)" d="m140.808 78.993-2.339.298.089-.012 2.339-.298z"/></g><path fill="url(#as)" d="M128.549 77.257q.049-.135.104-.258l.013-.029q.048-.103.099-.197l.043-.078a3 3 0 0 1 .096-.153l.039-.059q.063-.09.137-.175l.032-.034q.063-.069.13-.128l.03-.028a1.6 1.6 0 0 1 .296-.198l.04-.019.08-.034q.042-.016.085-.029l.054-.016q.048-.012.096-.02l.05-.01-2.339.299-.011.001-.038.008a1 1 0 0 0-.097.02l-.054.016q-.043.013-.085.029l-.017.005-.063.03q-.02.007-.04.017-.061.031-.121.07l-.037.023a2 2 0 0 0-.138.106l-.03.028q-.034.028-.066.06-.033.032-.064.068l-.032.034q-.064.073-.124.154l-.013.021-.039.059q-.05.073-.095.153l-.044.078-.036.065-.063.133-.013.028a5 5 0 0 0-.104.258l-.022.062a6 6 0 0 0-.188.655l-.003.014-.004.017-.004.016-.006.03-.005.02-.008.036-.007.028-.018.08-.01.04-.011.045-.012.053-.012.046-.016.064-.011.047-.019.075-.012.047-.033.127-.01.041-.028.106-.015.056-.026.1-.018.065-.026.097-.02.073-.029.103-.02.073-.031.11-.023.08-.032.11-.022.078-.081.272-.014.047-.083.271-.012.04-.096.304-.021.067-.105.323-.009.027q-.05.156-.106.316l-.023.07-.118.34-.024.07-.133.37q-.065.18-.135.367l-.031.082-.143.374-.018.047-.14.354-.03.074-.158.386-.033.079-.165.386-.01.023-.178.404-.039.087q-.09.2-.185.403-.013.03-.028.058a23 23 0 0 1-.414.851l-.045.09q-.092.18-.187.36l-.021.04q-.102.195-.21.39l-.05.092-.215.383-.007.013q-.113.195-.228.388l-.056.093q-.117.194-.236.386l-.014.021q-.114.183-.233.364l-.06.09q-.123.189-.252.375l-.03.043-.237.336-.055.077a21 21 0 0 1-.82 1.053l-.034.04q-.213.254-.433.495l-.021.025q-.232.253-.473.496l-.899.916 2.338-.298.9-.916q.241-.242.472-.496l.022-.025q.22-.242.432-.494l.035-.041q.204-.246.401-.497l.042-.054q.192-.247.376-.502l.02-.026.036-.051q.12-.167.237-.335l.03-.044a16 16 0 0 0 .311-.464q.119-.182.235-.366l.012-.02q.12-.191.237-.385l.056-.094q.116-.194.228-.389l.006-.01q.11-.192.215-.384l.052-.094q.107-.195.209-.389l.021-.04.187-.36.026-.051.019-.039q.103-.202.201-.405l.034-.07q.091-.187.179-.375l.028-.059.185-.403.039-.087q.091-.203.178-.403l.011-.026q.084-.194.163-.384l.033-.08.159-.385.029-.074.141-.355.018-.046q.074-.189.143-.374l.031-.083.135-.366.013-.035.12-.336.024-.069.118-.34.023-.07q.055-.16.106-.316l.009-.027a58 58 0 0 0 .235-.736l.082-.269.014-.047.08-.272.007-.024.016-.054.031-.11.054-.187.021-.077.029-.102.02-.073.026-.097.018-.066.026-.099.015-.056.028-.106.011-.043.031-.123.015-.057.017-.067.011-.047.016-.064.011-.046.013-.053.011-.045.009-.04.01-.04.009-.04.007-.028.008-.036.005-.02.006-.03.004-.015.004-.018.003-.013.003-.016a6 6 0 0 1 .207-.703"/><path fill="url(#at)" d="M142.944 132.802a64 64 0 0 1-1.888-1.087l-.124-.075a43 43 0 0 1-.732-.451l-.153-.096a52 52 0 0 1-.778-.502l-.162-.108a46 46 0 0 1-.707-.479l-.082-.056a37 37 0 0 1-.738-.525l-.165-.12a46 46 0 0 1-.719-.537l-.057-.044a38 38 0 0 1-.657-.517l-.146-.118a41 41 0 0 1-.666-.55l-.118-.102a32 32 0 0 1-.692-.605 38 38 0 0 1-1.353-1.279l-.023-.023a31 31 0 0 1-.591-.607l-.13-.137a40 40 0 0 1-.636-.694q-.252-.284-.497-.572l-.107-.127q-.264-.314-.519-.633l-.103-.13a33 33 0 0 1-.463-.599l-.063-.084a26 26 0 0 1-.484-.665l-.108-.153a42 42 0 0 1-.47-.687l-.021-.034a28 28 0 0 1-.532-.832q-.13-.212-.257-.427-.128-.21-.251-.423-.116-.201-.229-.405-.121-.214-.239-.431-.112-.206-.219-.414-.116-.22-.229-.441-.106-.21-.209-.423-.11-.225-.218-.451a28 28 0 0 1-.267-.579l-.098-.215q-.182-.41-.357-.829l-.071-.176a59 59 0 0 1-.27-.674l-.112-.294a38 38 0 0 1-.221-.594l-.103-.285a54 54 0 0 1-.234-.679l-.069-.202a52 52 0 0 1-.285-.891l-.066-.22a62 62 0 0 1-.213-.723l-.065-.229a47 47 0 0 1-.25-.915l-3.479-13.295a4 4 0 0 1-.081-.396l-.007-.049a4 4 0 0 1-.031-.28l-.002-.04a3 3 0 0 1-.007-.173l-.001-.063q0-.083.003-.164l.002-.046q.003-.07.011-.14l.002-.035q.01-.087.023-.17l.008-.043.022-.118.014-.059.025-.096.015-.05.041-.123.018-.046a1.6 1.6 0 0 1 .124-.254l.021-.03.05-.075-2.338.297-.014.02q-.02.027-.037.056l-.02.03q-.031.05-.059.105a2 2 0 0 0-.083.195q-.022.06-.042.123l-.01.03-.005.02-.024.096-.015.059-.022.117-.008.045a3 3 0 0 0-.022.169l-.003.037q-.007.068-.011.138l-.001.012-.001.034a4 4 0 0 0 .005.4l.001.032.001.008q.011.14.031.28l.003.028.004.021q.018.12.044.237l.002.012.036.147 3.478 13.295a55 55 0 0 0 .315 1.144q.032.117.066.233.073.246.148.491.032.11.066.218.138.45.285.892l.068.202q.115.342.235.679.05.143.102.284l.095.265q.062.166.126.33l.112.294q.133.34.27.674l.072.176q.174.418.356.828.049.11.099.217.1.226.203.448l.063.129q.108.227.218.452.104.213.209.422.113.223.229.442.109.208.219.413.118.218.24.433.112.203.228.404.124.212.251.423l.177.3.08.127.097.155q.213.341.434.676l.023.035q.23.346.469.687l.108.153q.238.335.484.665l.063.084q.228.302.463.598l.103.131q.255.32.519.633l.108.127q.244.288.496.571l.074.084q.276.308.562.611l.13.137q.29.306.591.606l.025.025a33 33 0 0 0 .729.705 34 34 0 0 0 1.313 1.178l.12.102q.327.277.664.55l.148.119q.324.259.656.515l.058.045a37 37 0 0 0 .883.657q.366.266.739.525l.08.056q.35.242.709.479l.161.107q.384.253.777.502l.155.097q.362.228.731.451l.124.075q.409.246.829.488l.189.109q.43.246.87.49.248.142.53.186a1.3 1.3 0 0 0 .318.002l2.339-.298a1.37 1.37 0 0 1-.848-.188"/><mask id="au" width="27" height="42" x="117" y="92" maskUnits="userSpaceOnUse" style="mask-type:luminance"><path fill="#fff" fill-rule="evenodd" d="M142.944 132.802a64 64 0 0 1-1.888-1.087l-.124-.075a43 43 0 0 1-.732-.451l-.153-.096a52 52 0 0 1-.778-.502l-.162-.108a46 46 0 0 1-.707-.479l-.082-.056a37 37 0 0 1-.738-.525l-.165-.12a46 46 0 0 1-.719-.537l-.057-.044a38 38 0 0 1-.657-.517l-.146-.118a41 41 0 0 1-.666-.55l-.118-.102a32 32 0 0 1-.692-.605 38 38 0 0 1-1.353-1.279l-.023-.023a31 31 0 0 1-.591-.607l-.13-.137a40 40 0 0 1-.636-.694q-.252-.284-.497-.572l-.107-.127q-.264-.314-.519-.633l-.103-.13a33 33 0 0 1-.463-.599l-.063-.084a26 26 0 0 1-.484-.665l-.108-.153a42 42 0 0 1-.47-.687l-.021-.034a28 28 0 0 1-.532-.832q-.13-.212-.257-.427-.128-.21-.251-.423-.116-.201-.229-.405-.121-.214-.239-.431-.112-.206-.219-.414-.116-.22-.229-.441-.106-.21-.209-.423-.11-.225-.218-.451a28 28 0 0 1-.267-.579l-.098-.215q-.182-.41-.357-.829l-.071-.176a59 59 0 0 1-.27-.674l-.112-.294a38 38 0 0 1-.221-.594l-.103-.285a54 54 0 0 1-.234-.679l-.069-.202a52 52 0 0 1-.285-.891l-.066-.22a62 62 0 0 1-.213-.723l-.065-.229a47 47 0 0 1-.25-.915l-3.479-13.295a4 4 0 0 1-.081-.396l-.007-.049a4 4 0 0 1-.031-.28l-.002-.04a3 3 0 0 1-.007-.173l-.001-.063q0-.083.003-.164l.002-.046q.003-.07.011-.14l.002-.035q.01-.087.023-.17l.008-.043.022-.118.014-.059.025-.096.015-.05.041-.123.018-.046a1.6 1.6 0 0 1 .124-.254l.021-.03.05-.075-2.338.297-.014.02q-.02.027-.037.056l-.02.03q-.031.05-.059.105a2 2 0 0 0-.083.195q-.022.06-.042.123l-.01.03-.005.02-.024.096-.015.059-.022.117-.008.045a3 3 0 0 0-.022.169l-.003.037q-.007.068-.011.138l-.001.012-.001.034a4 4 0 0 0 .005.4l.001.032.001.008q.011.14.031.28l.003.028.004.021q.018.12.044.237l.002.012.036.147 3.478 13.295a55 55 0 0 0 .315 1.144q.032.117.066.233.073.246.148.491.032.11.066.218.138.45.285.892l.068.202q.115.342.235.679.05.143.102.284l.095.265q.062.166.126.33l.112.294q.133.34.27.674l.072.176q.174.418.356.828.049.11.099.217.1.226.203.448l.063.129q.108.227.218.452.104.213.209.422.113.223.229.442.109.208.219.413.118.218.24.433.112.203.228.404.124.212.251.423l.177.3.08.127.097.155q.213.341.434.676l.023.035q.23.346.469.687l.108.153q.238.335.484.665l.063.084q.228.302.463.598l.103.131q.255.32.519.633l.108.127q.244.288.496.571l.074.084q.276.308.562.611l.13.137q.29.306.591.606l.025.025a33 33 0 0 0 .729.705 34 34 0 0 0 1.313 1.178l.12.102q.327.277.664.55l.148.119q.324.259.656.515l.058.045a37 37 0 0 0 .883.657q.366.266.739.525l.08.056q.35.242.709.479l.161.107q.384.253.777.502l.155.097q.362.228.731.451l.124.075q.409.246.829.488l.189.109q.43.246.87.49.248.142.53.186a1.3 1.3 0 0 0 .318.002l2.339-.298a1.37 1.37 0 0 1-.848-.188" clip-rule="evenodd"/></mask><g mask="url(#au)"><path fill="url(#av)" d="M116.018 97.009c13.486 42.207 39.48 35.991 39.48 35.991l-23.062 7.192-18.177-20.116"/></g><path fill="url(#aw)" d="M129.447 75.988c.479-.304 1.005-.259 1.496.065l.148.116c.054.042 5.41 4.22 11.318 2.49l1.022-.299c.5-.06 1.037.512 1.286 1.462l3.478 13.295c2.907 11.111 2.037 22.539-2.91 38.214-.217.676-.545 1.195-.974 1.467-.438.278-.913.259-1.367.004-10.563-5.819-16.31-13.042-19.216-24.148l-3.479-13.294c-.247-.946-.131-1.946.25-2.451l.9-.916c4.979-5.012 6.9-13.834 6.943-14.034.226-.977.593-1.646 1.105-1.97"/><mask id="ax" width="30" height="58" x="120" y="75" maskUnits="userSpaceOnUse" style="mask-type:luminance"><path fill="#fff" fill-rule="evenodd" d="M129.447 75.988c.479-.304 1.005-.259 1.496.065l.148.116c.054.042 5.41 4.22 11.318 2.49l1.022-.299c.5-.06 1.037.512 1.286 1.462l3.478 13.295c2.907 11.111 2.037 22.539-2.91 38.214-.217.676-.545 1.195-.974 1.467-.438.278-.913.259-1.367.004-10.563-5.819-16.31-13.042-19.216-24.148l-3.479-13.294c-.247-.946-.131-1.946.25-2.451l.9-.916c4.979-5.012 6.9-13.834 6.943-14.034.226-.977.593-1.646 1.105-1.97" clip-rule="evenodd"/></mask><g mask="url(#ax)"><path fill="url(#ay)" d="M120.119 88.635c-2.525 32.182 29.737 46.089 29.737 46.089l-28.806 1.953-12.458-38.125 9.189-16.17"/></g><path fill="url(#az)" d="M131.332 81.527c.375-.239.787-.203 1.172.051l.116.09c.042.034 4.24 3.308 8.87 1.952l.8-.234c.392-.048.813.4 1.008 1.145l2.726 10.419c2.278 8.707 1.596 17.662-2.28 29.946-.171.53-.428.936-.764 1.15-.343.218-.716.203-1.071.003-8.278-4.56-12.782-10.221-15.059-18.924l-2.726-10.418c-.194-.74-.103-1.525.196-1.92l.705-.718c3.902-3.927 5.407-10.841 5.441-10.998.177-.765.464-1.29.866-1.544"/><mask id="aA" width="24" height="46" x="124" y="81" maskUnits="userSpaceOnUse" style="mask-type:luminance"><path fill="#fff" fill-rule="evenodd" d="M131.332 81.527c.375-.238.788-.203 1.173.051l.115.09c.043.034 4.24 3.308 8.87 1.952l.801-.234c.392-.048.812.4 1.007 1.145l2.726 10.419c2.279 8.707 1.596 17.662-2.28 29.946-.171.53-.427.936-.764 1.15-.343.218-.715.203-1.071.003-8.277-4.56-12.781-10.22-15.059-18.924l-2.725-10.418c-.194-.74-.103-1.525.195-1.92l.706-.718c3.901-3.927 5.407-10.841 5.44-10.998.178-.765.465-1.29.866-1.544" clip-rule="evenodd"/></mask><g mask="url(#aA)"><path fill="url(#aB)" d="M112.838 81.367s11.88-7.724 15.445-3.152c15.509 19.886 13.449 39.316 14.697 47.831S118.852 114.9 118.852 114.9l-.293-24.12"/></g><path fill="url(#aC)" d="m140.732 96.047 1.099-.134a.3.3 0 0 0-.123.045l-1.099.134a.3.3 0 0 1 .123-.045"/><mask id="aD" width="2" height="2" x="140" y="95" maskUnits="userSpaceOnUse" style="mask-type:luminance"><path fill="#fff" fill-rule="evenodd" d="m140.732 96.047 1.099-.134a.3.3 0 0 0-.123.045l-1.099.134a.3.3 0 0 1 .123-.045" clip-rule="evenodd"/></mask><g mask="url(#aD)"><path fill="url(#aE)" d="m141.708 95.958-1.099.134a.3.3 0 0 1 .056-.028l1.099-.134a.3.3 0 0 0-.056.028"/><path fill="url(#aF)" d="m141.764 95.93-1.099.134a.3.3 0 0 1 .067-.017l1.099-.134a.3.3 0 0 0-.067.017"/></g><path fill="url(#aG)" d="m139.534 97.33-1.099.135 2.174-1.373 1.099-.134z"/><path fill="url(#aH)" d="m136.747 92.51 1.099-.134a.3.3 0 0 0-.123.045l-1.099.134a.3.3 0 0 1 .123-.045"/><mask id="aI" width="2" height="1" x="136" y="92" maskUnits="userSpaceOnUse" style="mask-type:luminance"><path fill="#fff" fill-rule="evenodd" d="m136.747 92.51 1.099-.134a.3.3 0 0 0-.123.045l-1.099.134a.3.3 0 0 1 .123-.045" clip-rule="evenodd"/></mask><g mask="url(#aI)"><path fill="url(#aJ)" d="m137.723 92.421-1.099.134a.3.3 0 0 1 .055-.028l1.099-.134a.3.3 0 0 0-.055.028"/><path fill="url(#aK)" d="m137.778 92.393-1.099.134a.3.3 0 0 1 .068-.017l1.099-.134a.3.3 0 0 0-.068.017"/></g><path fill="url(#aL)" d="m139.913 109.164-1.099.134c-.232.028-.478-.241-.59-.676l1.099-.135c.112.435.358.705.59.677"/><mask id="aM" width="2" height="2" x="138" y="108" maskUnits="userSpaceOnUse" style="mask-type:luminance"><path fill="#fff" fill-rule="evenodd" d="m139.913 109.164-1.099.134c-.232.028-.478-.241-.59-.676l1.099-.135c.112.435.358.705.59.677" clip-rule="evenodd"/></mask><g mask="url(#aM)"><path fill="url(#aN)" d="m139.913 109.164-1.099.134c-.156.019-.317-.096-.441-.305l1.099-.134c.124.209.285.324.441.305"/><path fill="url(#aO)" d="m139.472 108.859-1.099.134a1 1 0 0 1-.063-.122l1.099-.134a1 1 0 0 0 .063.122"/><path fill="url(#aP)" d="m139.409 108.737-1.099.134-.045-.113 1.099-.134q.021.059.045.113"/><path fill="url(#aQ)" d="m139.364 108.624-1.099.134-.035-.113 1.099-.135q.017.06.035.114"/><path fill="url(#aR)" d="m139.329 108.51-1.099.135-.006-.023 1.099-.134z"/></g><path fill="url(#aS)" d="m139.323 108.487-1.099.135-1.099-4.278 1.099-.134z"/><path fill="url(#aT)" d="m136.022 93.495-1.099.134 1.701-1.074 1.099-.134z"/><path fill="url(#aU)" d="m136.886 99.002-1.099.134-1.099-4.278 1.099-.134z"/><path fill="url(#aV)" d="m135.787 94.724-1.099.134c-.132-.513-.027-1.064.235-1.229l1.099-.134c-.262.165-.366.715-.235 1.229"/><mask id="aW" width="3" height="2" x="134" y="93" maskUnits="userSpaceOnUse" style="mask-type:luminance"><path fill="#fff" fill-rule="evenodd" d="m135.787 94.724-1.099.134c-.132-.513-.027-1.064.235-1.229l1.099-.134c-.262.165-.366.715-.235 1.229" clip-rule="evenodd"/></mask><g mask="url(#aW)"><path fill="url(#aX)" d="m135.787 94.724-1.099.134-.022-.096 1.099-.134z"/><path fill="url(#aY)" d="m135.765 94.628-1.099.134-.021-.128 1.099-.134z"/><path fill="url(#aZ)" d="m135.745 94.5-1.099.134a2 2 0 0 1-.013-.153l1.099-.134q.003.076.013.153"/><path fill="url(#ba)" d="m135.732 94.347-1.099.134a2 2 0 0 1 .009-.262l1.099-.134q-.015.131-.009.262"/><path fill="url(#bb)" d="m135.741 94.085-1.099.134q.01-.09.032-.178l1.099-.135a1.4 1.4 0 0 0-.032.18"/><path fill="url(#bc)" d="m135.773 93.907-1.099.134a1 1 0 0 1 .074-.203l1.099-.134a1 1 0 0 0-.074.203"/><path fill="url(#bd)" d="m135.846 93.704-1.099.134a.6.6 0 0 1 .057-.094l1.099-.135a.6.6 0 0 0-.057.095"/><path fill="url(#be)" d="m135.903 93.61-1.099.134.055-.064 1.099-.135z"/><path fill="url(#bf)" d="m135.958 93.545-1.099.135a.4.4 0 0 1 .058-.047l1.099-.134a.4.4 0 0 0-.058.046"/><path fill="url(#bg)" d="m136.016 93.499-1.099.134.006-.004 1.099-.134z"/></g><path fill="url(#bh)" d="m135.927 105.627-1.099.134c-.231.028-.477-.241-.589-.676l1.099-.135c.112.435.358.705.589.677"/><mask id="bi" width="2" height="2" x="134" y="104" maskUnits="userSpaceOnUse" style="mask-type:luminance"><path fill="#fff" fill-rule="evenodd" d="m135.927 105.627-1.099.134c-.231.028-.477-.241-.589-.676l1.099-.135c.112.435.358.705.589.677" clip-rule="evenodd"/></mask><g mask="url(#bi)"><path fill="url(#bj)" d="m135.927 105.627-1.099.134c-.155.019-.317-.096-.44-.305l1.099-.134c.123.209.285.324.44.305"/><path fill="url(#bk)" d="m135.487 105.322-1.099.134a1 1 0 0 1-.063-.122l1.099-.134q.029.063.063.122"/><path fill="url(#bl)" d="m135.424 105.2-1.099.134-.045-.113 1.099-.134q.021.059.045.113"/><path fill="url(#bm)" d="m135.378 105.087-1.099.134-.035-.113 1.099-.135q.017.06.035.114"/><path fill="url(#bn)" d="m135.344 104.973-1.099.134-.006-.022 1.099-.135z"/></g><path fill="url(#bo)" d="m134.712 100.374-1.099.134 2.174-1.372 1.099-.134z"/><path fill="url(#bp)" d="m135.337 104.951-1.099.134-.86-3.348 1.099-.134z"/><path fill="url(#bq)" d="m134.478 101.603-1.099.134c-.132-.513-.027-1.064.234-1.229l1.099-.134c-.261.165-.366.715-.234 1.229"/><mask id="br" width="2" height="2" x="133" y="100" maskUnits="userSpaceOnUse" style="mask-type:luminance"><path fill="#fff" fill-rule="evenodd" d="m134.478 101.603-1.099.134c-.132-.513-.027-1.064.234-1.229l1.099-.134c-.261.165-.366.715-.234 1.229" clip-rule="evenodd"/></mask><g mask="url(#br)"><path fill="url(#bs)" d="m134.478 101.603-1.1.134-.021-.096 1.099-.134q.009.048.022.096"/><path fill="url(#bt)" d="m134.456 101.507-1.1.134a2 2 0 0 1-.02-.128l1.099-.134q.007.063.021.128"/><path fill="url(#bu)" d="m134.435 101.379-1.099.134a2 2 0 0 1-.013-.153l1.099-.134q.004.076.013.153"/><path fill="url(#bv)" d="m134.422 101.226-1.099.134a2 2 0 0 1 .009-.262l1.099-.134a2 2 0 0 0-.009.262"/><path fill="url(#bw)" d="m134.431 100.964-1.099.134q.01-.09.032-.178l1.099-.135a2 2 0 0 0-.032.179"/><path fill="url(#bx)" d="m134.463 100.785-1.099.135a1 1 0 0 1 .074-.203l1.099-.134a1 1 0 0 0-.074.202"/><path fill="url(#by)" d="m134.536 100.583-1.099.134a1 1 0 0 1 .057-.094l1.099-.135a1 1 0 0 0-.057.095"/><path fill="url(#bz)" d="m134.594 100.489-1.099.134a.4.4 0 0 1 .055-.064l1.099-.135z"/><path fill="url(#bA)" d="m134.649 100.424-1.099.135a.3.3 0 0 1 .057-.047l1.099-.134a.4.4 0 0 0-.057.046"/><path fill="url(#bB)" d="m134.706 100.378-1.099.134.006-.004 1.099-.134z"/></g><path fill="url(#bC)" d="M137.724 92.421c.261-.165.579.118.711.632l1.099 4.278 2.175-1.373c.261-.165.58.118.711.632l.86 3.347c.132.514.028 1.064-.234 1.229l-2.174 1.373 1.098 4.277c.132.514.028 1.064-.233 1.229l-1.702 1.074c-.261.165-.58-.118-.712-.631l-1.099-4.278-2.174 1.372c-.261.165-.58-.118-.712-.631l-.86-3.348c-.132-.514-.027-1.064.235-1.229l2.174-1.372-1.099-4.278c-.132-.514-.027-1.064.234-1.229z"/></g><rect width="204" height="134" x="2" y="2" stroke="#51c1ff" stroke-opacity=".07" stroke-width="4" rx="10"/><defs><linearGradient id="b" x1="-6.954" x2="4.46" y1="8.312" y2="10.448" gradientUnits="userSpaceOnUse"><stop stop-color="#00a6f0"/><stop offset="1" stop-color="#006ff1"/></linearGradient><linearGradient id="c" x1="-6.954" x2="4.46" y1="8.312" y2="10.448" gradientUnits="userSpaceOnUse"><stop stop-color="#00a6f0"/><stop offset="1" stop-color="#006ff1"/></linearGradient><linearGradient id="d" x1="57.512" x2="16.807" y1="-36.972" y2="-20.166" gradientUnits="userSpaceOnUse"><stop stop-color="#017bff"/><stop offset="1" stop-color="#018bf1"/></linearGradient><linearGradient id="e" x1="105.961" x2="128.923" y1="78.964" y2="70.265" gradientUnits="userSpaceOnUse"><stop offset=".102" stop-color="#fff"/><stop offset=".885" stop-color="#e3ebfd"/></linearGradient><linearGradient id="g" x1="111.512" x2="128.839" y1="80.13" y2="66.954" gradientUnits="userSpaceOnUse"><stop offset=".102" stop-color="#fff"/><stop offset=".885" stop-color="#cddefd"/></linearGradient><linearGradient id="h" x1="137.299" x2="147.887" y1="22.052" y2="26.591" gradientUnits="userSpaceOnUse"><stop offset=".102" stop-color="#fcadba"/><stop offset=".885" stop-color="#fbdad9"/></linearGradient><linearGradient id="j" x1="140.176" x2="141.346" y1="33.049" y2="39.645" gradientUnits="userSpaceOnUse"><stop offset=".101" stop-color="#ff7638"/><stop offset=".885" stop-color="#ff3929"/></linearGradient><linearGradient id="k" x1="140.541" x2="134.087" y1="35.929" y2="35.929" gradientUnits="userSpaceOnUse"><stop offset=".101" stop-color="#fece63"/><stop offset="1" stop-color="#f55850"/></linearGradient><linearGradient id="l" x1="144.242" x2="137.644" y1="34.993" y2="36.447" gradientUnits="userSpaceOnUse"><stop offset=".102" stop-color="#fcadba"/><stop offset=".885" stop-color="#fbdad9"/></linearGradient><linearGradient id="m" x1="139.347" x2="149.334" y1="22.721" y2="30.109" gradientUnits="userSpaceOnUse"><stop offset=".102" stop-color="#fcadba"/><stop offset=".885" stop-color="#fbdad9"/></linearGradient><linearGradient id="n" x1="147.682" x2="133.889" y1="28.671" y2="28.671" gradientUnits="userSpaceOnUse"><stop offset=".101" stop-color="#fece63"/><stop offset="1" stop-color="#f55850"/></linearGradient><linearGradient id="o" x1="-2.437" x2="-2.93" y1="6.184" y2="8.716" gradientUnits="userSpaceOnUse"><stop offset=".101" stop-color="#fece63"/><stop offset="1" stop-color="#f55850"/></linearGradient><linearGradient id="p" x1="2.449" x2="1.979" y1="-4.747" y2=".896" gradientUnits="userSpaceOnUse"><stop offset=".101" stop-color="#fece63"/><stop offset="1" stop-color="#f55850"/></linearGradient><linearGradient id="r" x1="108.359" x2="130.278" y1="77.75" y2="71.129" gradientUnits="userSpaceOnUse"><stop offset=".102" stop-color="#fff"/><stop offset=".885" stop-color="#e3ebfd"/></linearGradient><linearGradient id="s" x1="109.457" x2="99.663" y1="128.963" y2="128.963" gradientUnits="userSpaceOnUse"><stop offset=".102" stop-color="#fcadba"/><stop offset=".885" stop-color="#fbdad9"/></linearGradient><linearGradient id="u" x1="105.09" x2="95.707" y1="123.609" y2="123.609" gradientUnits="userSpaceOnUse"><stop offset=".101" stop-color="#ff7638"/><stop offset=".885" stop-color="#ff3929"/></linearGradient><linearGradient id="v" x1="125.545" x2="118.507" y1="128.188" y2="128.188" gradientUnits="userSpaceOnUse"><stop offset=".102" stop-color="#fcadba"/><stop offset=".885" stop-color="#fbdad9"/></linearGradient><linearGradient id="x" x1="121.053" x2="110.585" y1="123.968" y2="123.968" gradientUnits="userSpaceOnUse"><stop offset=".101" stop-color="#ff7638"/><stop offset=".885" stop-color="#ff3929"/></linearGradient><linearGradient id="y" x1="119.786" x2="102.476" y1="111.701" y2="115.441" gradientUnits="userSpaceOnUse"><stop stop-color="#3bb9d3"/><stop offset="1" stop-color="#46ffd6"/></linearGradient><linearGradient id="A" x1="130.581" x2="130.447" y1="107.083" y2="114.487" gradientUnits="userSpaceOnUse"><stop stop-color="#3bb9d3"/><stop offset="1" stop-color="#46ffd6"/></linearGradient><linearGradient id="B" x1="115.337" x2="90.596" y1="100.836" y2="117.888" gradientUnits="userSpaceOnUse"><stop stop-color="#3bb9d3"/><stop offset="1" stop-color="#46ffd6"/></linearGradient><linearGradient id="D" x1="94.564" x2="99.983" y1="125.597" y2="111.809" gradientUnits="userSpaceOnUse"><stop offset=".005" stop-color="#9f5bff"/><stop offset=".999" stop-color="#7418ff"/></linearGradient><linearGradient id="E" x1="109.46" x2="109.07" y1="109.055" y2="114.902" gradientUnits="userSpaceOnUse"><stop stop-color="#3bb9d3"/><stop offset="1" stop-color="#46ffd6"/></linearGradient><linearGradient id="F" x1="103.994" x2="98.864" y1="67.51" y2="71.977" gradientUnits="userSpaceOnUse"><stop offset=".004" stop-color="#4b8cff"/><stop offset="1" stop-color="#00bee1"/></linearGradient><linearGradient id="G" x1="130.964" x2="110.837" y1="133.005" y2="133.005" gradientUnits="userSpaceOnUse"><stop offset=".102" stop-color="#915758"/><stop offset=".885" stop-color="#2c090b"/></linearGradient><linearGradient id="H" x1="105.816" x2="86.504" y1="132.574" y2="132.574" gradientUnits="userSpaceOnUse"><stop offset=".102" stop-color="#915758"/><stop offset=".885" stop-color="#2c090b"/></linearGradient><linearGradient id="I" x1="113.386" x2="122.093" y1="31.147" y2="27.968" gradientUnits="userSpaceOnUse"><stop offset=".102" stop-color="#fcadba"/><stop offset=".885" stop-color="#fbdad9"/></linearGradient><linearGradient id="K" x1="133.118" x2="125.059" y1="26.689" y2="32.563" gradientUnits="userSpaceOnUse"><stop offset=".101" stop-color="#ff7638"/><stop offset=".885" stop-color="#ff3929"/></linearGradient><linearGradient id="L" x1="135.552" x2="124.647" y1="22.437" y2="35.905" gradientUnits="userSpaceOnUse"><stop offset=".102" stop-color="#fcadba"/><stop offset=".885" stop-color="#fbdad9"/></linearGradient><linearGradient id="N" x1="141.674" x2="140.373" y1="18.139" y2="29.042" gradientUnits="userSpaceOnUse"><stop offset=".101" stop-color="#ff7638"/><stop offset=".885" stop-color="#ff3929"/></linearGradient><linearGradient id="O" x1="130.67" x2="117.778" y1="28.483" y2="28.483" gradientUnits="userSpaceOnUse"><stop offset=".102" stop-color="#915758"/><stop offset=".885" stop-color="#2c090b"/></linearGradient><linearGradient id="P" x1="100.774" x2="126.279" y1="80.716" y2="74.611" gradientUnits="userSpaceOnUse"><stop offset=".102" stop-color="#fff"/><stop offset=".885" stop-color="#e3ebfd"/></linearGradient><linearGradient id="R" x1="119.974" x2="119.934" y1="81.754" y2="67.525" gradientUnits="userSpaceOnUse"><stop offset=".102" stop-color="#fff"/><stop offset=".885" stop-color="#e3ebfd"/></linearGradient><linearGradient id="S" x1="87.641" x2="113.99" y1="83.885" y2="80.568" gradientUnits="userSpaceOnUse"><stop offset=".102" stop-color="#fff"/><stop offset=".885" stop-color="#cddefd"/></linearGradient><linearGradient id="T" x1="87.826" x2="129.049" y1="75.389" y2="59.807" gradientUnits="userSpaceOnUse"><stop offset=".102" stop-color="#fff"/><stop offset=".885" stop-color="#e3ebfd"/></linearGradient><linearGradient id="V" x1="96.228" x2="86.722" y1="85.558" y2="58.039" gradientUnits="userSpaceOnUse"><stop offset=".102" stop-color="#fff"/><stop offset=".885" stop-color="#cddefd"/></linearGradient><linearGradient id="W" x1="91.688" x2="84.162" y1="73.023" y2="63.873" gradientUnits="userSpaceOnUse"><stop offset=".102" stop-color="#fcadba"/><stop offset=".885" stop-color="#fbdad9"/></linearGradient><linearGradient id="Y" x1="100.401" x2="90.045" y1="67.835" y2="67.835" gradientUnits="userSpaceOnUse"><stop offset=".101" stop-color="#ff7638"/><stop offset=".885" stop-color="#ff3929"/></linearGradient><linearGradient id="Z" x1="60.75" x2="104.347" y1="87.847" y2="31.127" gradientUnits="userSpaceOnUse"><stop offset=".102" stop-color="#fff"/><stop offset=".885" stop-color="#e3ebfd"/></linearGradient><linearGradient id="aa" x1="125.376" x2="115.839" y1="45.465" y2="45.608" gradientUnits="userSpaceOnUse"><stop offset=".008" stop-color="#00cafe"/><stop offset="1" stop-color="#0088fa"/></linearGradient><linearGradient id="ab" x1="117.606" x2="122.911" y1="44.449" y2="42.523" gradientUnits="userSpaceOnUse"><stop offset=".101" stop-color="#ffcc02"/><stop offset="1" stop-color="#ffe484"/></linearGradient><linearGradient id="ac" x1="117.157" x2="117.199" y1="37.652" y2="34.464" gradientUnits="userSpaceOnUse"><stop offset=".101" stop-color="#ffcc02"/><stop offset="1" stop-color="#ffe484"/></linearGradient><linearGradient id="ad" x1="125.321" x2="120.801" y1="38.058" y2="38.109" gradientUnits="userSpaceOnUse"><stop offset=".008" stop-color="#00cafe"/><stop offset="1" stop-color="#0088fa"/></linearGradient><linearGradient id="ae" x1="120.806" x2="115.79" y1="37.536" y2="37.599" gradientUnits="userSpaceOnUse"><stop offset=".008" stop-color="#00cafe"/><stop offset="1" stop-color="#0088fa"/></linearGradient><linearGradient id="af" x1="132.235" x2="122.851" y1="21.425" y2="31.698" gradientUnits="userSpaceOnUse"><stop offset=".102" stop-color="#fcadba"/><stop offset=".885" stop-color="#fbdad9"/></linearGradient><linearGradient id="ag" x1="113.271" x2="115.996" y1="50.694" y2="48.859" gradientUnits="userSpaceOnUse"><stop offset=".102" stop-color="#915758"/><stop offset=".885" stop-color="#2c090b"/></linearGradient><linearGradient id="ah" x1="112.068" x2="115.209" y1="49.874" y2="48.507" gradientUnits="userSpaceOnUse"><stop offset=".008" stop-color="#00cafe"/><stop offset="1" stop-color="#0088fa"/></linearGradient><linearGradient id="aj" x1="113.855" x2="113.939" y1="65.399" y2="67.489" gradientUnits="userSpaceOnUse"><stop offset=".102" stop-color="#dcdcf8"/><stop offset=".885" stop-color="#f5f6fe"/></linearGradient><linearGradient id="ak" x1="110.151" x2="109.537" y1="59.018" y2="57.691" gradientUnits="userSpaceOnUse"><stop offset=".102" stop-color="#915a57"/><stop offset=".885" stop-color="#2c0b09"/></linearGradient><linearGradient id="al" x1="101.157" x2="100.843" y1="77.576" y2="70.484" gradientUnits="userSpaceOnUse"><stop offset=".008" stop-color="#009efe"/><stop offset="1" stop-color="#005dfa"/></linearGradient><linearGradient id="am" x1="115.388" x2="116.917" y1="60.034" y2="60.352" gradientUnits="userSpaceOnUse"><stop offset=".102" stop-color="#915a57"/><stop offset=".885" stop-color="#2c0b09"/></linearGradient><linearGradient id="an" x1="113.231" x2="105.197" y1="72.745" y2="72.745" gradientUnits="userSpaceOnUse"><stop offset=".008" stop-color="#00cafe"/><stop offset="1" stop-color="#0088fa"/></linearGradient><linearGradient id="ao" x1="97.808" x2="99.241" y1="79.724" y2="66.256" gradientUnits="userSpaceOnUse"><stop offset=".102" stop-color="#fff"/><stop offset=".885" stop-color="#e3ebfd"/></linearGradient><linearGradient id="ap" x1="138.469" x2="142.409" y1="78.659" y2="78.659" gradientUnits="userSpaceOnUse"><stop offset=".101" stop-color="#ffdf94"/><stop offset="1" stop-color="#ffa200"/></linearGradient><linearGradient id="ar" x1="109.582" x2="107.154" y1="79.291" y2="79.291" gradientUnits="userSpaceOnUse"><stop offset=".101" stop-color="#ffdf94"/><stop offset="1" stop-color="#ffa200"/></linearGradient><linearGradient id="as" x1="129.89" x2="118.077" y1="93.207" y2="93.207" gradientUnits="userSpaceOnUse"><stop offset=".008" stop-color="#00cafe"/><stop offset="1" stop-color="#0088fa"/></linearGradient><linearGradient id="at" x1="113.32" x2="142.855" y1="75.042" y2="84.36" gradientUnits="userSpaceOnUse"><stop offset=".008" stop-color="#00cafe"/><stop offset="1" stop-color="#0088fa"/></linearGradient><linearGradient id="av" x1="158.08" x2="125.777" y1="117.594" y2="140.002" gradientUnits="userSpaceOnUse"><stop offset=".008" stop-color="#00cafe"/><stop offset="1" stop-color="#0088fa"/></linearGradient><linearGradient id="aw" x1="114.157" x2="124.839" y1="144.555" y2="72.761" gradientUnits="userSpaceOnUse"><stop offset=".102" stop-color="#dcdff8"/><stop offset=".885" stop-color="#f5f7fe"/></linearGradient><linearGradient id="ay" x1="127.231" x2="143.426" y1="90.282" y2="123.898" gradientUnits="userSpaceOnUse"><stop offset=".102" stop-color="#dcdff8"/><stop offset=".885" stop-color="#f5f7fe"/></linearGradient><linearGradient id="az" x1="111.831" x2="146.793" y1="55.719" y2="79.095" gradientUnits="userSpaceOnUse"><stop offset=".008" stop-color="#00cafe"/><stop offset="1" stop-color="#0088fa"/></linearGradient><linearGradient id="aB" x1="134.483" x2="123.606" y1="99.06" y2="101.795" gradientUnits="userSpaceOnUse"><stop offset=".008" stop-color="#00cafe"/><stop offset="1" stop-color="#0088fa"/></linearGradient><linearGradient id="aC" x1="95.81" x2="95.968" y1="103.743" y2="91.83" gradientUnits="userSpaceOnUse"><stop offset=".111" stop-color="#b7dbfb"/><stop offset=".885" stop-color="#d6e8fa"/></linearGradient><linearGradient id="aE" x1="70.073" x2="69.927" y1="104.781" y2="92.875" gradientUnits="userSpaceOnUse"><stop offset=".111" stop-color="#b7dbfb"/><stop offset=".885" stop-color="#d6e8fa"/></linearGradient><linearGradient id="aF" x1="66.494" x2="66.371" y1="104.762" y2="92.87" gradientUnits="userSpaceOnUse"><stop offset=".111" stop-color="#b7dbfb"/><stop offset=".885" stop-color="#d6e8fa"/></linearGradient><linearGradient id="aG" x1="99.771" x2="98.123" y1="105.641" y2="93.08" gradientUnits="userSpaceOnUse"><stop offset=".111" stop-color="#b7dbfb"/><stop offset=".885" stop-color="#d6e8fa"/></linearGradient><linearGradient id="aH" x1="76.252" x2="76.093" y1="102.012" y2="90.098" gradientUnits="userSpaceOnUse"><stop offset=".111" stop-color="#b7dbfb"/><stop offset=".885" stop-color="#d6e8fa"/></linearGradient><linearGradient id="aJ" x1="74.512" x2="74.367" y1="101.976" y2="90.071" gradientUnits="userSpaceOnUse"><stop offset=".111" stop-color="#b7dbfb"/><stop offset=".885" stop-color="#d6e8fa"/></linearGradient><linearGradient id="aK" x1="70.931" x2="70.808" y1="101.958" y2="90.065" gradientUnits="userSpaceOnUse"><stop offset=".111" stop-color="#b7dbfb"/><stop offset=".885" stop-color="#d6e8fa"/></linearGradient><linearGradient id="aL" x1="95.629" x2="93.822" y1="108.688" y2="96.08" gradientUnits="userSpaceOnUse"><stop offset=".111" stop-color="#b7dbfb"/><stop offset=".885" stop-color="#d6e8fa"/></linearGradient><linearGradient id="aN" x1="87.143" x2="86.525" y1="108.061" y2="95.903" gradientUnits="userSpaceOnUse"><stop offset=".111" stop-color="#b7dbfb"/><stop offset=".885" stop-color="#d6e8fa"/></linearGradient><linearGradient id="aO" x1="81.275" x2="80.912" y1="107.646" y2="95.619" gradientUnits="userSpaceOnUse"><stop offset=".111" stop-color="#b7dbfb"/><stop offset=".885" stop-color="#d6e8fa"/></linearGradient><linearGradient id="aP" x1="80.815" x2="80.467" y1="107.572" y2="95.553" gradientUnits="userSpaceOnUse"><stop offset=".111" stop-color="#b7dbfb"/><stop offset=".885" stop-color="#d6e8fa"/></linearGradient><linearGradient id="aQ" x1="81.136" x2="80.782" y1="107.53" y2="95.507" gradientUnits="userSpaceOnUse"><stop offset=".111" stop-color="#b7dbfb"/><stop offset=".885" stop-color="#d6e8fa"/></linearGradient><linearGradient id="aR" x1="66.684" x2="66.535" y1="107.223" y2="95.315" gradientUnits="userSpaceOnUse"><stop offset=".111" stop-color="#b7dbfb"/><stop offset=".885" stop-color="#d6e8fa"/></linearGradient><linearGradient id="aS" x1="106.675" x2="96.288" y1="113.193" y2="109.031" gradientUnits="userSpaceOnUse"><stop offset=".111" stop-color="#b7dbfb"/><stop offset=".885" stop-color="#d6e8fa"/></linearGradient><linearGradient id="aT" x1="103.246" x2="101.806" y1="102.797" y2="90.301" gradientUnits="userSpaceOnUse"><stop offset=".111" stop-color="#b7dbfb"/><stop offset=".885" stop-color="#d6e8fa"/></linearGradient><linearGradient id="aU" x1="112.647" x2="102.261" y1="109.419" y2="105.257" gradientUnits="userSpaceOnUse"><stop offset=".111" stop-color="#b7dbfb"/><stop offset=".885" stop-color="#d6e8fa"/></linearGradient><linearGradient id="aV" x1="111.117" x2="104.01" y1="104.678" y2="92.734" gradientUnits="userSpaceOnUse"><stop offset=".111" stop-color="#b7dbfb"/><stop offset=".885" stop-color="#d6e8fa"/></linearGradient><linearGradient id="aX" x1="88.214" x2="87.9" y1="101.955" y2="89.954" gradientUnits="userSpaceOnUse"><stop offset=".111" stop-color="#b7dbfb"/><stop offset=".885" stop-color="#d6e8fa"/></linearGradient><linearGradient id="aY" x1="91.791" x2="91.382" y1="102.019" y2="89.966" gradientUnits="userSpaceOnUse"><stop offset=".111" stop-color="#b7dbfb"/><stop offset=".885" stop-color="#d6e8fa"/></linearGradient><linearGradient id="aZ" x1="94.193" x2="93.694" y1="102.059" y2="89.96" gradientUnits="userSpaceOnUse"><stop offset=".111" stop-color="#b7dbfb"/><stop offset=".885" stop-color="#d6e8fa"/></linearGradient><linearGradient id="ba" x1="100.651" x2="99.679" y1="102.362" y2="90.044" gradientUnits="userSpaceOnUse"><stop offset=".111" stop-color="#b7dbfb"/><stop offset=".885" stop-color="#d6e8fa"/></linearGradient><linearGradient id="bb" x1="95.922" x2="95.347" y1="102.015" y2="89.878" gradientUnits="userSpaceOnUse"><stop offset=".111" stop-color="#b7dbfb"/><stop offset=".885" stop-color="#d6e8fa"/></linearGradient><linearGradient id="bc" x1="96.775" x2="96.153" y1="102.026" y2="89.865" gradientUnits="userSpaceOnUse"><stop offset=".111" stop-color="#b7dbfb"/><stop offset=".885" stop-color="#d6e8fa"/></linearGradient><linearGradient id="bd" x1="87.442" x2="87.152" y1="101.684" y2="89.696" gradientUnits="userSpaceOnUse"><stop offset=".111" stop-color="#b7dbfb"/><stop offset=".885" stop-color="#d6e8fa"/></linearGradient><linearGradient id="be" x1="82.946" x2="82.728" y1="101.593" y2="89.646" gradientUnits="userSpaceOnUse"><stop offset=".111" stop-color="#b7dbfb"/><stop offset=".885" stop-color="#d6e8fa"/></linearGradient><linearGradient id="bf" x1="79.499" x2="79.319" y1="101.546" y2="89.621" gradientUnits="userSpaceOnUse"><stop offset=".111" stop-color="#b7dbfb"/><stop offset=".885" stop-color="#d6e8fa"/></linearGradient><linearGradient id="bg" x1="70.07" x2="69.954" y1="101.44" y2="89.552" gradientUnits="userSpaceOnUse"><stop offset=".111" stop-color="#b7dbfb"/><stop offset=".885" stop-color="#d6e8fa"/></linearGradient><linearGradient id="bh" x1="100.068" x2="98.26" y1="105.883" y2="93.275" gradientUnits="userSpaceOnUse"><stop offset=".111" stop-color="#b7dbfb"/><stop offset=".885" stop-color="#d6e8fa"/></linearGradient><linearGradient id="bj" x1="91.581" x2="90.964" y1="105.257" y2="93.098" gradientUnits="userSpaceOnUse"><stop offset=".111" stop-color="#b7dbfb"/><stop offset=".885" stop-color="#d6e8fa"/></linearGradient><linearGradient id="bk" x1="85.714" x2="85.351" y1="104.842" y2="92.814" gradientUnits="userSpaceOnUse"><stop offset=".111" stop-color="#b7dbfb"/><stop offset=".885" stop-color="#d6e8fa"/></linearGradient><linearGradient id="bl" x1="85.253" x2="84.905" y1="104.768" y2="92.749" gradientUnits="userSpaceOnUse"><stop offset=".111" stop-color="#b7dbfb"/><stop offset=".885" stop-color="#d6e8fa"/></linearGradient><linearGradient id="bm" x1="85.574" x2="85.22" y1="104.725" y2="92.702" gradientUnits="userSpaceOnUse"><stop offset=".111" stop-color="#b7dbfb"/><stop offset=".885" stop-color="#d6e8fa"/></linearGradient><linearGradient id="bn" x1="71.123" x2="70.974" y1="104.418" y2="92.51" gradientUnits="userSpaceOnUse"><stop offset=".111" stop-color="#b7dbfb"/><stop offset=".885" stop-color="#d6e8fa"/></linearGradient><linearGradient id="bo" x1="101.881" x2="100.233" y1="104.307" y2="91.746" gradientUnits="userSpaceOnUse"><stop offset=".111" stop-color="#b7dbfb"/><stop offset=".885" stop-color="#d6e8fa"/></linearGradient><linearGradient id="bp" x1="110.439" x2="99.847" y1="109.732" y2="104.318" gradientUnits="userSpaceOnUse"><stop offset=".111" stop-color="#b7dbfb"/><stop offset=".885" stop-color="#d6e8fa"/></linearGradient><linearGradient id="bq" x1="108.996" x2="101.89" y1="106.017" y2="94.073" gradientUnits="userSpaceOnUse"><stop offset=".111" stop-color="#b7dbfb"/><stop offset=".885" stop-color="#d6e8fa"/></linearGradient><linearGradient id="bs" x1="86.093" x2="85.779" y1="103.295" y2="91.294" gradientUnits="userSpaceOnUse"><stop offset=".111" stop-color="#b7dbfb"/><stop offset=".885" stop-color="#d6e8fa"/></linearGradient><linearGradient id="bt" x1="89.67" x2="89.261" y1="103.358" y2="91.306" gradientUnits="userSpaceOnUse"><stop offset=".111" stop-color="#b7dbfb"/><stop offset=".885" stop-color="#d6e8fa"/></linearGradient><linearGradient id="bu" x1="92.072" x2="91.574" y1="103.398" y2="91.3" gradientUnits="userSpaceOnUse"><stop offset=".111" stop-color="#b7dbfb"/><stop offset=".885" stop-color="#d6e8fa"/></linearGradient><linearGradient id="bv" x1="98.531" x2="97.558" y1="103.702" y2="91.383" gradientUnits="userSpaceOnUse"><stop offset=".111" stop-color="#b7dbfb"/><stop offset=".885" stop-color="#d6e8fa"/></linearGradient><linearGradient id="bw" x1="93.803" x2="93.228" y1="103.355" y2="91.219" gradientUnits="userSpaceOnUse"><stop offset=".111" stop-color="#b7dbfb"/><stop offset=".885" stop-color="#d6e8fa"/></linearGradient><linearGradient id="bx" x1="94.654" x2="94.032" y1="103.365" y2="91.205" gradientUnits="userSpaceOnUse"><stop offset=".111" stop-color="#b7dbfb"/><stop offset=".885" stop-color="#d6e8fa"/></linearGradient><linearGradient id="by" x1="85.322" x2="85.032" y1="103.024" y2="91.036" gradientUnits="userSpaceOnUse"><stop offset=".111" stop-color="#b7dbfb"/><stop offset=".885" stop-color="#d6e8fa"/></linearGradient><linearGradient id="bz" x1="80.826" x2="80.607" y1="102.933" y2="90.985" gradientUnits="userSpaceOnUse"><stop offset=".111" stop-color="#b7dbfb"/><stop offset=".885" stop-color="#d6e8fa"/></linearGradient><linearGradient id="bA" x1="77.379" x2="77.198" y1="102.886" y2="90.96" gradientUnits="userSpaceOnUse"><stop offset=".111" stop-color="#b7dbfb"/><stop offset=".885" stop-color="#d6e8fa"/></linearGradient><linearGradient id="bB" x1="67.949" x2="67.834" y1="102.779" y2="90.892" gradientUnits="userSpaceOnUse"><stop offset=".111" stop-color="#b7dbfb"/><stop offset=".885" stop-color="#d6e8fa"/></linearGradient><linearGradient id="bC" x1="113.093" x2="111.631" y1="110.004" y2="109.193" gradientUnits="userSpaceOnUse"><stop offset=".111" stop-color="#b7dbfb"/><stop offset=".885" stop-color="#d6e8fa"/></linearGradient><clipPath id="a"><rect width="200" height="130" x="4" y="4" fill="#fff" rx="8"/></clipPath></defs></svg>