<svg width="208" height="138" viewBox="0 0 208 138" fill="none" xmlns="http://www.w3.org/2000/svg">
<g clip-path="url(#clip0_106_40371)">
<rect x="4" y="4" width="200" height="130" rx="8" fill="white"/>
<rect width="5.02097" height="7.02935" rx="1.91093" transform="matrix(-1 0 0 1 113.732 49.6477)" fill="url(#paint0_linear_106_40371)"/>
<rect width="5.02097" height="7.02935" rx="1.91093" transform="matrix(-1 0 0 1 113.732 57.1792)" fill="url(#paint1_linear_106_40371)"/>
<rect width="54.7286" height="102.428" rx="6.58191" transform="matrix(-1 0 0 1 112.729 31.0702)" fill="url(#paint2_linear_106_40371)"/>
<g style="mix-blend-mode:lighten" opacity="0.5">
<path d="M67.3764 33.5806H70.9309C72.0757 33.5806 73.0038 34.5302 73.0038 35.7016C73.0038 36.873 73.9319 37.8226 75.0767 37.8226H95.6515C96.7964 37.8226 97.7245 36.873 97.7245 35.7016C97.7245 34.5302 98.6525 33.5806 99.7974 33.5806H103.352C106.867 33.5806 109.716 36.496 109.716 40.0923V122.969C109.716 126.566 106.867 129.481 103.352 129.481H67.3764C63.8617 129.481 61.0124 126.566 61.0124 122.969V40.0923C61.0124 36.496 63.8617 33.5806 67.3764 33.5806Z" fill="white"/>
</g>
<rect width="41.6741" height="41.674" rx="3.56583" transform="matrix(-1 0 0 1 106.201 46.1331)" fill="white"/>
<path fill-rule="evenodd" clip-rule="evenodd" d="M86.6188 65.7149H102.686V49.6477H86.6188V65.7149ZM90.6358 53.6645H98.6693V61.6981H90.6358V53.6645ZM84.6105 49.6477V65.7149H68.5435V49.6477H84.6105ZM80.5941 61.6981H72.5607V53.6645H80.5941V61.6981ZM96.6611 59.6897H92.6443V55.6729H96.6611V59.6897ZM86.619 83.7903H102.686L102.686 67.7233H86.619V83.7903ZM98.6693 71.7399H90.6358V79.7735H98.6693L98.6693 71.7399ZM78.5854 55.6729H74.5686V59.6897H78.5854V55.6729ZM84.6105 83.7903H80.5937V79.7735H84.6105V83.7903ZM80.5941 79.7735V71.7399H80.5937V71.7399H76.5773V79.7735H80.5941ZM80.5937 71.7399H80.5941V71.7399H84.6105V67.7233H80.5937V71.7399ZM72.5606 79.7735H76.5772V83.7903H68.5438V75.7568H72.5606V79.7735ZM68.5435 71.7399H72.5603V67.7233H68.5435V71.7399ZM92.6443 77.7651H96.6611V73.7483H92.6443V77.7651Z" fill="#51B1A6"/>
<rect opacity="0.1" width="41.6741" height="9.03774" rx="4.14381" transform="matrix(-1 0 0 1 106.201 91.8239)" fill="white"/>
<rect opacity="0.1" width="41.6741" height="9.03774" rx="4.14381" transform="matrix(-1 0 0 1 106.201 104.376)" fill="white"/>
<path d="M135.825 55.0191C135.825 55.0191 135.208 41.1538 131.39 38.6016L127.599 47.384L126.787 48.8795C126.787 48.8795 131.601 61.0357 135.032 60.6864" fill="url(#paint3_linear_106_40371)"/>
<mask id="mask0_106_40371" style="mask-type:luminance" maskUnits="userSpaceOnUse" x="126" y="38" width="10" height="23">
<path fill-rule="evenodd" clip-rule="evenodd" d="M135.813 55.0209C135.813 55.0209 135.196 41.1743 131.381 38.6255L127.591 47.3961L126.78 48.8896C126.78 48.8896 131.591 61.0294 135.021 60.6806" fill="white"/>
</mask>
<g mask="url(#mask0_106_40371)">
<path d="M129.809 47.8303C131.746 46.2453 131.145 59.7197 132.918 57.8332C134.69 55.9466 136.931 62.8292 136.931 62.8292L135.216 64.349L127.138 60.688L128.671 51.6179" fill="url(#paint4_linear_106_40371)"/>
</g>
<path d="M134.234 37.5319C134.234 37.5319 133.732 34.2901 133.335 32.5218C132.938 30.7536 138.61 30.0659 138.61 30.0659L138.838 39.1037L134.234 37.5319Z" fill="url(#paint5_linear_106_40371)"/>
<mask id="mask1_106_40371" style="mask-type:luminance" maskUnits="userSpaceOnUse" x="133" y="29" width="6" height="10">
<path fill-rule="evenodd" clip-rule="evenodd" d="M134.006 37.087C134.006 37.087 133.481 33.835 133.066 32.0612C132.651 30.2873 138.578 29.5975 138.578 29.5975L138.816 38.6637L134.006 37.087Z" fill="white"/>
</mask>
<g mask="url(#mask1_106_40371)">
<path opacity="0.34" d="M140.407 38.0783C136.65 36.6069 133.972 36.057 133.737 36.3449C133.501 36.6327 133.963 38.4383 133.963 38.4383L138.005 39.2916" fill="url(#paint6_linear_106_40371)"/>
</g>
<path d="M137.542 35.589H139.561C140.093 35.589 140.48 35.0526 140.298 34.567L137.106 26.0492H134.318L136.859 35.0809C136.942 35.3823 137.222 35.591 137.542 35.589Z" fill="url(#paint7_linear_106_40371)"/>
<path d="M139.936 33.9295C139.936 33.9295 136.501 36.2554 136.622 34.3129C136.622 34.3129 135.776 34.0573 136.226 33.0861C136.226 33.0861 135.581 32.4215 135.926 31.6803C135.926 31.6803 138.503 28.4599 139.296 28.5621C140.09 28.6643 140.013 30.249 139.682 30.6835C139.682 30.6835 140.729 31.9359 140.005 32.5238C140.005 32.5238 140.81 33.4052 139.936 33.9295Z" fill="url(#paint8_linear_106_40371)"/>
<path d="M134.112 32.2958C136.122 32.4155 134.367 30.95 137.086 28.9557C137.086 28.9557 137.578 28.1002 137.169 27.6212C136.76 27.1422 134.127 29.422 133.585 29.9808C133.043 30.5396 133.466 31.881 133.573 32.3756C133.68 32.8703 134.112 32.2958 134.112 32.2958Z" fill="url(#paint9_linear_106_40371)"/>
<path d="M143.899 16.0073C143.899 16.0073 141.117 20.2909 134.533 20.7223C133.387 20.7974 132.43 21.7529 132.344 22.9243C132.288 23.6958 132.29 24.572 132.445 25.3784C132.667 26.5285 133.711 27.2933 134.862 27.1178C137.006 26.7911 142.176 26.663 145.867 28.5597L143.899 16.0073Z" fill="url(#paint10_linear_106_40371)"/>
<ellipse cx="6.68899" cy="2.43336" rx="6.68899" ry="2.43336" transform="matrix(-0.127866 -0.991791 -0.991791 0.127866 148.715 28.2681)" fill="url(#paint11_linear_106_40371)"/>
<ellipse cx="5.91431" cy="2.15154" rx="5.91431" ry="2.15154" transform="matrix(-0.127866 -0.991791 -0.991791 0.127866 148.336 27.5358)" fill="url(#paint12_linear_106_40371)"/>
<mask id="mask2_106_40371" style="mask-type:luminance" maskUnits="userSpaceOnUse" x="143" y="15" width="6" height="14">
<ellipse cx="6.52151" cy="2.31508" rx="6.52151" ry="2.31508" transform="matrix(-0.122265 -0.992498 -0.992498 0.122264 148.87 27.9832)" fill="white"/>
</mask>
<g mask="url(#mask2_106_40371)">
<ellipse opacity="0.27" cx="2.06123" cy="1.99603" rx="2.06123" ry="1.99603" transform="matrix(-0.115695 -0.993285 -0.993285 0.115695 146.307 24.0264)" fill="white"/>
</g>
<path d="M133.714 36.5933C133.714 36.5933 138.876 37.5886 140.156 39.6316C140.156 39.6316 143.274 60.219 136.249 61.1616C128.05 62.2617 133.714 36.5933 133.714 36.5933Z" fill="url(#paint13_linear_106_40371)"/>
<path d="M103.691 113.116L97.9916 130.987L93.1469 129.041L97.8313 109.397L103.691 113.116Z" fill="url(#paint14_linear_106_40371)"/>
<mask id="mask3_106_40371" style="mask-type:luminance" maskUnits="userSpaceOnUse" x="93" y="109" width="11" height="23">
<path fill-rule="evenodd" clip-rule="evenodd" d="M103.661 113.202L97.9316 131.365L93.0617 129.387L97.7705 109.423L103.661 113.202Z" fill="white"/>
</mask>
<g mask="url(#mask3_106_40371)">
<path opacity="0.34" d="M104.015 123.86C99.1939 125.403 94.6949 120.021 94.6949 120.021L101.654 119.563L104.044 122.07" fill="url(#paint15_linear_106_40371)"/>
</g>
<path d="M119.253 119.147C119.322 119.442 118.113 129.983 118.113 129.983L111.724 129.343L113.325 114.418L119.253 119.147Z" fill="url(#paint16_linear_106_40371)"/>
<mask id="mask4_106_40371" style="mask-type:luminance" maskUnits="userSpaceOnUse" x="111" y="114" width="9" height="17">
<path fill-rule="evenodd" clip-rule="evenodd" d="M119.221 119.204C119.289 119.502 118.093 130.11 118.093 130.11L111.779 129.466L113.361 114.445L119.221 119.204Z" fill="white"/>
</mask>
<g mask="url(#mask4_106_40371)">
<path opacity="0.34" d="M118.707 121.59C123.404 122.937 113.746 124.935 111.441 124.424C109.136 123.913 109.558 120.846 109.558 120.846L115.991 120.753" fill="url(#paint17_linear_106_40371)"/>
</g>
<path d="M126.285 58.3541L119.219 122.422C119.219 122.422 116.323 124.146 109.716 121.389L112.491 73.4785L113.104 52.1583L126.285 58.3541Z" fill="url(#paint18_linear_106_40371)"/>
<mask id="mask5_106_40371" style="mask-type:luminance" maskUnits="userSpaceOnUse" x="109" y="52" width="18" height="72">
<path fill-rule="evenodd" clip-rule="evenodd" d="M126.247 58.4116L119.101 122.718C119.101 122.718 116.172 124.449 109.49 121.682L112.297 73.5925L112.917 52.1926L126.247 58.4116Z" fill="white"/>
</mask>
<g mask="url(#mask5_106_40371)">
<path d="M123.156 108.657C118.441 109.434 109.288 108.643 109.923 107.33C110.558 106.016 124.083 104.152 124.083 104.152L126.247 106.016" fill="url(#paint19_linear_106_40371)"/>
</g>
<path d="M102.465 121.619C102.465 121.619 101.28 123.23 93.6485 119.342L109.687 54.1666L122.268 56.1207L102.465 121.619Z" fill="url(#paint20_linear_106_40371)"/>
<mask id="mask6_106_40371" style="mask-type:luminance" maskUnits="userSpaceOnUse" x="93" y="54" width="30" height="69">
<path fill-rule="evenodd" clip-rule="evenodd" d="M102.671 121.704C102.671 121.704 101.502 123.317 93.9707 119.425L109.8 54.1805L122.216 56.1366L102.671 121.704Z" fill="white"/>
</mask>
<g mask="url(#mask6_106_40371)">
<path d="M119.501 62.3633C113.598 65.8415 109.711 61.9812 104.177 79.1037C103.131 82.3432 108.146 58.058 108.146 58.058L119.501 62.3633Z" fill="url(#paint21_linear_106_40371)"/>
<path d="M108.15 109.513C102.006 109.873 96.7312 108.047 96.979 107.026C97.2268 106.004 105.282 105.009 105.282 105.009L107.047 105.854" fill="url(#paint22_linear_106_40371)"/>
</g>
<path d="M114.752 41.1121C109.401 53.687 110.476 57.025 116.442 56.6897C116.861 56.6255 116.832 56.6677 116.442 56.6897C114.332 57.013 109.592 56.3503 107.752 57.9721C105.912 59.594 103.189 51.3429 103.189 51.3429L104.688 48.4356" fill="url(#paint23_linear_106_40371)"/>
<path d="M112.008 132.996H130.718C130.718 132.996 132.082 130.321 123.916 130.438C117.851 130.525 118.72 125.464 118.72 125.464C118.72 125.464 116.336 127.491 111.534 127.369L110.746 131.428C110.586 132.254 111.183 132.996 112.008 132.996Z" fill="url(#paint24_linear_106_40371)"/>
<path d="M99.1719 128.436C99.1719 128.436 94.6568 126.998 93.8076 125.464C93.8076 125.464 92.5497 132.894 86.3017 131.865C79.4998 130.745 79.5901 134 79.5901 134H96.4955C97.3597 134 98.1248 133.398 98.2967 132.584L99.1719 128.436Z" fill="url(#paint25_linear_106_40371)"/>
<path d="M123.463 28.5086C123.45 28.7818 123.774 36.0911 123.774 36.0911L116.745 35.3011L118.525 26.0492L123.463 28.5086Z" fill="url(#paint26_linear_106_40371)"/>
<mask id="mask7_106_40371" style="mask-type:luminance" maskUnits="userSpaceOnUse" x="117" y="26" width="8" height="11">
<path fill-rule="evenodd" clip-rule="evenodd" d="M123.942 28.9809C123.929 29.2484 124.26 36.4043 124.26 36.4043L117.092 35.6308L118.907 26.5731L123.942 28.9809Z" fill="white"/>
</mask>
<g mask="url(#mask7_106_40371)">
<path opacity="0.34" d="M126.05 36.1914C122.409 34.204 124.102 32.0237 122.019 30.6424C119.935 29.2612 119.725 27.2738 119.725 27.2738L125.325 28.191L126.407 34.1021L126.347 35.3251" fill="url(#paint27_linear_106_40371)"/>
</g>
<path d="M126.215 20.024C129.733 32.7303 123.941 32.2325 118.524 27.4774C114.832 23.2513 120.324 20.6866 120.324 20.6866L126.215 20.024Z" fill="url(#paint28_linear_106_40371)"/>
<mask id="mask8_106_40371" style="mask-type:luminance" maskUnits="userSpaceOnUse" x="117" y="20" width="11" height="11">
<path fill-rule="evenodd" clip-rule="evenodd" d="M126.183 20.5638C129.729 32.9918 123.89 32.505 118.43 27.854C114.708 23.7204 120.244 21.2119 120.244 21.2119L126.183 20.5638Z" fill="white"/>
</mask>
<g mask="url(#mask8_106_40371)">
<path opacity="0.34" d="M128.738 22.1977C126.571 23.4484 123.028 22.0125 123.028 22.0125C123.028 22.0125 123.457 24.6887 120.399 23.5348C117.34 22.381 124.675 20.0707 124.675 20.0707L128.493 19.9771L129.34 22.1977" fill="url(#paint29_linear_106_40371)"/>
</g>
<path d="M119.042 26.5653C120.484 27.0694 117.829 23.6986 119.846 24.7456C121.864 25.7927 123.13 21.9119 123.13 21.9119C132.977 24.2774 129.655 11.3256 122.754 17.2974C123.76 14.8932 120.713 13.4328 119.451 17.8403C118.188 22.2477 113.64 18.9775 118.293 28.5597L119.042 26.5653Z" fill="url(#paint30_linear_106_40371)"/>
<path d="M126.481 104.62C121.669 109.291 106.703 106.639 106.703 106.639C106.703 106.639 117.558 38.5328 123.925 33.5806C125.923 34.2402 131.305 38.4785 131.305 38.4785C131.422 38.5966 124.763 80.2129 126.481 104.62Z" fill="url(#paint31_linear_106_40371)"/>
<mask id="mask9_106_40371" style="mask-type:luminance" maskUnits="userSpaceOnUse" x="106" y="33" width="26" height="75">
<path fill-rule="evenodd" clip-rule="evenodd" d="M126.454 104.739C121.659 109.415 106.746 106.76 106.746 106.76C106.746 106.76 117.563 38.5772 123.907 33.6194C125.898 34.2797 131.26 38.5228 131.26 38.5228C131.377 38.641 124.741 80.3041 126.454 104.739Z" fill="white"/>
</mask>
<g mask="url(#mask9_106_40371)">
<path d="M122.458 79.7544H132.456L132.367 70.1381H122.369L122.458 79.7544Z" fill="url(#paint32_linear_106_40371)"/>
<path d="M121.51 71.2097H133.245L132.549 67.9764L121.573 68.1371L121.51 71.2097Z" fill="white"/>
<path opacity="0.33" d="M115.606 80.7872C119.004 77.3153 112.495 108.233 114.805 111.002C117.115 113.772 104.732 106.76 104.732 106.76L112.945 80.724" fill="url(#paint33_linear_106_40371)"/>
</g>
<path d="M112.007 107.132C99.1678 110.958 92.6447 104.858 92.6447 104.858C95.9394 78.9044 110.393 42.2881 110.072 35.3891C110.072 35.3891 114.454 33.9411 117.637 33.0786C117.637 33.0786 118.278 38.6623 117.369 48.9424C117.318 49.5296 119.31 52.4531 119.255 53.0594C117.827 68.7668 115.101 91.0679 112.007 107.132Z" fill="url(#paint34_linear_106_40371)"/>
<mask id="mask10_106_40371" style="mask-type:luminance" maskUnits="userSpaceOnUse" x="92" y="33" width="27" height="76">
<path fill-rule="evenodd" clip-rule="evenodd" d="M111.528 106.996C98.7492 110.813 92.2566 104.728 92.2566 104.728C95.5359 78.8346 109.921 42.304 109.603 35.4212C109.603 35.4212 113.963 33.9766 117.132 33.1161C117.132 33.1161 117.77 38.6867 116.866 48.9428C116.814 49.5285 118.797 52.4452 118.742 53.0501C117.321 68.7207 114.607 90.9696 111.528 106.996Z" fill="white"/>
</mask>
<g mask="url(#mask10_106_40371)">
<path d="M110.71 46.8048C113.288 46.9429 105.21 60.6011 99.5812 77.4948C99.5812 77.4948 96.5621 67.8594 94.0347 76.0093C91.1854 85.1973 101.971 51.7178 101.971 51.7178L106.938 50.3307" fill="url(#paint35_linear_106_40371)"/>
</g>
<path d="M97.1636 65.7366C97.1636 65.7366 95.5615 71.2442 93.069 70.8551C90.5765 70.4661 86.3674 71.74 86.3674 71.74C86.3674 71.74 85.1984 71.3005 86.9433 70.0962L84.8054 70.5586C84.8054 70.5586 83.7708 70.177 85.1784 69.4941C85.1784 69.4941 83.3376 69.9423 81.0965 68.8848C81.0965 68.8848 81.1568 67.8298 81.7162 67.9987C82.2755 68.1676 89.93 67.5057 90.5523 66.8085C91.1745 66.1112 92.8419 63.7064 92.8419 63.7064L97.1636 65.7366Z" fill="url(#paint36_linear_106_40371)"/>
<mask id="mask11_106_40371" style="mask-type:luminance" maskUnits="userSpaceOnUse" x="81" y="63" width="17" height="9">
<path fill-rule="evenodd" clip-rule="evenodd" d="M97.1606 65.7566C97.1606 65.7566 95.5727 71.2684 93.1021 70.8791C90.6314 70.4898 86.4593 71.7646 86.4593 71.7646C86.4593 71.7646 85.3006 71.3248 87.0302 70.1196L84.911 70.5824C84.911 70.5824 83.8855 70.2004 85.2807 69.517C85.2807 69.517 83.456 69.9656 81.2346 68.9073C81.2346 68.9073 81.2945 67.8514 81.8489 68.0204C82.4034 68.1894 89.9906 67.527 90.6074 66.8293C91.2242 66.1315 92.8769 63.7249 92.8769 63.7249L97.1606 65.7566Z" fill="white"/>
</mask>
<g mask="url(#mask11_106_40371)">
<path opacity="0.34" d="M99.0436 67.7447C90.5827 68.6295 89.9375 65.1674 89.9375 65.1674L94.5368 63.7249L100.27 66.5723" fill="url(#paint37_linear_106_40371)"/>
</g>
<path d="M98.6405 69.7315C96.6755 69.6054 91.4867 67.6064 90.6359 64.9534L106.329 37.7133C108.542 34.5811 111.77 34.0791 113.618 34.993L113.162 34.666C115.118 35.633 111.507 47.5723 110.361 49.5348L98.6405 69.7315Z" fill="url(#paint38_linear_106_40371)"/>
<path d="M124.351 35.4973L125.281 37.9373L122.685 45.3689L117.57 45.6308L115.741 37.2577L116.96 34.5847L120.226 35.3381L122.104 35.4264L123.566 35.6214" fill="url(#paint39_linear_106_40371)"/>
<path d="M121.388 36.6921L122.268 44.6736L119.661 51.6561L118.073 50.7567L117.749 44.1923L120.01 36.0911L121.388 36.6921Z" fill="url(#paint40_linear_106_40371)"/>
<path d="M122.77 35.26L121.627 36.982C121.35 37.4029 120.895 37.6342 120.426 37.5928L120.05 37.5576C119.591 37.5151 119.187 37.2082 118.985 36.7499L118.251 35.087L120.647 35.0889L122.77 35.26Z" fill="url(#paint41_linear_106_40371)"/>
<path d="M125.198 34.3308C125.198 34.3308 124.244 32.104 123.83 32.0743C123.83 32.0743 123.254 34.3747 120.762 35.2304L122.775 38.0995C122.775 38.0995 125.817 36.0696 125.198 34.3308Z" fill="url(#paint42_linear_106_40371)"/>
<path d="M115.894 32.7926C115.894 32.7926 117.394 31.0393 117.808 31.0706C117.808 31.0706 118.454 33.6951 120.762 34.9597L118.52 37.5974C118.52 37.5974 114.972 34.5092 115.894 32.7926Z" fill="url(#paint43_linear_106_40371)"/>
<path d="M124.656 33.0786C124.656 33.0786 119.492 49.6339 118.252 51.3917L118.918 53.1625L126.848 43.6103L124.667 41.5329L127.792 40.872L126.411 35.369C126.411 35.369 125.375 33.4686 124.656 33.0786Z" fill="white"/>
<path d="M116.606 32.0743L118.754 53.1624L112.66 43.0995L115.122 40.7378L112.227 39.9724L114.621 33.981C114.621 33.981 115.253 32.8704 116.606 32.0743Z" fill="white"/>
<ellipse cx="0.864415" cy="0.881003" rx="0.864415" ry="0.881003" transform="matrix(-0.849073 -0.528276 -0.528278 0.849072 119.299 56.0127)" fill="white"/>
<ellipse cx="0.864415" cy="0.881003" rx="0.864415" ry="0.881003" transform="matrix(-0.849073 -0.528276 -0.528278 0.849072 117.627 67.8636)" fill="white"/>
<path d="M127.367 24.5428C126.958 25.4807 125.795 24.7713 125.795 24.7713C125.795 24.7713 124.596 26.1902 121.58 25.3532C121.083 25.4807 122.037 28.671 121.264 28.8641C126.229 33.9945 128.881 29.1792 127.367 24.5428Z" fill="#E3EBFD"/>
<path d="M122.268 26.5512L121.702 25.7637L119.255 24.5428L119.403 24.9761L121.691 26.5512" fill="#CDDEFD"/>
<path d="M122.268 28.5527L119.255 27.5555L122.012 29.0618L122.264 28.7861" fill="#CDDEFD"/>
<path d="M120.762 25.7298C117.302 21.0559 115.199 27.5063 120.28 28.0575L120.762 25.7298Z" fill="url(#paint44_linear_106_40371)"/>
<path d="M114.737 50.0374L115.59 50.1499L115.738 48.7386C115.752 48.5974 115.721 48.4548 115.65 48.343C115.58 48.2311 115.476 48.1594 115.363 48.1441C115.125 48.1154 114.913 48.3296 114.885 48.6261L114.737 50.0374Z" fill="url(#paint45_linear_106_40371)"/>
<path d="M113.733 49.5386L114.551 49.6477L114.732 47.8713C114.767 47.4972 114.613 47.1695 114.387 47.1394C114.161 47.1093 113.949 47.3882 113.913 47.7622L113.733 49.5386Z" fill="url(#paint46_linear_106_40371)"/>
<path d="M111.724 50.4328L116.151 50.6519L116.243 49.3648L111.816 49.1456L111.724 50.4328Z" fill="white"/>
<path d="M112.338 58.1035C112.444 58.1789 112.543 58.2629 112.634 58.3545C114.219 59.9461 113.719 63.9774 113.388 66.6452L113.317 67.2211L112.829 67.1763L112.9 66.5987C113.201 64.1729 113.704 60.113 112.274 58.6764C111.887 58.286 111.385 58.1144 110.74 58.1504L110.72 57.6866C111.355 57.6513 111.897 57.7915 112.338 58.1035Z" fill="white"/>
<mask id="mask12_106_40371" style="mask-type:luminance" maskUnits="userSpaceOnUse" x="110" y="57" width="4" height="11">
<path fill-rule="evenodd" clip-rule="evenodd" d="M111.973 58.1252C112.069 58.2015 112.158 58.2864 112.24 58.3789C113.668 59.9872 113.217 64.0607 112.919 66.7566L112.855 67.3385L112.416 67.2932L112.479 66.7095C112.75 64.2583 113.204 60.1558 111.915 58.7041C111.566 58.3097 111.114 58.1363 110.533 58.1727L110.515 57.704C111.087 57.6683 111.576 57.81 111.973 58.1252Z" fill="white"/>
</mask>
<g mask="url(#mask12_106_40371)">
<path d="M112.302 66.8845C112.919 66.7567 112.885 66.6554 113.051 66.3566C113.217 66.0579 113.488 66.9061 113.467 66.9377C113.447 66.9693 112.741 67.5759 112.734 67.5243C112.728 67.4727 112.133 67.1656 112.133 67.1656" fill="url(#paint47_linear_106_40371)"/>
</g>
<path d="M109.755 57.682L110.797 57.7359C110.921 57.7425 111.035 57.7843 111.114 57.8519C111.194 57.9195 111.232 58.0071 111.22 58.0951L111.186 58.3737C111.164 58.5584 110.939 58.6966 110.681 58.6848L109.639 58.6308C109.515 58.6242 109.401 58.5824 109.322 58.5148C109.242 58.4473 109.204 58.3596 109.216 58.2717L109.25 57.9931C109.272 57.8084 109.497 57.6702 109.755 57.682Z" fill="url(#paint48_linear_106_40371)"/>
<path d="M108.209 71.8727L108.119 72.2843C107.75 73.9668 107.369 75.7061 105.974 76.4002C105.006 76.8819 103.94 76.9297 102.184 76.2453L102.56 75.6231C104.093 76.2193 104.876 76.1533 105.628 75.779C106.702 75.2448 107.031 73.7435 107.379 72.1545L107.471 71.74L108.209 71.8727Z" fill="url(#paint49_linear_106_40371)"/>
<path d="M114.401 59.7344C114.276 59.7094 114.148 59.6949 114.02 59.691C111.789 59.6182 108.971 62.548 107.106 64.4867L106.703 64.9048L107.045 65.2128L107.449 64.7935C109.145 63.0307 111.982 60.08 113.996 60.1458C114.543 60.1628 114.991 60.399 115.368 60.8669L115.741 60.5836C115.37 60.1229 114.92 59.8384 114.401 59.7344Z" fill="white"/>
<path d="M116.64 60.8589L116.067 60.2933C115.998 60.2267 115.906 60.1901 115.81 60.1917C115.714 60.1934 115.623 60.2331 115.557 60.3021L115.345 60.5186C115.204 60.6605 115.204 60.8889 115.345 61.0307L115.918 61.5962C115.987 61.6629 116.079 61.6995 116.175 61.6979C116.271 61.6962 116.362 61.6565 116.428 61.5875L116.64 61.3709C116.781 61.229 116.781 61.0007 116.64 60.8589Z" fill="url(#paint50_linear_106_40371)"/>
<path d="M113.231 67.5547C112.747 71.571 110.554 72.4663 109.634 72.6646C108.061 72.9954 106.455 72.2732 105.661 70.8784C105.219 70.0929 104.462 67.9691 106.949 65.2126L107.468 65.6858C105.938 67.3817 105.503 69.1439 106.277 70.5204C106.92 71.6514 108.222 72.2374 109.498 71.9699C111.123 71.6192 112.229 69.9831 112.53 67.4811L113.231 67.5547Z" fill="url(#paint51_linear_106_40371)"/>
<path d="M101.683 78.7693H111.72L113.231 69.7316H103.193L101.683 78.7693Z" fill="url(#paint52_linear_106_40371)"/>
<path d="M102.184 70.7357H113.475L113.732 67.7231H103.353L102.184 70.7357Z" fill="white"/>
<path d="M140.808 78.9928L138.469 79.2908C139.011 79.222 139.546 79.1103 140.07 78.9569L142.409 78.6589C141.885 78.8124 141.35 78.924 140.808 78.9928Z" fill="url(#paint53_linear_106_40371)"/>
<mask id="mask13_106_40371" style="mask-type:luminance" maskUnits="userSpaceOnUse" x="138" y="78" width="5" height="2">
<path fill-rule="evenodd" clip-rule="evenodd" d="M140.808 78.9928L138.469 79.2908C139.011 79.222 139.546 79.1103 140.07 78.9569L142.409 78.6589C141.885 78.8124 141.35 78.924 140.808 78.9928Z" fill="white"/>
</mask>
<g mask="url(#mask13_106_40371)">
<path d="M140.808 78.9929L138.469 79.2909C138.499 79.2871 138.528 79.2832 138.558 79.2791L140.897 78.9812C140.867 78.9852 140.838 78.9891 140.808 78.9929Z" fill="url(#paint54_linear_106_40371)"/>
</g>
<path d="M128.549 77.2565C128.582 77.1673 128.616 77.081 128.653 76.9995C128.657 76.9895 128.662 76.9803 128.666 76.9704C128.698 76.9014 128.731 76.8363 128.765 76.7731C128.779 76.7466 128.794 76.7204 128.808 76.6949C128.839 76.6414 128.871 76.5907 128.904 76.5418C128.917 76.5223 128.929 76.5018 128.943 76.4831C128.985 76.4226 129.031 76.3643 129.08 76.3085C129.09 76.2965 129.101 76.2856 129.112 76.274C129.154 76.2283 129.197 76.1856 129.242 76.1458C129.252 76.1366 129.262 76.1269 129.272 76.1181C129.327 76.0708 129.386 76.0274 129.447 75.9881C129.487 75.9627 129.527 75.9402 129.568 75.9196C129.581 75.9129 129.594 75.9074 129.608 75.9013C129.634 75.8889 129.661 75.877 129.688 75.8666C129.716 75.8556 129.745 75.8468 129.773 75.8381C129.791 75.8325 129.809 75.8262 129.827 75.8215C129.859 75.8133 129.891 75.8076 129.923 75.8021C129.94 75.7993 129.957 75.795 129.973 75.7928L127.634 76.0908C127.631 76.0913 127.627 76.0918 127.623 76.0923C127.61 76.094 127.598 76.0978 127.585 76.1C127.552 76.1055 127.52 76.1112 127.488 76.1195C127.47 76.1241 127.452 76.1305 127.434 76.136C127.406 76.1447 127.377 76.1536 127.349 76.1645C127.343 76.1667 127.338 76.1679 127.332 76.1702C127.311 76.1788 127.29 76.1894 127.269 76.1992C127.256 76.2054 127.242 76.2109 127.229 76.2175C127.188 76.2381 127.148 76.2606 127.108 76.2861C127.096 76.2939 127.083 76.302 127.071 76.3102C127.023 76.343 126.977 76.3783 126.933 76.416C126.923 76.4248 126.913 76.4346 126.903 76.4438C126.881 76.4634 126.858 76.4822 126.837 76.5033C126.815 76.5249 126.794 76.549 126.773 76.5721C126.762 76.5836 126.752 76.5944 126.741 76.6063C126.699 76.6549 126.657 76.7057 126.617 76.7605C126.613 76.767 126.608 76.7745 126.604 76.781C126.591 76.7998 126.578 76.8204 126.565 76.8399C126.532 76.8888 126.5 76.9394 126.47 76.9928C126.455 77.0183 126.441 77.0444 126.426 77.0709C126.415 77.0929 126.402 77.1131 126.39 77.1357C126.369 77.1785 126.348 77.2236 126.327 77.2689C126.323 77.2785 126.318 77.2875 126.314 77.2973C126.278 77.3789 126.243 77.4652 126.21 77.5545C126.203 77.5752 126.195 77.5963 126.188 77.6174C126.155 77.7091 126.124 77.8033 126.095 77.9027L126.095 77.9039C126.062 78.0166 126.031 78.1343 126.003 78.2568C126.002 78.2598 126.001 78.2656 126 78.2727C125.999 78.2762 125.998 78.2816 125.997 78.286C125.996 78.2914 125.994 78.2967 125.993 78.3035C125.992 78.3079 125.991 78.3137 125.989 78.3187C125.987 78.3279 125.985 78.3376 125.983 78.3488C125.981 78.3548 125.98 78.3619 125.978 78.3685C125.976 78.38 125.973 78.3921 125.97 78.4052L125.963 78.4329C125.96 78.4454 125.957 78.4587 125.954 78.4725C125.951 78.4854 125.948 78.4989 125.945 78.5129C125.942 78.5258 125.938 78.5393 125.935 78.5531C125.932 78.5676 125.928 78.5825 125.924 78.598C125.92 78.6148 125.916 78.6327 125.912 78.6507C125.908 78.6657 125.904 78.6807 125.9 78.6965C125.895 78.7172 125.89 78.7394 125.884 78.7614C125.881 78.7768 125.877 78.7917 125.873 78.8077C125.867 78.8318 125.86 78.8574 125.854 78.8829C125.85 78.8987 125.846 78.9137 125.842 78.9301C125.832 78.9709 125.821 79.0134 125.809 79.0575C125.806 79.0707 125.802 79.0847 125.799 79.0982C125.79 79.1328 125.781 79.1678 125.771 79.2044C125.766 79.2226 125.761 79.2419 125.756 79.2604C125.748 79.2929 125.739 79.3254 125.73 79.3591C125.724 79.3805 125.718 79.4027 125.712 79.4246C125.704 79.4565 125.695 79.4886 125.686 79.5216C125.679 79.5455 125.673 79.5702 125.666 79.5947C125.656 79.6285 125.647 79.6627 125.637 79.6976C125.631 79.7218 125.624 79.7464 125.617 79.771C125.607 79.8072 125.596 79.8438 125.586 79.881C125.578 79.9074 125.571 79.9341 125.563 79.9609C125.552 79.9972 125.542 80.0341 125.531 80.0713C125.524 80.0969 125.516 80.1225 125.509 80.1485C125.483 80.2369 125.456 80.3275 125.428 80.4206C125.423 80.4362 125.419 80.4523 125.414 80.468C125.387 80.5565 125.36 80.6469 125.331 80.7394C125.327 80.7525 125.323 80.7652 125.319 80.7783C125.288 80.8777 125.256 80.9797 125.223 81.0834C125.216 81.1054 125.209 81.1276 125.202 81.1498C125.168 81.2558 125.133 81.3633 125.097 81.4734C125.094 81.4823 125.091 81.4915 125.088 81.5004C125.054 81.6039 125.019 81.7094 124.982 81.8162C124.975 81.8393 124.967 81.8622 124.959 81.8854C124.921 81.9972 124.882 82.1106 124.841 82.2256C124.833 82.2487 124.825 82.2721 124.817 82.2953C124.778 82.4059 124.738 82.5177 124.697 82.6309C124.693 82.6427 124.689 82.6543 124.684 82.6662C124.641 82.7867 124.595 82.9092 124.549 83.0325C124.539 83.0598 124.529 83.0872 124.518 83.1146C124.472 83.2384 124.424 83.3633 124.375 83.4893C124.369 83.5047 124.363 83.5203 124.357 83.5356C124.311 83.6528 124.264 83.7709 124.217 83.8899C124.207 83.9146 124.197 83.9392 124.187 83.9639C124.135 84.0917 124.083 84.2205 124.029 84.3501C124.018 84.3762 124.007 84.4024 123.996 84.4285C123.942 84.5566 123.887 84.6853 123.831 84.8148C123.828 84.8226 123.825 84.8304 123.821 84.8383C123.763 84.9722 123.704 85.1069 123.643 85.2423C123.63 85.271 123.617 85.2998 123.604 85.3286C123.544 85.4627 123.482 85.5973 123.419 85.7323C123.41 85.7517 123.401 85.7712 123.391 85.7905C123.333 85.9159 123.273 86.0415 123.212 86.1673C123.201 86.1901 123.19 86.2128 123.179 86.2355C123.113 86.3706 123.046 86.5059 122.977 86.6414C122.962 86.671 122.947 86.7007 122.932 86.7304C122.871 86.8508 122.808 86.9712 122.745 87.0917C122.738 87.1048 122.731 87.118 122.724 87.1311C122.656 87.2612 122.586 87.3912 122.514 87.5212C122.498 87.5519 122.481 87.5825 122.464 87.6131C122.393 87.741 122.321 87.8687 122.249 87.9962C122.246 88.0003 122.244 88.0044 122.242 88.0085C122.167 88.1384 122.091 88.2678 122.014 88.3969C121.995 88.428 121.977 88.4591 121.958 88.4901C121.88 88.6193 121.802 88.7479 121.722 88.8761C121.717 88.8832 121.713 88.8902 121.708 88.8973C121.632 89.0191 121.554 89.1404 121.475 89.261C121.455 89.2913 121.435 89.3215 121.415 89.3518C121.333 89.4774 121.249 89.6023 121.163 89.7264C121.153 89.7409 121.143 89.7551 121.133 89.7695C121.055 89.8821 120.976 89.9939 120.896 90.1049C120.878 90.1307 120.859 90.1565 120.841 90.1823C120.718 90.3516 120.592 90.5189 120.464 90.6842C120.45 90.7019 120.436 90.7198 120.423 90.7375C120.291 90.9057 120.157 91.0714 120.021 91.2346C120.009 91.2483 119.998 91.2621 119.987 91.2758C119.845 91.4437 119.701 91.6085 119.554 91.7704C119.547 91.7784 119.54 91.7866 119.533 91.7945C119.378 91.9637 119.221 92.1293 119.06 92.2912L118.161 93.2067L120.499 92.9087L121.399 91.9932C121.56 91.8316 121.717 91.666 121.871 91.4966C121.879 91.4886 121.886 91.4805 121.893 91.4725C122.04 91.3107 122.184 91.1459 122.325 90.978C122.337 90.9643 122.348 90.9503 122.36 90.9365C122.496 90.7734 122.63 90.6078 122.761 90.4398C122.775 90.4219 122.789 90.4039 122.803 90.386C122.931 90.2208 123.056 90.0536 123.179 89.8843C123.186 89.8755 123.193 89.867 123.199 89.8582C123.211 89.8412 123.223 89.8239 123.235 89.807C123.315 89.696 123.394 89.5843 123.472 89.4719C123.482 89.4574 123.492 89.443 123.502 89.4284C123.588 89.3043 123.672 89.1793 123.754 89.0535C123.774 89.0236 123.794 88.9936 123.813 88.9636C123.892 88.8424 123.971 88.7206 124.048 88.5983C124.052 88.5917 124.056 88.5851 124.06 88.5785C124.14 88.4505 124.219 88.3219 124.297 88.1927C124.316 88.1613 124.334 88.1299 124.353 88.0985C124.43 87.9694 124.506 87.84 124.581 87.7103C124.583 87.7067 124.585 87.703 124.587 87.6994C124.66 87.5719 124.732 87.4442 124.802 87.3162C124.819 87.2849 124.836 87.2535 124.854 87.2221C124.925 87.0926 124.995 86.9629 125.063 86.8331C125.07 86.82 125.077 86.8069 125.084 86.7937C125.147 86.6733 125.209 86.5528 125.271 86.4324C125.279 86.4155 125.288 86.3985 125.297 86.3816C125.303 86.3689 125.31 86.3562 125.316 86.3434C125.384 86.208 125.452 86.0728 125.517 85.9377C125.529 85.9146 125.54 85.8916 125.551 85.8685C125.612 85.7432 125.671 85.6182 125.73 85.4934C125.739 85.4737 125.749 85.4539 125.758 85.4343C125.821 85.2994 125.882 85.1649 125.943 85.031C125.956 85.0018 125.969 84.9727 125.982 84.9436C126.043 84.8088 126.102 84.6745 126.16 84.5407C126.164 84.5322 126.167 84.5237 126.171 84.5152C126.227 84.3865 126.281 84.2585 126.334 84.1313C126.345 84.1048 126.357 84.0783 126.367 84.0519C126.421 83.9224 126.474 83.7937 126.526 83.666C126.536 83.6413 126.546 83.6167 126.555 83.5921C126.603 83.473 126.65 83.3548 126.696 83.2375C126.702 83.2222 126.708 83.2067 126.714 83.1914C126.763 83.0651 126.811 82.9402 126.857 82.8166C126.867 82.789 126.878 82.7615 126.888 82.7341C126.934 82.6109 126.979 82.4889 127.023 82.3682C127.027 82.3564 127.032 82.3448 127.036 82.333C127.077 82.2195 127.117 82.1074 127.156 81.9967C127.164 81.9739 127.172 81.9509 127.18 81.9281C127.221 81.8129 127.26 81.6993 127.298 81.5875C127.306 81.5642 127.314 81.5414 127.321 81.5183C127.358 81.4115 127.393 81.3062 127.427 81.2025C127.43 81.1936 127.433 81.1844 127.436 81.1754C127.472 81.0654 127.507 80.9579 127.541 80.8519C127.548 80.8297 127.555 80.8075 127.562 80.7855C127.595 80.6822 127.627 80.5806 127.658 80.4816C127.662 80.4672 127.666 80.4533 127.671 80.439C127.699 80.3473 127.726 80.2577 127.753 80.1701C127.757 80.1543 127.762 80.1383 127.767 80.1227C127.795 80.0295 127.822 79.9388 127.847 79.8506C127.85 79.843 127.852 79.8346 127.854 79.827C127.86 79.8087 127.865 79.7914 127.87 79.7734C127.881 79.7364 127.891 79.6999 127.901 79.6638C127.909 79.6358 127.917 79.6081 127.925 79.5807C127.935 79.5452 127.945 79.5103 127.955 79.4757C127.962 79.4499 127.969 79.4242 127.976 79.399C127.986 79.3643 127.995 79.3304 128.005 79.2968C128.011 79.2722 128.018 79.2476 128.025 79.2237C128.034 79.1906 128.042 79.1586 128.051 79.1267C128.057 79.1048 128.063 79.0826 128.069 79.0612C128.078 79.0274 128.086 78.9949 128.095 78.9625C128.1 78.9439 128.105 78.9247 128.11 78.9065C128.12 78.8699 128.129 78.8349 128.138 78.8002C128.141 78.7858 128.145 78.7708 128.149 78.7567C128.16 78.7144 128.17 78.6735 128.18 78.6342C128.185 78.6144 128.19 78.596 128.195 78.577C128.201 78.5543 128.206 78.5314 128.212 78.5098C128.216 78.4937 128.219 78.4789 128.223 78.4635C128.229 78.4414 128.234 78.4193 128.239 78.3986C128.243 78.3827 128.247 78.3679 128.25 78.3528C128.255 78.3347 128.259 78.3169 128.263 78.3C128.267 78.2844 128.27 78.2698 128.274 78.2552C128.277 78.2413 128.28 78.2279 128.283 78.215C128.287 78.2009 128.29 78.1875 128.293 78.1745C128.296 78.1606 128.299 78.1476 128.302 78.135C128.304 78.1254 128.307 78.1161 128.309 78.1073C128.312 78.094 128.314 78.0822 128.317 78.0706C128.319 78.0638 128.32 78.057 128.322 78.0508C128.324 78.0396 128.326 78.03 128.328 78.0207C128.329 78.0156 128.331 78.0102 128.332 78.0056C128.333 77.9987 128.334 77.9935 128.336 77.988C128.337 77.9834 128.338 77.9784 128.339 77.9748C128.34 77.9674 128.341 77.962 128.342 77.9588C128.37 77.8363 128.401 77.7187 128.434 77.606C128.463 77.5062 128.494 77.4116 128.527 77.3195C128.534 77.2983 128.541 77.2772 128.549 77.2565Z" fill="url(#paint55_linear_106_40371)"/>
<path d="M142.944 132.802C142.65 132.64 142.36 132.476 142.073 132.312C142.01 132.276 141.947 132.24 141.885 132.203C141.605 132.042 141.329 131.879 141.056 131.715C141.014 131.69 140.973 131.665 140.932 131.64C140.685 131.491 140.441 131.341 140.2 131.189C140.149 131.157 140.097 131.125 140.047 131.093C139.784 130.927 139.525 130.759 139.269 130.591C139.215 130.555 139.161 130.519 139.107 130.483C138.869 130.325 138.633 130.165 138.4 130.004C138.373 129.986 138.346 129.967 138.318 129.948C138.069 129.775 137.822 129.6 137.58 129.423C137.525 129.383 137.47 129.343 137.415 129.303C137.172 129.125 136.932 128.946 136.696 128.766C136.677 128.751 136.658 128.736 136.639 128.722C136.417 128.551 136.198 128.379 135.982 128.205C135.933 128.166 135.884 128.127 135.836 128.087C135.611 127.905 135.389 127.722 135.17 127.537C135.131 127.503 135.091 127.469 135.052 127.435C134.854 127.267 134.66 127.097 134.467 126.925C134.432 126.894 134.396 126.862 134.36 126.83C134.15 126.641 133.942 126.45 133.738 126.258C133.692 126.215 133.647 126.172 133.602 126.129C133.401 125.938 133.203 125.745 133.007 125.551C132.999 125.543 132.991 125.536 132.984 125.528C132.783 125.328 132.587 125.125 132.393 124.921C132.35 124.875 132.306 124.83 132.263 124.784C132.073 124.582 131.885 124.378 131.7 124.173C131.676 124.145 131.652 124.117 131.627 124.09C131.459 123.901 131.293 123.71 131.13 123.518C131.095 123.476 131.058 123.434 131.023 123.391C130.847 123.182 130.674 122.971 130.504 122.758C130.469 122.715 130.435 122.671 130.401 122.628C130.244 122.43 130.09 122.23 129.938 122.029C129.917 122.001 129.896 121.973 129.875 121.945C129.71 121.726 129.549 121.504 129.391 121.28C129.355 121.229 129.319 121.178 129.283 121.127C129.124 120.9 128.968 120.671 128.813 120.44C128.806 120.429 128.799 120.417 128.792 120.406C128.644 120.183 128.499 119.957 128.357 119.729C128.324 119.677 128.292 119.626 128.26 119.574C128.173 119.433 128.088 119.29 128.003 119.147C127.918 119.007 127.834 118.866 127.752 118.724C127.674 118.59 127.599 118.455 127.523 118.319C127.443 118.176 127.362 118.033 127.284 117.888C127.209 117.751 127.137 117.612 127.065 117.474C126.988 117.327 126.911 117.181 126.836 117.033C126.765 116.893 126.696 116.751 126.627 116.61C126.554 116.46 126.48 116.31 126.409 116.159C126.318 115.967 126.229 115.775 126.142 115.58C126.109 115.508 126.076 115.437 126.044 115.365C125.922 115.091 125.804 114.815 125.687 114.536C125.663 114.478 125.64 114.418 125.616 114.36C125.525 114.137 125.435 113.912 125.346 113.686C125.308 113.589 125.271 113.49 125.234 113.392C125.159 113.195 125.085 112.997 125.013 112.798C124.979 112.703 124.944 112.608 124.91 112.513C124.831 112.289 124.753 112.062 124.676 111.834C124.653 111.767 124.63 111.7 124.607 111.632C124.51 111.338 124.415 111.041 124.322 110.741C124.3 110.668 124.278 110.594 124.256 110.521C124.184 110.282 124.113 110.041 124.043 109.798C124.021 109.722 123.999 109.646 123.978 109.569C123.892 109.267 123.809 108.962 123.728 108.654L120.249 95.3594C120.236 95.3064 120.223 95.2533 120.212 95.2C120.195 95.1212 120.18 95.0422 120.168 94.9634C120.165 94.9469 120.163 94.9304 120.161 94.914C120.147 94.8202 120.137 94.7267 120.13 94.6341C120.129 94.6209 120.128 94.6078 120.128 94.5946C120.124 94.5364 120.122 94.4787 120.121 94.4213C120.12 94.4003 120.12 94.3793 120.12 94.3583C120.12 94.3029 120.121 94.2481 120.123 94.1938C120.124 94.1786 120.124 94.1631 120.125 94.1479C120.127 94.1009 120.131 94.0545 120.136 94.0085C120.137 93.9968 120.137 93.9846 120.138 93.9729C120.145 93.9155 120.152 93.8591 120.161 93.8037C120.163 93.7888 120.166 93.7744 120.169 93.7596C120.176 93.7197 120.183 93.6802 120.191 93.6417C120.196 93.6219 120.201 93.6028 120.205 93.5834C120.213 93.5509 120.221 93.5186 120.23 93.4872C120.235 93.47 120.24 93.4535 120.245 93.4367C120.258 93.3946 120.272 93.3537 120.286 93.314C120.292 93.2986 120.298 93.2831 120.304 93.2681C120.324 93.2164 120.346 93.1663 120.37 93.1193C120.388 93.0826 120.408 93.0474 120.428 93.0138C120.435 93.0032 120.442 92.9937 120.449 92.9834C120.465 92.9578 120.482 92.9321 120.499 92.9086L118.161 93.2065C118.156 93.2127 118.151 93.219 118.147 93.2253C118.134 93.2432 118.122 93.2626 118.11 93.2816C118.103 93.2918 118.096 93.3012 118.09 93.3116C118.069 93.3452 118.05 93.38 118.031 93.4167L118.031 93.4173C118.007 93.4643 117.985 93.5143 117.965 93.5659C117.959 93.581 117.953 93.5966 117.948 93.612C117.933 93.6517 117.919 93.6926 117.906 93.7346C117.903 93.7448 117.899 93.754 117.896 93.7643C117.894 93.771 117.893 93.7783 117.891 93.7851C117.882 93.8164 117.874 93.8486 117.867 93.8809C117.862 93.9006 117.857 93.9198 117.852 93.9398C117.844 93.978 117.837 94.0173 117.83 94.0569C117.828 94.0719 117.824 94.0865 117.822 94.1017C117.813 94.157 117.806 94.2133 117.8 94.2706C117.798 94.2831 117.798 94.2959 117.797 94.3084C117.792 94.3537 117.789 94.3993 117.786 94.4457C117.786 94.45 117.785 94.4541 117.785 94.4584C117.785 94.4695 117.785 94.4811 117.784 94.4923C117.782 94.5463 117.781 94.6009 117.781 94.6559C117.781 94.6771 117.781 94.6982 117.782 94.7195C117.783 94.7767 117.785 94.8343 117.789 94.8923C117.79 94.903 117.789 94.9136 117.79 94.9244C117.79 94.9269 117.791 94.9295 117.791 94.932C117.798 95.0246 117.809 95.1181 117.822 95.2118C117.823 95.2211 117.824 95.2302 117.825 95.2395C117.826 95.2467 117.828 95.254 117.829 95.2613C117.841 95.3402 117.856 95.4192 117.873 95.4981C117.874 95.502 117.874 95.5058 117.875 95.5097C117.886 95.559 117.898 95.6082 117.911 95.6573L121.389 108.952C121.47 109.26 121.554 109.565 121.639 109.867C121.66 109.943 121.682 110.02 121.704 110.096C121.726 110.173 121.747 110.252 121.77 110.329C121.818 110.494 121.868 110.656 121.918 110.82C121.94 110.893 121.961 110.966 121.984 111.038C122.076 111.338 122.171 111.635 122.269 111.93C122.291 111.997 122.314 112.064 122.337 112.132C122.414 112.36 122.492 112.586 122.572 112.811C122.605 112.906 122.64 113.001 122.674 113.095C122.706 113.183 122.737 113.272 122.769 113.36C122.81 113.471 122.853 113.58 122.895 113.69C122.933 113.788 122.97 113.886 123.007 113.984C123.096 114.21 123.186 114.435 123.277 114.658C123.301 114.716 123.324 114.776 123.349 114.834C123.465 115.113 123.583 115.389 123.705 115.662C123.737 115.735 123.771 115.807 123.804 115.879C123.871 116.029 123.938 116.179 124.007 116.327C124.027 116.37 124.049 116.413 124.07 116.456C124.141 116.608 124.215 116.758 124.288 116.908C124.358 117.049 124.426 117.191 124.497 117.33C124.572 117.479 124.649 117.626 124.726 117.772C124.799 117.91 124.871 118.049 124.945 118.185C125.023 118.331 125.104 118.474 125.185 118.618C125.26 118.753 125.336 118.888 125.413 119.022C125.495 119.164 125.58 119.304 125.664 119.445C125.723 119.545 125.781 119.646 125.841 119.745C125.868 119.787 125.895 119.829 125.921 119.872C125.953 119.924 125.985 119.975 126.018 120.027C126.16 120.254 126.305 120.48 126.452 120.703C126.46 120.715 126.467 120.727 126.475 120.738C126.628 120.969 126.785 121.198 126.944 121.425C126.98 121.476 127.016 121.527 127.052 121.578C127.211 121.802 127.372 122.023 127.536 122.243C127.557 122.271 127.578 122.299 127.599 122.327C127.751 122.528 127.905 122.728 128.062 122.925C128.096 122.969 128.13 123.013 128.165 123.056C128.335 123.269 128.508 123.48 128.684 123.689C128.72 123.732 128.756 123.774 128.792 123.816C128.955 124.008 129.12 124.198 129.288 124.387C129.313 124.415 129.337 124.443 129.362 124.471C129.546 124.676 129.734 124.88 129.924 125.082C129.967 125.128 130.011 125.173 130.054 125.219C130.248 125.423 130.444 125.625 130.645 125.825C130.653 125.834 130.662 125.842 130.67 125.85C130.864 126.044 131.062 126.236 131.263 126.427C131.308 126.47 131.353 126.513 131.399 126.555C131.603 126.748 131.811 126.939 132.021 127.128C132.057 127.16 132.093 127.192 132.129 127.223C132.321 127.394 132.515 127.564 132.712 127.733C132.752 127.767 132.792 127.801 132.832 127.835C133.05 128.02 133.272 128.203 133.496 128.385C133.545 128.425 133.595 128.464 133.644 128.504C133.86 128.677 134.078 128.848 134.3 129.019C134.319 129.034 134.338 129.049 134.358 129.064C134.593 129.244 134.833 129.423 135.076 129.6C135.131 129.641 135.186 129.681 135.241 129.721C135.485 129.898 135.731 130.073 135.98 130.246C136.007 130.265 136.034 130.283 136.06 130.302C136.293 130.463 136.53 130.623 136.769 130.781C136.823 130.817 136.876 130.853 136.93 130.888C137.186 131.057 137.445 131.224 137.707 131.39C137.759 131.423 137.811 131.455 137.862 131.487C138.103 131.639 138.347 131.789 138.593 131.938C138.635 131.963 138.675 131.988 138.717 132.013C138.989 132.177 139.266 132.34 139.546 132.501C139.608 132.537 139.671 132.574 139.735 132.61C140.022 132.774 140.311 132.938 140.605 133.1C140.769 133.194 140.948 133.257 141.135 133.286C141.205 133.296 141.276 133.299 141.347 133.297C141.383 133.296 141.418 133.293 141.453 133.288L143.792 132.99C143.496 133.021 143.199 132.955 142.944 132.802Z" fill="url(#paint56_linear_106_40371)"/>
<mask id="mask14_106_40371" style="mask-type:luminance" maskUnits="userSpaceOnUse" x="117" y="92" width="27" height="42">
<path fill-rule="evenodd" clip-rule="evenodd" d="M142.944 132.802C142.65 132.64 142.36 132.476 142.073 132.312C142.01 132.276 141.947 132.24 141.885 132.203C141.605 132.042 141.329 131.879 141.056 131.715C141.014 131.69 140.973 131.665 140.932 131.64C140.685 131.491 140.441 131.341 140.2 131.189C140.149 131.157 140.097 131.125 140.047 131.093C139.784 130.927 139.525 130.759 139.269 130.591C139.215 130.555 139.161 130.519 139.107 130.483C138.869 130.325 138.633 130.165 138.4 130.004C138.373 129.986 138.346 129.967 138.318 129.948C138.069 129.775 137.822 129.6 137.58 129.423C137.525 129.383 137.47 129.343 137.415 129.303C137.172 129.125 136.932 128.946 136.696 128.766C136.677 128.751 136.658 128.736 136.639 128.722C136.417 128.551 136.198 128.379 135.982 128.205C135.933 128.166 135.884 128.127 135.836 128.087C135.611 127.905 135.389 127.722 135.17 127.537C135.131 127.503 135.091 127.469 135.052 127.435C134.854 127.267 134.66 127.097 134.467 126.925C134.432 126.894 134.396 126.862 134.36 126.83C134.15 126.641 133.942 126.45 133.738 126.258C133.692 126.215 133.647 126.172 133.602 126.129C133.401 125.938 133.203 125.745 133.007 125.551C132.999 125.543 132.991 125.536 132.984 125.528C132.783 125.328 132.587 125.125 132.393 124.921C132.35 124.875 132.306 124.83 132.263 124.784C132.073 124.582 131.885 124.378 131.7 124.173C131.676 124.145 131.652 124.117 131.627 124.09C131.459 123.901 131.293 123.71 131.13 123.518C131.095 123.476 131.058 123.434 131.023 123.391C130.847 123.182 130.674 122.971 130.504 122.758C130.469 122.715 130.435 122.671 130.401 122.628C130.244 122.43 130.09 122.23 129.938 122.029C129.917 122.001 129.896 121.973 129.875 121.945C129.71 121.726 129.549 121.504 129.391 121.28C129.355 121.229 129.319 121.178 129.283 121.127C129.124 120.9 128.968 120.671 128.813 120.44C128.806 120.429 128.799 120.417 128.792 120.406C128.644 120.183 128.499 119.957 128.357 119.729C128.324 119.677 128.292 119.626 128.26 119.574C128.173 119.433 128.088 119.29 128.003 119.147C127.918 119.007 127.834 118.866 127.752 118.724C127.674 118.59 127.599 118.455 127.523 118.319C127.443 118.176 127.362 118.033 127.284 117.888C127.209 117.751 127.137 117.612 127.065 117.474C126.988 117.327 126.911 117.181 126.836 117.033C126.765 116.893 126.696 116.751 126.627 116.61C126.554 116.46 126.48 116.31 126.409 116.159C126.318 115.967 126.229 115.775 126.142 115.58C126.109 115.508 126.076 115.437 126.044 115.365C125.922 115.091 125.804 114.815 125.687 114.536C125.663 114.478 125.64 114.418 125.616 114.36C125.525 114.137 125.435 113.912 125.346 113.686C125.308 113.589 125.271 113.49 125.234 113.392C125.159 113.195 125.085 112.997 125.013 112.798C124.979 112.703 124.944 112.608 124.91 112.513C124.831 112.289 124.753 112.062 124.676 111.834C124.653 111.767 124.63 111.7 124.607 111.632C124.51 111.338 124.415 111.041 124.322 110.741C124.3 110.668 124.278 110.594 124.256 110.521C124.184 110.282 124.113 110.041 124.043 109.798C124.021 109.722 123.999 109.646 123.978 109.569C123.892 109.267 123.809 108.962 123.728 108.654L120.249 95.3594C120.236 95.3064 120.223 95.2533 120.212 95.2C120.195 95.1212 120.18 95.0422 120.168 94.9634C120.165 94.9469 120.163 94.9304 120.161 94.914C120.147 94.8202 120.137 94.7267 120.13 94.6341C120.129 94.6209 120.128 94.6078 120.128 94.5946C120.124 94.5364 120.122 94.4787 120.121 94.4213C120.12 94.4003 120.12 94.3793 120.12 94.3583C120.12 94.3029 120.121 94.2481 120.123 94.1938C120.124 94.1786 120.124 94.1631 120.125 94.1479C120.127 94.1009 120.131 94.0545 120.136 94.0085C120.137 93.9968 120.137 93.9846 120.138 93.9729C120.145 93.9155 120.152 93.8591 120.161 93.8037C120.163 93.7888 120.166 93.7744 120.169 93.7596C120.176 93.7197 120.183 93.6802 120.191 93.6417C120.196 93.6219 120.201 93.6028 120.205 93.5834C120.213 93.5509 120.221 93.5186 120.23 93.4872C120.235 93.47 120.24 93.4535 120.245 93.4367C120.258 93.3946 120.272 93.3537 120.286 93.314C120.292 93.2986 120.298 93.2831 120.304 93.2681C120.324 93.2164 120.346 93.1663 120.37 93.1193C120.388 93.0826 120.408 93.0474 120.428 93.0138C120.435 93.0032 120.442 92.9937 120.449 92.9834C120.465 92.9578 120.482 92.9321 120.499 92.9086L118.161 93.2065C118.156 93.2127 118.151 93.219 118.147 93.2253C118.134 93.2432 118.122 93.2626 118.11 93.2816C118.103 93.2918 118.096 93.3012 118.09 93.3116C118.069 93.3452 118.05 93.38 118.031 93.4167L118.031 93.4173C118.007 93.4643 117.985 93.5143 117.965 93.5659C117.959 93.581 117.953 93.5966 117.948 93.612C117.933 93.6517 117.919 93.6926 117.906 93.7346C117.903 93.7448 117.899 93.754 117.896 93.7643C117.894 93.771 117.893 93.7783 117.891 93.7851C117.882 93.8164 117.874 93.8486 117.867 93.8809C117.862 93.9006 117.857 93.9198 117.852 93.9398C117.844 93.978 117.837 94.0173 117.83 94.0569C117.828 94.0719 117.824 94.0865 117.822 94.1017C117.813 94.157 117.806 94.2133 117.8 94.2706C117.798 94.2831 117.798 94.2959 117.797 94.3084C117.792 94.3537 117.789 94.3993 117.786 94.4457C117.786 94.45 117.785 94.4541 117.785 94.4584C117.785 94.4695 117.785 94.4811 117.784 94.4923C117.782 94.5463 117.781 94.6009 117.781 94.6559C117.781 94.6771 117.781 94.6982 117.782 94.7195C117.783 94.7767 117.785 94.8343 117.789 94.8923C117.79 94.903 117.789 94.9136 117.79 94.9244C117.79 94.9269 117.791 94.9295 117.791 94.932C117.798 95.0246 117.809 95.1181 117.822 95.2118C117.823 95.2211 117.824 95.2302 117.825 95.2395C117.826 95.2467 117.828 95.254 117.829 95.2613C117.841 95.3402 117.856 95.4192 117.873 95.4981C117.874 95.502 117.874 95.5058 117.875 95.5097C117.886 95.559 117.898 95.6082 117.911 95.6573L121.389 108.952C121.47 109.26 121.554 109.565 121.639 109.867C121.66 109.943 121.682 110.02 121.704 110.096C121.726 110.173 121.747 110.252 121.77 110.329C121.818 110.494 121.868 110.656 121.918 110.82C121.94 110.893 121.961 110.966 121.984 111.038C122.076 111.338 122.171 111.635 122.269 111.93C122.291 111.997 122.314 112.064 122.337 112.132C122.414 112.36 122.492 112.586 122.572 112.811C122.605 112.906 122.64 113.001 122.674 113.095C122.706 113.183 122.737 113.272 122.769 113.36C122.81 113.471 122.853 113.58 122.895 113.69C122.933 113.788 122.97 113.886 123.007 113.984C123.096 114.21 123.186 114.435 123.277 114.658C123.301 114.716 123.324 114.776 123.349 114.834C123.465 115.113 123.583 115.389 123.705 115.662C123.737 115.735 123.771 115.807 123.804 115.879C123.871 116.029 123.938 116.179 124.007 116.327C124.027 116.37 124.049 116.413 124.07 116.456C124.141 116.608 124.215 116.758 124.288 116.908C124.358 117.049 124.426 117.191 124.497 117.33C124.572 117.479 124.649 117.626 124.726 117.772C124.799 117.91 124.871 118.049 124.945 118.185C125.023 118.331 125.104 118.474 125.185 118.618C125.26 118.753 125.336 118.888 125.413 119.022C125.495 119.164 125.58 119.304 125.664 119.445C125.723 119.545 125.781 119.646 125.841 119.745C125.868 119.787 125.895 119.829 125.921 119.872C125.953 119.924 125.985 119.975 126.018 120.027C126.16 120.254 126.305 120.48 126.452 120.703C126.46 120.715 126.467 120.727 126.475 120.738C126.628 120.969 126.785 121.198 126.944 121.425C126.98 121.476 127.016 121.527 127.052 121.578C127.211 121.802 127.372 122.023 127.536 122.243C127.557 122.271 127.578 122.299 127.599 122.327C127.751 122.528 127.905 122.728 128.062 122.925C128.096 122.969 128.13 123.013 128.165 123.056C128.335 123.269 128.508 123.48 128.684 123.689C128.72 123.732 128.756 123.774 128.792 123.816C128.955 124.008 129.12 124.198 129.288 124.387C129.313 124.415 129.337 124.443 129.362 124.471C129.546 124.676 129.734 124.88 129.924 125.082C129.967 125.128 130.011 125.173 130.054 125.219C130.248 125.423 130.444 125.625 130.645 125.825C130.653 125.834 130.662 125.842 130.67 125.85C130.864 126.044 131.062 126.236 131.263 126.427C131.308 126.47 131.353 126.513 131.399 126.555C131.603 126.748 131.811 126.939 132.021 127.128C132.057 127.16 132.093 127.192 132.129 127.223C132.321 127.394 132.515 127.564 132.712 127.733C132.752 127.767 132.792 127.801 132.832 127.835C133.05 128.02 133.272 128.203 133.496 128.385C133.545 128.425 133.595 128.464 133.644 128.504C133.86 128.677 134.078 128.848 134.3 129.019C134.319 129.034 134.338 129.049 134.358 129.064C134.593 129.244 134.833 129.423 135.076 129.6C135.131 129.641 135.186 129.681 135.241 129.721C135.485 129.898 135.731 130.073 135.98 130.246C136.007 130.265 136.034 130.283 136.06 130.302C136.293 130.463 136.53 130.623 136.769 130.781C136.823 130.817 136.876 130.853 136.93 130.888C137.186 131.057 137.445 131.224 137.707 131.39C137.759 131.423 137.811 131.455 137.862 131.487C138.103 131.639 138.347 131.789 138.593 131.938C138.635 131.963 138.675 131.988 138.717 132.013C138.989 132.177 139.266 132.34 139.546 132.501C139.608 132.537 139.671 132.574 139.735 132.61C140.022 132.774 140.311 132.938 140.605 133.1C140.769 133.194 140.948 133.257 141.135 133.286C141.205 133.296 141.276 133.299 141.347 133.297C141.383 133.296 141.418 133.293 141.453 133.288L143.792 132.99C143.496 133.021 143.199 132.955 142.944 132.802Z" fill="white"/>
</mask>
<g mask="url(#mask14_106_40371)">
<path d="M116.018 97.0088C129.504 139.216 155.498 133 155.498 133L132.436 140.192L114.259 120.076" fill="url(#paint57_linear_106_40371)"/>
</g>
<path d="M129.447 75.9881C129.926 75.684 130.452 75.7292 130.943 76.0534L131.091 76.169C131.145 76.2112 136.501 80.3893 142.409 78.659L143.431 78.3605C143.931 78.2997 144.468 78.8716 144.717 79.8223L148.195 93.1167C151.102 104.228 150.232 115.656 145.285 131.331C145.068 132.007 144.74 132.526 144.311 132.798C143.873 133.076 143.398 133.057 142.944 132.802C132.381 126.983 126.634 119.76 123.728 108.654L120.249 95.3595C120.002 94.4141 120.118 93.4137 120.499 92.9087L121.399 91.9932C126.378 86.9813 128.299 78.1588 128.342 77.9588C128.568 76.9819 128.935 76.3132 129.447 75.9881Z" fill="url(#paint58_linear_106_40371)"/>
<mask id="mask15_106_40371" style="mask-type:luminance" maskUnits="userSpaceOnUse" x="120" y="75" width="30" height="58">
<path fill-rule="evenodd" clip-rule="evenodd" d="M129.447 75.9881C129.926 75.684 130.452 75.7292 130.943 76.0534L131.091 76.169C131.145 76.2112 136.501 80.3893 142.409 78.659L143.431 78.3605C143.931 78.2997 144.468 78.8716 144.717 79.8223L148.195 93.1167C151.102 104.228 150.232 115.656 145.285 131.331C145.068 132.007 144.74 132.526 144.311 132.798C143.873 133.076 143.398 133.057 142.944 132.802C132.381 126.983 126.634 119.76 123.728 108.654L120.249 95.3595C120.002 94.4141 120.118 93.4137 120.499 92.9087L121.399 91.9932C126.378 86.9813 128.299 78.1588 128.342 77.9588C128.568 76.9819 128.935 76.3132 129.447 75.9881Z" fill="white"/>
</mask>
<g mask="url(#mask15_106_40371)">
<path d="M120.119 88.6353C117.594 120.817 149.856 134.724 149.856 134.724L121.05 136.677L108.592 98.5517L117.781 82.382" fill="url(#paint59_linear_106_40371)"/>
</g>
<path d="M131.332 81.5268C131.707 81.2885 132.119 81.324 132.504 81.578L132.62 81.6686C132.662 81.7016 136.86 84.9758 141.49 83.6198L142.29 83.386C142.682 83.3383 143.103 83.7865 143.298 84.5314L146.024 94.9496C148.302 103.657 147.62 112.612 143.744 124.896C143.573 125.426 143.316 125.832 142.98 126.046C142.637 126.264 142.264 126.249 141.909 126.049C133.631 121.489 129.127 115.828 126.85 107.125L124.124 96.7072C123.93 95.9663 124.021 95.1823 124.32 94.7866L125.025 94.0692C128.927 90.1416 130.432 83.2279 130.466 83.0711C130.643 82.3056 130.93 81.7815 131.332 81.5268Z" fill="url(#paint60_linear_106_40371)"/>
<mask id="mask16_106_40371" style="mask-type:luminance" maskUnits="userSpaceOnUse" x="124" y="81" width="24" height="46">
<path fill-rule="evenodd" clip-rule="evenodd" d="M131.332 81.5269C131.707 81.2886 132.12 81.3241 132.505 81.5781L132.62 81.6687C132.663 81.7017 136.86 84.9759 141.49 83.6199L142.291 83.3861C142.683 83.3384 143.103 83.7866 143.298 84.5315L146.024 94.9497C148.303 103.657 147.62 112.612 143.744 124.896C143.573 125.426 143.317 125.832 142.98 126.046C142.637 126.264 142.265 126.249 141.909 126.049C133.632 121.489 129.128 115.829 126.85 107.125L124.125 96.7073C123.931 95.9664 124.022 95.1824 124.32 94.7867L125.026 94.0693C128.927 90.1418 130.433 83.228 130.466 83.0713C130.644 82.3057 130.931 81.7817 131.332 81.5269Z" fill="white"/>
</mask>
<g mask="url(#mask16_106_40371)">
<path d="M112.838 81.3665C112.838 81.3665 124.718 73.643 128.283 78.2149C143.792 98.1006 141.732 117.531 142.98 126.046C144.227 134.561 118.852 114.9 118.852 114.9L118.559 90.7802" fill="url(#paint61_linear_106_40371)"/>
</g>
<path d="M140.732 96.0473L141.831 95.9131C141.787 95.9187 141.745 95.9341 141.708 95.9581L140.609 96.0923C140.646 96.0683 140.688 96.0529 140.732 96.0473Z" fill="url(#paint62_linear_106_40371)"/>
<mask id="mask17_106_40371" style="mask-type:luminance" maskUnits="userSpaceOnUse" x="140" y="95" width="2" height="2">
<path fill-rule="evenodd" clip-rule="evenodd" d="M140.732 96.0473L141.831 95.9131C141.787 95.9187 141.745 95.9341 141.708 95.9581L140.609 96.0923C140.646 96.0683 140.688 96.0529 140.732 96.0473Z" fill="white"/>
</mask>
<g mask="url(#mask17_106_40371)">
<path d="M141.708 95.9581L140.609 96.0923C140.627 96.0812 140.645 96.0718 140.665 96.0643L141.764 95.9301C141.744 95.9376 141.726 95.947 141.708 95.9581Z" fill="url(#paint63_linear_106_40371)"/>
<path d="M141.764 95.9301L140.665 96.0643C140.686 96.0558 140.709 96.0501 140.732 96.0473L141.831 95.9131C141.808 95.9159 141.785 95.9216 141.764 95.9301Z" fill="url(#paint64_linear_106_40371)"/>
</g>
<path d="M139.534 97.3308L138.435 97.4649L140.609 96.0923L141.708 95.9581L139.534 97.3308Z" fill="url(#paint65_linear_106_40371)"/>
<path d="M136.747 92.5103L137.846 92.3761C137.802 92.3817 137.76 92.3971 137.723 92.4211L136.624 92.5553C136.661 92.5313 136.703 92.5159 136.747 92.5103Z" fill="url(#paint66_linear_106_40371)"/>
<mask id="mask18_106_40371" style="mask-type:luminance" maskUnits="userSpaceOnUse" x="136" y="92" width="2" height="1">
<path fill-rule="evenodd" clip-rule="evenodd" d="M136.747 92.5103L137.846 92.3761C137.802 92.3817 137.76 92.3971 137.723 92.4211L136.624 92.5553C136.661 92.5313 136.703 92.5159 136.747 92.5103Z" fill="white"/>
</mask>
<g mask="url(#mask18_106_40371)">
<path d="M137.723 92.4211L136.624 92.5553C136.641 92.5442 136.66 92.5348 136.679 92.5273L137.778 92.3931C137.759 92.4006 137.74 92.41 137.723 92.4211" fill="url(#paint67_linear_106_40371)"/>
<path d="M137.778 92.3932L136.679 92.5274C136.701 92.519 136.724 92.5133 136.747 92.5104L137.846 92.3762C137.823 92.3791 137.8 92.3848 137.778 92.3932Z" fill="url(#paint68_linear_106_40371)"/>
</g>
<path d="M139.913 109.164L138.814 109.298C138.582 109.326 138.336 109.057 138.224 108.622L139.323 108.487C139.435 108.922 139.681 109.192 139.913 109.164Z" fill="url(#paint69_linear_106_40371)"/>
<mask id="mask19_106_40371" style="mask-type:luminance" maskUnits="userSpaceOnUse" x="138" y="108" width="2" height="2">
<path fill-rule="evenodd" clip-rule="evenodd" d="M139.913 109.164L138.814 109.298C138.582 109.326 138.336 109.057 138.224 108.622L139.323 108.487C139.435 108.922 139.681 109.192 139.913 109.164Z" fill="white"/>
</mask>
<g mask="url(#mask19_106_40371)">
<path d="M139.913 109.164L138.814 109.298C138.658 109.317 138.497 109.202 138.373 108.993L139.472 108.859C139.596 109.068 139.757 109.183 139.913 109.164" fill="url(#paint70_linear_106_40371)"/>
<path d="M139.472 108.859L138.373 108.993C138.349 108.954 138.328 108.913 138.31 108.871L139.409 108.737C139.427 108.779 139.448 108.82 139.472 108.859" fill="url(#paint71_linear_106_40371)"/>
<path d="M139.409 108.737L138.31 108.871C138.294 108.835 138.279 108.797 138.265 108.758L139.364 108.624C139.378 108.663 139.393 108.701 139.409 108.737Z" fill="url(#paint72_linear_106_40371)"/>
<path d="M139.364 108.624L138.265 108.758C138.252 108.722 138.241 108.684 138.23 108.645L139.329 108.51C139.34 108.55 139.352 108.587 139.364 108.624Z" fill="url(#paint73_linear_106_40371)"/>
<path d="M139.329 108.51L138.23 108.645C138.228 108.637 138.226 108.629 138.224 108.622L139.323 108.488C139.325 108.495 139.327 108.503 139.329 108.51Z" fill="url(#paint74_linear_106_40371)"/>
</g>
<path d="M139.323 108.487L138.224 108.622L137.125 104.344L138.224 104.21L139.323 108.487Z" fill="url(#paint75_linear_106_40371)"/>
<path d="M136.022 93.4949L134.923 93.6291L136.624 92.5553L137.723 92.4211L136.022 93.4949Z" fill="url(#paint76_linear_106_40371)"/>
<path d="M136.886 99.0018L135.787 99.136L134.688 94.8581L135.787 94.7239L136.886 99.0018Z" fill="url(#paint77_linear_106_40371)"/>
<path d="M135.787 94.7237L134.688 94.8579C134.556 94.3446 134.661 93.7942 134.923 93.6291L136.022 93.4949C135.76 93.66 135.656 94.2104 135.787 94.7237Z" fill="url(#paint78_linear_106_40371)"/>
<mask id="mask20_106_40371" style="mask-type:luminance" maskUnits="userSpaceOnUse" x="134" y="93" width="3" height="2">
<path fill-rule="evenodd" clip-rule="evenodd" d="M135.787 94.7237L134.688 94.8579C134.556 94.3446 134.661 93.7942 134.923 93.6291L136.022 93.4949C135.76 93.66 135.656 94.2104 135.787 94.7237Z" fill="white"/>
</mask>
<g mask="url(#mask20_106_40371)">
<path d="M135.787 94.7239L134.688 94.8581C134.68 94.8261 134.673 94.794 134.666 94.7619L135.765 94.6277C135.772 94.6598 135.779 94.6919 135.787 94.7239Z" fill="url(#paint79_linear_106_40371)"/>
<path d="M135.765 94.6277L134.666 94.7619C134.658 94.7193 134.651 94.6765 134.645 94.634L135.744 94.4998C135.75 94.5423 135.757 94.5851 135.765 94.6277Z" fill="url(#paint80_linear_106_40371)"/>
<path d="M135.745 94.4998L134.646 94.634C134.639 94.5828 134.635 94.5318 134.633 94.4815L135.732 94.3473C135.734 94.3976 135.738 94.4486 135.745 94.4998Z" fill="url(#paint81_linear_106_40371)"/>
<path d="M135.732 94.3472L134.633 94.4814C134.629 94.394 134.632 94.3064 134.642 94.2194L135.741 94.0852C135.731 94.1722 135.728 94.2598 135.732 94.3472Z" fill="url(#paint82_linear_106_40371)"/>
<path d="M135.741 94.0852L134.642 94.2194C134.649 94.1592 134.659 94.0995 134.674 94.0407L135.773 93.9065C135.758 93.9653 135.748 94.025 135.741 94.0852Z" fill="url(#paint83_linear_106_40371)"/>
<path d="M135.773 93.9066L134.674 94.0408C134.691 93.9706 134.716 93.9026 134.748 93.8379L135.847 93.7037C135.815 93.7684 135.79 93.8364 135.773 93.9066Z" fill="url(#paint84_linear_106_40371)"/>
<path d="M135.846 93.7037L134.747 93.8379C134.763 93.8049 134.782 93.7734 134.804 93.7437L135.903 93.6095C135.881 93.6393 135.862 93.6707 135.846 93.7037Z" fill="url(#paint85_linear_106_40371)"/>
<path d="M135.903 93.6096L134.804 93.7438C134.821 93.7209 134.839 93.6995 134.859 93.6797L135.958 93.5455C135.938 93.5653 135.92 93.5867 135.903 93.6096Z" fill="url(#paint86_linear_106_40371)"/>
<path d="M135.958 93.5454L134.859 93.6796C134.877 93.6624 134.896 93.6469 134.917 93.6332L136.016 93.499C135.995 93.5127 135.976 93.5282 135.958 93.5454Z" fill="url(#paint87_linear_106_40371)"/>
<path d="M136.016 93.499L134.917 93.6332C134.919 93.6319 134.921 93.6305 134.923 93.6292L136.022 93.495C136.02 93.4963 136.018 93.4977 136.016 93.499Z" fill="url(#paint88_linear_106_40371)"/>
</g>
<path d="M135.927 105.627L134.828 105.761C134.597 105.789 134.351 105.52 134.239 105.085L135.338 104.95C135.45 105.385 135.696 105.655 135.927 105.627Z" fill="url(#paint89_linear_106_40371)"/>
<mask id="mask21_106_40371" style="mask-type:luminance" maskUnits="userSpaceOnUse" x="134" y="104" width="2" height="2">
<path fill-rule="evenodd" clip-rule="evenodd" d="M135.927 105.627L134.828 105.761C134.597 105.789 134.351 105.52 134.239 105.085L135.338 104.95C135.45 105.385 135.696 105.655 135.927 105.627Z" fill="white"/>
</mask>
<g mask="url(#mask21_106_40371)">
<path d="M135.927 105.627L134.828 105.761C134.673 105.78 134.511 105.665 134.388 105.456L135.487 105.322C135.61 105.531 135.772 105.646 135.927 105.627" fill="url(#paint90_linear_106_40371)"/>
<path d="M135.487 105.322L134.388 105.456C134.365 105.417 134.343 105.376 134.325 105.334L135.424 105.2C135.443 105.242 135.464 105.283 135.487 105.322" fill="url(#paint91_linear_106_40371)"/>
<path d="M135.424 105.2L134.325 105.334C134.309 105.298 134.294 105.26 134.28 105.221L135.379 105.087C135.393 105.126 135.408 105.164 135.424 105.2Z" fill="url(#paint92_linear_106_40371)"/>
<path d="M135.378 105.087L134.279 105.221C134.267 105.185 134.255 105.147 134.244 105.108L135.343 104.973C135.354 105.013 135.366 105.05 135.378 105.087Z" fill="url(#paint93_linear_106_40371)"/>
<path d="M135.344 104.973L134.245 105.107C134.243 105.1 134.241 105.092 134.239 105.085L135.338 104.95C135.34 104.958 135.342 104.966 135.344 104.973Z" fill="url(#paint94_linear_106_40371)"/>
</g>
<path d="M134.712 100.374L133.613 100.508L135.787 99.1359L136.886 99.0017L134.712 100.374Z" fill="url(#paint95_linear_106_40371)"/>
<path d="M135.337 104.951L134.238 105.085L133.378 101.737L134.477 101.603L135.337 104.951Z" fill="url(#paint96_linear_106_40371)"/>
<path d="M134.478 101.603L133.379 101.737C133.247 101.224 133.352 100.673 133.613 100.508L134.712 100.374C134.451 100.539 134.346 101.089 134.478 101.603Z" fill="url(#paint97_linear_106_40371)"/>
<mask id="mask22_106_40371" style="mask-type:luminance" maskUnits="userSpaceOnUse" x="133" y="100" width="2" height="2">
<path fill-rule="evenodd" clip-rule="evenodd" d="M134.478 101.603L133.379 101.737C133.247 101.224 133.352 100.673 133.613 100.508L134.712 100.374C134.451 100.539 134.346 101.089 134.478 101.603Z" fill="white"/>
</mask>
<g mask="url(#mask22_106_40371)">
<path d="M134.478 101.603L133.378 101.737C133.37 101.705 133.363 101.673 133.357 101.641L134.456 101.507C134.462 101.539 134.469 101.571 134.478 101.603Z" fill="url(#paint98_linear_106_40371)"/>
<path d="M134.456 101.507L133.356 101.641C133.348 101.598 133.341 101.556 133.336 101.513L134.435 101.379C134.44 101.421 134.447 101.464 134.456 101.507Z" fill="url(#paint99_linear_106_40371)"/>
<path d="M134.435 101.379L133.336 101.513C133.33 101.462 133.325 101.411 133.323 101.36L134.422 101.226C134.424 101.277 134.429 101.327 134.435 101.379Z" fill="url(#paint100_linear_106_40371)"/>
<path d="M134.422 101.226L133.323 101.36C133.319 101.273 133.322 101.185 133.332 101.098L134.431 100.964C134.421 101.051 134.418 101.139 134.422 101.226Z" fill="url(#paint101_linear_106_40371)"/>
<path d="M134.431 100.964L133.332 101.098C133.339 101.038 133.35 100.978 133.364 100.92L134.463 100.785C134.449 100.844 134.438 100.904 134.431 100.964Z" fill="url(#paint102_linear_106_40371)"/>
<path d="M134.463 100.785L133.364 100.92C133.381 100.85 133.406 100.782 133.438 100.717L134.537 100.583C134.505 100.647 134.48 100.715 134.463 100.785Z" fill="url(#paint103_linear_106_40371)"/>
<path d="M134.536 100.583L133.437 100.717C133.454 100.684 133.473 100.652 133.494 100.623L134.593 100.488C134.572 100.518 134.553 100.55 134.536 100.583Z" fill="url(#paint104_linear_106_40371)"/>
<path d="M134.594 100.489L133.495 100.623C133.511 100.6 133.53 100.578 133.55 100.559L134.649 100.424C134.629 100.444 134.61 100.466 134.594 100.489Z" fill="url(#paint105_linear_106_40371)"/>
<path d="M134.649 100.424L133.55 100.559C133.567 100.541 133.586 100.526 133.607 100.512L134.706 100.378C134.686 100.392 134.666 100.407 134.649 100.424Z" fill="url(#paint106_linear_106_40371)"/>
<path d="M134.706 100.378L133.607 100.512C133.609 100.511 133.611 100.509 133.613 100.508L134.712 100.374C134.71 100.375 134.708 100.377 134.706 100.378Z" fill="url(#paint107_linear_106_40371)"/>
</g>
<path d="M137.724 92.4212C137.985 92.2561 138.303 92.5395 138.435 93.0528L139.534 97.3307L141.709 95.9581C141.97 95.793 142.289 96.0764 142.42 96.5897L143.28 99.9375C143.412 100.451 143.308 101.001 143.046 101.166L140.872 102.539L141.97 106.816C142.102 107.33 141.998 107.88 141.737 108.045L140.035 109.119C139.774 109.284 139.455 109.001 139.323 108.488L138.224 104.21L136.05 105.582C135.789 105.747 135.47 105.464 135.338 104.951L134.478 101.603C134.346 101.089 134.451 100.539 134.713 100.374L136.887 99.0017L135.788 94.7239C135.656 94.2105 135.761 93.6601 136.022 93.495L137.724 92.4212Z" fill="url(#paint108_linear_106_40371)"/>
</g>
<rect x="2" y="2" width="204" height="134" rx="10" stroke="#51C1FF" stroke-opacity="0.07" stroke-width="4"/>
<defs>
<linearGradient id="paint0_linear_106_40371" x1="-6.95392" y1="8.31244" x2="4.45979" y2="10.4485" gradientUnits="userSpaceOnUse">
<stop stop-color="#00A6F0"/>
<stop offset="1" stop-color="#006FF1"/>
</linearGradient>
<linearGradient id="paint1_linear_106_40371" x1="-6.95392" y1="8.31244" x2="4.45979" y2="10.4485" gradientUnits="userSpaceOnUse">
<stop stop-color="#00A6F0"/>
<stop offset="1" stop-color="#006FF1"/>
</linearGradient>
<linearGradient id="paint2_linear_106_40371" x1="57.5121" y1="-36.9724" x2="16.8074" y2="-20.1655" gradientUnits="userSpaceOnUse">
<stop stop-color="#017BFF"/>
<stop offset="1" stop-color="#018BF1"/>
</linearGradient>
<linearGradient id="paint3_linear_106_40371" x1="105.961" y1="78.9638" x2="128.923" y2="70.2646" gradientUnits="userSpaceOnUse">
<stop offset="0.1023" stop-color="white"/>
<stop offset="0.8855" stop-color="#E3EBFD"/>
</linearGradient>
<linearGradient id="paint4_linear_106_40371" x1="111.512" y1="80.1301" x2="128.839" y2="66.9536" gradientUnits="userSpaceOnUse">
<stop offset="0.1023" stop-color="white"/>
<stop offset="0.8855" stop-color="#CDDEFD"/>
</linearGradient>
<linearGradient id="paint5_linear_106_40371" x1="137.299" y1="22.0521" x2="147.887" y2="26.5915" gradientUnits="userSpaceOnUse">
<stop offset="0.1023" stop-color="#FCADBA"/>
<stop offset="0.8855" stop-color="#FBDAD9"/>
</linearGradient>
<linearGradient id="paint6_linear_106_40371" x1="140.176" y1="33.0488" x2="141.346" y2="39.6452" gradientUnits="userSpaceOnUse">
<stop offset="0.1011" stop-color="#FF7638"/>
<stop offset="0.8855" stop-color="#FF3929"/>
</linearGradient>
<linearGradient id="paint7_linear_106_40371" x1="140.541" y1="35.929" x2="134.087" y2="35.929" gradientUnits="userSpaceOnUse">
<stop offset="0.1011" stop-color="#FECE63"/>
<stop offset="1" stop-color="#F55850"/>
</linearGradient>
<linearGradient id="paint8_linear_106_40371" x1="144.242" y1="34.9927" x2="137.644" y2="36.4466" gradientUnits="userSpaceOnUse">
<stop offset="0.1023" stop-color="#FCADBA"/>
<stop offset="0.8855" stop-color="#FBDAD9"/>
</linearGradient>
<linearGradient id="paint9_linear_106_40371" x1="139.347" y1="22.7214" x2="149.334" y2="30.109" gradientUnits="userSpaceOnUse">
<stop offset="0.1023" stop-color="#FCADBA"/>
<stop offset="0.8855" stop-color="#FBDAD9"/>
</linearGradient>
<linearGradient id="paint10_linear_106_40371" x1="147.682" y1="28.6711" x2="133.889" y2="28.6711" gradientUnits="userSpaceOnUse">
<stop offset="0.1011" stop-color="#FECE63"/>
<stop offset="1" stop-color="#F55850"/>
</linearGradient>
<linearGradient id="paint11_linear_106_40371" x1="-2.43695" y1="6.18419" x2="-2.92965" y2="8.71554" gradientUnits="userSpaceOnUse">
<stop offset="0.1011" stop-color="#FECE63"/>
<stop offset="1" stop-color="#F55850"/>
</linearGradient>
<linearGradient id="paint12_linear_106_40371" x1="2.44883" y1="-4.74689" x2="1.97883" y2="0.895811" gradientUnits="userSpaceOnUse">
<stop offset="0.1011" stop-color="#FECE63"/>
<stop offset="1" stop-color="#F55850"/>
</linearGradient>
<linearGradient id="paint13_linear_106_40371" x1="108.359" y1="77.75" x2="130.278" y2="71.1292" gradientUnits="userSpaceOnUse">
<stop offset="0.1023" stop-color="white"/>
<stop offset="0.8855" stop-color="#E3EBFD"/>
</linearGradient>
<linearGradient id="paint14_linear_106_40371" x1="109.457" y1="128.963" x2="99.6631" y2="128.963" gradientUnits="userSpaceOnUse">
<stop offset="0.1023" stop-color="#FCADBA"/>
<stop offset="0.8855" stop-color="#FBDAD9"/>
</linearGradient>
<linearGradient id="paint15_linear_106_40371" x1="105.09" y1="123.609" x2="95.7067" y2="123.609" gradientUnits="userSpaceOnUse">
<stop offset="0.1011" stop-color="#FF7638"/>
<stop offset="0.8855" stop-color="#FF3929"/>
</linearGradient>
<linearGradient id="paint16_linear_106_40371" x1="125.545" y1="128.188" x2="118.507" y2="128.188" gradientUnits="userSpaceOnUse">
<stop offset="0.1023" stop-color="#FCADBA"/>
<stop offset="0.8855" stop-color="#FBDAD9"/>
</linearGradient>
<linearGradient id="paint17_linear_106_40371" x1="121.053" y1="123.968" x2="110.585" y2="123.968" gradientUnits="userSpaceOnUse">
<stop offset="0.1011" stop-color="#FF7638"/>
<stop offset="0.8855" stop-color="#FF3929"/>
</linearGradient>
<linearGradient id="paint18_linear_106_40371" x1="119.786" y1="111.701" x2="102.476" y2="115.441" gradientUnits="userSpaceOnUse">
<stop stop-color="#3BB9D3"/>
<stop offset="1" stop-color="#46FFD6"/>
</linearGradient>
<linearGradient id="paint19_linear_106_40371" x1="130.581" y1="107.083" x2="130.447" y2="114.487" gradientUnits="userSpaceOnUse">
<stop stop-color="#3BB9D3"/>
<stop offset="1" stop-color="#46FFD6"/>
</linearGradient>
<linearGradient id="paint20_linear_106_40371" x1="115.337" y1="100.836" x2="90.5959" y2="117.888" gradientUnits="userSpaceOnUse">
<stop stop-color="#3BB9D3"/>
<stop offset="1" stop-color="#46FFD6"/>
</linearGradient>
<linearGradient id="paint21_linear_106_40371" x1="94.5641" y1="125.597" x2="99.9825" y2="111.809" gradientUnits="userSpaceOnUse">
<stop offset="0.0048" stop-color="#9F5BFF"/>
<stop offset="0.9986" stop-color="#7418FF"/>
</linearGradient>
<linearGradient id="paint22_linear_106_40371" x1="109.46" y1="109.055" x2="109.07" y2="114.902" gradientUnits="userSpaceOnUse">
<stop stop-color="#3BB9D3"/>
<stop offset="1" stop-color="#46FFD6"/>
</linearGradient>
<linearGradient id="paint23_linear_106_40371" x1="103.994" y1="67.5097" x2="98.8639" y2="71.9765" gradientUnits="userSpaceOnUse">
<stop offset="0.0035" stop-color="#4B8CFF"/>
<stop offset="1" stop-color="#00BEE1"/>
</linearGradient>
<linearGradient id="paint24_linear_106_40371" x1="130.964" y1="133.005" x2="110.837" y2="133.005" gradientUnits="userSpaceOnUse">
<stop offset="0.1023" stop-color="#915758"/>
<stop offset="0.8855" stop-color="#2C090B"/>
</linearGradient>
<linearGradient id="paint25_linear_106_40371" x1="105.816" y1="132.574" x2="86.5041" y2="132.574" gradientUnits="userSpaceOnUse">
<stop offset="0.1023" stop-color="#915758"/>
<stop offset="0.8855" stop-color="#2C090B"/>
</linearGradient>
<linearGradient id="paint26_linear_106_40371" x1="113.386" y1="31.1473" x2="122.093" y2="27.9683" gradientUnits="userSpaceOnUse">
<stop offset="0.1023" stop-color="#FCADBA"/>
<stop offset="0.8855" stop-color="#FBDAD9"/>
</linearGradient>
<linearGradient id="paint27_linear_106_40371" x1="133.118" y1="26.6895" x2="125.059" y2="32.5627" gradientUnits="userSpaceOnUse">
<stop offset="0.1011" stop-color="#FF7638"/>
<stop offset="0.8855" stop-color="#FF3929"/>
</linearGradient>
<linearGradient id="paint28_linear_106_40371" x1="135.552" y1="22.4371" x2="124.647" y2="35.9051" gradientUnits="userSpaceOnUse">
<stop offset="0.1023" stop-color="#FCADBA"/>
<stop offset="0.8855" stop-color="#FBDAD9"/>
</linearGradient>
<linearGradient id="paint29_linear_106_40371" x1="141.674" y1="18.1388" x2="140.373" y2="29.0424" gradientUnits="userSpaceOnUse">
<stop offset="0.1011" stop-color="#FF7638"/>
<stop offset="0.8855" stop-color="#FF3929"/>
</linearGradient>
<linearGradient id="paint30_linear_106_40371" x1="130.67" y1="28.4828" x2="117.778" y2="28.4828" gradientUnits="userSpaceOnUse">
<stop offset="0.1023" stop-color="#915758"/>
<stop offset="0.8855" stop-color="#2C090B"/>
</linearGradient>
<linearGradient id="paint31_linear_106_40371" x1="100.774" y1="80.7161" x2="126.279" y2="74.611" gradientUnits="userSpaceOnUse">
<stop offset="0.1023" stop-color="white"/>
<stop offset="0.8855" stop-color="#E3EBFD"/>
</linearGradient>
<linearGradient id="paint32_linear_106_40371" x1="119.974" y1="81.754" x2="119.934" y2="67.5253" gradientUnits="userSpaceOnUse">
<stop offset="0.1023" stop-color="white"/>
<stop offset="0.8855" stop-color="#E3EBFD"/>
</linearGradient>
<linearGradient id="paint33_linear_106_40371" x1="87.6407" y1="83.8854" x2="113.99" y2="80.5677" gradientUnits="userSpaceOnUse">
<stop offset="0.1023" stop-color="white"/>
<stop offset="0.8855" stop-color="#CDDEFD"/>
</linearGradient>
<linearGradient id="paint34_linear_106_40371" x1="87.826" y1="75.3892" x2="129.049" y2="59.8074" gradientUnits="userSpaceOnUse">
<stop offset="0.1023" stop-color="white"/>
<stop offset="0.8855" stop-color="#E3EBFD"/>
</linearGradient>
<linearGradient id="paint35_linear_106_40371" x1="96.2277" y1="85.558" x2="86.7222" y2="58.0393" gradientUnits="userSpaceOnUse">
<stop offset="0.1023" stop-color="white"/>
<stop offset="0.8855" stop-color="#CDDEFD"/>
</linearGradient>
<linearGradient id="paint36_linear_106_40371" x1="91.6879" y1="73.0226" x2="84.1618" y2="63.8734" gradientUnits="userSpaceOnUse">
<stop offset="0.1023" stop-color="#FCADBA"/>
<stop offset="0.8855" stop-color="#FBDAD9"/>
</linearGradient>
<linearGradient id="paint37_linear_106_40371" x1="100.401" y1="67.8348" x2="90.0452" y2="67.8348" gradientUnits="userSpaceOnUse">
<stop offset="0.1011" stop-color="#FF7638"/>
<stop offset="0.8855" stop-color="#FF3929"/>
</linearGradient>
<linearGradient id="paint38_linear_106_40371" x1="60.7498" y1="87.8468" x2="104.347" y2="31.1273" gradientUnits="userSpaceOnUse">
<stop offset="0.1023" stop-color="white"/>
<stop offset="0.8855" stop-color="#E3EBFD"/>
</linearGradient>
<linearGradient id="paint39_linear_106_40371" x1="125.376" y1="45.4649" x2="115.839" y2="45.6081" gradientUnits="userSpaceOnUse">
<stop offset="0.0083" stop-color="#00CAFE"/>
<stop offset="1" stop-color="#0088FA"/>
</linearGradient>
<linearGradient id="paint40_linear_106_40371" x1="117.606" y1="44.4494" x2="122.911" y2="42.5232" gradientUnits="userSpaceOnUse">
<stop offset="0.1011" stop-color="#FFCC02"/>
<stop offset="1" stop-color="#FFE484"/>
</linearGradient>
<linearGradient id="paint41_linear_106_40371" x1="117.157" y1="37.652" x2="117.199" y2="34.4642" gradientUnits="userSpaceOnUse">
<stop offset="0.1011" stop-color="#FFCC02"/>
<stop offset="1" stop-color="#FFE484"/>
</linearGradient>
<linearGradient id="paint42_linear_106_40371" x1="125.321" y1="38.0578" x2="120.801" y2="38.1093" gradientUnits="userSpaceOnUse">
<stop offset="0.0083" stop-color="#00CAFE"/>
<stop offset="1" stop-color="#0088FA"/>
</linearGradient>
<linearGradient id="paint43_linear_106_40371" x1="120.806" y1="37.5356" x2="115.79" y2="37.599" gradientUnits="userSpaceOnUse">
<stop offset="0.0083" stop-color="#00CAFE"/>
<stop offset="1" stop-color="#0088FA"/>
</linearGradient>
<linearGradient id="paint44_linear_106_40371" x1="132.235" y1="21.425" x2="122.851" y2="31.6983" gradientUnits="userSpaceOnUse">
<stop offset="0.1023" stop-color="#FCADBA"/>
<stop offset="0.8855" stop-color="#FBDAD9"/>
</linearGradient>
<linearGradient id="paint45_linear_106_40371" x1="113.271" y1="50.6943" x2="115.996" y2="48.8592" gradientUnits="userSpaceOnUse">
<stop offset="0.1023" stop-color="#915758"/>
<stop offset="0.8855" stop-color="#2C090B"/>
</linearGradient>
<linearGradient id="paint46_linear_106_40371" x1="112.068" y1="49.8741" x2="115.209" y2="48.5065" gradientUnits="userSpaceOnUse">
<stop offset="0.0083" stop-color="#00CAFE"/>
<stop offset="1" stop-color="#0088FA"/>
</linearGradient>
<linearGradient id="paint47_linear_106_40371" x1="113.855" y1="65.3992" x2="113.939" y2="67.4886" gradientUnits="userSpaceOnUse">
<stop offset="0.1023" stop-color="#DCDCF8"/>
<stop offset="0.8855" stop-color="#F5F6FE"/>
</linearGradient>
<linearGradient id="paint48_linear_106_40371" x1="110.151" y1="59.0177" x2="109.537" y2="57.6913" gradientUnits="userSpaceOnUse">
<stop offset="0.1023" stop-color="#915A57"/>
<stop offset="0.8855" stop-color="#2C0B09"/>
</linearGradient>
<linearGradient id="paint49_linear_106_40371" x1="101.157" y1="77.5763" x2="100.843" y2="70.4838" gradientUnits="userSpaceOnUse">
<stop offset="0.0083" stop-color="#009EFE"/>
<stop offset="1" stop-color="#005DFA"/>
</linearGradient>
<linearGradient id="paint50_linear_106_40371" x1="115.388" y1="60.0336" x2="116.917" y2="60.3518" gradientUnits="userSpaceOnUse">
<stop offset="0.1023" stop-color="#915A57"/>
<stop offset="0.8855" stop-color="#2C0B09"/>
</linearGradient>
<linearGradient id="paint51_linear_106_40371" x1="113.231" y1="72.7448" x2="105.197" y2="72.7448" gradientUnits="userSpaceOnUse">
<stop offset="0.0083" stop-color="#00CAFE"/>
<stop offset="1" stop-color="#0088FA"/>
</linearGradient>
<linearGradient id="paint52_linear_106_40371" x1="97.8078" y1="79.7242" x2="99.2408" y2="66.2562" gradientUnits="userSpaceOnUse">
<stop offset="0.1023" stop-color="white"/>
<stop offset="0.8855" stop-color="#E3EBFD"/>
</linearGradient>
<linearGradient id="paint53_linear_106_40371" x1="138.469" y1="78.6589" x2="142.409" y2="78.6589" gradientUnits="userSpaceOnUse">
<stop offset="0.1011" stop-color="#FFDF94"/>
<stop offset="1" stop-color="#FFA200"/>
</linearGradient>
<linearGradient id="paint54_linear_106_40371" x1="109.582" y1="79.2909" x2="107.154" y2="79.2909" gradientUnits="userSpaceOnUse">
<stop offset="0.1011" stop-color="#FFDF94"/>
<stop offset="1" stop-color="#FFA200"/>
</linearGradient>
<linearGradient id="paint55_linear_106_40371" x1="129.89" y1="93.2067" x2="118.077" y2="93.2067" gradientUnits="userSpaceOnUse">
<stop offset="0.0083" stop-color="#00CAFE"/>
<stop offset="1" stop-color="#0088FA"/>
</linearGradient>
<linearGradient id="paint56_linear_106_40371" x1="113.32" y1="75.0424" x2="142.855" y2="84.3599" gradientUnits="userSpaceOnUse">
<stop offset="0.0083" stop-color="#00CAFE"/>
<stop offset="1" stop-color="#0088FA"/>
</linearGradient>
<linearGradient id="paint57_linear_106_40371" x1="158.08" y1="117.594" x2="125.777" y2="140.002" gradientUnits="userSpaceOnUse">
<stop offset="0.0083" stop-color="#00CAFE"/>
<stop offset="1" stop-color="#0088FA"/>
</linearGradient>
<linearGradient id="paint58_linear_106_40371" x1="114.157" y1="144.555" x2="124.839" y2="72.7615" gradientUnits="userSpaceOnUse">
<stop offset="0.1023" stop-color="#DCDFF8"/>
<stop offset="0.8855" stop-color="#F5F7FE"/>
</linearGradient>
<linearGradient id="paint59_linear_106_40371" x1="127.231" y1="90.2818" x2="143.426" y2="123.898" gradientUnits="userSpaceOnUse">
<stop offset="0.1023" stop-color="#DCDFF8"/>
<stop offset="0.8855" stop-color="#F5F7FE"/>
</linearGradient>
<linearGradient id="paint60_linear_106_40371" x1="111.831" y1="55.7188" x2="146.793" y2="79.0946" gradientUnits="userSpaceOnUse">
<stop offset="0.0083" stop-color="#00CAFE"/>
<stop offset="1" stop-color="#0088FA"/>
</linearGradient>
<linearGradient id="paint61_linear_106_40371" x1="134.483" y1="99.0602" x2="123.606" y2="101.795" gradientUnits="userSpaceOnUse">
<stop offset="0.0083" stop-color="#00CAFE"/>
<stop offset="1" stop-color="#0088FA"/>
</linearGradient>
<linearGradient id="paint62_linear_106_40371" x1="95.8096" y1="103.743" x2="95.9683" y2="91.8296" gradientUnits="userSpaceOnUse">
<stop offset="0.1114" stop-color="#B7DBFB"/>
<stop offset="0.8855" stop-color="#D6E8FA"/>
</linearGradient>
<linearGradient id="paint63_linear_106_40371" x1="70.0725" y1="104.781" x2="69.9269" y2="92.8752" gradientUnits="userSpaceOnUse">
<stop offset="0.1114" stop-color="#B7DBFB"/>
<stop offset="0.8855" stop-color="#D6E8FA"/>
</linearGradient>
<linearGradient id="paint64_linear_106_40371" x1="66.4944" y1="104.762" x2="66.3707" y2="92.8697" gradientUnits="userSpaceOnUse">
<stop offset="0.1114" stop-color="#B7DBFB"/>
<stop offset="0.8855" stop-color="#D6E8FA"/>
</linearGradient>
<linearGradient id="paint65_linear_106_40371" x1="99.7707" y1="105.641" x2="98.1228" y2="93.0796" gradientUnits="userSpaceOnUse">
<stop offset="0.1114" stop-color="#B7DBFB"/>
<stop offset="0.8855" stop-color="#D6E8FA"/>
</linearGradient>
<linearGradient id="paint66_linear_106_40371" x1="76.2521" y1="102.012" x2="76.0934" y2="90.0984" gradientUnits="userSpaceOnUse">
<stop offset="0.1114" stop-color="#B7DBFB"/>
<stop offset="0.8855" stop-color="#D6E8FA"/>
</linearGradient>
<linearGradient id="paint67_linear_106_40371" x1="74.5123" y1="101.976" x2="74.3667" y2="90.0706" gradientUnits="userSpaceOnUse">
<stop offset="0.1114" stop-color="#B7DBFB"/>
<stop offset="0.8855" stop-color="#D6E8FA"/>
</linearGradient>
<linearGradient id="paint68_linear_106_40371" x1="70.9313" y1="101.958" x2="70.8076" y2="90.0652" gradientUnits="userSpaceOnUse">
<stop offset="0.1114" stop-color="#B7DBFB"/>
<stop offset="0.8855" stop-color="#D6E8FA"/>
</linearGradient>
<linearGradient id="paint69_linear_106_40371" x1="95.6295" y1="108.688" x2="93.8215" y2="96.0798" gradientUnits="userSpaceOnUse">
<stop offset="0.1114" stop-color="#B7DBFB"/>
<stop offset="0.8855" stop-color="#D6E8FA"/>
</linearGradient>
<linearGradient id="paint70_linear_106_40371" x1="87.1427" y1="108.061" x2="86.525" y2="95.903" gradientUnits="userSpaceOnUse">
<stop offset="0.1114" stop-color="#B7DBFB"/>
<stop offset="0.8855" stop-color="#D6E8FA"/>
</linearGradient>
<linearGradient id="paint71_linear_106_40371" x1="81.2753" y1="107.646" x2="80.9125" y2="95.6188" gradientUnits="userSpaceOnUse">
<stop offset="0.1114" stop-color="#B7DBFB"/>
<stop offset="0.8855" stop-color="#D6E8FA"/>
</linearGradient>
<linearGradient id="paint72_linear_106_40371" x1="80.8146" y1="107.572" x2="80.4666" y2="95.5533" gradientUnits="userSpaceOnUse">
<stop offset="0.1114" stop-color="#B7DBFB"/>
<stop offset="0.8855" stop-color="#D6E8FA"/>
</linearGradient>
<linearGradient id="paint73_linear_106_40371" x1="81.1362" y1="107.53" x2="80.7818" y2="95.5065" gradientUnits="userSpaceOnUse">
<stop offset="0.1114" stop-color="#B7DBFB"/>
<stop offset="0.8855" stop-color="#D6E8FA"/>
</linearGradient>
<linearGradient id="paint74_linear_106_40371" x1="66.6842" y1="107.223" x2="66.5353" y2="95.3152" gradientUnits="userSpaceOnUse">
<stop offset="0.1114" stop-color="#B7DBFB"/>
<stop offset="0.8855" stop-color="#D6E8FA"/>
</linearGradient>
<linearGradient id="paint75_linear_106_40371" x1="106.675" y1="113.193" x2="96.2884" y2="109.031" gradientUnits="userSpaceOnUse">
<stop offset="0.1114" stop-color="#B7DBFB"/>
<stop offset="0.8855" stop-color="#D6E8FA"/>
</linearGradient>
<linearGradient id="paint76_linear_106_40371" x1="103.246" y1="102.797" x2="101.806" y2="90.3013" gradientUnits="userSpaceOnUse">
<stop offset="0.1114" stop-color="#B7DBFB"/>
<stop offset="0.8855" stop-color="#D6E8FA"/>
</linearGradient>
<linearGradient id="paint77_linear_106_40371" x1="112.647" y1="109.419" x2="102.261" y2="105.257" gradientUnits="userSpaceOnUse">
<stop offset="0.1114" stop-color="#B7DBFB"/>
<stop offset="0.8855" stop-color="#D6E8FA"/>
</linearGradient>
<linearGradient id="paint78_linear_106_40371" x1="111.117" y1="104.678" x2="104.01" y2="92.7338" gradientUnits="userSpaceOnUse">
<stop offset="0.1114" stop-color="#B7DBFB"/>
<stop offset="0.8855" stop-color="#D6E8FA"/>
</linearGradient>
<linearGradient id="paint79_linear_106_40371" x1="88.214" y1="101.955" x2="87.9001" y2="89.9543" gradientUnits="userSpaceOnUse">
<stop offset="0.1114" stop-color="#B7DBFB"/>
<stop offset="0.8855" stop-color="#D6E8FA"/>
</linearGradient>
<linearGradient id="paint80_linear_106_40371" x1="91.791" y1="102.019" x2="91.382" y2="89.9665" gradientUnits="userSpaceOnUse">
<stop offset="0.1114" stop-color="#B7DBFB"/>
<stop offset="0.8855" stop-color="#D6E8FA"/>
</linearGradient>
<linearGradient id="paint81_linear_106_40371" x1="94.1926" y1="102.059" x2="93.6944" y2="89.9601" gradientUnits="userSpaceOnUse">
<stop offset="0.1114" stop-color="#B7DBFB"/>
<stop offset="0.8855" stop-color="#D6E8FA"/>
</linearGradient>
<linearGradient id="paint82_linear_106_40371" x1="100.651" y1="102.362" x2="99.6786" y2="90.0436" gradientUnits="userSpaceOnUse">
<stop offset="0.1114" stop-color="#B7DBFB"/>
<stop offset="0.8855" stop-color="#D6E8FA"/>
</linearGradient>
<linearGradient id="paint83_linear_106_40371" x1="95.9216" y1="102.015" x2="95.3466" y2="89.8781" gradientUnits="userSpaceOnUse">
<stop offset="0.1114" stop-color="#B7DBFB"/>
<stop offset="0.8855" stop-color="#D6E8FA"/>
</linearGradient>
<linearGradient id="paint84_linear_106_40371" x1="96.7748" y1="102.026" x2="96.1526" y2="89.865" gradientUnits="userSpaceOnUse">
<stop offset="0.1114" stop-color="#B7DBFB"/>
<stop offset="0.8855" stop-color="#D6E8FA"/>
</linearGradient>
<linearGradient id="paint85_linear_106_40371" x1="87.4417" y1="101.684" x2="87.1519" y2="89.6961" gradientUnits="userSpaceOnUse">
<stop offset="0.1114" stop-color="#B7DBFB"/>
<stop offset="0.8855" stop-color="#D6E8FA"/>
</linearGradient>
<linearGradient id="paint86_linear_106_40371" x1="82.9459" y1="101.593" x2="82.7276" y2="89.6457" gradientUnits="userSpaceOnUse">
<stop offset="0.1114" stop-color="#B7DBFB"/>
<stop offset="0.8855" stop-color="#D6E8FA"/>
</linearGradient>
<linearGradient id="paint87_linear_106_40371" x1="79.4988" y1="101.546" x2="79.3187" y2="89.6205" gradientUnits="userSpaceOnUse">
<stop offset="0.1114" stop-color="#B7DBFB"/>
<stop offset="0.8855" stop-color="#D6E8FA"/>
</linearGradient>
<linearGradient id="paint88_linear_106_40371" x1="70.0696" y1="101.44" x2="69.9545" y2="89.5519" gradientUnits="userSpaceOnUse">
<stop offset="0.1114" stop-color="#B7DBFB"/>
<stop offset="0.8855" stop-color="#D6E8FA"/>
</linearGradient>
<linearGradient id="paint89_linear_106_40371" x1="100.068" y1="105.883" x2="98.26" y2="93.2752" gradientUnits="userSpaceOnUse">
<stop offset="0.1114" stop-color="#B7DBFB"/>
<stop offset="0.8855" stop-color="#D6E8FA"/>
</linearGradient>
<linearGradient id="paint90_linear_106_40371" x1="91.5813" y1="105.257" x2="90.9636" y2="93.0984" gradientUnits="userSpaceOnUse">
<stop offset="0.1114" stop-color="#B7DBFB"/>
<stop offset="0.8855" stop-color="#D6E8FA"/>
</linearGradient>
<linearGradient id="paint91_linear_106_40371" x1="85.7141" y1="104.842" x2="85.3513" y2="92.8141" gradientUnits="userSpaceOnUse">
<stop offset="0.1114" stop-color="#B7DBFB"/>
<stop offset="0.8855" stop-color="#D6E8FA"/>
</linearGradient>
<linearGradient id="paint92_linear_106_40371" x1="85.253" y1="104.768" x2="84.9049" y2="92.7486" gradientUnits="userSpaceOnUse">
<stop offset="0.1114" stop-color="#B7DBFB"/>
<stop offset="0.8855" stop-color="#D6E8FA"/>
</linearGradient>
<linearGradient id="paint93_linear_106_40371" x1="85.5742" y1="104.725" x2="85.2198" y2="92.7018" gradientUnits="userSpaceOnUse">
<stop offset="0.1114" stop-color="#B7DBFB"/>
<stop offset="0.8855" stop-color="#D6E8FA"/>
</linearGradient>
<linearGradient id="paint94_linear_106_40371" x1="71.1227" y1="104.418" x2="70.9737" y2="92.5105" gradientUnits="userSpaceOnUse">
<stop offset="0.1114" stop-color="#B7DBFB"/>
<stop offset="0.8855" stop-color="#D6E8FA"/>
</linearGradient>
<linearGradient id="paint95_linear_106_40371" x1="101.881" y1="104.307" x2="100.233" y2="91.7456" gradientUnits="userSpaceOnUse">
<stop offset="0.1114" stop-color="#B7DBFB"/>
<stop offset="0.8855" stop-color="#D6E8FA"/>
</linearGradient>
<linearGradient id="paint96_linear_106_40371" x1="110.439" y1="109.732" x2="99.8472" y2="104.318" gradientUnits="userSpaceOnUse">
<stop offset="0.1114" stop-color="#B7DBFB"/>
<stop offset="0.8855" stop-color="#D6E8FA"/>
</linearGradient>
<linearGradient id="paint97_linear_106_40371" x1="108.996" y1="106.017" x2="101.89" y2="94.0735" gradientUnits="userSpaceOnUse">
<stop offset="0.1114" stop-color="#B7DBFB"/>
<stop offset="0.8855" stop-color="#D6E8FA"/>
</linearGradient>
<linearGradient id="paint98_linear_106_40371" x1="86.0933" y1="103.295" x2="85.7794" y2="91.294" gradientUnits="userSpaceOnUse">
<stop offset="0.1114" stop-color="#B7DBFB"/>
<stop offset="0.8855" stop-color="#D6E8FA"/>
</linearGradient>
<linearGradient id="paint99_linear_106_40371" x1="89.6703" y1="103.358" x2="89.2613" y2="91.3062" gradientUnits="userSpaceOnUse">
<stop offset="0.1114" stop-color="#B7DBFB"/>
<stop offset="0.8855" stop-color="#D6E8FA"/>
</linearGradient>
<linearGradient id="paint100_linear_106_40371" x1="92.0721" y1="103.398" x2="91.5739" y2="91.2998" gradientUnits="userSpaceOnUse">
<stop offset="0.1114" stop-color="#B7DBFB"/>
<stop offset="0.8855" stop-color="#D6E8FA"/>
</linearGradient>
<linearGradient id="paint101_linear_106_40371" x1="98.5305" y1="103.702" x2="97.558" y2="91.3835" gradientUnits="userSpaceOnUse">
<stop offset="0.1114" stop-color="#B7DBFB"/>
<stop offset="0.8855" stop-color="#D6E8FA"/>
</linearGradient>
<linearGradient id="paint102_linear_106_40371" x1="93.8027" y1="103.355" x2="93.2277" y2="91.2185" gradientUnits="userSpaceOnUse">
<stop offset="0.1114" stop-color="#B7DBFB"/>
<stop offset="0.8855" stop-color="#D6E8FA"/>
</linearGradient>
<linearGradient id="paint103_linear_106_40371" x1="94.6543" y1="103.365" x2="94.0321" y2="91.2047" gradientUnits="userSpaceOnUse">
<stop offset="0.1114" stop-color="#B7DBFB"/>
<stop offset="0.8855" stop-color="#D6E8FA"/>
</linearGradient>
<linearGradient id="paint104_linear_106_40371" x1="85.3215" y1="103.024" x2="85.0317" y2="91.0358" gradientUnits="userSpaceOnUse">
<stop offset="0.1114" stop-color="#B7DBFB"/>
<stop offset="0.8855" stop-color="#D6E8FA"/>
</linearGradient>
<linearGradient id="paint105_linear_106_40371" x1="80.8256" y1="102.933" x2="80.6073" y2="90.9854" gradientUnits="userSpaceOnUse">
<stop offset="0.1114" stop-color="#B7DBFB"/>
<stop offset="0.8855" stop-color="#D6E8FA"/>
</linearGradient>
<linearGradient id="paint106_linear_106_40371" x1="77.3787" y1="102.886" x2="77.1985" y2="90.9602" gradientUnits="userSpaceOnUse">
<stop offset="0.1114" stop-color="#B7DBFB"/>
<stop offset="0.8855" stop-color="#D6E8FA"/>
</linearGradient>
<linearGradient id="paint107_linear_106_40371" x1="67.9494" y1="102.779" x2="67.8343" y2="90.8917" gradientUnits="userSpaceOnUse">
<stop offset="0.1114" stop-color="#B7DBFB"/>
<stop offset="0.8855" stop-color="#D6E8FA"/>
</linearGradient>
<linearGradient id="paint108_linear_106_40371" x1="113.093" y1="110.004" x2="111.631" y2="109.193" gradientUnits="userSpaceOnUse">
<stop offset="0.1114" stop-color="#B7DBFB"/>
<stop offset="0.8855" stop-color="#D6E8FA"/>
</linearGradient>
<clipPath id="clip0_106_40371">
<rect x="4" y="4" width="200" height="130" rx="8" fill="white"/>
</clipPath>
</defs>
</svg>
