<svg xmlns="http://www.w3.org/2000/svg" xmlns:xlink="http://www.w3.org/1999/xlink" fill="none" viewBox="0 0 208 138"><g clip-path="url(#a)"><rect width="200" height="130" x="4" y="4" fill="#fff" rx="8"/><rect width="150.836" height="9.982" x="29" y="124.15" fill="url(#b)" rx="2.197"/><path fill="url(#c)" d="m56 121.74-7.858-14.065-.312-.667v-13.92h-6.894v13.92l-.311.667-7.859 14.065c-1.938 3.47.57 7.745 4.545 7.745h14.144c3.975 0 6.484-4.275 4.545-7.745" opacity=".71"/><mask id="d" width="25" height="37" x="32" y="93" maskUnits="userSpaceOnUse" style="mask-type:luminance"><path fill="#fff" fill-rule="evenodd" d="m56 121.74-7.858-14.065-.312-.667v-13.92h-6.894v13.92l-.311.667-7.859 14.065c-1.938 3.47.57 7.745 4.545 7.745h14.144c3.975 0 6.484-4.275 4.545-7.745" clip-rule="evenodd"/></mask><g mask="url(#d)"><path fill="url(#e)" d="M40.936 98.478c.196-4.136.666-3.895 4.292-4.536s-3.771-.641-3.771-.641l-2.555.311" opacity=".47"/></g><path fill="url(#f)" d="M46.072 117.045c-3.42-2.742-6.126-2.712-9.28-1.387l-3.156 5.65c-1.794 3.21.527 7.165 4.205 7.165h13.085c3.678 0 5.999-3.955 4.205-7.165l-2.594-4.643c-1.978 1.37-4 2.357-6.465.38"/><mask id="g" width="23" height="15" x="33" y="114" maskUnits="userSpaceOnUse" style="mask-type:luminance"><path fill="#fff" fill-rule="evenodd" d="M46.072 117.046c-3.42-2.743-6.126-2.712-9.279-1.388l-3.157 5.65c-1.793 3.21.527 7.166 4.205 7.166h13.086c3.677 0 5.998-3.956 4.205-7.166l-2.595-4.643c-1.977 1.371-3.999 2.358-6.465.381" clip-rule="evenodd"/></mask><g mask="url(#g)"><path fill="url(#h)" d="M38.213 114.645c-4.944 12.914 7.55 12.14 15.252 13.113 7.701.973-7.858 2.839-9.081 2.758-1.224-.081-12.903-2.352-13.39-2.434-.486-.081-2.352-7.705-.648-9.651 1.703-1.947 3.244-4.542 3.244-4.542" opacity=".41"/></g><rect width="8.942" height="1.283" x="39.912" y="92.659" fill="url(#i)" rx=".621"/><circle cx="40.485" cy="120.864" r=".341" fill="#fff" opacity=".2"/><circle cx="44.376" cy="120.622" r=".472" fill="#fff" opacity=".2"/><circle cx="41.327" cy="122.814" r=".292" fill="#fff" opacity=".2"/><circle cx="52.265" cy="123.439" r="1.123" fill="#fff" opacity=".2"/><path fill="url(#j)" d="M89.53 36.322a3.1 3.1 0 0 1 1.62 2.808c-.545 18.19-8.909 36.488-25.405 48.239a3.14 3.14 0 0 1-3.642 0C45.584 75.602 37.221 57.27 36.696 39.055a3.1 3.1 0 0 1 1.535-2.759c6.933-4.057 15-8.153 23.692-12.797a4.22 4.22 0 0 1 4 .01c4.837 2.62 17.236 9.338 23.606 12.813"/><path fill="url(#k)" d="M89.53 37.528a3.1 3.1 0 0 1 1.62 2.808c-.545 18.191-8.909 36.489-25.405 48.24a3.135 3.135 0 0 1-3.642 0c-16.519-11.768-24.882-30.1-25.407-48.315a3.1 3.1 0 0 1 1.535-2.76c6.933-4.057 15-8.153 23.692-12.796a4.22 4.22 0 0 1 4 .01c4.837 2.619 17.236 9.338 23.606 12.812"/><mask id="m" width="56" height="66" x="36" y="24" maskUnits="userSpaceOnUse" style="mask-type:luminance"><use xlink:href="#l" fill-rule="evenodd" clip-rule="evenodd"/></mask><g mask="url(#m)"><path fill="url(#n)" d="M70.207 25.83c-4.065.195 19.104 11.249 20.944 14.506 1.84 3.258-1.13-6.64-1.13-6.64l-13.486-6.558"/></g><path fill="url(#o)" d="M89.53 37.528a3.1 3.1 0 0 1 1.62 2.808c-.545 18.191-8.909 36.489-25.405 48.24a3.135 3.135 0 0 1-3.642 0c-16.519-11.768-24.882-30.1-25.407-48.315a3.1 3.1 0 0 1 1.535-2.76c6.933-4.057 15-8.153 23.692-12.796a4.22 4.22 0 0 1 4 .01c4.837 2.619 17.236 9.338 23.606 12.812"/><mask id="p" width="56" height="66" x="36" y="24" maskUnits="userSpaceOnUse" style="mask-type:luminance"><use xlink:href="#l" fill-rule="evenodd" clip-rule="evenodd"/></mask><g mask="url(#p)"><path fill="url(#q)" d="M35.219 30.517C54.335 59.098 88.24 89.159 88.24 89.159s-17.52 3.308-19.376 4.607-15.59.557-16.147.186S33.676 73.76 33.676 73.76z"/></g><path fill="url(#r)" d="M82.97 42.705a2.26 2.26 0 0 1 1.207 2.049c-.407 13.275-6.628 26.627-18.899 35.202a2.37 2.37 0 0 1-2.709 0C50.281 71.369 44.06 57.992 43.67 44.7a2.25 2.25 0 0 1 1.143-2.014c5.157-2.96 11.157-5.95 17.623-9.338a3.2 3.2 0 0 1 2.976.007 9148 9148 0 0 1 17.56 9.35"/><mask id="s" width="42" height="49" x="43" y="32" maskUnits="userSpaceOnUse" style="mask-type:luminance"><path fill="#fff" fill-rule="evenodd" d="M82.97 42.705a2.26 2.26 0 0 1 1.207 2.049c-.407 13.274-6.628 26.627-18.899 35.202a2.37 2.37 0 0 1-2.709 0c-12.288-8.587-18.509-21.964-18.9-35.257-.02-.83.42-1.604 1.143-2.013 5.157-2.96 11.157-5.95 17.623-9.338a3.2 3.2 0 0 1 2.976.007 9208 9208 0 0 1 17.56 9.35" clip-rule="evenodd"/></mask><g mask="url(#s)"><path fill="url(#t)" d="M43.668 56.682C54.388 79.97 68.121 78.486 70.719 77.62c2.599-.866-5.196 7.053-5.196 7.053l-12.09-3.61-9.765-16.31"/><path fill="url(#u)" d="M63.42 31.22c12.249 6.311 22.766 14.23 18.311 28.953-4.454 14.724 6.93-14.97 6.93-14.97l-3.837-3.96"/></g><path fill="url(#v)" d="M73.207 50.918h-5.446V45.47c0-.654-.53-1.184-1.185-1.184h-4.262c-.654 0-1.184.53-1.184 1.184v5.447h-5.447c-.654 0-1.184.53-1.184 1.184v4.262c0 .654.53 1.185 1.184 1.185h5.447v5.446c0 .654.53 1.185 1.184 1.185h4.262c.654 0 1.184-.53 1.185-1.185V57.55h5.446c.654 0 1.184-.53 1.184-1.185v-4.262c0-.654-.53-1.184-1.184-1.184"/><ellipse cx="87.356" cy="68.871" fill="url(#w)" rx="7.891" ry="11.01" transform="rotate(-44.457 87.356 68.871)"/><path fill="url(#x)" d="m127.624 87.819 5.654-17.517c.336-1.04 1.282-1.799 2.374-1.81h.024l13.182-.039s5.748-4.937 5.748-2.201l-4.455 4.473a1.55 1.55 0 0 1-.751.41l-9.833 2.402-3.914 20.345z"/><mask id="y" width="28" height="29" x="127" y="65" maskUnits="userSpaceOnUse" style="mask-type:luminance"><path fill="#fff" fill-rule="evenodd" d="m127.624 87.819 5.654-17.517c.336-1.04 1.282-1.8 2.374-1.81h.024l13.182-.039s5.748-4.937 5.748-2.201l-4.455 4.473a1.55 1.55 0 0 1-.751.41l-9.833 2.402-3.914 20.345z" clip-rule="evenodd"/></mask><g mask="url(#y)"><path fill="url(#z)" d="M128.905 75.203c7.375-1.135 11.649 1.853 11.649 1.853l-1.37 2.598-6.597-1.312" opacity=".34"/></g><path fill="url(#A)" d="M131.386 74.47s8.573 2.547 12.375 5.688l-11.755 35.843c-.857 3.289-4.701 5.327-8.51 4.512-3.84-.821-6.12-4.214-5.026-7.48z"/><path fill="url(#B)" d="m128.905 104.146-21.619-28.375-12.234 10.01 24.281 32.187z"/><mask id="C" width="34" height="43" x="95" y="75" maskUnits="userSpaceOnUse" style="mask-type:luminance"><path fill="#fff" fill-rule="evenodd" d="m128.905 104.146-21.619-28.375-12.234 10.01 24.281 32.187z" clip-rule="evenodd"/></mask><g mask="url(#C)"><path fill="url(#D)" d="M121.916 119.993c-9.853-6.396-4.303-27.268-9.937-27.565-6.747-.356-15.432 7.322-15.432 7.322l1.109 6.264 1.013 2.478"/></g><path fill="url(#E)" d="M107.211 123.512c3.303-9.308 2.553-19.066 2.553-19.066s12.16-7.356-4.955-26.648c0 0-9.897-4.844-28.963 1.312l-3.164 10.923s7.206 21.019 5.254 29.276z"/><mask id="F" width="42" height="49" x="72" y="75" maskUnits="userSpaceOnUse" style="mask-type:luminance"><path fill="#fff" fill-rule="evenodd" d="M107.211 123.512c3.303-9.308 2.553-19.066 2.553-19.066s12.16-7.356-4.955-26.648c0 0-9.897-4.844-28.963 1.312l-3.164 10.923s7.206 21.019 5.254 29.276z" clip-rule="evenodd"/></mask><g mask="url(#F)"><ellipse cx="91.977" cy="78.211" fill="#fff" rx="6.96" ry="11.011" transform="rotate(-69.91 91.977 78.21)"/><ellipse cx="91.509" cy="77.009" fill="url(#G)" rx="6.96" ry="11.011" transform="rotate(-69.91 91.51 77.01)"/><path fill="url(#H)" d="M82.151 84.505c2.27 12.365-10.598 29.599 16.558 31.858 20.648 1.718-33.144 1.605-33.144 1.605s1.352-14.093 2.027-14.994c.676-.901 14.56-18.47 14.56-18.47" opacity=".67"/></g><path fill="url(#I)" d="M160.418 125.569h-46.465l13.185-30.602a1.94 1.94 0 0 1 1.785-1.174h43.603a1.04 1.04 0 0 1 .957 1.453z"/><path fill="url(#J)" d="M161.651 125.569h-46.465l13.185-30.602a1.94 1.94 0 0 1 1.785-1.174h43.604a1.04 1.04 0 0 1 .956 1.453z"/><ellipse cx="145.264" cy="109.681" fill="url(#K)" rx="4.297" ry="2.82" transform="rotate(-30.388 145.264 109.681)"/><path fill="url(#L)" d="M111.978 118.614s11.595-.017 13.887.957c3.02 1.285 8.102 4.256 9.183 4.96.101.065.144.19.104.303-.21.589-1.08 2.183-3.939.086 0 0 1.407 1.689 1.52 4.053.113 2.365-2.421 2.309-2.308 0 0 0-.788 3.153-3.209-.112 0 0-.759 2.352-2.027.45-1.023-1.534-1.401-2.816-3.938-2.891-3.251-.096-12.611.226-12.611.226l4.501-7.694"/><mask id="M" width="28" height="13" x="108" y="118" maskUnits="userSpaceOnUse" style="mask-type:luminance"><path fill="#fff" fill-rule="evenodd" d="M111.978 118.614s11.594-.017 13.886.958c3.02 1.284 8.102 4.255 9.184 4.959.101.065.144.19.104.303-.211.589-1.081 2.183-3.939.086 0 0 1.407 1.689 1.52 4.053.112 2.365-2.421 2.309-2.309 0 0 0-.788 3.153-3.209-.112 0 0-.758 2.352-2.026.45-1.023-1.534-1.401-2.815-3.938-2.89-3.251-.097-12.611.225-12.611.225l4.501-7.694" clip-rule="evenodd"/></mask><g mask="url(#M)"><path fill="url(#N)" d="M121.051 129.09c-10.955-.498-1.44-5.64-4.579-10.413s-5.297 7.343-5.297 7.343l2.778 2.572 5.438 1.411" opacity=".34"/></g><path fill="url(#O)" d="m70.695 87.025 1.986-7.659 11.225-2.357s10.02 14.522 14.525 16.873c0 0 4.612 29.001 4.211 31.687s-27.742.874-27.742.874 6.146-23.364-4.205-39.418"/><mask id="P" width="33" height="51" x="70" y="77" maskUnits="userSpaceOnUse" style="mask-type:luminance"><path fill="#fff" fill-rule="evenodd" d="m70.695 87.026 1.986-7.66 11.225-2.356s10.02 14.521 14.525 16.872c0 0 4.612 29.001 4.211 31.687s-27.742.875-27.742.875 6.146-23.365-4.205-39.419" clip-rule="evenodd"/></mask><g mask="url(#P)"><path fill="url(#Q)" d="M80.95 92.108c6.392-.885-6.154 20.514 8.194 20.293s14.637 1.238 12.756 2.344c-1.881 1.107-39.835 5.948-39.835 5.948l2.987-12.476 5.644-13.832"/></g><path fill="url(#R)" d="M98.431 77.01c3.03 6.884 0 16.872 0 16.872l3.783 26.112 7.652-.601v-13.974s14.35-10.454-2.58-29.648z"/><path fill="url(#S)" d="M114.492 127.566s3.231-9.597 1.48-14.054l-59.584-1.09-3.036 7.556c-1.364 3.678 1.356 7.588 5.278 7.588z"/><path fill="url(#T)" d="m69.904 122.387 12.093-33.146c1.666-4.568-1.33-9.503-6.152-10.131a7.59 7.59 0 0 0-8.031 4.712l-14.129 35.366z"/><circle cx="98.431" cy="95.647" r="1.223" fill="url(#U)"/><g opacity=".44"><path fill="url(#V)" d="m111.053 97.83-7.069.6c-.391.033-.816-.236-.951-.6l-1.384-3.755c-.135-.365.073-.687.465-.72l7.068-.6c.391-.034.817.235.951.6l1.384 3.754c.135.365-.073.687-.464.72"/><mask id="W" width="11" height="7" x="101" y="92" maskUnits="userSpaceOnUse" style="mask-type:luminance"><path fill="#fff" fill-rule="evenodd" d="m111.053 97.83-7.069.6c-.391.033-.816-.236-.951-.6l-1.384-3.755c-.135-.365.073-.687.465-.72l7.068-.6c.391-.034.817.235.951.6l1.384 3.754c.135.365-.073.687-.464.72" clip-rule="evenodd"/></mask><g mask="url(#W)"><path fill="url(#X)" d="M102.767 98.252c8.286-.423 8.642-.272 8.059-3.02s2.363 2.416 2.363 2.416l-1.672 1.422-8.803.05"/></g><ellipse cx="104.426" cy="95.588" fill="#fff" rx="1.044" ry="1.37" transform="rotate(-58.612 104.426 95.588)"/><path fill="#fff" d="m109.533 94.334-3.332.283-.103-.277 3.333-.283zm.349.947-3.332.283-.102-.277 3.332-.283zm-.548 1.024-2.435.206-.102-.277 2.435-.207z"/><path fill="url(#Y)" d="m106.681 92.967-2.066.175-.314-.852c-.197-.532.107-1.002.678-1.05.57-.05 1.192.343 1.388.875z"/><mask id="Z" width="3" height="3" x="104" y="91" maskUnits="userSpaceOnUse" style="mask-type:luminance"><path fill="#fff" fill-rule="evenodd" d="m106.681 92.966-2.066.176-.314-.852c-.197-.532.107-1.003.678-1.051.57-.049 1.192.343 1.388.875z" clip-rule="evenodd"/></mask><g mask="url(#Z)"><path fill="url(#aa)" d="M106.538 92.104c-.02.652-2.115.595-2.235.8s.69.46.69.46l2.048-.174-.335-.858"/></g><path fill="url(#ab)" d="m108.37 93.596-4.892.415-.37-1.004L108 92.59z"/></g><path fill="url(#ac)" d="m96.74 79.907 3.388 3.704 2.046 12.242-.568 9.986-16.572-21.613-.3-4.454 5.588.615 2.935-.194.632-.21"/><path fill="#fff" d="M96.154 76.05s5.385 26.672 4.859 29.67l.93.686 3.322-14.31-3.369-2.788 3.799-1.505-7.314-10.699s-.348-1.053-2.227-1.053"/><path fill="url(#ad)" d="m93.89 79.982 3.165 3.864c1.743-.05.274-5.55.274-5.55h-2.086z"/><ellipse cx="102.642" cy="75.203" fill="url(#ae)" rx="9.944" ry="11.415" transform="rotate(-44.457 102.642 75.203)"/><ellipse cx="99.332" cy="72.394" fill="url(#af)" rx="5.991" ry="6.744" transform="rotate(-51.985 99.332 72.394)"/><path fill="url(#ag)" d="M93.903 68.286c-.21.765-.289 11.828-.289 11.828l-8.363-1.488-.83-14.522z"/><mask id="ah" width="10" height="17" x="84" y="64" maskUnits="userSpaceOnUse" style="mask-type:luminance"><path fill="#fff" fill-rule="evenodd" d="M93.903 68.285c-.21.765-.289 11.829-.289 11.829l-8.363-1.489-.83-14.522z" clip-rule="evenodd"/></mask><g mask="url(#ah)"><path fill="url(#ai)" d="M100.249 80.79c-7.735-2.377-8.175-9.728-11.407-11.979s9.585-.38 9.585-.38l3.107 3.024.139 4.715" opacity=".34"/></g><ellipse cx="96.546" cy="53.38" fill="url(#aj)" rx="5.559" ry="6.258" transform="rotate(-51.985 96.546 53.38)"/><path fill="url(#ak)" d="M78.172 59.371c1.28 5.693 8.028 8.236 13.777 7.639s8.322-4.11 7.04-9.803c-1.28-5.693-6.979-9.824-12.727-9.226-5.75.597-9.371 5.697-8.09 11.39"/><path fill="url(#al)" d="M97.627 52.934c11.465 28.338-13.037 17.551-15.057 8.542-1.165-5.197 2.695-8.956 2.695-8.956z"/><path fill="url(#am)" d="M100.249 56.818c-5.838.824-8.432-4.343-8.432-4.343s.068 10.489-8.93 10.413l-2.424-4.447.96-4.98s4.684-3.524 5.029-3.451 5.564-.581 5.564-.581l4.353.852 1.396 1.481z"/><path fill="url(#an)" d="M84.964 62.672c-9.573-4.144-6.571 8.924 2.125 4.354z"/><path fill="#fff" d="M100.067 60.877c-.576 1.784-2.91.7-2.91.7s-1.961 2.803-7.805 1.818c-.909.322 1.542 5.969.128 6.46 10.392 8.465 14.389-.794 10.587-8.978"/><path fill="#fff" d="m90.777 64.802-1.23-1.19-4.371-.961-.171.087 4.667 2.17m1.351 4.341-5.847-1.605 5.495 2.743.4-.637"/><path fill="url(#ao)" d="M83.04 77.227s.106-2.418 2.217-2.757c0 0 3.981 3.975 8.633 5.512l-.817 4.302S82.939 80.06 83.04 77.227"/><path fill="#fff" d="m83.641 75.545 18.302 30.861L86.34 94.049l2.081-4.2-4.867-1.95-1.458-9.332s-.74-2.102 1.545-3.022"/><circle cx="102.164" cy="110.344" r="1.469" fill="#fff"/><rect width="30.089" height="12.126" x="128.714" y="47.34" fill="url(#ap)" rx="5.873"/><mask id="aq" width="31" height="13" x="128" y="47" maskUnits="userSpaceOnUse" style="mask-type:luminance"><rect width="30.089" height="12.126" x="128.714" y="47.34" fill="#fff" rx="5.873"/></mask><g mask="url(#aq)"><path fill="url(#ar)" d="M143.422 46.779h17.29v16.167h-17.29z"/><mask id="as" width="18" height="17" x="143" y="46" maskUnits="userSpaceOnUse" style="mask-type:luminance"><path fill="#fff" d="M143.422 46.779h17.29v16.167h-17.29z"/></mask><g mask="url(#as)"><path fill="#3f87e7" d="M141.943 47.34c15.764.666 15.258 8.59 11.296 13.226s8.514 2.782 8.514 2.782l1.349-15.595-8.936-4.383h-8.851"/></g><path fill="url(#at)" d="M131.911 46.151c-6.7 10.36 4.156 13.518 12.256 13.518 8.099 0-17.482 6.25-17.482 6.25l-4.679-7.84 4.173-12.138 9.361-1.265"/></g></g><rect width="204" height="134" x="2" y="2" stroke="#51c1ff" stroke-opacity=".07" stroke-width="4" rx="10"/><defs><linearGradient id="b" x1="-479.284" x2="-479.338" y1="80.828" y2="159.085" gradientUnits="userSpaceOnUse"><stop stop-color="#ffe5cf"/><stop offset="1" stop-color="#ffae6c"/></linearGradient><linearGradient id="c" x1="32.098" x2="56.669" y1="129.485" y2="129.485" gradientUnits="userSpaceOnUse"><stop offset=".102" stop-color="#dcdff8"/><stop offset=".885" stop-color="#f5f7fe"/></linearGradient><linearGradient id="e" x1="38.902" x2="46.229" y1="98.478" y2="98.478" gradientUnits="userSpaceOnUse"><stop offset=".102" stop-color="#dcdff8"/><stop offset=".885" stop-color="#f5f7fe"/></linearGradient><linearGradient id="f" x1="33.017" x2="55.75" y1="128.473" y2="128.473" gradientUnits="userSpaceOnUse"><stop stop-color="#98c5ff"/><stop offset="1" stop-color="#3580e4"/></linearGradient><linearGradient id="h" x1="44.027" x2="43.474" y1="113.908" y2="117.274" gradientUnits="userSpaceOnUse"><stop stop-color="#00ded8"/><stop offset=".997" stop-color="#4aaafd"/></linearGradient><linearGradient id="i" x1="39.912" x2="48.854" y1="93.942" y2="93.942" gradientUnits="userSpaceOnUse"><stop offset=".102" stop-color="#dcdff8"/><stop offset=".885" stop-color="#f5f7fe"/></linearGradient><linearGradient id="j" x1="65.191" x2="66.065" y1="51.899" y2="45.998" gradientUnits="userSpaceOnUse"><stop stop-color="#ffe5cf"/><stop offset="1" stop-color="#ffae6c"/></linearGradient><linearGradient id="n" x1="68.929" x2="69.458" y1="31.862" y2="47.966" gradientUnits="userSpaceOnUse"><stop offset=".101" stop-color="#ffa449"/><stop offset=".885" stop-color="#ff6e3a"/></linearGradient><linearGradient id="o" x1="36.694" x2="91.152" y1="89.159" y2="89.159" gradientUnits="userSpaceOnUse"><stop stop-color="#ffe5cf"/><stop offset="1" stop-color="#ffae6c"/></linearGradient><linearGradient id="q" x1="63.717" x2="5.193" y1="1.304" y2="48.197" gradientUnits="userSpaceOnUse"><stop stop-color="#ffcc92"/><stop offset="1" stop-color="#f79748"/></linearGradient><linearGradient id="r" x1="62.649" x2="70.93" y1="78.071" y2="60.475" gradientUnits="userSpaceOnUse"><stop offset=".102" stop-color="#dcdff8"/><stop offset=".885" stop-color="#f5f7fe"/></linearGradient><linearGradient id="t" x1="43.853" x2="32.291" y1="50.194" y2="85.109" gradientUnits="userSpaceOnUse"><stop offset=".102" stop-color="#dcdff8"/><stop offset=".885" stop-color="#f5f7fe"/></linearGradient><linearGradient id="u" x1="49.842" x2="84.264" y1="55.442" y2="70.001" gradientUnits="userSpaceOnUse"><stop offset=".102" stop-color="#dcdff8"/><stop offset=".885" stop-color="#f5f7fe"/></linearGradient><linearGradient id="v" x1="54.499" x2="74.391" y1="64.18" y2="64.18" gradientUnits="userSpaceOnUse"><stop stop-color="#ffada9"/><stop offset="1" stop-color="#ff6559"/></linearGradient><linearGradient id="w" x1="111.437" x2="77.86" y1="30.087" y2="39.707" gradientUnits="userSpaceOnUse"><stop offset=".102" stop-color="#915758"/><stop offset=".885" stop-color="#2c090b"/></linearGradient><linearGradient id="x" x1="154.607" x2="127.553" y1="65.356" y2="65.438" gradientUnits="userSpaceOnUse"><stop offset=".102" stop-color="#feaec7"/><stop offset=".885" stop-color="#f9d7da"/></linearGradient><linearGradient id="z" x1="128.905" x2="140.554" y1="79.654" y2="79.654" gradientUnits="userSpaceOnUse"><stop offset=".101" stop-color="#ff7638"/><stop offset=".885" stop-color="#ff3929"/></linearGradient><linearGradient id="A" x1="120.493" x2="124.866" y1="53.246" y2="83.442" gradientUnits="userSpaceOnUse"><stop offset=".102" stop-color="#fff"/><stop offset=".885" stop-color="#e3ebfd"/></linearGradient><linearGradient id="B" x1="94.616" x2="82.457" y1="47.056" y2="104.127" gradientUnits="userSpaceOnUse"><stop offset=".102" stop-color="#fff"/><stop offset=".885" stop-color="#e3ebfd"/></linearGradient><linearGradient id="D" x1="123.213" x2="122.13" y1="140.324" y2="138.032" gradientUnits="userSpaceOnUse"><stop offset=".102" stop-color="#fff"/><stop offset=".885" stop-color="#cddefd"/></linearGradient><linearGradient id="E" x1="28.519" x2="96.956" y1="98.132" y2="148.041" gradientUnits="userSpaceOnUse"><stop offset=".101" stop-color="#ffa9e1"/><stop offset=".885" stop-color="#e814ff"/></linearGradient><linearGradient id="G" x1="78.611" x2="113.446" y1="105.084" y2="104.53" gradientUnits="userSpaceOnUse"><stop offset=".102" stop-color="#feaec7"/><stop offset=".885" stop-color="#f9d7da"/></linearGradient><linearGradient id="H" x1="32.188" x2="70.071" y1="103.336" y2="150.232" gradientUnits="userSpaceOnUse"><stop offset=".001" stop-color="#e7463d"/><stop offset=".961" stop-color="#c732de"/></linearGradient><linearGradient id="I" x1="116.226" x2="117.003" y1="91.782" y2="93.737" gradientUnits="userSpaceOnUse"><stop stop-color="#a7f6ff"/><stop offset=".757" stop-color="#34a595"/></linearGradient><linearGradient id="J" x1="97.339" x2="104.259" y1="97.905" y2="140.091" gradientUnits="userSpaceOnUse"><stop stop-color="#a7f6ff"/><stop offset=".757" stop-color="#34a595"/></linearGradient><linearGradient id="K" x1="138.122" x2="135.283" y1="111.282" y2="116.209" gradientUnits="userSpaceOnUse"><stop stop-color="#a7f6ff"/><stop offset=".757" stop-color="#34a595"/></linearGradient><linearGradient id="L" x1="108.64" x2="135.167" y1="130.726" y2="130.726" gradientUnits="userSpaceOnUse"><stop offset=".102" stop-color="#feaec7"/><stop offset=".885" stop-color="#f9d7da"/></linearGradient><linearGradient id="N" x1="111.175" x2="121.051" y1="130.003" y2="130.003" gradientUnits="userSpaceOnUse"><stop offset=".101" stop-color="#ff7638"/><stop offset=".885" stop-color="#ff3929"/></linearGradient><linearGradient id="O" x1="76.03" x2="57.731" y1="42.593" y2="97.086" gradientUnits="userSpaceOnUse"><stop offset=".102" stop-color="#fff"/><stop offset=".885" stop-color="#e3ebfd"/></linearGradient><linearGradient id="Q" x1="70.192" x2="70.582" y1="127.354" y2="126.305" gradientUnits="userSpaceOnUse"><stop offset=".102" stop-color="#fff"/><stop offset=".885" stop-color="#cddefd"/></linearGradient><linearGradient id="R" x1="100.516" x2="68.018" y1="40.898" y2="76.384" gradientUnits="userSpaceOnUse"><stop offset=".102" stop-color="#fff"/><stop offset=".885" stop-color="#e3ebfd"/></linearGradient><linearGradient id="S" x1="-27.023" x2="-27.476" y1="47.858" y2="105.884" gradientUnits="userSpaceOnUse"><stop offset=".102" stop-color="#fff"/><stop offset=".885" stop-color="#e3ebfd"/></linearGradient><linearGradient id="T" x1="56.633" x2="39.491" y1="40.266" y2="95.375" gradientUnits="userSpaceOnUse"><stop offset=".102" stop-color="#fff"/><stop offset=".885" stop-color="#e3ebfd"/></linearGradient><linearGradient id="U" x1="95.017" x2="95.156" y1="89.625" y2="96.199" gradientUnits="userSpaceOnUse"><stop offset=".102" stop-color="#6ffdfa"/><stop offset=".885" stop-color="#01ddda"/></linearGradient><linearGradient id="V" x1="102.987" x2="111.115" y1="98.416" y2="96.159" gradientUnits="userSpaceOnUse"><stop stop-color="#fc7023"/><stop offset="1" stop-color="#e00321"/></linearGradient><linearGradient id="X" x1="98.915" x2="99.219" y1="96.126" y2="101.596" gradientUnits="userSpaceOnUse"><stop stop-color="#fc7023"/><stop offset="1" stop-color="#e00321"/></linearGradient><linearGradient id="Y" x1="103.643" x2="104.285" y1="91.681" y2="93.494" gradientUnits="userSpaceOnUse"><stop offset=".101" stop-color="#ffe494"/><stop offset="1" stop-color="#ffae00"/></linearGradient><linearGradient id="aa" x1="104.598" x2="104.64" y1="93.015" y2="93.382" gradientUnits="userSpaceOnUse"><stop offset=".101" stop-color="#ffe494"/><stop offset="1" stop-color="#ffae00"/></linearGradient><linearGradient id="ab" x1="96.651" x2="96.709" y1="91.458" y2="96.023" gradientUnits="userSpaceOnUse"><stop offset=".101" stop-color="#ffe494"/><stop offset="1" stop-color="#ffae00"/></linearGradient><linearGradient id="ac" x1="110.488" x2="105.764" y1="117.875" y2="113.006" gradientUnits="userSpaceOnUse"><stop stop-color="#ffada9"/><stop offset="1" stop-color="#ff6559"/></linearGradient><linearGradient id="ad" x1="93.942" x2="97.865" y1="83.779" y2="83.779" gradientUnits="userSpaceOnUse"><stop offset=".102" stop-color="#6ffdfa"/><stop offset=".885" stop-color="#01ddda"/></linearGradient><linearGradient id="ae" x1="132.972" x2="92.136" y1="34.999" y2="49.219" gradientUnits="userSpaceOnUse"><stop offset=".102" stop-color="#915758"/><stop offset=".885" stop-color="#2c090b"/></linearGradient><linearGradient id="af" x1="72.117" x2="72.376" y1="78.056" y2="78.014" gradientUnits="userSpaceOnUse"><stop offset=".102" stop-color="#915758"/><stop offset=".885" stop-color="#2c090b"/></linearGradient><linearGradient id="ag" x1="92.537" x2="111.791" y1="96.789" y2="75.764" gradientUnits="userSpaceOnUse"><stop offset=".102" stop-color="#feaec7"/><stop offset=".885" stop-color="#f9d7da"/></linearGradient><linearGradient id="ai" x1="96.397" x2="90.471" y1="58.385" y2="69.113" gradientUnits="userSpaceOnUse"><stop offset=".101" stop-color="#ff6a38"/><stop offset=".885" stop-color="#ff211e"/></linearGradient><linearGradient id="aj" x1="98.727" x2="67.813" y1="34.039" y2="42.173" gradientUnits="userSpaceOnUse"><stop offset=".102" stop-color="#915758"/><stop offset=".885" stop-color="#2c090b"/></linearGradient><linearGradient id="ak" x1="77.409" x2="68.96" y1="39.683" y2="69.283" gradientUnits="userSpaceOnUse"><stop offset=".102" stop-color="#915758"/><stop offset=".885" stop-color="#2c090b"/></linearGradient><linearGradient id="al" x1="87.515" x2="77.563" y1="49.981" y2="66.583" gradientUnits="userSpaceOnUse"><stop offset=".102" stop-color="#feaec7"/><stop offset=".885" stop-color="#f9d7da"/></linearGradient><linearGradient id="am" x1="72.32" x2="67.202" y1="41.202" y2="72.306" gradientUnits="userSpaceOnUse"><stop offset=".102" stop-color="#915758"/><stop offset=".885" stop-color="#2c090b"/></linearGradient><linearGradient id="an" x1="78.864" x2="71.655" y1="45.531" y2="66.912" gradientUnits="userSpaceOnUse"><stop offset=".102" stop-color="#feaec7"/><stop offset=".885" stop-color="#f9d7da"/></linearGradient><linearGradient id="ao" x1="81.389" x2="83.446" y1="77.545" y2="89.559" gradientUnits="userSpaceOnUse"><stop stop-color="#ffada9"/><stop offset="1" stop-color="#ff6559"/></linearGradient><linearGradient id="ap" x1="164.447" x2="164.323" y1="62.342" y2="46.004" gradientUnits="userSpaceOnUse"><stop offset=".102" stop-color="#dcdff8"/><stop offset=".885" stop-color="#f5f7fe"/></linearGradient><linearGradient id="ar" x1="146.11" x2="146.229" y1="46.284" y2="57.223" gradientUnits="userSpaceOnUse"><stop stop-color="#98c5ff"/><stop offset="1" stop-color="#3580e4"/></linearGradient><linearGradient id="at" x1="140.004" x2="141.841" y1="56.876" y2="47.182" gradientUnits="userSpaceOnUse"><stop offset=".102" stop-color="#dcdff8"/><stop offset=".885" stop-color="#f5f7fe"/></linearGradient><radialGradient id="k" cx="0" cy="0" r="1" gradientTransform="matrix(52.2936 0 0 62.3707 77.368 28.097)" gradientUnits="userSpaceOnUse"><stop offset=".101" stop-color="#ff7638"/><stop offset=".885" stop-color="#ff3929"/></radialGradient><clipPath id="a"><rect width="200" height="130" x="4" y="4" fill="#fff" rx="8"/></clipPath><path id="l" fill="#fff" d="M89.53 37.528a3.1 3.1 0 0 1 1.621 2.808c-.546 18.191-8.91 36.488-25.405 48.24a3.135 3.135 0 0 1-3.642 0c-16.52-11.769-24.884-30.1-25.408-48.316a3.1 3.1 0 0 1 1.536-2.759c6.932-4.057 15-8.153 23.691-12.797a4.22 4.22 0 0 1 4 .01c4.837 2.62 17.236 9.338 23.607 12.813"/></defs></svg>