<svg xmlns="http://www.w3.org/2000/svg" fill="none" viewBox="0 0 208 138" xmlns:xlink="http://www.w3.org/1999/xlink"><g clip-path="url(#a)"><rect width="200" height="130" x="4" y="4" fill="#fff" rx="8"/><path fill="#057bf4" d="M163.27 92.782c8.96-32.253-10.207-58.398-42.81-58.398S54.164 60.528 45.204 92.782c-4.315 15.529-2.105 29.641 4.982 40.102h85.819c12.901-10.461 22.951-24.573 27.265-40.102" opacity=".19"/><rect width="49.725" height="40.153" x="109" y="92.732" fill="url(#b)" rx="3.227"/><path fill="url(#c)" d="M119.95 56.372h6.55v28.624a3.275 3.275 0 1 1-6.55 0z" opacity=".71"/><mask id="d" width="8" height="33" x="119" y="56" maskUnits="userSpaceOnUse" style="mask-type:luminance"><path fill="#fff" fill-rule="evenodd" d="M119.95 56.372h6.55v28.623a3.275 3.275 0 1 1-6.55 0z" clip-rule="evenodd"/></mask><g mask="url(#d)"><path fill="url(#e)" d="M119.163 62.646c.478-5.808 4.377-5.244 5.993-5.244s-4.346-.515-4.346-.515l-2.497.515.213 2.092" opacity=".47"/><path fill="url(#f)" d="M127.287 75.887c-.787 9.109-1.612 12.393-4.062 13.03s5.197.142 5.197.142l-.637-10.198z"/></g><rect width="8.124" height="1.03" x="119.163" y="56.372" fill="url(#g)" rx=".515"/><path fill="url(#h)" d="M123.167 87.76h.115a2.925 2.925 0 0 0 2.924-2.924V67.68c-2.888.863-3.679-2.218-5.963-1.654v18.81a2.92 2.92 0 0 0 2.924 2.924"/><circle cx="121.922" cy="73.055" r=".253" fill="#fff" opacity=".2"/><circle cx="124.806" cy="72.876" r=".35" fill="#fff" opacity=".2"/><circle cx="123.225" cy="83.256" r=".928" fill="#fff" opacity=".2"/><circle cx="122.545" cy="74.5" r=".216" fill="#fff" opacity=".2"/><path fill="url(#i)" d="M129.87 56.372h6.55v28.624a3.275 3.275 0 0 1-6.55 0z" opacity=".71"/><mask id="j" width="8" height="33" x="129" y="56" maskUnits="userSpaceOnUse" style="mask-type:luminance"><path fill="#fff" fill-rule="evenodd" d="M129.87 56.372h6.55v28.623a3.275 3.275 0 1 1-6.55 0z" clip-rule="evenodd"/></mask><g mask="url(#j)"><path fill="url(#k)" d="M129.082 62.646c.479-5.808 4.377-5.244 5.993-5.244s-4.346-.515-4.346-.515l-2.496.515.213 2.092" opacity=".47"/><path fill="url(#l)" d="M137.207 75.887c-.787 9.108-1.612 12.393-4.062 13.03s5.197.142 5.197.142l-.637-10.198z"/></g><rect width="8.124" height="1.03" x="129.083" y="56.372" fill="url(#m)" rx=".515"/><path fill="url(#n)" d="M133.087 87.76h.115a2.927 2.927 0 0 0 2.924-2.924V72.167c-2.888.864-3.679-2.218-5.963-1.654v14.323a2.92 2.92 0 0 0 2.924 2.924"/><circle cx="131.842" cy="73.055" r=".253" fill="#fff" opacity=".2"/><circle cx="134.726" cy="72.876" r=".35" fill="#fff" opacity=".2"/><circle cx="133.145" cy="83.256" r=".928" fill="#fff" opacity=".2"/><circle cx="132.465" cy="74.5" r=".216" fill="#fff" opacity=".2"/><path fill="url(#o)" d="M139.194 56.372h6.55v28.624a3.275 3.275 0 0 1-6.55 0z" opacity=".71"/><mask id="p" width="7" height="33" x="139" y="56" maskUnits="userSpaceOnUse" style="mask-type:luminance"><path fill="#fff" fill-rule="evenodd" d="M139.194 56.372h6.55v28.623a3.276 3.276 0 0 1-6.55 0z" clip-rule="evenodd"/></mask><g mask="url(#p)"><path fill="url(#q)" d="M138.406 62.646c.479-5.808 4.377-5.244 5.993-5.244s-4.346-.515-4.346-.515l-2.496.515.213 2.092" opacity=".47"/><path fill="url(#r)" d="M146.531 75.887c-.787 9.109-1.612 12.393-4.062 13.03s5.197.142 5.197.142l-.637-10.198z"/></g><rect width="8.124" height="1.03" x="138.407" y="56.372" fill="url(#s)" rx=".515"/><path fill="url(#t)" d="M142.412 87.76h.114a2.925 2.925 0 0 0 2.924-2.924v-14.49c-2.888.864-3.679-2.217-5.963-1.654v16.144a2.92 2.92 0 0 0 2.925 2.924"/><circle cx="141.166" cy="73.055" r=".253" fill="#fff" opacity=".2"/><circle cx="144.05" cy="72.876" r=".35" fill="#fff" opacity=".2"/><circle cx="142.469" cy="83.256" r=".928" fill="#fff" opacity=".2"/><circle cx="141.789" cy="74.5" r=".216" fill="#fff" opacity=".2"/><rect width="44.286" height="1.552" x="110.704" y="65.343" fill="url(#u)" rx=".776"/><rect width="1.487" height="27.93" x="114.033" y="63.274" fill="url(#v)" rx=".743"/><mask id="w" width="2" height="29" x="114" y="63" maskUnits="userSpaceOnUse" style="mask-type:luminance"><rect width="1.487" height="27.93" x="114.033" y="63.274" fill="#fff" rx=".743"/></mask><g mask="url(#w)"><path fill="url(#x)" d="M111.817 82.329c1.347 6.322 9.322 5.52 10.104 9.085s-5.503 4.384-5.952 4.683-2.791-3.716-3.367-4.683-2.257-5.961-2.257-5.961"/></g><rect width="1.487" height="27.93" x="150.173" y="63.274" fill="url(#y)" rx=".743"/><mask id="z" width="2" height="29" x="150" y="63" maskUnits="userSpaceOnUse" style="mask-type:luminance"><rect width="1.487" height="27.93" x="150.173" y="63.274" fill="#fff" rx=".743"/></mask><g mask="url(#z)"><path fill="url(#A)" d="M153.905 69.908c-7.374 5.98-9.203 4.808-4.714 9.194 4.49 4.386 7.408 5.733 3.143 7.192s5.387 1.466 5.387 1.466l-1.683-14.958-1.048-1.884"/></g><path fill="url(#B)" d="M113.322 90.105h39.05a2.62 2.62 0 0 1 2.618 2.618h-44.286a2.62 2.62 0 0 1 2.618-2.618"/><mask id="C" width="45" height="3" x="110" y="90" maskUnits="userSpaceOnUse" style="mask-type:luminance"><path fill="#fff" fill-rule="evenodd" d="M113.322 90.105h39.049a2.62 2.62 0 0 1 2.619 2.618h-44.287a2.62 2.62 0 0 1 2.619-2.618" clip-rule="evenodd"/></mask><g mask="url(#C)"><path fill="url(#D)" d="M108.843 92.723c10.858 0 46.212-1.883 47.812-.957s-3.788 3.059-4.125 3.213-43.687-2.256-43.687-2.256"/></g><rect width="4.495" height="6.143" x="45.239" y="58.093" fill="url(#E)" rx="1.837"/><rect width="4.495" height="6.143" x="45.239" y="65.15" fill="url(#F)" rx="1.837"/><rect width="49.229" height="92.418" x="46.407" y="41.242" fill="url(#G)" rx="6.327"/><path fill="#0158b5" d="M87.328 43.503h-3.222c-1.038 0-1.88.856-1.88 1.913s-.84 1.914-1.879 1.914h-18.65c-1.039 0-1.88-.857-1.88-1.913 0-1.058-.841-1.914-1.879-1.914h-3.222c-3.186 0-5.769 2.63-5.769 5.875v74.779c0 3.245 2.583 5.875 5.769 5.875h32.612c3.186 0 5.769-2.63 5.769-5.875V49.378c0-3.245-2.583-5.875-5.77-5.875"/><rect width="37.645" height="43.343" x="52.199" y="53.262" fill="#fff" rx="3.678"/><rect width="37.645" height="7.967" x="52.199" y="101.279" fill="#fff" opacity=".1" rx="3.984"/><rect width="37.645" height="7.967" x="52.199" y="112.306" fill="#fff" opacity=".1" rx="3.984"/><path fill="#0158b5" fill-rule="evenodd" d="M56.028 76.171c0-8.267 6.726-14.994 14.994-14.994 8.267 0 14.994 6.727 14.994 14.994 0 8.268-6.727 14.994-14.994 14.994-8.268 0-14.994-6.726-14.994-14.994m27.14 0c-.008-6.689-5.457-12.138-12.146-12.147-6.69.01-12.139 5.458-12.147 12.147.008 6.69 5.458 12.138 12.147 12.147 6.69-.009 12.138-5.458 12.147-12.147" clip-rule="evenodd"/><path fill="#0158b5" d="M69.53 85.75h2.985V72.074l5.898 5.897.006-4.215-7.398-7.397-7.394 7.393v4.22l5.902-5.902z"/><path fill="url(#H)" d="m84.937 130.734 6.866-.163 3.115-15.849-8.181.194z"/><mask id="I" width="11" height="17" x="84" y="114" maskUnits="userSpaceOnUse" style="mask-type:luminance"><path fill="#fff" fill-rule="evenodd" d="m84.937 130.733 6.866-.162 3.115-15.849-8.181.194z" clip-rule="evenodd"/></mask><g mask="url(#I)"><path fill="url(#J)" d="M86.594 116.166c-2.502 1.457 7.024 3.931 7.354 5.594s.97-3.524.97-3.524l-7.336-3.113" opacity=".34"/></g><path fill="url(#K)" d="m93.421 124.406-1.804 9.369-22.81.54s-.06-3.098 7.45-3.181c7.512-.084 9.193-9.816 9.193-9.816z"/><path fill="url(#L)" d="m114.786 24.822 15.897 2.371a3.086 3.086 0 0 1 2.662 3.455L131.792 42.6l-7.192.767.59-9.656-12.276-.386z"/><mask id="M" width="22" height="20" x="112" y="24" maskUnits="userSpaceOnUse" style="mask-type:luminance"><path fill="#fff" fill-rule="evenodd" d="m114.786 24.821 15.897 2.372a3.086 3.086 0 0 1 2.662 3.455l-1.553 11.95-7.192.768.59-9.656-12.276-.386z" clip-rule="evenodd"/></mask><g mask="url(#M)"><path fill="url(#N)" d="M115.236 31.759c1.402-2.468 3.811 1.992 8.622 1.911 2.376-.04-10.944 2.436-10.944 2.436V28.28"/></g><path fill="url(#O)" d="M84.928 115.471c1.306 3.86 10.794 4.572 10.794 4.572l13.672-67.306-12.984-.54z"/><mask id="P" width="26" height="69" x="84" y="52" maskUnits="userSpaceOnUse" style="mask-type:luminance"><path fill="#fff" fill-rule="evenodd" d="M84.928 115.471c1.306 3.86 10.794 4.572 10.794 4.572l13.672-67.306-12.984-.54z" clip-rule="evenodd"/></mask><g mask="url(#P)"><path fill="url(#Q)" d="M91.29 62.511c8.405.535 5.932-3.76 14.118-5.127s-8.246-4.653-8.246-4.653c-2.051 1.528-6.33 6.418-6.33 6.418"/><path fill="url(#R)" d="M86.375 100.096c1.098-2.657 15.284.803 14.218-1.117s-15.656-8.944-15.656-8.944l-2.59 1.614"/></g><path fill="url(#S)" d="m128.784 130.737-6.875-.155-3.989-15.111 8.192.184z"/><mask id="T" width="12" height="16" x="117" y="115" maskUnits="userSpaceOnUse" style="mask-type:luminance"><path fill="#fff" fill-rule="evenodd" d="m128.784 130.737-6.875-.154-3.989-15.112 8.192.185z" clip-rule="evenodd"/></mask><g mask="url(#T)"><path fill="url(#U)" d="M127.514 115.975c-4.47 4.116-7.739 4.798-8.054 7.129-.314 2.331-4.224-3.061-4.224-3.061l4.413-4.919" opacity=".34"/></g><path fill="url(#V)" d="m119.951 124.704 2.321 8.933 22.84.515s-.111-2.953-7.627-3.033c-7.515-.08-9.733-9.359-9.733-9.359z"/><path fill="url(#W)" d="M127.514 115.975c-6.883 6.134-9.927 4.068-9.927 4.068l-14.63-67.306 12.984-.54z"/><mask id="X" width="26" height="69" x="102" y="52" maskUnits="userSpaceOnUse" style="mask-type:luminance"><path fill="#fff" fill-rule="evenodd" d="M127.514 115.975c-6.883 6.135-9.927 4.068-9.927 4.068l-14.63-67.306 12.984-.54z" clip-rule="evenodd"/></mask><g mask="url(#X)"><path fill="url(#Y)" d="M112.72 103.039c-.024-3.309 11.342-3.568 11.366-5.96s-9.468-1.254-9.468-1.254l-3.475 1.119"/></g><path fill="url(#Z)" d="M94.086 55.241c7.131 3.872 22.623 4.876 24.661 1.717L114.731 25.8s-8.275-3.128-18.169-.138z"/><mask id="aa" width="25" height="35" x="94" y="24" maskUnits="userSpaceOnUse" style="mask-type:luminance"><path fill="#fff" fill-rule="evenodd" d="M94.086 55.241c7.131 3.872 22.623 4.876 24.661 1.717L114.731 25.8s-8.275-3.128-18.169-.138z" clip-rule="evenodd"/></mask><g mask="url(#aa)"><path fill="url(#ab)" d="M97.86 32.254c-3.641 5.298-.933 11.035 17.375 7.606 0 0-25.159 18.892-10.29 18.83s-14.088-3.044-14.088-3.044l-.306-18.094 5.91-5.705" opacity=".55"/></g><path fill="url(#ac)" d="m100.414 19.274 2.542 9.29 5.988-3.571-3.694-8.092z"/><mask id="ad" width="9" height="13" x="100" y="16" maskUnits="userSpaceOnUse" style="mask-type:luminance"><path fill="#fff" fill-rule="evenodd" d="m100.414 19.274 2.542 9.289 5.988-3.57-3.694-8.092z" clip-rule="evenodd"/></mask><g mask="url(#ad)"><path fill="url(#ae)" d="M100.894 28.634c2.727-2.93 1.658-5.998 2.986-8.17s.696-2.709.696-2.709l-4.603 2.486" opacity=".34"/></g><path fill="url(#af)" d="M101.066 8.145c-3.224 4.019-10.109 14.446 2.321 12.393l1.429-2.843-.286-4.398z"/><path fill="url(#ag)" d="M105.367 18.023c-2.034-.233-3.274-4.352-1.812-5.131 0 0-3.452.155-4.965-2.357.198-1.702 2.772-1.835 7.551-1.969 3.621.512.919-1.162.046.815 7.353-1.036 4.322 9.233-.82 8.642"/><path fill="url(#ah)" d="M86.375 95.224c7.955 6.544 21.537 2.546 21.537 2.546l-2.41-63.19-3.778-10.449-5.162 1.531c-5.767 22.707-7.95 64.12-10.187 69.562"/><mask id="ai" width="22" height="75" x="86" y="24" maskUnits="userSpaceOnUse" style="mask-type:luminance"><path fill="#fff" fill-rule="evenodd" d="M86.374 95.224c7.955 6.544 21.538 2.546 21.538 2.546l-2.411-63.19-3.777-10.449-5.162 1.531c-5.768 22.707-7.95 64.12-10.188 69.562" clip-rule="evenodd"/></mask><g mask="url(#ai)"><path fill="url(#aj)" d="M97.16 34.407c3.254 1.007-2.639 5.395-3.671 10.338s-1.372-8.142-1.372-8.142l2.917-3.405"/><path fill="url(#ak)" d="M88.015 59.535h10.811v9.567H88.015z"/><path fill="#fff" d="M99.765 60.601h-12.69l.721-3.216h11.248z"/><path fill="url(#al)" d="M104.741 81.43c-3.095-1.012 1.103 17.64-6.88 19.133-7.985 1.495 14.221 4.659 14.221 4.659l-2.496-21.986"/></g><path fill="url(#am)" d="m105.502 34.58 3.105-10.506c.684-.035 6.178.747 6.178.747s6.832 38.793 10.843 71.384c0 0-2.874 2.949-20.886 4.358l-1.949-55.818"/><mask id="an" width="24" height="77" x="102" y="24" maskUnits="userSpaceOnUse" style="mask-type:luminance"><path fill="#fff" fill-rule="evenodd" d="m105.502 34.58 3.105-10.506c.684-.035 6.178.748 6.178.748s6.832 38.792 10.843 71.383c0 0-2.874 2.949-20.886 4.359l-1.949-55.818" clip-rule="evenodd"/></mask><g mask="url(#an)"><path fill="url(#ao)" d="M121.305 68.94h-10.811l-.681-9.561h10.811z"/><path fill="#fff" d="M121.639 60.444H108.95l-.117-2.981 11.857-.233z"/></g><path fill="url(#ap)" d="m101.352 26.64-1.203 2.526.957 7.613 4.315.195 2.972-8.646-.588-2.734-2.911.823-1.615.118-1.279.221"/><path fill="url(#aq)" d="m103.186 28.098-2.137 8.171 1.201 7.097 1.596-.944 1.394-6.714-.7-8.246z"/><path fill="url(#ar)" d="m102.359 26.538.765 1.65c.187.406.564.624.993.574l.347-.04c.424-.048.838-.35 1.095-.799l.931-1.623-2.176.04z"/><path fill="url(#as)" d="M100.896 24.839s.222-1.568.593-1.606c0 0 .521 2.313 2.071 3.126l-1.526 3.058s-1.989-2.722-1.138-4.579"/><path fill="url(#at)" d="M108.947 23.811s-.977-1.66-1.348-1.622c0 0-1.789 2.86-4.039 4.17l2.301 2.605s3.618-3.437 3.086-5.153"/><path fill="#fff" d="M101.049 24.069s1.835 17.07 2.624 18.853l-.88 1.823-3.986-10.004 1.348-1.967-2.302-.61 2.177-6.834s.005-1.11 1.019-1.261"/><path fill="#fff" d="m108.34 22.837-5.547 21.909L110 34.312l-1.83-2.389 2.297-1.576-.785-5.796s.045-1.338-1.342-1.714"/><path fill="url(#au)" d="m137.974 44.266-.131-1.003 13.856-1.605-1.125.604z"/><path fill="url(#av)" d="m135.927 46.941-.16-1.225 1.756-.23a.607.607 0 0 0 .522-.68l-.273-2.084a.61.61 0 0 0-.679-.523l-1.756.23-.16-1.225a3.795 3.795 0 0 0-4.254-3.27l-45.342 5.93 1.734 13.26 45.342-5.93a3.793 3.793 0 0 0 3.27-4.253"/><mask id="aw" width="54" height="21" x="85" y="37" maskUnits="userSpaceOnUse" style="mask-type:luminance"><path fill="#fff" fill-rule="evenodd" d="m135.927 46.941-.16-1.225 1.755-.23a.605.605 0 0 0 .523-.679l-.273-2.085a.605.605 0 0 0-.679-.523l-1.756.23-.16-1.225a3.796 3.796 0 0 0-4.254-3.27l-45.342 5.93 1.734 13.26 45.342-5.93a3.794 3.794 0 0 0 3.27-4.253" clip-rule="evenodd"/></mask><g mask="url(#aw)"><path fill="#fff" d="M114.043 37.982c-27.353 9.53-28.204 5.77-26.813 21.313 1.39 15.543-7.689-18.157-7.689-18.157l18.347-7.384 13.071-1.086" opacity=".29"/></g><path fill="url(#ax)" d="m132.324 41.647.733 5.599c.117.9-.517 1.724-1.417 1.842l-14.519 1.899-1.158-8.857 14.519-1.9a1.64 1.64 0 0 1 1.842 1.417"/><mask id="ay" width="19" height="11" x="115" y="40" maskUnits="userSpaceOnUse" style="mask-type:luminance"><path fill="#fff" fill-rule="evenodd" d="m132.325 41.648.732 5.598c.118.9-.517 1.725-1.417 1.843l-14.518 1.898-1.159-8.857 14.519-1.899a1.645 1.645 0 0 1 1.843 1.416" clip-rule="evenodd"/></mask><g mask="url(#ay)"><path fill="url(#az)" d="M132.325 41.648c.987 8.11-7.811 9.275-15.203 9.34-7.393.063 17.794-.089 17.794-.089l.874-2.353-.453-6.117"/></g><path fill="#fff" d="m114.627 43.858.76 5.802-44.389 5.805-.759-5.801z" opacity=".62"/><path fill="url(#aA)" d="M86.69 47.512h5.851v16.591H86.69z" opacity=".29" transform="rotate(82.549 86.69 47.512)"/><path fill="url(#aB)" d="m70.928 47.84 1.205 9.21a1.515 1.515 0 1 1-3.004.394l-1.205-9.212a1.515 1.515 0 1 1 3.004-.393"/><g opacity=".76"><path fill="url(#aC)" d="M127.438 39.233h2.769v.366h-2.769z" transform="rotate(82.549 127.438 39.233)"/><path fill="url(#aD)" d="M125.27 39.517h2.769v.366h-2.769z" transform="rotate(82.549 125.27 39.517)"/><path fill="url(#aE)" d="M123.102 39.8h2.769v.366h-2.769z" transform="rotate(82.549 123.102 39.8)"/><path fill="url(#aF)" d="M120.934 40.084h2.769v.366h-2.769z" transform="rotate(82.549 120.934 40.084)"/><path fill="url(#aG)" d="M118.766 40.367h2.769v.366h-2.769z" transform="rotate(82.549 118.766 40.367)"/><path fill="url(#aH)" d="M116.598 40.657h2.769v.366h-2.769z" transform="rotate(82.548 116.598 40.657)"/><path fill="url(#aI)" d="M114.43 40.934h2.769v.366h-2.769z" transform="rotate(82.549 114.43 40.934)"/><path fill="url(#aJ)" d="M112.261 41.218h2.769v.366h-2.769z" transform="rotate(82.549 112.261 41.218)"/></g><path fill="#fff" d="M115.785 40.766 117.3 52.35l-1.535.2-1.515-11.585z" opacity=".62"/><path fill="url(#aK)" d="m86.452 42.95 1.94 14.834a1.348 1.348 0 1 1-2.673.35l-1.94-14.835a1.348 1.348 0 0 1 2.673-.35"/><path fill="url(#aL)" d="M121.768 38.696s-.087 3.262 2.435 1.848c0 0 .687.77 1.604-.057 0 0 .851.756 1.361.246.509-.509.127-3.005.127-3.005s-1.044-.51-1.808 0c0 0-1.274-.204-1.885.407 0 0-1.197-.585-1.834.56"/><path fill="url(#aM)" d="m93.359 45.91-2.566-4.62c-1.224 1.02-2.822.634-4.419 1.788l3.363 5.553s.483 5.896 2.126 4.635c0 0 1.605.172 1.987-.592 0 0 1.075.772 1.686-.322l-.955-3.233s2.956 1.71 3.28-.208c0 0-4.273-1.97-4.502-3.001"/><mask id="aN" width="12" height="13" x="86" y="41" maskUnits="userSpaceOnUse" style="mask-type:luminance"><path fill="#fff" fill-rule="evenodd" d="m93.358 45.91-2.565-4.62c-1.224 1.02-2.823.634-4.419 1.788l3.362 5.553s.484 5.896 2.127 4.635c0 0 1.604.172 1.986-.592 0 0 1.075.772 1.687-.322l-.956-3.233s2.957 1.71 3.28-.208c0 0-4.273-1.97-4.502-3.001" clip-rule="evenodd"/></mask><g mask="url(#aN)"><path fill="url(#aO)" d="M87.393 48.38c3.458-2.295 3.92-6.155 3.92-6.155l-3.857 1.91-.41 2.604" opacity=".34"/></g><path fill="url(#aP)" d="m88.891 35.777 8.97-.975-.653-9.33-17.748 3.766c-2.48.426-3.631 3.325-2.118 5.337l7.586 12.483c1.895.316 6.928-3.992 6.312-5.158z"/><path fill="url(#aQ)" d="M109.245 16.337c-1.932-.031-9.322-5.113-9.704-6.514 0 0 2.946-4.095 3.754-3.809 0 0 6.534 1.967 7.827 5.154.68 1.68-1.877 5.169-1.877 5.169"/><mask id="aR" width="13" height="12" x="99" y="5" maskUnits="userSpaceOnUse" style="mask-type:luminance"><path fill="#fff" fill-rule="evenodd" d="M109.246 16.337c-1.933-.031-9.323-5.113-9.705-6.514 0 0 2.946-4.095 3.754-3.809 0 0 6.535 1.967 7.827 5.154.681 1.679-1.876 5.169-1.876 5.169" clip-rule="evenodd"/></mask><g mask="url(#aR)"><path fill="url(#aS)" d="M111.37 14.497c-.152-2.15-4.478.737-8.185-1.338s4.484 5.051 4.484 5.051l3.41-.73 1.426-1.37"/></g><path fill="#e3ebfd" d="M97.137 13.561c.57-.777 2.089 3.195 5.217 2.956.465.21-1.076 3.665-.351 3.986-7.011 3.938-7.235-2.87-4.866-6.942"/><path fill="#cddefd" d="m101.518 17.157.701-.56 2.659-.58-.222.338-2.56.909m-.506 2.863 2.392.347-2.479.27-.048-.392"/><path fill="url(#aT)" d="M103.098 20.583c6.503-.457 5.885-7.577-.318-3.412z"/><circle cx="103.672" cy="53.206" r="1.07" fill="#fff"/><circle cx="104.271" cy="66.976" r="1.07" fill="#fff"/><g opacity=".72"><rect width="4.359" height="2.798" x="109.797" y="36.181" fill="url(#aU)" rx=".364" transform="rotate(-4.616 109.797 36.181)"/><mask id="aV" width="6" height="4" x="109" y="35" maskUnits="userSpaceOnUse" style="mask-type:luminance"><rect width="4.359" height="2.798" x="109.797" y="36.181" fill="#fff" rx=".364" transform="rotate(-4.616 109.797 36.181)"/></mask><g mask="url(#aV)"><path fill="url(#aW)" d="M109.801 38.837c4.204-.189 4.361-.104 4.454-1.612s.843 1.335.843 1.335l-1.035.77-4.41-.018"/></g><circle cx="111.004" cy="37.386" r=".627" fill="#fff"/><path fill="#fff" d="m112.015 36.712 1.706-.138.013.153-1.707.138zm.042.52 1.706-.138.013.153-1.707.138zm.042.521 1.247-.1.012.152-1.247.1z"/><path fill="url(#aX)" d="M111.889 35.009a.53.53 0 0 1 .572.486l.038.468-1.058.086-.038-.468a.53.53 0 0 1 .486-.572"/><mask id="aY" width="2" height="2" x="111" y="35" maskUnits="userSpaceOnUse" style="mask-type:luminance"><path fill="#fff" fill-rule="evenodd" d="M111.889 35.008a.53.53 0 0 1 .572.487l.038.468-1.058.085-.038-.468a.53.53 0 0 1 .486-.572" clip-rule="evenodd"/></mask><g mask="url(#aY)"><path fill="url(#aZ)" d="M112.549 35.49c-.102.357-1.142.315-1.231.427-.088.112.281.255.281.255l1.049-.085-.047-.471"/></g><path fill="url(#ba)" d="M110.712 35.965h2.514v.554h-2.514z" transform="rotate(-4.617 110.712 35.965)"/></g></g><rect width="204" height="134" x="2" y="2" stroke="#51c1ff" stroke-opacity=".07" stroke-width="4" rx="10"/><defs><linearGradient id="b" x1="132.948" x2="132.948" y1="42.346" y2="43.824" gradientUnits="userSpaceOnUse"><stop offset=".102" stop-color="#dcdff8"/><stop offset=".885" stop-color="#f5f7fe"/></linearGradient><linearGradient id="c" x1="119.95" x2="126.5" y1="88.27" y2="88.27" gradientUnits="userSpaceOnUse"><stop offset=".102" stop-color="#dcdff8"/><stop offset=".885" stop-color="#f5f7fe"/></linearGradient><linearGradient id="e" x1="118.448" x2="119.868" y1="58.378" y2="62.886" gradientUnits="userSpaceOnUse"><stop offset=".102" stop-color="#dcdff8"/><stop offset=".885" stop-color="#f5f7fe"/></linearGradient><linearGradient id="f" x1="122.74" x2="128.422" y1="89.242" y2="89.242" gradientUnits="userSpaceOnUse"><stop offset=".102" stop-color="#dcdff8"/><stop offset=".885" stop-color="#f5f7fe"/></linearGradient><linearGradient id="g" x1="119.163" x2="127.287" y1="57.402" y2="57.402" gradientUnits="userSpaceOnUse"><stop offset=".102" stop-color="#dcdff8"/><stop offset=".885" stop-color="#f5f7fe"/></linearGradient><linearGradient id="h" x1="125.611" x2="117.054" y1="52.836" y2="54.592" gradientUnits="userSpaceOnUse"><stop stop-color="#00ded8"/><stop offset=".997" stop-color="#4aaafd"/></linearGradient><linearGradient id="i" x1="129.87" x2="136.42" y1="88.27" y2="88.27" gradientUnits="userSpaceOnUse"><stop offset=".102" stop-color="#dcdff8"/><stop offset=".885" stop-color="#f5f7fe"/></linearGradient><linearGradient id="k" x1="128.368" x2="129.788" y1="58.378" y2="62.885" gradientUnits="userSpaceOnUse"><stop offset=".102" stop-color="#dcdff8"/><stop offset=".885" stop-color="#f5f7fe"/></linearGradient><linearGradient id="l" x1="132.66" x2="138.342" y1="89.242" y2="89.242" gradientUnits="userSpaceOnUse"><stop offset=".102" stop-color="#dcdff8"/><stop offset=".885" stop-color="#f5f7fe"/></linearGradient><linearGradient id="m" x1="129.083" x2="137.207" y1="57.402" y2="57.402" gradientUnits="userSpaceOnUse"><stop offset=".102" stop-color="#dcdff8"/><stop offset=".885" stop-color="#f5f7fe"/></linearGradient><linearGradient id="n" x1="134.272" x2="121.516" y1="57.267" y2="59.572" gradientUnits="userSpaceOnUse"><stop stop-color="#fc7023"/><stop offset="1" stop-color="#e00321"/></linearGradient><linearGradient id="o" x1="139.194" x2="145.744" y1="88.27" y2="88.27" gradientUnits="userSpaceOnUse"><stop offset=".102" stop-color="#dcdff8"/><stop offset=".885" stop-color="#f5f7fe"/></linearGradient><linearGradient id="q" x1="137.692" x2="139.112" y1="58.378" y2="62.886" gradientUnits="userSpaceOnUse"><stop offset=".102" stop-color="#dcdff8"/><stop offset=".885" stop-color="#f5f7fe"/></linearGradient><linearGradient id="r" x1="141.984" x2="147.666" y1="89.242" y2="89.242" gradientUnits="userSpaceOnUse"><stop offset=".102" stop-color="#dcdff8"/><stop offset=".885" stop-color="#f5f7fe"/></linearGradient><linearGradient id="s" x1="138.407" x2="146.531" y1="57.402" y2="57.402" gradientUnits="userSpaceOnUse"><stop offset=".102" stop-color="#dcdff8"/><stop offset=".885" stop-color="#f5f7fe"/></linearGradient><linearGradient id="t" x1="144.047" x2="130.419" y1="52.449" y2="54.465" gradientUnits="userSpaceOnUse"><stop offset=".101" stop-color="#ffdf94"/><stop offset="1" stop-color="#ffa200"/></linearGradient><linearGradient id="u" x1="89.631" x2="89.631" y1="65.586" y2="68.617" gradientUnits="userSpaceOnUse"><stop offset=".032" stop-color="#ffc50c"/><stop offset="1" stop-color="#ff9e0c"/></linearGradient><linearGradient id="v" x1="112.995" x2="113.979" y1="53.846" y2="53.897" gradientUnits="userSpaceOnUse"><stop offset=".032" stop-color="#ffc50c"/><stop offset="1" stop-color="#ff9e0c"/></linearGradient><linearGradient id="x" x1="114.44" x2="115.814" y1="89.279" y2="93.308" gradientUnits="userSpaceOnUse"><stop offset=".032" stop-color="#ffc50c"/><stop offset="1" stop-color="#ff9e0c"/></linearGradient><linearGradient id="y" x1="149.028" x2="150.012" y1="51.88" y2="51.931" gradientUnits="userSpaceOnUse"><stop offset=".032" stop-color="#ffc50c"/><stop offset="1" stop-color="#ff9e0c"/></linearGradient><linearGradient id="A" x1="137.231" x2="161.734" y1="87.199" y2="95.253" gradientUnits="userSpaceOnUse"><stop offset=".032" stop-color="#ffc50c"/><stop offset="1" stop-color="#ff9e0c"/></linearGradient><linearGradient id="B" x1="26.913" x2="26.923" y1="86.428" y2="98.776" gradientUnits="userSpaceOnUse"><stop offset=".101" stop-color="#fece63"/><stop offset="1" stop-color="#f55850"/></linearGradient><linearGradient id="D" x1="123.006" x2="123.007" y1="85.031" y2="86.266" gradientUnits="userSpaceOnUse"><stop offset=".101" stop-color="#fece63"/><stop offset="1" stop-color="#f55850"/></linearGradient><linearGradient id="E" x1="39.013" x2="49.214" y1="65.358" y2="67.314" gradientUnits="userSpaceOnUse"><stop offset=".102" stop-color="#dcdff8"/><stop offset=".885" stop-color="#f5f7fe"/></linearGradient><linearGradient id="F" x1="39.013" x2="49.214" y1="72.415" y2="74.371" gradientUnits="userSpaceOnUse"><stop offset=".102" stop-color="#dcdff8"/><stop offset=".885" stop-color="#f5f7fe"/></linearGradient><linearGradient id="G" x1="87.658" x2="142.645" y1="123.422" y2="84.51" gradientUnits="userSpaceOnUse"><stop offset=".102" stop-color="#dcdff8"/><stop offset=".885" stop-color="#f5f7fe"/></linearGradient><linearGradient id="H" x1="94.53" x2="83.124" y1="112.009" y2="113.251" gradientUnits="userSpaceOnUse"><stop offset=".102" stop-color="#ffafbc"/><stop offset=".885" stop-color="#ffdddc"/></linearGradient><linearGradient id="J" x1="86.176" x2="94.918" y1="122.089" y2="122.089" gradientUnits="userSpaceOnUse"><stop offset=".101" stop-color="#ff7638"/><stop offset=".885" stop-color="#ff3929"/></linearGradient><linearGradient id="K" x1="86.975" x2="71.105" y1="119.556" y2="135.508" gradientUnits="userSpaceOnUse"><stop offset=".102" stop-color="#915758"/><stop offset=".885" stop-color="#2c090b"/></linearGradient><linearGradient id="L" x1="114.062" x2="112.675" y1="12.505" y2="31.918" gradientUnits="userSpaceOnUse"><stop offset=".102" stop-color="#fff"/><stop offset=".885" stop-color="#e3ebfd"/></linearGradient><linearGradient id="N" x1="115.222" x2="115.326" y1="67.315" y2="65.601" gradientUnits="userSpaceOnUse"><stop offset=".102" stop-color="#fff"/><stop offset=".885" stop-color="#cddefd"/></linearGradient><linearGradient id="O" x1="108.223" x2="88.284" y1="119.192" y2="82.282" gradientUnits="userSpaceOnUse"><stop offset=".005" stop-color="#ffe77a"/><stop offset=".999" stop-color="#ff9103"/></linearGradient><linearGradient id="Q" x1="91.838" x2="91.351" y1="48.703" y2="58.831" gradientUnits="userSpaceOnUse"><stop offset=".005" stop-color="#ffe77a"/><stop offset=".999" stop-color="#ff9103"/></linearGradient><linearGradient id="R" x1="105.036" x2="104.692" y1="108.356" y2="94.669" gradientUnits="userSpaceOnUse"><stop offset=".005" stop-color="#ffe77a"/><stop offset=".999" stop-color="#ff9103"/></linearGradient><linearGradient id="S" x1="116.607" x2="128.172" y1="129.438" y2="130.979" gradientUnits="userSpaceOnUse"><stop offset=".102" stop-color="#ffafbc"/><stop offset=".885" stop-color="#ffdddc"/></linearGradient><linearGradient id="U" x1="115.236" x2="127.514" y1="123.689" y2="123.689" gradientUnits="userSpaceOnUse"><stop offset=".101" stop-color="#ff7638"/><stop offset=".885" stop-color="#ff3929"/></linearGradient><linearGradient id="V" x1="113.129" x2="128.055" y1="132.57" y2="148.762" gradientUnits="userSpaceOnUse"><stop offset=".102" stop-color="#915758"/><stop offset=".885" stop-color="#2c090b"/></linearGradient><linearGradient id="W" x1="126.181" x2="106.215" y1="117.924" y2="81.051" gradientUnits="userSpaceOnUse"><stop offset=".005" stop-color="#ffe77a"/><stop offset=".999" stop-color="#ff9103"/></linearGradient><linearGradient id="Y" x1="123.086" x2="123.308" y1="105.531" y2="98.304" gradientUnits="userSpaceOnUse"><stop offset=".005" stop-color="#ffe77a"/><stop offset=".999" stop-color="#ff9103"/></linearGradient><linearGradient id="Z" x1="106.368" x2="90.697" y1="11.656" y2="34.012" gradientUnits="userSpaceOnUse"><stop offset=".005" stop-color="#ad8cfb"/><stop offset=".999" stop-color="#795bf4"/></linearGradient><linearGradient id="ab" x1="103.96" x2="104.234" y1="68.933" y2="67.078" gradientUnits="userSpaceOnUse"><stop offset=".005" stop-color="#937afb"/><stop offset=".999" stop-color="#5a49f4"/></linearGradient><linearGradient id="ac" x1="95.316" x2="100.437" y1="8.028" y2="26.485" gradientUnits="userSpaceOnUse"><stop offset=".102" stop-color="#fcadba"/><stop offset=".885" stop-color="#fbdad9"/></linearGradient><linearGradient id="ae" x1="97.924" x2="100.735" y1="7.627" y2="25.89" gradientUnits="userSpaceOnUse"><stop offset=".101" stop-color="#ff7638"/><stop offset=".885" stop-color="#ff3929"/></linearGradient><linearGradient id="af" x1="98.427" x2="87.924" y1="3.13" y2="16.185" gradientUnits="userSpaceOnUse"><stop offset=".102" stop-color="#fcadba"/><stop offset=".885" stop-color="#fbdad9"/></linearGradient><linearGradient id="ag" x1="108.33" x2="100.11" y1="-1.487" y2="10.571" gradientUnits="userSpaceOnUse"><stop offset=".102" stop-color="#915758"/><stop offset=".885" stop-color="#2c090b"/></linearGradient><linearGradient id="ah" x1="84.434" x2="101.715" y1="25.483" y2="35.334" gradientUnits="userSpaceOnUse"><stop offset=".102" stop-color="#fff"/><stop offset=".885" stop-color="#cddefd"/></linearGradient><linearGradient id="aj" x1="102.706" x2="97.457" y1="42.517" y2="41.205" gradientUnits="userSpaceOnUse"><stop offset=".102" stop-color="#fff"/><stop offset=".885" stop-color="#cddefd"/></linearGradient><linearGradient id="ak" x1="101.464" x2="101.39" y1="71.032" y2="56.876" gradientUnits="userSpaceOnUse"><stop offset=".102" stop-color="#fff"/><stop offset=".885" stop-color="#e3ebfd"/></linearGradient><linearGradient id="al" x1="118.213" x2="105.463" y1="99.69" y2="92.184" gradientUnits="userSpaceOnUse"><stop offset=".102" stop-color="#fff"/><stop offset=".885" stop-color="#cddefd"/></linearGradient><linearGradient id="am" x1="116.329" x2="105.799" y1="9.955" y2="20.747" gradientUnits="userSpaceOnUse"><stop offset=".102" stop-color="#fff"/><stop offset=".885" stop-color="#e3ebfd"/></linearGradient><linearGradient id="ao" x1="124.585" x2="123.821" y1="70.448" y2="56.284" gradientUnits="userSpaceOnUse"><stop offset=".102" stop-color="#fff"/><stop offset=".885" stop-color="#e3ebfd"/></linearGradient><linearGradient id="ap" x1="103.569" x2="104.213" y1="43.457" y2="40.653" gradientUnits="userSpaceOnUse"><stop offset=".005" stop-color="#ff7860"/><stop offset=".999" stop-color="#972417"/></linearGradient><linearGradient id="aq" x1="101.191" x2="105.285" y1="43.161" y2="43.163" gradientUnits="userSpaceOnUse"><stop offset=".008" stop-color="#009efe"/><stop offset="1" stop-color="#005dfa"/></linearGradient><linearGradient id="ar" x1="118.231" x2="123.004" y1="29.127" y2="29.127" gradientUnits="userSpaceOnUse"><stop offset=".008" stop-color="#009efe"/><stop offset="1" stop-color="#005dfa"/></linearGradient><linearGradient id="as" x1="77.156" x2="79.529" y1="26.409" y2="33.409" gradientUnits="userSpaceOnUse"><stop offset=".005" stop-color="#ff7860"/><stop offset=".999" stop-color="#972417"/></linearGradient><linearGradient id="at" x1="71.611" x2="72.486" y1="26.397" y2="34.091" gradientUnits="userSpaceOnUse"><stop offset=".005" stop-color="#ff7860"/><stop offset=".999" stop-color="#972417"/></linearGradient><linearGradient id="au" x1="155.99" x2="155.729" y1="42.688" y2="38.332" gradientUnits="userSpaceOnUse"><stop offset=".102" stop-color="#dcdff8"/><stop offset=".885" stop-color="#f5f7fe"/></linearGradient><linearGradient id="av" x1="93.731" x2="76.945" y1="14.243" y2="72.884" gradientUnits="userSpaceOnUse"><stop stop-color="#00a6f0"/><stop offset="1" stop-color="#006ff1"/></linearGradient><linearGradient id="ax" x1="115.963" x2="117.121" y1="42.13" y2="50.987" gradientUnits="userSpaceOnUse"><stop offset=".101" stop-color="#ff7638"/><stop offset=".885" stop-color="#ff3929"/></linearGradient><linearGradient id="az" x1="115.976" x2="116.586" y1="39.309" y2="43.248" gradientUnits="userSpaceOnUse"><stop offset=".101" stop-color="#ff7638"/><stop offset=".885" stop-color="#ff3929"/></linearGradient><linearGradient id="aA" x1="95.347" x2="84.996" y1="56.237" y2="52.389" gradientUnits="userSpaceOnUse"><stop stop-color="#00a6f0"/><stop offset="1" stop-color="#006ff1"/></linearGradient><linearGradient id="aB" x1="69.072" x2="74.713" y1="65.352" y2="64.498" gradientUnits="userSpaceOnUse"><stop stop-color="#00a6f0"/><stop offset="1" stop-color="#006ff1"/></linearGradient><linearGradient id="aC" x1="122.814" x2="122.775" y1="40.417" y2="41.019" gradientUnits="userSpaceOnUse"><stop offset=".106" stop-color="#fff"/><stop offset=".888" stop-color="#fff" stop-opacity=".5"/></linearGradient><linearGradient id="aD" x1="121.195" x2="121.156" y1="40.553" y2="41.155" gradientUnits="userSpaceOnUse"><stop offset=".106" stop-color="#fff"/><stop offset=".888" stop-color="#fff" stop-opacity=".5"/></linearGradient><linearGradient id="aE" x1="119.576" x2="119.537" y1="40.688" y2="41.291" gradientUnits="userSpaceOnUse"><stop offset=".106" stop-color="#fff"/><stop offset=".888" stop-color="#fff" stop-opacity=".5"/></linearGradient><linearGradient id="aF" x1="117.956" x2="117.917" y1="40.824" y2="41.427" gradientUnits="userSpaceOnUse"><stop offset=".106" stop-color="#fff"/><stop offset=".888" stop-color="#fff" stop-opacity=".5"/></linearGradient><linearGradient id="aG" x1="116.337" x2="116.298" y1="40.96" y2="41.562" gradientUnits="userSpaceOnUse"><stop offset=".106" stop-color="#fff"/><stop offset=".888" stop-color="#fff" stop-opacity=".5"/></linearGradient><linearGradient id="aH" x1="114.718" x2="114.679" y1="41.102" y2="41.704" gradientUnits="userSpaceOnUse"><stop offset=".106" stop-color="#fff"/><stop offset=".888" stop-color="#fff" stop-opacity=".5"/></linearGradient><linearGradient id="aI" x1="113.099" x2="113.06" y1="41.232" y2="41.834" gradientUnits="userSpaceOnUse"><stop offset=".106" stop-color="#fff"/><stop offset=".888" stop-color="#fff" stop-opacity=".5"/></linearGradient><linearGradient id="aJ" x1="111.48" x2="111.441" y1="41.367" y2="41.97" gradientUnits="userSpaceOnUse"><stop offset=".106" stop-color="#fff"/><stop offset=".888" stop-color="#fff" stop-opacity=".5"/></linearGradient><linearGradient id="aK" x1="88.463" x2="78.775" y1="17.385" y2="18.671" gradientUnits="userSpaceOnUse"><stop stop-color="#00a6f0"/><stop offset="1" stop-color="#006ff1"/></linearGradient><linearGradient id="aL" x1="121.768" x2="127.433" y1="40.91" y2="40.91" gradientUnits="userSpaceOnUse"><stop offset=".102" stop-color="#ffafbc"/><stop offset=".885" stop-color="#ffdddc"/></linearGradient><linearGradient id="aM" x1="89.477" x2="77.259" y1="28.965" y2="47.694" gradientUnits="userSpaceOnUse"><stop offset=".102" stop-color="#ffafbc"/><stop offset=".885" stop-color="#ffdddc"/></linearGradient><linearGradient id="aO" x1="89.162" x2="77.643" y1="30.207" y2="39.704" gradientUnits="userSpaceOnUse"><stop offset=".101" stop-color="#ff7638"/><stop offset=".885" stop-color="#ff3929"/></linearGradient><linearGradient id="aP" x1="69.658" x2="74.467" y1="20.334" y2="52.215" gradientUnits="userSpaceOnUse"><stop offset=".102" stop-color="#fff"/><stop offset=".885" stop-color="#cddefd"/></linearGradient><linearGradient id="aQ" x1="102.498" x2="101.517" y1="5.098" y2="11.959" gradientUnits="userSpaceOnUse"><stop offset=".102" stop-color="#fff"/><stop offset=".885" stop-color="#e3ebfd"/></linearGradient><linearGradient id="aS" x1="108.13" x2="107.951" y1="7.564" y2="9.347" gradientUnits="userSpaceOnUse"><stop offset=".102" stop-color="#fff"/><stop offset=".885" stop-color="#dde4fd"/></linearGradient><linearGradient id="aT" x1="99.468" x2="93.89" y1="6.996" y2="23.515" gradientUnits="userSpaceOnUse"><stop offset=".102" stop-color="#fcadba"/><stop offset=".885" stop-color="#fbdad9"/></linearGradient><linearGradient id="aW" x1="108.543" x2="108.773" y1="36.8" y2="39.664" gradientUnits="userSpaceOnUse"><stop stop-color="#00bede"/><stop offset=".997" stop-color="#4a8bfd"/></linearGradient><linearGradient id="aX" x1="111.249" x2="111.506" y1="35.181" y2="36.104" gradientUnits="userSpaceOnUse"><stop offset=".101" stop-color="#ffe494"/><stop offset="1" stop-color="#ffae00"/></linearGradient><linearGradient id="aZ" x1="111.369" x2="111.4" y1="35.168" y2="35.35" gradientUnits="userSpaceOnUse"><stop offset=".101" stop-color="#ffe494"/><stop offset="1" stop-color="#ffae00"/></linearGradient><linearGradient id="ba" x1="106.374" x2="106.394" y1="34.428" y2="36.754" gradientUnits="userSpaceOnUse"><stop offset=".101" stop-color="#ffe494"/><stop offset="1" stop-color="#ffae00"/></linearGradient><radialGradient id="aU" cx="0" cy="0" r="1" gradientTransform="matrix(6.06879 0 0 3.89479 113.692 35.477)" gradientUnits="userSpaceOnUse"><stop stop-color="#00bede"/><stop offset=".997" stop-color="#4a8bfd"/></radialGradient><clipPath id="a"><rect width="200" height="130" x="4" y="4" fill="#fff" rx="8"/></clipPath></defs></svg>