<svg xmlns="http://www.w3.org/2000/svg" fill="none" viewBox="0 0 305 217" xmlns:xlink="http://www.w3.org/1999/xlink"><g clip-path="url(#a)"><path fill="url(#b)" d="m140.378 180.46-34.769-62.231-1.379-2.954v-61.59H73.726v61.589l-1.378 2.955-34.77 62.231c-8.579 15.354 2.52 34.27 20.109 34.27h62.583c17.588 0 28.687-18.916 20.108-34.27" opacity=".71"/><mask id="c" width="110" height="162" x="34" y="53" maskUnits="userSpaceOnUse" style="mask-type:luminance"><path fill="#fff" fill-rule="evenodd" d="m140.377 180.46-34.769-62.231-1.379-2.954v-61.59H73.726v61.59l-1.38 2.954-34.769 62.231c-8.578 15.354 2.52 34.27 20.109 34.27h62.583c17.588 0 28.687-18.916 20.108-34.27" clip-rule="evenodd"/></mask><g mask="url(#c)"><path fill="url(#d)" d="M73.726 77.536c.868-18.302 2.946-17.235 18.99-20.072 16.045-2.838-16.687-2.838-16.687-2.838l-11.304 1.378" opacity=".47"/></g><path fill="url(#e)" d="M96.447 159.688c-15.135-12.134-27.106-12-41.055-6.14l-13.968 24.999c-7.937 14.206 2.332 31.706 18.604 31.706h57.9c16.272 0 26.541-17.5 18.604-31.706l-11.478-20.543c-8.75 6.064-17.695 10.432-28.607 1.684"/><mask id="f" width="102" height="62" x="38" y="149" maskUnits="userSpaceOnUse" style="mask-type:luminance"><path fill="#fff" fill-rule="evenodd" d="M96.449 159.688c-15.135-12.134-27.107-12-41.056-6.14l-13.968 24.999c-7.936 14.206 2.332 31.706 18.604 31.706h57.9c16.273 0 26.541-17.5 18.605-31.706l-11.479-20.543c-8.75 6.064-17.695 10.432-28.607 1.684" clip-rule="evenodd"/></mask><g mask="url(#f)"><path fill="url(#g)" d="M61.676 149.066c-21.874 57.141 33.41 53.715 67.485 58.022 34.074 4.306-34.769 12.56-40.181 12.201-5.413-.359-57.09-10.407-59.243-10.766s-10.407-34.092-2.871-42.705 14.355-20.097 14.355-20.097" opacity=".41"/></g><rect width="39.566" height="5.675" x="69.196" y="51.789" fill="url(#h)" rx="2.837"/><circle cx="71.733" cy="176.587" r="1.511" fill="#fff" opacity=".2"/><circle cx="88.95" cy="175.515" r="2.088" fill="#fff" opacity=".2"/><circle cx="75.452" cy="185.212" r="1.291" fill="#fff" opacity=".2"/><circle cx="123.849" cy="187.976" r="4.97" fill="#fff" opacity=".2"/><path fill="url(#i)" d="M195.209 209.299h28.917l-12.368-80.084-16.282-23.307-11.126 29.163z"/><path fill="url(#j)" d="M181.333 176.237c24.517 1.945 39.918-10.942 39.918-10.942s-1.33-49.957-11.093-58.336c-5.088-4.366-27.578-1.069-27.578-1.069z"/><mask id="k" width="41" height="73" x="181" y="104" maskUnits="userSpaceOnUse" style="mask-type:luminance"><path fill="#fff" fill-rule="evenodd" d="M181.333 176.237c24.517 1.945 39.918-10.942 39.918-10.942s-1.33-49.957-11.093-58.336c-5.088-4.366-27.578-1.069-27.578-1.069z" clip-rule="evenodd"/></mask><g mask="url(#k)"><path fill="url(#l)" d="M183.252 183.807c13.015.573 29.555-25.859 22.575-42.744s-24.493 5.468-24.493 5.468l-9.148 13.463-1.551 16.443"/></g><circle cx="158.27" cy="102.593" r="20.872" fill="url(#m)"/><circle cx="177.874" cy="87.472" r="20.872" fill="url(#n)"/><path fill="url(#o)" d="m93.617 208.041 85.945 3.825 13.413-31.605s15.995-10.625 12.852-39.198l-6.122-35.174-73.041 1.505z"/><mask id="p" width="114" height="107" x="93" y="105" maskUnits="userSpaceOnUse" style="mask-type:luminance"><path fill="#fff" fill-rule="evenodd" d="m93.616 208.041 85.945 3.825 13.413-31.605s15.995-10.625 12.852-39.198l-6.122-35.174-73.041 1.505z" clip-rule="evenodd"/></mask><g mask="url(#p)"><path fill="url(#q)" d="M148.934 141.221c-17.22 41.77-20.05 53.438 3.681 53.595 23.73.157 7.48 3.638 7.48 3.638s-11.798 8.403 5.021 9.587-55.424 10.739-55.424 10.739l-19.877-7.644 22.934-53.533z"/></g><path fill="url(#r)" d="m107.447 198.612 36.775-60.348-26.088-12.259-46.716 69.684z"/><mask id="s" width="74" height="73" x="71" y="126" maskUnits="userSpaceOnUse" style="mask-type:luminance"><path fill="#fff" fill-rule="evenodd" d="m107.447 198.612 36.774-60.348-26.088-12.259-46.716 69.684z" clip-rule="evenodd"/></mask><g mask="url(#s)"><path fill="url(#t)" d="M75 166.688c36.718 18.143 51.083 9.678 49.317 5.976s-27.367-15.06-27.367-15.06h-8.99" opacity=".34"/></g><path fill="url(#u)" d="m87.016 198.093-1.223 2.16c-1.196 7.478 2.362 12.527 9.935 12.527l47.864 1.154c6.915 0 16.502-15.48 16.502-15.48s5.893.786 7.543-3.771c0 0 5.107.301 6.364-3.471 0 0 2.8 2.64 4.3 3.918 1.29 1.099 6.221-2.738-1.911-9.938l-7.312-5.839s3.274-1.614 5.16-1.142c1.886.471 5.21 4.735 8.643 2.672 2.279-1.37-6.6-8.644-9.429-9.43s-15.873 2.043-17.13 2.829-12.416 20.243-12.416 20.243l-60.665-5.163c-6.423-.546 4.793 2.366 3.775 8.731"/><circle cx="184.198" cy="57.873" r="20.872" fill="url(#v)"/><path fill="url(#w)" d="m188.592 90.524-11.846 24.103-17.386-6.647 14.815-23.345z"/><mask id="x" width="30" height="31" x="159" y="84" maskUnits="userSpaceOnUse" style="mask-type:luminance"><path fill="#fff" fill-rule="evenodd" d="m188.592 90.525-11.847 24.102-17.386-6.647 14.815-23.345z" clip-rule="evenodd"/></mask><g mask="url(#x)"><path fill="url(#y)" d="M174.746 87.472c13.665 6.78 2.946 15.221 5.327 22.805 2.382 7.584 13.289-16.736 13.289-16.736l-3.448-5.704z" opacity=".34"/></g><path fill="url(#z)" d="M171.104 86.421c31.027 26.514 42.121-21.812 14.856-32.538-30.887-12.15-14.856 32.538-14.856 32.538"/><circle cx="163.325" cy="69.652" r="20.872" fill="url(#A)"/><ellipse cx="181.538" cy="51.789" fill="url(#B)" rx="10.903" ry="7.524"/><path fill="url(#C)" d="M127.93 207.547h54.815v7.098h-61.914a7.097 7.097 0 0 1 7.099-7.098"/><path fill="url(#D)" d="M255.248 214.644h-84.974l31.319-52.227c1.517-2.529 5.622-4.579 9.169-4.579h74.308c3.547 0 5.193 2.05 3.676 4.579l-30.197 50.358a3.85 3.85 0 0 1-3.301 1.869"/><mask id="E" width="120" height="58" x="170" y="157" maskUnits="userSpaceOnUse" style="mask-type:luminance"><path fill="#fff" fill-rule="evenodd" d="M255.248 214.644h-84.974l31.319-52.227c1.517-2.529 5.622-4.579 9.169-4.579h74.308c3.547 0 5.193 2.05 3.676 4.579l-30.197 50.358a3.85 3.85 0 0 1-3.301 1.869" clip-rule="evenodd"/></mask><g mask="url(#E)"><path fill="url(#F)" d="M247.14 149.256c59.18 19.376 9.812 72.488-54.7 65.389-64.511-7.098 75.435 30.878 75.435 30.878L302 217.013l12.312-67.172"/></g><path fill="url(#G)" d="M237.212 185.293c-2.174 0-3.183-1.258-2.253-2.808.485-.809 1.406-1.533 2.48-2.045a10 10 0 0 0-2.846-.386c-5.064 0-10.924 2.928-13.09 6.539-2.165 3.611.185 6.538 5.249 6.538 5.063 0 10.923-2.927 13.089-6.538.462-.772.707-1.508.775-2.195-1.047.547-2.27.895-3.404.895"/><path fill="url(#H)" d="M142.207 189.354c9.159 14.777 2.014 27.646 2.014 27.646l-54.96-2.356c-19.024 0-19.518-9.078-19.002-19.927a19 19 0 0 1 2.23-8.074c8.45-15.758 39.14-75.647 50.423-78.78 13.015-3.614 30.137 14.247 29.701 30.374l-34.579 48.004z"/><g opacity=".44"><rect width="17.827" height="11.441" x="186.114" y="144.011" fill="url(#I)" rx="1.488" transform="rotate(-5.207 186.114 144.011)"/><mask id="J" width="19" height="14" x="186" y="142" maskUnits="userSpaceOnUse" style="mask-type:luminance"><rect width="17.827" height="11.441" x="186.115" y="144.011" fill="#fff" rx="1.488" transform="rotate(-5.207 186.115 144.011)"/></mask><g mask="url(#J)"><path fill="url(#K)" d="M186.241 154.872c17.185-.949 17.83-.611 18.148-6.781.317-6.171 3.506 5.424 3.506 5.424l-4.202 3.193-18.036.112"/></g><circle cx="191.098" cy="148.889" r="2.562" fill="#fff"/><path fill="#fff" d="m195.207 146.088 6.973-.635.057.623-6.973.635zm.194 2.126 6.973-.635.057.623-6.973.635zm.194 2.126 5.095-.464.057.623-5.095.464z"/><path fill="url(#L)" d="M194.62 139.127a2.17 2.17 0 0 1 2.359 1.965l.174 1.913-4.324.394-.174-1.913a2.17 2.17 0 0 1 1.965-2.359"/><mask id="M" width="6" height="5" x="192" y="139" maskUnits="userSpaceOnUse" style="mask-type:luminance"><path fill="#fff" fill-rule="evenodd" d="M194.62 139.127a2.17 2.17 0 0 1 2.359 1.965l.174 1.913-4.324.394-.174-1.913a2.17 2.17 0 0 1 1.965-2.359" clip-rule="evenodd"/></mask><g mask="url(#M)"><path fill="url(#N)" d="M197.335 141.068c-.399 1.464-4.656 1.337-5.014 1.799-.357.461 1.16 1.031 1.16 1.031l4.286-.391-.214-1.926"/></g><path fill="url(#O)" d="M189.835 143.088h10.28v2.264h-10.28z" transform="rotate(-5.21 189.835 143.088)"/></g><path fill="url(#P)" d="m183.993 113.685 4.896 8.314-2.544 27.485-16.249 2.97-12.427-29.073 1.835-10 11.095 1.38 6.109-.433 4.856.111"/><path fill="url(#Q)" d="m177.28 119.818 9.213 27.83-4.994 26.281-4.695-3.001-6.202-23.059 1.479-29.589z"/><path fill="url(#R)" d="m180.179 113.853-2.651 6.254c-.65 1.535-2.042 2.505-3.668 2.557l-1.313.041c-1.606.051-3.212-.801-4.244-2.254l-3.739-5.259 8.213-1.011z"/><path fill="url(#S)" d="M185.464 107.059s-1.093-5.147-2.499-5.085c0 0-4.418 8.509-7.34 11.879l6.186 10.034s7.122-10.697 3.653-16.828"/><path fill="url(#T)" d="M157.438 107.667s1.544-5.427 6.048-6.189c0 0 5.962 8.924 14.633 12.376l-8.314 10.444s-14.132-10.269-12.367-16.631"/><path fill="#fff" d="M184.913 105.026s-3.643 59.88-6.366 66.611l2.787 4.599 13.4-35.185-5.361-6.26 8.599-3.378-9.083-24.021s-.133-2.366-3.976-2.366"/><path fill="#fff" d="m159.591 103.892 21.742 72.344-26.391-30.802 6.567-9.431-8.887-4.375 2.147-20.953s-.358-4.718 4.822-6.783"/><circle cx="171.401" cy="198.211" r="2.268" fill="#fff"/><path fill="url(#U)" d="M202.035 74.018c-1.416-3.135-7.512 6.776-19.349 2.988-2.007.253-.42 13.77-3.543 14.147 18.212 18.862 27.932-1.3 22.892-17.135"/><path fill="#fff" d="m186.466 79.528-2.689-1.951-10.471-2.023.823 1.177 10.017 3.166M181.3 89.923l-11.624-4.889 10.488 6.783 1.059-.988"/><path fill="url(#V)" d="M181.898 79.186c-17.202-14.103-21.926 10.545-2.755 9.622z"/><rect width="52.252" height="52.252" x="211.324" y="52.621" fill="url(#W)" rx="4.758"/><rect width="52.252" height="52.252" x="211.324" y="54.92" fill="url(#X)" rx="4.758"/><path fill="#51b1a6" fill-rule="evenodd" d="M236.186 79.78h-20.239V59.542h20.239zm-5.06-15.178h-10.119v10.12h10.119zm7.59-5.06V79.78h20.239V59.54zm5.06 15.18h10.119v-10.12h-10.119zm-20.239-2.53h5.06v-5.06h-5.06zm12.649 30.358h-20.239V82.311h20.239zm-15.179-15.18h10.119v10.12h-10.119zm30.358-20.238h.001zm-5.059 0h5.059v5.06h-5.059zm-7.59 35.418h5.06v-5.06h-5.06zm5.06-5.06V87.37h5.06v10.12zm10.119 0h-5.059v5.06h10.119V92.43h-5.06zm5.06-10.12h-5.06v-5.059h5.06zm-20.239-5.059v5.06h5.06v-5.06zm-10.119 12.65h-5.06V89.9h5.06z" clip-rule="evenodd"/><path fill="url(#Y)" d="m35.99 98.799 4.908.625a22 22 0 0 1-3.361-.7l-4.909-.627c1.1.323 2.224.557 3.361.702"/><mask id="Z" width="9" height="2" x="32" y="98" maskUnits="userSpaceOnUse" style="mask-type:luminance"><path fill="#fff" fill-rule="evenodd" d="m35.99 98.799 4.908.625a22 22 0 0 1-3.361-.7l-4.909-.627c1.1.323 2.224.557 3.361.702" clip-rule="evenodd"/></mask><g mask="url(#Z)"><path fill="url(#aa)" d="m35.99 98.799 4.908.625-.187-.024-4.908-.626z"/></g><path fill="url(#ab)" d="M61.719 95.151a9 9 0 0 0-.218-.54l-.029-.06a7 7 0 0 0-.498-.9l-.081-.124a5 5 0 0 0-.288-.367l-.067-.072a4 4 0 0 0-.273-.27l-.064-.058q-.173-.148-.366-.273a3 3 0 0 0-.254-.143l-.084-.039a3 3 0 0 0-.168-.073 3 3 0 0 0-.18-.06c-.037-.011-.075-.025-.112-.034a3 3 0 0 0-.203-.041l-.104-.02 4.909.626.023.003.08.017q.102.015.203.04.057.016.114.035.09.027.178.06l.036.012q.066.028.133.06l.083.04a3 3 0 0 1 .62.416l.065.059q.07.059.138.125c.046.045.09.096.134.144l.067.072q.135.152.26.324l.028.043q.042.06.082.123a6 6 0 0 1 .29.486c.025.046.052.088.076.136q.069.135.132.28l.029.06a9 9 0 0 1 .264.671c.068.193.134.39.195.6v.002q.104.355.193.741l.007.034.006.028.009.036.007.032.014.063.01.042.017.077.013.058.082.347.027.11.024.097.033.136.024.097.04.158.025.1.15.576.03.117.055.207.038.138.055.204.042.153.06.216.156.553.067.232.047.162q.08.279.169.572l.03.099.174.57.025.082.2.641.046.139q.106.334.22.68l.019.057q.107.326.221.663l.05.145.246.715.052.146q.122.348.251.705l.027.074q.138.38.284.769l.065.173q.147.39.3.787l.038.097q.144.369.295.744l.062.156q.162.402.332.811l.07.164a85 85 0 0 0 .365.861q.183.422.375.848l.081.182q.19.422.389.848l.057.122q.186.395.378.791l.069.144q.208.424.423.852l.095.187q.194.38.392.759l.043.082q.218.41.441.82l.107.193q.222.404.451.804l.015.026q.234.41.477.816l.118.196q.244.406.496.81l.028.045q.24.383.49.764l.125.19q.261.396.528.787l.064.091q.245.354.497.704l.117.163q.388.533.79 1.054l.087.112q.414.53.844 1.044l.071.086q.446.53.908 1.039l.045.051q.486.533.991 1.043l1.889 1.922-4.909-.625-1.888-1.923q-.506-.51-.991-1.043l-.046-.051q-.462-.51-.907-1.038l-.072-.087a40 40 0 0 1-.843-1.044l-.087-.113a44 44 0 0 1-.79-1.053l-.042-.055-.076-.108a48 48 0 0 1-.496-.703l-.064-.092a44 44 0 0 1-.653-.976q-.249-.382-.492-.767l-.026-.042a50 50 0 0 1-.615-1.008q-.242-.407-.477-.815l-.013-.023a54 54 0 0 1-.452-.805l-.108-.197a77 77 0 0 1-.44-.817l-.043-.083a61 61 0 0 1-.393-.759l-.055-.107-.04-.08a65 65 0 0 1-.423-.852l-.07-.145a72 72 0 0 1-.375-.788l-.059-.124a74 74 0 0 1-.388-.847l-.083-.184a80 80 0 0 1-.373-.846l-.023-.054a69 69 0 0 1-.745-1.783l-.062-.155q-.15-.375-.294-.745l-.038-.097a75 75 0 0 1-.301-.787l-.065-.173-.284-.769-.026-.074-.252-.706-.051-.144a85 85 0 0 1-.518-1.524l-.019-.057-.22-.679-.045-.14-.2-.638-.028-.09a73 73 0 0 1-.37-1.235l-.015-.05-.033-.113-.066-.23-.05-.174-.166-.597-.043-.153-.055-.204-.037-.137-.087-.325-.058-.223-.024-.092-.066-.257-.03-.12-.035-.141-.058-.234-.023-.096-.027-.11-.023-.095-.02-.084-.02-.085-.02-.084-.013-.058-.027-.118-.014-.063-.007-.032-.008-.037-.006-.028-.008-.034q-.088-.386-.192-.74a11 11 0 0 0-.242-.735"/><path fill="url(#ac)" d="M31.508 211.811a131 131 0 0 0 3.963-2.283l.26-.158q.777-.47 1.535-.947l.323-.202a104 104 0 0 0 3.455-2.286l.172-.118a88 88 0 0 0 1.55-1.103l.346-.253q.764-.56 1.509-1.128l.118-.092q.7-.538 1.38-1.085l.307-.247q.709-.574 1.396-1.156l.25-.214q.621-.531 1.226-1.071l.225-.199q.663-.596 1.306-1.203l.286-.271a83 83 0 0 0 1.248-1.214l.048-.048a70 70 0 0 0 1.513-1.562q.6-.638 1.181-1.284l.154-.174q.53-.596 1.042-1.201l.226-.266a66 66 0 0 0 1.09-1.33l.216-.274q.492-.624.97-1.258l.134-.175a67 67 0 0 0 1.24-1.719q.502-.715.987-1.443l.046-.071q.466-.704.913-1.423l.203-.324c.183-.297.36-.597.54-.897q.266-.442.527-.889.242-.423.479-.85.254-.45.503-.906.231-.433.46-.87.241-.46.48-.926.221-.442.438-.889.232-.47.458-.946.285-.603.56-1.216.104-.225.206-.452.382-.862.748-1.741l.15-.37q.287-.702.566-1.415.119-.308.236-.618a88 88 0 0 0 1.17-3.271l.145-.426q.306-.926.598-1.871l.138-.46q.229-.754.449-1.519l.136-.481q.27-.952.524-1.923l7.3-27.921a8 8 0 0 0 .172-.832l.015-.104q.042-.295.065-.587l.004-.083a8 8 0 0 0 .01-.842l-.004-.096a8 8 0 0 0-.022-.293l-.006-.075a7 7 0 0 0-.047-.355l-.017-.093a6 6 0 0 0-.047-.248l-.03-.122-.051-.202-.032-.106a5 5 0 0 0-.087-.258l-.036-.096a3 3 0 0 0-.262-.534l-.042-.064q-.052-.082-.107-.157l4.908.626.03.039q.04.057.078.118l.041.063q.065.106.123.221l.001.001q.074.15.138.312l.037.097q.046.125.086.258l.021.062.011.044q.028.098.052.201l.03.124q.025.12.046.246l.017.094q.028.174.047.354l.007.08q.013.143.022.288l.002.027.001.071a8 8 0 0 1-.01.84l-.002.068-.002.016q-.022.291-.065.587-.002.03-.006.058l-.009.046a8 8 0 0 1-.092.497l-.004.025a9 9 0 0 1-.075.31l-7.3 27.921a111 111 0 0 1-.66 2.403l-.14.489c-.1.347-.206.689-.31 1.032q-.067.23-.138.459-.291.945-.598 1.872l-.144.424a97 97 0 0 1-.707 2.023l-.2.556q-.13.348-.264.693-.117.31-.236.618-.278.714-.566 1.415-.074.186-.15.37a79 79 0 0 1-.747 1.74q-.103.229-.208.456-.21.472-.426.939l-.132.273q-.227.476-.459.948-.217.446-.438.888-.238.466-.481.927-.227.436-.458.868-.25.457-.504.909-.237.426-.479.847-.26.447-.527.89c-.125.209-.246.421-.372.629q-.083.134-.168.267l-.203.325q-.448.716-.911 1.421l-.048.073a60 60 0 0 1-1.212 1.764q-.498.705-1.015 1.397l-.133.176q-.477.635-.97 1.257l-.217.275q-.535.67-1.089 1.329l-.227.267a69 69 0 0 1-1.04 1.199l-.156.176a67 67 0 0 1-1.453 1.571 70 70 0 0 1-1.24 1.274l-.052.052q-.612.61-1.245 1.211l-.285.27a74 74 0 0 1-2.757 2.473l-.25.215q-.688.582-1.395 1.155l-.31.249q-.68.545-1.376 1.082l-.121.094a80 80 0 0 1-1.856 1.381q-.765.556-1.55 1.103l-.168.116q-.734.507-1.488 1.008l-.337.225q-.806.53-1.632 1.054l-.325.204q-.758.475-1.534.946l-.26.158a111 111 0 0 1-2.136 1.253q-.902.518-1.827 1.029c-.342.199-.72.331-1.111.39a2.6 2.6 0 0 1-.669.006l-4.908-.626c.591.075 1.194-.067 1.78-.395"/><mask id="ad" width="56" height="85" x="29" y="128" maskUnits="userSpaceOnUse" style="mask-type:luminance"><path fill="#fff" fill-rule="evenodd" d="M31.508 211.811a132 132 0 0 0 3.963-2.283l.26-.158a101 101 0 0 0 1.858-1.149q.826-.524 1.631-1.055l.34-.226q.75-.5 1.483-1.005l.172-.118a87 87 0 0 0 1.55-1.103l.347-.253q.764-.56 1.508-1.128l.12-.092q.698-.538 1.378-1.085l.308-.247a85 85 0 0 0 1.396-1.157l.25-.213a76 76 0 0 0 2.757-2.473l.285-.271q.633-.603 1.249-1.214l.048-.048a71 71 0 0 0 1.513-1.562q.6-.638 1.181-1.284l.153-.174q.529-.596 1.043-1.202l.226-.265q.553-.659 1.09-1.33l.216-.275q.493-.623.97-1.257l.134-.176a62 62 0 0 0 1.24-1.718 77 77 0 0 0 1.033-1.514q.465-.704.913-1.423l.203-.325c.183-.296.36-.597.54-.896q.266-.443.526-.889c.163-.281.32-.566.48-.85q.254-.45.502-.906.233-.433.46-.87.243-.46.48-.926.222-.442.439-.889.231-.47.458-.946.285-.603.56-1.216l.206-.452q.382-.862.748-1.741l.15-.37q.287-.702.565-1.415.12-.308.236-.618a90 90 0 0 0 1.17-3.271q.074-.212.145-.426.307-.926.598-1.871l.139-.46a112 112 0 0 0 .585-2.001q.27-.951.524-1.922l7.3-27.921a8 8 0 0 0 .172-.832l.014-.104q.044-.296.065-.587l.005-.083a8 8 0 0 0 .01-.842l-.004-.096a7 7 0 0 0-.023-.293l-.006-.075a7 7 0 0 0-.047-.355q-.007-.047-.016-.093a6 6 0 0 0-.048-.248l-.029-.122-.052-.202q-.014-.054-.032-.106a5 5 0 0 0-.086-.258l-.036-.096a3 3 0 0 0-.262-.534l-.042-.064q-.052-.082-.107-.157l4.908.625.03.04q.04.057.077.118.022.03.042.063.065.106.123.221v.001q.075.15.139.312l.036.097q.047.125.087.258l.02.062q.007.021.012.044.028.098.051.201l.03.123q.025.122.047.246l.017.095q.027.174.047.354l.006.08q.015.143.022.288l.002.027.002.071a8 8 0 0 1-.01.84q0 .034-.002.067l-.002.017q-.022.291-.065.587l-.006.058-.009.046a8 8 0 0 1-.092.497l-.005.025a8 8 0 0 1-.074.31l-7.3 27.921a108 108 0 0 1-.66 2.403l-.14.489c-.1.347-.206.688-.31 1.032q-.068.23-.138.458a93 93 0 0 1-.598 1.872l-.144.425a96 96 0 0 1-.707 2.023l-.2.556c-.086.233-.177.462-.264.693q-.117.31-.236.618-.278.714-.566 1.415l-.15.37a79 79 0 0 1-.748 1.74l-.207.456q-.21.472-.427.939l-.131.273q-.226.476-.46.948-.216.446-.437.888-.238.466-.481.927-.226.436-.459.868-.249.456-.504.908-.236.427-.478.848-.26.447-.527.89c-.125.209-.246.421-.373.629l-.167.267-.203.325a76 76 0 0 1-.912 1.421l-.047.073a60 60 0 0 1-1.212 1.764q-.5.705-1.015 1.397l-.133.176q-.478.635-.97 1.257l-.218.275q-.536.67-1.088 1.329l-.227.267q-.514.605-1.04 1.199-.079.087-.156.176a67 67 0 0 1-1.453 1.571 70 70 0 0 1-1.24 1.274l-.052.052q-.613.61-1.245 1.211l-.285.27q-.645.607-1.307 1.203l-.225.2q-.604.539-1.225 1.07l-.251.215q-.687.582-1.395 1.155l-.31.249q-.68.545-1.375 1.082l-.122.094a80 80 0 0 1-1.855 1.381q-.765.555-1.55 1.103l-.169.116q-.734.507-1.487 1.008l-.337.224a106 106 0 0 1-3.492 2.205l-.259.158a111 111 0 0 1-2.136 1.253q-.902.518-1.827 1.029a3.2 3.2 0 0 1-1.111.39 2.6 2.6 0 0 1-.669.006l-4.908-.626c.591.075 1.194-.067 1.78-.395" clip-rule="evenodd"/></mask><g mask="url(#ad)"><path fill="url(#ae)" d="M88.017 136.636C59.713 225.28 5.158 212.225 5.158 212.225l48.402 15.106 38.147-42.249"/></g><path fill="url(#af)" d="M59.835 92.487c-1.006-.639-2.11-.544-3.14.137l-.31.243c-.114.088-11.356 8.863-23.755 5.23l-2.144-.627c-1.05-.128-2.177 1.073-2.699 3.069l-7.3 27.922c-6.102 23.336-4.274 47.337 6.106 80.258.458 1.421 1.145 2.51 2.046 3.082.919.584 1.916.543 2.869.009 22.168-12.221 34.23-27.392 40.33-50.717l7.3-27.922c.519-1.985.275-4.086-.525-5.147l-1.889-1.923c-10.449-10.526-14.48-29.055-14.57-29.475-.475-2.052-1.245-3.456-2.32-4.14"/><mask id="ag" width="63" height="121" x="17" y="92" maskUnits="userSpaceOnUse" style="mask-type:luminance"><path fill="#fff" fill-rule="evenodd" d="M59.835 92.487c-1.006-.639-2.11-.544-3.14.137l-.31.243c-.114.088-11.356 8.863-23.755 5.23l-2.144-.627c-1.05-.128-2.177 1.073-2.699 3.069l-7.3 27.922c-6.102 23.336-4.274 47.337 6.106 80.258.458 1.421 1.145 2.51 2.046 3.082.919.584 1.916.543 2.869.009 22.168-12.221 34.23-27.392 40.33-50.717l7.3-27.922c.519-1.985.275-4.086-.525-5.147l-1.889-1.923c-10.449-10.526-14.48-29.055-14.57-29.475-.475-2.052-1.245-3.456-2.32-4.14" clip-rule="evenodd"/></mask><g mask="url(#ag)"><path fill="url(#ah)" d="M79.411 119.049C84.71 186.639 17 215.846 17 215.846l60.457 4.102 26.147-80.072-19.286-33.96"/></g><path fill="url(#ai)" d="M55.879 104.121c-.788-.501-1.653-.427-2.461.107l-.243.19c-.09.07-8.899 6.946-18.616 4.098l-1.68-.491c-.822-.1-1.705.841-2.114 2.406l-5.721 21.88c-4.782 18.288-3.35 37.096 4.785 62.894.358 1.114.897 1.967 1.603 2.415.72.458 1.502.427 2.248.007 17.372-9.576 26.825-21.465 31.604-39.744l5.721-21.88c.407-1.556.216-3.203-.411-4.034l-1.48-1.507c-8.188-8.248-11.348-22.769-11.419-23.098-.371-1.608-.975-2.708-1.816-3.243"/><mask id="aj" width="50" height="95" x="22" y="103" maskUnits="userSpaceOnUse" style="mask-type:luminance"><path fill="#fff" fill-rule="evenodd" d="M55.878 104.121c-.788-.501-1.653-.426-2.46.107l-.244.191c-.089.069-8.898 6.946-18.615 4.098l-1.68-.491c-.823-.101-1.706.841-2.115 2.405l-5.721 21.881c-4.781 18.287-3.35 37.095 4.785 62.894.359 1.113.898 1.967 1.603 2.415.72.458 1.502.426 2.249.007 17.371-9.577 26.824-21.466 31.604-39.744l5.72-21.881c.407-1.556.216-3.202-.41-4.033l-1.48-1.507c-8.19-8.249-11.349-22.769-11.42-23.099-.371-1.607-.974-2.708-1.816-3.243" clip-rule="evenodd"/></mask><g mask="url(#aj)"><path fill="url(#ak)" d="M54.54 108.405c-.88-.501-1.847-.426-2.75.107l-.271.191c-.1.069-9.943 6.946-20.8 4.098l-1.878-.491c-.92-.101-1.906.841-2.363 2.405l-6.393 21.881c-5.342 18.287-3.742 37.095 5.348 62.894.4 1.113 1.002 1.967 1.79 2.415.806.458 1.679.426 2.513.007 19.41-9.577 29.973-21.466 35.313-39.744l6.393-21.881c.455-1.556.24-3.202-.46-4.034l-1.653-1.506c-9.15-8.249-12.68-22.769-12.76-23.099-.415-1.608-1.089-2.708-2.03-3.243"/><mask id="al" width="55" height="95" x="17" y="108" maskUnits="userSpaceOnUse" style="mask-type:luminance"><path fill="#fff" fill-rule="evenodd" d="M54.54 108.405c-.88-.501-1.847-.426-2.75.107l-.271.191c-.1.069-9.943 6.946-20.8 4.098l-1.878-.491c-.92-.101-1.906.841-2.363 2.405l-6.393 21.881c-5.342 18.287-3.742 37.095 5.348 62.894.4 1.113 1.002 1.967 1.79 2.415.806.458 1.679.426 2.513.007 19.41-9.577 29.973-21.466 35.313-39.744l6.393-21.881c.455-1.556.24-3.202-.46-4.034l-1.653-1.506c-9.15-8.249-12.68-22.769-12.76-23.099-.415-1.608-1.089-2.708-2.03-3.243" clip-rule="evenodd"/></mask><g mask="url(#al)"><path fill="url(#am)" d="m96.356 103.784-41.816 4.621s-19.222 59.942-23.108 89.216c-3.887 29.274 52.886 1.317 52.886 1.317l17.362-91.817"/></g></g></g><defs><linearGradient id="b" x1="34.619" x2="143.337" y1="214.73" y2="214.73" gradientUnits="userSpaceOnUse"><stop offset=".102" stop-color="#dcdff8"/><stop offset=".885" stop-color="#f5f7fe"/></linearGradient><linearGradient id="d" x1="64.725" x2="97.143" y1="77.536" y2="77.536" gradientUnits="userSpaceOnUse"><stop offset=".102" stop-color="#dcdff8"/><stop offset=".885" stop-color="#f5f7fe"/></linearGradient><linearGradient id="g" x1="87.4" x2="84.954" y1="145.804" y2="160.7" gradientUnits="userSpaceOnUse"><stop stop-color="#00ded8"/><stop offset=".997" stop-color="#4aaafd"/></linearGradient><linearGradient id="h" x1="69.196" x2="108.762" y1="57.464" y2="57.464" gradientUnits="userSpaceOnUse"><stop offset=".102" stop-color="#dcdff8"/><stop offset=".885" stop-color="#f5f7fe"/></linearGradient><linearGradient id="i" x1="184.35" x2="224.126" y1="209.298" y2="209.298" gradientUnits="userSpaceOnUse"><stop offset=".102" stop-color="#fff"/><stop offset=".885" stop-color="#e3ebfd"/></linearGradient><linearGradient id="j" x1="195.803" x2="122.25" y1="10.518" y2="91.848" gradientUnits="userSpaceOnUse"><stop offset=".102" stop-color="#fff"/><stop offset=".885" stop-color="#e3ebfd"/></linearGradient><linearGradient id="l" x1="166.194" x2="168.658" y1="210.12" y2="207.34" gradientUnits="userSpaceOnUse"><stop offset=".102" stop-color="#fff"/><stop offset=".885" stop-color="#cddefd"/></linearGradient><linearGradient id="m" x1="197.541" x2="158.93" y1="28.212" y2="65.067" gradientUnits="userSpaceOnUse"><stop offset=".102" stop-color="#915758"/><stop offset=".885" stop-color="#2c090b"/></linearGradient><linearGradient id="n" x1="199.471" x2="160.86" y1="29.962" y2="66.818" gradientUnits="userSpaceOnUse"><stop offset=".102" stop-color="#915758"/><stop offset=".885" stop-color="#2c090b"/></linearGradient><linearGradient id="o" x1="130.312" x2="101.537" y1="18.157" y2="134.212" gradientUnits="userSpaceOnUse"><stop offset=".102" stop-color="#fff"/><stop offset=".885" stop-color="#e3ebfd"/></linearGradient><linearGradient id="q" x1="113.207" x2="115.487" y1="242.89" y2="238.297" gradientUnits="userSpaceOnUse"><stop offset=".102" stop-color="#fff"/><stop offset=".885" stop-color="#cddefd"/></linearGradient><linearGradient id="r" x1="71.418" x2="144.222" y1="198.612" y2="198.612" gradientUnits="userSpaceOnUse"><stop offset=".102" stop-color="#fcadba"/><stop offset=".885" stop-color="#fbdad9"/></linearGradient><linearGradient id="t" x1="75" x2="124.461" y1="177.894" y2="177.894" gradientUnits="userSpaceOnUse"><stop offset=".101" stop-color="#ff7638"/><stop offset=".885" stop-color="#ff3929"/></linearGradient><linearGradient id="u" x1="81.244" x2="183.251" y1="213.934" y2="213.934" gradientUnits="userSpaceOnUse"><stop offset=".102" stop-color="#fcadba"/><stop offset=".885" stop-color="#fbdad9"/></linearGradient><linearGradient id="v" x1="188.366" x2="149.755" y1="16.999" y2="53.855" gradientUnits="userSpaceOnUse"><stop offset=".102" stop-color="#915758"/><stop offset=".885" stop-color="#2c090b"/></linearGradient><linearGradient id="w" x1="190.215" x2="147.948" y1="42.216" y2="83.409" gradientUnits="userSpaceOnUse"><stop offset=".102" stop-color="#fcadba"/><stop offset=".885" stop-color="#fbdad9"/></linearGradient><linearGradient id="y" x1="195.77" x2="161.101" y1="51.092" y2="72.017" gradientUnits="userSpaceOnUse"><stop offset=".101" stop-color="#ff7638"/><stop offset=".885" stop-color="#ff3929"/></linearGradient><linearGradient id="z" x1="185.382" x2="129.155" y1="19.927" y2="57.992" gradientUnits="userSpaceOnUse"><stop offset=".102" stop-color="#fcadba"/><stop offset=".885" stop-color="#fbdad9"/></linearGradient><linearGradient id="A" x1="184.298" x2="145.687" y1="12.737" y2="49.593" gradientUnits="userSpaceOnUse"><stop offset=".102" stop-color="#915758"/><stop offset=".885" stop-color="#2c090b"/></linearGradient><linearGradient id="B" x1="175.783" x2="153.365" y1="18.47" y2="63.405" gradientUnits="userSpaceOnUse"><stop offset=".102" stop-color="#915758"/><stop offset=".885" stop-color="#2c090b"/></linearGradient><linearGradient id="C" x1="-218.827" x2="-218.434" y1="188.007" y2="271.084" gradientUnits="userSpaceOnUse"><stop stop-color="#00a6f0"/><stop offset="1" stop-color="#006ff1"/></linearGradient><linearGradient id="D" x1="100.633" x2="93.485" y1="123.872" y2="260.762" gradientUnits="userSpaceOnUse"><stop stop-color="#00a6f0"/><stop offset="1" stop-color="#006ff1"/></linearGradient><linearGradient id="F" x1="132.645" x2="142.665" y1="105.986" y2="244.989" gradientUnits="userSpaceOnUse"><stop stop-color="#00a6f0"/><stop offset="1" stop-color="#006ff1"/></linearGradient><linearGradient id="G" x1="231.973" x2="231.973" y1="262.369" y2="260.641" gradientUnits="userSpaceOnUse"><stop stop-color="#00a6f0"/><stop offset="1" stop-color="#006ff1"/></linearGradient><linearGradient id="H" x1="114.79" x2="62.679" y1="2.552" y2="107.924" gradientUnits="userSpaceOnUse"><stop offset=".102" stop-color="#fff"/><stop offset=".885" stop-color="#e3ebfd"/></linearGradient><linearGradient id="I" x1="186.113" x2="203.941" y1="155.451" y2="155.451" gradientUnits="userSpaceOnUse"><stop stop-color="#fc7023"/><stop offset="1" stop-color="#e00321"/></linearGradient><linearGradient id="K" x1="181.225" x2="182.218" y1="146.502" y2="158.193" gradientUnits="userSpaceOnUse"><stop stop-color="#fc7023"/><stop offset="1" stop-color="#e00321"/></linearGradient><linearGradient id="L" x1="192.008" x2="193.098" y1="139.858" y2="143.621" gradientUnits="userSpaceOnUse"><stop offset=".101" stop-color="#ffe494"/><stop offset="1" stop-color="#ffae00"/></linearGradient><linearGradient id="N" x1="192.522" x2="192.655" y1="139.791" y2="140.532" gradientUnits="userSpaceOnUse"><stop offset=".101" stop-color="#ffe494"/><stop offset="1" stop-color="#ffae00"/></linearGradient><linearGradient id="O" x1="172.096" x2="172.176" y1="136.801" y2="146.313" gradientUnits="userSpaceOnUse"><stop offset=".101" stop-color="#ffe494"/><stop offset="1" stop-color="#ffae00"/></linearGradient><linearGradient id="P" x1="186.018" x2="183.366" y1="171.896" y2="162.167" gradientUnits="userSpaceOnUse"><stop offset=".005" stop-color="#ffed7a"/><stop offset=".999" stop-color="#ff9d00"/></linearGradient><linearGradient id="Q" x1="185.533" x2="170.073" y1="117.756" y2="117.941" gradientUnits="userSpaceOnUse"><stop offset=".008" stop-color="#009efe"/><stop offset="1" stop-color="#005dfa"/></linearGradient><linearGradient id="R" x1="102.972" x2="120.869" y1="122.479" y2="122.479" gradientUnits="userSpaceOnUse"><stop offset=".008" stop-color="#009efe"/><stop offset="1" stop-color="#005dfa"/></linearGradient><linearGradient id="S" x1="163.824" x2="171.979" y1="101.423" y2="128.392" gradientUnits="userSpaceOnUse"><stop offset=".005" stop-color="#ffed7a"/><stop offset=".999" stop-color="#ff9d00"/></linearGradient><linearGradient id="T" x1="144.278" x2="146.843" y1="101.324" y2="130.478" gradientUnits="userSpaceOnUse"><stop offset=".005" stop-color="#ffed7a"/><stop offset=".999" stop-color="#ff9d00"/></linearGradient><linearGradient id="U" x1="189.697" x2="219.295" y1="103.993" y2="96.477" gradientUnits="userSpaceOnUse"><stop offset=".102" stop-color="#fff"/><stop offset=".885" stop-color="#e3ebfd"/></linearGradient><linearGradient id="V" x1="180.349" x2="131.224" y1="20.365" y2="79.343" gradientUnits="userSpaceOnUse"><stop offset=".102" stop-color="#fcadba"/><stop offset=".885" stop-color="#fbdad9"/></linearGradient><linearGradient id="W" x1="254.833" x2="255.559" y1="76.107" y2="41.468" gradientUnits="userSpaceOnUse"><stop offset=".102" stop-color="#dcdff8"/><stop offset=".885" stop-color="#f5f7fe"/></linearGradient><linearGradient id="X" x1="252.814" x2="273.161" y1="135.61" y2="75.053" gradientUnits="userSpaceOnUse"><stop offset=".102" stop-color="#dcdff8"/><stop offset=".885" stop-color="#f5f7fe"/></linearGradient><linearGradient id="Y" x1="-130.037" x2="-121.767" y1="99.424" y2="99.424" gradientUnits="userSpaceOnUse"><stop offset=".101" stop-color="#ffdf94"/><stop offset="1" stop-color="#ffa200"/></linearGradient><linearGradient id="aa" x1="-130.037" x2="-124.942" y1="99.424" y2="99.424" gradientUnits="userSpaceOnUse"><stop offset=".101" stop-color="#ffdf94"/><stop offset="1" stop-color="#ffa200"/></linearGradient><linearGradient id="ab" x1="-172.657" x2="-147.866" y1="128.65" y2="128.65" gradientUnits="userSpaceOnUse"><stop offset=".101" stop-color="#ffdf94"/><stop offset="1" stop-color="#ffa200"/></linearGradient><linearGradient id="ac" x1="86.649" x2="50.55" y1="96.691" y2="119.235" gradientUnits="userSpaceOnUse"><stop offset=".101" stop-color="#ffdf94"/><stop offset="1" stop-color="#ffa200"/></linearGradient><linearGradient id="ae" x1="-231.823" x2="-163.996" y1="179.87" y2="226.887" gradientUnits="userSpaceOnUse"><stop offset=".101" stop-color="#ffdf94"/><stop offset="1" stop-color="#ffa200"/></linearGradient><linearGradient id="af" x1="-169.582" x2="-314.195" y1="17.551" y2="138.792" gradientUnits="userSpaceOnUse"><stop offset=".101" stop-color="#ffdf94"/><stop offset="1" stop-color="#ffa200"/></linearGradient><linearGradient id="ah" x1="-167.078" x2="-201.106" y1="122.508" y2="193.09" gradientUnits="userSpaceOnUse"><stop offset=".101" stop-color="#ffdf94"/><stop offset="1" stop-color="#ffa200"/></linearGradient><linearGradient id="ai" x1="37.38" x2="59.411" y1="226.963" y2="202.077" gradientUnits="userSpaceOnUse"><stop offset=".101" stop-color="#fece63"/><stop offset="1" stop-color="#fe860a"/></linearGradient><linearGradient id="ak" x1="-135.514" x2="-207.865" y1="57.476" y2="117.829" gradientUnits="userSpaceOnUse"><stop offset=".101" stop-color="#ffdf94"/><stop offset="1" stop-color="#ffa200"/></linearGradient><linearGradient id="am" x1="-165.115" x2="-242.877" y1="51.773" y2="134.938" gradientUnits="userSpaceOnUse"><stop offset=".101" stop-color="#ffdf94"/><stop offset="1" stop-color="#ffa200"/></linearGradient><radialGradient id="e" cx="0" cy="0" r="1" gradientTransform="matrix(80.9945 0 0 48.7775 118.734 167.253)" gradientUnits="userSpaceOnUse"><stop stop-color="#00ded8"/><stop offset=".997" stop-color="#4aaafd"/></radialGradient><clipPath id="a"><path fill="#fff" d="M0 0h305v217H0z"/></clipPath></defs></svg>