<svg xmlns="http://www.w3.org/2000/svg" fill="none" viewBox="0 0 208 138" xmlns:xlink="http://www.w3.org/1999/xlink"><g clip-path="url(#a)"><rect width="200" height="130" x="4" y="4" fill="#fff" rx="8"/><path fill="url(#b)" d="M36.746 134.047C21.525 66.871 36.513 11 72.917 11S176.016 64.162 182 134.047z" opacity=".2"/><path fill="url(#c)" d="M164.281 108.738h-38.969a3.46 3.46 0 0 1-3.455-3.634l2.869-56.834a3.46 3.46 0 0 1 3.456-3.285h33.23a3.46 3.46 0 0 1 3.455 3.285l2.869 56.834a3.46 3.46 0 0 1-3.455 3.634"/><mask id="d" width="47" height="65" x="121" y="44" maskUnits="userSpaceOnUse" style="mask-type:luminance"><path fill="#fff" fill-rule="evenodd" d="M164.281 108.738h-38.968a3.46 3.46 0 0 1-3.456-3.634l2.869-56.834a3.46 3.46 0 0 1 3.456-3.285h33.23a3.46 3.46 0 0 1 3.455 3.285l2.87 56.834a3.46 3.46 0 0 1-3.456 3.634" clip-rule="evenodd"/></mask><g mask="url(#d)"><path fill="url(#e)" d="m135.302 44.288 2.031 2.738h14.928l2.554-2.885z"/><path fill="url(#f)" d="M112.192 107.228c6.68-7.834 17.913-.444 38.457 0 20.545.443 16.008-23.482 16.008-23.482l4.537 20.706s-.443 6.175-.887 7.358c-.443 1.182-40.255 5.616-40.255 5.616l-14.284-5.468"/></g><path fill="#77aff6" fill-rule="evenodd" d="M151.86 42.668a1.37 1.37 0 0 0-.968-.401h-1.631V40a.923.923 0 0 0-.923-.923h-7.083a.92.92 0 0 0-.923.923v2.267h-1.631a1.37 1.37 0 0 0-1.368 1.369v3.097h14.928v-3.097c0-.363-.144-.712-.401-.968m-6.443-1.47a1.405 1.405 0 1 1-1.244 2.517 1.405 1.405 0 0 1 1.244-2.516" clip-rule="evenodd"/><path fill="url(#g)" d="M159.541 96.323c-4.353 3.75-7.194 8.129-7.194 8.129h-27.592l2.815-55.768h34.823l1.869 42.9s-1.157 1.669-4.721 4.739"/><path fill="url(#h)" d="M153.15 91.516c2.392 8.403.677 9.932-.803 12.937 0 0 5.395-5.091 11.915-12.869 0 0-4.698 1.544-11.112-.068"/><path fill="#fff" d="M135.3 59.483c-.054.997-.995 1.813-2.103 1.813s-1.944-.816-1.869-1.813c.075-.986 1.015-1.777 2.101-1.777 1.085 0 1.923.79 1.871 1.777m22.388-.317h-19.986c-.351 0-.625-.257-.612-.573s.309-.57.658-.57h19.857c.35 0 .652.255.676.57.024.316-.242.573-.593.573m-6.19 1.8H137.63c-.355 0-.632-.262-.618-.584s.312-.581.665-.581h13.778c.353 0 .649.26.662.58.014.323-.264.585-.619.585m-16.627 6.526c-.058 1.09-1.045 1.981-2.203 1.981s-2.029-.892-1.947-1.98c.082-1.077 1.066-1.94 2.2-1.94s2.008.863 1.95 1.94m23.392-.346h-20.88c-.368 0-.654-.28-.639-.626.015-.343.323-.62.688-.62h20.742c.365 0 .682.277.708.62.026.345-.251.626-.619.626m-6.463 1.966h-14.496c-.371 0-.66-.287-.645-.639.016-.35.327-.634.696-.634h14.398c.368 0 .679.283.693.634.015.352-.275.639-.646.639m-17.396 7.143c-.064 1.194-1.1 2.172-2.313 2.172s-2.123-.978-2.032-2.172c.089-1.18 1.123-2.125 2.309-2.125s2.099.946 2.036 2.125m24.49-.379h-21.861a.655.655 0 0 1-.667-.685.724.724 0 0 1 .722-.68h21.707a.753.753 0 0 1 .744.68.633.633 0 0 1-.645.685m-6.763 2.155h-15.184a.667.667 0 0 1-.673-.7.734.734 0 0 1 .729-.696h15.076a.733.733 0 0 1 .728.696.67.67 0 0 1-.676.7m-17.727 6.776c-.064 1.194-1.1 2.172-2.313 2.172s-2.123-.978-2.032-2.172c.089-1.18 1.123-2.125 2.309-2.125s2.099.945 2.036 2.125m24.49-.379h-21.861a.654.654 0 0 1-.667-.686.724.724 0 0 1 .722-.68h21.707a.753.753 0 0 1 .744.68.633.633 0 0 1-.645.686m-6.763 2.155h-15.184a.667.667 0 0 1-.673-.7.734.734 0 0 1 .729-.696h15.076a.733.733 0 0 1 .728.695.67.67 0 0 1-.676.701"/><path fill="url(#i)" d="M70.92 67.77c-.036 6.49-5.327 11.722-11.818 11.685a11.7 11.7 0 0 1-3.664-.612l-7.414 2.242c-.827.25-1.56-.595-1.197-1.378l2.553-5.5a11.7 11.7 0 0 1-1.963-6.57c.037-6.49 5.328-11.723 11.819-11.686 6.49.037 11.722 5.329 11.685 11.819"/><path fill="url(#j)" d="M66.46 48.357c5.856.033 10.577 4.808 10.544 10.665a10.6 10.6 0 0 1-.553 3.307l2.024 6.69a.902.902 0 0 1-1.244 1.08l-4.963-2.304a10.56 10.56 0 0 1-5.93 1.772c-5.856-.034-10.577-4.809-10.544-10.666s4.808-10.578 10.665-10.544"/><path fill="url(#k)" d="m145.538 124.331-1.784-28.866-4.237-6.859s-9.979-2.33-37.146-2.358a9.875 9.875 0 0 0-9.38 6.798l-12.892 39.263 63.221 1.192z"/><mask id="l" width="66" height="48" x="80" y="86" maskUnits="userSpaceOnUse" style="mask-type:luminance"><path fill="#fff" fill-rule="evenodd" d="m145.538 124.331-1.784-28.866-4.237-6.859s-9.979-2.33-37.146-2.358a9.875 9.875 0 0 0-9.38 6.798l-12.892 39.263 63.221 1.192z" clip-rule="evenodd"/></mask><g mask="url(#l)"><path fill="url(#m)" d="M133.668 101.562c11.424 26.508-31.278 12.755-24.289 27.284 6.718 13.965 57.009 2.989 57.009 2.989l-17.303-28.943"/><path fill="url(#n)" d="M96.11 107.364c-10.943 23.135 7.539 19.815 7.539 19.815l-11.573 12.316-22.405-5.994 1.553-20.723 24.887-11.659"/></g><path fill="url(#o)" d="m103.648 95.996-8.49-6.614-41.012 44.119L73 131.483l24.994-24.973z"/><path fill="url(#p)" d="M120.583 122.522h-.998c-3.786 0-16.637 1.199-17.192 1.306-5.767 1.109-13.198 7.483-14.086 7.845l33.524-.239"/><mask id="q" width="34" height="10" x="88" y="122" maskUnits="userSpaceOnUse" style="mask-type:luminance"><path fill="#fff" fill-rule="evenodd" d="M120.583 122.522h-.998c-3.786 0-16.637 1.199-17.192 1.306-5.767 1.109-13.199 7.483-14.086 7.845l33.524-.239" clip-rule="evenodd"/></mask><g mask="url(#q)"><path fill="url(#r)" d="M113.071 121.066c2.709 9.057.946 7.384-4.944 9.057-21.985 6.244 10.769 5.174 12.246 4.592l4.592-6.123-7.216-6.221" opacity=".34"/></g><path fill="url(#s)" d="M113.046 119.901c-.411 2.813 4.025 13.6 4.025 13.6h41.013a11.544 11.544 0 0 0 7.273-20.51s-22.2-24.417-25.839-24.385-5.849 12.956-5.849 12.956l9.398 19.04z"/><path fill="url(#t)" d="M128.314 130.168h-39.12v3.333h39.264v-3.188a.145.145 0 0 0-.144-.145"/><path fill="url(#u)" d="M43.673 133.501h53.866L82.254 98.024a2.25 2.25 0 0 0-2.07-1.361H29.637a1.207 1.207 0 0 0-1.109 1.684z"/><path fill="url(#v)" d="M42.244 133.501h53.867L80.826 98.024a2.25 2.25 0 0 0-2.07-1.361H28.207a1.207 1.207 0 0 0-1.108 1.684z"/><mask id="w" width="70" height="38" x="27" y="96" maskUnits="userSpaceOnUse" style="mask-type:luminance"><path fill="#fff" fill-rule="evenodd" d="M42.244 133.501h53.867L80.826 98.024a2.25 2.25 0 0 0-2.07-1.361H28.207a1.207 1.207 0 0 0-1.108 1.684z" clip-rule="evenodd"/></mask><g mask="url(#w)"><path fill="url(#x)" d="M25.467 93.385c18.37 53.576 81.828 44.107 81.828 44.107l-80.297 14.062-16.838-32.146 4.592-26.023"/></g><ellipse cx="4.981" cy="3.269" fill="url(#y)" rx="4.981" ry="3.269" transform="rotate(-149.612 49.182 48.266)scale(1 -1)"/><path fill="url(#z)" d="m125.128 88.15-11.411-28.465h-13.8L98.399 77.03l9.749 1.266 1.233 16.39z"/><mask id="A" width="28" height="36" x="98" y="59" maskUnits="userSpaceOnUse" style="mask-type:luminance"><path fill="#fff" fill-rule="evenodd" d="m125.128 88.15-11.411-28.465h-13.8L98.399 77.03l9.749 1.266 1.233 16.39z" clip-rule="evenodd"/></mask><g mask="url(#A)"><path fill="url(#B)" d="M111.914 72.992c-2.604 3.807 5.369 9.984-4.616 11.78s-1.939-12.391-1.939-12.391l4.02-1.688" opacity=".34"/></g><path fill="url(#C)" d="M108.695 66.268c10.635 23.717-14.862 17.592-9.836 5.504 10.005 3.274 7.557-5.504 7.557-5.504s-4.642-1.772-2.954-5.317c0 0-3.523-1.517-3.723.766-4.042-4.395-1.003-9.29 8.534-6.674s12.492 18.146 12.492 18.146-5.149 8.44-12.07-6.92"/><path fill="url(#D)" d="M109.381 67.877c5.476-5.153 7.724 2.206 1.935 8.275z"/><path fill="url(#E)" d="m111.112 90.067-5.195-.685.841 15.5 7.484 1.387 8.554-11.931.027-4.162-5.417.465-2.876-.238h-2.327"/><path fill="url(#F)" d="m112.516 92.82-6.107 11.893.096 10.739 3.086-1.193 4.378-9.821 1.119-12.384z"/><path fill="url(#G)" d="m111.125 90.213.7 2.618c.172.642.748 1.058 1.519 1.095l.623.03c.762.036 1.605-.302 2.228-.894l2.259-2.144-3.013-.45z"/><path fill="url(#H)" d="M125.514 87.851s-1.07-2.684-1.735-2.723c0 0-4.072 3.988-8.521 5.336l2.854 4.162s7.67-4.121 7.402-6.775"/><path fill="#fff" d="m124.827 86.266-18.2 30.738 16.667-13.475-2.281-3.972 4.635-1.728.867-8.705s.597-1.952-1.688-2.858"/><path fill="url(#I)" d="M107.555 86.74s.43-1.703 1.095-1.735c0 0 1.708 3.99 4.265 5.315l-2.06 3.599s-5.229-4.451-3.3-7.18"/><rect width="8.824" height="6.112" fill="url(#J)" rx=".039" transform="rotate(-168.187 58.639 48.125)scale(1 -1)"/><mask id="K" width="11" height="9" x="96" y="105" maskUnits="userSpaceOnUse" style="mask-type:luminance"><rect width="8.824" height="6.112" fill="#fff" rx=".039" transform="rotate(-168.187 58.639 48.125)scale(1 -1)"/></mask><g mask="url(#K)"><path fill="url(#L)" d="M105.418 112.983c-8.401-1.422-8.74-1.277-8.496-4.564s-2.079 2.687-2.079 2.687l1.862 1.917 8.874 1.023"/></g><g fill="#fff" opacity=".46"><ellipse cx="1.268" cy="1.369" rx="1.268" ry="1.369" transform="rotate(-168.187 58.078 48.808)scale(1 -1)"/><path d="m101.572 107.849-3.393-.71-.068.327 3.393.71zm-.233 1.116-3.393-.71-.068.327 3.393.71zm-.234 1.117-2.478-.518-.069.327 2.479.518z"/></g><path fill="url(#M)" d="m103.311 104.4-1.997-.418a.054.054 0 0 0-.064.043l-.436 2.086 2.103.44.436-2.087a.053.053 0 0 0-.042-.064"/><mask id="N" width="4" height="4" x="100" y="103" maskUnits="userSpaceOnUse" style="mask-type:luminance"><path fill="#fff" fill-rule="evenodd" d="m103.311 104.4-1.997-.418a.054.054 0 0 0-.064.043l-.437 2.086 2.104.44.436-2.087a.054.054 0 0 0-.042-.064" clip-rule="evenodd"/></mask><g mask="url(#N)"><path fill="url(#O)" d="M100.849 105.075c.101.797 2.206.957 2.352 1.221.146.263-.638.484-.638.484l-2.085-.436.23-1.009"/></g><path fill="url(#P)" d="M0 0h5.088v1.21H0z" transform="rotate(-168.187 57.72 47.874)scale(1 -1)"/><path fill="#fff" d="M107.887 85.815s-.447 25.615.54 28.342l-1.799 2.847-5.031-15.547 2.835-2.861-3.934-1.07 5.415-10.107s.146-1.445 1.974-1.604"/><circle cx="1.453" cy="1.453" r="1.453" fill="#fff" transform="matrix(-1 0 0 1 107.073 118.896)"/><path fill="url(#Q)" d="M167.341 99.11s1.099 1.318 1.099 1.922a1.099 1.099 0 1 1-2.198 0c0-.604 1.099-1.923 1.099-1.923"/><path fill="url(#R)" d="M0 0h1.069v6.281H0z" transform="matrix(-1 0 0 1 174.11 96.51)"/><mask id="S" width="2" height="7" x="173" y="96" maskUnits="userSpaceOnUse" style="mask-type:luminance"><path fill="#fff" d="M174.11 96.51h-1.069v6.28h1.069z"/></mask><g mask="url(#S)"><path fill="url(#T)" d="M176.153 97.882c-2.404.746-2.746-.282-3.731-.442-.984-.159 1.493-1.473 1.493-1.473l1.326.837"/></g><path fill="url(#U)" d="M168.001 107.178h3.231v-6.598a.88.88 0 0 1 .882-.881h2.923a.884.884 0 0 1 .882.881v6.598h3.231a2.51 2.51 0 0 1 2.512 2.511v21.494a2.51 2.51 0 0 1-2.512 2.512h-11.149a2.51 2.51 0 0 1-2.512-2.512v-21.494a2.51 2.51 0 0 1 2.512-2.511"/><mask id="V" width="17" height="35" x="165" y="99" maskUnits="userSpaceOnUse" style="mask-type:luminance"><path fill="#fff" fill-rule="evenodd" d="M168.001 107.178h3.231v-6.598a.88.88 0 0 1 .882-.881h2.923a.884.884 0 0 1 .882.881v6.598h3.231a2.51 2.51 0 0 1 2.512 2.511v21.494a2.51 2.51 0 0 1-2.512 2.512h-11.149a2.51 2.51 0 0 1-2.512-2.512v-21.494a2.51 2.51 0 0 1 2.512-2.511" clip-rule="evenodd"/></mask><g fill="#fff" mask="url(#V)"><path d="M182.869 118.396c-4.56 16.587-17.908 15.299-17.908 15.299l19.732 3.112-1.244-14.592-.332-3.067m-21.459-2.451c4.364-10.564 17.524-9.909 17.524-9.909l-19.463-1.734 1.338 9.23.351 1.94" opacity=".15"/></g><path fill="url(#W)" d="M167.341 94.494v.02c0 .802.476 1.453 1.064 1.453h2.071c.531 0 .961.588.961 1.314 0 .088.053.159.117.159h4.128c.064 0 .117-.071.117-.16v-1.869c0-.507-.301-.917-.672-.917z"/><path fill="#fff" d="M174.091 102.791h-1.03v24.533h1.03z" opacity=".39"/><rect width="5.678" height="6.055" fill="url(#X)" rx=".48" transform="matrix(-1 0 0 1 176.415 100.815)"/><mask id="Y" width="7" height="7" x="170" y="100" maskUnits="userSpaceOnUse" style="mask-type:luminance"><rect width="5.678" height="6.055" fill="#fff" rx=".48" transform="matrix(-1 0 0 1 176.415 100.815)"/></mask><g mask="url(#Y)"><path fill="url(#Z)" d="M0 0h.34v7.091H0z" opacity=".33" transform="matrix(-1 0 0 1 175.664 100.217)"/><path fill="url(#aa)" d="M174.339 107.307h.34v-7.09h-.34" opacity=".33"/><path fill="url(#ab)" d="M0 0h.34v7.091H0z" opacity=".33" transform="matrix(-1 0 0 1 173.916 100.217)"/><path fill="url(#ac)" d="M0 0h.34v7.091H0z" opacity=".33" transform="matrix(-1 0 0 1 171.74 100.217)"/></g><path fill="url(#ad)" d="M180.859 116.358h-14.566v13.572a3.11 3.11 0 0 0 3.113 3.113h8.341a3.113 3.113 0 0 0 3.112-3.113z" opacity=".82"/><rect width="9.066" height="9.066" fill="#fff" rx=".7" transform="matrix(-1 0 0 1 178.109 118.396)"/><path fill="url(#ae)" d="M170.661 122.272h2.256v-2.256h1.316v2.256h2.256v1.315h-2.256v2.257h-1.316v-2.257h-2.256z"/></g><rect width="204" height="134" x="2" y="2" stroke="#51c1ff" stroke-opacity=".07" stroke-width="4" rx="10"/><defs><linearGradient id="b" x1="256.585" x2="236.62" y1="2.228" y2="222.3" gradientUnits="userSpaceOnUse"><stop stop-color="#a7f6ff"/><stop offset="1" stop-color="#34a595"/></linearGradient><linearGradient id="c" x1="124.77" x2="129.065" y1="104.665" y2="49.283" gradientUnits="userSpaceOnUse"><stop stop-color="#ffada9"/><stop offset="1" stop-color="#ff6559"/></linearGradient><linearGradient id="e" x1="116.081" x2="116.092" y1="49.992" y2="41.525" gradientUnits="userSpaceOnUse"><stop offset=".101" stop-color="#ff5d37"/><stop offset=".885" stop-color="#ff9346"/></linearGradient><linearGradient id="f" x1="83.658" x2="81.434" y1="83.371" y2="133.237" gradientUnits="userSpaceOnUse"><stop stop-color="#ffada9"/><stop offset="1" stop-color="#ff6559"/></linearGradient><linearGradient id="g" x1="96.593" x2="150.65" y1="92.19" y2="37.933" gradientUnits="userSpaceOnUse"><stop offset=".102" stop-color="#dcdff8"/><stop offset=".885" stop-color="#f5f7fe"/></linearGradient><linearGradient id="h" x1="13.212" x2="19.446" y1="99.65" y2="91.719" gradientUnits="userSpaceOnUse"><stop offset=".102" stop-color="#dcdff8"/><stop offset=".885" stop-color="#f5f7fe"/></linearGradient><linearGradient id="i" x1="27.298" x2="53.165" y1="70.693" y2="54.336" gradientUnits="userSpaceOnUse"><stop offset=".487" stop-color="#77c1bc"/><stop offset="1" stop-color="#34a595"/></linearGradient><linearGradient id="j" x1="78.515" x2="44.035" y1="75.833" y2="75.833" gradientUnits="userSpaceOnUse"><stop stop-color="#ffcc92"/><stop offset="1" stop-color="#f79748"/></linearGradient><linearGradient id="k" x1="172.001" x2="190.377" y1="38.056" y2="154.945" gradientUnits="userSpaceOnUse"><stop offset=".102" stop-color="#fff"/><stop offset=".885" stop-color="#e3ebfd"/></linearGradient><linearGradient id="m" x1="152.824" x2="151.402" y1="145.429" y2="141.156" gradientUnits="userSpaceOnUse"><stop offset=".102" stop-color="#fff"/><stop offset=".885" stop-color="#cddefd"/></linearGradient><linearGradient id="n" x1="123.543" x2="121.158" y1="106.744" y2="107.679" gradientUnits="userSpaceOnUse"><stop offset=".102" stop-color="#fff"/><stop offset=".885" stop-color="#cddefd"/></linearGradient><linearGradient id="o" x1="126.458" x2="154.23" y1="44.341" y2="160.305" gradientUnits="userSpaceOnUse"><stop offset=".102" stop-color="#fff"/><stop offset=".885" stop-color="#e3ebfd"/></linearGradient><linearGradient id="p" x1="121.831" x2="87.913" y1="131.808" y2="131.808" gradientUnits="userSpaceOnUse"><stop offset=".102" stop-color="#fcadba"/><stop offset=".885" stop-color="#fbdad9"/></linearGradient><linearGradient id="r" x1="124.965" x2="100.558" y1="135.171" y2="135.171" gradientUnits="userSpaceOnUse"><stop offset=".101" stop-color="#ff7638"/><stop offset=".885" stop-color="#ff3929"/></linearGradient><linearGradient id="s" x1="193.127" x2="216.896" y1="21.28" y2="146.625" gradientUnits="userSpaceOnUse"><stop offset=".102" stop-color="#fff"/><stop offset=".885" stop-color="#e3ebfd"/></linearGradient><linearGradient id="t" x1="128.459" x2="89.195" y1="133.501" y2="133.501" gradientUnits="userSpaceOnUse"><stop stop-color="#98c5ff"/><stop offset="1" stop-color="#3580e4"/></linearGradient><linearGradient id="u" x1="97.539" x2="28.427" y1="133.501" y2="133.501" gradientUnits="userSpaceOnUse"><stop stop-color="#98c5ff"/><stop offset="1" stop-color="#3580e4"/></linearGradient><linearGradient id="v" x1="96.111" x2="26.999" y1="133.501" y2="133.501" gradientUnits="userSpaceOnUse"><stop stop-color="#98c5ff"/><stop offset="1" stop-color="#3580e4"/></linearGradient><linearGradient id="x" x1="107.295" x2="10.16" y1="151.554" y2="151.554" gradientUnits="userSpaceOnUse"><stop stop-color="#98c5ff"/><stop offset="1" stop-color="#3580e4"/></linearGradient><linearGradient id="y" x1="-2.541" x2="2.467" y1="3.547" y2="10.364" gradientUnits="userSpaceOnUse"><stop stop-color="#98c5ff"/><stop offset="1" stop-color="#3580e4"/></linearGradient><linearGradient id="z" x1="125.128" x2="98.398" y1="94.685" y2="94.685" gradientUnits="userSpaceOnUse"><stop offset=".102" stop-color="#fcadba"/><stop offset=".885" stop-color="#fbdad9"/></linearGradient><linearGradient id="B" x1="112.49" x2="102.295" y1="84.929" y2="84.929" gradientUnits="userSpaceOnUse"><stop offset=".101" stop-color="#ff7638"/><stop offset=".885" stop-color="#ff3929"/></linearGradient><linearGradient id="C" x1="120.765" x2="97.995" y1="82.448" y2="82.448" gradientUnits="userSpaceOnUse"><stop offset=".102" stop-color="#915758"/><stop offset=".885" stop-color="#2c090b"/></linearGradient><linearGradient id="D" x1="114.715" x2="109.381" y1="76.152" y2="76.152" gradientUnits="userSpaceOnUse"><stop offset=".102" stop-color="#fcadba"/><stop offset=".885" stop-color="#fbdad9"/></linearGradient><linearGradient id="E" x1="104.497" x2="105.927" y1="114.578" y2="110.195" gradientUnits="userSpaceOnUse"><stop stop-color="#ffcc92"/><stop offset="1" stop-color="#f79748"/></linearGradient><linearGradient id="F" x1="107.041" x2="114.245" y1="93.52" y2="93.654" gradientUnits="userSpaceOnUse"><stop stop-color="#98c5ff"/><stop offset="1" stop-color="#3580e4"/></linearGradient><linearGradient id="G" x1="112.126" x2="117.168" y1="89.563" y2="93.554" gradientUnits="userSpaceOnUse"><stop offset=".008" stop-color="#009efe"/><stop offset="1" stop-color="#005dfa"/></linearGradient><linearGradient id="H" x1="127.023" x2="125.824" y1="87.496" y2="99.261" gradientUnits="userSpaceOnUse"><stop stop-color="#ffe5cf"/><stop offset="1" stop-color="#ffae6c"/></linearGradient><linearGradient id="I" x1="113.604" x2="113.3" y1="86.363" y2="97.288" gradientUnits="userSpaceOnUse"><stop stop-color="#ffe5cf"/><stop offset="1" stop-color="#ffae6c"/></linearGradient><linearGradient id="L" x1="107.293" x2="106.145" y1="108.521" y2="114.657" gradientUnits="userSpaceOnUse"><stop stop-color="#00bede"/><stop offset=".997" stop-color="#4a8bfd"/></linearGradient><linearGradient id="M" x1="103.627" x2="102.719" y1="104.518" y2="106.596" gradientUnits="userSpaceOnUse"><stop offset=".101" stop-color="#ffe494"/><stop offset="1" stop-color="#ffae00"/></linearGradient><linearGradient id="O" x1="103.257" x2="103.137" y1="104.65" y2="105.034" gradientUnits="userSpaceOnUse"><stop offset=".101" stop-color="#ffe494"/><stop offset="1" stop-color="#ffae00"/></linearGradient><linearGradient id="P" x1="-8.779" x2="-8.733" y1="-3.362" y2="1.719" gradientUnits="userSpaceOnUse"><stop offset=".101" stop-color="#ffe494"/><stop offset="1" stop-color="#ffae00"/></linearGradient><linearGradient id="Q" x1="167.596" x2="168.363" y1="99.634" y2="101.046" gradientUnits="userSpaceOnUse"><stop stop-color="#a7f6ff"/><stop offset="1" stop-color="#34a595"/></linearGradient><linearGradient id="R" x1="-2.81" x2="2.036" y1="12.921" y2="13.109" gradientUnits="userSpaceOnUse"><stop offset=".008" stop-color="#00cafe"/><stop offset="1" stop-color="#0088fa"/></linearGradient><linearGradient id="T" x1="177.581" x2="176.962" y1="96.466" y2="99.194" gradientUnits="userSpaceOnUse"><stop offset=".008" stop-color="#00cafe"/><stop offset="1" stop-color="#0088fa"/></linearGradient><linearGradient id="U" x1="171.359" x2="220.032" y1="54.681" y2="76.435" gradientUnits="userSpaceOnUse"><stop stop-color="#a7f6ff"/><stop offset="1" stop-color="#34a595"/></linearGradient><linearGradient id="W" x1="181.86" x2="182.311" y1="91.221" y2="99.553" gradientUnits="userSpaceOnUse"><stop offset=".102" stop-color="#915758"/><stop offset=".885" stop-color="#2c090b"/></linearGradient><linearGradient id="X" x1="0" x2="5.678" y1="6.055" y2="6.055" gradientUnits="userSpaceOnUse"><stop stop-color="#98c5ff"/><stop offset="1" stop-color="#3580e4"/></linearGradient><linearGradient id="Z" x1="-1.08" x2="-.819" y1="13.764" y2="13.76" gradientUnits="userSpaceOnUse"><stop stop-color="#98c5ff"/><stop offset="1" stop-color="#3580e4"/></linearGradient><linearGradient id="aa" x1="175.785" x2="175.524" y1="114.141" y2="114.137" gradientUnits="userSpaceOnUse"><stop stop-color="#98c5ff"/><stop offset="1" stop-color="#3580e4"/></linearGradient><linearGradient id="ab" x1="-1.127" x2="-.866" y1="14.047" y2="14.044" gradientUnits="userSpaceOnUse"><stop stop-color="#98c5ff"/><stop offset="1" stop-color="#3580e4"/></linearGradient><linearGradient id="ac" x1="-1.186" x2="-.925" y1="14.4" y2="14.396" gradientUnits="userSpaceOnUse"><stop stop-color="#98c5ff"/><stop offset="1" stop-color="#3580e4"/></linearGradient><linearGradient id="ad" x1="180.859" x2="166.293" y1="133.043" y2="133.043" gradientUnits="userSpaceOnUse"><stop stop-color="#98c5ff"/><stop offset="1" stop-color="#3580e4"/></linearGradient><linearGradient id="ae" x1="176.489" x2="170.661" y1="125.844" y2="125.844" gradientUnits="userSpaceOnUse"><stop stop-color="#ffada9"/><stop offset="1" stop-color="#ff6559"/></linearGradient><radialGradient id="J" cx="0" cy="0" r="1" gradientTransform="matrix(12.285 0 0 8.50874 7.883 -1.542)" gradientUnits="userSpaceOnUse"><stop stop-color="#00bede"/><stop offset=".997" stop-color="#4a8bfd"/></radialGradient><clipPath id="a"><rect width="200" height="130" x="4" y="4" fill="#fff" rx="8"/></clipPath></defs></svg>