<svg width="208" height="138" viewBox="0 0 208 138" fill="none" xmlns="http://www.w3.org/2000/svg">
<g clip-path="url(#clip0_106_39645)">
<rect x="4" y="4" width="200" height="130" rx="8" fill="white"/>
<path opacity="0.2" d="M36.7456 134.047C21.5249 66.8708 36.5135 11 72.9174 11C109.321 11 176.016 64.1624 182 134.047H36.7456Z" fill="url(#paint0_linear_106_39645)"/>
<path d="M164.281 108.738H125.312C124.365 108.738 123.458 108.349 122.805 107.662C122.152 106.975 121.809 106.051 121.857 105.104L124.726 48.2702C124.819 46.4296 126.339 44.9849 128.182 44.9849H161.412C163.255 44.9849 164.774 46.4296 164.867 48.2702L167.736 105.104C167.784 106.051 167.441 106.975 166.788 107.662C166.135 108.349 165.229 108.738 164.281 108.738Z" fill="url(#paint1_linear_106_39645)"/>
<mask id="mask0_106_39645" style="mask-type:luminance" maskUnits="userSpaceOnUse" x="121" y="44" width="47" height="65">
<path fill-rule="evenodd" clip-rule="evenodd" d="M164.281 108.738H125.313C124.365 108.738 123.458 108.349 122.805 107.662C122.152 106.975 121.809 106.051 121.857 105.104L124.726 48.2702C124.819 46.4296 126.339 44.9849 128.182 44.9849H161.412C163.255 44.9849 164.774 46.4296 164.867 48.2702L167.737 105.104C167.784 106.051 167.442 106.975 166.789 107.662C166.135 108.349 165.229 108.738 164.281 108.738Z" fill="white"/>
</mask>
<g mask="url(#mask0_106_39645)">
<path d="M135.302 44.2884L137.333 47.0262H152.261L154.815 44.1406L135.302 44.2884Z" fill="url(#paint2_linear_106_39645)"/>
<path d="M112.192 107.228C118.872 99.3943 130.105 106.784 150.649 107.228C171.194 107.671 166.657 83.7456 166.657 83.7456L171.194 104.452C171.194 104.452 170.751 110.627 170.307 111.81C169.864 112.992 130.052 117.426 130.052 117.426L115.768 111.958" fill="url(#paint3_linear_106_39645)"/>
</g>
<path fill-rule="evenodd" clip-rule="evenodd" d="M151.86 42.6679C151.604 42.4112 151.255 42.267 150.892 42.267H149.261V39.9999C149.261 39.4903 148.848 39.0771 148.338 39.0771H141.255C141.01 39.0771 140.776 39.1744 140.603 39.3474C140.43 39.5205 140.332 39.7551 140.332 39.9999V42.267H138.701C138.338 42.267 137.99 42.4112 137.733 42.6679C137.477 42.9245 137.333 43.2726 137.333 43.6356V46.7328H152.261V43.6356C152.261 43.2726 152.117 42.9245 151.86 42.6679ZM145.417 41.1988C145.956 41.4646 146.266 42.0444 146.188 42.6406H146.188C146.105 43.2711 145.609 43.7673 144.979 43.8502C144.382 43.9283 143.803 43.6181 143.537 43.0787C143.271 42.5394 143.378 41.8906 143.803 41.4654C144.229 41.0402 144.877 40.933 145.417 41.1988Z" fill="#77AFF6"/>
<path d="M159.541 96.323C155.188 100.073 152.347 104.452 152.347 104.452H124.755L127.57 48.6836H162.393L164.262 91.5837C164.262 91.5837 163.105 93.2529 159.541 96.323Z" fill="url(#paint4_linear_106_39645)"/>
<path d="M153.15 91.5156C155.542 99.9188 153.827 101.448 152.347 104.453C152.347 104.453 157.742 99.3616 164.262 91.5843C164.262 91.5843 159.564 93.1281 153.15 91.5156Z" fill="url(#paint5_linear_106_39645)"/>
<path d="M135.3 59.4829C135.246 60.4799 134.305 61.2963 133.197 61.2963C132.089 61.2963 131.253 60.4799 131.328 59.4829C131.403 58.4969 132.343 57.7056 133.429 57.7056C134.514 57.7056 135.352 58.4969 135.3 59.4829Z" fill="white"/>
<path d="M157.688 59.1661H137.702C137.351 59.1661 137.077 58.9091 137.09 58.5932C137.104 58.2783 137.399 58.0239 137.748 58.0239H157.605C157.955 58.0239 158.257 58.2783 158.281 58.5932C158.305 58.9091 158.039 59.1661 157.688 59.1661Z" fill="white"/>
<path d="M151.498 60.9661H137.63C137.275 60.9661 136.998 60.7039 137.012 60.3815C137.026 60.0603 137.324 59.8008 137.677 59.8008H151.455C151.808 59.8008 152.104 60.0603 152.117 60.3815C152.131 60.7039 151.853 60.9661 151.498 60.9661Z" fill="white"/>
<path d="M134.871 67.4923C134.813 68.5811 133.826 69.4732 132.668 69.4732C131.51 69.4732 130.639 68.5811 130.721 67.4923C130.803 66.4161 131.787 65.5527 132.921 65.5527C134.055 65.5527 134.929 66.4161 134.871 67.4923Z" fill="white"/>
<path d="M158.263 67.1469H137.383C137.015 67.1469 136.729 66.8664 136.744 66.5215C136.759 66.178 137.067 65.9004 137.432 65.9004H158.174C158.539 65.9004 158.856 66.178 158.882 66.5215C158.908 66.8664 158.631 67.1469 158.263 67.1469Z" fill="white"/>
<path d="M151.8 69.1127H137.304C136.933 69.1127 136.644 68.8263 136.659 68.4741C136.675 68.1233 136.986 67.8398 137.355 67.8398H151.753C152.121 67.8398 152.432 68.1233 152.446 68.4741C152.461 68.8263 152.171 69.1127 151.8 69.1127Z" fill="white"/>
<path d="M134.404 76.256C134.34 77.4499 133.304 78.4285 132.091 78.4285C130.878 78.4285 129.968 77.4499 130.059 76.256C130.148 75.0766 131.182 74.1309 132.368 74.1309C133.555 74.1309 134.467 75.0766 134.404 76.256Z" fill="white"/>
<path d="M158.894 75.877H137.033C136.852 75.88 136.678 75.8082 136.552 75.6784C136.425 75.5487 136.358 75.3726 136.366 75.1917C136.389 74.8097 136.705 74.5115 137.088 74.5112H158.795C159.181 74.5141 159.502 74.8079 159.539 75.1917C159.554 75.3706 159.492 75.5475 159.369 75.6782C159.246 75.809 159.073 75.8812 158.894 75.877Z" fill="white"/>
<path d="M152.131 78.0322H136.947C136.763 78.0343 136.587 77.9603 136.459 77.8277C136.331 77.695 136.264 77.5156 136.274 77.3318C136.294 76.9434 136.614 76.6385 137.003 76.6362H152.079C152.468 76.6382 152.787 76.9436 152.807 77.3318C152.815 77.5157 152.748 77.6951 152.62 77.8277C152.492 77.9602 152.315 78.0342 152.131 78.0322Z" fill="white"/>
<path d="M134.404 84.8078C134.34 86.0017 133.304 86.9803 132.091 86.9803C130.878 86.9803 129.968 86.0017 130.059 84.8078C130.148 83.6283 131.182 82.6826 132.368 82.6826C133.555 82.6826 134.467 83.6283 134.404 84.8078Z" fill="white"/>
<path d="M158.894 84.4287H137.033C136.852 84.4318 136.678 84.36 136.552 84.2302C136.425 84.1005 136.358 83.9243 136.366 83.7435C136.389 83.3615 136.705 83.0632 137.088 83.063H158.795C159.181 83.0659 159.502 83.3597 159.539 83.7435C159.554 83.9223 159.492 84.0993 159.369 84.23C159.246 84.3608 159.073 84.433 158.894 84.4287Z" fill="white"/>
<path d="M152.131 86.584H136.947C136.763 86.5861 136.587 86.512 136.459 86.3794C136.331 86.2468 136.264 86.0673 136.274 85.8835C136.294 85.4951 136.614 85.1902 137.003 85.188H152.079C152.468 85.19 152.787 85.4953 152.807 85.8835C152.815 86.0675 152.748 86.2469 152.62 86.3794C152.492 86.512 152.315 86.586 152.131 86.584Z" fill="white"/>
<path d="M70.9209 67.77C70.8841 74.2604 65.5927 79.4921 59.1023 79.4552C57.856 79.4471 56.619 79.2403 55.4378 78.8426L48.0237 81.0847C47.1971 81.3346 46.4636 80.4898 46.8272 79.7065L49.38 74.2071C48.084 72.2622 47.4003 69.9737 47.4171 67.6365C47.454 61.1461 52.7454 55.9145 59.2358 55.9514C65.7261 55.9882 70.9578 61.2796 70.9209 67.77Z" fill="url(#paint6_linear_106_39645)"/>
<path d="M66.4593 48.3566C72.3162 48.3899 77.0374 53.1649 77.0041 59.0219C76.9968 60.1465 76.8101 61.2628 76.4513 62.3287L78.4745 69.0193C78.5775 69.3597 78.4709 69.7288 78.2023 69.9619C77.9338 70.195 77.5534 70.2487 77.2308 70.099L72.2682 67.7953C70.5131 68.9649 68.4478 69.5818 66.3388 69.5666C60.4818 69.5334 55.7607 64.7584 55.794 58.9014C55.8272 53.0445 60.6022 48.3233 66.4593 48.3566Z" fill="url(#paint7_linear_106_39645)"/>
<path d="M145.538 124.331L143.754 95.4648L139.517 88.6061C139.517 88.6061 129.538 86.2757 102.371 86.2476C98.1039 86.2488 94.3199 88.991 92.9902 93.046L80.0985 132.309L143.32 133.501L145.538 124.331Z" fill="url(#paint8_linear_106_39645)"/>
<mask id="mask1_106_39645" style="mask-type:luminance" maskUnits="userSpaceOnUse" x="80" y="86" width="66" height="48">
<path fill-rule="evenodd" clip-rule="evenodd" d="M145.538 124.331L143.754 95.4648L139.517 88.6061C139.517 88.6061 129.538 86.2757 102.371 86.2476C98.1039 86.2488 94.3199 88.991 92.9902 93.046L80.0985 132.309L143.32 133.501L145.538 124.331Z" fill="white"/>
</mask>
<g mask="url(#mask1_106_39645)">
<path d="M133.668 101.562C145.092 128.07 102.39 114.317 109.379 128.846C116.097 142.811 166.388 131.835 166.388 131.835L149.085 102.892" fill="url(#paint9_linear_106_39645)"/>
<path d="M96.1108 107.364C85.1673 130.499 103.649 127.179 103.649 127.179L92.076 139.495L69.6713 133.501L71.2241 112.778L96.1108 101.119" fill="url(#paint10_linear_106_39645)"/>
</g>
<path d="M103.648 95.9963L95.1586 89.3823L54.1456 133.501L73.0011 131.483L97.9952 106.51L103.648 95.9963Z" fill="url(#paint11_linear_106_39645)"/>
<path d="M120.583 122.522H119.585C115.799 122.522 102.948 123.721 102.393 123.828C96.6259 124.937 89.1947 131.311 88.3073 131.673L121.831 131.434" fill="url(#paint12_linear_106_39645)"/>
<mask id="mask2_106_39645" style="mask-type:luminance" maskUnits="userSpaceOnUse" x="88" y="122" width="34" height="10">
<path fill-rule="evenodd" clip-rule="evenodd" d="M120.583 122.522H119.585C115.799 122.522 102.948 123.721 102.393 123.828C96.6257 124.937 89.1944 131.311 88.3071 131.673L121.831 131.434" fill="white"/>
</mask>
<g mask="url(#mask2_106_39645)">
<path opacity="0.34" d="M113.071 121.066C115.78 130.123 114.017 128.45 108.127 130.123C86.142 136.367 118.896 135.297 120.373 134.715L124.965 128.592L117.749 122.371" fill="url(#paint13_linear_106_39645)"/>
</g>
<path d="M113.046 119.901C112.635 122.714 117.071 133.501 117.071 133.501H158.084C163.293 133.501 167.857 130.013 169.224 124.986C170.424 120.575 168.907 115.871 165.357 112.991C165.357 112.991 143.157 88.574 139.518 88.6065C135.879 88.639 133.669 101.562 133.669 101.562L143.067 120.602L113.046 119.901Z" fill="url(#paint14_linear_106_39645)"/>
<path d="M128.314 130.168H89.1947V133.501H128.458V130.313C128.458 130.275 128.443 130.238 128.416 130.211C128.389 130.184 128.352 130.168 128.314 130.168Z" fill="url(#paint15_linear_106_39645)"/>
<path d="M43.6728 133.501H97.5393L82.2545 98.0244C81.8984 97.198 81.0848 96.6626 80.1849 96.6626H29.6356C29.2294 96.6626 28.8505 96.8669 28.6273 97.2061C28.404 97.5454 28.3664 97.9742 28.5271 98.3472L43.6728 133.501Z" fill="url(#paint16_linear_106_39645)"/>
<path d="M42.2443 133.501H96.1108L80.826 98.0244C80.4699 97.198 79.6563 96.6626 78.7564 96.6626H28.2071C27.801 96.6626 27.4221 96.8669 27.1988 97.2061C26.9756 97.5454 26.9379 97.9742 27.0986 98.3472L42.2443 133.501Z" fill="url(#paint17_linear_106_39645)"/>
<mask id="mask3_106_39645" style="mask-type:luminance" maskUnits="userSpaceOnUse" x="27" y="96" width="70" height="38">
<path fill-rule="evenodd" clip-rule="evenodd" d="M42.2443 133.501H96.1108L80.826 98.0244C80.4699 97.198 79.6563 96.6626 78.7564 96.6626H28.2071C27.801 96.6626 27.4221 96.8669 27.1988 97.2061C26.9756 97.5454 26.9379 97.9742 27.0986 98.3472L42.2443 133.501Z" fill="white"/>
</mask>
<g mask="url(#mask3_106_39645)">
<path d="M25.4674 93.3853C43.8364 146.961 107.295 137.492 107.295 137.492L26.9981 151.554L10.1599 119.408L14.7521 93.3853" fill="url(#paint18_linear_106_39645)"/>
</g>
<ellipse cx="4.98106" cy="3.26942" rx="4.98106" ry="3.26942" transform="matrix(-0.862617 -0.505857 -0.505858 0.862616 67.1914 114.781)" fill="url(#paint19_linear_106_39645)"/>
<path d="M125.128 88.1503L113.717 59.6851H99.9177L98.3985 77.0297L108.147 78.2957L109.38 94.6852L125.128 88.1503Z" fill="url(#paint20_linear_106_39645)"/>
<mask id="mask4_106_39645" style="mask-type:luminance" maskUnits="userSpaceOnUse" x="98" y="59" width="28" height="36">
<path fill-rule="evenodd" clip-rule="evenodd" d="M125.128 88.1503L113.717 59.6851H99.9175L98.3982 77.0297L108.147 78.2957L109.38 94.6852L125.128 88.1503Z" fill="white"/>
</mask>
<g mask="url(#mask4_106_39645)">
<path opacity="0.34" d="M111.914 72.9915C109.31 76.7987 117.283 82.9763 107.298 84.7721C97.3136 86.5679 105.359 72.3809 105.359 72.3809L109.379 70.6929" fill="url(#paint21_linear_106_39645)"/>
</g>
<path d="M108.695 66.2682C119.33 89.9852 93.8328 83.8601 98.8585 71.7725C108.864 75.046 106.416 66.2682 106.416 66.2682C106.416 66.2682 101.774 64.4957 103.462 60.9508C103.462 60.9508 99.9393 59.4335 99.7393 61.7171C95.6972 57.3216 98.7356 52.4262 108.273 55.0427C117.811 57.6592 120.765 73.1892 120.765 73.1892C120.765 73.1892 115.616 81.6294 108.695 66.2682Z" fill="url(#paint22_linear_106_39645)"/>
<path d="M109.381 67.877C114.857 62.7238 117.105 70.0825 111.316 76.1523L109.381 67.877Z" fill="url(#paint23_linear_106_39645)"/>
<path d="M111.112 90.0669L105.917 89.3823L106.758 104.882L114.242 106.269L122.796 94.3377L122.823 90.1755L117.406 90.6414L114.53 90.4032L112.203 90.403" fill="url(#paint24_linear_106_39645)"/>
<path d="M112.516 92.8197L106.409 104.713L106.505 115.452L109.591 114.259L113.969 104.438L115.088 92.0537L112.516 92.8197Z" fill="url(#paint25_linear_106_39645)"/>
<path d="M111.125 90.2134L111.825 92.831C111.997 93.4734 112.573 93.8887 113.344 93.9256L113.967 93.9555C114.729 93.992 115.572 93.654 116.195 93.0619L118.454 90.9176L115.441 90.468L111.125 90.2134Z" fill="url(#paint26_linear_106_39645)"/>
<path d="M125.514 87.8511C125.514 87.8511 124.444 85.1672 123.779 85.1279C123.779 85.1279 119.707 89.1162 115.258 90.464L118.112 94.6259C118.112 94.6259 125.782 90.505 125.514 87.8511Z" fill="url(#paint27_linear_106_39645)"/>
<path d="M124.827 86.2661L106.627 117.004L123.294 103.529L121.013 99.557L125.648 97.8287L126.515 89.1237C126.515 89.1237 127.112 87.1718 124.827 86.2661Z" fill="white"/>
<path d="M107.555 86.7393C107.555 86.7393 107.985 85.0372 108.65 85.0054C108.65 85.0054 110.358 88.9958 112.915 90.3197L110.855 93.9187C110.855 93.9187 105.626 89.468 107.555 86.7393Z" fill="url(#paint28_linear_106_39645)"/>
<rect width="8.82396" height="6.11158" rx="0.0388087" transform="matrix(-0.978822 -0.204714 -0.204715 0.978822 106.184 107.234)" fill="url(#paint29_radial_106_39645)"/>
<mask id="mask5_106_39645" style="mask-type:luminance" maskUnits="userSpaceOnUse" x="96" y="105" width="11" height="9">
<rect width="8.82396" height="6.11158" rx="0.0388087" transform="matrix(-0.978822 -0.204714 -0.204715 0.978822 106.184 107.234)" fill="white"/>
</mask>
<g mask="url(#mask5_106_39645)">
<path d="M105.418 112.983C97.017 111.561 96.6774 111.706 96.9218 108.419C97.1662 105.132 94.8431 111.106 94.8431 111.106L96.7047 113.023L105.579 114.046" fill="url(#paint30_linear_106_39645)"/>
</g>
<g opacity="0.46">
<ellipse cx="1.26827" cy="1.36874" rx="1.26827" ry="1.36874" transform="matrix(-0.978822 -0.204714 -0.204715 0.978822 104.935 108.472)" fill="white"/>
<rect width="3.46563" height="0.334226" transform="matrix(-0.978822 -0.204714 -0.204715 0.978822 101.572 107.849)" fill="white"/>
<rect width="3.46563" height="0.334226" transform="matrix(-0.978822 -0.204714 -0.204715 0.978822 101.339 108.965)" fill="white"/>
<rect width="2.5322" height="0.334226" transform="matrix(-0.978822 -0.204714 -0.204715 0.978822 101.105 110.082)" fill="white"/>
</g>
<path d="M103.311 104.4L101.314 103.982C101.285 103.976 101.256 103.995 101.25 104.025L100.814 106.111L102.917 106.551L103.353 104.464C103.36 104.435 103.341 104.406 103.311 104.4Z" fill="url(#paint31_linear_106_39645)"/>
<mask id="mask6_106_39645" style="mask-type:luminance" maskUnits="userSpaceOnUse" x="100" y="103" width="4" height="4">
<path fill-rule="evenodd" clip-rule="evenodd" d="M103.311 104.4L101.314 103.982C101.285 103.976 101.256 103.995 101.25 104.025L100.813 106.111L102.917 106.551L103.353 104.464C103.359 104.435 103.34 104.406 103.311 104.4Z" fill="white"/>
</mask>
<g mask="url(#mask6_106_39645)">
<path d="M100.849 105.075C100.95 105.872 103.055 106.032 103.201 106.296C103.347 106.559 102.563 106.78 102.563 106.78L100.478 106.344L100.708 105.335" fill="url(#paint32_linear_106_39645)"/>
</g>
<rect width="5.08784" height="1.20958" transform="matrix(-0.978822 -0.204714 -0.204715 0.978822 104.418 106.551)" fill="url(#paint33_linear_106_39645)"/>
<path d="M107.887 85.8149C107.887 85.8149 107.44 111.43 108.427 114.157L106.628 117.004L101.597 101.457L104.432 98.596L100.498 97.5262L105.913 87.4189C105.913 87.4189 106.059 85.9736 107.887 85.8149Z" fill="white"/>
<ellipse cx="1.45275" cy="1.45275" rx="1.45275" ry="1.45275" transform="matrix(-1 0 0 1 107.073 118.896)" fill="white"/>
<path d="M167.341 99.1094C167.341 99.1094 168.44 100.428 168.44 101.032C168.44 101.639 167.948 102.131 167.341 102.131C166.734 102.131 166.242 101.639 166.242 101.032C166.242 100.428 167.341 99.1094 167.341 99.1094V99.1094Z" fill="url(#paint34_linear_106_39645)"/>
<rect width="1.06944" height="6.28121" transform="matrix(-1 0 0 1 174.11 96.5093)" fill="url(#paint35_linear_106_39645)"/>
<mask id="mask7_106_39645" style="mask-type:luminance" maskUnits="userSpaceOnUse" x="173" y="96" width="2" height="7">
<rect width="1.06944" height="6.28121" transform="matrix(-1 0 0 1 174.11 96.5093)" fill="white"/>
</mask>
<g mask="url(#mask7_106_39645)">
<path d="M176.153 97.8821C173.749 98.6283 173.407 97.5999 172.422 97.4405C171.438 97.281 173.915 95.9673 173.915 95.9673L175.241 96.8043" fill="url(#paint36_linear_106_39645)"/>
</g>
<path d="M168.001 107.178H171.232V100.58C171.232 100.347 171.325 100.122 171.491 99.957C171.656 99.7916 171.88 99.6987 172.114 99.6987H175.037C175.271 99.6987 175.495 99.7916 175.661 99.957C175.826 100.122 175.919 100.347 175.919 100.58V107.178H179.15C179.816 107.178 180.455 107.443 180.926 107.914C181.397 108.385 181.662 109.023 181.662 109.689V131.183C181.662 131.85 181.397 132.488 180.926 132.959C180.455 133.43 179.816 133.695 179.15 133.695H168.001C167.335 133.695 166.696 133.43 166.225 132.959C165.754 132.488 165.489 131.85 165.489 131.183V109.689C165.489 108.302 166.614 107.178 168.001 107.178Z" fill="url(#paint37_linear_106_39645)"/>
<mask id="mask8_106_39645" style="mask-type:luminance" maskUnits="userSpaceOnUse" x="165" y="99" width="17" height="35">
<path fill-rule="evenodd" clip-rule="evenodd" d="M168.001 107.178H171.232V100.58C171.232 100.347 171.325 100.122 171.491 99.957C171.656 99.7916 171.88 99.6987 172.114 99.6987H175.037C175.271 99.6987 175.495 99.7916 175.661 99.957C175.826 100.122 175.919 100.347 175.919 100.58V107.178H179.15C179.816 107.178 180.455 107.443 180.926 107.914C181.397 108.385 181.662 109.023 181.662 109.689V131.183C181.662 131.85 181.397 132.488 180.926 132.959C180.455 133.43 179.816 133.695 179.15 133.695H168.001C167.335 133.695 166.696 133.43 166.225 132.959C165.754 132.488 165.489 131.85 165.489 131.183V109.689C165.489 108.302 166.614 107.178 168.001 107.178Z" fill="white"/>
</mask>
<g mask="url(#mask8_106_39645)">
<path opacity="0.15" d="M182.869 118.396C178.309 134.983 164.961 133.695 164.961 133.695L184.693 136.807L183.449 122.215L183.117 119.148" fill="white"/>
<path opacity="0.15" d="M161.658 116.697C166.022 106.133 179.182 106.788 179.182 106.788L159.719 105.054L161.057 114.284L161.408 116.224" fill="white"/>
</g>
<path d="M167.341 94.4937V94.5136C167.341 95.3162 167.817 95.9668 168.405 95.9668H170.476C171.007 95.9668 171.437 96.555 171.437 97.2806C171.437 97.3686 171.49 97.44 171.554 97.44H175.682C175.746 97.44 175.799 97.3686 175.799 97.2806V95.4113C175.799 94.9045 175.498 94.4937 175.127 94.4937L167.341 94.4937Z" fill="url(#paint38_linear_106_39645)"/>
<rect opacity="0.39" width="1.03003" height="24.5328" transform="matrix(-1 0 0 1 174.091 102.791)" fill="white"/>
<rect width="5.67846" height="6.0546" rx="0.480259" transform="matrix(-1 0 0 1 176.415 100.815)" fill="url(#paint39_linear_106_39645)"/>
<mask id="mask9_106_39645" style="mask-type:luminance" maskUnits="userSpaceOnUse" x="170" y="100" width="7" height="7">
<rect width="5.67846" height="6.0546" rx="0.480259" transform="matrix(-1 0 0 1 176.415 100.815)" fill="white"/>
</mask>
<g mask="url(#mask9_106_39645)">
<rect opacity="0.33" width="0.339963" height="7.09065" transform="matrix(-1 0 0 1 175.664 100.217)" fill="url(#paint40_linear_106_39645)"/>
<path opacity="0.33" d="M174.339 107.307H174.679V100.217H174.339" fill="url(#paint41_linear_106_39645)"/>
<rect opacity="0.33" width="0.339963" height="7.09065" transform="matrix(-1 0 0 1 173.916 100.217)" fill="url(#paint42_linear_106_39645)"/>
<rect opacity="0.33" width="0.339963" height="7.09065" transform="matrix(-1 0 0 1 171.74 100.217)" fill="url(#paint43_linear_106_39645)"/>
</g>
<path opacity="0.82" d="M180.859 116.358H166.293V129.93C166.293 130.756 166.621 131.547 167.205 132.131C167.789 132.715 168.58 133.043 169.406 133.043H177.747C179.465 133.043 180.859 131.649 180.859 129.93V116.358V116.358Z" fill="url(#paint44_linear_106_39645)"/>
<rect width="9.06568" height="9.06566" rx="0.699802" transform="matrix(-1 0 0 1 178.109 118.396)" fill="white"/>
<path d="M170.661 122.272H172.917V120.016H174.233V122.272H176.489V123.587H174.233V125.844H172.917V123.587H170.661V122.272Z" fill="url(#paint45_linear_106_39645)"/>
</g>
<rect x="2" y="2" width="204" height="134" rx="10" stroke="#51C1FF" stroke-opacity="0.07" stroke-width="4"/>
<defs>
<linearGradient id="paint0_linear_106_39645" x1="256.585" y1="2.22817" x2="236.62" y2="222.3" gradientUnits="userSpaceOnUse">
<stop stop-color="#A7F6FF"/>
<stop offset="1" stop-color="#34A595"/>
</linearGradient>
<linearGradient id="paint1_linear_106_39645" x1="124.77" y1="104.665" x2="129.065" y2="49.2833" gradientUnits="userSpaceOnUse">
<stop stop-color="#FFADA9"/>
<stop offset="1" stop-color="#FF6559"/>
</linearGradient>
<linearGradient id="paint2_linear_106_39645" x1="116.081" y1="49.9915" x2="116.092" y2="41.5246" gradientUnits="userSpaceOnUse">
<stop offset="0.1011" stop-color="#FF5D37"/>
<stop offset="0.8855" stop-color="#FF9346"/>
</linearGradient>
<linearGradient id="paint3_linear_106_39645" x1="83.6584" y1="83.3714" x2="81.4338" y2="133.237" gradientUnits="userSpaceOnUse">
<stop stop-color="#FFADA9"/>
<stop offset="1" stop-color="#FF6559"/>
</linearGradient>
<linearGradient id="paint4_linear_106_39645" x1="96.5927" y1="92.19" x2="150.65" y2="37.9332" gradientUnits="userSpaceOnUse">
<stop offset="0.1023" stop-color="#DCDFF8"/>
<stop offset="0.8855" stop-color="#F5F7FE"/>
</linearGradient>
<linearGradient id="paint5_linear_106_39645" x1="13.2124" y1="99.6499" x2="19.446" y2="91.7185" gradientUnits="userSpaceOnUse">
<stop offset="0.1023" stop-color="#DCDFF8"/>
<stop offset="0.8855" stop-color="#F5F7FE"/>
</linearGradient>
<linearGradient id="paint6_linear_106_39645" x1="27.298" y1="70.6929" x2="53.165" y2="54.3361" gradientUnits="userSpaceOnUse">
<stop offset="0.4867" stop-color="#77C1BC"/>
<stop offset="1" stop-color="#34A595"/>
</linearGradient>
<linearGradient id="paint7_linear_106_39645" x1="78.5149" y1="75.8334" x2="44.0346" y2="75.8334" gradientUnits="userSpaceOnUse">
<stop stop-color="#FFCC92"/>
<stop offset="1" stop-color="#F79748"/>
</linearGradient>
<linearGradient id="paint8_linear_106_39645" x1="172.001" y1="38.0558" x2="190.377" y2="154.945" gradientUnits="userSpaceOnUse">
<stop offset="0.1023" stop-color="white"/>
<stop offset="0.8855" stop-color="#E3EBFD"/>
</linearGradient>
<linearGradient id="paint9_linear_106_39645" x1="152.824" y1="145.429" x2="151.402" y2="141.156" gradientUnits="userSpaceOnUse">
<stop offset="0.1023" stop-color="white"/>
<stop offset="0.8855" stop-color="#CDDEFD"/>
</linearGradient>
<linearGradient id="paint10_linear_106_39645" x1="123.543" y1="106.744" x2="121.158" y2="107.679" gradientUnits="userSpaceOnUse">
<stop offset="0.1023" stop-color="white"/>
<stop offset="0.8855" stop-color="#CDDEFD"/>
</linearGradient>
<linearGradient id="paint11_linear_106_39645" x1="126.458" y1="44.3406" x2="154.23" y2="160.305" gradientUnits="userSpaceOnUse">
<stop offset="0.1023" stop-color="white"/>
<stop offset="0.8855" stop-color="#E3EBFD"/>
</linearGradient>
<linearGradient id="paint12_linear_106_39645" x1="121.831" y1="131.808" x2="87.913" y2="131.808" gradientUnits="userSpaceOnUse">
<stop offset="0.1023" stop-color="#FCADBA"/>
<stop offset="0.8855" stop-color="#FBDAD9"/>
</linearGradient>
<linearGradient id="paint13_linear_106_39645" x1="124.965" y1="135.171" x2="100.558" y2="135.171" gradientUnits="userSpaceOnUse">
<stop offset="0.1011" stop-color="#FF7638"/>
<stop offset="0.8855" stop-color="#FF3929"/>
</linearGradient>
<linearGradient id="paint14_linear_106_39645" x1="193.127" y1="21.2804" x2="216.896" y2="146.625" gradientUnits="userSpaceOnUse">
<stop offset="0.1023" stop-color="white"/>
<stop offset="0.8855" stop-color="#E3EBFD"/>
</linearGradient>
<linearGradient id="paint15_linear_106_39645" x1="128.459" y1="133.501" x2="89.1947" y2="133.501" gradientUnits="userSpaceOnUse">
<stop stop-color="#98C5FF"/>
<stop offset="1" stop-color="#3580E4"/>
</linearGradient>
<linearGradient id="paint16_linear_106_39645" x1="97.5393" y1="133.501" x2="28.4273" y2="133.501" gradientUnits="userSpaceOnUse">
<stop stop-color="#98C5FF"/>
<stop offset="1" stop-color="#3580E4"/>
</linearGradient>
<linearGradient id="paint17_linear_106_39645" x1="96.1108" y1="133.501" x2="26.9988" y2="133.501" gradientUnits="userSpaceOnUse">
<stop stop-color="#98C5FF"/>
<stop offset="1" stop-color="#3580E4"/>
</linearGradient>
<linearGradient id="paint18_linear_106_39645" x1="107.295" y1="151.554" x2="10.1599" y2="151.554" gradientUnits="userSpaceOnUse">
<stop stop-color="#98C5FF"/>
<stop offset="1" stop-color="#3580E4"/>
</linearGradient>
<linearGradient id="paint19_linear_106_39645" x1="-2.54093" y1="3.54735" x2="2.46725" y2="10.3643" gradientUnits="userSpaceOnUse">
<stop stop-color="#98C5FF"/>
<stop offset="1" stop-color="#3580E4"/>
</linearGradient>
<linearGradient id="paint20_linear_106_39645" x1="125.128" y1="94.6852" x2="98.3985" y2="94.6852" gradientUnits="userSpaceOnUse">
<stop offset="0.1023" stop-color="#FCADBA"/>
<stop offset="0.8855" stop-color="#FBDAD9"/>
</linearGradient>
<linearGradient id="paint21_linear_106_39645" x1="112.49" y1="84.9293" x2="102.295" y2="84.9293" gradientUnits="userSpaceOnUse">
<stop offset="0.1011" stop-color="#FF7638"/>
<stop offset="0.8855" stop-color="#FF3929"/>
</linearGradient>
<linearGradient id="paint22_linear_106_39645" x1="120.765" y1="82.4481" x2="97.9948" y2="82.4481" gradientUnits="userSpaceOnUse">
<stop offset="0.1023" stop-color="#915758"/>
<stop offset="0.8855" stop-color="#2C090B"/>
</linearGradient>
<linearGradient id="paint23_linear_106_39645" x1="114.715" y1="76.1523" x2="109.381" y2="76.1523" gradientUnits="userSpaceOnUse">
<stop offset="0.1023" stop-color="#FCADBA"/>
<stop offset="0.8855" stop-color="#FBDAD9"/>
</linearGradient>
<linearGradient id="paint24_linear_106_39645" x1="104.497" y1="114.578" x2="105.927" y2="110.195" gradientUnits="userSpaceOnUse">
<stop stop-color="#FFCC92"/>
<stop offset="1" stop-color="#F79748"/>
</linearGradient>
<linearGradient id="paint25_linear_106_39645" x1="107.041" y1="93.5196" x2="114.245" y2="93.6543" gradientUnits="userSpaceOnUse">
<stop stop-color="#98C5FF"/>
<stop offset="1" stop-color="#3580E4"/>
</linearGradient>
<linearGradient id="paint26_linear_106_39645" x1="112.126" y1="89.5632" x2="117.168" y2="93.5544" gradientUnits="userSpaceOnUse">
<stop offset="0.0083" stop-color="#009EFE"/>
<stop offset="1" stop-color="#005DFA"/>
</linearGradient>
<linearGradient id="paint27_linear_106_39645" x1="127.023" y1="87.4957" x2="125.824" y2="99.2607" gradientUnits="userSpaceOnUse">
<stop stop-color="#FFE5CF"/>
<stop offset="1" stop-color="#FFAE6C"/>
</linearGradient>
<linearGradient id="paint28_linear_106_39645" x1="113.604" y1="86.3633" x2="113.3" y2="97.288" gradientUnits="userSpaceOnUse">
<stop stop-color="#FFE5CF"/>
<stop offset="1" stop-color="#FFAE6C"/>
</linearGradient>
<radialGradient id="paint29_radial_106_39645" cx="0" cy="0" r="1" gradientUnits="userSpaceOnUse" gradientTransform="translate(7.88296 -1.54224) scale(12.285 8.50874)">
<stop stop-color="#00BEDE"/>
<stop offset="0.9965" stop-color="#4A8BFD"/>
</radialGradient>
<linearGradient id="paint30_linear_106_39645" x1="107.293" y1="108.521" x2="106.145" y2="114.657" gradientUnits="userSpaceOnUse">
<stop stop-color="#00BEDE"/>
<stop offset="0.9965" stop-color="#4A8BFD"/>
</linearGradient>
<linearGradient id="paint31_linear_106_39645" x1="103.627" y1="104.518" x2="102.719" y2="106.596" gradientUnits="userSpaceOnUse">
<stop offset="0.1011" stop-color="#FFE494"/>
<stop offset="1" stop-color="#FFAE00"/>
</linearGradient>
<linearGradient id="paint32_linear_106_39645" x1="103.257" y1="104.65" x2="103.137" y2="105.034" gradientUnits="userSpaceOnUse">
<stop offset="0.1011" stop-color="#FFE494"/>
<stop offset="1" stop-color="#FFAE00"/>
</linearGradient>
<linearGradient id="paint33_linear_106_39645" x1="-8.77907" y1="-3.36179" x2="-8.73286" y2="1.71852" gradientUnits="userSpaceOnUse">
<stop offset="0.1011" stop-color="#FFE494"/>
<stop offset="1" stop-color="#FFAE00"/>
</linearGradient>
<linearGradient id="paint34_linear_106_39645" x1="167.596" y1="99.6343" x2="168.363" y2="101.046" gradientUnits="userSpaceOnUse">
<stop stop-color="#A7F6FF"/>
<stop offset="1" stop-color="#34A595"/>
</linearGradient>
<linearGradient id="paint35_linear_106_39645" x1="-2.80972" y1="12.9208" x2="2.03581" y2="13.1086" gradientUnits="userSpaceOnUse">
<stop offset="0.0083" stop-color="#00CAFE"/>
<stop offset="1" stop-color="#0088FA"/>
</linearGradient>
<linearGradient id="paint36_linear_106_39645" x1="177.581" y1="96.4665" x2="176.962" y2="99.1944" gradientUnits="userSpaceOnUse">
<stop offset="0.0083" stop-color="#00CAFE"/>
<stop offset="1" stop-color="#0088FA"/>
</linearGradient>
<linearGradient id="paint37_linear_106_39645" x1="171.359" y1="54.681" x2="220.032" y2="76.4354" gradientUnits="userSpaceOnUse">
<stop stop-color="#A7F6FF"/>
<stop offset="1" stop-color="#34A595"/>
</linearGradient>
<linearGradient id="paint38_linear_106_39645" x1="181.86" y1="91.221" x2="182.311" y2="99.553" gradientUnits="userSpaceOnUse">
<stop offset="0.1023" stop-color="#915758"/>
<stop offset="0.8855" stop-color="#2C090B"/>
</linearGradient>
<linearGradient id="paint39_linear_106_39645" x1="0" y1="6.0546" x2="5.67846" y2="6.0546" gradientUnits="userSpaceOnUse">
<stop stop-color="#98C5FF"/>
<stop offset="1" stop-color="#3580E4"/>
</linearGradient>
<linearGradient id="paint40_linear_106_39645" x1="-1.07963" y1="13.7637" x2="-0.818783" y2="13.7601" gradientUnits="userSpaceOnUse">
<stop stop-color="#98C5FF"/>
<stop offset="1" stop-color="#3580E4"/>
</linearGradient>
<linearGradient id="paint41_linear_106_39645" x1="175.785" y1="114.141" x2="175.524" y2="114.137" gradientUnits="userSpaceOnUse">
<stop stop-color="#98C5FF"/>
<stop offset="1" stop-color="#3580E4"/>
</linearGradient>
<linearGradient id="paint42_linear_106_39645" x1="-1.12687" y1="14.0472" x2="-0.866033" y2="14.0436" gradientUnits="userSpaceOnUse">
<stop stop-color="#98C5FF"/>
<stop offset="1" stop-color="#3580E4"/>
</linearGradient>
<linearGradient id="paint43_linear_106_39645" x1="-1.18569" y1="14.4001" x2="-0.924851" y2="14.3965" gradientUnits="userSpaceOnUse">
<stop stop-color="#98C5FF"/>
<stop offset="1" stop-color="#3580E4"/>
</linearGradient>
<linearGradient id="paint44_linear_106_39645" x1="180.859" y1="133.043" x2="166.293" y2="133.043" gradientUnits="userSpaceOnUse">
<stop stop-color="#98C5FF"/>
<stop offset="1" stop-color="#3580E4"/>
</linearGradient>
<linearGradient id="paint45_linear_106_39645" x1="176.489" y1="125.844" x2="170.661" y2="125.844" gradientUnits="userSpaceOnUse">
<stop stop-color="#FFADA9"/>
<stop offset="1" stop-color="#FF6559"/>
</linearGradient>
<clipPath id="clip0_106_39645">
<rect x="4" y="4" width="200" height="130" rx="8" fill="white"/>
</clipPath>
</defs>
</svg>
