<svg width="208" height="138" viewBox="0 0 208 138" fill="none" xmlns="http://www.w3.org/2000/svg">
<g clip-path="url(#clip0_106_40070)">
<rect x="4" y="4" width="200" height="130" rx="8" fill="white"/>
<g opacity="0.19">
<path opacity="0.19" d="M40.5351 94.9642C31.4707 62.3361 50.8604 35.8859 83.8432 35.8859C116.826 35.8859 150.912 62.3361 159.976 94.9642C164.341 110.675 162.106 124.951 154.936 135.534H68.117C55.0666 124.951 44.8996 110.675 40.5351 94.9642Z" fill="#057BF4"/>
</g>
<g opacity="0.35">
<rect width="1.59144" height="4.16583" transform="matrix(-1 0 0 1 150.317 51.382)" fill="url(#paint0_linear_106_40070)"/>
<rect width="1.59144" height="4.16583" transform="matrix(0.707107 0.707107 0.707107 -0.707107 137.652 84.2032)" fill="url(#paint1_linear_106_40070)"/>
<rect width="1.79457" height="4.69755" transform="matrix(-0.340983 0.940069 0.940069 0.340983 131.817 63.7256)" fill="url(#paint2_linear_106_40070)"/>
<rect width="1.95191" height="5.10941" transform="matrix(0.850759 -0.525556 -0.525556 -0.850759 158.26 87.4919)" fill="url(#paint3_linear_106_40070)"/>
<rect width="0.867518" height="2.27086" transform="matrix(0.44206 0.896985 0.896985 -0.44206 133.207 76.9652)" fill="url(#paint4_linear_106_40070)"/>
<rect width="0.867518" height="2.27086" transform="matrix(-0.79158 0.611066 0.611066 0.79158 138.33 57.1122)" fill="url(#paint5_linear_106_40070)"/>
<rect width="0.867518" height="2.27086" transform="matrix(-0.806899 -0.590689 -0.590689 0.806899 160.105 57.1091)" fill="url(#paint6_linear_106_40070)"/>
<path d="M160.261 56.1618C160.127 56.0639 159.96 56.0232 159.796 56.0485C159.632 56.0738 159.485 56.1632 159.388 56.2969L159.34 56.3619C159.136 56.6403 159.197 57.0313 159.475 57.2351C159.753 57.4389 160.144 57.3785 160.348 57.1L160.396 57.035C160.494 56.9013 160.534 56.7342 160.509 56.5705C160.484 56.4067 160.394 56.2597 160.261 56.1618Z" fill="url(#paint7_linear_106_40070)"/>
<rect width="0.867518" height="2.27086" transform="matrix(0.60063 -0.799527 -0.799527 -0.60063 164.183 79.675)" fill="url(#paint8_linear_106_40070)"/>
<rect width="1.79457" height="4.69755" transform="matrix(-0.1459 -0.989299 -0.989299 0.1459 168.233 67.7146)" fill="url(#paint9_linear_106_40070)"/>
<path d="M170.68 66.565L170.646 66.3333C170.469 65.1352 169.355 64.3071 168.157 64.4838C166.958 64.6605 166.13 65.775 166.307 66.9731L166.341 67.2049C166.518 68.403 167.633 69.231 168.831 69.0543C170.029 68.8776 170.857 67.7631 170.68 66.565L170.68 66.565Z" fill="url(#paint10_linear_106_40070)"/>
<ellipse cx="15.3192" cy="15.3192" rx="15.3192" ry="15.3192" transform="matrix(-1 0 0 1 164.84 55.1407)" fill="url(#paint11_linear_106_40070)"/>
<mask id="mask0_106_40070" style="mask-type:luminance" maskUnits="userSpaceOnUse" x="134" y="55" width="31" height="31">
<ellipse cx="15.3192" cy="15.3192" rx="15.3192" ry="15.3192" transform="matrix(-1 0 0 1 164.841 55.1409)" fill="white"/>
</mask>
<g mask="url(#mask0_106_40070)">
<path d="M147.108 53.6288C126.618 76.1845 138.071 85.4371 151.934 85.7791C165.796 86.1212 140.245 96.0578 140.245 96.0578L132.012 70.2225L134.283 53.7561" fill="url(#paint12_linear_106_40070)"/>
</g>
<ellipse cx="3.41837" cy="3.41837" rx="3.41837" ry="3.41837" transform="matrix(-1 0 0 1 160.222 63.3528)" fill="url(#paint13_linear_106_40070)"/>
<ellipse cx="3.41837" cy="3.41837" rx="3.41837" ry="3.41837" transform="matrix(-1 0 0 1 147.467 59.2123)" fill="url(#paint14_linear_106_40070)"/>
<ellipse cx="3.41837" cy="3.41837" rx="3.41837" ry="3.41837" transform="matrix(-1 0 0 1 148.725 74.7811)" fill="url(#paint15_linear_106_40070)"/>
<circle cx="1.17016" cy="1.17016" r="1.17016" transform="matrix(-1 0 0 1 161.206 55.2992)" fill="url(#paint16_linear_106_40070)"/>
<circle cx="1.17016" cy="1.17016" r="1.17016" transform="matrix(-1 0 0 1 139.04 56.0557)" fill="url(#paint17_linear_106_40070)"/>
<circle cx="1.17016" cy="1.17016" r="1.17016" transform="matrix(-1 0 0 1 165.737 78.2504)" fill="url(#paint18_linear_106_40070)"/>
<circle cx="1.17016" cy="1.17016" r="1.17016" transform="matrix(-1 0 0 1 134.239 76.2341)" fill="url(#paint19_linear_106_40070)"/>
<circle cx="2.41266" cy="2.41266" r="2.41266" transform="matrix(-1 0 0 1 151.934 48.8035)" fill="url(#paint20_linear_106_40070)"/>
<circle cx="2.41266" cy="2.41266" r="2.41266" transform="matrix(-1 0 0 1 133.384 61.8148)" fill="url(#paint21_linear_106_40070)"/>
<circle cx="2.85041" cy="2.85041" r="2.85041" transform="matrix(-1 0 0 1 140.188 82.9287)" fill="url(#paint22_linear_106_40070)"/>
<circle cx="2.85041" cy="2.85041" r="2.85041" transform="matrix(-1 0 0 1 162.033 84.2778)" fill="url(#paint23_linear_106_40070)"/>
</g>
<path d="M100.52 81.4878L102.583 81.1586C114.518 79.2526 122.517 72.1067 122.598 72.0346L122.815 71.8374C122.815 71.8363 122.818 71.8374 122.818 71.8374C124.503 70.5134 126.889 70.5665 128.514 71.964L128.634 72.076C128.813 72.2395 136.748 79.4063 148.551 81.1512L150.688 81.4669C150.688 81.4681 150.685 81.4747 150.688 81.4747C151.673 81.7295 152.36 82.618 152.361 83.6353V98.2521C152.361 110.462 145.122 120.713 128.161 132.522C126.636 133.597 124.604 133.609 123.066 132.553L123.044 132.537C106.068 120.72 98.8253 110.469 98.8253 98.2521V83.6353C98.8294 82.615 99.5287 81.7289 100.52 81.4878V81.4878Z" fill="url(#paint24_linear_106_40070)"/>
<path d="M100.52 83.8859L102.583 83.5567C114.518 81.6507 122.517 74.5048 122.598 74.4326L122.815 74.2355C122.815 74.2343 122.818 74.2355 122.818 74.2355C124.503 72.9115 126.889 72.9645 128.514 74.362L128.634 74.474C128.813 74.6376 136.748 81.8044 148.551 83.5493L150.688 83.865C150.688 83.8662 150.685 83.8727 150.688 83.8727C151.673 84.1276 152.36 85.0161 152.361 86.0334V100.65C152.361 112.86 145.122 123.111 128.161 134.92C126.636 135.995 124.604 136.007 123.066 134.951L123.044 134.936C106.068 123.118 98.8253 112.867 98.8253 100.65V86.0334C98.8294 85.013 99.5287 84.127 100.52 83.8859V83.8859Z" fill="url(#paint25_linear_106_40070)"/>
<mask id="mask1_106_40070" style="mask-type:luminance" maskUnits="userSpaceOnUse" x="98" y="73" width="55" height="63">
<path fill-rule="evenodd" clip-rule="evenodd" d="M100.52 83.8857L102.583 83.5566C114.518 81.6505 122.517 74.5046 122.597 74.4325L122.815 74.2353C122.815 74.2342 122.818 74.2353 122.818 74.2353C124.503 72.9114 126.889 72.9644 128.514 74.3619L128.634 74.4739C128.812 74.6374 136.748 81.8042 148.55 83.5491L150.688 83.8649C150.688 83.8661 150.685 83.8726 150.688 83.8726C151.672 84.1275 152.36 85.016 152.36 86.0332V100.65C152.36 112.86 145.122 123.111 128.161 134.92C126.636 135.995 124.603 136.007 123.066 134.951L123.044 134.935C106.068 123.118 98.825 112.866 98.825 100.65V86.0333C98.8292 85.0129 99.5285 84.1269 100.52 83.8857V83.8857Z" fill="white"/>
</mask>
<g mask="url(#mask1_106_40070)">
<path d="M125.593 70.8788C150.02 98.3665 127.445 131.186 111.131 134.411C94.816 137.636 128.413 141.809 128.413 141.809L157.419 134.6C157.419 134.6 167.853 84.8236 166.714 83.4377C165.576 82.0518 144.709 68.0135 144.709 68.0135L139.776 68.7724" fill="url(#paint26_linear_106_40070)"/>
<path opacity="0.12" d="M98.8253 95.8021C97.4087 111.52 119.415 133.146 126.813 137.509C134.212 141.872 109.929 133.337 109.929 133.337L99.8748 123.661L93.4248 102.108L95.1322 100.318" fill="white"/>
</g>
<path d="M106.55 88.8448L108.117 88.5948C117.182 87.1472 123.257 81.7198 123.318 81.665L123.484 81.5152C123.484 81.5144 123.486 81.5152 123.486 81.5152C124.765 80.5097 126.578 80.55 127.812 81.6114L127.903 81.6964C128.039 81.8206 134.066 87.2639 143.03 88.5892L144.653 88.829C144.653 88.8299 144.651 88.8349 144.653 88.8349C145.401 89.0284 145.924 89.7033 145.924 90.4759V101.578C145.924 110.851 140.426 118.637 127.544 127.606C126.386 128.422 124.842 128.432 123.674 127.629L123.658 127.618C110.764 118.642 105.263 110.856 105.263 101.578V90.4759C105.266 89.7009 105.797 89.028 106.55 88.8448L106.55 88.8448Z" fill="url(#paint27_radial_106_40070)"/>
<mask id="mask2_106_40070" style="mask-type:luminance" maskUnits="userSpaceOnUse" x="105" y="80" width="41" height="49">
<path fill-rule="evenodd" clip-rule="evenodd" d="M106.551 88.8447L108.117 88.5947C117.182 87.147 123.257 81.7197 123.319 81.6649L123.484 81.5151C123.484 81.5143 123.486 81.5151 123.486 81.5151C124.766 80.5096 126.578 80.5498 127.812 81.6113L127.903 81.6963C128.039 81.8205 134.066 87.2638 143.03 88.589L144.653 88.8288C144.653 88.8298 144.651 88.8347 144.653 88.8347C145.401 89.0283 145.924 89.7031 145.924 90.4758V101.577C145.924 110.851 140.426 118.637 127.544 127.606C126.386 128.422 124.842 128.431 123.674 127.629L123.658 127.617C110.764 118.642 105.263 110.856 105.263 101.577V90.4758C105.266 89.7008 105.797 89.0278 106.551 88.8447L106.551 88.8447Z" fill="white"/>
</mask>
<g mask="url(#mask2_106_40070)">
<path d="M127.13 109.5L127.701 112.414L112.965 129.162L98.8261 114.112L115.758 100.471L125.594 104.506" fill="url(#paint28_linear_106_40070)"/>
</g>
<path d="M116.929 99.3003H122.315V93.9143C122.315 93.2676 122.839 92.7433 123.486 92.7433H127.701C128.347 92.7433 128.872 93.2676 128.872 93.9143V99.3003H134.258C134.904 99.3003 135.429 99.8246 135.429 100.471V104.686C135.429 105.333 134.904 105.857 134.258 105.857H128.872V111.243C128.872 111.89 128.347 112.414 127.701 112.414H123.486C122.839 112.414 122.315 111.89 122.315 111.243V105.857H116.929C116.282 105.857 115.758 105.333 115.758 104.686V100.471C115.758 99.8246 116.282 99.3003 116.929 99.3003Z" fill="white"/>
<mask id="mask3_106_40070" style="mask-type:luminance" maskUnits="userSpaceOnUse" x="115" y="92" width="21" height="21">
<path fill-rule="evenodd" clip-rule="evenodd" d="M116.929 99.3004H122.315V93.9145C122.315 93.2677 122.839 92.7434 123.486 92.7434H127.701C128.347 92.7434 128.872 93.2677 128.872 93.9145V99.3004H134.258C134.904 99.3004 135.429 99.8247 135.429 100.471V104.686C135.429 105.333 134.904 105.857 134.258 105.857H128.872V111.243C128.872 111.89 128.347 112.414 127.701 112.414H123.486C122.839 112.414 122.315 111.89 122.315 111.243V105.857H116.929C116.282 105.857 115.758 105.333 115.758 104.686V100.471C115.758 99.8247 116.282 99.3004 116.929 99.3004Z" fill="white"/>
</mask>
<g mask="url(#mask3_106_40070)">
<path opacity="0.5" d="M122.314 93.9143C116.928 105.857 130.544 107.653 131.176 112.969C131.808 118.286 122.45 121.068 122.45 121.068L114.608 106.759L112.332 96.5893L122.314 93.9143" fill="url(#paint29_linear_106_40070)"/>
</g>
<path opacity="0.71" d="M51.6906 118.803L67.6707 90.2011L68.3042 88.8435V60.5365H82.3238V88.8433L82.9575 90.2011L98.9376 118.803C102.88 125.859 97.7792 134.553 89.6957 134.553H60.9325C52.8491 134.553 47.7479 125.859 51.6906 118.803Z" fill="url(#paint30_linear_106_40070)"/>
<mask id="mask4_106_40070" style="mask-type:luminance" maskUnits="userSpaceOnUse" x="50" y="60" width="51" height="75">
<path fill-rule="evenodd" clip-rule="evenodd" d="M51.6906 118.803L67.6707 90.2009L68.3042 88.8433V60.5364H82.3238V88.8432L82.9575 90.201L98.9376 118.803C102.88 125.859 97.7792 134.553 89.6957 134.553H60.9325C52.8491 134.553 47.7479 125.859 51.6906 118.803Z" fill="white"/>
</mask>
<g mask="url(#mask4_106_40070)">
<path opacity="0.47" d="M82.3234 71.4986C81.9247 63.0869 80.9696 63.5775 73.5955 62.2734C66.2213 60.9694 81.265 60.9694 81.265 60.9694L86.4604 61.6025" fill="url(#paint31_linear_106_40070)"/>
</g>
<path d="M71.8805 109.256C78.8364 103.679 84.3385 103.74 90.7497 106.433L97.1692 117.923C100.817 124.452 96.0975 132.495 88.6187 132.495H62.0079C54.5292 132.495 49.8096 124.452 53.4574 117.923L58.7327 108.482C62.7544 111.269 66.8657 113.276 71.8805 109.256Z" fill="url(#paint32_radial_106_40070)"/>
<mask id="mask5_106_40070" style="mask-type:luminance" maskUnits="userSpaceOnUse" x="52" y="104" width="47" height="29">
<path fill-rule="evenodd" clip-rule="evenodd" d="M71.8803 109.256C78.8362 103.679 84.3383 103.74 90.7495 106.433L97.169 117.923C100.817 124.452 96.0972 132.495 88.6185 132.495H62.0076C54.5289 132.495 49.8094 124.452 53.4572 117.923L58.7325 108.482C62.7542 111.269 66.8654 113.276 71.8803 109.256Z" fill="white"/>
</mask>
<g mask="url(#mask5_106_40070)">
<path opacity="0.41" d="M87.8617 104.374C97.9151 130.636 72.5063 129.061 56.8456 131.041C41.1849 133.02 72.8253 136.813 75.313 136.648C77.8007 136.483 101.551 131.865 102.541 131.7C103.531 131.535 107.324 116.031 103.86 112.073C100.397 108.115 97.2631 102.837 97.2631 102.837" fill="url(#paint33_linear_106_40070)"/>
</g>
<rect width="18.1847" height="2.60817" rx="1.30408" transform="matrix(-1 0 0 1 84.4065 59.6653)" fill="url(#paint34_linear_106_40070)"/>
<circle opacity="0.2" cx="0.694286" cy="0.694286" r="0.694286" transform="matrix(-1 0 0 1 83.9338 116.328)" fill="white"/>
<circle opacity="0.2" cx="0.95945" cy="0.95945" r="0.95945" transform="matrix(-1 0 0 1 76.2864 115.57)" fill="white"/>
<circle opacity="0.2" cx="0.5934" cy="0.5934" r="0.5934" transform="matrix(-1 0 0 1 82.1238 120.393)" fill="white"/>
<circle opacity="0.2" cx="2.28433" cy="2.28433" r="2.28433" transform="matrix(-1 0 0 1 61.5713 119.973)" fill="white"/>
<path d="M133.61 31.0519H134.757L128.559 49.3041C128.278 50.13 127.663 50.7998 126.864 51.1495C126.065 51.4993 125.156 51.4967 124.359 51.1424C123.552 50.7838 122.936 50.0987 122.665 49.2586C122.394 48.4184 122.494 47.5026 122.939 46.7404L131.288 32.4476L133.61 31.0519Z" fill="url(#paint35_linear_106_40070)"/>
<mask id="mask6_106_40070" style="mask-type:luminance" maskUnits="userSpaceOnUse" x="122" y="31" width="13" height="21">
<path fill-rule="evenodd" clip-rule="evenodd" d="M133.611 31.0519H134.757L128.559 49.3041C128.278 50.13 127.663 50.7998 126.864 51.1495C126.065 51.4993 125.156 51.4967 124.359 51.1424C123.552 50.7838 122.936 50.0987 122.665 49.2586C122.395 48.4184 122.494 47.5026 122.939 46.7404L131.288 32.4476L133.611 31.0519Z" fill="white"/>
</mask>
<g mask="url(#mask6_106_40070)">
<path opacity="0.34" d="M131.585 48.8732C124.358 51.1423 123.201 50.2323 122.939 46.7403C122.677 43.2483 121.192 50.9296 121.192 50.9296L124.355 54.028L129.519 51.411" fill="url(#paint36_linear_106_40070)"/>
<path opacity="0.34" d="M133.763 36.605C133.023 37.7719 130.831 33.7304 129.323 34.2997C127.814 34.8689 131.429 38.7396 131.429 38.7396L133.393 39.2519L134.757 37.8573" fill="url(#paint37_linear_106_40070)"/>
</g>
<path d="M134.619 30.2308C133.874 28.9689 131.393 26.0098 131.094 26.0175C130.459 26.0337 130.88 27.7892 132.135 28.9993C130.797 27.7221 130.402 28.9081 131.527 30.2157C130.341 29.3642 130.128 30.4893 130.87 31.6449C131.423 32.5076 131.694 34.7009 131.603 34.929C131.512 35.157 132.454 34.3816 132.454 34.3816L133.291 32.8764C133.291 32.8764 135.364 31.4928 134.619 30.2308Z" fill="url(#paint38_linear_106_40070)"/>
<path d="M118.686 102.704C112.333 104.767 99.6151 100.527 99.6151 100.527L103.411 89.8723L110.601 74.7125" fill="url(#paint39_linear_106_40070)"/>
<ellipse cx="6.25769" cy="4.56427" rx="6.25769" ry="4.56427" transform="matrix(-0.622822 -0.782364 -0.782364 0.622822 122.801 29.1001)" fill="url(#paint40_linear_106_40070)"/>
<path d="M134.03 41.5538C132.392 36.4956 129.598 33.7214 129.598 33.7214L123.498 42.3821C130.015 44.0611 121.685 34.0044 119.866 30.911C119.866 30.911 118.333 31.5984 116.303 44.45C116.242 44.8371 118.542 57.1211 124.211 56.4995C127.39 56.1509 134.03 41.5538 134.03 41.5538Z" fill="url(#paint41_linear_106_40070)"/>
<mask id="mask7_106_40070" style="mask-type:luminance" maskUnits="userSpaceOnUse" x="116" y="30" width="19" height="27">
<path fill-rule="evenodd" clip-rule="evenodd" d="M134.03 41.5538C132.392 36.4956 129.598 33.7214 129.598 33.7214L123.498 42.3821C130.015 44.0611 121.685 34.0044 119.866 30.911C119.866 30.911 118.333 31.5984 116.303 44.45C116.242 44.8371 118.542 57.1211 124.211 56.4995C127.39 56.1509 134.03 41.5538 134.03 41.5538Z" fill="white"/>
</mask>
<g mask="url(#mask7_106_40070)">
<path d="M119.635 40.6141C121.706 63.871 127.66 50.6458 128.636 51.7436C130.701 54.0691 124.822 58.4942 124.822 58.4942L119.635 58.4633L118.687 47.6525L119.475 42.9078" fill="url(#paint42_linear_106_40070)"/>
</g>
<path d="M128.413 134.137C128.413 134.137 127.654 131.358 123.668 131.358C119.682 131.358 117.31 127.801 117.31 127.801V88.0036L115.791 48.8732L107.25 53.5421C107.25 60.6568 113.252 128.096 113.252 128.096C113.252 128.096 112.47 134.137 112.565 134.137L128.413 134.137Z" fill="url(#paint43_linear_106_40070)"/>
<mask id="mask8_106_40070" style="mask-type:luminance" maskUnits="userSpaceOnUse" x="107" y="48" width="22" height="87">
<path fill-rule="evenodd" clip-rule="evenodd" d="M128.413 134.138C128.413 134.138 127.653 131.358 123.668 131.358C119.682 131.358 117.309 127.801 117.309 127.801V88.0037L115.791 48.8733L107.25 53.5423C107.25 60.6569 113.252 128.096 113.252 128.096C113.252 128.096 112.469 134.138 112.564 134.138L128.413 134.138Z" fill="white"/>
</mask>
<g mask="url(#mask8_106_40070)">
<path opacity="0.34" d="M118.687 104.79C120.162 106.611 112.534 108.319 111.168 110.027C109.802 111.734 110.299 102.979 110.299 102.979L117.832 100.859" fill="url(#paint44_linear_106_40070)"/>
</g>
<path d="M112.994 129.916L112.485 133.463C112.44 133.793 112.54 134.127 112.759 134.378C112.979 134.629 113.297 134.772 113.63 134.77H129.69C129.69 134.77 128.551 131.139 123.901 131.435C121.592 134.215 112.994 129.916 112.994 129.916Z" fill="url(#paint45_linear_106_40070)"/>
<path d="M110.477 60.138L103.834 85.632L94.7867 129.061C94.7867 129.061 94.0954 134.249 93.8423 134.693H79.0809C82.2957 129.061 87.5744 133.211 89.5989 128.69L100.481 56.136L110.477 60.138Z" fill="url(#paint46_linear_106_40070)"/>
<mask id="mask9_106_40070" style="mask-type:luminance" maskUnits="userSpaceOnUse" x="79" y="56" width="32" height="79">
<path fill-rule="evenodd" clip-rule="evenodd" d="M110.477 60.1381L103.834 85.6321L94.787 129.061C94.787 129.061 94.0956 134.249 93.8426 134.693H79.0811C82.296 129.061 87.5746 133.211 89.5991 128.69L100.481 56.1361L110.477 60.1381Z" fill="white"/>
</mask>
<g mask="url(#mask9_106_40070)">
<path opacity="0.34" d="M101.662 109.685C96.9657 107.551 91.7358 104.113 93.4116 103.27C95.0873 102.428 101.32 104.135 101.32 104.135" fill="url(#paint47_linear_106_40070)"/>
</g>
<path d="M94.8298 129.061V133.172C94.8259 134.065 94.1098 134.79 93.2174 134.806L78.3695 135.138C78.3695 135.138 77.242 132.343 83.3458 131.37C88.4731 134.687 94.8298 129.061 94.8298 129.061Z" fill="url(#paint48_linear_106_40070)"/>
<path d="M120.061 83.4669C109.179 86.1349 97.9496 86.5214 95.4189 84.7427L101.785 49.665L116.414 52.0505L120.061 83.4669Z" fill="url(#paint49_linear_106_40070)"/>
<mask id="mask10_106_40070" style="mask-type:luminance" maskUnits="userSpaceOnUse" x="95" y="49" width="26" height="37">
<path fill-rule="evenodd" clip-rule="evenodd" d="M120.061 83.4669C109.179 86.1349 97.9493 86.5214 95.4187 84.7427L101.785 49.665L116.413 52.0505L120.061 83.4669Z" fill="white"/>
</mask>
<g mask="url(#mask10_106_40070)">
<path d="M114.329 69.8994C111.476 70.0683 114.58 54.7586 109.943 54.6073C105.305 54.4559 109.045 51.5504 109.045 51.5504L116.997 52.5069L117.544 53.3137" fill="url(#paint50_linear_106_40070)"/>
</g>
<ellipse cx="6.25769" cy="4.56427" rx="6.25769" ry="4.56427" transform="matrix(-0.622822 -0.782364 -0.782364 0.622822 115.475 24.7678)" fill="url(#paint51_linear_106_40070)"/>
<ellipse cx="3.61849" cy="3.21458" rx="3.61849" ry="3.21458" transform="matrix(-0.719953 -0.694023 -0.694023 0.719953 119.079 24.9771)" fill="url(#paint52_linear_106_40070)"/>
<path d="M115.775 29.3642C115.775 29.3642 108.112 25.259 98.8985 29.3642C96.8916 34.564 102.788 46.8533 100.905 51.167C100.905 51.167 111.706 55.8755 116.997 52.3177C118.639 50.6757 114.914 46.0608 117.691 41.5884C120.752 36.6574 115.775 29.3642 115.775 29.3642Z" fill="url(#paint53_linear_106_40070)"/>
<mask id="mask11_106_40070" style="mask-type:luminance" maskUnits="userSpaceOnUse" x="98" y="27" width="21" height="27">
<path fill-rule="evenodd" clip-rule="evenodd" d="M115.775 29.3643C115.775 29.3643 108.112 25.2592 98.8985 29.3643C96.8916 34.5641 102.788 46.8534 100.905 51.1671C100.905 51.1671 111.706 55.8756 116.997 52.3179C118.639 50.6758 114.914 46.0609 117.691 41.5885C120.752 36.6575 115.775 29.3643 115.775 29.3643Z" fill="white"/>
</mask>
<g mask="url(#mask11_106_40070)">
<path d="M113.873 28.2074C115.775 35.6844 107.198 31.8017 103.758 27.5397C100.318 23.2777 104.042 24.1541 104.042 24.1541L114.187 27.0438" fill="url(#paint54_linear_106_40070)"/>
<path d="M101.032 39.5463C100.987 45.9321 101.534 53.3365 113.089 53.1768C124.644 53.0172 118.435 56.2019 118.435 56.2019L101.047 55.6932L100.257 55.2674L95.4189 44.7461L96.4369 38.6198L100.208 37.6475C99.6723 45.2612 105.423 42.8584 105.423 42.8584" fill="url(#paint55_linear_106_40070)"/>
</g>
<path d="M111.574 22.2863C111.418 22.6829 113.586 30.3096 113.586 30.3096L106.439 28.9054L106.745 19.5283L111.574 22.2863Z" fill="url(#paint56_linear_106_40070)"/>
<mask id="mask12_106_40070" style="mask-type:luminance" maskUnits="userSpaceOnUse" x="106" y="19" width="8" height="12">
<path fill-rule="evenodd" clip-rule="evenodd" d="M111.573 22.2863C111.418 22.6829 113.586 30.3096 113.586 30.3096L106.439 28.9054L106.744 19.5283L111.573 22.2863Z" fill="white"/>
</mask>
<g mask="url(#mask12_106_40070)">
<path opacity="0.34" d="M115.429 28.1603C110.864 27.0471 110.443 23.6669 108.843 22.2862C107.243 20.9056 113.979 22.6154 113.979 22.6154L115.47 24.4015L115.283 26.9254" fill="url(#paint57_linear_106_40070)"/>
</g>
<ellipse cx="3.35784" cy="2.98302" rx="3.35784" ry="2.98302" transform="matrix(-0.719953 -0.694023 -0.694023 0.719953 118.299 14.6608)" fill="url(#paint58_linear_106_40070)"/>
<path d="M103.672 16.6559C104.04 19.7655 107.5 21.4969 110.601 21.4969C113.703 21.4969 115.271 19.7655 114.903 16.6559C114.535 13.5464 111.723 11.0256 108.622 11.0256C105.521 11.0256 103.305 13.5464 103.672 16.6559Z" fill="url(#paint59_linear_106_40070)"/>
<path d="M113.794 13.9715C119.763 30.7576 106.481 22.9434 105.903 18.0233C105.569 15.1847 107.838 13.3927 107.838 13.3927L113.794 13.9715Z" fill="url(#paint60_linear_106_40070)"/>
<path d="M115.596 16.5184C112.435 16.6342 111.337 13.7328 111.337 13.7328C111.337 13.7328 110.791 19.3342 105.994 18.7945L104.947 16.2869L105.736 13.6822C105.736 13.6822 108.431 12.0614 108.611 12.1193C108.791 12.1772 111.612 12.1178 111.612 12.1178L113.888 12.8139L114.551 13.6822L115.596 16.5184Z" fill="url(#paint61_linear_106_40070)"/>
<path d="M107.205 108.032C100.148 110.08 92.026 102.482 92.026 102.482C92.026 102.482 97.9693 41.2315 98.1905 29.3642C100.17 28.2606 102.48 27.471 106.286 27.5397L108.613 37.1693C108.613 37.1693 112.133 89.4844 107.205 108.032Z" fill="url(#paint62_linear_106_40070)"/>
<mask id="mask13_106_40070" style="mask-type:luminance" maskUnits="userSpaceOnUse" x="92" y="27" width="18" height="82">
<path fill-rule="evenodd" clip-rule="evenodd" d="M107.205 108.032C100.148 110.08 92.026 102.482 92.026 102.482C92.026 102.482 97.9693 41.2315 98.1905 29.3642C100.17 28.2606 102.48 27.471 106.286 27.5397L108.613 37.1693C108.613 37.1693 112.133 89.4844 107.205 108.032Z" fill="white"/>
</mask>
<g mask="url(#mask13_106_40070)">
<path d="M107.918 51.1203C110.805 53.1611 94.5141 58.1641 94.3995 60.3845C94.285 62.6049 93.5428 47.6525 93.5428 47.6525L97.2663 38.616L100.803 38.7183C100.803 38.7183 98.2352 44.3679 106.372 42.7522C114.509 41.1366 105.87 50.162 105.87 50.162" fill="url(#paint63_linear_106_40070)"/>
</g>
<path d="M122.074 104.592C115.367 106.919 110.082 107.807 110.082 107.807C110.082 107.807 115.044 30.2777 112.99 28.2606C112.99 28.2606 117.652 28.6013 119.866 30.911C119.635 58.6341 123.033 73.2448 122.074 104.592Z" fill="url(#paint64_linear_106_40070)"/>
<mask id="mask14_106_40070" style="mask-type:luminance" maskUnits="userSpaceOnUse" x="110" y="28" width="13" height="80">
<path fill-rule="evenodd" clip-rule="evenodd" d="M122.074 104.592C115.367 106.919 110.082 107.807 110.082 107.807C110.082 107.807 115.044 30.2777 112.99 28.2606C112.99 28.2606 117.652 28.6013 119.866 30.911C119.635 58.6341 123.033 73.2448 122.074 104.592Z" fill="white"/>
</mask>
<g mask="url(#mask14_106_40070)">
<path d="M126.129 60.5214L125.895 69.2038L118.332 69.6355L117.609 60.4709L126.129 60.5214Z" fill="url(#paint65_linear_106_40070)"/>
<path d="M126.669 60.1157C126.722 60.4308 126.883 62.8467 126.883 62.8467L117.35 62.8876L117.267 60.1301L126.669 60.1157Z" fill="white"/>
</g>
<path d="M109.334 47.0541C109.334 47.0541 109.647 31.3057 106.499 27.0814L103.849 27.9299L106.373 34.8138L105.396 37.7569L109.334 47.0541Z" fill="white"/>
<path d="M113.016 46.4482L115.82 37.7335L114.33 34.9086L115.843 28.7852C115.843 28.7852 114.605 27.5355 112.816 27.5378C112.816 27.5379 113.724 42.5462 113.016 46.4482Z" fill="white"/>
<path d="M106.006 43.0825C105.905 43.0646 105.806 43.038 105.709 43.0031C104.027 42.3997 102.866 39.3295 102.097 37.2978L101.931 36.8594L102.283 36.725L102.45 37.1646C103.149 39.012 104.318 42.104 105.836 42.6487C106.248 42.7971 106.656 42.7491 107.086 42.5031L107.273 42.8296C106.85 43.0719 106.425 43.1564 106.006 43.0825Z" fill="url(#paint66_linear_106_40070)"/>
<mask id="mask15_106_40070" style="mask-type:luminance" maskUnits="userSpaceOnUse" x="101" y="36" width="7" height="8">
<path fill-rule="evenodd" clip-rule="evenodd" d="M106.006 43.0825C105.905 43.0646 105.805 43.038 105.709 43.0031C104.027 42.3997 102.866 39.3295 102.097 37.2978L101.931 36.8594L102.283 36.725L102.449 37.1646C103.148 39.012 104.318 42.104 105.836 42.6487C106.248 42.7971 106.656 42.7491 107.085 42.5031L107.272 42.8296C106.85 43.0719 106.425 43.1564 106.006 43.0825Z" fill="white"/>
</mask>
<g mask="url(#mask15_106_40070)">
<path d="M102.52 36.9729C102.097 37.2978 102.161 37.3569 102.144 37.6325C102.128 37.9081 101.609 37.4069 101.613 37.3766C101.617 37.3463 101.931 36.647 101.955 36.6813C101.979 36.7156 102.545 36.7088 102.545 36.7088" fill="url(#paint67_linear_106_40070)"/>
</g>
<rect width="1.40695" height="0.937965" rx="0.331263" transform="matrix(0.92488 -0.380259 -0.380259 -0.92488 107.086 43.2096)" fill="url(#paint68_linear_106_40070)"/>
<path d="M116.965 33.9125C116.965 33.8493 116.968 27.7127 112.816 27.5379L112.612 26.8402C117.295 27.0387 117.544 33.8374 117.545 33.9062L116.965 33.9125Z" fill="url(#paint69_linear_106_40070)"/>
<mask id="mask16_106_40070" style="mask-type:luminance" maskUnits="userSpaceOnUse" x="112" y="26" width="6" height="8">
<path fill-rule="evenodd" clip-rule="evenodd" d="M116.965 33.9123C116.965 33.8492 116.968 27.7125 112.816 27.5378L112.612 26.8401C117.295 27.0386 117.544 33.8372 117.545 33.9061L116.965 33.9123Z" fill="white"/>
</mask>
<g mask="url(#mask16_106_40070)">
<path d="M115.931 30.1698C116.41 32.5992 117.616 32.125 118.121 33.7754C118.626 35.4258 116.732 34.9666 116.732 34.9666L115.322 32.5778" fill="url(#paint70_linear_106_40070)"/>
</g>
<path d="M104.026 31.9963L103.932 31.6651C103.549 30.3121 103.153 28.9131 103.849 27.9299C104.332 27.2477 105.046 26.8483 106.512 26.7472L106.489 27.3295C105.21 27.4189 104.697 27.7346 104.321 28.2648C103.785 29.0217 104.127 30.229 104.49 31.507L104.584 31.8405L104.026 31.9963Z" fill="url(#paint71_linear_106_40070)"/>
<path d="M103.763 42.9798C103.862 42.9535 103.959 42.9187 104.052 42.8759C105.678 42.1344 106.58 38.9782 107.176 36.8895L107.305 36.4388L106.944 36.3341L106.814 36.7861C106.272 38.6853 105.364 41.864 103.896 42.5333C103.498 42.7155 103.087 42.7017 102.639 42.4923L102.48 42.8333C102.921 43.0395 103.352 43.0883 103.763 42.9798Z" fill="url(#paint72_linear_106_40070)"/>
<rect width="1.40695" height="0.937965" rx="0.331263" transform="matrix(-0.953349 -0.301871 -0.301871 0.953349 102.979 42.3025)" fill="url(#paint73_linear_106_40070)"/>
<path d="M101.888 37.1228C100.735 34.0398 102.01 32.5906 102.611 32.1107C103.651 31.2962 105.093 31.232 106.201 31.9512C106.82 32.3583 108.174 33.6185 107.382 36.5219L106.823 36.3693C107.31 34.5828 106.968 33.1488 105.883 32.4353C104.985 31.8521 103.816 31.9036 102.972 32.5635C101.91 33.4115 101.712 34.9993 102.43 36.9199L101.888 37.1228Z" fill="url(#paint74_linear_106_40070)"/>
<ellipse cx="1.78892" cy="1.93485" rx="1.78892" ry="1.93485" transform="matrix(-0.999685 -0.0251144 -0.0251144 0.999685 118.674 33.4917)" fill="url(#paint75_linear_106_40070)"/>
<ellipse cx="1.05382" cy="0.768486" rx="1.05382" ry="0.768486" transform="matrix(-0.1147 -0.9934 -0.9934 0.1147 118.559 35.8674)" fill="url(#paint76_linear_106_40070)"/>
<path d="M111.328 42.8983C111.328 42.8983 113.284 41.112 115.07 40.5165C116.857 39.921 116.176 40.3747 116.176 40.3747L115.552 42.3029L111.328 42.8983Z" fill="url(#paint77_linear_106_40070)"/>
<path d="M111.258 48.7415H121.056C121.994 48.7415 123.123 48.0952 123.576 47.2979L130.476 35.1651C130.93 34.3678 130.537 33.7214 129.598 33.7214H119.8C118.862 33.7214 117.734 34.3678 117.28 35.1651L110.38 47.2979C109.926 48.0952 110.32 48.7415 111.258 48.7415Z" fill="url(#paint78_linear_106_40070)"/>
<mask id="mask17_106_40070" style="mask-type:luminance" maskUnits="userSpaceOnUse" x="110" y="33" width="21" height="16">
<path fill-rule="evenodd" clip-rule="evenodd" d="M111.258 48.7417H121.056C121.994 48.7417 123.123 48.0953 123.576 47.298L130.477 35.1652C130.93 34.3679 130.537 33.7216 129.598 33.7216H119.801C118.862 33.7216 117.734 34.3679 117.28 35.1652L110.38 47.298C109.927 48.0953 110.32 48.7417 111.258 48.7417Z" fill="white"/>
</mask>
<g mask="url(#mask17_106_40070)">
<path d="M116.837 44.9727C118.08 45.6558 112.499 46.0543 112.443 47.8758C112.388 49.6973 115.333 50.2665 115.333 50.2665L107.25 50.4687L109.943 45.0866L113.815 44.6066" fill="url(#paint79_linear_106_40070)"/>
</g>
<ellipse cx="1.58893" cy="2.73305" rx="1.58893" ry="2.73305" transform="matrix(-0.48529 -0.874353 -0.874353 0.48529 124.075 40.8546)" fill="url(#paint80_linear_106_40070)"/>
<path d="M113.823 42.1327C113.823 42.1327 116.393 42.1705 116.582 42.1327C116.772 42.0949 118.889 40.9985 119.116 41.9437C119.116 41.9437 119.985 42.1327 119.475 42.9077L118.548 43.6639C118.548 43.6639 119.191 43.5315 119.134 44.023C119.078 44.5145 116.61 45.5681 116.402 45.6437C116.194 45.7193 113.482 45.6109 111.932 45.989C110.382 46.367 106.866 47.6524 106.866 47.6524L105.845 43.6828L113.823 42.1327Z" fill="url(#paint81_linear_106_40070)"/>
<mask id="mask18_106_40070" style="mask-type:luminance" maskUnits="userSpaceOnUse" x="105" y="41" width="15" height="7">
<path fill-rule="evenodd" clip-rule="evenodd" d="M113.822 42.133C113.822 42.133 116.393 42.1707 116.582 42.133C116.771 42.0952 118.888 40.9988 119.115 41.9439C119.115 41.9439 119.985 42.133 119.474 42.908L118.548 43.6641C118.548 43.6641 119.191 43.5318 119.134 44.0233C119.077 44.5148 116.609 45.5683 116.401 45.6439C116.194 45.7195 113.482 45.6111 111.932 45.9892C110.382 46.3673 106.866 47.6527 106.866 47.6527L105.845 43.683L113.822 42.133Z" fill="white"/>
</mask>
<g mask="url(#mask18_106_40070)">
<path opacity="0.34" d="M111.103 42.5084C112.651 42.5606 112.373 45.3782 113.206 45.9332C114.038 46.4882 112.031 47.1574 112.031 47.1574L111.135 46.8511L110.537 43.9481" fill="url(#paint82_linear_106_40070)"/>
</g>
<path d="M109.471 42.99C109.471 42.99 110.842 45.3703 110.056 46.5469L94.3815 51.916C92.2227 52.3851 90.1493 50.8543 90.0441 48.7136C89.9561 46.9233 91.2979 45.3658 93.1321 45.1294L109.471 42.99Z" fill="url(#paint83_linear_106_40070)"/>
<mask id="mask19_106_40070" style="mask-type:luminance" maskUnits="userSpaceOnUse" x="90" y="42" width="21" height="11">
<path fill-rule="evenodd" clip-rule="evenodd" d="M109.471 42.99C109.471 42.99 110.842 45.3703 110.056 46.5469L94.3815 51.916C92.2227 52.3851 90.1493 50.8543 90.0441 48.7136C89.9561 46.9233 91.2979 45.3658 93.1321 45.1294L109.471 42.99Z" fill="white"/>
</mask>
<g mask="url(#mask19_106_40070)">
<path opacity="0.34" d="M98.4763 43.6356C91.0344 45.0732 89.807 48.8641 90.0401 50.9942C90.2731 53.1243 87.3684 45.3785 87.3684 45.3785L90.0401 42.8983H95.4195" fill="url(#paint84_linear_106_40070)"/>
</g>
<path d="M110.904 42.2452C113.241 45.0866 111.353 50.485 111.353 50.485C111.353 50.485 94.7786 57.5668 90.0398 54.7634C85.4166 52.0283 94.7459 30.4814 98.1904 29.3642C100.149 28.729 102.285 37.2097 100.803 38.7183L98.476 43.6356L110.904 42.2452Z" fill="url(#paint85_linear_106_40070)"/>
<mask id="mask20_106_40070" style="mask-type:luminance" maskUnits="userSpaceOnUse" x="88" y="29" width="25" height="27">
<path fill-rule="evenodd" clip-rule="evenodd" d="M110.904 42.2452C113.241 45.0866 111.353 50.485 111.353 50.485C111.353 50.485 94.7788 57.5668 90.04 54.7634C85.4169 52.0283 94.7462 30.4814 98.1906 29.3642C100.149 28.729 102.285 37.2097 100.804 38.7183L98.4762 43.6356L110.904 42.2452Z" fill="white"/>
</mask>
<g mask="url(#mask20_106_40070)">
<path d="M100.52 43.1702L98.4762 43.6357C98.4762 43.6357 96.1991 44.563 95.5768 44.6065C94.9545 44.6501 98.9566 42.9716 99.329 42.4837C99.7013 41.9958 99.9878 42.99 99.9878 42.99" fill="url(#paint86_linear_106_40070)"/>
</g>
<circle cx="0.884776" cy="0.884776" r="0.884776" transform="matrix(-1 0 0 1 109.51 52.5394)" fill="white"/>
<circle cx="0.884776" cy="0.884776" r="0.884776" transform="matrix(-1 0 0 1 109.51 63.6409)" fill="white"/>
<path d="M105.032 61.7649L104.798 70.4472L97.2353 70.879L96.5122 61.7144L105.032 61.7649Z" fill="url(#paint87_linear_106_40070)"/>
<path d="M105.573 61.3591C105.626 61.6742 105.787 64.0901 105.787 64.0901L96.2535 64.131L96.1705 61.3735L105.573 61.3591Z" fill="white"/>
<path d="M115.333 18.8312C114.924 19.6381 113.704 19.0277 113.704 19.0277C113.704 19.0277 112.483 20.2484 109.335 19.5283C108.821 19.6381 109.867 22.3827 109.067 22.5488C114.314 26.9626 116.987 22.8199 115.333 18.8312Z" fill="white"/>
<path d="M110.041 20.2484L109.431 19.638L106.826 18.6919L106.989 19.0276L109.431 20.2484" fill="white"/>
<path d="M109.944 22.3345L106.826 21.3248L109.691 22.8501L109.944 22.5708" fill="white"/>
<path d="M107.114 18.7944C102.1 16.9132 104.869 22.5671 108.007 21.2358L107.114 18.7944Z" fill="url(#paint88_linear_106_40070)"/>
<g opacity="0.39">
<rect width="0.327021" height="0.856025" transform="matrix(1 0 0 -1 78.9404 40.6869)" fill="url(#paint89_linear_106_40070)"/>
<rect width="0.327021" height="0.856025" transform="matrix(-0.707107 -0.707107 -0.707107 0.707107 81.543 33.9426)" fill="url(#paint90_linear_106_40070)"/>
<rect width="0.368762" height="0.96529" transform="matrix(0.340983 -0.940069 -0.940069 -0.340983 82.7417 38.1505)" fill="url(#paint91_linear_106_40070)"/>
<rect width="0.401095" height="1.04992" transform="matrix(-0.850759 0.525556 0.525556 0.850759 77.3081 33.2667)" fill="url(#paint92_linear_106_40070)"/>
<rect width="0.178266" height="0.466635" transform="matrix(-0.44206 -0.896985 -0.896985 0.44206 82.4561 35.4299)" fill="url(#paint93_linear_106_40070)"/>
<rect width="0.177409" height="0.465583" transform="matrix(0.79158 -0.611066 -0.611066 -0.79158 81.4031 39.5094)" fill="url(#paint94_linear_106_40070)"/>
<rect width="0.177351" height="0.465672" transform="matrix(0.806899 0.590689 0.590689 -0.806899 76.9287 39.5101)" fill="url(#paint95_linear_106_40070)"/>
<path d="M76.8966 39.7047C76.9538 39.7466 77.0341 39.7342 77.076 39.677L77.0858 39.6636C77.1277 39.6064 77.1152 39.5261 77.058 39.4842C77.0008 39.4423 76.9205 39.4547 76.8786 39.5119L76.8688 39.5253C76.8487 39.5528 76.8403 39.5871 76.8455 39.6208C76.8507 39.6544 76.8691 39.6846 76.8966 39.7047V39.7047Z" fill="url(#paint96_linear_106_40070)"/>
<rect width="0.178266" height="0.466635" transform="matrix(-0.60063 0.799527 0.799527 0.60063 76.0906 34.873)" fill="url(#paint97_linear_106_40070)"/>
<rect width="0.368762" height="0.96529" transform="matrix(0.145928 0.989295 0.989295 -0.145928 75.2588 37.3304)" fill="url(#paint98_linear_106_40070)"/>
<path d="M74.7557 37.5666L74.7627 37.6142C74.799 37.8604 75.0281 38.0306 75.2743 37.9943C75.5204 37.9579 75.6906 37.7289 75.6543 37.4827L75.6472 37.4351C75.6109 37.1889 75.3819 37.0188 75.1357 37.0551C74.8895 37.0914 74.7194 37.3204 74.7557 37.5666L74.7557 37.5666Z" fill="url(#paint99_linear_106_40070)"/>
<circle cx="3.14789" cy="3.14789" r="3.14789" transform="matrix(-1 0 0 1 82.252 33.6188)" fill="url(#paint100_linear_106_40070)"/>
<mask id="mask21_106_40070" style="mask-type:luminance" maskUnits="userSpaceOnUse" x="75" y="33" width="8" height="7">
<circle cx="3.14789" cy="3.14789" r="3.14789" transform="matrix(-1 0 0 1 82.252 33.6187)" fill="white"/>
</mask>
<g mask="url(#mask21_106_40070)">
<path d="M79.9695 40.3151C85.1993 34.4373 78.3096 33.033 78.3096 33.033L81.2574 31.7448L86.0535 36.7666L82.604 40.3151" fill="url(#paint101_linear_106_40070)"/>
</g>
<circle cx="0.702433" cy="0.702433" r="0.702433" transform="matrix(-1 0 0 1 78.3091 36.8223)" fill="url(#paint102_linear_106_40070)"/>
<circle cx="0.702433" cy="0.702433" r="0.702433" transform="matrix(-1 0 0 1 80.9302 37.6731)" fill="url(#paint103_linear_106_40070)"/>
<circle cx="0.702433" cy="0.702433" r="0.702433" transform="matrix(-1 0 0 1 80.6724 34.4739)" fill="url(#paint104_linear_106_40070)"/>
<circle cx="0.240455" cy="0.240455" r="0.240455" transform="matrix(-1 0 0 1 77.1836 39.4011)" fill="url(#paint105_linear_106_40070)"/>
<circle cx="0.240455" cy="0.240455" r="0.240455" transform="matrix(-1 0 0 1 81.7383 39.2457)" fill="url(#paint106_linear_106_40070)"/>
<circle cx="0.240455" cy="0.240455" r="0.240455" transform="matrix(-1 0 0 1 76.2524 34.6849)" fill="url(#paint107_linear_106_40070)"/>
<circle cx="0.240455" cy="0.240455" r="0.240455" transform="matrix(-1 0 0 1 82.7246 35.0992)" fill="url(#paint108_linear_106_40070)"/>
<circle cx="0.495774" cy="0.495774" r="0.495774" transform="matrix(-1 0 0 1 79.5996 40.2252)" fill="url(#paint109_linear_106_40070)"/>
<circle cx="0.495774" cy="0.495774" r="0.495774" transform="matrix(-1 0 0 1 83.4114 37.5516)" fill="url(#paint110_linear_106_40070)"/>
<circle cx="0.585726" cy="0.585726" r="0.585726" transform="matrix(-1 0 0 1 82.1934 33.0331)" fill="url(#paint111_linear_106_40070)"/>
<circle cx="0.585726" cy="0.585726" r="0.585726" transform="matrix(-1 0 0 1 77.7036 32.7557)" fill="url(#paint112_linear_106_40070)"/>
</g>
</g>
<rect x="2" y="2" width="204" height="134" rx="10" stroke="#51C1FF" stroke-opacity="0.07" stroke-width="4"/>
<defs>
<linearGradient id="paint0_linear_106_40070" x1="0" y1="4.16583" x2="1.59144" y2="4.16583" gradientUnits="userSpaceOnUse">
<stop stop-color="#FF7C95"/>
<stop offset="1" stop-color="#FF2B45"/>
</linearGradient>
<linearGradient id="paint1_linear_106_40070" x1="2.7849" y1="-0.245392" x2="-0.445056" y2="-0.716776" gradientUnits="userSpaceOnUse">
<stop stop-color="#FF7C95"/>
<stop offset="1" stop-color="#FF2B45"/>
</linearGradient>
<linearGradient id="paint2_linear_106_40070" x1="0.942908" y1="6.956" x2="4.05526" y2="5.70374" gradientUnits="userSpaceOnUse">
<stop stop-color="#FF7C95"/>
<stop offset="1" stop-color="#FF2B45"/>
</linearGradient>
<linearGradient id="paint3_linear_106_40070" x1="2.43889" y1="-2.94063" x2="-1.22003" y2="-2.69091" gradientUnits="userSpaceOnUse">
<stop stop-color="#FF7C95"/>
<stop offset="1" stop-color="#FF2B45"/>
</linearGradient>
<linearGradient id="paint4_linear_106_40070" x1="1.38344" y1="0.820561" x2="-0.191356" y2="0.354218" gradientUnits="userSpaceOnUse">
<stop stop-color="#FF7C95"/>
<stop offset="1" stop-color="#FF2B45"/>
</linearGradient>
<linearGradient id="paint5_linear_106_40070" x1="-0.145132" y1="3.9183" x2="1.61732" y2="3.71974" gradientUnits="userSpaceOnUse">
<stop stop-color="#FF7C95"/>
<stop offset="1" stop-color="#FF2B45"/>
</linearGradient>
<linearGradient id="paint6_linear_106_40070" x1="-0.620834" y1="2.68899" x2="1.13514" y2="2.87659" gradientUnits="userSpaceOnUse">
<stop stop-color="#FF7C95"/>
<stop offset="1" stop-color="#FF2B45"/>
</linearGradient>
<linearGradient id="paint7_linear_106_40070" x1="160.98" y1="57.131" x2="159.335" y2="57.7724" gradientUnits="userSpaceOnUse">
<stop stop-color="#FF7C95"/>
<stop offset="1" stop-color="#FF2B45"/>
</linearGradient>
<linearGradient id="paint8_linear_106_40070" x1="0.77865" y1="-1.63564" x2="-0.923521" y2="-1.30496" gradientUnits="userSpaceOnUse">
<stop stop-color="#FF7C95"/>
<stop offset="1" stop-color="#FF2B45"/>
</linearGradient>
<linearGradient id="paint9_linear_106_40070" x1="-0.388605" y1="0.858056" x2="2.40157" y2="3.61861" gradientUnits="userSpaceOnUse">
<stop stop-color="#FF7C95"/>
<stop offset="1" stop-color="#FF2B45"/>
</linearGradient>
<linearGradient id="paint10_linear_106_40070" x1="170.988" y1="68.9988" x2="166.413" y2="69.3894" gradientUnits="userSpaceOnUse">
<stop stop-color="#FF7C95"/>
<stop offset="1" stop-color="#FF2B45"/>
</linearGradient>
<linearGradient id="paint11_linear_106_40070" x1="0" y1="30.6383" x2="30.6383" y2="30.6383" gradientUnits="userSpaceOnUse">
<stop stop-color="#FF7C95"/>
<stop offset="1" stop-color="#FF2B45"/>
</linearGradient>
<linearGradient id="paint12_linear_106_40070" x1="171.057" y1="103.715" x2="169.526" y2="103.223" gradientUnits="userSpaceOnUse">
<stop stop-color="#FF7C95"/>
<stop offset="1" stop-color="#FF2B45"/>
</linearGradient>
<linearGradient id="paint13_linear_106_40070" x1="-14.9281" y1="10.4356" x2="-12.5137" y2="9.68629" gradientUnits="userSpaceOnUse">
<stop stop-color="#FF7C95"/>
<stop offset="1" stop-color="#FF2B45"/>
</linearGradient>
<linearGradient id="paint14_linear_106_40070" x1="-27.7342" y1="14.4099" x2="-25.3197" y2="13.6606" gradientUnits="userSpaceOnUse">
<stop stop-color="#FF7C95"/>
<stop offset="1" stop-color="#FF2B45"/>
</linearGradient>
<linearGradient id="paint15_linear_106_40070" x1="-22.1791" y1="12.6859" x2="-19.7647" y2="11.9366" gradientUnits="userSpaceOnUse">
<stop stop-color="#FF7C95"/>
<stop offset="1" stop-color="#FF2B45"/>
</linearGradient>
<linearGradient id="paint16_linear_106_40070" x1="0" y1="2.34031" x2="2.34031" y2="2.34031" gradientUnits="userSpaceOnUse">
<stop stop-color="#FF7C95"/>
<stop offset="1" stop-color="#FF2B45"/>
</linearGradient>
<linearGradient id="paint17_linear_106_40070" x1="0" y1="2.34031" x2="2.34031" y2="2.34031" gradientUnits="userSpaceOnUse">
<stop stop-color="#FF7C95"/>
<stop offset="1" stop-color="#FF2B45"/>
</linearGradient>
<linearGradient id="paint18_linear_106_40070" x1="0" y1="2.34031" x2="2.34032" y2="2.34031" gradientUnits="userSpaceOnUse">
<stop stop-color="#FF7C95"/>
<stop offset="1" stop-color="#FF2B45"/>
</linearGradient>
<linearGradient id="paint19_linear_106_40070" x1="-5.03876e-06" y1="2.34031" x2="2.34031" y2="2.34031" gradientUnits="userSpaceOnUse">
<stop stop-color="#FF7C95"/>
<stop offset="1" stop-color="#FF2B45"/>
</linearGradient>
<linearGradient id="paint20_linear_106_40070" x1="-5.03876e-06" y1="4.82533" x2="4.82533" y2="4.82533" gradientUnits="userSpaceOnUse">
<stop stop-color="#FF7C95"/>
<stop offset="1" stop-color="#FF2B45"/>
</linearGradient>
<linearGradient id="paint21_linear_106_40070" x1="0" y1="4.82533" x2="4.82533" y2="4.82533" gradientUnits="userSpaceOnUse">
<stop stop-color="#FF7C95"/>
<stop offset="1" stop-color="#FF2B45"/>
</linearGradient>
<linearGradient id="paint22_linear_106_40070" x1="0" y1="5.70081" x2="5.70081" y2="5.70081" gradientUnits="userSpaceOnUse">
<stop stop-color="#FF7C95"/>
<stop offset="1" stop-color="#FF2B45"/>
</linearGradient>
<linearGradient id="paint23_linear_106_40070" x1="0" y1="5.70081" x2="5.70082" y2="5.70081" gradientUnits="userSpaceOnUse">
<stop stop-color="#FF7C95"/>
<stop offset="1" stop-color="#FF2B45"/>
</linearGradient>
<linearGradient id="paint24_linear_106_40070" x1="123.982" y1="38.5993" x2="160.467" y2="83.3508" gradientUnits="userSpaceOnUse">
<stop offset="0.1011" stop-color="#FFDF94"/>
<stop offset="1" stop-color="#FFA200"/>
</linearGradient>
<linearGradient id="paint25_linear_106_40070" x1="130.831" y1="66.6668" x2="137.664" y2="90.6515" gradientUnits="userSpaceOnUse">
<stop offset="0.1011" stop-color="#FFCC02"/>
<stop offset="1" stop-color="#FFE484"/>
</linearGradient>
<linearGradient id="paint26_linear_106_40070" x1="166.801" y1="141.809" x2="106.661" y2="141.809" gradientUnits="userSpaceOnUse">
<stop offset="0.1011" stop-color="#FFCC02"/>
<stop offset="1" stop-color="#FFE484"/>
</linearGradient>
<radialGradient id="paint27_radial_106_40070" cx="0" cy="0" r="1" gradientUnits="userSpaceOnUse" gradientTransform="translate(125.593 104.506) rotate(180) scale(22.0896 25.7711)">
<stop stop-color="#FC7023"/>
<stop offset="1" stop-color="#E00321"/>
</radialGradient>
<linearGradient id="paint28_linear_106_40070" x1="99.1259" y1="126.086" x2="101.638" y2="123.414" gradientUnits="userSpaceOnUse">
<stop stop-color="#FC7023"/>
<stop offset="1" stop-color="#E00321"/>
</linearGradient>
<linearGradient id="paint29_linear_106_40070" x1="131.207" y1="121.068" x2="112.332" y2="121.068" gradientUnits="userSpaceOnUse">
<stop offset="0.1023" stop-color="#DCDFF8"/>
<stop offset="0.8855" stop-color="#F5F7FE"/>
</linearGradient>
<linearGradient id="paint30_linear_106_40070" x1="100.298" y1="134.553" x2="50.3306" y2="134.553" gradientUnits="userSpaceOnUse">
<stop offset="0.1023" stop-color="#DCDFF8"/>
<stop offset="0.8855" stop-color="#F5F7FE"/>
</linearGradient>
<linearGradient id="paint31_linear_106_40070" x1="86.4605" y1="71.4986" x2="71.561" y2="71.4986" gradientUnits="userSpaceOnUse">
<stop offset="0.1023" stop-color="#DCDFF8"/>
<stop offset="0.8855" stop-color="#F5F7FE"/>
</linearGradient>
<radialGradient id="paint32_radial_106_40070" cx="0" cy="0" r="1" gradientUnits="userSpaceOnUse" gradientTransform="translate(61.6373 112.733) rotate(180) scale(37.2251 22.4181)">
<stop stop-color="#00DED8"/>
<stop offset="0.9965" stop-color="#4AAAFD"/>
</radialGradient>
<linearGradient id="paint33_linear_106_40070" x1="76.0389" y1="102.875" x2="77.1632" y2="109.721" gradientUnits="userSpaceOnUse">
<stop stop-color="#00DED8"/>
<stop offset="0.9965" stop-color="#4AAAFD"/>
</linearGradient>
<linearGradient id="paint34_linear_106_40070" x1="0" y1="2.60817" x2="18.1847" y2="2.60817" gradientUnits="userSpaceOnUse">
<stop offset="0.1023" stop-color="#DCDFF8"/>
<stop offset="0.8855" stop-color="#F5F7FE"/>
</linearGradient>
<linearGradient id="paint35_linear_106_40070" x1="113.136" y1="41.0392" x2="138.412" y2="23.8915" gradientUnits="userSpaceOnUse">
<stop offset="0.1023" stop-color="#FCADAD"/>
<stop offset="0.8855" stop-color="#FBDCD9"/>
</linearGradient>
<linearGradient id="paint36_linear_106_40070" x1="116.274" y1="52.6639" x2="120.037" y2="41.3163" gradientUnits="userSpaceOnUse">
<stop offset="0.1011" stop-color="#FF8338"/>
<stop offset="0.8855" stop-color="#FF4729"/>
</linearGradient>
<linearGradient id="paint37_linear_106_40070" x1="127.918" y1="37.863" x2="129.745" y2="33.2595" gradientUnits="userSpaceOnUse">
<stop offset="0.1011" stop-color="#FF8338"/>
<stop offset="0.8855" stop-color="#FF4729"/>
</linearGradient>
<linearGradient id="paint38_linear_106_40070" x1="111.901" y1="36.5054" x2="137.398" y2="25.2528" gradientUnits="userSpaceOnUse">
<stop offset="0.1023" stop-color="#FCADAD"/>
<stop offset="0.8855" stop-color="#FBDCD9"/>
</linearGradient>
<linearGradient id="paint39_linear_106_40070" x1="104.365" y1="104.207" x2="105.769" y2="103.163" gradientUnits="userSpaceOnUse">
<stop offset="0.1023" stop-color="white"/>
<stop offset="0.8855" stop-color="#E3EBFD"/>
</linearGradient>
<linearGradient id="paint40_linear_106_40070" x1="3.45027" y1="-16.6047" x2="-2.19745" y2="2.76452" gradientUnits="userSpaceOnUse">
<stop offset="0.1023" stop-color="#915A57"/>
<stop offset="0.8855" stop-color="#2C0B09"/>
</linearGradient>
<linearGradient id="paint41_linear_106_40070" x1="79.31" y1="58.696" x2="110.339" y2="44.0413" gradientUnits="userSpaceOnUse">
<stop offset="0.1023" stop-color="white"/>
<stop offset="0.8855" stop-color="#E3EBFD"/>
</linearGradient>
<linearGradient id="paint42_linear_106_40070" x1="95.8827" y1="58.2319" x2="114.08" y2="52.1768" gradientUnits="userSpaceOnUse">
<stop offset="0.1023" stop-color="white"/>
<stop offset="0.8855" stop-color="#CDDEFD"/>
</linearGradient>
<linearGradient id="paint43_linear_106_40070" x1="128.413" y1="134.137" x2="107.25" y2="134.137" gradientUnits="userSpaceOnUse">
<stop offset="0.1023" stop-color="#FCADAD"/>
<stop offset="0.8855" stop-color="#FBDCD9"/>
</linearGradient>
<linearGradient id="paint44_linear_106_40070" x1="118.875" y1="110.248" x2="110.211" y2="110.248" gradientUnits="userSpaceOnUse">
<stop offset="0.1011" stop-color="#FF8338"/>
<stop offset="0.8855" stop-color="#FF4729"/>
</linearGradient>
<linearGradient id="paint45_linear_106_40070" x1="129.69" y1="134.771" x2="112.474" y2="134.771" gradientUnits="userSpaceOnUse">
<stop offset="0.1023" stop-color="#915A57"/>
<stop offset="0.8855" stop-color="#2C0B09"/>
</linearGradient>
<linearGradient id="paint46_linear_106_40070" x1="110.477" y1="134.693" x2="79.0808" y2="134.693" gradientUnits="userSpaceOnUse">
<stop offset="0.1023" stop-color="#FCADAD"/>
<stop offset="0.8855" stop-color="#FBDCD9"/>
</linearGradient>
<linearGradient id="paint47_linear_106_40070" x1="101.662" y1="109.685" x2="93.0918" y2="109.685" gradientUnits="userSpaceOnUse">
<stop offset="0.1011" stop-color="#FF8338"/>
<stop offset="0.8855" stop-color="#FF4729"/>
</linearGradient>
<linearGradient id="paint48_linear_106_40070" x1="94.8298" y1="135.138" x2="78.2874" y2="135.138" gradientUnits="userSpaceOnUse">
<stop offset="0.1023" stop-color="#915A57"/>
<stop offset="0.8855" stop-color="#2C0B09"/>
</linearGradient>
<linearGradient id="paint49_linear_106_40070" x1="88.1713" y1="75.1993" x2="115.691" y2="47.6258" gradientUnits="userSpaceOnUse">
<stop offset="0.0083" stop-color="#009EFE"/>
<stop offset="1" stop-color="#005DFA"/>
</linearGradient>
<linearGradient id="paint50_linear_106_40070" x1="119.892" y1="69.0214" x2="117.917" y2="68.2737" gradientUnits="userSpaceOnUse">
<stop offset="0.0083" stop-color="#009EFE"/>
<stop offset="1" stop-color="#005DFA"/>
</linearGradient>
<linearGradient id="paint51_linear_106_40070" x1="3.45003" y1="-16.6047" x2="-2.19769" y2="2.7645" gradientUnits="userSpaceOnUse">
<stop offset="0.1023" stop-color="#915A57"/>
<stop offset="0.8855" stop-color="#2C0B09"/>
</linearGradient>
<linearGradient id="paint52_linear_106_40070" x1="-1.77187" y1="-10.5428" x2="-6.1361" y2="6.04498" gradientUnits="userSpaceOnUse">
<stop offset="0.1023" stop-color="#915A57"/>
<stop offset="0.8855" stop-color="#2C0B09"/>
</linearGradient>
<linearGradient id="paint53_linear_106_40070" x1="108.948" y1="11.9684" x2="123.188" y2="33.0227" gradientUnits="userSpaceOnUse">
<stop offset="0.0048" stop-color="#FF88C3"/>
<stop offset="0.9986" stop-color="#FF168E"/>
</linearGradient>
<linearGradient id="paint54_linear_106_40070" x1="114.263" y1="18.1403" x2="115.998" y2="29.7143" gradientUnits="userSpaceOnUse">
<stop offset="0.1023" stop-color="#FCADAD"/>
<stop offset="0.8855" stop-color="#FBDCD9"/>
</linearGradient>
<linearGradient id="paint55_linear_106_40070" x1="104.93" y1="61.5211" x2="105.003" y2="57.9052" gradientUnits="userSpaceOnUse">
<stop offset="0.0048" stop-color="#EE72BC"/>
<stop offset="0.9986" stop-color="#EE0796"/>
</linearGradient>
<linearGradient id="paint56_linear_106_40070" x1="118.475" y1="21.7784" x2="110.382" y2="26.7046" gradientUnits="userSpaceOnUse">
<stop offset="0.1023" stop-color="#FCADAD"/>
<stop offset="0.8855" stop-color="#FBDCD9"/>
</linearGradient>
<linearGradient id="paint57_linear_106_40070" x1="118.03" y1="21.251" x2="115.268" y2="25.645" gradientUnits="userSpaceOnUse">
<stop offset="0.1011" stop-color="#FF8338"/>
<stop offset="0.8855" stop-color="#FF4729"/>
</linearGradient>
<linearGradient id="paint58_linear_106_40070" x1="-4.61912" y1="-3.01653" x2="-8.98335" y2="13.5712" gradientUnits="userSpaceOnUse">
<stop offset="0.1023" stop-color="#915A57"/>
<stop offset="0.8855" stop-color="#2C0B09"/>
</linearGradient>
<linearGradient id="paint59_linear_106_40070" x1="120.829" y1="12.7722" x2="114.587" y2="28.0713" gradientUnits="userSpaceOnUse">
<stop offset="0.1023" stop-color="#915A57"/>
<stop offset="0.8855" stop-color="#2C0B09"/>
</linearGradient>
<linearGradient id="paint60_linear_106_40070" x1="91.7909" y1="18.8361" x2="83.8234" y2="26.0916" gradientUnits="userSpaceOnUse">
<stop offset="0.1023" stop-color="#FCADAD"/>
<stop offset="0.8855" stop-color="#FBDCD9"/>
</linearGradient>
<linearGradient id="paint61_linear_106_40070" x1="125.494" y1="12.1464" x2="122.398" y2="28.476" gradientUnits="userSpaceOnUse">
<stop offset="0.1023" stop-color="#915A57"/>
<stop offset="0.8855" stop-color="#2C0B09"/>
</linearGradient>
<linearGradient id="paint62_linear_106_40070" x1="86.5176" y1="19.1762" x2="115.289" y2="17.8008" gradientUnits="userSpaceOnUse">
<stop offset="0.1023" stop-color="white"/>
<stop offset="0.8855" stop-color="#E3EBFD"/>
</linearGradient>
<linearGradient id="paint63_linear_106_40070" x1="99.2694" y1="67.6762" x2="99.5568" y2="63.2461" gradientUnits="userSpaceOnUse">
<stop offset="0.1023" stop-color="white"/>
<stop offset="0.8855" stop-color="#CDDEFD"/>
</linearGradient>
<linearGradient id="paint64_linear_106_40070" x1="88.6697" y1="-7.5543" x2="119.977" y2="-8.27578" gradientUnits="userSpaceOnUse">
<stop offset="0.1023" stop-color="white"/>
<stop offset="0.8855" stop-color="#E3EBFD"/>
</linearGradient>
<linearGradient id="paint65_linear_106_40070" x1="111.708" y1="75.6827" x2="115.723" y2="60.449" gradientUnits="userSpaceOnUse">
<stop offset="0.1023" stop-color="white"/>
<stop offset="0.8855" stop-color="#E3EBFD"/>
</linearGradient>
<linearGradient id="paint66_linear_106_40070" x1="101.934" y1="35.7278" x2="108.175" y2="36.4987" gradientUnits="userSpaceOnUse">
<stop offset="0.1023" stop-color="#CBCBE5"/>
<stop offset="0.8855" stop-color="#EBE4E0"/>
</linearGradient>
<linearGradient id="paint67_linear_106_40070" x1="102.076" y1="38.6296" x2="101.101" y2="37.2728" gradientUnits="userSpaceOnUse">
<stop offset="0.1023" stop-color="#DCDCF8"/>
<stop offset="0.8855" stop-color="#F5F6FE"/>
</linearGradient>
<linearGradient id="paint68_linear_106_40070" x1="0.67434" y1="1.25818" x2="1.43738" y2="0.170716" gradientUnits="userSpaceOnUse">
<stop offset="0.1023" stop-color="#915A57"/>
<stop offset="0.8855" stop-color="#2C0B09"/>
</linearGradient>
<linearGradient id="paint69_linear_106_40070" x1="116.214" y1="30.0377" x2="114.994" y2="32.4306" gradientUnits="userSpaceOnUse">
<stop offset="0.0083" stop-color="#009EFE"/>
<stop offset="1" stop-color="#005DFA"/>
</linearGradient>
<linearGradient id="paint70_linear_106_40070" x1="113.01" y1="36.3579" x2="113.183" y2="36.2958" gradientUnits="userSpaceOnUse">
<stop offset="0.0083" stop-color="#009EFE"/>
<stop offset="1" stop-color="#005DFA"/>
</linearGradient>
<linearGradient id="paint71_linear_106_40070" x1="105.317" y1="24.4383" x2="109.733" y2="26.9286" gradientUnits="userSpaceOnUse">
<stop offset="0.0083" stop-color="#009EFE"/>
<stop offset="1" stop-color="#005DFA"/>
</linearGradient>
<linearGradient id="paint72_linear_106_40070" x1="108.661" y1="38.0229" x2="104.619" y2="44.1035" gradientUnits="userSpaceOnUse">
<stop offset="0.1023" stop-color="#CBCBE5"/>
<stop offset="0.8855" stop-color="#EBE4E0"/>
</linearGradient>
<linearGradient id="paint73_linear_106_40070" x1="-0.481653" y1="0.488985" x2="0.281357" y2="1.57645" gradientUnits="userSpaceOnUse">
<stop offset="0.1023" stop-color="#915A57"/>
<stop offset="0.8855" stop-color="#2C0B09"/>
</linearGradient>
<linearGradient id="paint74_linear_106_40070" x1="103.552" y1="27.5238" x2="106.123" y2="32.6789" gradientUnits="userSpaceOnUse">
<stop offset="0.0083" stop-color="#009EFE"/>
<stop offset="1" stop-color="#005DFA"/>
</linearGradient>
<linearGradient id="paint75_linear_106_40070" x1="4.66465" y1="2.35099" x2="1.99113" y2="-1.46509" gradientUnits="userSpaceOnUse">
<stop offset="0.1023" stop-color="#CBCBE5"/>
<stop offset="0.8855" stop-color="#EBE4E0"/>
</linearGradient>
<linearGradient id="paint76_linear_106_40070" x1="2.29469" y1="1.39123" x2="2.08614" y2="-0.162085" gradientUnits="userSpaceOnUse">
<stop offset="0.1023" stop-color="#915A57"/>
<stop offset="0.8855" stop-color="#2C0B09"/>
</linearGradient>
<linearGradient id="paint77_linear_106_40070" x1="102.463" y1="43.8547" x2="105.86" y2="35.2007" gradientUnits="userSpaceOnUse">
<stop offset="0.1023" stop-color="#FCADAD"/>
<stop offset="0.8855" stop-color="#FBDCD9"/>
</linearGradient>
<linearGradient id="paint78_linear_106_40070" x1="130.665" y1="48.7415" x2="110.191" y2="48.7415" gradientUnits="userSpaceOnUse">
<stop offset="0.0048" stop-color="#FFED7A"/>
<stop offset="0.9986" stop-color="#FF9D00"/>
</linearGradient>
<linearGradient id="paint79_linear_106_40070" x1="122.23" y1="52.2669" x2="121.981" y2="51.9705" gradientUnits="userSpaceOnUse">
<stop offset="0.0048" stop-color="#FFED7A"/>
<stop offset="0.9986" stop-color="#FF9D00"/>
</linearGradient>
<linearGradient id="paint80_linear_106_40070" x1="6.23063" y1="-16.4618" x2="4.78692" y2="-14.7565" gradientUnits="userSpaceOnUse">
<stop offset="0.0048" stop-color="#FFED7A"/>
<stop offset="0.9986" stop-color="#FF9D00"/>
</linearGradient>
<linearGradient id="paint81_linear_106_40070" x1="135.906" y1="39.4918" x2="134.351" y2="58.4283" gradientUnits="userSpaceOnUse">
<stop offset="0.1023" stop-color="#FCADAD"/>
<stop offset="0.8855" stop-color="#FBDCD9"/>
</linearGradient>
<linearGradient id="paint82_linear_106_40070" x1="115.37" y1="44.8772" x2="110.023" y2="49.7216" gradientUnits="userSpaceOnUse">
<stop offset="0.1011" stop-color="#FF8338"/>
<stop offset="0.8855" stop-color="#FF4729"/>
</linearGradient>
<linearGradient id="paint83_linear_106_40070" x1="126.402" y1="35.5636" x2="124.825" y2="54.5054" gradientUnits="userSpaceOnUse">
<stop offset="0.1023" stop-color="#FCADAD"/>
<stop offset="0.8855" stop-color="#FBDCD9"/>
</linearGradient>
<linearGradient id="paint84_linear_106_40070" x1="104.516" y1="39.333" x2="101.205" y2="52.878" gradientUnits="userSpaceOnUse">
<stop offset="0.1011" stop-color="#FF8338"/>
<stop offset="0.8855" stop-color="#FF4729"/>
</linearGradient>
<linearGradient id="paint85_linear_106_40070" x1="67.2157" y1="51.0372" x2="95.6648" y2="28.6824" gradientUnits="userSpaceOnUse">
<stop offset="0.1023" stop-color="white"/>
<stop offset="0.8855" stop-color="#E3EBFD"/>
</linearGradient>
<linearGradient id="paint86_linear_106_40070" x1="88.9126" y1="46.4538" x2="90.0697" y2="40.8432" gradientUnits="userSpaceOnUse">
<stop offset="0.1023" stop-color="white"/>
<stop offset="0.8855" stop-color="#D8E0FD"/>
</linearGradient>
<linearGradient id="paint87_linear_106_40070" x1="89.3984" y1="71.9407" x2="96.5938" y2="55.803" gradientUnits="userSpaceOnUse">
<stop offset="0.1023" stop-color="white"/>
<stop offset="0.8855" stop-color="#E3EBFD"/>
</linearGradient>
<linearGradient id="paint88_linear_106_40070" x1="90.9519" y1="15.8994" x2="85.5605" y2="25.1523" gradientUnits="userSpaceOnUse">
<stop offset="0.1023" stop-color="#FCADAD"/>
<stop offset="0.8855" stop-color="#FBDCD9"/>
</linearGradient>
<linearGradient id="paint89_linear_106_40070" x1="130.871" y1="-158.089" x2="130.875" y2="-158.089" gradientUnits="userSpaceOnUse">
<stop offset="0.0083" stop-color="#00CAFE"/>
<stop offset="1" stop-color="#0088FA"/>
</linearGradient>
<linearGradient id="paint90_linear_106_40070" x1="-207.283" y1="25.9078" x2="-207.289" y2="25.9068" gradientUnits="userSpaceOnUse">
<stop offset="0.0083" stop-color="#00CAFE"/>
<stop offset="1" stop-color="#0088FA"/>
</linearGradient>
<linearGradient id="paint91_linear_106_40070" x1="-107.706" y1="-174.197" x2="-107.7" y2="-174.2" gradientUnits="userSpaceOnUse">
<stop offset="0.0083" stop-color="#00CAFE"/>
<stop offset="1" stop-color="#0088FA"/>
</linearGradient>
<linearGradient id="paint92_linear_106_40070" x1="-25.8696" y1="210.303" x2="-25.8776" y2="210.304" gradientUnits="userSpaceOnUse">
<stop offset="0.0083" stop-color="#00CAFE"/>
<stop offset="1" stop-color="#0088FA"/>
</linearGradient>
<linearGradient id="paint93_linear_106_40070" x1="-202.849" y1="-41.98" x2="-202.852" y2="-41.981" gradientUnits="userSpaceOnUse">
<stop offset="0.0083" stop-color="#00CAFE"/>
<stop offset="1" stop-color="#0088FA"/>
</linearGradient>
<linearGradient id="paint94_linear_106_40070" x1="4.27735" y1="-204.07" x2="4.28084" y2="-204.071" gradientUnits="userSpaceOnUse">
<stop offset="0.0083" stop-color="#00CAFE"/>
<stop offset="1" stop-color="#0088FA"/>
</linearGradient>
<linearGradient id="paint95_linear_106_40070" x1="200.288" y1="-49.9109" x2="200.292" y2="-49.9105" gradientUnits="userSpaceOnUse">
<stop offset="0.0083" stop-color="#00CAFE"/>
<stop offset="1" stop-color="#0088FA"/>
</linearGradient>
<linearGradient id="paint96_linear_106_40070" x1="208.941" y1="198.14" x2="208.943" y2="198.139" gradientUnits="userSpaceOnUse">
<stop offset="0.0083" stop-color="#00CAFE"/>
<stop offset="1" stop-color="#0088FA"/>
</linearGradient>
<linearGradient id="paint97_linear_106_40070" x1="50.7544" y1="205.409" x2="50.7511" y2="205.409" gradientUnits="userSpaceOnUse">
<stop offset="0.0083" stop-color="#00CAFE"/>
<stop offset="1" stop-color="#0088FA"/>
</linearGradient>
<linearGradient id="paint98_linear_106_40070" x1="179.383" y1="109.579" x2="179.389" y2="109.584" gradientUnits="userSpaceOnUse">
<stop offset="0.0083" stop-color="#00CAFE"/>
<stop offset="1" stop-color="#0088FA"/>
</linearGradient>
<linearGradient id="paint99_linear_106_40070" x1="75.7616" y1="38.422" x2="76.7028" y2="38.3394" gradientUnits="userSpaceOnUse">
<stop offset="0.0083" stop-color="#00CAFE"/>
<stop offset="1" stop-color="#0088FA"/>
</linearGradient>
<linearGradient id="paint100_linear_106_40070" x1="-127.531" y1="165.164" x2="-127.592" y2="165.164" gradientUnits="userSpaceOnUse">
<stop offset="0.0083" stop-color="#00CAFE"/>
<stop offset="1" stop-color="#0088FA"/>
</linearGradient>
<linearGradient id="paint101_linear_106_40070" x1="321.001" y1="198.729" x2="314.521" y2="201.572" gradientUnits="userSpaceOnUse">
<stop offset="0.0083" stop-color="#00CAFE"/>
<stop offset="1" stop-color="#0088FA"/>
</linearGradient>
<linearGradient id="paint102_linear_106_40070" x1="88.1535" y1="-146.325" x2="88.6496" y2="-146.479" gradientUnits="userSpaceOnUse">
<stop offset="0.0083" stop-color="#00CAFE"/>
<stop offset="1" stop-color="#0088FA"/>
</linearGradient>
<linearGradient id="paint103_linear_106_40070" x1="85.8927" y1="-144.77" x2="86.3887" y2="-144.923" gradientUnits="userSpaceOnUse">
<stop offset="0.0083" stop-color="#00CAFE"/>
<stop offset="1" stop-color="#0088FA"/>
</linearGradient>
<linearGradient id="paint104_linear_106_40070" x1="86.0741" y1="-145.057" x2="86.5701" y2="-145.211" gradientUnits="userSpaceOnUse">
<stop offset="0.0083" stop-color="#00CAFE"/>
<stop offset="1" stop-color="#0088FA"/>
</linearGradient>
<linearGradient id="paint105_linear_106_40070" x1="0" y1="0.480907" x2="0.480904" y2="0.480907" gradientUnits="userSpaceOnUse">
<stop offset="0.0083" stop-color="#00CAFE"/>
<stop offset="1" stop-color="#0088FA"/>
</linearGradient>
<linearGradient id="paint106_linear_106_40070" x1="5.03876e-06" y1="0.480907" x2="0.480909" y2="0.480907" gradientUnits="userSpaceOnUse">
<stop offset="0.0083" stop-color="#00CAFE"/>
<stop offset="1" stop-color="#0088FA"/>
</linearGradient>
<linearGradient id="paint107_linear_106_40070" x1="0" y1="0.480907" x2="0.480904" y2="0.480907" gradientUnits="userSpaceOnUse">
<stop offset="0.0083" stop-color="#00CAFE"/>
<stop offset="1" stop-color="#0088FA"/>
</linearGradient>
<linearGradient id="paint108_linear_106_40070" x1="5.03876e-06" y1="0.480907" x2="0.480909" y2="0.480907" gradientUnits="userSpaceOnUse">
<stop offset="0.0083" stop-color="#00CAFE"/>
<stop offset="1" stop-color="#0088FA"/>
</linearGradient>
<linearGradient id="paint109_linear_106_40070" x1="0" y1="0.991545" x2="0.991542" y2="0.991545" gradientUnits="userSpaceOnUse">
<stop offset="0.0083" stop-color="#00CAFE"/>
<stop offset="1" stop-color="#0088FA"/>
</linearGradient>
<linearGradient id="paint110_linear_106_40070" x1="5.03876e-06" y1="0.991545" x2="0.991547" y2="0.991545" gradientUnits="userSpaceOnUse">
<stop offset="0.0083" stop-color="#00CAFE"/>
<stop offset="1" stop-color="#0088FA"/>
</linearGradient>
<linearGradient id="paint111_linear_106_40070" x1="0" y1="1.17145" x2="1.17145" y2="1.17145" gradientUnits="userSpaceOnUse">
<stop offset="0.0083" stop-color="#00CAFE"/>
<stop offset="1" stop-color="#0088FA"/>
</linearGradient>
<linearGradient id="paint112_linear_106_40070" x1="0" y1="1.17145" x2="1.17145" y2="1.17145" gradientUnits="userSpaceOnUse">
<stop offset="0.0083" stop-color="#00CAFE"/>
<stop offset="1" stop-color="#0088FA"/>
</linearGradient>
<clipPath id="clip0_106_40070">
<rect x="4" y="4" width="200" height="130" rx="8" fill="white"/>
</clipPath>
</defs>
</svg>
