<svg width="502" height="536" viewBox="0 0 502 536" fill="none" xmlns="http://www.w3.org/2000/svg">
<path d="M134.648 51.5191C138.67 42.3275 129.408 29.5877 128.117 22.9761C82.4494 10.9786 98.8491 48.1327 109.008 65.0648L122.07 66.5162L122.698 59.523C122.698 57.5668 131.939 57.7114 134.648 51.5191Z" fill="#F1B09B"/>
<path fill-rule="evenodd" clip-rule="evenodd" d="M128.066 22.7545C128.189 22.7306 128.307 22.8105 128.331 22.933C128.638 24.5069 129.409 26.4464 130.355 28.6313C130.619 29.2395 130.896 29.8662 131.179 30.5081C131.911 32.163 132.687 33.9185 133.391 35.7157C133.436 35.8319 133.379 35.9629 133.263 36.0085C133.146 36.054 133.015 35.9967 132.97 35.8805C132.27 34.093 131.5 32.3515 130.77 30.6996C130.485 30.0556 130.207 29.4252 129.941 28.811C128.996 26.6303 128.206 24.6482 127.888 23.0195C127.864 22.897 127.944 22.7784 128.066 22.7545ZM135.105 41.8662C135.227 41.8401 135.347 41.9179 135.373 42.0399C136.082 45.3586 136.14 48.6566 134.847 51.6098C133.894 53.7896 132.157 55.1978 130.309 56.1842C128.797 56.9913 127.192 57.5248 125.866 57.9656C125.576 58.0621 125.299 58.1542 125.039 58.2437C124.921 58.2843 124.792 58.2217 124.752 58.1037C124.711 57.9857 124.774 57.8571 124.892 57.8164C125.159 57.7242 125.442 57.6303 125.736 57.5324C127.061 57.0916 128.622 56.5727 130.096 55.7855C131.893 54.8264 133.535 53.4821 134.433 51.4287C135.673 48.5958 135.63 45.4045 134.932 42.1343C134.905 42.0123 134.983 41.8922 135.105 41.8662Z" fill="#EC8E65"/>
<path d="M122.69 59.5198L122.062 66.5132L117.809 66.0405C117.409 66.0457 116.975 65.9936 116.499 65.895L117.809 66.0405C119.929 66.0129 121.105 64.3737 122.69 59.5198Z" fill="#EC8E65"/>
<path d="M141.211 128.332C141.211 163.771 128.566 192.501 112.968 192.501C97.3696 192.501 84.7246 163.771 84.7246 128.332C84.7246 92.8922 97.3696 64.1628 112.968 64.1628C155.446 64.1628 141.211 92.8922 141.211 128.332Z" fill="#F6BC33"/>
<path d="M141.209 138.042L132.623 117.029L139.627 149.565L141.209 138.042Z" fill="#D89B0E"/>
<path d="M202.71 41.6393L201.482 43.4783L221.665 46.2221L216.271 36.5094L214.762 43.592L203.168 41.446C202.99 41.4131 202.81 41.4892 202.71 41.6393Z" fill="#F0E898"/>
<path d="M199.626 43.0637L197.446 47.1999L220.723 45.7359L200.089 42.827C199.9 42.8004 199.715 42.8951 199.626 43.0637Z" fill="#D5482A"/>
<path d="M184.45 77.8426L197.685 46.7269L220.688 45.5907L206.057 79.8795L186.761 81.1342C185.003 81.2453 183.52 79.5306 184.45 77.8426Z" fill="#EC6C47"/>
<path d="M205.944 80.0452L186.649 81.2999C184.89 81.411 183.636 79.6243 184.338 78.0083C184.59 78.9512 187.049 80.2883 194.866 78.0933C204.637 75.3497 204.386 75.4774 208.22 67.4783C211.288 61.0789 216.316 53.6556 218.447 50.7438L205.944 80.0452Z" fill="#EC8E67"/>
<path d="M220.686 45.5964L206.055 79.8852C207.221 80.7387 208.878 80.2852 209.448 78.9567L223.907 45.2297L220.686 45.5964Z" fill="#B83013"/>
<path d="M223.914 45.2233L217.203 36.471C216.839 35.9975 216.125 35.9996 215.765 36.4752L214.147 38.6113L220.693 45.59L223.914 45.2233Z" fill="#D5482A"/>
<path d="M223.914 45.2233L217.203 36.471C216.839 35.9975 216.125 35.9996 215.765 36.4752L214.147 38.6113C214.759 38.3439 216.181 37.8478 216.325 38.0687C216.469 38.2896 223.914 45.2233 223.914 45.2233Z" fill="#EC6C47"/>
<path d="M209.384 94.5698L188.34 83.9273L162.942 117.065C158.669 105.212 148.14 78.6532 140.205 71.1072C130.543 61.9181 110.657 64.7676 121.179 92.1532C124.575 101.775 129.576 114.522 133.916 126.255C146.978 161.573 174.311 150.203 181.567 144.398C196.081 132.788 209.384 94.5698 209.384 94.5698Z" fill="#F6BC33"/>
<path d="M188.348 83.9338C198.507 92.1586 206.732 96.7539 209.392 94.5771C212.053 92.4003 193.085 85.1641 188.348 83.9338Z" fill="#D89B0E"/>
<path d="M192.215 67.001C189.554 69.9037 194.392 72.854 194.392 78.3697C194.392 79.5261 192.226 84.0327 191.731 85.6263C194.913 87.642 201.71 92.1572 206.305 92.1572C207.454 90.6494 208.867 89.0882 210.598 87.5141C220.575 78.4444 220.039 70.6764 219.557 63.6946L219.548 63.5673C219.064 56.5526 216.887 58.0039 212.05 65.5024C207.493 72.5644 201.648 75.0455 200.197 73.7261C197.536 71.3073 194.876 64.0984 192.215 67.001Z" fill="#F1B09B"/>
<path d="M206.311 92.157C201.715 92.157 194.918 87.6416 191.736 85.6258C191.94 84.969 192.462 83.6907 192.462 83.6907C192.462 83.6907 204.557 91.0229 207.218 91.0229C206.898 91.4038 206.596 91.782 206.311 92.157Z" fill="#EFF0EA"/>
<path fill-rule="evenodd" clip-rule="evenodd" d="M219.544 63.4591C219.606 63.4548 219.66 63.5018 219.665 63.564C219.668 63.6087 219.671 63.6534 219.674 63.6981C219.971 68.0047 220.291 72.6375 218.134 77.6927C218.109 77.7501 218.043 77.7768 217.985 77.7523C217.928 77.7278 217.901 77.6614 217.926 77.6041C220.062 72.599 219.745 68.0131 219.448 63.7L219.439 63.5796C219.435 63.5173 219.482 63.4634 219.544 63.4591ZM215.11 82.6379C215.16 82.6756 215.169 82.7465 215.132 82.7962C213.949 84.3588 212.485 85.9597 210.678 87.6022C208.951 89.1719 207.543 90.728 206.399 92.2301C206.361 92.2797 206.29 92.2893 206.241 92.2515C206.191 92.2137 206.182 92.1428 206.219 92.0932C207.372 90.5798 208.79 89.0136 210.526 87.435C212.324 85.8008 213.778 84.2101 214.952 82.6598C214.989 82.6101 215.06 82.6003 215.11 82.6379Z" fill="#3F487F"/>
<path fill-rule="evenodd" clip-rule="evenodd" d="M188.485 83.9994C188.584 84.0756 188.602 84.2175 188.526 84.3163L163.127 117.214C163.077 117.279 162.995 117.312 162.914 117.299C162.832 117.286 162.764 117.23 162.736 117.152C160.48 110.895 156.48 100.538 152.04 91.0485C151.987 90.9355 152.036 90.801 152.149 90.7481C152.262 90.6952 152.396 90.744 152.449 90.857C156.807 100.17 160.739 110.313 163.021 116.612L188.168 84.0401C188.244 83.9414 188.386 83.9231 188.485 83.9994Z" fill="#D89B0E"/>
<path fill-rule="evenodd" clip-rule="evenodd" d="M209.462 94.36C209.58 94.4011 209.642 94.5299 209.601 94.6477L209.388 94.5734L209.174 94.4991C209.215 94.3813 209.344 94.319 209.462 94.36ZM209.388 94.5734C209.174 94.4991 209.174 94.4989 209.174 94.4991L209.165 94.5265L209.136 94.6083C209.11 94.6807 209.072 94.7884 209.022 94.9295C208.921 95.2116 208.771 95.6272 208.576 96.1604C208.184 97.2268 207.608 98.7635 206.872 100.644C205.399 104.405 203.284 109.541 200.717 115.038C198.149 120.536 195.13 126.393 191.849 131.597C188.565 136.806 185.029 141.346 181.43 144.225C181.332 144.303 181.316 144.446 181.394 144.543C181.472 144.64 181.614 144.656 181.712 144.578C185.369 141.652 188.938 137.062 192.231 131.838C195.526 126.612 198.554 120.737 201.126 115.229C203.699 109.721 205.817 104.576 207.293 100.809C208.03 98.9249 208.607 97.3852 209 96.3162C209.196 95.7817 209.346 95.3648 209.447 95.0815C209.498 94.9398 209.536 94.8315 209.562 94.7585L209.591 94.6759L209.601 94.6482C209.601 94.6479 209.601 94.6477 209.388 94.5734Z" fill="#D89B0E"/>
<path d="M106.963 92.4166C98.7392 96.0449 102.608 108.381 88.8209 111.767C87.7336 112.035 86.6484 112.259 85.5693 112.44L112.284 64.3545C118.816 71.3659 115.186 88.7883 106.963 92.4166Z" fill="#3E4885"/>
<path d="M112.286 64.3588C115.963 52.1691 110.691 44.0237 108.272 41.6046C108.272 41.6046 104.402 40.3952 104.402 36.525C104.402 29.9457 112.384 28.3009 115.528 33.8781C116.738 36.0237 119.435 36.508 120.993 36.0614C125.424 34.7918 128.639 33.4755 131.251 31.9292L130.767 30.7198L120.608 34.3482C118.834 31.365 113.883 25.9306 108.272 28.0592C101.257 30.72 94.0464 51.7974 112.286 64.3588Z" fill="#EC8E65"/>
<path d="M108.891 10.7439C130.68 2.71418 136.786 17.6506 137.037 24.8622C131.6 2.42945 109.265 10.6069 108.893 10.7431L108.891 10.7439Z" fill="#3052A9"/>
<path d="M137.212 22.3145C136.258 15.162 124.865 1.10224 105.365 10.4837C105.628 10.3568 129.593 0.471661 137.212 22.3145Z" fill="#3052A9"/>
<path d="M111.802 63.8754C115.478 51.6858 110.207 43.5403 107.788 41.1212C107.788 41.1212 103.917 39.9118 103.917 36.0416C103.917 29.4623 111.9 27.8175 115.044 33.3948C116.254 35.5403 118.951 36.0246 120.509 35.5781C153.504 26.1237 132.46 6.77365 111.416 10.6418C88.7187 14.8138 83.2286 67.0232 71.8902 67.0232C64.1499 67.0232 50.9446 84.6609 56.0242 97.9647C61.1038 111.268 74.551 114.675 88.3385 111.288C102.126 107.902 98.2568 95.5658 106.48 91.9375C114.704 88.3092 118.333 70.8868 111.802 63.8754Z" fill="#05185A"/>
<path d="M72.4825 106.266C79.3825 108.378 96.9104 103.878 96.5056 82.2422C96.5111 82.5348 95.5138 108.439 72.4825 106.266Z" fill="#312E63"/>
<path d="M69.8244 103.267C75.7292 105.806 91.6849 103.52 93.4228 84.3237C93.3993 84.5833 90.0063 107.423 69.8244 103.267Z" fill="#312E63"/>
<path d="M66.7044 101.918C72.001 104.195 86.313 102.144 87.8719 84.9255C87.8508 85.1584 84.8073 105.645 66.7044 101.918Z" fill="#312E63"/>
<path d="M102.462 91.1926C114.798 84.4198 111.976 69.1003 109.718 64.827C113.589 81.4688 106.171 88.8544 101.494 90.7088C94.141 109.673 81.4984 111.188 76.5801 109.334C91.2867 114.946 98.753 100.787 102.462 91.1926Z" fill="#312E63"/>
<path d="M101.019 89.7376C112.243 81.4167 110.05 69.8223 107.55 65.0652C112.194 79.1913 104.97 86.6737 100.536 89.0119C92.4084 106.234 81.5071 109.492 77.3145 108.605C88.1996 110.907 97.6331 97.7198 101.019 89.7376Z" fill="#312E63"/>
<path d="M104.371 493.241L104.086 442.403L137.359 444.21C137.359 456.185 139.937 473.352 139.937 473.352L104.371 493.241Z" fill="#F26AAA"/>
<path d="M104.086 442.403L137.811 444.888V452.344L104.086 454.83V442.403Z" fill="#3F4785"/>
<path d="M135.951 464.319C119.581 460.966 126.256 482.601 104.164 471.215L104.164 499.757C104.164 502.266 106.181 504.295 108.69 504.276C122.95 504.172 166.498 503.858 174.885 503.858C209.836 503.858 162.446 469.746 135.951 464.319Z" fill="#355FB3"/>
<path d="M108.688 504.275C122.948 504.17 166.496 503.857 174.883 503.857C184.4 503.857 187.812 501.327 187.203 497.537C174.906 490.765 135.949 497.537 133.523 494.825C123.942 481.268 109.957 482.247 104.162 484.432L104.162 499.755C104.162 502.264 106.179 504.293 108.688 504.275Z" fill="white"/>
<path fill-rule="evenodd" clip-rule="evenodd" d="M182.335 503.094C182.301 502.974 182.371 502.849 182.491 502.815C184.318 502.303 185.531 501.574 186.24 500.693C186.944 499.82 187.172 498.774 186.979 497.575C186.959 497.452 187.043 497.336 187.166 497.316C187.29 497.296 187.406 497.38 187.425 497.503C187.635 498.807 187.389 499.988 186.592 500.977C185.802 501.958 184.489 502.724 182.613 503.25C182.493 503.284 182.369 503.214 182.335 503.094Z" fill="#260500"/>
<path fill-rule="evenodd" clip-rule="evenodd" d="M138.526 465.926C142.576 463.322 144.786 460.255 145.805 457.731C146.339 456.404 146.541 455.238 146.517 454.373C146.505 453.94 146.437 453.598 146.339 453.354C146.239 453.106 146.125 452.995 146.043 452.953C145.249 452.544 144.37 452.71 143.427 453.417C142.478 454.129 141.54 455.343 140.736 456.84C139.251 459.604 138.305 463.173 138.526 465.926ZM142.885 452.694C143.986 451.868 145.243 451.524 146.457 452.15C146.798 452.326 147.03 452.65 147.178 453.017C147.327 453.388 147.407 453.842 147.421 454.348C147.449 455.363 147.214 456.653 146.643 458.069C145.498 460.908 142.985 464.297 138.396 467.072C138.268 467.15 138.109 467.159 137.973 467.096C137.837 467.033 137.74 466.906 137.716 466.758C137.212 463.672 138.271 459.518 139.94 456.412C140.777 454.855 141.79 453.515 142.885 452.694Z" fill="#3F4785"/>
<path fill-rule="evenodd" clip-rule="evenodd" d="M139.116 466.888C145.154 468.973 150.161 468.564 153.61 467.299C155.396 466.645 156.756 465.764 157.628 464.892C158.524 463.996 158.823 463.199 158.731 462.693C158.518 461.521 157.762 460.581 156.57 459.978C155.372 459.37 153.734 459.108 151.817 459.332C148.11 459.765 143.432 462.009 139.116 466.888ZM156.979 459.171C158.381 459.882 159.349 461.038 159.62 462.531C159.794 463.487 159.225 464.573 158.267 465.531C157.286 466.512 155.807 467.457 153.921 468.148C150.141 469.534 144.689 469.918 138.185 467.515C138.047 467.464 137.942 467.349 137.905 467.206C137.867 467.063 137.902 466.911 137.997 466.799C142.549 461.436 147.613 458.913 151.712 458.434C153.759 458.195 155.584 458.465 156.979 459.171Z" fill="#3F4785"/>
<path fill-rule="evenodd" clip-rule="evenodd" d="M104.159 499.526C104.284 499.526 104.385 499.628 104.385 499.752C104.385 502.138 106.301 504.063 108.683 504.046C122.942 503.941 166.492 503.628 174.88 503.628C175.005 503.628 175.106 503.729 175.106 503.854C175.106 503.979 175.005 504.08 174.88 504.08C166.494 504.08 122.947 504.393 108.686 504.498C106.05 504.517 103.933 502.385 103.933 499.752C103.933 499.628 104.034 499.526 104.159 499.526Z" fill="#260500"/>
<path d="M101.669 450.99H163.233C163.525 450.99 163.763 450.821 163.708 450.535C160.534 434.235 150.991 254.636 135.561 166.98L90.5978 166.749C49.0236 197.924 88.1122 247.869 92.4051 295.996C95.3148 328.615 102.573 412.73 101.669 450.99Z" fill="#355EBA"/>
<path d="M90.5978 166.749C49.0236 197.924 88.1122 247.869 92.4051 295.996C92.8845 301.369 93.4818 308.141 94.1412 315.874L147.698 262.317C144.176 226.897 140.126 192.914 135.561 166.98L90.5978 166.749Z" fill="#48ACFA"/>
<path fill-rule="evenodd" clip-rule="evenodd" d="M153.599 334.178C153.848 334.157 154.066 334.343 154.086 334.591C155.703 354.439 157.151 373.23 158.419 389.7C159.049 397.871 159.634 405.47 160.174 412.343C160.989 422.708 161.701 431.42 162.306 437.953C162.913 444.504 163.411 448.823 163.791 450.435C163.848 450.678 163.698 450.921 163.455 450.978C163.212 451.036 162.969 450.885 162.911 450.643C162.513 448.955 162.011 444.559 161.406 438.037C160.8 431.497 160.088 422.779 159.273 412.414C158.733 405.539 158.147 397.938 157.518 389.766C156.249 373.298 154.802 354.51 153.185 334.665C153.165 334.416 153.35 334.198 153.599 334.178Z" fill="#3F487F"/>
<path d="M101.673 450.992H113.196C126.301 422.297 147.088 369.652 154.318 334.856C154.19 333.506 153.77 329.891 153.641 328.529L101.673 450.992Z" fill="#3F4785"/>
<path d="M95.3355 293.961C75.8137 344.754 42.9159 382.005 28.9072 394.282L73.4187 487.146C95.8627 463.874 143.688 397.355 155.437 317.46C162.442 255.325 151.37 194.766 135.554 166.974C135.554 166.974 100.08 166.302 99.6285 167.205C89.235 222.788 102.566 234.086 103.244 241.09C103.921 248.094 101.888 278.371 95.3355 293.961Z" fill="#48ACFA"/>
<path fill-rule="evenodd" clip-rule="evenodd" d="M95.5003 293.544C95.7333 293.633 95.8495 293.894 95.76 294.127C76.2084 344.998 43.2637 382.308 29.2077 394.625C29.02 394.79 28.7345 394.771 28.57 394.583C28.4056 394.396 28.4244 394.11 28.6121 393.946C42.5735 381.711 75.4244 344.518 94.9164 293.803C95.0059 293.57 95.2674 293.454 95.5003 293.544Z" fill="#3F487F"/>
<path fill-rule="evenodd" clip-rule="evenodd" d="M97.4213 181.694C97.6537 181.785 97.7681 182.047 97.677 182.279C92.3641 195.825 93.8436 208.708 96.6693 219.108C98.0173 224.069 99.669 228.456 101.035 232.083C101.101 232.258 101.166 232.432 101.231 232.604C101.93 234.462 102.546 236.118 102.987 237.53C103.425 238.934 103.705 240.141 103.705 241.09C103.705 244.626 103.365 253.963 102.205 264.368C101.046 274.763 99.0644 286.277 95.7612 294.136C95.6645 294.366 95.3996 294.475 95.1695 294.378C94.9394 294.281 94.8313 294.016 94.928 293.786C98.1773 286.055 100.149 274.653 101.307 264.268C102.463 253.895 102.801 244.591 102.801 241.09C102.801 240.287 102.558 239.192 102.124 237.8C101.692 236.417 101.086 234.785 100.385 232.922C100.319 232.748 100.253 232.572 100.186 232.394C98.8219 228.771 97.1567 224.349 95.7972 219.345C92.9438 208.844 91.4251 195.743 96.8356 181.949C96.9267 181.717 97.189 181.602 97.4213 181.694Z" fill="#3F487F"/>
<path d="M28.9072 394.282C56.699 400.151 85.1682 487.598 72.289 487.598C35.0384 487.598 33.2002 425.237 28.9072 394.282Z" fill="#260500"/>
<path d="M53.5322 417.778C53.5322 417.778 39.7495 394.731 28.6781 394.28L11.9492 408.74L38.6213 440.147C44.5454 426.838 47.8078 424.635 53.5322 417.778Z" fill="#F26AAA"/>
<path d="M53.5439 417.779C53.5439 417.779 39.7607 394.731 28.6889 394.28L26.6553 396.037C32.5411 399.142 45.733 408.334 51.4138 420.264C52.0894 419.492 52.7956 418.675 53.5439 417.779Z" fill="#3F4785"/>
<path d="M45.1812 427.492C40.6622 411.405 23.7162 423.425 23.7162 398.571L1.92042 416.049C0.597784 417.11 -0.0228983 418.808 0.319286 420.469C4.81616 442.29 13.5392 483.378 16.4859 492.565C18.9645 500.292 26.9921 508.866 30.4946 507.603C41.7016 507.522 44.9552 454.162 45.1812 427.492Z" fill="#355FB3"/>
<path d="M0.319286 420.471C4.81616 442.292 13.5392 483.38 16.4859 492.567C18.9645 500.294 26.9921 508.868 30.4946 507.604C24.1681 493.721 14.9043 460.031 16.4859 449.185C21.0049 426.59 17.3144 410.74 14.9043 405.639L1.92042 416.051C0.597784 417.111 -0.0228983 418.81 0.319286 420.471Z" fill="white"/>
<path fill-rule="evenodd" clip-rule="evenodd" d="M15.0797 405.494C15.1578 405.591 15.1422 405.733 15.0448 405.811L4.42494 414.327C4.32758 414.405 4.18537 414.39 4.1073 414.292C4.02923 414.195 4.04487 414.053 4.14222 413.975L14.7621 405.459C14.8595 405.381 15.0017 405.396 15.0797 405.494Z" fill="#260500"/>
<path fill-rule="evenodd" clip-rule="evenodd" d="M2.09609 415.908C2.17416 416.006 2.15852 416.148 2.06117 416.226C0.804041 417.234 0.215101 418.847 0.539983 420.424C1.78573 426.469 3.35583 433.993 5.03761 441.907C5.06355 442.029 4.98562 442.149 4.86356 442.175C4.7415 442.201 4.62152 442.123 4.59559 442.001C2.9136 434.085 1.34331 426.561 0.0973896 420.515C-0.262098 418.77 0.390327 416.986 1.77847 415.873C1.87582 415.795 2.01803 415.811 2.09609 415.908ZM10.8216 469.525C10.9433 469.498 11.0643 469.574 11.0917 469.696C13.4569 480.199 15.5345 488.861 16.7005 492.497C17.1765 493.981 17.8605 495.499 18.6808 496.975C18.7415 497.084 18.7022 497.222 18.5931 497.282C18.4841 497.343 18.3465 497.304 18.2859 497.195C17.454 495.698 16.7569 494.152 16.2702 492.635C15.0967 488.976 13.0145 480.291 10.6508 469.795C10.6234 469.673 10.6999 469.552 10.8216 469.525ZM24.8995 505.203C24.9805 505.108 25.1231 505.096 25.218 505.177C26.2546 506.062 27.2571 506.731 28.1563 507.12C29.0601 507.51 29.8276 507.603 30.4173 507.391C30.5347 507.348 30.6642 507.409 30.7066 507.526C30.7489 507.644 30.6881 507.773 30.5707 507.816C29.8247 508.085 28.9275 507.945 27.9772 507.534C27.0223 507.122 25.9813 506.423 24.9246 505.521C24.8297 505.44 24.8185 505.297 24.8995 505.203Z" fill="#260500"/>
<path fill-rule="evenodd" clip-rule="evenodd" d="M44.892 428.335C49.0624 430.742 52.801 431.302 55.5115 431.05C56.9357 430.918 58.0643 430.563 58.8224 430.146C59.2021 429.936 59.4746 429.72 59.6467 429.52C59.8214 429.318 59.8674 429.166 59.8674 429.073C59.8674 428.18 59.3168 427.475 58.2568 426.961C57.1896 426.443 55.6802 426.166 53.9816 426.137C50.8441 426.083 47.2381 426.877 44.892 428.335ZM58.6511 426.148C59.8897 426.748 60.7712 427.707 60.7712 429.073C60.7712 429.457 60.5894 429.812 60.3305 430.111C60.0691 430.414 59.7022 430.693 59.2584 430.937C58.3696 431.427 57.1152 431.809 55.595 431.95C52.5471 432.233 48.3829 431.552 43.814 428.745C43.6861 428.666 43.6056 428.529 43.5991 428.379C43.5926 428.229 43.6609 428.086 43.7815 427.997C46.2941 426.135 50.4712 425.173 53.9971 425.233C55.7642 425.264 57.4198 425.551 58.6511 426.148Z" fill="#3F4785"/>
<path fill-rule="evenodd" clip-rule="evenodd" d="M44.299 429.305C45.2119 435.628 47.8697 439.89 50.5733 442.377C51.9739 443.665 53.3794 444.47 54.5544 444.845C55.7612 445.231 56.6067 445.132 57.0142 444.819C57.9587 444.092 58.4473 442.989 58.4381 441.654C58.4288 440.31 57.9117 438.734 56.8343 437.133C54.7517 434.036 50.6131 430.906 44.299 429.305ZM59.3419 441.648C59.3528 443.22 58.7679 444.61 57.5654 445.535C56.7954 446.128 55.5693 446.119 54.2791 445.706C52.9571 445.284 51.4401 444.402 49.9615 443.042C46.9985 440.317 44.1592 435.646 43.3151 428.765C43.2972 428.618 43.3518 428.472 43.4615 428.374C43.5712 428.275 43.7221 428.236 43.8658 428.269C50.7182 429.859 55.2812 433.204 57.5843 436.628C58.7345 438.338 59.3311 440.084 59.3419 441.648Z" fill="#3F4785"/>
<path d="M388.967 355.296C386.995 320.666 386.253 301.253 388.967 266.621L316.393 252.476C306.396 242.943 450.349 240.517 467.798 240.258C468.923 240.242 469.982 239.811 470.778 239.016C481.818 227.982 484.184 215.953 475.506 178.482C409.661 178.482 329.976 183.55 303.86 193.615C288.982 199.349 207.344 216.915 274.945 289.621C299.246 315.757 352.604 339.871 388.967 355.296Z" fill="#0B1F83"/>
<path d="M388.973 266.621C390.715 300.225 391.16 320.058 388.973 355.296C367.311 351.941 378.539 263.514 388.973 266.621Z" fill="#42447C"/>
<path d="M429.846 273.823L388.916 266.754L383.915 299.437L403.071 308.206L429.846 273.823Z" fill="#FEFEFE"/>
<path fill-rule="evenodd" clip-rule="evenodd" d="M383.659 299.32C383.595 299.461 383.657 299.628 383.797 299.692L402.954 308.461C403.095 308.526 403.261 308.464 403.326 308.323C403.39 308.182 403.328 308.015 403.187 307.951L384.031 299.182C383.89 299.117 383.724 299.179 383.659 299.32ZM391.392 267.404C391.367 267.557 391.47 267.702 391.623 267.727L429.799 274.099C429.952 274.125 430.096 274.021 430.122 273.868C430.147 273.715 430.044 273.571 429.891 273.545L391.715 267.174C391.563 267.148 391.418 267.251 391.392 267.404Z" fill="#444779"/>
<path d="M388.937 266.609L383.918 299.437L390.619 302.26L392.022 267.17L388.937 266.609Z" fill="#444779"/>
<path d="M394.162 302.522C393.263 284.675 415.056 295.229 406.59 270.033L435.985 274.528C439.066 274.999 441.178 277.868 440.684 280.945C438.149 296.752 431 341.356 429.667 350.073C424.017 387.021 395.616 331.408 394.162 302.522Z" fill="#355CB7"/>
<path d="M440.81 280.16C438.395 295.218 431.023 341.205 429.668 350.071C428.129 360.132 424.904 363.33 420.995 362.073C415.824 347.98 429.28 307.891 426.806 304.887C414.023 292.568 417.319 277.942 420.565 272.168L436.764 274.645C439.416 275.051 441.235 277.511 440.81 280.16Z" fill="#EEEFE9"/>
<path fill-rule="evenodd" clip-rule="evenodd" d="M420.294 272.126C420.271 272.279 420.376 272.423 420.529 272.446L425.126 273.149C425.279 273.172 425.422 273.067 425.446 272.914C425.469 272.761 425.364 272.617 425.211 272.594L420.614 271.891C420.461 271.868 420.318 271.973 420.294 272.126ZM432.147 273.939C432.124 274.092 432.229 274.235 432.382 274.258L436.729 274.923C439.229 275.305 440.94 277.623 440.54 280.116C440.515 280.269 440.619 280.413 440.773 280.438C440.926 280.462 441.07 280.358 441.094 280.205C441.544 277.4 439.618 274.797 436.813 274.368L432.467 273.703C432.314 273.68 432.171 273.785 432.147 273.939ZM440.001 285.246C439.848 285.222 439.704 285.326 439.68 285.479C439.286 287.935 438.837 290.735 438.352 293.763C438.328 293.916 438.432 294.06 438.585 294.085C438.738 294.109 438.882 294.005 438.906 293.852C439.392 290.823 439.84 288.023 440.234 285.568C440.259 285.415 440.154 285.271 440.001 285.246ZM437.713 299.537C437.56 299.512 437.416 299.616 437.391 299.77L433.748 322.552C431.756 335.033 429.994 346.126 429.397 350.029C429.374 350.182 429.479 350.326 429.632 350.349C429.785 350.373 429.929 350.267 429.952 350.114C430.549 346.213 432.31 335.122 434.302 322.64L437.946 299.858C437.97 299.705 437.866 299.561 437.713 299.537Z" fill="#345267"/>
<path fill-rule="evenodd" clip-rule="evenodd" d="M427.675 357.789C427.534 357.725 427.368 357.788 427.304 357.929C426.469 359.773 425.506 360.93 424.471 361.532C423.445 362.128 422.314 362.2 421.086 361.805C420.939 361.758 420.781 361.839 420.733 361.986C420.686 362.134 420.767 362.292 420.915 362.34C422.268 362.775 423.568 362.706 424.753 362.017C425.927 361.334 426.954 360.062 427.815 358.161C427.879 358.019 427.817 357.853 427.675 357.789Z" fill="#345267"/>
<path fill-rule="evenodd" clip-rule="evenodd" d="M395.294 305.554C391.922 309.336 388.374 311.142 385.582 311.801C384.101 312.15 382.847 312.173 381.949 312.011C381.499 311.929 381.158 311.804 380.926 311.667C380.69 311.527 380.608 311.401 380.585 311.331C380.294 310.465 380.591 309.592 381.478 308.722C382.373 307.845 383.797 307.055 385.503 306.448C388.61 305.345 392.451 304.922 395.294 305.554ZM380.692 307.92C379.629 308.963 379.042 310.266 379.52 311.689C379.659 312.102 379.981 312.413 380.355 312.634C380.733 312.857 381.21 313.018 381.749 313.115C382.829 313.311 384.242 313.27 385.84 312.894C389.043 312.138 393.047 310.019 396.733 305.605C396.852 305.462 396.893 305.269 396.841 305.09C396.789 304.911 396.652 304.769 396.475 304.711C393.272 303.673 388.691 304.125 385.127 305.39C383.341 306.025 381.748 306.885 380.692 307.92Z" fill="#FEFEFE"/>
<path fill-rule="evenodd" clip-rule="evenodd" d="M396.306 306.415C397.496 313.063 396.26 318.231 394.386 321.637C393.409 323.411 392.265 324.697 391.213 325.47C390.127 326.268 389.265 326.436 388.782 326.27C387.604 325.864 386.748 324.933 386.309 323.596C385.867 322.249 385.853 320.491 386.396 318.512C387.441 314.707 390.527 310.168 396.306 306.415ZM385.243 323.947C385.773 325.563 386.855 326.794 388.416 327.332C389.436 327.683 390.704 327.237 391.878 326.375C393.085 325.488 394.329 324.068 395.369 322.178C397.455 318.389 398.744 312.668 397.252 305.387C397.215 305.208 397.093 305.057 396.925 304.985C396.757 304.912 396.564 304.926 396.408 305.022C389.989 308.975 386.488 313.936 385.313 318.214C384.727 320.35 384.715 322.34 385.243 323.947Z" fill="#FEFEFE"/>
<path d="M372.99 411.502L373.786 369.974L340.722 369.974L334.952 390.237L372.99 411.502Z" fill="#FEFEFE"/>
<path fill-rule="evenodd" clip-rule="evenodd" d="M372.987 369.053C372.832 369.053 372.706 369.179 372.706 369.334L372.706 411.504C372.706 411.659 372.832 411.785 372.987 411.785C373.142 411.785 373.268 411.659 373.268 411.504L373.268 369.334C373.268 369.179 373.142 369.053 372.987 369.053ZM340.797 369.706C340.647 369.664 340.492 369.75 340.45 369.899L334.679 390.161C334.636 390.31 334.723 390.466 334.872 390.508C335.021 390.551 335.176 390.464 335.219 390.315L340.99 370.053C341.032 369.904 340.946 369.749 340.797 369.706Z" fill="#444779"/>
<path d="M373.248 368.514L340.728 369.972L339.211 375.3C339.211 375.3 365.874 379.155 373.248 383.535L373.248 368.514Z" fill="#444779"/>
<path d="M339.218 380.578C356.724 376.99 349.588 400.129 373.213 387.949L373.216 417.686C373.217 420.803 370.7 423.324 367.583 423.301C351.575 423.186 306.404 422.867 297.585 422.868C260.207 422.871 310.884 386.385 339.218 380.578Z" fill="#355CB7"/>
<path d="M368.375 423.306C353.125 423.196 306.552 422.865 297.583 422.866C287.405 422.867 283.756 420.163 284.407 416.109C297.556 408.866 339.219 416.103 341.814 413.203C352.058 398.704 367.015 399.749 373.213 402.085L373.214 418.472C373.215 421.155 371.058 423.325 368.375 423.306Z" fill="#EEEFE9"/>
<path fill-rule="evenodd" clip-rule="evenodd" d="M373.217 401.8C373.062 401.8 372.937 401.926 372.937 402.081L372.937 406.731C372.937 406.886 373.063 407.012 373.218 407.012C373.373 407.012 373.498 406.886 373.498 406.731L373.498 402.081C373.498 401.926 373.372 401.8 373.217 401.8ZM373.218 413.791C373.063 413.791 372.938 413.917 372.938 414.072L372.938 418.468C372.938 420.998 370.906 423.04 368.381 423.021C368.226 423.02 368.1 423.145 368.099 423.3C368.098 423.455 368.222 423.582 368.377 423.583C371.218 423.603 373.5 421.305 373.5 418.468L373.499 414.072C373.499 413.917 373.374 413.791 373.218 413.791ZM363.229 423.265C363.23 423.11 363.105 422.983 362.95 422.982C360.463 422.965 357.628 422.945 354.56 422.923C354.405 422.922 354.279 423.047 354.278 423.202C354.277 423.357 354.401 423.483 354.557 423.484C357.624 423.506 360.459 423.526 362.946 423.544C363.101 423.545 363.228 423.42 363.229 423.265ZM348.757 423.165C348.758 423.009 348.633 422.883 348.478 422.882L325.407 422.726C312.768 422.645 301.536 422.581 297.587 422.582C297.432 422.582 297.307 422.707 297.307 422.862C297.307 423.017 297.432 423.143 297.587 423.143C301.534 423.143 312.763 423.206 325.403 423.287L348.474 423.443C348.629 423.444 348.756 423.32 348.757 423.165Z" fill="#345267"/>
<path fill-rule="evenodd" clip-rule="evenodd" d="M289.647 422.062C289.689 421.912 289.602 421.757 289.453 421.715C287.504 421.169 286.215 420.393 285.463 419.46C284.718 418.536 284.476 417.429 284.681 416.156C284.705 416.003 284.601 415.859 284.448 415.834C284.295 415.81 284.151 415.914 284.126 416.067C283.901 417.47 284.166 418.745 285.026 419.812C285.878 420.87 287.291 421.693 289.301 422.256C289.45 422.298 289.605 422.211 289.647 422.062Z" fill="#6DE277"/>
<path d="M469.718 240.232C494.284 226.856 476.784 182.386 476.784 182.386L399.876 182.289C399.876 182.289 341.767 185.825 322.002 207.588C302.238 229.351 313.73 351.978 306.106 370.75L379.947 372.173C390.627 354.489 377.312 243.121 380.561 241.866C383.811 240.61 469.112 241.189 469.718 240.232Z" fill="#4AABF8"/>
<path fill-rule="evenodd" clip-rule="evenodd" d="M477.042 182.286C477.042 182.285 477.042 182.285 476.781 182.388C476.52 182.491 476.52 182.491 476.52 182.491L476.523 182.498L476.532 182.522C476.54 182.543 476.552 182.574 476.568 182.616C476.6 182.7 476.648 182.825 476.708 182.988C476.83 183.315 477.005 183.798 477.22 184.417C477.649 185.655 478.235 187.439 478.862 189.623C480.116 193.991 481.531 199.95 482.181 206.323C483.484 219.099 481.7 233.389 469.581 239.987L469.85 240.481C482.297 233.703 484.045 219.069 482.74 206.266C482.085 199.85 480.661 193.856 479.401 189.468C478.771 187.273 478.182 185.479 477.75 184.233C477.534 183.61 477.358 183.123 477.235 182.793C477.173 182.627 477.125 182.501 477.093 182.415C477.076 182.373 477.064 182.34 477.055 182.318L477.046 182.294L477.042 182.286ZM380.683 242.116C380.682 242.117 380.675 242.123 380.659 242.129L380.457 241.606C380.332 241.654 380.247 241.75 380.191 241.84C380.133 241.932 380.087 242.043 380.049 242.162C379.974 242.403 379.918 242.725 379.874 243.115C379.788 243.897 379.75 245.004 379.752 246.389C379.756 249.162 379.919 253.087 380.177 257.845C380.436 262.629 380.793 268.268 381.183 274.437C381.569 280.534 381.988 287.149 382.378 293.97C383.163 307.699 383.832 322.278 383.888 335.204C383.944 348.138 383.385 359.389 381.723 366.477L382.27 366.605C383.949 359.446 384.506 348.134 384.45 335.202C384.393 322.261 383.723 307.67 382.938 293.938C382.548 287.106 382.129 280.492 381.744 274.398C381.353 268.234 380.997 262.602 380.737 257.815C380.479 253.057 380.317 249.145 380.314 246.388C380.312 245.009 380.349 243.927 380.432 243.177C380.474 242.8 380.526 242.519 380.585 242.33C380.615 242.235 380.643 242.175 380.665 242.14C380.677 242.121 380.684 242.115 380.683 242.116ZM309.332 339.035C309.465 332.014 309.511 324.264 309.555 316.136L308.993 316.133C308.949 324.262 308.904 332.008 308.77 339.025L309.332 339.035ZM307.975 363.632C308.384 360.534 308.68 356.784 308.897 352.519L308.336 352.49C308.119 356.748 307.824 360.482 307.418 363.558C307.011 366.639 306.495 369.041 305.843 370.646L306.363 370.857C307.043 369.184 307.566 366.724 307.975 363.632Z" fill="#1081B0"/>
<path d="M306.108 370.751C321.548 367.383 374.493 368.786 380.032 372.155C354.673 375.804 312.621 373.671 306.108 370.751Z" fill="#42447C"/>
<path fill-rule="evenodd" clip-rule="evenodd" d="M338.76 380.964C334.512 378.203 332.189 374.969 331.116 372.308C330.547 370.898 330.334 369.661 330.359 368.749C330.372 368.292 330.443 367.937 330.544 367.686C330.646 367.432 330.759 367.332 330.824 367.298C331.637 366.879 332.544 367.041 333.538 367.787C334.541 368.538 335.538 369.826 336.395 371.421C337.955 374.325 338.955 378.058 338.76 380.964ZM334.212 366.888C333.021 365.995 331.644 365.612 330.309 366.3C329.922 366.499 329.664 366.864 329.502 367.268C329.338 367.675 329.252 368.171 329.237 368.718C329.207 369.816 329.461 371.207 330.075 372.729C331.306 375.781 334.006 379.418 338.927 382.394C339.087 382.49 339.284 382.501 339.453 382.423C339.622 382.345 339.742 382.188 339.772 382.004C340.314 378.68 339.174 374.221 337.384 370.89C336.486 369.219 335.396 367.776 334.212 366.888Z" fill="#444779"/>
<path fill-rule="evenodd" clip-rule="evenodd" d="M338.068 382.103C331.676 384.285 326.38 383.844 322.731 382.507C320.829 381.81 319.385 380.874 318.461 379.95C317.509 378.998 317.212 378.171 317.303 377.668C317.526 376.442 318.316 375.456 319.572 374.82C320.837 374.179 322.572 373.899 324.611 374.137C328.53 374.594 333.483 376.958 338.068 382.103ZM319.064 373.818C317.546 374.588 316.494 375.843 316.198 377.468C316.005 378.529 316.638 379.715 317.667 380.745C318.727 381.804 320.319 382.819 322.344 383.561C326.405 385.049 332.255 385.458 339.227 382.882C339.398 382.819 339.529 382.675 339.575 382.498C339.621 382.321 339.579 382.132 339.46 381.992C334.581 376.245 329.148 373.535 324.741 373.021C322.541 372.765 320.572 373.054 319.064 373.818Z" fill="#444779"/>
<path d="M401.367 72.23C414.88 54.1005 431.193 78.2005 427.763 86.6075C426.178 90.493 412.125 120.028 410.465 126.818C409.067 132.535 416.591 184.743 416.591 184.743L391.405 186.847C391.405 186.847 379.106 153.4 384.023 123.691C386.876 106.455 395.495 80.1084 401.367 72.23Z" fill="#EC6C47"/>
<path d="M464.195 69.9468C451.007 54.1644 420.98 51.751 403.637 69.9464C393.246 80.8479 405.913 121.046 391.411 187.376L476.795 182.376C467.612 133.751 474.28 82.0154 464.195 69.9468Z" fill="#EC6C47"/>
<path fill-rule="evenodd" clip-rule="evenodd" d="M399.07 111.347C398.915 111.347 398.789 111.473 398.789 111.628C398.761 125.827 398.298 143.245 395.39 163.716C395.369 163.869 395.475 164.012 395.629 164.033C395.782 164.055 395.924 163.948 395.946 163.795C398.859 143.288 399.323 125.841 399.351 111.629C399.351 111.474 399.225 111.348 399.07 111.347Z" fill="#D5482A"/>
<path d="M404.214 186.23L388.291 165.19C388.291 165.19 448.372 160.861 449.134 158.651C449.79 156.745 439.816 83.619 439.816 74.2868C439.816 59.6727 454.159 61.2904 457.789 63.9237C480.692 80.5376 488.789 160.673 479.838 175.71C466.726 197.737 404.214 186.23 404.214 186.23Z" fill="#EC6C47"/>
<path fill-rule="evenodd" clip-rule="evenodd" d="M443.623 110.225C443.469 110.244 443.359 110.384 443.378 110.538C443.879 114.665 444.393 118.861 444.897 122.969C445.766 130.057 446.603 136.882 447.284 142.635C447.822 147.179 448.262 151.053 448.545 153.858C448.686 155.261 448.787 156.394 448.842 157.21C448.869 157.618 448.884 157.943 448.887 158.181C448.888 158.3 448.887 158.394 448.882 158.463C448.879 158.504 448.876 158.53 448.874 158.545C448.874 158.545 448.873 158.546 448.873 158.546C448.854 158.563 448.82 158.587 448.763 158.618C448.649 158.679 448.477 158.747 448.243 158.822C447.777 158.97 447.106 159.127 446.251 159.292C444.545 159.62 442.143 159.969 439.274 160.327C433.54 161.043 425.962 161.791 418.405 162.47C410.849 163.15 403.316 163.76 397.672 164.2C394.85 164.42 392.501 164.598 390.856 164.721C390.034 164.782 389.389 164.829 388.949 164.862C388.729 164.878 388.56 164.89 388.446 164.898L388.277 164.911L388.275 164.911C388.274 164.911 388.274 164.911 388.294 165.191C388.314 165.471 388.315 165.471 388.315 165.471L388.657 165.446C388.75 165.439 388.861 165.431 388.99 165.422C389.43 165.389 390.076 165.342 390.898 165.28C392.543 165.158 394.893 164.98 397.716 164.76C403.361 164.319 410.896 163.709 418.455 163.03C426.014 162.35 433.599 161.602 439.344 160.884C442.215 160.526 444.632 160.175 446.357 159.843C447.218 159.677 447.916 159.515 448.413 159.357C448.661 159.278 448.87 159.197 449.028 159.112C449.107 159.07 449.182 159.022 449.244 158.968C449.304 158.915 449.369 158.841 449.402 158.743C449.428 158.67 449.437 158.58 449.442 158.499C449.448 158.41 449.45 158.301 449.448 158.174C449.445 157.921 449.429 157.585 449.402 157.173C449.347 156.347 449.245 155.207 449.103 153.802C448.82 150.991 448.379 147.114 447.841 142.569C447.16 136.815 446.323 129.987 445.454 122.899C444.95 118.791 444.436 114.596 443.935 110.47C443.916 110.316 443.776 110.207 443.623 110.225ZM388.294 165.191L388.314 165.471C388.16 165.482 388.025 165.366 388.014 165.211C388.003 165.056 388.119 164.922 388.274 164.911L388.294 165.191ZM480.338 117.807C480.185 117.832 480.082 117.977 480.108 118.13C482.183 130.496 483.2 142.946 483.123 153.27C483.084 158.431 482.772 163.057 482.182 166.871C481.592 170.692 480.727 173.674 479.6 175.567C476.378 180.98 470.1 184.363 462.423 186.375C454.752 188.385 445.737 189.011 437.115 188.95C428.495 188.888 420.283 188.139 414.224 187.405C411.195 187.038 408.705 186.675 406.973 186.404C406.107 186.268 405.43 186.156 404.971 186.077C404.741 186.038 404.565 186.007 404.447 185.986C404.388 185.975 404.343 185.967 404.313 185.962L404.28 185.956L404.271 185.954L404.269 185.954C404.269 185.954 404.269 185.954 404.218 186.23C404.167 186.506 404.167 186.506 404.168 186.506L404.179 186.508L404.213 186.514C404.244 186.52 404.289 186.528 404.349 186.539C404.468 186.56 404.645 186.591 404.876 186.631C405.338 186.71 406.017 186.823 406.886 186.959C408.624 187.231 411.12 187.595 414.156 187.963C420.228 188.698 428.463 189.449 437.111 189.511C445.756 189.573 454.826 188.946 462.565 186.918C470.296 184.892 476.749 181.455 480.082 175.854C481.266 173.866 482.143 170.799 482.737 166.957C483.332 163.107 483.645 158.453 483.684 153.274C483.762 142.914 482.741 130.432 480.661 118.037C480.636 117.884 480.491 117.781 480.338 117.807ZM403.942 186.179C403.914 186.332 404.015 186.478 404.167 186.506L404.218 186.23L404.269 185.954C404.116 185.926 403.97 186.027 403.942 186.179Z" fill="#D5482A"/>
<path d="M388.296 165.186C394.028 168.858 403.874 179.572 404.218 186.226C399.488 184.278 391.047 175.977 388.296 165.186Z" fill="#3E4981"/>
<path d="M366.408 168.767C371.93 164.583 391.427 167.749 391.427 167.749C395.692 171.161 401.946 178.27 403.652 183.387C403.652 183.387 394.554 180.543 385.456 184.24C381.96 185.66 384.369 181.631 385.456 180.544C389.152 176.848 350.487 180.829 366.408 168.767Z" fill="#F1B09B"/>
<path d="M439.828 20.0289C435.167 17.6394 425.768 11.2211 425.456 4.66466C426.498 7.64059 430.831 14.8798 439.828 20.0289Z" fill="#444779"/>
<path d="M441.71 22.8362C437.532 19.6784 429.381 11.7348 430.205 5.22292C430.718 8.33398 433.737 16.2121 441.71 22.8362Z" fill="#444779"/>
<path d="M451.362 20.7278C466.796 29.7129 452.52 43.5743 444.794 49.5884C436.151 42.7115 449.134 36.2639 446.76 35.5519C444.386 34.8398 439.999 36.8692 426.395 29.5755C424.824 28.7334 423.601 27.8213 422.67 26.8652C417.151 21.196 421.095 10.3477 424.737 7.03535C426.514 12.0919 431.733 15.6509 436.339 17.311C434.681 16.0413 431.101 11.5434 434.018 7.03535C438.328 14.9907 444.625 16.8068 451.362 20.7278Z" fill="#05185A"/>
<path d="M422.904 68.5657C425.799 71.5751 437.966 73.6171 446.55 68.5657C447.736 66.2005 442.275 44.3945 446.094 41.736C453.19 36.7953 445.644 31.631 441.434 33.4712C438.907 34.5759 436.661 32.7534 434.977 31.3498C428.015 25.0617 424.119 22.636 422.904 25.1731C413.361 45.1043 420.292 51.2884 422.489 53.5349C423.319 54.3832 423.534 57.1933 423.455 60.458C423.367 64.1096 420.819 66.3982 422.904 68.5657Z" fill="#F1B09B"/>
<path fill-rule="evenodd" clip-rule="evenodd" d="M445.001 33.0066C443.767 32.6927 442.44 32.7103 441.317 33.2012C440.146 33.713 439.038 33.553 438 33.0827C436.954 32.6086 436.001 31.829 435.156 31.125C431.678 27.9838 428.942 25.7849 426.914 24.6921C425.903 24.1474 425.029 23.8556 424.306 23.8905C423.938 23.9082 423.607 24.0108 423.322 24.2089C423.037 24.4062 422.815 24.6875 422.647 25.0391C417.86 35.0353 417.184 41.627 418.013 46.025C418.799 50.1927 420.932 52.3505 422.093 53.5253C422.16 53.5928 422.224 53.6572 422.283 53.7184C422.446 53.8842 422.598 54.1698 422.728 54.5864C422.857 54.9981 422.957 55.5126 423.029 56.1114C423.175 57.3086 423.209 58.8119 423.17 60.4384C423.137 61.8097 422.75 62.9692 422.391 64.0434C422.285 64.3604 422.182 64.67 422.091 64.9754C421.895 65.6338 421.756 66.2794 421.814 66.9109C421.873 67.5542 422.135 68.1624 422.697 68.7476C423.469 69.5497 424.825 70.2594 426.523 70.8004C428.23 71.3441 430.314 71.7272 432.573 71.856C437.087 72.1134 442.334 71.3566 446.688 68.7949L446.759 68.7529L446.796 68.6788C446.895 68.4826 446.946 68.2158 446.973 67.9162C447.001 67.6099 447.005 67.2403 446.99 66.8205C446.961 65.9806 446.859 64.9149 446.716 63.704C446.573 62.4919 446.388 61.1271 446.194 59.6878L446.193 59.6832C445.998 58.2443 445.793 56.7302 445.609 55.2142C445.239 52.1759 444.954 49.1435 444.997 46.7093C445.019 45.4915 445.122 44.4369 445.333 43.6118C445.546 42.7782 445.856 42.2278 446.25 41.9536C448.057 40.695 448.979 39.3905 449.222 38.1425C449.468 36.8866 449.015 35.7486 448.207 34.8592C447.402 33.9733 446.234 33.3207 445.001 33.0066ZM448.671 38.0349C448.466 39.0873 447.669 40.281 445.929 41.4928C445.368 41.8833 445.013 42.5959 444.789 43.4729C444.563 44.3583 444.458 45.462 444.436 46.6993C444.392 49.1754 444.681 52.2408 445.051 55.282C445.236 56.8018 445.442 58.319 445.636 59.7568L445.637 59.7631C445.832 61.2037 446.016 62.5634 446.159 63.7698C446.301 64.9773 446.401 66.024 446.429 66.8397C446.443 67.2477 446.439 67.5918 446.414 67.866C446.394 68.0907 446.361 68.2513 446.324 68.3575C442.108 70.81 437.016 71.547 432.605 71.2955C430.387 71.169 428.35 70.7931 426.694 70.2654C425.029 69.735 423.778 69.0609 423.102 68.3584C422.623 67.8598 422.42 67.369 422.373 66.8595C422.325 66.3382 422.438 65.777 422.629 65.1358C422.711 64.8599 422.808 64.57 422.91 64.2659C423.273 63.1822 423.696 61.9166 423.731 60.452C423.771 58.8138 423.737 57.2798 423.587 56.0437C423.512 55.4258 423.407 54.8747 423.264 54.4189C423.123 53.968 422.938 53.5842 422.685 53.3258C422.625 53.2646 422.562 53.2006 422.496 53.1336C421.35 51.9746 419.319 49.919 418.565 45.921C417.766 41.6825 418.396 35.2166 423.153 25.2816C423.288 24.9989 423.453 24.801 423.642 24.67C423.829 24.5397 424.056 24.4646 424.333 24.4512C424.9 24.4239 425.663 24.6558 426.648 25.1864C428.61 26.2437 431.302 28.4004 434.784 31.5454L434.788 31.5491L434.792 31.5527C435.631 32.2514 436.641 33.083 437.769 33.5941C438.907 34.1097 440.185 34.3085 441.542 33.7156C442.524 33.2864 443.718 33.2595 444.862 33.5507C446.006 33.8418 447.071 34.4441 447.791 35.2368C448.509 36.026 448.875 36.9905 448.671 38.0349Z" fill="#EC8E67"/>
<path d="M440.583 53.5317C437.569 56.3172 427.962 54.5709 422.48 53.5315C423.31 54.3798 423.525 57.19 423.446 60.4549C428.892 60.0787 438.256 58.4586 440.583 53.5317Z" fill="#EC8E67"/>
<path d="M319.866 189.405L286.18 130.453H364.331C365.131 130.453 365.871 130.88 366.273 131.572L399.03 188.001L319.866 189.405Z" fill="#1C43AE"/>
<path d="M366.273 131.578L399.03 188.008H420.224C421.232 188.008 422.049 187.191 422.049 186.183C422.049 185.175 421.232 184.358 420.224 184.358H400.152L368.235 128.227C367.835 127.525 367.09 127.091 366.282 127.091H293.709C293.372 127.091 293.04 127.167 292.737 127.312L286.18 130.46H364.331C365.131 130.46 365.871 130.886 366.273 131.578Z" fill="#0F2E9A"/>
</svg>
